<?xml version="1.0" encoding="UTF-8"?>
<!DOCTYPE svg PUBLIC "-//W3C//DTD SVG 1.1//EN" "http://www.w3.org/Graphics/SVG/1.1/DTD/svg11.dtd">
<!-- Creator: CorelDRAW X7 -->
<svg xmlns="http://www.w3.org/2000/svg" xml:space="preserve" width="210mm" height="297mm" version="1.1" style="shape-rendering:geometricPrecision; text-rendering:geometricPrecision; image-rendering:optimizeQuality; fill-rule:evenodd; clip-rule:evenodd"
viewBox="0 0 21000 29700"
 xmlns:xlink="http://www.w3.org/1999/xlink">
 <defs>
  <style type="text/css">
   <![CDATA[
    .str0 {stroke:black;stroke-width:7.62;stroke-linejoin:bevel}
    .fil0 {fill:none}
   ]]>
  </style>
 </defs>
 <g id="_0">
  <metadata id="CorelCorpID_0Corel-Layer"/>
  <line class="fil0 str0" x1="6736" y1="15428" x2="6736" y2= "10328" />
  <line class="fil0 str0" x1="6736" y1="10328" x2="14336" y2= "10328" />
  <line class="fil0 str0" x1="14336" y1="10328" x2="14336" y2= "15428" />
  <line class="fil0 str0" x1="14336" y1="15428" x2="6736" y2= "15428" />
  <line class="fil0 str0" x1="7055" y1="15136" x2="7055" y2= "15019" />
  <line class="fil0 str0" x1="7055" y1="15019" x2="7166" y2= "14982" />
  <line class="fil0 str0" x1="7166" y1="14982" x2="7236" y2= "15078" />
  <line class="fil0 str0" x1="7236" y1="15078" x2="7166" y2= "15173" />
  <line class="fil0 str0" x1="7166" y1="15173" x2="7055" y2= "15136" />
  <line class="fil0 str0" x1="7055" y1="10836" x2="7055" y2= "10719" />
  <line class="fil0 str0" x1="7055" y1="10719" x2="7166" y2= "10682" />
  <line class="fil0 str0" x1="7166" y1="10682" x2="7236" y2= "10778" />
  <line class="fil0 str0" x1="7236" y1="10778" x2="7166" y2= "10873" />
  <line class="fil0 str0" x1="7166" y1="10873" x2="7055" y2= "10836" />
  <line class="fil0 str0" x1="9605" y1="10816" x2="9605" y2= "10699" />
  <line class="fil0 str0" x1="9605" y1="10699" x2="9716" y2= "10662" />
  <line class="fil0 str0" x1="9716" y1="10662" x2="9786" y2= "10758" />
  <line class="fil0 str0" x1="9786" y1="10758" x2="9716" y2= "10853" />
  <line class="fil0 str0" x1="9716" y1="10853" x2="9605" y2= "10816" />
  <line class="fil0 str0" x1="9655" y1="15286" x2="9655" y2= "15169" />
  <line class="fil0 str0" x1="9655" y1="15169" x2="9766" y2= "15132" />
  <line class="fil0 str0" x1="9766" y1="15132" x2="9836" y2= "15228" />
  <line class="fil0 str0" x1="9836" y1="15228" x2="9766" y2= "15323" />
  <line class="fil0 str0" x1="9766" y1="15323" x2="9655" y2= "15286" />
 </g>
</svg>
