  0
SECTION
  2
BLOCKS
  0
ENDSEC
  0
SECTION
  2
ENTITIES
  0
LINE
  8
0
 10
197.784
 20
272.04
 11
181.392
 21
272.04
  0
LINE
  8
0
 10
181.392
 20
272.04
 11
181.392
 21
269
  0
LINE
  8
0
 10
181.392
 20
269
 11
165
 21
269
  0
LINE
  8
0
 10
165
 20
269
 11
165
 21
154
  0
LINE
  8
0
 10
165
 20
154
 11
181.392
 21
154
  0
LINE
  8
0
 10
181.392
 20
154
 11
181.392
 21
150.96
  0
LINE
  8
0
 10
181.392
 20
150.96
 11
197.784
 21
150.96
  0
LINE
  8
0
 10
197.784
 20
150.96
 11
197.784
 21
272.04
  0
LINE
  8
0
 10
109
 20
154
 11
126
 21
154
  0
LINE
  8
0
 10
126
 20
154
 11
126
 21
150.96
  0
LINE
  8
0
 10
126
 20
150.96
 11
143
 21
150.96
  0
LINE
  8
0
 10
143
 20
150.96
 11
143
 21
154
  0
LINE
  8
0
 10
143
 20
154
 11
160
 21
154
  0
LINE
  8
0
 10
160
 20
154
 11
160
 21
269
  0
LINE
  8
0
 10
160
 20
269
 11
143
 21
269
  0
LINE
  8
0
 10
143
 20
269
 11
143
 21
272.04
  0
LINE
  8
0
 10
143
 20
272.04
 11
126
 21
272.04
  0
LINE
  8
0
 10
126
 20
272.04
 11
126
 21
269
  0
LINE
  8
0
 10
126
 20
269
 11
109
 21
269
  0
LINE
  8
0
 10
109
 20
269
 11
109
 21
272.04
  0
LINE
  8
0
 10
109
 20
272.04
 11
92
 21
272.04
  0
LINE
  8
0
 10
92
 20
272.04
 11
92
 21
269
  0
LINE
  8
0
 10
92
 20
269
 11
75
 21
269
  0
LINE
  8
0
 10
75
 20
269
 11
75
 21
246
  0
LINE
  8
0
 10
75
 20
246
 11
78.04
 21
246
  0
LINE
  8
0
 10
78.04
 20
246
 11
78.04
 21
223
  0
LINE
  8
0
 10
78.04
 20
223
 11
75
 21
223
  0
LINE
  8
0
 10
75
 20
223
 11
75
 21
200
  0
LINE
  8
0
 10
75
 20
200
 11
78.04
 21
200
  0
LINE
  8
0
 10
78.04
 20
200
 11
78.04
 21
177
  0
LINE
  8
0
 10
78.04
 20
177
 11
75
 21
177
  0
LINE
  8
0
 10
75
 20
177
 11
75
 21
154
  0
LINE
  8
0
 10
75
 20
154
 11
92
 21
154
  0
LINE
  8
0
 10
92
 20
154
 11
92
 21
150.96
  0
LINE
  8
0
 10
92
 20
150.96
 11
109
 21
150.96
  0
LINE
  8
0
 10
109
 20
150.96
 11
109
 21
154
  0
LINE
  8
0
 10
146.232
 20
248.098
 11
145.674
 21
248.382
  0
LINE
  8
0
 10
145.674
 20
248.382
 11
145.232
 21
248.824
  0
LINE
  8
0
 10
145.232
 20
248.824
 11
144.948
 21
249.382
  0
LINE
  8
0
 10
144.948
 20
249.382
 11
144.85
 21
250
  0
LINE
  8
0
 10
144.85
 20
250
 11
144.948
 21
250.618
  0
LINE
  8
0
 10
144.948
 20
250.618
 11
145.232
 21
251.176
  0
LINE
  8
0
 10
145.232
 20
251.176
 11
145.674
 21
251.618
  0
LINE
  8
0
 10
145.674
 20
251.618
 11
146.232
 21
251.902
  0
LINE
  8
0
 10
146.232
 20
251.902
 11
146.85
 21
252
  0
LINE
  8
0
 10
146.85
 20
252
 11
147.468
 21
251.902
  0
LINE
  8
0
 10
147.468
 20
251.902
 11
148.026
 21
251.618
  0
LINE
  8
0
 10
148.026
 20
251.618
 11
148.468
 21
251.176
  0
LINE
  8
0
 10
148.468
 20
251.176
 11
148.752
 21
250.618
  0
LINE
  8
0
 10
148.752
 20
250.618
 11
148.85
 21
250
  0
LINE
  8
0
 10
148.85
 20
250
 11
148.752
 21
249.382
  0
LINE
  8
0
 10
148.752
 20
249.382
 11
148.468
 21
248.824
  0
LINE
  8
0
 10
148.468
 20
248.824
 11
148.026
 21
248.382
  0
LINE
  8
0
 10
148.026
 20
248.382
 11
147.468
 21
248.098
  0
LINE
  8
0
 10
147.468
 20
248.098
 11
146.85
 21
248
  0
LINE
  8
0
 10
146.85
 20
248
 11
146.232
 21
248.098
  0
LINE
  8
0
 10
117.532
 20
248.098
 11
116.974
 21
248.382
  0
LINE
  8
0
 10
116.974
 20
248.382
 11
116.532
 21
248.824
  0
LINE
  8
0
 10
116.532
 20
248.824
 11
116.248
 21
249.382
  0
LINE
  8
0
 10
116.248
 20
249.382
 11
116.15
 21
250
  0
LINE
  8
0
 10
116.15
 20
250
 11
116.248
 21
250.618
  0
LINE
  8
0
 10
116.248
 20
250.618
 11
116.532
 21
251.176
  0
LINE
  8
0
 10
116.532
 20
251.176
 11
116.974
 21
251.618
  0
LINE
  8
0
 10
116.974
 20
251.618
 11
117.532
 21
251.902
  0
LINE
  8
0
 10
117.532
 20
251.902
 11
118.15
 21
252
  0
LINE
  8
0
 10
118.15
 20
252
 11
118.768
 21
251.902
  0
LINE
  8
0
 10
118.768
 20
251.902
 11
119.326
 21
251.618
  0
LINE
  8
0
 10
119.326
 20
251.618
 11
119.768
 21
251.176
  0
LINE
  8
0
 10
119.768
 20
251.176
 11
120.052
 21
250.618
  0
LINE
  8
0
 10
120.052
 20
250.618
 11
120.15
 21
250
  0
LINE
  8
0
 10
120.15
 20
250
 11
120.052
 21
249.382
  0
LINE
  8
0
 10
120.052
 20
249.382
 11
119.768
 21
248.824
  0
LINE
  8
0
 10
119.768
 20
248.824
 11
119.326
 21
248.382
  0
LINE
  8
0
 10
119.326
 20
248.382
 11
118.768
 21
248.098
  0
LINE
  8
0
 10
118.768
 20
248.098
 11
118.15
 21
248
  0
LINE
  8
0
 10
118.15
 20
248
 11
117.532
 21
248.098
  0
LINE
  8
0
 10
146.232
 20
240.098
 11
145.674
 21
240.382
  0
LINE
  8
0
 10
145.674
 20
240.382
 11
145.232
 21
240.824
  0
LINE
  8
0
 10
145.232
 20
240.824
 11
144.948
 21
241.382
  0
LINE
  8
0
 10
144.948
 20
241.382
 11
144.85
 21
242
  0
LINE
  8
0
 10
144.85
 20
242
 11
144.948
 21
242.618
  0
LINE
  8
0
 10
144.948
 20
242.618
 11
145.232
 21
243.176
  0
LINE
  8
0
 10
145.232
 20
243.176
 11
145.674
 21
243.618
  0
LINE
  8
0
 10
145.674
 20
243.618
 11
146.232
 21
243.902
  0
LINE
  8
0
 10
146.232
 20
243.902
 11
146.85
 21
244
  0
LINE
  8
0
 10
146.85
 20
244
 11
147.468
 21
243.902
  0
LINE
  8
0
 10
147.468
 20
243.902
 11
148.026
 21
243.618
  0
LINE
  8
0
 10
148.026
 20
243.618
 11
148.468
 21
243.176
  0
LINE
  8
0
 10
148.468
 20
243.176
 11
148.752
 21
242.618
  0
LINE
  8
0
 10
148.752
 20
242.618
 11
148.85
 21
242
  0
LINE
  8
0
 10
148.85
 20
242
 11
148.752
 21
241.382
  0
LINE
  8
0
 10
148.752
 20
241.382
 11
148.468
 21
240.824
  0
LINE
  8
0
 10
148.468
 20
240.824
 11
148.026
 21
240.382
  0
LINE
  8
0
 10
148.026
 20
240.382
 11
147.468
 21
240.098
  0
LINE
  8
0
 10
147.468
 20
240.098
 11
146.85
 21
240
  0
LINE
  8
0
 10
146.85
 20
240
 11
146.232
 21
240.098
  0
LINE
  8
0
 10
117.532
 20
240.098
 11
116.974
 21
240.382
  0
LINE
  8
0
 10
116.974
 20
240.382
 11
116.532
 21
240.824
  0
LINE
  8
0
 10
116.532
 20
240.824
 11
116.248
 21
241.382
  0
LINE
  8
0
 10
116.248
 20
241.382
 11
116.15
 21
242
  0
LINE
  8
0
 10
116.15
 20
242
 11
116.248
 21
242.618
  0
LINE
  8
0
 10
116.248
 20
242.618
 11
116.532
 21
243.176
  0
LINE
  8
0
 10
116.532
 20
243.176
 11
116.974
 21
243.618
  0
LINE
  8
0
 10
116.974
 20
243.618
 11
117.532
 21
243.902
  0
LINE
  8
0
 10
117.532
 20
243.902
 11
118.15
 21
244
  0
LINE
  8
0
 10
118.15
 20
244
 11
118.768
 21
243.902
  0
LINE
  8
0
 10
118.768
 20
243.902
 11
119.326
 21
243.618
  0
LINE
  8
0
 10
119.326
 20
243.618
 11
119.768
 21
243.176
  0
LINE
  8
0
 10
119.768
 20
243.176
 11
120.052
 21
242.618
  0
LINE
  8
0
 10
120.052
 20
242.618
 11
120.15
 21
242
  0
LINE
  8
0
 10
120.15
 20
242
 11
120.052
 21
241.382
  0
LINE
  8
0
 10
120.052
 20
241.382
 11
119.768
 21
240.824
  0
LINE
  8
0
 10
119.768
 20
240.824
 11
119.326
 21
240.382
  0
LINE
  8
0
 10
119.326
 20
240.382
 11
118.768
 21
240.098
  0
LINE
  8
0
 10
118.768
 20
240.098
 11
118.15
 21
240
  0
LINE
  8
0
 10
118.15
 20
240
 11
117.532
 21
240.098
  0
LINE
  8
0
 10
120.292
 20
197.787
 11
116.947
 21
199.492
  0
LINE
  8
0
 10
116.947
 20
199.492
 11
114.292
 21
202.147
  0
LINE
  8
0
 10
114.292
 20
202.147
 11
112.587
 21
205.492
  0
LINE
  8
0
 10
112.587
 20
205.492
 11
112
 21
209.2
  0
LINE
  8
0
 10
112
 20
209.2
 11
112.587
 21
212.908
  0
LINE
  8
0
 10
112.587
 20
212.908
 11
114.292
 21
216.253
  0
LINE
  8
0
 10
114.292
 20
216.253
 11
116.947
 21
218.908
  0
LINE
  8
0
 10
116.947
 20
218.908
 11
120.292
 21
220.613
  0
LINE
  8
0
 10
120.292
 20
220.613
 11
124
 21
221.2
  0
LINE
  8
0
 10
124
 20
221.2
 11
127.708
 21
220.613
  0
LINE
  8
0
 10
127.708
 20
220.613
 11
131.053
 21
218.908
  0
LINE
  8
0
 10
131.053
 20
218.908
 11
133.708
 21
216.253
  0
LINE
  8
0
 10
133.708
 20
216.253
 11
135.413
 21
212.908
  0
LINE
  8
0
 10
135.413
 20
212.908
 11
136
 21
209.2
  0
LINE
  8
0
 10
136
 20
209.2
 11
135.413
 21
205.492
  0
LINE
  8
0
 10
135.413
 20
205.492
 11
133.708
 21
202.147
  0
LINE
  8
0
 10
133.708
 20
202.147
 11
131.053
 21
199.492
  0
LINE
  8
0
 10
131.053
 20
199.492
 11
127.708
 21
197.787
  0
LINE
  8
0
 10
127.708
 20
197.787
 11
124
 21
197.2
  0
LINE
  8
0
 10
124
 20
197.2
 11
120.292
 21
197.787
  0
LINE
  8
0
 10
28
 20
154
 11
42
 21
154
  0
LINE
  8
0
 10
42
 20
154
 11
42
 21
150.96
  0
LINE
  8
0
 10
42
 20
150.96
 11
56
 21
150.96
  0
LINE
  8
0
 10
56
 20
150.96
 11
56
 21
154
  0
LINE
  8
0
 10
56
 20
154
 11
66.96
 21
154
  0
LINE
  8
0
 10
66.96
 20
154
 11
66.96
 21
177
  0
LINE
  8
0
 10
66.96
 20
177
 11
70
 21
177
  0
LINE
  8
0
 10
70
 20
177
 11
70
 21
200
  0
LINE
  8
0
 10
70
 20
200
 11
66.96
 21
200
  0
LINE
  8
0
 10
66.96
 20
200
 11
66.96
 21
223
  0
LINE
  8
0
 10
66.96
 20
223
 11
70
 21
223
  0
LINE
  8
0
 10
70
 20
223
 11
70
 21
246
  0
LINE
  8
0
 10
70
 20
246
 11
66.96
 21
246
  0
LINE
  8
0
 10
66.96
 20
246
 11
66.96
 21
269
  0
LINE
  8
0
 10
66.96
 20
269
 11
56
 21
269
  0
LINE
  8
0
 10
56
 20
269
 11
56
 21
272.04
  0
LINE
  8
0
 10
56
 20
272.04
 11
42
 21
272.04
  0
LINE
  8
0
 10
42
 20
272.04
 11
42
 21
269
  0
LINE
  8
0
 10
42
 20
269
 11
28
 21
269
  0
LINE
  8
0
 10
28
 20
269
 11
28
 21
272.04
  0
LINE
  8
0
 10
28
 20
272.04
 11
14
 21
272.04
  0
LINE
  8
0
 10
14
 20
272.04
 11
14
 21
269
  0
LINE
  8
0
 10
14
 20
269
 11
0
 21
269
  0
LINE
  8
0
 10
0
 20
269
 11
0
 21
154
  0
LINE
  8
0
 10
0
 20
154
 11
14
 21
154
  0
LINE
  8
0
 10
14
 20
154
 11
14
 21
150.96
  0
LINE
  8
0
 10
14
 20
150.96
 11
28
 21
150.96
  0
LINE
  8
0
 10
28
 20
150.96
 11
28
 21
154
  0
LINE
  8
0
 10
50.4894
 20
78.0902
 11
51.9098
 21
80.8778
  0
LINE
  8
0
 10
51.9098
 20
80.8778
 11
54.1221
 21
83.0902
  0
LINE
  8
0
 10
54.1221
 20
83.0902
 11
56.9098
 21
84.5106
  0
LINE
  8
0
 10
56.9098
 20
84.5106
 11
60
 21
85
  0
LINE
  8
0
 10
60
 20
85
 11
90
 21
85
  0
LINE
  8
0
 10
90
 20
85
 11
93.0902
 21
84.5106
  0
LINE
  8
0
 10
93.0902
 20
84.5106
 11
95.8778
 21
83.0902
  0
LINE
  8
0
 10
95.8778
 20
83.0902
 11
98.0902
 21
80.8778
  0
LINE
  8
0
 10
98.0902
 20
80.8778
 11
99.5106
 21
78.0902
  0
LINE
  8
0
 10
99.5106
 20
78.0902
 11
100
 21
75
  0
LINE
  8
0
 10
100
 20
75
 11
125
 21
75
  0
LINE
  8
0
 10
125
 20
75
 11
125.489
 21
78.0902
  0
LINE
  8
0
 10
125.489
 20
78.0902
 11
126.91
 21
80.8778
  0
LINE
  8
0
 10
126.91
 20
80.8778
 11
129.122
 21
83.0902
  0
LINE
  8
0
 10
129.122
 20
83.0902
 11
131.91
 21
84.5106
  0
LINE
  8
0
 10
131.91
 20
84.5106
 11
135
 21
85
  0
LINE
  8
0
 10
135
 20
85
 11
165
 21
85
  0
LINE
  8
0
 10
165
 20
85
 11
168.09
 21
84.5106
  0
LINE
  8
0
 10
168.09
 20
84.5106
 11
170.878
 21
83.0902
  0
LINE
  8
0
 10
170.878
 20
83.0902
 11
173.09
 21
80.8778
  0
LINE
  8
0
 10
173.09
 20
80.8778
 11
174.511
 21
78.0902
  0
LINE
  8
0
 10
174.511
 20
78.0902
 11
175
 21
75
  0
LINE
  8
0
 10
175
 20
75
 11
200
 21
75
  0
LINE
  8
0
 10
200
 20
75
 11
200.489
 21
78.0902
  0
LINE
  8
0
 10
200.489
 20
78.0902
 11
201.91
 21
80.8778
  0
LINE
  8
0
 10
201.91
 20
80.8778
 11
204.122
 21
83.0902
  0
LINE
  8
0
 10
204.122
 20
83.0902
 11
206.91
 21
84.5106
  0
LINE
  8
0
 10
206.91
 20
84.5106
 11
210
 21
85
  0
LINE
  8
0
 10
210
 20
85
 11
240
 21
85
  0
LINE
  8
0
 10
240
 20
85
 11
243.09
 21
84.5106
  0
LINE
  8
0
 10
243.09
 20
84.5106
 11
245.878
 21
83.0902
  0
LINE
  8
0
 10
245.878
 20
83.0902
 11
248.09
 21
80.8778
  0
LINE
  8
0
 10
248.09
 20
80.8778
 11
249.511
 21
78.0902
  0
LINE
  8
0
 10
249.511
 20
78.0902
 11
250
 21
75
  0
LINE
  8
0
 10
250
 20
75
 11
300
 21
75
  0
LINE
  8
0
 10
300
 20
75
 11
300
 21
145
  0
LINE
  8
0
 10
300
 20
145
 11
68
 21
145
  0
LINE
  8
0
 10
68
 20
145
 11
68
 21
141.96
  0
LINE
  8
0
 10
68
 20
141.96
 11
51
 21
141.96
  0
LINE
  8
0
 10
51
 20
141.96
 11
51
 21
145
  0
LINE
  8
0
 10
51
 20
145
 11
34
 21
145
  0
LINE
  8
0
 10
34
 20
145
 11
34
 21
141.96
  0
LINE
  8
0
 10
34
 20
141.96
 11
17
 21
141.96
  0
LINE
  8
0
 10
17
 20
141.96
 11
17
 21
145
  0
LINE
  8
0
 10
17
 20
145
 11
0
 21
145
  0
LINE
  8
0
 10
0
 20
145
 11
0
 21
131
  0
LINE
  8
0
 10
0
 20
131
 11
3.03999
 21
131
  0
LINE
  8
0
 10
3.03999
 20
131
 11
3.03999
 21
117
  0
LINE
  8
0
 10
3.03999
 20
117
 11
0
 21
117
  0
LINE
  8
0
 10
0
 20
117
 11
0
 21
103
  0
LINE
  8
0
 10
0
 20
103
 11
3.03999
 21
103
  0
LINE
  8
0
 10
3.03999
 20
103
 11
3.03999
 21
89
  0
LINE
  8
0
 10
3.03999
 20
89
 11
0
 21
89
  0
LINE
  8
0
 10
0
 20
89
 11
0
 21
75
  0
LINE
  8
0
 10
0
 20
75
 11
50
 21
75
  0
LINE
  8
0
 10
50
 20
75
 11
50.4894
 21
78.0902
  0
LINE
  8
0
 10
16.4949
 20
128.205
 11
15.1011
 21
128.915
  0
LINE
  8
0
 10
15.1011
 20
128.915
 11
13.9949
 21
130.021
  0
LINE
  8
0
 10
13.9949
 20
130.021
 11
13.2847
 21
131.415
  0
LINE
  8
0
 10
13.2847
 20
131.415
 11
13.04
 21
132.96
  0
LINE
  8
0
 10
13.04
 20
132.96
 11
13.2847
 21
134.505
  0
LINE
  8
0
 10
13.2847
 20
134.505
 11
13.9949
 21
135.899
  0
LINE
  8
0
 10
13.9949
 20
135.899
 11
15.1011
 21
137.005
  0
LINE
  8
0
 10
15.1011
 20
137.005
 11
16.4949
 21
137.715
  0
LINE
  8
0
 10
16.4949
 20
137.715
 11
18.04
 21
137.96
  0
LINE
  8
0
 10
18.04
 20
137.96
 11
19.5851
 21
137.715
  0
LINE
  8
0
 10
19.5851
 20
137.715
 11
20.9789
 21
137.005
  0
LINE
  8
0
 10
20.9789
 20
137.005
 11
22.0851
 21
135.899
  0
LINE
  8
0
 10
22.0851
 20
135.899
 11
22.7953
 21
134.505
  0
LINE
  8
0
 10
22.7953
 20
134.505
 11
23.04
 21
132.96
  0
LINE
  8
0
 10
23.04
 20
132.96
 11
22.7953
 21
131.415
  0
LINE
  8
0
 10
22.7953
 20
131.415
 11
22.0851
 21
130.021
  0
LINE
  8
0
 10
22.0851
 20
130.021
 11
20.9789
 21
128.915
  0
LINE
  8
0
 10
20.9789
 20
128.915
 11
19.5851
 21
128.205
  0
LINE
  8
0
 10
19.5851
 20
128.205
 11
18.04
 21
127.96
  0
LINE
  8
0
 10
18.04
 20
127.96
 11
16.4949
 21
128.205
  0
LINE
  8
0
 10
266.851
 20
131.003
 11
266.266
 21
131.301
  0
LINE
  8
0
 10
266.266
 20
131.301
 11
265.801
 21
131.766
  0
LINE
  8
0
 10
265.801
 20
131.766
 11
265.503
 21
132.351
  0
LINE
  8
0
 10
265.503
 20
132.351
 11
265.4
 21
133
  0
LINE
  8
0
 10
265.4
 20
133
 11
265.503
 21
133.649
  0
LINE
  8
0
 10
265.503
 20
133.649
 11
265.801
 21
134.234
  0
LINE
  8
0
 10
265.801
 20
134.234
 11
266.266
 21
134.699
  0
LINE
  8
0
 10
266.266
 20
134.699
 11
266.851
 21
134.997
  0
LINE
  8
0
 10
266.851
 20
134.997
 11
267.5
 21
135.1
  0
LINE
  8
0
 10
267.5
 20
135.1
 11
268.149
 21
134.997
  0
LINE
  8
0
 10
268.149
 20
134.997
 11
268.734
 21
134.699
  0
LINE
  8
0
 10
268.734
 20
134.699
 11
269.199
 21
134.234
  0
LINE
  8
0
 10
269.199
 20
134.234
 11
269.497
 21
133.649
  0
LINE
  8
0
 10
269.497
 20
133.649
 11
269.6
 21
133
  0
LINE
  8
0
 10
269.6
 20
133
 11
269.497
 21
132.351
  0
LINE
  8
0
 10
269.497
 20
132.351
 11
269.199
 21
131.766
  0
LINE
  8
0
 10
269.199
 20
131.766
 11
268.734
 21
131.301
  0
LINE
  8
0
 10
268.734
 20
131.301
 11
268.149
 21
131.003
  0
LINE
  8
0
 10
268.149
 20
131.003
 11
267.5
 21
130.9
  0
LINE
  8
0
 10
267.5
 20
130.9
 11
266.851
 21
131.003
  0
LINE
  8
0
 10
116.851
 20
131.003
 11
116.266
 21
131.301
  0
LINE
  8
0
 10
116.266
 20
131.301
 11
115.801
 21
131.766
  0
LINE
  8
0
 10
115.801
 20
131.766
 11
115.503
 21
132.351
  0
LINE
  8
0
 10
115.503
 20
132.351
 11
115.4
 21
133
  0
LINE
  8
0
 10
115.4
 20
133
 11
115.503
 21
133.649
  0
LINE
  8
0
 10
115.503
 20
133.649
 11
115.801
 21
134.234
  0
LINE
  8
0
 10
115.801
 20
134.234
 11
116.266
 21
134.699
  0
LINE
  8
0
 10
116.266
 20
134.699
 11
116.851
 21
134.997
  0
LINE
  8
0
 10
116.851
 20
134.997
 11
117.5
 21
135.1
  0
LINE
  8
0
 10
117.5
 20
135.1
 11
118.149
 21
134.997
  0
LINE
  8
0
 10
118.149
 20
134.997
 11
118.734
 21
134.699
  0
LINE
  8
0
 10
118.734
 20
134.699
 11
119.199
 21
134.234
  0
LINE
  8
0
 10
119.199
 20
134.234
 11
119.497
 21
133.649
  0
LINE
  8
0
 10
119.497
 20
133.649
 11
119.6
 21
133
  0
LINE
  8
0
 10
119.6
 20
133
 11
119.497
 21
132.351
  0
LINE
  8
0
 10
119.497
 20
132.351
 11
119.199
 21
131.766
  0
LINE
  8
0
 10
119.199
 20
131.766
 11
118.734
 21
131.301
  0
LINE
  8
0
 10
118.734
 20
131.301
 11
118.149
 21
131.003
  0
LINE
  8
0
 10
118.149
 20
131.003
 11
117.5
 21
130.9
  0
LINE
  8
0
 10
117.5
 20
130.9
 11
116.851
 21
131.003
  0
LINE
  8
0
 10
36.8812
 20
124.434
 11
35.8358
 21
124.966
  0
LINE
  8
0
 10
35.8358
 20
124.966
 11
35.0062
 21
125.796
  0
LINE
  8
0
 10
35.0062
 20
125.796
 11
34.4735
 21
126.841
  0
LINE
  8
0
 10
34.4735
 20
126.841
 11
34.29
 21
128
  0
LINE
  8
0
 10
34.29
 20
128
 11
34.4735
 21
129.159
  0
LINE
  8
0
 10
34.4735
 20
129.159
 11
35.0062
 21
130.204
  0
LINE
  8
0
 10
35.0062
 20
130.204
 11
35.8358
 21
131.034
  0
LINE
  8
0
 10
35.8358
 20
131.034
 11
36.8812
 21
131.566
  0
LINE
  8
0
 10
36.8812
 20
131.566
 11
38.04
 21
131.75
  0
LINE
  8
0
 10
38.04
 20
131.75
 11
39.1988
 21
131.566
  0
LINE
  8
0
 10
39.1988
 20
131.566
 11
40.2442
 21
131.034
  0
LINE
  8
0
 10
40.2442
 20
131.034
 11
41.0738
 21
130.204
  0
LINE
  8
0
 10
41.0738
 20
130.204
 11
41.6065
 21
129.159
  0
LINE
  8
0
 10
41.6065
 20
129.159
 11
41.79
 21
128
  0
LINE
  8
0
 10
41.79
 20
128
 11
41.6065
 21
126.841
  0
LINE
  8
0
 10
41.6065
 20
126.841
 11
41.0738
 21
125.796
  0
LINE
  8
0
 10
41.0738
 20
125.796
 11
40.2442
 21
124.966
  0
LINE
  8
0
 10
40.2442
 20
124.966
 11
39.1988
 21
124.434
  0
LINE
  8
0
 10
39.1988
 20
124.434
 11
38.04
 21
124.25
  0
LINE
  8
0
 10
38.04
 20
124.25
 11
36.8812
 21
124.434
  0
LINE
  8
0
 10
54.9962
 20
102.299
 11
52.2503
 21
103.698
  0
LINE
  8
0
 10
52.2503
 20
103.698
 11
50.0712
 21
105.877
  0
LINE
  8
0
 10
50.0712
 20
105.877
 11
48.6721
 21
108.623
  0
LINE
  8
0
 10
48.6721
 20
108.623
 11
48.19
 21
111.667
  0
LINE
  8
0
 10
48.19
 20
111.667
 11
48.6721
 21
114.71
  0
LINE
  8
0
 10
48.6721
 20
114.71
 11
50.0712
 21
117.456
  0
LINE
  8
0
 10
50.0712
 20
117.456
 11
52.2503
 21
119.635
  0
LINE
  8
0
 10
52.2503
 20
119.635
 11
54.9962
 21
121.035
  0
LINE
  8
0
 10
54.9962
 20
121.035
 11
58.04
 21
121.517
  0
LINE
  8
0
 10
58.04
 20
121.517
 11
61.0838
 21
121.035
  0
LINE
  8
0
 10
61.0838
 20
121.035
 11
63.8297
 21
119.635
  0
LINE
  8
0
 10
63.8297
 20
119.635
 11
66.0088
 21
117.456
  0
LINE
  8
0
 10
66.0088
 20
117.456
 11
67.4079
 21
114.71
  0
LINE
  8
0
 10
67.4079
 20
114.71
 11
67.89
 21
111.667
  0
LINE
  8
0
 10
67.89
 20
111.667
 11
67.4079
 21
108.623
  0
LINE
  8
0
 10
67.4079
 20
108.623
 11
66.0088
 21
105.877
  0
LINE
  8
0
 10
66.0088
 20
105.877
 11
63.8297
 21
103.698
  0
LINE
  8
0
 10
63.8297
 20
103.698
 11
61.0838
 21
102.299
  0
LINE
  8
0
 10
61.0838
 20
102.299
 11
58.04
 21
101.817
  0
LINE
  8
0
 10
58.04
 20
101.817
 11
54.9962
 21
102.299
  0
LINE
  8
0
 10
52.216
 20
90.46
 11
52.216
 21
93.5
  0
LINE
  8
0
 10
52.216
 20
93.5
 11
68.608
 21
93.5
  0
LINE
  8
0
 10
68.608
 20
93.5
 11
68.608
 21
90.46
  0
LINE
  8
0
 10
68.608
 20
90.46
 11
52.216
 21
90.46
  0
LINE
  8
0
 10
19.432
 20
90.46
 11
19.432
 21
93.5
  0
LINE
  8
0
 10
19.432
 20
93.5
 11
35.824
 21
93.5
  0
LINE
  8
0
 10
35.824
 20
93.5
 11
35.824
 21
90.46
  0
LINE
  8
0
 10
35.824
 20
90.46
 11
19.432
 21
90.46
  0
LINE
  8
0
 10
17
 20
3.03999
 11
34
 21
3.03999
  0
LINE
  8
0
 10
34
 20
3.03999
 11
34
 21
0
  0
LINE
  8
0
 10
34
 20
0
 11
51
 21
0
  0
LINE
  8
0
 10
51
 20
0
 11
51
 21
3.03999
  0
LINE
  8
0
 10
51
 20
3.03999
 11
68
 21
3.03999
  0
LINE
  8
0
 10
68
 20
3.03999
 11
68
 21
0
  0
LINE
  8
0
 10
68
 20
0
 11
300
 21
0
  0
LINE
  8
0
 10
300
 20
0
 11
300
 21
70
  0
LINE
  8
0
 10
300
 20
70
 11
250
 21
70
  0
LINE
  8
0
 10
250
 20
70
 11
249.511
 21
66.9098
  0
LINE
  8
0
 10
249.511
 20
66.9098
 11
248.09
 21
64.1222
  0
LINE
  8
0
 10
248.09
 20
64.1222
 11
245.878
 21
61.9098
  0
LINE
  8
0
 10
245.878
 20
61.9098
 11
243.09
 21
60.4894
  0
LINE
  8
0
 10
243.09
 20
60.4894
 11
240
 21
60
  0
LINE
  8
0
 10
240
 20
60
 11
210
 21
60
  0
LINE
  8
0
 10
210
 20
60
 11
206.91
 21
60.4894
  0
LINE
  8
0
 10
206.91
 20
60.4894
 11
204.122
 21
61.9098
  0
LINE
  8
0
 10
204.122
 20
61.9098
 11
201.91
 21
64.1222
  0
LINE
  8
0
 10
201.91
 20
64.1222
 11
200.489
 21
66.9098
  0
LINE
  8
0
 10
200.489
 20
66.9098
 11
200
 21
70
  0
LINE
  8
0
 10
200
 20
70
 11
175
 21
70
  0
LINE
  8
0
 10
175
 20
70
 11
174.511
 21
66.9098
  0
LINE
  8
0
 10
174.511
 20
66.9098
 11
173.09
 21
64.1222
  0
LINE
  8
0
 10
173.09
 20
64.1222
 11
170.878
 21
61.9098
  0
LINE
  8
0
 10
170.878
 20
61.9098
 11
168.09
 21
60.4894
  0
LINE
  8
0
 10
168.09
 20
60.4894
 11
165
 21
60
  0
LINE
  8
0
 10
165
 20
60
 11
135
 21
60
  0
LINE
  8
0
 10
135
 20
60
 11
131.91
 21
60.4894
  0
LINE
  8
0
 10
131.91
 20
60.4894
 11
129.122
 21
61.9098
  0
LINE
  8
0
 10
129.122
 20
61.9098
 11
126.91
 21
64.1222
  0
LINE
  8
0
 10
126.91
 20
64.1222
 11
125.489
 21
66.9098
  0
LINE
  8
0
 10
125.489
 20
66.9098
 11
125
 21
70
  0
LINE
  8
0
 10
125
 20
70
 11
100
 21
70
  0
LINE
  8
0
 10
100
 20
70
 11
99.5106
 21
66.9098
  0
LINE
  8
0
 10
99.5106
 20
66.9098
 11
98.0902
 21
64.1222
  0
LINE
  8
0
 10
98.0902
 20
64.1222
 11
95.8778
 21
61.9098
  0
LINE
  8
0
 10
95.8778
 20
61.9098
 11
93.0902
 21
60.4894
  0
LINE
  8
0
 10
93.0902
 20
60.4894
 11
90
 21
60
  0
LINE
  8
0
 10
90
 20
60
 11
60
 21
60
  0
LINE
  8
0
 10
60
 20
60
 11
56.9098
 21
60.4894
  0
LINE
  8
0
 10
56.9098
 20
60.4894
 11
54.1221
 21
61.9098
  0
LINE
  8
0
 10
54.1221
 20
61.9098
 11
51.9098
 21
64.1222
  0
LINE
  8
0
 10
51.9098
 20
64.1222
 11
50.4894
 21
66.9098
  0
LINE
  8
0
 10
50.4894
 20
66.9098
 11
50
 21
70
  0
LINE
  8
0
 10
50
 20
70
 11
0
 21
70
  0
LINE
  8
0
 10
0
 20
70
 11
0
 21
56
  0
LINE
  8
0
 10
0
 20
56
 11
3.03999
 21
56
  0
LINE
  8
0
 10
3.03999
 20
56
 11
3.03999
 21
42
  0
LINE
  8
0
 10
3.03999
 20
42
 11
0
 21
42
  0
LINE
  8
0
 10
0
 20
42
 11
0
 21
28
  0
LINE
  8
0
 10
0
 20
28
 11
3.03999
 21
28
  0
LINE
  8
0
 10
3.03999
 20
28
 11
3.03999
 21
14
  0
LINE
  8
0
 10
3.03999
 20
14
 11
0
 21
14
  0
LINE
  8
0
 10
0
 20
14
 11
0
 21
0
  0
LINE
  8
0
 10
0
 20
0
 11
17
 21
0
  0
LINE
  8
0
 10
17
 20
0
 11
17
 21
3.03999
  0
LINE
  8
0
 10
52.216
 20
51.5
 11
52.216
 21
54.54
  0
LINE
  8
0
 10
52.216
 20
54.54
 11
68.608
 21
54.54
  0
LINE
  8
0
 10
68.608
 20
54.54
 11
68.608
 21
51.5
  0
LINE
  8
0
 10
68.608
 20
51.5
 11
52.216
 21
51.5
  0
LINE
  8
0
 10
19.432
 20
51.5
 11
19.432
 21
54.54
  0
LINE
  8
0
 10
19.432
 20
54.54
 11
35.824
 21
54.54
  0
LINE
  8
0
 10
35.824
 20
54.54
 11
35.824
 21
51.5
  0
LINE
  8
0
 10
35.824
 20
51.5
 11
19.432
 21
51.5
  0
LINE
  8
0
 10
44.54
 20
25.45
 11
44.54
 21
44.55
  0
LINE
  8
0
 10
44.54
 20
44.55
 11
71.54
 21
44.55
  0
LINE
  8
0
 10
71.54
 20
44.55
 11
71.54
 21
25.45
  0
LINE
  8
0
 10
71.54
 20
25.45
 11
44.54
 21
25.45
  0
LINE
  8
0
 10
77.5456
 20
33.4783
 11
77.0995
 21
33.7056
  0
LINE
  8
0
 10
77.0995
 20
33.7056
 11
76.7456
 21
34.0596
  0
LINE
  8
0
 10
76.7456
 20
34.0596
 11
76.5183
 21
34.5056
  0
LINE
  8
0
 10
76.5183
 20
34.5056
 11
76.44
 21
35
  0
LINE
  8
0
 10
76.44
 20
35
 11
76.5183
 21
35.4944
  0
LINE
  8
0
 10
76.5183
 20
35.4944
 11
76.7456
 21
35.9404
  0
LINE
  8
0
 10
76.7456
 20
35.9404
 11
77.0995
 21
36.2944
  0
LINE
  8
0
 10
77.0995
 20
36.2944
 11
77.5456
 21
36.5217
  0
LINE
  8
0
 10
77.5456
 20
36.5217
 11
78.04
 21
36.6
  0
LINE
  8
0
 10
78.04
 20
36.6
 11
78.5344
 21
36.5217
  0
LINE
  8
0
 10
78.5344
 20
36.5217
 11
78.9804
 21
36.2944
  0
LINE
  8
0
 10
78.9804
 20
36.2944
 11
79.3344
 21
35.9404
  0
LINE
  8
0
 10
79.3344
 20
35.9404
 11
79.5617
 21
35.4944
  0
LINE
  8
0
 10
79.5617
 20
35.4944
 11
79.64
 21
35
  0
LINE
  8
0
 10
79.64
 20
35
 11
79.5617
 21
34.5056
  0
LINE
  8
0
 10
79.5617
 20
34.5056
 11
79.3344
 21
34.0596
  0
LINE
  8
0
 10
79.3344
 20
34.0596
 11
78.9804
 21
33.7056
  0
LINE
  8
0
 10
78.9804
 20
33.7056
 11
78.5344
 21
33.4783
  0
LINE
  8
0
 10
78.5344
 20
33.4783
 11
78.04
 21
33.4
  0
LINE
  8
0
 10
78.04
 20
33.4
 11
77.5456
 21
33.4783
  0
LINE
  8
0
 10
37.5456
 20
33.4783
 11
37.0995
 21
33.7056
  0
LINE
  8
0
 10
37.0995
 20
33.7056
 11
36.7456
 21
34.0596
  0
LINE
  8
0
 10
36.7456
 20
34.0596
 11
36.5183
 21
34.5056
  0
LINE
  8
0
 10
36.5183
 20
34.5056
 11
36.44
 21
35
  0
LINE
  8
0
 10
36.44
 20
35
 11
36.5183
 21
35.4944
  0
LINE
  8
0
 10
36.5183
 20
35.4944
 11
36.7456
 21
35.9404
  0
LINE
  8
0
 10
36.7456
 20
35.9404
 11
37.0995
 21
36.2944
  0
LINE
  8
0
 10
37.0995
 20
36.2944
 11
37.5456
 21
36.5217
  0
LINE
  8
0
 10
37.5456
 20
36.5217
 11
38.04
 21
36.6
  0
LINE
  8
0
 10
38.04
 20
36.6
 11
38.5344
 21
36.5217
  0
LINE
  8
0
 10
38.5344
 20
36.5217
 11
38.9805
 21
36.2944
  0
LINE
  8
0
 10
38.9805
 20
36.2944
 11
39.3344
 21
35.9404
  0
LINE
  8
0
 10
39.3344
 20
35.9404
 11
39.5617
 21
35.4944
  0
LINE
  8
0
 10
39.5617
 20
35.4944
 11
39.64
 21
35
  0
LINE
  8
0
 10
39.64
 20
35
 11
39.5617
 21
34.5056
  0
LINE
  8
0
 10
39.5617
 20
34.5056
 11
39.3344
 21
34.0596
  0
LINE
  8
0
 10
39.3344
 20
34.0596
 11
38.9805
 21
33.7056
  0
LINE
  8
0
 10
38.9805
 20
33.7056
 11
38.5344
 21
33.4783
  0
LINE
  8
0
 10
38.5344
 20
33.4783
 11
38.04
 21
33.4
  0
LINE
  8
0
 10
38.04
 20
33.4
 11
37.5456
 21
33.4783
  0
LINE
  8
0
 10
10.54
 20
8.53999
 11
10.54
 21
28.54
  0
LINE
  8
0
 10
10.54
 20
28.54
 11
25.54
 21
28.54
  0
LINE
  8
0
 10
25.54
 20
28.54
 11
25.54
 21
8.53999
  0
LINE
  8
0
 10
25.54
 20
8.53999
 11
10.54
 21
8.53999
  0
LINE
  8
0
 10
116.851
 20
10.0028
 11
116.266
 21
10.3011
  0
LINE
  8
0
 10
116.266
 20
10.3011
 11
115.801
 21
10.7657
  0
LINE
  8
0
 10
115.801
 20
10.7657
 11
115.503
 21
11.3511
  0
LINE
  8
0
 10
115.503
 20
11.3511
 11
115.4
 21
12
  0
LINE
  8
0
 10
115.4
 20
12
 11
115.503
 21
12.6489
  0
LINE
  8
0
 10
115.503
 20
12.6489
 11
115.801
 21
13.2344
  0
LINE
  8
0
 10
115.801
 20
13.2344
 11
116.266
 21
13.6989
  0
LINE
  8
0
 10
116.266
 20
13.6989
 11
116.851
 21
13.9972
  0
LINE
  8
0
 10
116.851
 20
13.9972
 11
117.5
 21
14.1
  0
LINE
  8
0
 10
117.5
 20
14.1
 11
118.149
 21
13.9972
  0
LINE
  8
0
 10
118.149
 20
13.9972
 11
118.734
 21
13.6989
  0
LINE
  8
0
 10
118.734
 20
13.6989
 11
119.199
 21
13.2344
  0
LINE
  8
0
 10
119.199
 20
13.2344
 11
119.497
 21
12.6489
  0
LINE
  8
0
 10
119.497
 20
12.6489
 11
119.6
 21
12
  0
LINE
  8
0
 10
119.6
 20
12
 11
119.497
 21
11.3511
  0
LINE
  8
0
 10
119.497
 20
11.3511
 11
119.199
 21
10.7657
  0
LINE
  8
0
 10
119.199
 20
10.7657
 11
118.734
 21
10.3011
  0
LINE
  8
0
 10
118.734
 20
10.3011
 11
118.149
 21
10.0028
  0
LINE
  8
0
 10
118.149
 20
10.0028
 11
117.5
 21
9.90001
  0
LINE
  8
0
 10
117.5
 20
9.90001
 11
116.851
 21
10.0028
  0
LINE
  8
0
 10
266.851
 20
10.0028
 11
266.266
 21
10.3011
  0
LINE
  8
0
 10
266.266
 20
10.3011
 11
265.801
 21
10.7656
  0
LINE
  8
0
 10
265.801
 20
10.7656
 11
265.503
 21
11.3511
  0
LINE
  8
0
 10
265.503
 20
11.3511
 11
265.4
 21
12
  0
LINE
  8
0
 10
265.4
 20
12
 11
265.503
 21
12.6489
  0
LINE
  8
0
 10
265.503
 20
12.6489
 11
265.801
 21
13.2343
  0
LINE
  8
0
 10
265.801
 20
13.2343
 11
266.266
 21
13.6989
  0
LINE
  8
0
 10
266.266
 20
13.6989
 11
266.851
 21
13.9972
  0
LINE
  8
0
 10
266.851
 20
13.9972
 11
267.5
 21
14.1
  0
LINE
  8
0
 10
267.5
 20
14.1
 11
268.149
 21
13.9972
  0
LINE
  8
0
 10
268.149
 20
13.9972
 11
268.734
 21
13.6989
  0
LINE
  8
0
 10
268.734
 20
13.6989
 11
269.199
 21
13.2343
  0
LINE
  8
0
 10
269.199
 20
13.2343
 11
269.497
 21
12.6489
  0
LINE
  8
0
 10
269.497
 20
12.6489
 11
269.6
 21
12
  0
LINE
  8
0
 10
269.6
 20
12
 11
269.497
 21
11.3511
  0
LINE
  8
0
 10
269.497
 20
11.3511
 11
269.199
 21
10.7656
  0
LINE
  8
0
 10
269.199
 20
10.7656
 11
268.734
 21
10.3011
  0
LINE
  8
0
 10
268.734
 20
10.3011
 11
268.149
 21
10.0028
  0
LINE
  8
0
 10
268.149
 20
10.0028
 11
267.5
 21
9.89999
  0
LINE
  8
0
 10
267.5
 20
9.89999
 11
266.851
 21
10.0028
  0
LINE
  8
0
 10
41.8812
 20
5.43353
 11
40.8358
 21
5.96617
  0
LINE
  8
0
 10
40.8358
 20
5.96617
 11
40.0062
 21
6.79579
  0
LINE
  8
0
 10
40.0062
 20
6.79579
 11
39.4735
 21
7.84117
  0
LINE
  8
0
 10
39.4735
 20
7.84117
 11
39.29
 21
9
  0
LINE
  8
0
 10
39.29
 20
9
 11
39.4735
 21
10.1588
  0
LINE
  8
0
 10
39.4735
 20
10.1588
 11
40.0062
 21
11.2042
  0
LINE
  8
0
 10
40.0062
 20
11.2042
 11
40.8358
 21
12.0338
  0
LINE
  8
0
 10
40.8358
 20
12.0338
 11
41.8812
 21
12.5665
  0
LINE
  8
0
 10
41.8812
 20
12.5665
 11
43.04
 21
12.75
  0
LINE
  8
0
 10
43.04
 20
12.75
 11
44.1988
 21
12.5665
  0
LINE
  8
0
 10
44.1988
 20
12.5665
 11
45.2442
 21
12.0338
  0
LINE
  8
0
 10
45.2442
 20
12.0338
 11
46.0738
 21
11.2042
  0
LINE
  8
0
 10
46.0738
 20
11.2042
 11
46.6065
 21
10.1588
  0
LINE
  8
0
 10
46.6065
 20
10.1588
 11
46.79
 21
9
  0
LINE
  8
0
 10
46.79
 20
9
 11
46.6065
 21
7.84117
  0
LINE
  8
0
 10
46.6065
 20
7.84117
 11
46.0738
 21
6.79579
  0
LINE
  8
0
 10
46.0738
 20
6.79579
 11
45.2442
 21
5.96617
  0
LINE
  8
0
 10
45.2442
 20
5.96617
 11
44.1988
 21
5.43353
  0
LINE
  8
0
 10
44.1988
 20
5.43353
 11
43.04
 21
5.25
  0
LINE
  8
0
 10
43.04
 20
5.25
 11
41.8812
 21
5.43353
  0
ENDSEC
  0
SECTION
  2
OBJECTS
  0
DICTIONARY
  0
ENDSEC
  0
EOF
