  0
SECTION
  2
BLOCKS
  0
ENDSEC
  0
SECTION
  2
ENTITIES
  0
LINE
  8
0
 10
35.824
 20
75
 11
52.216
 21
75
  0
LINE
  8
0
 10
52.216
 20
75
 11
52.216
 21
71.96
  0
LINE
  8
0
 10
52.216
 20
71.96
 11
68.608
 21
71.96
  0
LINE
  8
0
 10
68.608
 20
71.96
 11
68.608
 21
75
  0
LINE
  8
0
 10
68.608
 20
75
 11
85
 21
75
  0
LINE
  8
0
 10
85
 20
75
 11
85
 21
190
  0
LINE
  8
0
 10
85
 20
190
 11
68.608
 21
190
  0
LINE
  8
0
 10
68.608
 20
190
 11
68.608
 21
193.04
  0
LINE
  8
0
 10
68.608
 20
193.04
 11
52.216
 21
193.04
  0
LINE
  8
0
 10
52.216
 20
193.04
 11
52.216
 21
190
  0
LINE
  8
0
 10
52.216
 20
190
 11
35.824
 21
190
  0
LINE
  8
0
 10
35.824
 20
190
 11
35.824
 21
193.04
  0
LINE
  8
0
 10
35.824
 20
193.04
 11
19.432
 21
193.04
  0
LINE
  8
0
 10
19.432
 20
193.04
 11
19.432
 21
190
  0
LINE
  8
0
 10
19.432
 20
190
 11
3.03999
 21
190
  0
LINE
  8
0
 10
3.03999
 20
190
 11
3.03999
 21
75
  0
LINE
  8
0
 10
3.03999
 20
75
 11
19.432
 21
75
  0
LINE
  8
0
 10
19.432
 20
75
 11
19.432
 21
71.96
  0
LINE
  8
0
 10
19.432
 20
71.96
 11
35.824
 21
71.96
  0
LINE
  8
0
 10
35.824
 20
71.96
 11
35.824
 21
75
  0
LINE
  8
0
 10
-74
 20
3.03999
 11
-51
 21
3.03999
  0
LINE
  8
0
 10
-51
 20
3.03999
 11
-51
 21
0
  0
LINE
  8
0
 10
-51
 20
0
 11
-28
 21
0
  0
LINE
  8
0
 10
-28
 20
0
 11
-28
 21
3.03999
  0
LINE
  8
0
 10
-28
 20
3.03999
 11
-5
 21
3.03999
  0
LINE
  8
0
 10
-5
 20
3.03999
 11
-5
 21
14
  0
LINE
  8
0
 10
-5
 20
14
 11
-1.96001
 21
14
  0
LINE
  8
0
 10
-1.96001
 20
14
 11
-1.96001
 21
28
  0
LINE
  8
0
 10
-1.96001
 20
28
 11
-5
 21
28
  0
LINE
  8
0
 10
-5
 20
28
 11
-5
 21
42
  0
LINE
  8
0
 10
-5
 20
42
 11
-1.96001
 21
42
  0
LINE
  8
0
 10
-1.96001
 20
42
 11
-1.96001
 21
56
  0
LINE
  8
0
 10
-1.96001
 20
56
 11
-5
 21
56
  0
LINE
  8
0
 10
-5
 20
56
 11
-5
 21
70
  0
LINE
  8
0
 10
-5
 20
70
 11
-120
 21
70
  0
LINE
  8
0
 10
-120
 20
70
 11
-120
 21
56
  0
LINE
  8
0
 10
-120
 20
56
 11
-123.04
 21
56
  0
LINE
  8
0
 10
-123.04
 20
56
 11
-123.04
 21
42
  0
LINE
  8
0
 10
-123.04
 20
42
 11
-120
 21
42
  0
LINE
  8
0
 10
-120
 20
42
 11
-120
 21
28
  0
LINE
  8
0
 10
-120
 20
28
 11
-123.04
 21
28
  0
LINE
  8
0
 10
-123.04
 20
28
 11
-123.04
 21
14
  0
LINE
  8
0
 10
-123.04
 20
14
 11
-120
 21
14
  0
LINE
  8
0
 10
-120
 20
14
 11
-120
 21
3.03999
  0
LINE
  8
0
 10
-120
 20
3.03999
 11
-97
 21
3.03999
  0
LINE
  8
0
 10
-97
 20
3.03999
 11
-97
 21
0
  0
LINE
  8
0
 10
-97
 20
0
 11
-74
 21
0
  0
LINE
  8
0
 10
-74
 20
0
 11
-74
 21
3.03999
  0
LINE
  8
0
 10
17
 20
3.03999
 11
34
 21
3.03999
  0
LINE
  8
0
 10
34
 20
3.03999
 11
34
 21
0
  0
LINE
  8
0
 10
34
 20
0
 11
51
 21
0
  0
LINE
  8
0
 10
51
 20
0
 11
51
 21
3.03999
  0
LINE
  8
0
 10
51
 20
3.03999
 11
68
 21
3.03999
  0
LINE
  8
0
 10
68
 20
3.03999
 11
68
 21
0
  0
LINE
  8
0
 10
68
 20
0
 11
300
 21
0
  0
LINE
  8
0
 10
300
 20
0
 11
300
 21
70
  0
LINE
  8
0
 10
300
 20
70
 11
250
 21
70
  0
LINE
  8
0
 10
250
 20
70
 11
249.511
 21
66.9098
  0
LINE
  8
0
 10
249.511
 20
66.9098
 11
248.09
 21
64.1222
  0
LINE
  8
0
 10
248.09
 20
64.1222
 11
245.878
 21
61.9098
  0
LINE
  8
0
 10
245.878
 20
61.9098
 11
243.09
 21
60.4894
  0
LINE
  8
0
 10
243.09
 20
60.4894
 11
240
 21
60
  0
LINE
  8
0
 10
240
 20
60
 11
210
 21
60
  0
LINE
  8
0
 10
210
 20
60
 11
206.91
 21
60.4894
  0
LINE
  8
0
 10
206.91
 20
60.4894
 11
204.122
 21
61.9098
  0
LINE
  8
0
 10
204.122
 20
61.9098
 11
201.91
 21
64.1222
  0
LINE
  8
0
 10
201.91
 20
64.1222
 11
200.489
 21
66.9098
  0
LINE
  8
0
 10
200.489
 20
66.9098
 11
200
 21
70
  0
LINE
  8
0
 10
200
 20
70
 11
175
 21
70
  0
LINE
  8
0
 10
175
 20
70
 11
174.511
 21
66.9098
  0
LINE
  8
0
 10
174.511
 20
66.9098
 11
173.09
 21
64.1222
  0
LINE
  8
0
 10
173.09
 20
64.1222
 11
170.878
 21
61.9098
  0
LINE
  8
0
 10
170.878
 20
61.9098
 11
168.09
 21
60.4894
  0
LINE
  8
0
 10
168.09
 20
60.4894
 11
165
 21
60
  0
LINE
  8
0
 10
165
 20
60
 11
135
 21
60
  0
LINE
  8
0
 10
135
 20
60
 11
131.91
 21
60.4894
  0
LINE
  8
0
 10
131.91
 20
60.4894
 11
129.122
 21
61.9098
  0
LINE
  8
0
 10
129.122
 20
61.9098
 11
126.91
 21
64.1222
  0
LINE
  8
0
 10
126.91
 20
64.1222
 11
125.489
 21
66.9098
  0
LINE
  8
0
 10
125.489
 20
66.9098
 11
125
 21
70
  0
LINE
  8
0
 10
125
 20
70
 11
100
 21
70
  0
LINE
  8
0
 10
100
 20
70
 11
99.5106
 21
66.9098
  0
LINE
  8
0
 10
99.5106
 20
66.9098
 11
98.0902
 21
64.1222
  0
LINE
  8
0
 10
98.0902
 20
64.1222
 11
95.8778
 21
61.9098
  0
LINE
  8
0
 10
95.8778
 20
61.9098
 11
93.0902
 21
60.4894
  0
LINE
  8
0
 10
93.0902
 20
60.4894
 11
90
 21
60
  0
LINE
  8
0
 10
90
 20
60
 11
60
 21
60
  0
LINE
  8
0
 10
60
 20
60
 11
56.9098
 21
60.4894
  0
LINE
  8
0
 10
56.9098
 20
60.4894
 11
54.1221
 21
61.9098
  0
LINE
  8
0
 10
54.1221
 20
61.9098
 11
51.9098
 21
64.1222
  0
LINE
  8
0
 10
51.9098
 20
64.1222
 11
50.4894
 21
66.9098
  0
LINE
  8
0
 10
50.4894
 20
66.9098
 11
50
 21
70
  0
LINE
  8
0
 10
50
 20
70
 11
0
 21
70
  0
LINE
  8
0
 10
0
 20
70
 11
0
 21
56
  0
LINE
  8
0
 10
0
 20
56
 11
3.03999
 21
56
  0
LINE
  8
0
 10
3.03999
 20
56
 11
3.03999
 21
42
  0
LINE
  8
0
 10
3.03999
 20
42
 11
0
 21
42
  0
LINE
  8
0
 10
0
 20
42
 11
0
 21
28
  0
LINE
  8
0
 10
0
 20
28
 11
3.03999
 21
28
  0
LINE
  8
0
 10
3.03999
 20
28
 11
3.03999
 21
14
  0
LINE
  8
0
 10
3.03999
 20
14
 11
0
 21
14
  0
LINE
  8
0
 10
0
 20
14
 11
0
 21
0
  0
LINE
  8
0
 10
0
 20
0
 11
17
 21
0
  0
LINE
  8
0
 10
17
 20
0
 11
17
 21
3.03999
  0
LINE
  8
0
 10
19.432
 20
51.5
 11
19.432
 21
54.54
  0
LINE
  8
0
 10
19.432
 20
54.54
 11
35.824
 21
54.54
  0
LINE
  8
0
 10
35.824
 20
54.54
 11
35.824
 21
51.5
  0
LINE
  8
0
 10
35.824
 20
51.5
 11
19.432
 21
51.5
  0
LINE
  8
0
 10
52.216
 20
51.5
 11
52.216
 21
54.54
  0
LINE
  8
0
 10
52.216
 20
54.54
 11
68.608
 21
54.54
  0
LINE
  8
0
 10
68.608
 20
54.54
 11
68.608
 21
51.5
  0
LINE
  8
0
 10
68.608
 20
51.5
 11
52.216
 21
51.5
  0
LINE
  8
0
 10
44.54
 20
25.45
 11
44.54
 21
44.55
  0
LINE
  8
0
 10
44.54
 20
44.55
 11
71.54
 21
44.55
  0
LINE
  8
0
 10
71.54
 20
44.55
 11
71.54
 21
25.45
  0
LINE
  8
0
 10
71.54
 20
25.45
 11
44.54
 21
25.45
  0
LINE
  8
0
 10
37.5456
 20
33.4783
 11
37.0995
 21
33.7056
  0
LINE
  8
0
 10
37.0995
 20
33.7056
 11
36.7456
 21
34.0596
  0
LINE
  8
0
 10
36.7456
 20
34.0596
 11
36.5183
 21
34.5056
  0
LINE
  8
0
 10
36.5183
 20
34.5056
 11
36.44
 21
35
  0
LINE
  8
0
 10
36.44
 20
35
 11
36.5183
 21
35.4944
  0
LINE
  8
0
 10
36.5183
 20
35.4944
 11
36.7456
 21
35.9404
  0
LINE
  8
0
 10
36.7456
 20
35.9404
 11
37.0995
 21
36.2944
  0
LINE
  8
0
 10
37.0995
 20
36.2944
 11
37.5456
 21
36.5217
  0
LINE
  8
0
 10
37.5456
 20
36.5217
 11
38.04
 21
36.6
  0
LINE
  8
0
 10
38.04
 20
36.6
 11
38.5344
 21
36.5217
  0
LINE
  8
0
 10
38.5344
 20
36.5217
 11
38.9805
 21
36.2944
  0
LINE
  8
0
 10
38.9805
 20
36.2944
 11
39.3344
 21
35.9404
  0
LINE
  8
0
 10
39.3344
 20
35.9404
 11
39.5617
 21
35.4944
  0
LINE
  8
0
 10
39.5617
 20
35.4944
 11
39.64
 21
35
  0
LINE
  8
0
 10
39.64
 20
35
 11
39.5617
 21
34.5056
  0
LINE
  8
0
 10
39.5617
 20
34.5056
 11
39.3344
 21
34.0596
  0
LINE
  8
0
 10
39.3344
 20
34.0596
 11
38.9805
 21
33.7056
  0
LINE
  8
0
 10
38.9805
 20
33.7056
 11
38.5344
 21
33.4783
  0
LINE
  8
0
 10
38.5344
 20
33.4783
 11
38.04
 21
33.4
  0
LINE
  8
0
 10
38.04
 20
33.4
 11
37.5456
 21
33.4783
  0
LINE
  8
0
 10
77.5456
 20
33.4783
 11
77.0995
 21
33.7056
  0
LINE
  8
0
 10
77.0995
 20
33.7056
 11
76.7456
 21
34.0596
  0
LINE
  8
0
 10
76.7456
 20
34.0596
 11
76.5183
 21
34.5056
  0
LINE
  8
0
 10
76.5183
 20
34.5056
 11
76.44
 21
35
  0
LINE
  8
0
 10
76.44
 20
35
 11
76.5183
 21
35.4944
  0
LINE
  8
0
 10
76.5183
 20
35.4944
 11
76.7456
 21
35.9404
  0
LINE
  8
0
 10
76.7456
 20
35.9404
 11
77.0995
 21
36.2944
  0
LINE
  8
0
 10
77.0995
 20
36.2944
 11
77.5456
 21
36.5217
  0
LINE
  8
0
 10
77.5456
 20
36.5217
 11
78.04
 21
36.6
  0
LINE
  8
0
 10
78.04
 20
36.6
 11
78.5344
 21
36.5217
  0
LINE
  8
0
 10
78.5344
 20
36.5217
 11
78.9804
 21
36.2944
  0
LINE
  8
0
 10
78.9804
 20
36.2944
 11
79.3344
 21
35.9404
  0
LINE
  8
0
 10
79.3344
 20
35.9404
 11
79.5617
 21
35.4944
  0
LINE
  8
0
 10
79.5617
 20
35.4944
 11
79.64
 21
35
  0
LINE
  8
0
 10
79.64
 20
35
 11
79.5617
 21
34.5056
  0
LINE
  8
0
 10
79.5617
 20
34.5056
 11
79.3344
 21
34.0596
  0
LINE
  8
0
 10
79.3344
 20
34.0596
 11
78.9804
 21
33.7056
  0
LINE
  8
0
 10
78.9804
 20
33.7056
 11
78.5344
 21
33.4783
  0
LINE
  8
0
 10
78.5344
 20
33.4783
 11
78.04
 21
33.4
  0
LINE
  8
0
 10
78.04
 20
33.4
 11
77.5456
 21
33.4783
  0
LINE
  8
0
 10
10.54
 20
8.53999
 11
10.54
 21
28.54
  0
LINE
  8
0
 10
10.54
 20
28.54
 11
25.54
 21
28.54
  0
LINE
  8
0
 10
25.54
 20
28.54
 11
25.54
 21
8.53999
  0
LINE
  8
0
 10
25.54
 20
8.53999
 11
10.54
 21
8.53999
  0
LINE
  8
0
 10
116.851
 20
10.0028
 11
116.266
 21
10.3011
  0
LINE
  8
0
 10
116.266
 20
10.3011
 11
115.801
 21
10.7657
  0
LINE
  8
0
 10
115.801
 20
10.7657
 11
115.503
 21
11.3511
  0
LINE
  8
0
 10
115.503
 20
11.3511
 11
115.4
 21
12
  0
LINE
  8
0
 10
115.4
 20
12
 11
115.503
 21
12.6489
  0
LINE
  8
0
 10
115.503
 20
12.6489
 11
115.801
 21
13.2344
  0
LINE
  8
0
 10
115.801
 20
13.2344
 11
116.266
 21
13.6989
  0
LINE
  8
0
 10
116.266
 20
13.6989
 11
116.851
 21
13.9972
  0
LINE
  8
0
 10
116.851
 20
13.9972
 11
117.5
 21
14.1
  0
LINE
  8
0
 10
117.5
 20
14.1
 11
118.149
 21
13.9972
  0
LINE
  8
0
 10
118.149
 20
13.9972
 11
118.734
 21
13.6989
  0
LINE
  8
0
 10
118.734
 20
13.6989
 11
119.199
 21
13.2344
  0
LINE
  8
0
 10
119.199
 20
13.2344
 11
119.497
 21
12.6489
  0
LINE
  8
0
 10
119.497
 20
12.6489
 11
119.6
 21
12
  0
LINE
  8
0
 10
119.6
 20
12
 11
119.497
 21
11.3511
  0
LINE
  8
0
 10
119.497
 20
11.3511
 11
119.199
 21
10.7657
  0
LINE
  8
0
 10
119.199
 20
10.7657
 11
118.734
 21
10.3011
  0
LINE
  8
0
 10
118.734
 20
10.3011
 11
118.149
 21
10.0028
  0
LINE
  8
0
 10
118.149
 20
10.0028
 11
117.5
 21
9.90001
  0
LINE
  8
0
 10
117.5
 20
9.90001
 11
116.851
 21
10.0028
  0
LINE
  8
0
 10
266.851
 20
10.0028
 11
266.266
 21
10.3011
  0
LINE
  8
0
 10
266.266
 20
10.3011
 11
265.801
 21
10.7656
  0
LINE
  8
0
 10
265.801
 20
10.7656
 11
265.503
 21
11.3511
  0
LINE
  8
0
 10
265.503
 20
11.3511
 11
265.4
 21
12
  0
LINE
  8
0
 10
265.4
 20
12
 11
265.503
 21
12.6489
  0
LINE
  8
0
 10
265.503
 20
12.6489
 11
265.801
 21
13.2343
  0
LINE
  8
0
 10
265.801
 20
13.2343
 11
266.266
 21
13.6989
  0
LINE
  8
0
 10
266.266
 20
13.6989
 11
266.851
 21
13.9972
  0
LINE
  8
0
 10
266.851
 20
13.9972
 11
267.5
 21
14.1
  0
LINE
  8
0
 10
267.5
 20
14.1
 11
268.149
 21
13.9972
  0
LINE
  8
0
 10
268.149
 20
13.9972
 11
268.734
 21
13.6989
  0
LINE
  8
0
 10
268.734
 20
13.6989
 11
269.199
 21
13.2343
  0
LINE
  8
0
 10
269.199
 20
13.2343
 11
269.497
 21
12.6489
  0
LINE
  8
0
 10
269.497
 20
12.6489
 11
269.6
 21
12
  0
LINE
  8
0
 10
269.6
 20
12
 11
269.497
 21
11.3511
  0
LINE
  8
0
 10
269.497
 20
11.3511
 11
269.199
 21
10.7656
  0
LINE
  8
0
 10
269.199
 20
10.7656
 11
268.734
 21
10.3011
  0
LINE
  8
0
 10
268.734
 20
10.3011
 11
268.149
 21
10.0028
  0
LINE
  8
0
 10
268.149
 20
10.0028
 11
267.5
 21
9.89999
  0
LINE
  8
0
 10
267.5
 20
9.89999
 11
266.851
 21
10.0028
  0
LINE
  8
0
 10
41.8812
 20
5.43353
 11
40.8358
 21
5.96617
  0
LINE
  8
0
 10
40.8358
 20
5.96617
 11
40.0062
 21
6.79579
  0
LINE
  8
0
 10
40.0062
 20
6.79579
 11
39.4735
 21
7.84117
  0
LINE
  8
0
 10
39.4735
 20
7.84117
 11
39.29
 21
9
  0
LINE
  8
0
 10
39.29
 20
9
 11
39.4735
 21
10.1588
  0
LINE
  8
0
 10
39.4735
 20
10.1588
 11
40.0062
 21
11.2042
  0
LINE
  8
0
 10
40.0062
 20
11.2042
 11
40.8358
 21
12.0338
  0
LINE
  8
0
 10
40.8358
 20
12.0338
 11
41.8812
 21
12.5665
  0
LINE
  8
0
 10
41.8812
 20
12.5665
 11
43.04
 21
12.75
  0
LINE
  8
0
 10
43.04
 20
12.75
 11
44.1988
 21
12.5665
  0
LINE
  8
0
 10
44.1988
 20
12.5665
 11
45.2442
 21
12.0338
  0
LINE
  8
0
 10
45.2442
 20
12.0338
 11
46.0738
 21
11.2042
  0
LINE
  8
0
 10
46.0738
 20
11.2042
 11
46.6065
 21
10.1588
  0
LINE
  8
0
 10
46.6065
 20
10.1588
 11
46.79
 21
9
  0
LINE
  8
0
 10
46.79
 20
9
 11
46.6065
 21
7.84117
  0
LINE
  8
0
 10
46.6065
 20
7.84117
 11
46.0738
 21
6.79579
  0
LINE
  8
0
 10
46.0738
 20
6.79579
 11
45.2442
 21
5.96617
  0
LINE
  8
0
 10
45.2442
 20
5.96617
 11
44.1988
 21
5.43353
  0
LINE
  8
0
 10
44.1988
 20
5.43353
 11
43.04
 21
5.25
  0
LINE
  8
0
 10
43.04
 20
5.25
 11
41.8812
 21
5.43353
  0
LINE
  8
0
 10
50.4894
 20
-71.9098
 11
51.9098
 21
-69.1222
  0
LINE
  8
0
 10
51.9098
 20
-69.1222
 11
54.1221
 21
-66.9098
  0
LINE
  8
0
 10
54.1221
 20
-66.9098
 11
56.9098
 21
-65.4894
  0
LINE
  8
0
 10
56.9098
 20
-65.4894
 11
60
 21
-65
  0
LINE
  8
0
 10
60
 20
-65
 11
90
 21
-65
  0
LINE
  8
0
 10
90
 20
-65
 11
93.0902
 21
-65.4894
  0
LINE
  8
0
 10
93.0902
 20
-65.4894
 11
95.8778
 21
-66.9098
  0
LINE
  8
0
 10
95.8778
 20
-66.9098
 11
98.0902
 21
-69.1222
  0
LINE
  8
0
 10
98.0902
 20
-69.1222
 11
99.5106
 21
-71.9098
  0
LINE
  8
0
 10
99.5106
 20
-71.9098
 11
100
 21
-75
  0
LINE
  8
0
 10
100
 20
-75
 11
125
 21
-75
  0
LINE
  8
0
 10
125
 20
-75
 11
125.489
 21
-71.9098
  0
LINE
  8
0
 10
125.489
 20
-71.9098
 11
126.91
 21
-69.1222
  0
LINE
  8
0
 10
126.91
 20
-69.1222
 11
129.122
 21
-66.9098
  0
LINE
  8
0
 10
129.122
 20
-66.9098
 11
131.91
 21
-65.4894
  0
LINE
  8
0
 10
131.91
 20
-65.4894
 11
135
 21
-65
  0
LINE
  8
0
 10
135
 20
-65
 11
165
 21
-65
  0
LINE
  8
0
 10
165
 20
-65
 11
168.09
 21
-65.4894
  0
LINE
  8
0
 10
168.09
 20
-65.4894
 11
170.878
 21
-66.9098
  0
LINE
  8
0
 10
170.878
 20
-66.9098
 11
173.09
 21
-69.1222
  0
LINE
  8
0
 10
173.09
 20
-69.1222
 11
174.511
 21
-71.9098
  0
LINE
  8
0
 10
174.511
 20
-71.9098
 11
175
 21
-75
  0
LINE
  8
0
 10
175
 20
-75
 11
200
 21
-75
  0
LINE
  8
0
 10
200
 20
-75
 11
200.489
 21
-71.9098
  0
LINE
  8
0
 10
200.489
 20
-71.9098
 11
201.91
 21
-69.1222
  0
LINE
  8
0
 10
201.91
 20
-69.1222
 11
204.122
 21
-66.9098
  0
LINE
  8
0
 10
204.122
 20
-66.9098
 11
206.91
 21
-65.4894
  0
LINE
  8
0
 10
206.91
 20
-65.4894
 11
210
 21
-65
  0
LINE
  8
0
 10
210
 20
-65
 11
240
 21
-65
  0
LINE
  8
0
 10
240
 20
-65
 11
243.09
 21
-65.4894
  0
LINE
  8
0
 10
243.09
 20
-65.4894
 11
245.878
 21
-66.9098
  0
LINE
  8
0
 10
245.878
 20
-66.9098
 11
248.09
 21
-69.1222
  0
LINE
  8
0
 10
248.09
 20
-69.1222
 11
249.511
 21
-71.9098
  0
LINE
  8
0
 10
249.511
 20
-71.9098
 11
250
 21
-75
  0
LINE
  8
0
 10
250
 20
-75
 11
300
 21
-75
  0
LINE
  8
0
 10
300
 20
-75
 11
300
 21
-5
  0
LINE
  8
0
 10
300
 20
-5
 11
68
 21
-5
  0
LINE
  8
0
 10
68
 20
-5
 11
68
 21
-8.03999
  0
LINE
  8
0
 10
68
 20
-8.03999
 11
51
 21
-8.03999
  0
LINE
  8
0
 10
51
 20
-8.03999
 11
51
 21
-5
  0
LINE
  8
0
 10
51
 20
-5
 11
34
 21
-5
  0
LINE
  8
0
 10
34
 20
-5
 11
34
 21
-8.03999
  0
LINE
  8
0
 10
34
 20
-8.03999
 11
17
 21
-8.03999
  0
LINE
  8
0
 10
17
 20
-8.03999
 11
17
 21
-5
  0
LINE
  8
0
 10
17
 20
-5
 11
0
 21
-5
  0
LINE
  8
0
 10
0
 20
-5
 11
0
 21
-19
  0
LINE
  8
0
 10
0
 20
-19
 11
3.03999
 21
-19
  0
LINE
  8
0
 10
3.03999
 20
-19
 11
3.03999
 21
-33
  0
LINE
  8
0
 10
3.03999
 20
-33
 11
0
 21
-33
  0
LINE
  8
0
 10
0
 20
-33
 11
0
 21
-47
  0
LINE
  8
0
 10
0
 20
-47
 11
3.03999
 21
-47
  0
LINE
  8
0
 10
3.03999
 20
-47
 11
3.03999
 21
-61
  0
LINE
  8
0
 10
3.03999
 20
-61
 11
0
 21
-61
  0
LINE
  8
0
 10
0
 20
-61
 11
0
 21
-75
  0
LINE
  8
0
 10
0
 20
-75
 11
50
 21
-75
  0
LINE
  8
0
 10
50
 20
-75
 11
50.4894
 21
-71.9098
  0
LINE
  8
0
 10
16.4949
 20
-21.7953
 11
15.1011
 21
-21.0851
  0
LINE
  8
0
 10
15.1011
 20
-21.0851
 11
13.9949
 21
-19.9789
  0
LINE
  8
0
 10
13.9949
 20
-19.9789
 11
13.2847
 21
-18.5851
  0
LINE
  8
0
 10
13.2847
 20
-18.5851
 11
13.04
 21
-17.04
  0
LINE
  8
0
 10
13.04
 20
-17.04
 11
13.2847
 21
-15.4949
  0
LINE
  8
0
 10
13.2847
 20
-15.4949
 11
13.9949
 21
-14.1011
  0
LINE
  8
0
 10
13.9949
 20
-14.1011
 11
15.1011
 21
-12.9949
  0
LINE
  8
0
 10
15.1011
 20
-12.9949
 11
16.4949
 21
-12.2847
  0
LINE
  8
0
 10
16.4949
 20
-12.2847
 11
18.04
 21
-12.04
  0
LINE
  8
0
 10
18.04
 20
-12.04
 11
19.5851
 21
-12.2847
  0
LINE
  8
0
 10
19.5851
 20
-12.2847
 11
20.9789
 21
-12.9949
  0
LINE
  8
0
 10
20.9789
 20
-12.9949
 11
22.0851
 21
-14.1011
  0
LINE
  8
0
 10
22.0851
 20
-14.1011
 11
22.7953
 21
-15.4949
  0
LINE
  8
0
 10
22.7953
 20
-15.4949
 11
23.04
 21
-17.04
  0
LINE
  8
0
 10
23.04
 20
-17.04
 11
22.7953
 21
-18.5851
  0
LINE
  8
0
 10
22.7953
 20
-18.5851
 11
22.0851
 21
-19.9789
  0
LINE
  8
0
 10
22.0851
 20
-19.9789
 11
20.9789
 21
-21.0851
  0
LINE
  8
0
 10
20.9789
 20
-21.0851
 11
19.5851
 21
-21.7953
  0
LINE
  8
0
 10
19.5851
 20
-21.7953
 11
18.04
 21
-22.04
  0
LINE
  8
0
 10
18.04
 20
-22.04
 11
16.4949
 21
-21.7953
  0
LINE
  8
0
 10
266.851
 20
-18.9972
 11
266.266
 21
-18.6989
  0
LINE
  8
0
 10
266.266
 20
-18.6989
 11
265.801
 21
-18.2343
  0
LINE
  8
0
 10
265.801
 20
-18.2343
 11
265.503
 21
-17.6489
  0
LINE
  8
0
 10
265.503
 20
-17.6489
 11
265.4
 21
-17
  0
LINE
  8
0
 10
265.4
 20
-17
 11
265.503
 21
-16.3511
  0
LINE
  8
0
 10
265.503
 20
-16.3511
 11
265.801
 21
-15.7656
  0
LINE
  8
0
 10
265.801
 20
-15.7656
 11
266.266
 21
-15.3011
  0
LINE
  8
0
 10
266.266
 20
-15.3011
 11
266.851
 21
-15.0028
  0
LINE
  8
0
 10
266.851
 20
-15.0028
 11
267.5
 21
-14.9
  0
LINE
  8
0
 10
267.5
 20
-14.9
 11
268.149
 21
-15.0028
  0
LINE
  8
0
 10
268.149
 20
-15.0028
 11
268.734
 21
-15.3011
  0
LINE
  8
0
 10
268.734
 20
-15.3011
 11
269.199
 21
-15.7656
  0
LINE
  8
0
 10
269.199
 20
-15.7656
 11
269.497
 21
-16.3511
  0
LINE
  8
0
 10
269.497
 20
-16.3511
 11
269.6
 21
-17
  0
LINE
  8
0
 10
269.6
 20
-17
 11
269.497
 21
-17.6489
  0
LINE
  8
0
 10
269.497
 20
-17.6489
 11
269.199
 21
-18.2343
  0
LINE
  8
0
 10
269.199
 20
-18.2343
 11
268.734
 21
-18.6989
  0
LINE
  8
0
 10
268.734
 20
-18.6989
 11
268.149
 21
-18.9972
  0
LINE
  8
0
 10
268.149
 20
-18.9972
 11
267.5
 21
-19.1
  0
LINE
  8
0
 10
267.5
 20
-19.1
 11
266.851
 21
-18.9972
  0
LINE
  8
0
 10
116.851
 20
-18.9972
 11
116.266
 21
-18.6989
  0
LINE
  8
0
 10
116.266
 20
-18.6989
 11
115.801
 21
-18.2344
  0
LINE
  8
0
 10
115.801
 20
-18.2344
 11
115.503
 21
-17.6489
  0
LINE
  8
0
 10
115.503
 20
-17.6489
 11
115.4
 21
-17
  0
LINE
  8
0
 10
115.4
 20
-17
 11
115.503
 21
-16.3511
  0
LINE
  8
0
 10
115.503
 20
-16.3511
 11
115.801
 21
-15.7657
  0
LINE
  8
0
 10
115.801
 20
-15.7657
 11
116.266
 21
-15.3011
  0
LINE
  8
0
 10
116.266
 20
-15.3011
 11
116.851
 21
-15.0028
  0
LINE
  8
0
 10
116.851
 20
-15.0028
 11
117.5
 21
-14.9
  0
LINE
  8
0
 10
117.5
 20
-14.9
 11
118.149
 21
-15.0028
  0
LINE
  8
0
 10
118.149
 20
-15.0028
 11
118.734
 21
-15.3011
  0
LINE
  8
0
 10
118.734
 20
-15.3011
 11
119.199
 21
-15.7657
  0
LINE
  8
0
 10
119.199
 20
-15.7657
 11
119.497
 21
-16.3511
  0
LINE
  8
0
 10
119.497
 20
-16.3511
 11
119.6
 21
-17
  0
LINE
  8
0
 10
119.6
 20
-17
 11
119.497
 21
-17.6489
  0
LINE
  8
0
 10
119.497
 20
-17.6489
 11
119.199
 21
-18.2344
  0
LINE
  8
0
 10
119.199
 20
-18.2344
 11
118.734
 21
-18.6989
  0
LINE
  8
0
 10
118.734
 20
-18.6989
 11
118.149
 21
-18.9972
  0
LINE
  8
0
 10
118.149
 20
-18.9972
 11
117.5
 21
-19.1
  0
LINE
  8
0
 10
117.5
 20
-19.1
 11
116.851
 21
-18.9972
  0
LINE
  8
0
 10
36.8812
 20
-25.5665
 11
35.8358
 21
-25.0338
  0
LINE
  8
0
 10
35.8358
 20
-25.0338
 11
35.0062
 21
-24.2042
  0
LINE
  8
0
 10
35.0062
 20
-24.2042
 11
34.4735
 21
-23.1588
  0
LINE
  8
0
 10
34.4735
 20
-23.1588
 11
34.29
 21
-22
  0
LINE
  8
0
 10
34.29
 20
-22
 11
34.4735
 21
-20.8412
  0
LINE
  8
0
 10
34.4735
 20
-20.8412
 11
35.0062
 21
-19.7958
  0
LINE
  8
0
 10
35.0062
 20
-19.7958
 11
35.8358
 21
-18.9662
  0
LINE
  8
0
 10
35.8358
 20
-18.9662
 11
36.8812
 21
-18.4335
  0
LINE
  8
0
 10
36.8812
 20
-18.4335
 11
38.04
 21
-18.25
  0
LINE
  8
0
 10
38.04
 20
-18.25
 11
39.1988
 21
-18.4335
  0
LINE
  8
0
 10
39.1988
 20
-18.4335
 11
40.2442
 21
-18.9662
  0
LINE
  8
0
 10
40.2442
 20
-18.9662
 11
41.0738
 21
-19.7958
  0
LINE
  8
0
 10
41.0738
 20
-19.7958
 11
41.6065
 21
-20.8412
  0
LINE
  8
0
 10
41.6065
 20
-20.8412
 11
41.79
 21
-22
  0
LINE
  8
0
 10
41.79
 20
-22
 11
41.6065
 21
-23.1588
  0
LINE
  8
0
 10
41.6065
 20
-23.1588
 11
41.0738
 21
-24.2042
  0
LINE
  8
0
 10
41.0738
 20
-24.2042
 11
40.2442
 21
-25.0338
  0
LINE
  8
0
 10
40.2442
 20
-25.0338
 11
39.1988
 21
-25.5665
  0
LINE
  8
0
 10
39.1988
 20
-25.5665
 11
38.04
 21
-25.75
  0
LINE
  8
0
 10
38.04
 20
-25.75
 11
36.8812
 21
-25.5665
  0
LINE
  8
0
 10
54.9962
 20
-47.7012
 11
52.2503
 21
-46.3021
  0
LINE
  8
0
 10
52.2503
 20
-46.3021
 11
50.0712
 21
-44.123
  0
LINE
  8
0
 10
50.0712
 20
-44.123
 11
48.6721
 21
-41.3771
  0
LINE
  8
0
 10
48.6721
 20
-41.3771
 11
48.19
 21
-38.3333
  0
LINE
  8
0
 10
48.19
 20
-38.3333
 11
48.6721
 21
-35.2895
  0
LINE
  8
0
 10
48.6721
 20
-35.2895
 11
50.0712
 21
-32.5436
  0
LINE
  8
0
 10
50.0712
 20
-32.5436
 11
52.2503
 21
-30.3645
  0
LINE
  8
0
 10
52.2503
 20
-30.3645
 11
54.9962
 21
-28.9654
  0
LINE
  8
0
 10
54.9962
 20
-28.9654
 11
58.04
 21
-28.4833
  0
LINE
  8
0
 10
58.04
 20
-28.4833
 11
61.0838
 21
-28.9654
  0
LINE
  8
0
 10
61.0838
 20
-28.9654
 11
63.8297
 21
-30.3645
  0
LINE
  8
0
 10
63.8297
 20
-30.3645
 11
66.0088
 21
-32.5436
  0
LINE
  8
0
 10
66.0088
 20
-32.5436
 11
67.4079
 21
-35.2895
  0
LINE
  8
0
 10
67.4079
 20
-35.2895
 11
67.89
 21
-38.3333
  0
LINE
  8
0
 10
67.89
 20
-38.3333
 11
67.4079
 21
-41.3771
  0
LINE
  8
0
 10
67.4079
 20
-41.3771
 11
66.0088
 21
-44.123
  0
LINE
  8
0
 10
66.0088
 20
-44.123
 11
63.8297
 21
-46.3021
  0
LINE
  8
0
 10
63.8297
 20
-46.3021
 11
61.0838
 21
-47.7012
  0
LINE
  8
0
 10
61.0838
 20
-47.7012
 11
58.04
 21
-48.1833
  0
LINE
  8
0
 10
58.04
 20
-48.1833
 11
54.9962
 21
-47.7012
  0
LINE
  8
0
 10
19.432
 20
-59.54
 11
19.432
 21
-56.5
  0
LINE
  8
0
 10
19.432
 20
-56.5
 11
35.824
 21
-56.5
  0
LINE
  8
0
 10
35.824
 20
-56.5
 11
35.824
 21
-59.54
  0
LINE
  8
0
 10
35.824
 20
-59.54
 11
19.432
 21
-59.54
  0
LINE
  8
0
 10
52.216
 20
-59.54
 11
52.216
 21
-56.5
  0
LINE
  8
0
 10
52.216
 20
-56.5
 11
68.608
 21
-56.5
  0
LINE
  8
0
 10
68.608
 20
-56.5
 11
68.608
 21
-59.54
  0
LINE
  8
0
 10
68.608
 20
-59.54
 11
52.216
 21
-59.54
  0
LINE
  8
0
 10
34
 20
-195
 11
51
 21
-195
  0
LINE
  8
0
 10
51
 20
-195
 11
51
 21
-198.04
  0
LINE
  8
0
 10
51
 20
-198.04
 11
68
 21
-198.04
  0
LINE
  8
0
 10
68
 20
-198.04
 11
68
 21
-195
  0
LINE
  8
0
 10
68
 20
-195
 11
85
 21
-195
  0
LINE
  8
0
 10
85
 20
-195
 11
85
 21
-80
  0
LINE
  8
0
 10
85
 20
-80
 11
68
 21
-80
  0
LINE
  8
0
 10
68
 20
-80
 11
68
 21
-76.96
  0
LINE
  8
0
 10
68
 20
-76.96
 11
51
 21
-76.96
  0
LINE
  8
0
 10
51
 20
-76.96
 11
51
 21
-80
  0
LINE
  8
0
 10
51
 20
-80
 11
34
 21
-80
  0
LINE
  8
0
 10
34
 20
-80
 11
34
 21
-76.96
  0
LINE
  8
0
 10
34
 20
-76.96
 11
17
 21
-76.96
  0
LINE
  8
0
 10
17
 20
-76.96
 11
17
 21
-80
  0
LINE
  8
0
 10
17
 20
-80
 11
0
 21
-80
  0
LINE
  8
0
 10
0
 20
-80
 11
0
 21
-103
  0
LINE
  8
0
 10
0
 20
-103
 11
3.03999
 21
-103
  0
LINE
  8
0
 10
3.03999
 20
-103
 11
3.03999
 21
-126
  0
LINE
  8
0
 10
3.03999
 20
-126
 11
0
 21
-126
  0
LINE
  8
0
 10
0
 20
-126
 11
0
 21
-149
  0
LINE
  8
0
 10
0
 20
-149
 11
3.03999
 21
-149
  0
LINE
  8
0
 10
3.03999
 20
-149
 11
3.03999
 21
-172
  0
LINE
  8
0
 10
3.03999
 20
-172
 11
0
 21
-172
  0
LINE
  8
0
 10
0
 20
-172
 11
0
 21
-195
  0
LINE
  8
0
 10
0
 20
-195
 11
17
 21
-195
  0
LINE
  8
0
 10
17
 20
-195
 11
17
 21
-198.04
  0
LINE
  8
0
 10
17
 20
-198.04
 11
34
 21
-198.04
  0
LINE
  8
0
 10
34
 20
-198.04
 11
34
 21
-195
  0
LINE
  8
0
 10
42.532
 20
-100.902
 11
41.9744
 21
-100.618
  0
LINE
  8
0
 10
41.9744
 20
-100.618
 11
41.532
 21
-100.176
  0
LINE
  8
0
 10
41.532
 20
-100.176
 11
41.2479
 21
-99.618
  0
LINE
  8
0
 10
41.2479
 20
-99.618
 11
41.15
 21
-99
  0
LINE
  8
0
 10
41.15
 20
-99
 11
41.2479
 21
-98.382
  0
LINE
  8
0
 10
41.2479
 20
-98.382
 11
41.532
 21
-97.8244
  0
LINE
  8
0
 10
41.532
 20
-97.8244
 11
41.9744
 21
-97.382
  0
LINE
  8
0
 10
41.9744
 20
-97.382
 11
42.532
 21
-97.0979
  0
LINE
  8
0
 10
42.532
 20
-97.0979
 11
43.15
 21
-97
  0
LINE
  8
0
 10
43.15
 20
-97
 11
43.768
 21
-97.0979
  0
LINE
  8
0
 10
43.768
 20
-97.0979
 11
44.3256
 21
-97.382
  0
LINE
  8
0
 10
44.3256
 20
-97.382
 11
44.768
 21
-97.8244
  0
LINE
  8
0
 10
44.768
 20
-97.8244
 11
45.0521
 21
-98.382
  0
LINE
  8
0
 10
45.0521
 20
-98.382
 11
45.15
 21
-99
  0
LINE
  8
0
 10
45.15
 20
-99
 11
45.0521
 21
-99.618
  0
LINE
  8
0
 10
45.0521
 20
-99.618
 11
44.768
 21
-100.176
  0
LINE
  8
0
 10
44.768
 20
-100.176
 11
44.3256
 21
-100.618
  0
LINE
  8
0
 10
44.3256
 20
-100.618
 11
43.768
 21
-100.902
  0
LINE
  8
0
 10
43.768
 20
-100.902
 11
43.15
 21
-101
  0
LINE
  8
0
 10
43.15
 20
-101
 11
42.532
 21
-100.902
  0
LINE
  8
0
 10
71.232
 20
-100.902
 11
70.6744
 21
-100.618
  0
LINE
  8
0
 10
70.6744
 20
-100.618
 11
70.232
 21
-100.176
  0
LINE
  8
0
 10
70.232
 20
-100.176
 11
69.9479
 21
-99.618
  0
LINE
  8
0
 10
69.9479
 20
-99.618
 11
69.85
 21
-99
  0
LINE
  8
0
 10
69.85
 20
-99
 11
69.9479
 21
-98.382
  0
LINE
  8
0
 10
69.9479
 20
-98.382
 11
70.232
 21
-97.8244
  0
LINE
  8
0
 10
70.232
 20
-97.8244
 11
70.6744
 21
-97.382
  0
LINE
  8
0
 10
70.6744
 20
-97.382
 11
71.232
 21
-97.0979
  0
LINE
  8
0
 10
71.232
 20
-97.0979
 11
71.85
 21
-97
  0
LINE
  8
0
 10
71.85
 20
-97
 11
72.468
 21
-97.0979
  0
LINE
  8
0
 10
72.468
 20
-97.0979
 11
73.0256
 21
-97.382
  0
LINE
  8
0
 10
73.0256
 20
-97.382
 11
73.468
 21
-97.8244
  0
LINE
  8
0
 10
73.468
 20
-97.8244
 11
73.7521
 21
-98.382
  0
LINE
  8
0
 10
73.7521
 20
-98.382
 11
73.85
 21
-99
  0
LINE
  8
0
 10
73.85
 20
-99
 11
73.7521
 21
-99.618
  0
LINE
  8
0
 10
73.7521
 20
-99.618
 11
73.468
 21
-100.176
  0
LINE
  8
0
 10
73.468
 20
-100.176
 11
73.0256
 21
-100.618
  0
LINE
  8
0
 10
73.0256
 20
-100.618
 11
72.468
 21
-100.902
  0
LINE
  8
0
 10
72.468
 20
-100.902
 11
71.85
 21
-101
  0
LINE
  8
0
 10
71.85
 20
-101
 11
71.232
 21
-100.902
  0
LINE
  8
0
 10
42.532
 20
-108.902
 11
41.9744
 21
-108.618
  0
LINE
  8
0
 10
41.9744
 20
-108.618
 11
41.532
 21
-108.176
  0
LINE
  8
0
 10
41.532
 20
-108.176
 11
41.2479
 21
-107.618
  0
LINE
  8
0
 10
41.2479
 20
-107.618
 11
41.15
 21
-107
  0
LINE
  8
0
 10
41.15
 20
-107
 11
41.2479
 21
-106.382
  0
LINE
  8
0
 10
41.2479
 20
-106.382
 11
41.532
 21
-105.824
  0
LINE
  8
0
 10
41.532
 20
-105.824
 11
41.9744
 21
-105.382
  0
LINE
  8
0
 10
41.9744
 20
-105.382
 11
42.532
 21
-105.098
  0
LINE
  8
0
 10
42.532
 20
-105.098
 11
43.15
 21
-105
  0
LINE
  8
0
 10
43.15
 20
-105
 11
43.768
 21
-105.098
  0
LINE
  8
0
 10
43.768
 20
-105.098
 11
44.3256
 21
-105.382
  0
LINE
  8
0
 10
44.3256
 20
-105.382
 11
44.768
 21
-105.824
  0
LINE
  8
0
 10
44.768
 20
-105.824
 11
45.0521
 21
-106.382
  0
LINE
  8
0
 10
45.0521
 20
-106.382
 11
45.15
 21
-107
  0
LINE
  8
0
 10
45.15
 20
-107
 11
45.0521
 21
-107.618
  0
LINE
  8
0
 10
45.0521
 20
-107.618
 11
44.768
 21
-108.176
  0
LINE
  8
0
 10
44.768
 20
-108.176
 11
44.3256
 21
-108.618
  0
LINE
  8
0
 10
44.3256
 20
-108.618
 11
43.768
 21
-108.902
  0
LINE
  8
0
 10
43.768
 20
-108.902
 11
43.15
 21
-109
  0
LINE
  8
0
 10
43.15
 20
-109
 11
42.532
 21
-108.902
  0
LINE
  8
0
 10
71.232
 20
-108.902
 11
70.6744
 21
-108.618
  0
LINE
  8
0
 10
70.6744
 20
-108.618
 11
70.232
 21
-108.176
  0
LINE
  8
0
 10
70.232
 20
-108.176
 11
69.9479
 21
-107.618
  0
LINE
  8
0
 10
69.9479
 20
-107.618
 11
69.85
 21
-107
  0
LINE
  8
0
 10
69.85
 20
-107
 11
69.9479
 21
-106.382
  0
LINE
  8
0
 10
69.9479
 20
-106.382
 11
70.232
 21
-105.824
  0
LINE
  8
0
 10
70.232
 20
-105.824
 11
70.6744
 21
-105.382
  0
LINE
  8
0
 10
70.6744
 20
-105.382
 11
71.232
 21
-105.098
  0
LINE
  8
0
 10
71.232
 20
-105.098
 11
71.85
 21
-105
  0
LINE
  8
0
 10
71.85
 20
-105
 11
72.468
 21
-105.098
  0
LINE
  8
0
 10
72.468
 20
-105.098
 11
73.0256
 21
-105.382
  0
LINE
  8
0
 10
73.0256
 20
-105.382
 11
73.468
 21
-105.824
  0
LINE
  8
0
 10
73.468
 20
-105.824
 11
73.7521
 21
-106.382
  0
LINE
  8
0
 10
73.7521
 20
-106.382
 11
73.85
 21
-107
  0
LINE
  8
0
 10
73.85
 20
-107
 11
73.7521
 21
-107.618
  0
LINE
  8
0
 10
73.7521
 20
-107.618
 11
73.468
 21
-108.176
  0
LINE
  8
0
 10
73.468
 20
-108.176
 11
73.0256
 21
-108.618
  0
LINE
  8
0
 10
73.0256
 20
-108.618
 11
72.468
 21
-108.902
  0
LINE
  8
0
 10
72.468
 20
-108.902
 11
71.85
 21
-109
  0
LINE
  8
0
 10
71.85
 20
-109
 11
71.232
 21
-108.902
  0
LINE
  8
0
 10
45.2918
 20
-151.213
 11
41.9466
 21
-149.508
  0
LINE
  8
0
 10
41.9466
 20
-149.508
 11
39.2918
 21
-146.853
  0
LINE
  8
0
 10
39.2918
 20
-146.853
 11
37.5873
 21
-143.508
  0
LINE
  8
0
 10
37.5873
 20
-143.508
 11
37
 21
-139.8
  0
LINE
  8
0
 10
37
 20
-139.8
 11
37.5873
 21
-136.092
  0
LINE
  8
0
 10
37.5873
 20
-136.092
 11
39.2918
 21
-132.747
  0
LINE
  8
0
 10
39.2918
 20
-132.747
 11
41.9466
 21
-130.092
  0
LINE
  8
0
 10
41.9466
 20
-130.092
 11
45.2918
 21
-128.387
  0
LINE
  8
0
 10
45.2918
 20
-128.387
 11
49
 21
-127.8
  0
LINE
  8
0
 10
49
 20
-127.8
 11
52.7082
 21
-128.387
  0
LINE
  8
0
 10
52.7082
 20
-128.387
 11
56.0534
 21
-130.092
  0
LINE
  8
0
 10
56.0534
 20
-130.092
 11
58.7082
 21
-132.747
  0
LINE
  8
0
 10
58.7082
 20
-132.747
 11
60.4127
 21
-136.092
  0
LINE
  8
0
 10
60.4127
 20
-136.092
 11
61
 21
-139.8
  0
LINE
  8
0
 10
61
 20
-139.8
 11
60.4127
 21
-143.508
  0
LINE
  8
0
 10
60.4127
 20
-143.508
 11
58.7082
 21
-146.853
  0
LINE
  8
0
 10
58.7082
 20
-146.853
 11
56.0534
 21
-149.508
  0
LINE
  8
0
 10
56.0534
 20
-149.508
 11
52.7082
 21
-151.213
  0
LINE
  8
0
 10
52.7082
 20
-151.213
 11
49
 21
-151.8
  0
LINE
  8
0
 10
49
 20
-151.8
 11
45.2918
 21
-151.213
  0
ENDSEC
  0
SECTION
  2
OBJECTS
  0
DICTIONARY
  0
ENDSEC
  0
EOF
