  0
SECTION
  2
BLOCKS
  0
ENDSEC
  0
SECTION
  2
ENTITIES
  0
LINE
  8
0
 10
35.86
 20
75
 11
52.24
 21
75
  0
LINE
  8
0
 10
52.24
 20
75
 11
52.24
 21
71.9
  0
LINE
  8
0
 10
52.24
 20
71.9
 11
68.62
 21
71.9
  0
LINE
  8
0
 10
68.62
 20
71.9
 11
68.62
 21
75
  0
LINE
  8
0
 10
68.62
 20
75
 11
85
 21
75
  0
LINE
  8
0
 10
85
 20
75
 11
85
 21
190
  0
LINE
  8
0
 10
85
 20
190
 11
68.62
 21
190
  0
LINE
  8
0
 10
68.62
 20
190
 11
68.62
 21
193.1
  0
LINE
  8
0
 10
68.62
 20
193.1
 11
52.24
 21
193.1
  0
LINE
  8
0
 10
52.24
 20
193.1
 11
52.24
 21
190
  0
LINE
  8
0
 10
52.24
 20
190
 11
35.86
 21
190
  0
LINE
  8
0
 10
35.86
 20
190
 11
35.86
 21
193.1
  0
LINE
  8
0
 10
35.86
 20
193.1
 11
19.48
 21
193.1
  0
LINE
  8
0
 10
19.48
 20
193.1
 11
19.48
 21
190
  0
LINE
  8
0
 10
19.48
 20
190
 11
3.09999
 21
190
  0
LINE
  8
0
 10
3.09999
 20
190
 11
3.09999
 21
75
  0
LINE
  8
0
 10
3.09999
 20
75
 11
19.48
 21
75
  0
LINE
  8
0
 10
19.48
 20
75
 11
19.48
 21
71.9
  0
LINE
  8
0
 10
19.48
 20
71.9
 11
35.86
 21
71.9
  0
LINE
  8
0
 10
35.86
 20
71.9
 11
35.86
 21
75
  0
LINE
  8
0
 10
17
 20
3.09999
 11
34
 21
3.09999
  0
LINE
  8
0
 10
34
 20
3.09999
 11
34
 21
0
  0
LINE
  8
0
 10
34
 20
0
 11
51
 21
0
  0
LINE
  8
0
 10
51
 20
0
 11
51
 21
3.09999
  0
LINE
  8
0
 10
51
 20
3.09999
 11
68
 21
3.09999
  0
LINE
  8
0
 10
68
 20
3.09999
 11
68
 21
0
  0
LINE
  8
0
 10
68
 20
0
 11
300
 21
0
  0
LINE
  8
0
 10
300
 20
0
 11
300
 21
70
  0
LINE
  8
0
 10
300
 20
70
 11
250
 21
70
  0
LINE
  8
0
 10
250
 20
70
 11
249.511
 21
66.9098
  0
LINE
  8
0
 10
249.511
 20
66.9098
 11
248.09
 21
64.1222
  0
LINE
  8
0
 10
248.09
 20
64.1222
 11
245.878
 21
61.9098
  0
LINE
  8
0
 10
245.878
 20
61.9098
 11
243.09
 21
60.4894
  0
LINE
  8
0
 10
243.09
 20
60.4894
 11
240
 21
60
  0
LINE
  8
0
 10
240
 20
60
 11
210
 21
60
  0
LINE
  8
0
 10
210
 20
60
 11
206.91
 21
60.4894
  0
LINE
  8
0
 10
206.91
 20
60.4894
 11
204.122
 21
61.9098
  0
LINE
  8
0
 10
204.122
 20
61.9098
 11
201.91
 21
64.1222
  0
LINE
  8
0
 10
201.91
 20
64.1222
 11
200.489
 21
66.9098
  0
LINE
  8
0
 10
200.489
 20
66.9098
 11
200
 21
70
  0
LINE
  8
0
 10
200
 20
70
 11
175
 21
70
  0
LINE
  8
0
 10
175
 20
70
 11
174.511
 21
66.9098
  0
LINE
  8
0
 10
174.511
 20
66.9098
 11
173.09
 21
64.1222
  0
LINE
  8
0
 10
173.09
 20
64.1222
 11
170.878
 21
61.9098
  0
LINE
  8
0
 10
170.878
 20
61.9098
 11
168.09
 21
60.4894
  0
LINE
  8
0
 10
168.09
 20
60.4894
 11
165
 21
60
  0
LINE
  8
0
 10
165
 20
60
 11
135
 21
60
  0
LINE
  8
0
 10
135
 20
60
 11
131.91
 21
60.4894
  0
LINE
  8
0
 10
131.91
 20
60.4894
 11
129.122
 21
61.9098
  0
LINE
  8
0
 10
129.122
 20
61.9098
 11
126.91
 21
64.1222
  0
LINE
  8
0
 10
126.91
 20
64.1222
 11
125.489
 21
66.9098
  0
LINE
  8
0
 10
125.489
 20
66.9098
 11
125
 21
70
  0
LINE
  8
0
 10
125
 20
70
 11
100
 21
70
  0
LINE
  8
0
 10
100
 20
70
 11
99.5106
 21
66.9098
  0
LINE
  8
0
 10
99.5106
 20
66.9098
 11
98.0902
 21
64.1222
  0
LINE
  8
0
 10
98.0902
 20
64.1222
 11
95.8778
 21
61.9098
  0
LINE
  8
0
 10
95.8778
 20
61.9098
 11
93.0902
 21
60.4894
  0
LINE
  8
0
 10
93.0902
 20
60.4894
 11
90
 21
60
  0
LINE
  8
0
 10
90
 20
60
 11
60
 21
60
  0
LINE
  8
0
 10
60
 20
60
 11
56.9098
 21
60.4894
  0
LINE
  8
0
 10
56.9098
 20
60.4894
 11
54.1221
 21
61.9098
  0
LINE
  8
0
 10
54.1221
 20
61.9098
 11
51.9098
 21
64.1222
  0
LINE
  8
0
 10
51.9098
 20
64.1222
 11
50.4894
 21
66.9098
  0
LINE
  8
0
 10
50.4894
 20
66.9098
 11
50
 21
70
  0
LINE
  8
0
 10
50
 20
70
 11
0
 21
70
  0
LINE
  8
0
 10
0
 20
70
 11
0
 21
56
  0
LINE
  8
0
 10
0
 20
56
 11
3.09999
 21
56
  0
LINE
  8
0
 10
3.09999
 20
56
 11
3.09999
 21
42
  0
LINE
  8
0
 10
3.09999
 20
42
 11
0
 21
42
  0
LINE
  8
0
 10
0
 20
42
 11
0
 21
28
  0
LINE
  8
0
 10
0
 20
28
 11
3.09999
 21
28
  0
LINE
  8
0
 10
3.09999
 20
28
 11
3.09999
 21
14
  0
LINE
  8
0
 10
3.09999
 20
14
 11
0
 21
14
  0
LINE
  8
0
 10
0
 20
14
 11
0
 21
0
  0
LINE
  8
0
 10
0
 20
0
 11
17
 21
0
  0
LINE
  8
0
 10
17
 20
0
 11
17
 21
3.09999
  0
LINE
  8
0
 10
19.48
 20
51.5
 11
19.48
 21
54.6
  0
LINE
  8
0
 10
19.48
 20
54.6
 11
35.86
 21
54.6
  0
LINE
  8
0
 10
35.86
 20
54.6
 11
35.86
 21
51.5
  0
LINE
  8
0
 10
35.86
 20
51.5
 11
19.48
 21
51.5
  0
LINE
  8
0
 10
52.24
 20
51.5
 11
52.24
 21
54.6
  0
LINE
  8
0
 10
52.24
 20
54.6
 11
68.62
 21
54.6
  0
LINE
  8
0
 10
68.62
 20
54.6
 11
68.62
 21
51.5
  0
LINE
  8
0
 10
68.62
 20
51.5
 11
52.24
 21
51.5
  0
LINE
  8
0
 10
36.95
 20
21.5
 11
36.95
 21
48.5
  0
LINE
  8
0
 10
36.95
 20
48.5
 11
79.25
 21
48.5
  0
LINE
  8
0
 10
79.25
 20
48.5
 11
79.25
 21
21.5
  0
LINE
  8
0
 10
79.25
 20
21.5
 11
36.95
 21
21.5
  0
LINE
  8
0
 10
10.6
 20
8.59999
 11
10.6
 21
28.6
  0
LINE
  8
0
 10
10.6
 20
28.6
 11
25.6
 21
28.6
  0
LINE
  8
0
 10
25.6
 20
28.6
 11
25.6
 21
8.59999
  0
LINE
  8
0
 10
25.6
 20
8.59999
 11
10.6
 21
8.59999
  0
LINE
  8
0
 10
116.851
 20
10.0028
 11
116.266
 21
10.3011
  0
LINE
  8
0
 10
116.266
 20
10.3011
 11
115.801
 21
10.7657
  0
LINE
  8
0
 10
115.801
 20
10.7657
 11
115.503
 21
11.3511
  0
LINE
  8
0
 10
115.503
 20
11.3511
 11
115.4
 21
12
  0
LINE
  8
0
 10
115.4
 20
12
 11
115.503
 21
12.6489
  0
LINE
  8
0
 10
115.503
 20
12.6489
 11
115.801
 21
13.2344
  0
LINE
  8
0
 10
115.801
 20
13.2344
 11
116.266
 21
13.6989
  0
LINE
  8
0
 10
116.266
 20
13.6989
 11
116.851
 21
13.9972
  0
LINE
  8
0
 10
116.851
 20
13.9972
 11
117.5
 21
14.1
  0
LINE
  8
0
 10
117.5
 20
14.1
 11
118.149
 21
13.9972
  0
LINE
  8
0
 10
118.149
 20
13.9972
 11
118.734
 21
13.6989
  0
LINE
  8
0
 10
118.734
 20
13.6989
 11
119.199
 21
13.2344
  0
LINE
  8
0
 10
119.199
 20
13.2344
 11
119.497
 21
12.6489
  0
LINE
  8
0
 10
119.497
 20
12.6489
 11
119.6
 21
12
  0
LINE
  8
0
 10
119.6
 20
12
 11
119.497
 21
11.3511
  0
LINE
  8
0
 10
119.497
 20
11.3511
 11
119.199
 21
10.7657
  0
LINE
  8
0
 10
119.199
 20
10.7657
 11
118.734
 21
10.3011
  0
LINE
  8
0
 10
118.734
 20
10.3011
 11
118.149
 21
10.0028
  0
LINE
  8
0
 10
118.149
 20
10.0028
 11
117.5
 21
9.90001
  0
LINE
  8
0
 10
117.5
 20
9.90001
 11
116.851
 21
10.0028
  0
LINE
  8
0
 10
266.851
 20
10.0028
 11
266.266
 21
10.3011
  0
LINE
  8
0
 10
266.266
 20
10.3011
 11
265.801
 21
10.7656
  0
LINE
  8
0
 10
265.801
 20
10.7656
 11
265.503
 21
11.3511
  0
LINE
  8
0
 10
265.503
 20
11.3511
 11
265.4
 21
12
  0
LINE
  8
0
 10
265.4
 20
12
 11
265.503
 21
12.6489
  0
LINE
  8
0
 10
265.503
 20
12.6489
 11
265.801
 21
13.2343
  0
LINE
  8
0
 10
265.801
 20
13.2343
 11
266.266
 21
13.6989
  0
LINE
  8
0
 10
266.266
 20
13.6989
 11
266.851
 21
13.9972
  0
LINE
  8
0
 10
266.851
 20
13.9972
 11
267.5
 21
14.1
  0
LINE
  8
0
 10
267.5
 20
14.1
 11
268.149
 21
13.9972
  0
LINE
  8
0
 10
268.149
 20
13.9972
 11
268.734
 21
13.6989
  0
LINE
  8
0
 10
268.734
 20
13.6989
 11
269.199
 21
13.2343
  0
LINE
  8
0
 10
269.199
 20
13.2343
 11
269.497
 21
12.6489
  0
LINE
  8
0
 10
269.497
 20
12.6489
 11
269.6
 21
12
  0
LINE
  8
0
 10
269.6
 20
12
 11
269.497
 21
11.3511
  0
LINE
  8
0
 10
269.497
 20
11.3511
 11
269.199
 21
10.7656
  0
LINE
  8
0
 10
269.199
 20
10.7656
 11
268.734
 21
10.3011
  0
LINE
  8
0
 10
268.734
 20
10.3011
 11
268.149
 21
10.0028
  0
LINE
  8
0
 10
268.149
 20
10.0028
 11
267.5
 21
9.89999
  0
LINE
  8
0
 10
267.5
 20
9.89999
 11
266.851
 21
10.0028
  0
LINE
  8
0
 10
41.9412
 20
5.43353
 11
40.8958
 21
5.96617
  0
LINE
  8
0
 10
40.8958
 20
5.96617
 11
40.0662
 21
6.79579
  0
LINE
  8
0
 10
40.0662
 20
6.79579
 11
39.5335
 21
7.84117
  0
LINE
  8
0
 10
39.5335
 20
7.84117
 11
39.35
 21
9
  0
LINE
  8
0
 10
39.35
 20
9
 11
39.5335
 21
10.1588
  0
LINE
  8
0
 10
39.5335
 20
10.1588
 11
40.0662
 21
11.2042
  0
LINE
  8
0
 10
40.0662
 20
11.2042
 11
40.8958
 21
12.0338
  0
LINE
  8
0
 10
40.8958
 20
12.0338
 11
41.9412
 21
12.5665
  0
LINE
  8
0
 10
41.9412
 20
12.5665
 11
43.1
 21
12.75
  0
LINE
  8
0
 10
43.1
 20
12.75
 11
44.2588
 21
12.5665
  0
LINE
  8
0
 10
44.2588
 20
12.5665
 11
45.3042
 21
12.0338
  0
LINE
  8
0
 10
45.3042
 20
12.0338
 11
46.1338
 21
11.2042
  0
LINE
  8
0
 10
46.1338
 20
11.2042
 11
46.6665
 21
10.1588
  0
LINE
  8
0
 10
46.6665
 20
10.1588
 11
46.85
 21
9
  0
LINE
  8
0
 10
46.85
 20
9
 11
46.6665
 21
7.84117
  0
LINE
  8
0
 10
46.6665
 20
7.84117
 11
46.1338
 21
6.79579
  0
LINE
  8
0
 10
46.1338
 20
6.79579
 11
45.3042
 21
5.96617
  0
LINE
  8
0
 10
45.3042
 20
5.96617
 11
44.2588
 21
5.43353
  0
LINE
  8
0
 10
44.2588
 20
5.43353
 11
43.1
 21
5.25
  0
LINE
  8
0
 10
43.1
 20
5.25
 11
41.9412
 21
5.43353
  0
LINE
  8
0
 10
-74
 20
3.09999
 11
-51
 21
3.09999
  0
LINE
  8
0
 10
-51
 20
3.09999
 11
-51
 21
0
  0
LINE
  8
0
 10
-51
 20
0
 11
-28
 21
0
  0
LINE
  8
0
 10
-28
 20
0
 11
-28
 21
3.09999
  0
LINE
  8
0
 10
-28
 20
3.09999
 11
-5
 21
3.09999
  0
LINE
  8
0
 10
-5
 20
3.09999
 11
-5
 21
14
  0
LINE
  8
0
 10
-5
 20
14
 11
-1.90001
 21
14
  0
LINE
  8
0
 10
-1.90001
 20
14
 11
-1.90001
 21
28
  0
LINE
  8
0
 10
-1.90001
 20
28
 11
-5
 21
28
  0
LINE
  8
0
 10
-5
 20
28
 11
-5
 21
42
  0
LINE
  8
0
 10
-5
 20
42
 11
-1.90001
 21
42
  0
LINE
  8
0
 10
-1.90001
 20
42
 11
-1.90001
 21
56
  0
LINE
  8
0
 10
-1.90001
 20
56
 11
-5
 21
56
  0
LINE
  8
0
 10
-5
 20
56
 11
-5
 21
70
  0
LINE
  8
0
 10
-5
 20
70
 11
-120
 21
70
  0
LINE
  8
0
 10
-120
 20
70
 11
-120
 21
56
  0
LINE
  8
0
 10
-120
 20
56
 11
-123.1
 21
56
  0
LINE
  8
0
 10
-123.1
 20
56
 11
-123.1
 21
42
  0
LINE
  8
0
 10
-123.1
 20
42
 11
-120
 21
42
  0
LINE
  8
0
 10
-120
 20
42
 11
-120
 21
28
  0
LINE
  8
0
 10
-120
 20
28
 11
-123.1
 21
28
  0
LINE
  8
0
 10
-123.1
 20
28
 11
-123.1
 21
14
  0
LINE
  8
0
 10
-123.1
 20
14
 11
-120
 21
14
  0
LINE
  8
0
 10
-120
 20
14
 11
-120
 21
3.09999
  0
LINE
  8
0
 10
-120
 20
3.09999
 11
-97
 21
3.09999
  0
LINE
  8
0
 10
-97
 20
3.09999
 11
-97
 21
0
  0
LINE
  8
0
 10
-97
 20
0
 11
-74
 21
0
  0
LINE
  8
0
 10
-74
 20
0
 11
-74
 21
3.09999
  0
LINE
  8
0
 10
50.4894
 20
-71.9098
 11
51.9098
 21
-69.1222
  0
LINE
  8
0
 10
51.9098
 20
-69.1222
 11
54.1221
 21
-66.9098
  0
LINE
  8
0
 10
54.1221
 20
-66.9098
 11
56.9098
 21
-65.4894
  0
LINE
  8
0
 10
56.9098
 20
-65.4894
 11
60
 21
-65
  0
LINE
  8
0
 10
60
 20
-65
 11
90
 21
-65
  0
LINE
  8
0
 10
90
 20
-65
 11
93.0902
 21
-65.4894
  0
LINE
  8
0
 10
93.0902
 20
-65.4894
 11
95.8778
 21
-66.9098
  0
LINE
  8
0
 10
95.8778
 20
-66.9098
 11
98.0902
 21
-69.1222
  0
LINE
  8
0
 10
98.0902
 20
-69.1222
 11
99.5106
 21
-71.9098
  0
LINE
  8
0
 10
99.5106
 20
-71.9098
 11
100
 21
-75
  0
LINE
  8
0
 10
100
 20
-75
 11
125
 21
-75
  0
LINE
  8
0
 10
125
 20
-75
 11
125.489
 21
-71.9098
  0
LINE
  8
0
 10
125.489
 20
-71.9098
 11
126.91
 21
-69.1222
  0
LINE
  8
0
 10
126.91
 20
-69.1222
 11
129.122
 21
-66.9098
  0
LINE
  8
0
 10
129.122
 20
-66.9098
 11
131.91
 21
-65.4894
  0
LINE
  8
0
 10
131.91
 20
-65.4894
 11
135
 21
-65
  0
LINE
  8
0
 10
135
 20
-65
 11
165
 21
-65
  0
LINE
  8
0
 10
165
 20
-65
 11
168.09
 21
-65.4894
  0
LINE
  8
0
 10
168.09
 20
-65.4894
 11
170.878
 21
-66.9098
  0
LINE
  8
0
 10
170.878
 20
-66.9098
 11
173.09
 21
-69.1222
  0
LINE
  8
0
 10
173.09
 20
-69.1222
 11
174.511
 21
-71.9098
  0
LINE
  8
0
 10
174.511
 20
-71.9098
 11
175
 21
-75
  0
LINE
  8
0
 10
175
 20
-75
 11
200
 21
-75
  0
LINE
  8
0
 10
200
 20
-75
 11
200.489
 21
-71.9098
  0
LINE
  8
0
 10
200.489
 20
-71.9098
 11
201.91
 21
-69.1222
  0
LINE
  8
0
 10
201.91
 20
-69.1222
 11
204.122
 21
-66.9098
  0
LINE
  8
0
 10
204.122
 20
-66.9098
 11
206.91
 21
-65.4894
  0
LINE
  8
0
 10
206.91
 20
-65.4894
 11
210
 21
-65
  0
LINE
  8
0
 10
210
 20
-65
 11
240
 21
-65
  0
LINE
  8
0
 10
240
 20
-65
 11
243.09
 21
-65.4894
  0
LINE
  8
0
 10
243.09
 20
-65.4894
 11
245.878
 21
-66.9098
  0
LINE
  8
0
 10
245.878
 20
-66.9098
 11
248.09
 21
-69.1222
  0
LINE
  8
0
 10
248.09
 20
-69.1222
 11
249.511
 21
-71.9098
  0
LINE
  8
0
 10
249.511
 20
-71.9098
 11
250
 21
-75
  0
LINE
  8
0
 10
250
 20
-75
 11
300
 21
-75
  0
LINE
  8
0
 10
300
 20
-75
 11
300
 21
-5
  0
LINE
  8
0
 10
300
 20
-5
 11
68
 21
-5
  0
LINE
  8
0
 10
68
 20
-5
 11
68
 21
-8.09999
  0
LINE
  8
0
 10
68
 20
-8.09999
 11
51
 21
-8.09999
  0
LINE
  8
0
 10
51
 20
-8.09999
 11
51
 21
-5
  0
LINE
  8
0
 10
51
 20
-5
 11
34
 21
-5
  0
LINE
  8
0
 10
34
 20
-5
 11
34
 21
-8.09999
  0
LINE
  8
0
 10
34
 20
-8.09999
 11
17
 21
-8.09999
  0
LINE
  8
0
 10
17
 20
-8.09999
 11
17
 21
-5
  0
LINE
  8
0
 10
17
 20
-5
 11
0
 21
-5
  0
LINE
  8
0
 10
0
 20
-5
 11
0
 21
-19
  0
LINE
  8
0
 10
0
 20
-19
 11
3.09999
 21
-19
  0
LINE
  8
0
 10
3.09999
 20
-19
 11
3.09999
 21
-33
  0
LINE
  8
0
 10
3.09999
 20
-33
 11
0
 21
-33
  0
LINE
  8
0
 10
0
 20
-33
 11
0
 21
-47
  0
LINE
  8
0
 10
0
 20
-47
 11
3.09999
 21
-47
  0
LINE
  8
0
 10
3.09999
 20
-47
 11
3.09999
 21
-61
  0
LINE
  8
0
 10
3.09999
 20
-61
 11
0
 21
-61
  0
LINE
  8
0
 10
0
 20
-61
 11
0
 21
-75
  0
LINE
  8
0
 10
0
 20
-75
 11
50
 21
-75
  0
LINE
  8
0
 10
50
 20
-75
 11
50.4894
 21
-71.9098
  0
LINE
  8
0
 10
16.5549
 20
-21.8553
 11
15.1611
 21
-21.1451
  0
LINE
  8
0
 10
15.1611
 20
-21.1451
 11
14.0549
 21
-20.0389
  0
LINE
  8
0
 10
14.0549
 20
-20.0389
 11
13.3447
 21
-18.6451
  0
LINE
  8
0
 10
13.3447
 20
-18.6451
 11
13.1
 21
-17.1
  0
LINE
  8
0
 10
13.1
 20
-17.1
 11
13.3447
 21
-15.5549
  0
LINE
  8
0
 10
13.3447
 20
-15.5549
 11
14.0549
 21
-14.1611
  0
LINE
  8
0
 10
14.0549
 20
-14.1611
 11
15.1611
 21
-13.0549
  0
LINE
  8
0
 10
15.1611
 20
-13.0549
 11
16.5549
 21
-12.3447
  0
LINE
  8
0
 10
16.5549
 20
-12.3447
 11
18.1
 21
-12.1
  0
LINE
  8
0
 10
18.1
 20
-12.1
 11
19.6451
 21
-12.3447
  0
LINE
  8
0
 10
19.6451
 20
-12.3447
 11
21.0389
 21
-13.0549
  0
LINE
  8
0
 10
21.0389
 20
-13.0549
 11
22.1451
 21
-14.1611
  0
LINE
  8
0
 10
22.1451
 20
-14.1611
 11
22.8553
 21
-15.5549
  0
LINE
  8
0
 10
22.8553
 20
-15.5549
 11
23.1
 21
-17.1
  0
LINE
  8
0
 10
23.1
 20
-17.1
 11
22.8553
 21
-18.6451
  0
LINE
  8
0
 10
22.8553
 20
-18.6451
 11
22.1451
 21
-20.0389
  0
LINE
  8
0
 10
22.1451
 20
-20.0389
 11
21.0389
 21
-21.1451
  0
LINE
  8
0
 10
21.0389
 20
-21.1451
 11
19.6451
 21
-21.8553
  0
LINE
  8
0
 10
19.6451
 20
-21.8553
 11
18.1
 21
-22.1
  0
LINE
  8
0
 10
18.1
 20
-22.1
 11
16.5549
 21
-21.8553
  0
LINE
  8
0
 10
266.851
 20
-18.9972
 11
266.266
 21
-18.6989
  0
LINE
  8
0
 10
266.266
 20
-18.6989
 11
265.801
 21
-18.2343
  0
LINE
  8
0
 10
265.801
 20
-18.2343
 11
265.503
 21
-17.6489
  0
LINE
  8
0
 10
265.503
 20
-17.6489
 11
265.4
 21
-17
  0
LINE
  8
0
 10
265.4
 20
-17
 11
265.503
 21
-16.3511
  0
LINE
  8
0
 10
265.503
 20
-16.3511
 11
265.801
 21
-15.7656
  0
LINE
  8
0
 10
265.801
 20
-15.7656
 11
266.266
 21
-15.3011
  0
LINE
  8
0
 10
266.266
 20
-15.3011
 11
266.851
 21
-15.0028
  0
LINE
  8
0
 10
266.851
 20
-15.0028
 11
267.5
 21
-14.9
  0
LINE
  8
0
 10
267.5
 20
-14.9
 11
268.149
 21
-15.0028
  0
LINE
  8
0
 10
268.149
 20
-15.0028
 11
268.734
 21
-15.3011
  0
LINE
  8
0
 10
268.734
 20
-15.3011
 11
269.199
 21
-15.7656
  0
LINE
  8
0
 10
269.199
 20
-15.7656
 11
269.497
 21
-16.3511
  0
LINE
  8
0
 10
269.497
 20
-16.3511
 11
269.6
 21
-17
  0
LINE
  8
0
 10
269.6
 20
-17
 11
269.497
 21
-17.6489
  0
LINE
  8
0
 10
269.497
 20
-17.6489
 11
269.199
 21
-18.2343
  0
LINE
  8
0
 10
269.199
 20
-18.2343
 11
268.734
 21
-18.6989
  0
LINE
  8
0
 10
268.734
 20
-18.6989
 11
268.149
 21
-18.9972
  0
LINE
  8
0
 10
268.149
 20
-18.9972
 11
267.5
 21
-19.1
  0
LINE
  8
0
 10
267.5
 20
-19.1
 11
266.851
 21
-18.9972
  0
LINE
  8
0
 10
116.851
 20
-18.9972
 11
116.266
 21
-18.6989
  0
LINE
  8
0
 10
116.266
 20
-18.6989
 11
115.801
 21
-18.2344
  0
LINE
  8
0
 10
115.801
 20
-18.2344
 11
115.503
 21
-17.6489
  0
LINE
  8
0
 10
115.503
 20
-17.6489
 11
115.4
 21
-17
  0
LINE
  8
0
 10
115.4
 20
-17
 11
115.503
 21
-16.3511
  0
LINE
  8
0
 10
115.503
 20
-16.3511
 11
115.801
 21
-15.7657
  0
LINE
  8
0
 10
115.801
 20
-15.7657
 11
116.266
 21
-15.3011
  0
LINE
  8
0
 10
116.266
 20
-15.3011
 11
116.851
 21
-15.0028
  0
LINE
  8
0
 10
116.851
 20
-15.0028
 11
117.5
 21
-14.9
  0
LINE
  8
0
 10
117.5
 20
-14.9
 11
118.149
 21
-15.0028
  0
LINE
  8
0
 10
118.149
 20
-15.0028
 11
118.734
 21
-15.3011
  0
LINE
  8
0
 10
118.734
 20
-15.3011
 11
119.199
 21
-15.7657
  0
LINE
  8
0
 10
119.199
 20
-15.7657
 11
119.497
 21
-16.3511
  0
LINE
  8
0
 10
119.497
 20
-16.3511
 11
119.6
 21
-17
  0
LINE
  8
0
 10
119.6
 20
-17
 11
119.497
 21
-17.6489
  0
LINE
  8
0
 10
119.497
 20
-17.6489
 11
119.199
 21
-18.2344
  0
LINE
  8
0
 10
119.199
 20
-18.2344
 11
118.734
 21
-18.6989
  0
LINE
  8
0
 10
118.734
 20
-18.6989
 11
118.149
 21
-18.9972
  0
LINE
  8
0
 10
118.149
 20
-18.9972
 11
117.5
 21
-19.1
  0
LINE
  8
0
 10
117.5
 20
-19.1
 11
116.851
 21
-18.9972
  0
LINE
  8
0
 10
36.9412
 20
-25.5665
 11
35.8958
 21
-25.0338
  0
LINE
  8
0
 10
35.8958
 20
-25.0338
 11
35.0662
 21
-24.2042
  0
LINE
  8
0
 10
35.0662
 20
-24.2042
 11
34.5335
 21
-23.1588
  0
LINE
  8
0
 10
34.5335
 20
-23.1588
 11
34.35
 21
-22
  0
LINE
  8
0
 10
34.35
 20
-22
 11
34.5335
 21
-20.8412
  0
LINE
  8
0
 10
34.5335
 20
-20.8412
 11
35.0662
 21
-19.7958
  0
LINE
  8
0
 10
35.0662
 20
-19.7958
 11
35.8958
 21
-18.9662
  0
LINE
  8
0
 10
35.8958
 20
-18.9662
 11
36.9412
 21
-18.4335
  0
LINE
  8
0
 10
36.9412
 20
-18.4335
 11
38.1
 21
-18.25
  0
LINE
  8
0
 10
38.1
 20
-18.25
 11
39.2588
 21
-18.4335
  0
LINE
  8
0
 10
39.2588
 20
-18.4335
 11
40.3042
 21
-18.9662
  0
LINE
  8
0
 10
40.3042
 20
-18.9662
 11
41.1338
 21
-19.7958
  0
LINE
  8
0
 10
41.1338
 20
-19.7958
 11
41.6665
 21
-20.8412
  0
LINE
  8
0
 10
41.6665
 20
-20.8412
 11
41.85
 21
-22
  0
LINE
  8
0
 10
41.85
 20
-22
 11
41.6665
 21
-23.1588
  0
LINE
  8
0
 10
41.6665
 20
-23.1588
 11
41.1338
 21
-24.2042
  0
LINE
  8
0
 10
41.1338
 20
-24.2042
 11
40.3042
 21
-25.0338
  0
LINE
  8
0
 10
40.3042
 20
-25.0338
 11
39.2588
 21
-25.5665
  0
LINE
  8
0
 10
39.2588
 20
-25.5665
 11
38.1
 21
-25.75
  0
LINE
  8
0
 10
38.1
 20
-25.75
 11
36.9412
 21
-25.5665
  0
LINE
  8
0
 10
55.0562
 20
-47.7012
 11
52.3103
 21
-46.3021
  0
LINE
  8
0
 10
52.3103
 20
-46.3021
 11
50.1312
 21
-44.123
  0
LINE
  8
0
 10
50.1312
 20
-44.123
 11
48.7321
 21
-41.3771
  0
LINE
  8
0
 10
48.7321
 20
-41.3771
 11
48.25
 21
-38.3333
  0
LINE
  8
0
 10
48.25
 20
-38.3333
 11
48.7321
 21
-35.2895
  0
LINE
  8
0
 10
48.7321
 20
-35.2895
 11
50.1312
 21
-32.5436
  0
LINE
  8
0
 10
50.1312
 20
-32.5436
 11
52.3103
 21
-30.3645
  0
LINE
  8
0
 10
52.3103
 20
-30.3645
 11
55.0562
 21
-28.9654
  0
LINE
  8
0
 10
55.0562
 20
-28.9654
 11
58.1
 21
-28.4833
  0
LINE
  8
0
 10
58.1
 20
-28.4833
 11
61.1438
 21
-28.9654
  0
LINE
  8
0
 10
61.1438
 20
-28.9654
 11
63.8897
 21
-30.3645
  0
LINE
  8
0
 10
63.8897
 20
-30.3645
 11
66.0688
 21
-32.5436
  0
LINE
  8
0
 10
66.0688
 20
-32.5436
 11
67.4679
 21
-35.2895
  0
LINE
  8
0
 10
67.4679
 20
-35.2895
 11
67.95
 21
-38.3333
  0
LINE
  8
0
 10
67.95
 20
-38.3333
 11
67.4679
 21
-41.3771
  0
LINE
  8
0
 10
67.4679
 20
-41.3771
 11
66.0688
 21
-44.123
  0
LINE
  8
0
 10
66.0688
 20
-44.123
 11
63.8897
 21
-46.3021
  0
LINE
  8
0
 10
63.8897
 20
-46.3021
 11
61.1438
 21
-47.7012
  0
LINE
  8
0
 10
61.1438
 20
-47.7012
 11
58.1
 21
-48.1833
  0
LINE
  8
0
 10
58.1
 20
-48.1833
 11
55.0562
 21
-47.7012
  0
LINE
  8
0
 10
19.48
 20
-59.6
 11
19.48
 21
-56.5
  0
LINE
  8
0
 10
19.48
 20
-56.5
 11
35.86
 21
-56.5
  0
LINE
  8
0
 10
35.86
 20
-56.5
 11
35.86
 21
-59.6
  0
LINE
  8
0
 10
35.86
 20
-59.6
 11
19.48
 21
-59.6
  0
LINE
  8
0
 10
52.24
 20
-59.6
 11
52.24
 21
-56.5
  0
LINE
  8
0
 10
52.24
 20
-56.5
 11
68.62
 21
-56.5
  0
LINE
  8
0
 10
68.62
 20
-56.5
 11
68.62
 21
-59.6
  0
LINE
  8
0
 10
68.62
 20
-59.6
 11
52.24
 21
-59.6
  0
LINE
  8
0
 10
34
 20
-195
 11
51
 21
-195
  0
LINE
  8
0
 10
51
 20
-195
 11
51
 21
-198.1
  0
LINE
  8
0
 10
51
 20
-198.1
 11
68
 21
-198.1
  0
LINE
  8
0
 10
68
 20
-198.1
 11
68
 21
-195
  0
LINE
  8
0
 10
68
 20
-195
 11
85
 21
-195
  0
LINE
  8
0
 10
85
 20
-195
 11
85
 21
-80
  0
LINE
  8
0
 10
85
 20
-80
 11
68
 21
-80
  0
LINE
  8
0
 10
68
 20
-80
 11
68
 21
-76.9
  0
LINE
  8
0
 10
68
 20
-76.9
 11
51
 21
-76.9
  0
LINE
  8
0
 10
51
 20
-76.9
 11
51
 21
-80
  0
LINE
  8
0
 10
51
 20
-80
 11
34
 21
-80
  0
LINE
  8
0
 10
34
 20
-80
 11
34
 21
-76.9
  0
LINE
  8
0
 10
34
 20
-76.9
 11
17
 21
-76.9
  0
LINE
  8
0
 10
17
 20
-76.9
 11
17
 21
-80
  0
LINE
  8
0
 10
17
 20
-80
 11
0
 21
-80
  0
LINE
  8
0
 10
0
 20
-80
 11
0
 21
-103
  0
LINE
  8
0
 10
0
 20
-103
 11
3.09999
 21
-103
  0
LINE
  8
0
 10
3.09999
 20
-103
 11
3.09999
 21
-126
  0
LINE
  8
0
 10
3.09999
 20
-126
 11
0
 21
-126
  0
LINE
  8
0
 10
0
 20
-126
 11
0
 21
-149
  0
LINE
  8
0
 10
0
 20
-149
 11
3.09999
 21
-149
  0
LINE
  8
0
 10
3.09999
 20
-149
 11
3.09999
 21
-172
  0
LINE
  8
0
 10
3.09999
 20
-172
 11
0
 21
-172
  0
LINE
  8
0
 10
0
 20
-172
 11
0
 21
-195
  0
LINE
  8
0
 10
0
 20
-195
 11
17
 21
-195
  0
LINE
  8
0
 10
17
 20
-195
 11
17
 21
-198.1
  0
LINE
  8
0
 10
17
 20
-198.1
 11
34
 21
-198.1
  0
LINE
  8
0
 10
34
 20
-198.1
 11
34
 21
-195
  0
LINE
  8
0
 10
42.532
 20
-100.902
 11
41.9744
 21
-100.618
  0
LINE
  8
0
 10
41.9744
 20
-100.618
 11
41.532
 21
-100.176
  0
LINE
  8
0
 10
41.532
 20
-100.176
 11
41.2479
 21
-99.618
  0
LINE
  8
0
 10
41.2479
 20
-99.618
 11
41.15
 21
-99
  0
LINE
  8
0
 10
41.15
 20
-99
 11
41.2479
 21
-98.382
  0
LINE
  8
0
 10
41.2479
 20
-98.382
 11
41.532
 21
-97.8244
  0
LINE
  8
0
 10
41.532
 20
-97.8244
 11
41.9744
 21
-97.382
  0
LINE
  8
0
 10
41.9744
 20
-97.382
 11
42.532
 21
-97.0979
  0
LINE
  8
0
 10
42.532
 20
-97.0979
 11
43.15
 21
-97
  0
LINE
  8
0
 10
43.15
 20
-97
 11
43.768
 21
-97.0979
  0
LINE
  8
0
 10
43.768
 20
-97.0979
 11
44.3256
 21
-97.382
  0
LINE
  8
0
 10
44.3256
 20
-97.382
 11
44.768
 21
-97.8244
  0
LINE
  8
0
 10
44.768
 20
-97.8244
 11
45.0521
 21
-98.382
  0
LINE
  8
0
 10
45.0521
 20
-98.382
 11
45.15
 21
-99
  0
LINE
  8
0
 10
45.15
 20
-99
 11
45.0521
 21
-99.618
  0
LINE
  8
0
 10
45.0521
 20
-99.618
 11
44.768
 21
-100.176
  0
LINE
  8
0
 10
44.768
 20
-100.176
 11
44.3256
 21
-100.618
  0
LINE
  8
0
 10
44.3256
 20
-100.618
 11
43.768
 21
-100.902
  0
LINE
  8
0
 10
43.768
 20
-100.902
 11
43.15
 21
-101
  0
LINE
  8
0
 10
43.15
 20
-101
 11
42.532
 21
-100.902
  0
LINE
  8
0
 10
71.232
 20
-100.902
 11
70.6744
 21
-100.618
  0
LINE
  8
0
 10
70.6744
 20
-100.618
 11
70.232
 21
-100.176
  0
LINE
  8
0
 10
70.232
 20
-100.176
 11
69.9479
 21
-99.618
  0
LINE
  8
0
 10
69.9479
 20
-99.618
 11
69.85
 21
-99
  0
LINE
  8
0
 10
69.85
 20
-99
 11
69.9479
 21
-98.382
  0
LINE
  8
0
 10
69.9479
 20
-98.382
 11
70.232
 21
-97.8244
  0
LINE
  8
0
 10
70.232
 20
-97.8244
 11
70.6744
 21
-97.382
  0
LINE
  8
0
 10
70.6744
 20
-97.382
 11
71.232
 21
-97.0979
  0
LINE
  8
0
 10
71.232
 20
-97.0979
 11
71.85
 21
-97
  0
LINE
  8
0
 10
71.85
 20
-97
 11
72.468
 21
-97.0979
  0
LINE
  8
0
 10
72.468
 20
-97.0979
 11
73.0256
 21
-97.382
  0
LINE
  8
0
 10
73.0256
 20
-97.382
 11
73.468
 21
-97.8244
  0
LINE
  8
0
 10
73.468
 20
-97.8244
 11
73.7521
 21
-98.382
  0
LINE
  8
0
 10
73.7521
 20
-98.382
 11
73.85
 21
-99
  0
LINE
  8
0
 10
73.85
 20
-99
 11
73.7521
 21
-99.618
  0
LINE
  8
0
 10
73.7521
 20
-99.618
 11
73.468
 21
-100.176
  0
LINE
  8
0
 10
73.468
 20
-100.176
 11
73.0256
 21
-100.618
  0
LINE
  8
0
 10
73.0256
 20
-100.618
 11
72.468
 21
-100.902
  0
LINE
  8
0
 10
72.468
 20
-100.902
 11
71.85
 21
-101
  0
LINE
  8
0
 10
71.85
 20
-101
 11
71.232
 21
-100.902
  0
LINE
  8
0
 10
42.532
 20
-108.902
 11
41.9744
 21
-108.618
  0
LINE
  8
0
 10
41.9744
 20
-108.618
 11
41.532
 21
-108.176
  0
LINE
  8
0
 10
41.532
 20
-108.176
 11
41.2479
 21
-107.618
  0
LINE
  8
0
 10
41.2479
 20
-107.618
 11
41.15
 21
-107
  0
LINE
  8
0
 10
41.15
 20
-107
 11
41.2479
 21
-106.382
  0
LINE
  8
0
 10
41.2479
 20
-106.382
 11
41.532
 21
-105.824
  0
LINE
  8
0
 10
41.532
 20
-105.824
 11
41.9744
 21
-105.382
  0
LINE
  8
0
 10
41.9744
 20
-105.382
 11
42.532
 21
-105.098
  0
LINE
  8
0
 10
42.532
 20
-105.098
 11
43.15
 21
-105
  0
LINE
  8
0
 10
43.15
 20
-105
 11
43.768
 21
-105.098
  0
LINE
  8
0
 10
43.768
 20
-105.098
 11
44.3256
 21
-105.382
  0
LINE
  8
0
 10
44.3256
 20
-105.382
 11
44.768
 21
-105.824
  0
LINE
  8
0
 10
44.768
 20
-105.824
 11
45.0521
 21
-106.382
  0
LINE
  8
0
 10
45.0521
 20
-106.382
 11
45.15
 21
-107
  0
LINE
  8
0
 10
45.15
 20
-107
 11
45.0521
 21
-107.618
  0
LINE
  8
0
 10
45.0521
 20
-107.618
 11
44.768
 21
-108.176
  0
LINE
  8
0
 10
44.768
 20
-108.176
 11
44.3256
 21
-108.618
  0
LINE
  8
0
 10
44.3256
 20
-108.618
 11
43.768
 21
-108.902
  0
LINE
  8
0
 10
43.768
 20
-108.902
 11
43.15
 21
-109
  0
LINE
  8
0
 10
43.15
 20
-109
 11
42.532
 21
-108.902
  0
LINE
  8
0
 10
71.232
 20
-108.902
 11
70.6744
 21
-108.618
  0
LINE
  8
0
 10
70.6744
 20
-108.618
 11
70.232
 21
-108.176
  0
LINE
  8
0
 10
70.232
 20
-108.176
 11
69.9479
 21
-107.618
  0
LINE
  8
0
 10
69.9479
 20
-107.618
 11
69.85
 21
-107
  0
LINE
  8
0
 10
69.85
 20
-107
 11
69.9479
 21
-106.382
  0
LINE
  8
0
 10
69.9479
 20
-106.382
 11
70.232
 21
-105.824
  0
LINE
  8
0
 10
70.232
 20
-105.824
 11
70.6744
 21
-105.382
  0
LINE
  8
0
 10
70.6744
 20
-105.382
 11
71.232
 21
-105.098
  0
LINE
  8
0
 10
71.232
 20
-105.098
 11
71.85
 21
-105
  0
LINE
  8
0
 10
71.85
 20
-105
 11
72.468
 21
-105.098
  0
LINE
  8
0
 10
72.468
 20
-105.098
 11
73.0256
 21
-105.382
  0
LINE
  8
0
 10
73.0256
 20
-105.382
 11
73.468
 21
-105.824
  0
LINE
  8
0
 10
73.468
 20
-105.824
 11
73.7521
 21
-106.382
  0
LINE
  8
0
 10
73.7521
 20
-106.382
 11
73.85
 21
-107
  0
LINE
  8
0
 10
73.85
 20
-107
 11
73.7521
 21
-107.618
  0
LINE
  8
0
 10
73.7521
 20
-107.618
 11
73.468
 21
-108.176
  0
LINE
  8
0
 10
73.468
 20
-108.176
 11
73.0256
 21
-108.618
  0
LINE
  8
0
 10
73.0256
 20
-108.618
 11
72.468
 21
-108.902
  0
LINE
  8
0
 10
72.468
 20
-108.902
 11
71.85
 21
-109
  0
LINE
  8
0
 10
71.85
 20
-109
 11
71.232
 21
-108.902
  0
LINE
  8
0
 10
53.7918
 20
-160.413
 11
50.4466
 21
-158.708
  0
LINE
  8
0
 10
50.4466
 20
-158.708
 11
47.7918
 21
-156.053
  0
LINE
  8
0
 10
47.7918
 20
-156.053
 11
46.0873
 21
-152.708
  0
LINE
  8
0
 10
46.0873
 20
-152.708
 11
45.5
 21
-149
  0
LINE
  8
0
 10
45.5
 20
-149
 11
46.0873
 21
-145.292
  0
LINE
  8
0
 10
46.0873
 20
-145.292
 11
47.7918
 21
-141.947
  0
LINE
  8
0
 10
47.7918
 20
-141.947
 11
50.4466
 21
-139.292
  0
LINE
  8
0
 10
50.4466
 20
-139.292
 11
53.7918
 21
-137.587
  0
LINE
  8
0
 10
53.7918
 20
-137.587
 11
57.5
 21
-137
  0
LINE
  8
0
 10
57.5
 20
-137
 11
61.2082
 21
-137.587
  0
LINE
  8
0
 10
61.2082
 20
-137.587
 11
64.5534
 21
-139.292
  0
LINE
  8
0
 10
64.5534
 20
-139.292
 11
67.2082
 21
-141.947
  0
LINE
  8
0
 10
67.2082
 20
-141.947
 11
68.9127
 21
-145.292
  0
LINE
  8
0
 10
68.9127
 20
-145.292
 11
69.5
 21
-149
  0
LINE
  8
0
 10
69.5
 20
-149
 11
68.9127
 21
-152.708
  0
LINE
  8
0
 10
68.9127
 20
-152.708
 11
67.2082
 21
-156.053
  0
LINE
  8
0
 10
67.2082
 20
-156.053
 11
64.5534
 21
-158.708
  0
LINE
  8
0
 10
64.5534
 20
-158.708
 11
61.2082
 21
-160.413
  0
LINE
  8
0
 10
61.2082
 20
-160.413
 11
57.5
 21
-161
  0
LINE
  8
0
 10
57.5
 20
-161
 11
53.7918
 21
-160.413
  0
ENDSEC
  0
SECTION
  2
OBJECTS
  0
DICTIONARY
  0
ENDSEC
  0
EOF
