  0
SECTION
  2
BLOCKS
  0
ENDSEC
  0
SECTION
  2
ENTITIES
  0
LINE
  8
0
 10
-13.732
 20
2.09789
 11
-13.1744
 21
2.38196
  0
LINE
  8
0
 10
-13.1744
 20
2.38196
 11
-12.732
 21
2.82442
  0
LINE
  8
0
 10
-12.732
 20
2.82442
 11
-12.4479
 21
3.38196
  0
LINE
  8
0
 10
-12.4479
 20
3.38196
 11
-12.35
 21
4
  0
LINE
  8
0
 10
-12.35
 20
4
 11
-12.4479
 21
4.61803
  0
LINE
  8
0
 10
-12.4479
 20
4.61803
 11
-12.732
 21
5.17557
  0
LINE
  8
0
 10
-12.732
 20
5.17557
 11
-13.1744
 21
5.61803
  0
LINE
  8
0
 10
-13.1744
 20
5.61803
 11
-13.732
 21
5.9021
  0
LINE
  8
0
 10
-13.732
 20
5.9021
 11
-14.35
 21
6
  0
LINE
  8
0
 10
-14.35
 20
6
 11
-14.968
 21
5.9021
  0
LINE
  8
0
 10
-14.968
 20
5.9021
 11
-15.5256
 21
5.61803
  0
LINE
  8
0
 10
-15.5256
 20
5.61803
 11
-15.968
 21
5.17557
  0
LINE
  8
0
 10
-15.968
 20
5.17557
 11
-16.2521
 21
4.61803
  0
LINE
  8
0
 10
-16.2521
 20
4.61803
 11
-16.35
 21
4
  0
LINE
  8
0
 10
-16.35
 20
4
 11
-16.2521
 21
3.38196
  0
LINE
  8
0
 10
-16.2521
 20
3.38196
 11
-15.968
 21
2.82442
  0
LINE
  8
0
 10
-15.968
 20
2.82442
 11
-15.5256
 21
2.38196
  0
LINE
  8
0
 10
-15.5256
 20
2.38196
 11
-14.968
 21
2.09789
  0
LINE
  8
0
 10
-14.968
 20
2.09789
 11
-14.35
 21
2
  0
LINE
  8
0
 10
-14.35
 20
2
 11
-13.732
 21
2.09789
  0
LINE
  8
0
 10
14.968
 20
2.09789
 11
15.5256
 21
2.38196
  0
LINE
  8
0
 10
15.5256
 20
2.38196
 11
15.968
 21
2.82442
  0
LINE
  8
0
 10
15.968
 20
2.82442
 11
16.2521
 21
3.38196
  0
LINE
  8
0
 10
16.2521
 20
3.38196
 11
16.35
 21
4
  0
LINE
  8
0
 10
16.35
 20
4
 11
16.2521
 21
4.61803
  0
LINE
  8
0
 10
16.2521
 20
4.61803
 11
15.968
 21
5.17557
  0
LINE
  8
0
 10
15.968
 20
5.17557
 11
15.5256
 21
5.61803
  0
LINE
  8
0
 10
15.5256
 20
5.61803
 11
14.968
 21
5.9021
  0
LINE
  8
0
 10
14.968
 20
5.9021
 11
14.35
 21
6
  0
LINE
  8
0
 10
14.35
 20
6
 11
13.732
 21
5.9021
  0
LINE
  8
0
 10
13.732
 20
5.9021
 11
13.1744
 21
5.61803
  0
LINE
  8
0
 10
13.1744
 20
5.61803
 11
12.732
 21
5.17557
  0
LINE
  8
0
 10
12.732
 20
5.17557
 11
12.4479
 21
4.61803
  0
LINE
  8
0
 10
12.4479
 20
4.61803
 11
12.35
 21
4
  0
LINE
  8
0
 10
12.35
 20
4
 11
12.4479
 21
3.38196
  0
LINE
  8
0
 10
12.4479
 20
3.38196
 11
12.732
 21
2.82442
  0
LINE
  8
0
 10
12.732
 20
2.82442
 11
13.1744
 21
2.38196
  0
LINE
  8
0
 10
13.1744
 20
2.38196
 11
13.732
 21
2.09789
  0
LINE
  8
0
 10
13.732
 20
2.09789
 11
14.35
 21
2
  0
LINE
  8
0
 10
14.35
 20
2
 11
14.968
 21
2.09789
  0
LINE
  8
0
 10
-13.732
 20
-5.9021
 11
-13.1744
 21
-5.61803
  0
LINE
  8
0
 10
-13.1744
 20
-5.61803
 11
-12.732
 21
-5.17557
  0
LINE
  8
0
 10
-12.732
 20
-5.17557
 11
-12.4479
 21
-4.61803
  0
LINE
  8
0
 10
-12.4479
 20
-4.61803
 11
-12.35
 21
-4
  0
LINE
  8
0
 10
-12.35
 20
-4
 11
-12.4479
 21
-3.38196
  0
LINE
  8
0
 10
-12.4479
 20
-3.38196
 11
-12.732
 21
-2.82442
  0
LINE
  8
0
 10
-12.732
 20
-2.82442
 11
-13.1744
 21
-2.38196
  0
LINE
  8
0
 10
-13.1744
 20
-2.38196
 11
-13.732
 21
-2.09789
  0
LINE
  8
0
 10
-13.732
 20
-2.09789
 11
-14.35
 21
-2
  0
LINE
  8
0
 10
-14.35
 20
-2
 11
-14.968
 21
-2.09789
  0
LINE
  8
0
 10
-14.968
 20
-2.09789
 11
-15.5256
 21
-2.38196
  0
LINE
  8
0
 10
-15.5256
 20
-2.38196
 11
-15.968
 21
-2.82442
  0
LINE
  8
0
 10
-15.968
 20
-2.82442
 11
-16.2521
 21
-3.38196
  0
LINE
  8
0
 10
-16.2521
 20
-3.38196
 11
-16.35
 21
-3.99998
  0
LINE
  8
0
 10
-16.35
 20
-3.99998
 11
-16.2521
 21
-4.61803
  0
LINE
  8
0
 10
-16.2521
 20
-4.61803
 11
-15.968
 21
-5.17557
  0
LINE
  8
0
 10
-15.968
 20
-5.17557
 11
-15.5256
 21
-5.61803
  0
LINE
  8
0
 10
-15.5256
 20
-5.61803
 11
-14.968
 21
-5.9021
  0
LINE
  8
0
 10
-14.968
 20
-5.9021
 11
-14.35
 21
-6
  0
LINE
  8
0
 10
-14.35
 20
-6
 11
-13.732
 21
-5.9021
  0
LINE
  8
0
 10
14.968
 20
-5.9021
 11
15.5256
 21
-5.61803
  0
LINE
  8
0
 10
15.5256
 20
-5.61803
 11
15.968
 21
-5.17557
  0
LINE
  8
0
 10
15.968
 20
-5.17557
 11
16.2521
 21
-4.61803
  0
LINE
  8
0
 10
16.2521
 20
-4.61803
 11
16.35
 21
-4
  0
LINE
  8
0
 10
16.35
 20
-4
 11
16.2521
 21
-3.38196
  0
LINE
  8
0
 10
16.2521
 20
-3.38196
 11
15.968
 21
-2.82442
  0
LINE
  8
0
 10
15.968
 20
-2.82442
 11
15.5256
 21
-2.38196
  0
LINE
  8
0
 10
15.5256
 20
-2.38196
 11
14.968
 21
-2.09789
  0
LINE
  8
0
 10
14.968
 20
-2.09789
 11
14.35
 21
-2
  0
LINE
  8
0
 10
14.35
 20
-2
 11
13.732
 21
-2.09789
  0
LINE
  8
0
 10
13.732
 20
-2.09789
 11
13.1744
 21
-2.38196
  0
LINE
  8
0
 10
13.1744
 20
-2.38196
 11
12.732
 21
-2.82442
  0
LINE
  8
0
 10
12.732
 20
-2.82442
 11
12.4479
 21
-3.38196
  0
LINE
  8
0
 10
12.4479
 20
-3.38196
 11
12.35
 21
-3.99998
  0
LINE
  8
0
 10
12.35
 20
-3.99998
 11
12.4479
 21
-4.61803
  0
LINE
  8
0
 10
12.4479
 20
-4.61803
 11
12.732
 21
-5.17557
  0
LINE
  8
0
 10
12.732
 20
-5.17557
 11
13.1744
 21
-5.61803
  0
LINE
  8
0
 10
13.1744
 20
-5.61803
 11
13.732
 21
-5.9021
  0
LINE
  8
0
 10
13.732
 20
-5.9021
 11
14.35
 21
-6
  0
LINE
  8
0
 10
14.35
 20
-6
 11
14.968
 21
-5.9021
  0
ENDSEC
  0
SECTION
  2
OBJECTS
  0
DICTIONARY
  0
ENDSEC
  0
EOF
