  0
SECTION
  2
BLOCKS
  0
ENDSEC
  0
SECTION
  2
ENTITIES
  0
LINE
  8
0
 10
240
 20
200
 11
0
 21
200
  0
LINE
  8
0
 10
0
 20
200
 11
0
 21
0
  0
LINE
  8
0
 10
0
 20
0
 11
240
 21
0
  0
LINE
  8
0
 10
240
 20
0
 11
240
 21
200
  0
LINE
  8
0
 10
17.5898
 20
19.3054
 11
15.9363
 21
20.3857
  0
LINE
  8
0
 10
15.9363
 20
20.3857
 11
14.7232
 21
21.9443
  0
LINE
  8
0
 10
14.7232
 20
21.9443
 11
14.0818
 21
23.8124
  0
LINE
  8
0
 10
14.0818
 20
23.8124
 11
14.0818
 21
25.7876
  0
LINE
  8
0
 10
14.0818
 20
25.7876
 11
14.7232
 21
27.6557
  0
LINE
  8
0
 10
14.7232
 20
27.6557
 11
15.9363
 21
29.2144
  0
LINE
  8
0
 10
15.9363
 20
29.2144
 11
17.1388
 21
30
  0
LINE
  8
0
 10
17.1388
 20
30
 11
17
 21
30
  0
LINE
  8
0
 10
17
 20
30
 11
17
 21
42.3907
  0
LINE
  8
0
 10
17
 20
42.3907
 11
15.9363
 21
43.0856
  0
LINE
  8
0
 10
15.9363
 20
43.0856
 11
14.7232
 21
44.6443
  0
LINE
  8
0
 10
14.7232
 20
44.6443
 11
14.0818
 21
46.5124
  0
LINE
  8
0
 10
14.0818
 20
46.5124
 11
14.0818
 21
48.4876
  0
LINE
  8
0
 10
14.0818
 20
48.4876
 11
14.7232
 21
50.3557
  0
LINE
  8
0
 10
14.7232
 20
50.3557
 11
15.9363
 21
51.9143
  0
LINE
  8
0
 10
15.9363
 20
51.9143
 11
17
 21
52.6093
  0
LINE
  8
0
 10
17
 20
52.6093
 11
17
 21
94.8907
  0
LINE
  8
0
 10
17
 20
94.8907
 11
15.9363
 21
95.5856
  0
LINE
  8
0
 10
15.9363
 20
95.5856
 11
14.7232
 21
97.1443
  0
LINE
  8
0
 10
14.7232
 20
97.1443
 11
14.0818
 21
99.0124
  0
LINE
  8
0
 10
14.0818
 20
99.0124
 11
14.0818
 21
100.988
  0
LINE
  8
0
 10
14.0818
 20
100.988
 11
14.7232
 21
102.856
  0
LINE
  8
0
 10
14.7232
 20
102.856
 11
15.9363
 21
104.414
  0
LINE
  8
0
 10
15.9363
 20
104.414
 11
17
 21
105.109
  0
LINE
  8
0
 10
17
 20
105.109
 11
17
 21
147.391
  0
LINE
  8
0
 10
17
 20
147.391
 11
15.9363
 21
148.086
  0
LINE
  8
0
 10
15.9363
 20
148.086
 11
14.7232
 21
149.644
  0
LINE
  8
0
 10
14.7232
 20
149.644
 11
14.0818
 21
151.512
  0
LINE
  8
0
 10
14.0818
 20
151.512
 11
14.0818
 21
153.488
  0
LINE
  8
0
 10
14.0818
 20
153.488
 11
14.7232
 21
155.356
  0
LINE
  8
0
 10
14.7232
 20
155.356
 11
15.9363
 21
156.914
  0
LINE
  8
0
 10
15.9363
 20
156.914
 11
17
 21
157.609
  0
LINE
  8
0
 10
17
 20
157.609
 11
17
 21
170
  0
LINE
  8
0
 10
17
 20
170
 11
17.1388
 21
170
  0
LINE
  8
0
 10
17.1388
 20
170
 11
15.9363
 21
170.786
  0
LINE
  8
0
 10
15.9363
 20
170.786
 11
14.7232
 21
172.344
  0
LINE
  8
0
 10
14.7232
 20
172.344
 11
14.0818
 21
174.212
  0
LINE
  8
0
 10
14.0818
 20
174.212
 11
14.0818
 21
176.188
  0
LINE
  8
0
 10
14.0818
 20
176.188
 11
14.7232
 21
178.056
  0
LINE
  8
0
 10
14.7232
 20
178.056
 11
15.9363
 21
179.614
  0
LINE
  8
0
 10
15.9363
 20
179.614
 11
17.5898
 21
180.695
  0
LINE
  8
0
 10
17.5898
 20
180.695
 11
19.5045
 21
181.18
  0
LINE
  8
0
 10
19.5045
 20
181.18
 11
21.4729
 21
181.016
  0
LINE
  8
0
 10
21.4729
 20
181.016
 11
23.2817
 21
180.223
  0
LINE
  8
0
 10
23.2817
 20
180.223
 11
24.7348
 21
178.885
  0
LINE
  8
0
 10
24.7348
 20
178.885
 11
25.6749
 21
177.148
  0
LINE
  8
0
 10
25.6749
 20
177.148
 11
26
 21
175.2
  0
LINE
  8
0
 10
26
 20
175.2
 11
25.6749
 21
173.252
  0
LINE
  8
0
 10
25.6749
 20
173.252
 11
24.7348
 21
171.515
  0
LINE
  8
0
 10
24.7348
 20
171.515
 11
23.2817
 21
170.177
  0
LINE
  8
0
 10
23.2817
 20
170.177
 11
22.8782
 21
170
  0
LINE
  8
0
 10
22.8782
 20
170
 11
23
 21
170
  0
LINE
  8
0
 10
23
 20
170
 11
23
 21
157.647
  0
LINE
  8
0
 10
23
 20
157.647
 11
23.2817
 21
157.523
  0
LINE
  8
0
 10
23.2817
 20
157.523
 11
24.7348
 21
156.185
  0
LINE
  8
0
 10
24.7348
 20
156.185
 11
25.6749
 21
154.448
  0
LINE
  8
0
 10
25.6749
 20
154.448
 11
26
 21
152.5
  0
LINE
  8
0
 10
26
 20
152.5
 11
25.6749
 21
150.552
  0
LINE
  8
0
 10
25.6749
 20
150.552
 11
24.7348
 21
148.815
  0
LINE
  8
0
 10
24.7348
 20
148.815
 11
23.2817
 21
147.477
  0
LINE
  8
0
 10
23.2817
 20
147.477
 11
23
 21
147.353
  0
LINE
  8
0
 10
23
 20
147.353
 11
23
 21
105.147
  0
LINE
  8
0
 10
23
 20
105.147
 11
23.2817
 21
105.023
  0
LINE
  8
0
 10
23.2817
 20
105.023
 11
24.7348
 21
103.685
  0
LINE
  8
0
 10
24.7348
 20
103.685
 11
25.6749
 21
101.948
  0
LINE
  8
0
 10
25.6749
 20
101.948
 11
26
 21
100
  0
LINE
  8
0
 10
26
 20
100
 11
25.6749
 21
98.0518
  0
LINE
  8
0
 10
25.6749
 20
98.0518
 11
24.7348
 21
96.3147
  0
LINE
  8
0
 10
24.7348
 20
96.3147
 11
23.2817
 21
94.977
  0
LINE
  8
0
 10
23.2817
 20
94.977
 11
23
 21
94.8534
  0
LINE
  8
0
 10
23
 20
94.8534
 11
23
 21
52.6465
  0
LINE
  8
0
 10
23
 20
52.6465
 11
23.2817
 21
52.523
  0
LINE
  8
0
 10
23.2817
 20
52.523
 11
24.7348
 21
51.1853
  0
LINE
  8
0
 10
24.7348
 20
51.1853
 11
25.6749
 21
49.4482
  0
LINE
  8
0
 10
25.6749
 20
49.4482
 11
26
 21
47.5
  0
LINE
  8
0
 10
26
 20
47.5
 11
25.6749
 21
45.5518
  0
LINE
  8
0
 10
25.6749
 20
45.5518
 11
24.7348
 21
43.8147
  0
LINE
  8
0
 10
24.7348
 20
43.8147
 11
23.2817
 21
42.477
  0
LINE
  8
0
 10
23.2817
 20
42.477
 11
23
 21
42.3534
  0
LINE
  8
0
 10
23
 20
42.3534
 11
23
 21
30
  0
LINE
  8
0
 10
23
 20
30
 11
22.8782
 21
30
  0
LINE
  8
0
 10
22.8782
 20
30
 11
23.2817
 21
29.823
  0
LINE
  8
0
 10
23.2817
 20
29.823
 11
24.7348
 21
28.4853
  0
LINE
  8
0
 10
24.7348
 20
28.4853
 11
25.6749
 21
26.7482
  0
LINE
  8
0
 10
25.6749
 20
26.7482
 11
26
 21
24.8
  0
LINE
  8
0
 10
26
 20
24.8
 11
25.6749
 21
22.8518
  0
LINE
  8
0
 10
25.6749
 20
22.8518
 11
24.7348
 21
21.1147
  0
LINE
  8
0
 10
24.7348
 20
21.1147
 11
23.2817
 21
19.777
  0
LINE
  8
0
 10
23.2817
 20
19.777
 11
21.4729
 21
18.9836
  0
LINE
  8
0
 10
21.4729
 20
18.9836
 11
19.5045
 21
18.8205
  0
LINE
  8
0
 10
19.5045
 20
18.8205
 11
17.5898
 21
19.3054
  0
LINE
  8
0
 10
217.59
 20
19.3054
 11
215.936
 21
20.3857
  0
LINE
  8
0
 10
215.936
 20
20.3857
 11
214.723
 21
21.9443
  0
LINE
  8
0
 10
214.723
 20
21.9443
 11
214.082
 21
23.8124
  0
LINE
  8
0
 10
214.082
 20
23.8124
 11
214.082
 21
25.7876
  0
LINE
  8
0
 10
214.082
 20
25.7876
 11
214.723
 21
27.6557
  0
LINE
  8
0
 10
214.723
 20
27.6557
 11
215.936
 21
29.2144
  0
LINE
  8
0
 10
215.936
 20
29.2144
 11
217.139
 21
30
  0
LINE
  8
0
 10
217.139
 20
30
 11
217
 21
30
  0
LINE
  8
0
 10
217
 20
30
 11
217
 21
42.3907
  0
LINE
  8
0
 10
217
 20
42.3907
 11
215.936
 21
43.0856
  0
LINE
  8
0
 10
215.936
 20
43.0856
 11
214.723
 21
44.6443
  0
LINE
  8
0
 10
214.723
 20
44.6443
 11
214.082
 21
46.5124
  0
LINE
  8
0
 10
214.082
 20
46.5124
 11
214.082
 21
48.4876
  0
LINE
  8
0
 10
214.082
 20
48.4876
 11
214.723
 21
50.3557
  0
LINE
  8
0
 10
214.723
 20
50.3557
 11
215.936
 21
51.9143
  0
LINE
  8
0
 10
215.936
 20
51.9143
 11
217
 21
52.6093
  0
LINE
  8
0
 10
217
 20
52.6093
 11
217
 21
94.8907
  0
LINE
  8
0
 10
217
 20
94.8907
 11
215.936
 21
95.5856
  0
LINE
  8
0
 10
215.936
 20
95.5856
 11
214.723
 21
97.1443
  0
LINE
  8
0
 10
214.723
 20
97.1443
 11
214.082
 21
99.0124
  0
LINE
  8
0
 10
214.082
 20
99.0124
 11
214.082
 21
100.988
  0
LINE
  8
0
 10
214.082
 20
100.988
 11
214.723
 21
102.856
  0
LINE
  8
0
 10
214.723
 20
102.856
 11
215.936
 21
104.414
  0
LINE
  8
0
 10
215.936
 20
104.414
 11
217
 21
105.109
  0
LINE
  8
0
 10
217
 20
105.109
 11
217
 21
147.391
  0
LINE
  8
0
 10
217
 20
147.391
 11
215.936
 21
148.086
  0
LINE
  8
0
 10
215.936
 20
148.086
 11
214.723
 21
149.644
  0
LINE
  8
0
 10
214.723
 20
149.644
 11
214.082
 21
151.512
  0
LINE
  8
0
 10
214.082
 20
151.512
 11
214.082
 21
153.488
  0
LINE
  8
0
 10
214.082
 20
153.488
 11
214.723
 21
155.356
  0
LINE
  8
0
 10
214.723
 20
155.356
 11
215.936
 21
156.914
  0
LINE
  8
0
 10
215.936
 20
156.914
 11
217
 21
157.609
  0
LINE
  8
0
 10
217
 20
157.609
 11
217
 21
170
  0
LINE
  8
0
 10
217
 20
170
 11
217.139
 21
170
  0
LINE
  8
0
 10
217.139
 20
170
 11
215.936
 21
170.786
  0
LINE
  8
0
 10
215.936
 20
170.786
 11
214.723
 21
172.344
  0
LINE
  8
0
 10
214.723
 20
172.344
 11
214.082
 21
174.212
  0
LINE
  8
0
 10
214.082
 20
174.212
 11
214.082
 21
176.188
  0
LINE
  8
0
 10
214.082
 20
176.188
 11
214.723
 21
178.056
  0
LINE
  8
0
 10
214.723
 20
178.056
 11
215.936
 21
179.614
  0
LINE
  8
0
 10
215.936
 20
179.614
 11
217.59
 21
180.695
  0
LINE
  8
0
 10
217.59
 20
180.695
 11
219.505
 21
181.18
  0
LINE
  8
0
 10
219.505
 20
181.18
 11
221.473
 21
181.016
  0
LINE
  8
0
 10
221.473
 20
181.016
 11
223.282
 21
180.223
  0
LINE
  8
0
 10
223.282
 20
180.223
 11
224.735
 21
178.885
  0
LINE
  8
0
 10
224.735
 20
178.885
 11
225.675
 21
177.148
  0
LINE
  8
0
 10
225.675
 20
177.148
 11
226
 21
175.2
  0
LINE
  8
0
 10
226
 20
175.2
 11
225.675
 21
173.252
  0
LINE
  8
0
 10
225.675
 20
173.252
 11
224.735
 21
171.515
  0
LINE
  8
0
 10
224.735
 20
171.515
 11
223.282
 21
170.177
  0
LINE
  8
0
 10
223.282
 20
170.177
 11
222.878
 21
170
  0
LINE
  8
0
 10
222.878
 20
170
 11
223
 21
170
  0
LINE
  8
0
 10
223
 20
170
 11
223
 21
157.647
  0
LINE
  8
0
 10
223
 20
157.647
 11
223.282
 21
157.523
  0
LINE
  8
0
 10
223.282
 20
157.523
 11
224.735
 21
156.185
  0
LINE
  8
0
 10
224.735
 20
156.185
 11
225.675
 21
154.448
  0
LINE
  8
0
 10
225.675
 20
154.448
 11
226
 21
152.5
  0
LINE
  8
0
 10
226
 20
152.5
 11
225.675
 21
150.552
  0
LINE
  8
0
 10
225.675
 20
150.552
 11
224.735
 21
148.815
  0
LINE
  8
0
 10
224.735
 20
148.815
 11
223.282
 21
147.477
  0
LINE
  8
0
 10
223.282
 20
147.477
 11
223
 21
147.353
  0
LINE
  8
0
 10
223
 20
147.353
 11
223
 21
105.147
  0
LINE
  8
0
 10
223
 20
105.147
 11
223.282
 21
105.023
  0
LINE
  8
0
 10
223.282
 20
105.023
 11
224.735
 21
103.685
  0
LINE
  8
0
 10
224.735
 20
103.685
 11
225.675
 21
101.948
  0
LINE
  8
0
 10
225.675
 20
101.948
 11
226
 21
100
  0
LINE
  8
0
 10
226
 20
100
 11
225.675
 21
98.0518
  0
LINE
  8
0
 10
225.675
 20
98.0518
 11
224.735
 21
96.3147
  0
LINE
  8
0
 10
224.735
 20
96.3147
 11
223.282
 21
94.977
  0
LINE
  8
0
 10
223.282
 20
94.977
 11
223
 21
94.8534
  0
LINE
  8
0
 10
223
 20
94.8534
 11
223
 21
52.6465
  0
LINE
  8
0
 10
223
 20
52.6465
 11
223.282
 21
52.523
  0
LINE
  8
0
 10
223.282
 20
52.523
 11
224.735
 21
51.1853
  0
LINE
  8
0
 10
224.735
 20
51.1853
 11
225.675
 21
49.4482
  0
LINE
  8
0
 10
225.675
 20
49.4482
 11
226
 21
47.5
  0
LINE
  8
0
 10
226
 20
47.5
 11
225.675
 21
45.5518
  0
LINE
  8
0
 10
225.675
 20
45.5518
 11
224.735
 21
43.8147
  0
LINE
  8
0
 10
224.735
 20
43.8147
 11
223.282
 21
42.477
  0
LINE
  8
0
 10
223.282
 20
42.477
 11
223
 21
42.3534
  0
LINE
  8
0
 10
223
 20
42.3534
 11
223
 21
30
  0
LINE
  8
0
 10
223
 20
30
 11
222.878
 21
30
  0
LINE
  8
0
 10
222.878
 20
30
 11
223.282
 21
29.823
  0
LINE
  8
0
 10
223.282
 20
29.823
 11
224.735
 21
28.4853
  0
LINE
  8
0
 10
224.735
 20
28.4853
 11
225.675
 21
26.7482
  0
LINE
  8
0
 10
225.675
 20
26.7482
 11
226
 21
24.8
  0
LINE
  8
0
 10
226
 20
24.8
 11
225.675
 21
22.8518
  0
LINE
  8
0
 10
225.675
 20
22.8518
 11
224.735
 21
21.1147
  0
LINE
  8
0
 10
224.735
 20
21.1147
 11
223.282
 21
19.777
  0
LINE
  8
0
 10
223.282
 20
19.777
 11
221.473
 21
18.9836
  0
LINE
  8
0
 10
221.473
 20
18.9836
 11
219.505
 21
18.8205
  0
LINE
  8
0
 10
219.505
 20
18.8205
 11
217.59
 21
19.3054
  0
LINE
  8
0
 10
167.59
 20
19.3054
 11
165.936
 21
20.3857
  0
LINE
  8
0
 10
165.936
 20
20.3857
 11
164.723
 21
21.9443
  0
LINE
  8
0
 10
164.723
 20
21.9443
 11
164.082
 21
23.8124
  0
LINE
  8
0
 10
164.082
 20
23.8124
 11
164.082
 21
25.7876
  0
LINE
  8
0
 10
164.082
 20
25.7876
 11
164.723
 21
27.6557
  0
LINE
  8
0
 10
164.723
 20
27.6557
 11
165.936
 21
29.2144
  0
LINE
  8
0
 10
165.936
 20
29.2144
 11
167.139
 21
30
  0
LINE
  8
0
 10
167.139
 20
30
 11
167
 21
30
  0
LINE
  8
0
 10
167
 20
30
 11
167
 21
36.5574
  0
LINE
  8
0
 10
167
 20
36.5574
 11
165.936
 21
37.2523
  0
LINE
  8
0
 10
165.936
 20
37.2523
 11
164.723
 21
38.811
  0
LINE
  8
0
 10
164.723
 20
38.811
 11
164.082
 21
40.6791
  0
LINE
  8
0
 10
164.082
 20
40.6791
 11
164.082
 21
42.6542
  0
LINE
  8
0
 10
164.082
 20
42.6542
 11
164.723
 21
44.5223
  0
LINE
  8
0
 10
164.723
 20
44.5223
 11
165.936
 21
46.081
  0
LINE
  8
0
 10
165.936
 20
46.081
 11
167
 21
46.776
  0
LINE
  8
0
 10
167
 20
46.776
 11
167
 21
59.8907
  0
LINE
  8
0
 10
167
 20
59.8907
 11
165.936
 21
60.5856
  0
LINE
  8
0
 10
165.936
 20
60.5856
 11
164.723
 21
62.1443
  0
LINE
  8
0
 10
164.723
 20
62.1443
 11
164.082
 21
64.0124
  0
LINE
  8
0
 10
164.082
 20
64.0124
 11
164.082
 21
65.9876
  0
LINE
  8
0
 10
164.082
 20
65.9876
 11
164.723
 21
67.8557
  0
LINE
  8
0
 10
164.723
 20
67.8557
 11
165.936
 21
69.4143
  0
LINE
  8
0
 10
165.936
 20
69.4143
 11
167
 21
70.1093
  0
LINE
  8
0
 10
167
 20
70.1093
 11
167
 21
129.891
  0
LINE
  8
0
 10
167
 20
129.891
 11
165.936
 21
130.586
  0
LINE
  8
0
 10
165.936
 20
130.586
 11
164.723
 21
132.144
  0
LINE
  8
0
 10
164.723
 20
132.144
 11
164.082
 21
134.012
  0
LINE
  8
0
 10
164.082
 20
134.012
 11
164.082
 21
135.988
  0
LINE
  8
0
 10
164.082
 20
135.988
 11
164.723
 21
137.856
  0
LINE
  8
0
 10
164.723
 20
137.856
 11
165.936
 21
139.414
  0
LINE
  8
0
 10
165.936
 20
139.414
 11
167
 21
140.109
  0
LINE
  8
0
 10
167
 20
140.109
 11
167
 21
153.224
  0
LINE
  8
0
 10
167
 20
153.224
 11
165.936
 21
153.919
  0
LINE
  8
0
 10
165.936
 20
153.919
 11
164.723
 21
155.478
  0
LINE
  8
0
 10
164.723
 20
155.478
 11
164.082
 21
157.346
  0
LINE
  8
0
 10
164.082
 20
157.346
 11
164.082
 21
159.321
  0
LINE
  8
0
 10
164.082
 20
159.321
 11
164.723
 21
161.189
  0
LINE
  8
0
 10
164.723
 20
161.189
 11
165.936
 21
162.748
  0
LINE
  8
0
 10
165.936
 20
162.748
 11
167
 21
163.443
  0
LINE
  8
0
 10
167
 20
163.443
 11
167
 21
170
  0
LINE
  8
0
 10
167
 20
170
 11
167.139
 21
170
  0
LINE
  8
0
 10
167.139
 20
170
 11
165.936
 21
170.786
  0
LINE
  8
0
 10
165.936
 20
170.786
 11
164.723
 21
172.344
  0
LINE
  8
0
 10
164.723
 20
172.344
 11
164.082
 21
174.212
  0
LINE
  8
0
 10
164.082
 20
174.212
 11
164.082
 21
176.188
  0
LINE
  8
0
 10
164.082
 20
176.188
 11
164.723
 21
178.056
  0
LINE
  8
0
 10
164.723
 20
178.056
 11
165.936
 21
179.614
  0
LINE
  8
0
 10
165.936
 20
179.614
 11
167.59
 21
180.695
  0
LINE
  8
0
 10
167.59
 20
180.695
 11
169.505
 21
181.18
  0
LINE
  8
0
 10
169.505
 20
181.18
 11
171.473
 21
181.016
  0
LINE
  8
0
 10
171.473
 20
181.016
 11
173.282
 21
180.223
  0
LINE
  8
0
 10
173.282
 20
180.223
 11
174.735
 21
178.885
  0
LINE
  8
0
 10
174.735
 20
178.885
 11
175.675
 21
177.148
  0
LINE
  8
0
 10
175.675
 20
177.148
 11
176
 21
175.2
  0
LINE
  8
0
 10
176
 20
175.2
 11
175.675
 21
173.252
  0
LINE
  8
0
 10
175.675
 20
173.252
 11
174.735
 21
171.515
  0
LINE
  8
0
 10
174.735
 20
171.515
 11
173.282
 21
170.177
  0
LINE
  8
0
 10
173.282
 20
170.177
 11
172.878
 21
170
  0
LINE
  8
0
 10
172.878
 20
170
 11
173
 21
170
  0
LINE
  8
0
 10
173
 20
170
 11
173
 21
163.48
  0
LINE
  8
0
 10
173
 20
163.48
 11
173.282
 21
163.356
  0
LINE
  8
0
 10
173.282
 20
163.356
 11
174.735
 21
162.019
  0
LINE
  8
0
 10
174.735
 20
162.019
 11
175.675
 21
160.282
  0
LINE
  8
0
 10
175.675
 20
160.282
 11
176
 21
158.333
  0
LINE
  8
0
 10
176
 20
158.333
 11
175.675
 21
156.385
  0
LINE
  8
0
 10
175.675
 20
156.385
 11
174.735
 21
154.648
  0
LINE
  8
0
 10
174.735
 20
154.648
 11
173.282
 21
153.31
  0
LINE
  8
0
 10
173.282
 20
153.31
 11
173
 21
153.187
  0
LINE
  8
0
 10
173
 20
153.187
 11
173
 21
140.147
  0
LINE
  8
0
 10
173
 20
140.147
 11
173.282
 21
140.023
  0
LINE
  8
0
 10
173.282
 20
140.023
 11
174.735
 21
138.685
  0
LINE
  8
0
 10
174.735
 20
138.685
 11
175.675
 21
136.948
  0
LINE
  8
0
 10
175.675
 20
136.948
 11
176
 21
135
  0
LINE
  8
0
 10
176
 20
135
 11
175.675
 21
133.052
  0
LINE
  8
0
 10
175.675
 20
133.052
 11
174.735
 21
131.315
  0
LINE
  8
0
 10
174.735
 20
131.315
 11
173.282
 21
129.977
  0
LINE
  8
0
 10
173.282
 20
129.977
 11
173
 21
129.853
  0
LINE
  8
0
 10
173
 20
129.853
 11
173
 21
70.1465
  0
LINE
  8
0
 10
173
 20
70.1465
 11
173.282
 21
70.023
  0
LINE
  8
0
 10
173.282
 20
70.023
 11
174.735
 21
68.6853
  0
LINE
  8
0
 10
174.735
 20
68.6853
 11
175.675
 21
66.9482
  0
LINE
  8
0
 10
175.675
 20
66.9482
 11
176
 21
65
  0
LINE
  8
0
 10
176
 20
65
 11
175.675
 21
63.0518
  0
LINE
  8
0
 10
175.675
 20
63.0518
 11
174.735
 21
61.3147
  0
LINE
  8
0
 10
174.735
 20
61.3147
 11
173.282
 21
59.977
  0
LINE
  8
0
 10
173.282
 20
59.977
 11
173
 21
59.8534
  0
LINE
  8
0
 10
173
 20
59.8534
 11
173
 21
46.8132
  0
LINE
  8
0
 10
173
 20
46.8132
 11
173.282
 21
46.6897
  0
LINE
  8
0
 10
173.282
 20
46.6897
 11
174.735
 21
45.3519
  0
LINE
  8
0
 10
174.735
 20
45.3519
 11
175.675
 21
43.6149
  0
LINE
  8
0
 10
175.675
 20
43.6149
 11
176
 21
41.6667
  0
LINE
  8
0
 10
176
 20
41.6667
 11
175.675
 21
39.7185
  0
LINE
  8
0
 10
175.675
 20
39.7185
 11
174.735
 21
37.9814
  0
LINE
  8
0
 10
174.735
 20
37.9814
 11
173.282
 21
36.6437
  0
LINE
  8
0
 10
173.282
 20
36.6437
 11
173
 21
36.5201
  0
LINE
  8
0
 10
173
 20
36.5201
 11
173
 21
30
  0
LINE
  8
0
 10
173
 20
30
 11
172.878
 21
30
  0
LINE
  8
0
 10
172.878
 20
30
 11
173.282
 21
29.823
  0
LINE
  8
0
 10
173.282
 20
29.823
 11
174.735
 21
28.4853
  0
LINE
  8
0
 10
174.735
 20
28.4853
 11
175.675
 21
26.7482
  0
LINE
  8
0
 10
175.675
 20
26.7482
 11
176
 21
24.8
  0
LINE
  8
0
 10
176
 20
24.8
 11
175.675
 21
22.8518
  0
LINE
  8
0
 10
175.675
 20
22.8518
 11
174.735
 21
21.1147
  0
LINE
  8
0
 10
174.735
 20
21.1147
 11
173.282
 21
19.777
  0
LINE
  8
0
 10
173.282
 20
19.777
 11
171.473
 21
18.9836
  0
LINE
  8
0
 10
171.473
 20
18.9836
 11
169.505
 21
18.8205
  0
LINE
  8
0
 10
169.505
 20
18.8205
 11
167.59
 21
19.3054
  0
LINE
  8
0
 10
67.5898
 20
19.3054
 11
65.9363
 21
20.3857
  0
LINE
  8
0
 10
65.9363
 20
20.3857
 11
64.7232
 21
21.9443
  0
LINE
  8
0
 10
64.7232
 20
21.9443
 11
64.0818
 21
23.8124
  0
LINE
  8
0
 10
64.0818
 20
23.8124
 11
64.0818
 21
25.7876
  0
LINE
  8
0
 10
64.0818
 20
25.7876
 11
64.7232
 21
27.6557
  0
LINE
  8
0
 10
64.7232
 20
27.6557
 11
65.9363
 21
29.2144
  0
LINE
  8
0
 10
65.9363
 20
29.2144
 11
67.1388
 21
30
  0
LINE
  8
0
 10
67.1388
 20
30
 11
67
 21
30
  0
LINE
  8
0
 10
67
 20
30
 11
67
 21
170
  0
LINE
  8
0
 10
67
 20
170
 11
67.1388
 21
170
  0
LINE
  8
0
 10
67.1388
 20
170
 11
65.9363
 21
170.786
  0
LINE
  8
0
 10
65.9363
 20
170.786
 11
64.7232
 21
172.344
  0
LINE
  8
0
 10
64.7232
 20
172.344
 11
64.0818
 21
174.212
  0
LINE
  8
0
 10
64.0818
 20
174.212
 11
64.0818
 21
176.188
  0
LINE
  8
0
 10
64.0818
 20
176.188
 11
64.7232
 21
178.056
  0
LINE
  8
0
 10
64.7232
 20
178.056
 11
65.9363
 21
179.614
  0
LINE
  8
0
 10
65.9363
 20
179.614
 11
67.5898
 21
180.695
  0
LINE
  8
0
 10
67.5898
 20
180.695
 11
69.5045
 21
181.18
  0
LINE
  8
0
 10
69.5045
 20
181.18
 11
71.4729
 21
181.016
  0
LINE
  8
0
 10
71.4729
 20
181.016
 11
73.2817
 21
180.223
  0
LINE
  8
0
 10
73.2817
 20
180.223
 11
74.7348
 21
178.885
  0
LINE
  8
0
 10
74.7348
 20
178.885
 11
75.6749
 21
177.148
  0
LINE
  8
0
 10
75.6749
 20
177.148
 11
76
 21
175.2
  0
LINE
  8
0
 10
76
 20
175.2
 11
75.6749
 21
173.252
  0
LINE
  8
0
 10
75.6749
 20
173.252
 11
74.7348
 21
171.515
  0
LINE
  8
0
 10
74.7348
 20
171.515
 11
73.2817
 21
170.177
  0
LINE
  8
0
 10
73.2817
 20
170.177
 11
72.8782
 21
170
  0
LINE
  8
0
 10
72.8782
 20
170
 11
73
 21
170
  0
LINE
  8
0
 10
73
 20
170
 11
73
 21
30
  0
LINE
  8
0
 10
73
 20
30
 11
72.8782
 21
30
  0
LINE
  8
0
 10
72.8782
 20
30
 11
73.2817
 21
29.823
  0
LINE
  8
0
 10
73.2817
 20
29.823
 11
74.7348
 21
28.4853
  0
LINE
  8
0
 10
74.7348
 20
28.4853
 11
75.6749
 21
26.7482
  0
LINE
  8
0
 10
75.6749
 20
26.7482
 11
76
 21
24.8
  0
LINE
  8
0
 10
76
 20
24.8
 11
75.6749
 21
22.8518
  0
LINE
  8
0
 10
75.6749
 20
22.8518
 11
74.7348
 21
21.1147
  0
LINE
  8
0
 10
74.7348
 20
21.1147
 11
73.2817
 21
19.777
  0
LINE
  8
0
 10
73.2817
 20
19.777
 11
71.4729
 21
18.9836
  0
LINE
  8
0
 10
71.4729
 20
18.9836
 11
69.5045
 21
18.8205
  0
LINE
  8
0
 10
69.5045
 20
18.8205
 11
67.5898
 21
19.3054
  0
ENDSEC
  0
SECTION
  2
OBJECTS
  0
DICTIONARY
  0
ENDSEC
  0
EOF
