  0
SECTION
  2
BLOCKS
  0
ENDSEC
  0
SECTION
  2
ENTITIES
  0
LINE
  8
0
 10
240
 20
200
 11
0
 21
200
  0
LINE
  8
0
 10
0
 20
200
 11
0
 21
0
  0
LINE
  8
0
 10
0
 20
0
 11
240
 21
0
  0
LINE
  8
0
 10
240
 20
0
 11
240
 21
200
  0
LINE
  8
0
 10
31.6864
 20
21.0164
 11
31.073
 21
21.1468
  0
LINE
  8
0
 10
31.073
 20
21.1468
 11
30.5
 21
21.4019
  0
LINE
  8
0
 10
30.5
 20
21.4019
 11
29.9926
 21
21.7706
  0
LINE
  8
0
 10
29.9926
 20
21.7706
 11
29.573
 21
22.2366
  0
LINE
  8
0
 10
29.573
 20
22.2366
 11
29.2594
 21
22.7798
  0
LINE
  8
0
 10
29.2594
 20
22.7798
 11
29.0656
 21
23.3763
  0
LINE
  8
0
 10
29.0656
 20
23.3763
 11
29
 21
24
  0
LINE
  8
0
 10
29
 20
24
 11
29.0656
 21
24.6237
  0
LINE
  8
0
 10
29.0656
 20
24.6237
 11
29.2594
 21
25.2202
  0
LINE
  8
0
 10
29.2594
 20
25.2202
 11
29.573
 21
25.7634
  0
LINE
  8
0
 10
29.573
 20
25.7634
 11
29.9926
 21
26.2294
  0
LINE
  8
0
 10
29.9926
 20
26.2294
 11
30.5
 21
26.5981
  0
LINE
  8
0
 10
30.5
 20
26.5981
 11
31.073
 21
26.8532
  0
LINE
  8
0
 10
31.073
 20
26.8532
 11
31.6864
 21
26.9836
  0
LINE
  8
0
 10
31.6864
 20
26.9836
 11
32
 21
26.9836
  0
LINE
  8
0
 10
32
 20
26.9836
 11
32
 21
174.036
  0
LINE
  8
0
 10
32
 20
174.036
 11
31.6864
 21
174.036
  0
LINE
  8
0
 10
31.6864
 20
174.036
 11
31.073
 21
174.167
  0
LINE
  8
0
 10
31.073
 20
174.167
 11
30.5
 21
174.422
  0
LINE
  8
0
 10
30.5
 20
174.422
 11
29.9926
 21
174.791
  0
LINE
  8
0
 10
29.9926
 20
174.791
 11
29.573
 21
175.257
  0
LINE
  8
0
 10
29.573
 20
175.257
 11
29.2594
 21
175.8
  0
LINE
  8
0
 10
29.2594
 20
175.8
 11
29.0656
 21
176.396
  0
LINE
  8
0
 10
29.0656
 20
176.396
 11
29
 21
177.02
  0
LINE
  8
0
 10
29
 20
177.02
 11
29.0656
 21
177.644
  0
LINE
  8
0
 10
29.0656
 20
177.644
 11
29.2594
 21
178.24
  0
LINE
  8
0
 10
29.2594
 20
178.24
 11
29.573
 21
178.783
  0
LINE
  8
0
 10
29.573
 20
178.783
 11
29.9926
 21
179.249
  0
LINE
  8
0
 10
29.9926
 20
179.249
 11
30.5
 21
179.618
  0
LINE
  8
0
 10
30.5
 20
179.618
 11
31.073
 21
179.873
  0
LINE
  8
0
 10
31.073
 20
179.873
 11
31.6864
 21
180.004
  0
LINE
  8
0
 10
31.6864
 20
180.004
 11
32.3136
 21
180.004
  0
LINE
  8
0
 10
32.3136
 20
180.004
 11
32.927
 21
179.873
  0
LINE
  8
0
 10
32.927
 20
179.873
 11
33.5
 21
179.618
  0
LINE
  8
0
 10
33.5
 20
179.618
 11
34.0074
 21
179.249
  0
LINE
  8
0
 10
34.0074
 20
179.249
 11
34.427
 21
178.783
  0
LINE
  8
0
 10
34.427
 20
178.783
 11
34.7406
 21
178.24
  0
LINE
  8
0
 10
34.7406
 20
178.24
 11
34.9344
 21
177.644
  0
LINE
  8
0
 10
34.9344
 20
177.644
 11
35
 21
177.02
  0
LINE
  8
0
 10
35
 20
177.02
 11
62.5
 21
177.02
  0
LINE
  8
0
 10
62.5
 20
177.02
 11
62.6639
 21
178.579
  0
LINE
  8
0
 10
62.6639
 20
178.579
 11
63.1484
 21
180.071
  0
LINE
  8
0
 10
63.1484
 20
180.071
 11
63.9324
 21
181.428
  0
LINE
  8
0
 10
63.9324
 20
181.428
 11
64.9815
 21
182.594
  0
LINE
  8
0
 10
64.9815
 20
182.594
 11
66.25
 21
183.515
  0
LINE
  8
0
 10
66.25
 20
183.515
 11
67.6824
 21
184.153
  0
LINE
  8
0
 10
67.6824
 20
184.153
 11
69.216
 21
184.479
  0
LINE
  8
0
 10
69.216
 20
184.479
 11
70.784
 21
184.479
  0
LINE
  8
0
 10
70.784
 20
184.479
 11
72.3176
 21
184.153
  0
LINE
  8
0
 10
72.3176
 20
184.153
 11
73.75
 21
183.515
  0
LINE
  8
0
 10
73.75
 20
183.515
 11
75.0185
 21
182.594
  0
LINE
  8
0
 10
75.0185
 20
182.594
 11
76.0676
 21
181.428
  0
LINE
  8
0
 10
76.0676
 20
181.428
 11
76.8516
 21
180.071
  0
LINE
  8
0
 10
76.8516
 20
180.071
 11
77.3361
 21
178.579
  0
LINE
  8
0
 10
77.3361
 20
178.579
 11
77.5
 21
177.02
  0
LINE
  8
0
 10
77.5
 20
177.02
 11
130.61
 21
177.02
  0
LINE
  8
0
 10
130.61
 20
177.02
 11
130.676
 21
177.644
  0
LINE
  8
0
 10
130.676
 20
177.644
 11
130.869
 21
178.24
  0
LINE
  8
0
 10
130.869
 20
178.24
 11
131.183
 21
178.783
  0
LINE
  8
0
 10
131.183
 20
178.783
 11
131.603
 21
179.249
  0
LINE
  8
0
 10
131.603
 20
179.249
 11
132.11
 21
179.618
  0
LINE
  8
0
 10
132.11
 20
179.618
 11
132.683
 21
179.873
  0
LINE
  8
0
 10
132.683
 20
179.873
 11
133.296
 21
180.004
  0
LINE
  8
0
 10
133.296
 20
180.004
 11
133.924
 21
180.004
  0
LINE
  8
0
 10
133.924
 20
180.004
 11
134.537
 21
179.873
  0
LINE
  8
0
 10
134.537
 20
179.873
 11
135.11
 21
179.618
  0
LINE
  8
0
 10
135.11
 20
179.618
 11
135.617
 21
179.249
  0
LINE
  8
0
 10
135.617
 20
179.249
 11
136.037
 21
178.783
  0
LINE
  8
0
 10
136.037
 20
178.783
 11
136.351
 21
178.24
  0
LINE
  8
0
 10
136.351
 20
178.24
 11
136.544
 21
177.644
  0
LINE
  8
0
 10
136.544
 20
177.644
 11
136.61
 21
177.02
  0
LINE
  8
0
 10
136.61
 20
177.02
 11
136.544
 21
176.396
  0
LINE
  8
0
 10
136.544
 20
176.396
 11
136.351
 21
175.8
  0
LINE
  8
0
 10
136.351
 20
175.8
 11
136.037
 21
175.257
  0
LINE
  8
0
 10
136.037
 20
175.257
 11
135.617
 21
174.791
  0
LINE
  8
0
 10
135.617
 20
174.791
 11
135.11
 21
174.422
  0
LINE
  8
0
 10
135.11
 20
174.422
 11
134.537
 21
174.167
  0
LINE
  8
0
 10
134.537
 20
174.167
 11
133.924
 21
174.036
  0
LINE
  8
0
 10
133.924
 20
174.036
 11
133.61
 21
174.036
  0
LINE
  8
0
 10
133.61
 20
174.036
 11
133.61
 21
26.9836
  0
LINE
  8
0
 10
133.61
 20
26.9836
 11
133.924
 21
26.9836
  0
LINE
  8
0
 10
133.924
 20
26.9836
 11
134.537
 21
26.8532
  0
LINE
  8
0
 10
134.537
 20
26.8532
 11
135.11
 21
26.5981
  0
LINE
  8
0
 10
135.11
 20
26.5981
 11
135.617
 21
26.2294
  0
LINE
  8
0
 10
135.617
 20
26.2294
 11
136.037
 21
25.7634
  0
LINE
  8
0
 10
136.037
 20
25.7634
 11
136.351
 21
25.2202
  0
LINE
  8
0
 10
136.351
 20
25.2202
 11
136.544
 21
24.6237
  0
LINE
  8
0
 10
136.544
 20
24.6237
 11
136.61
 21
24
  0
LINE
  8
0
 10
136.61
 20
24
 11
136.544
 21
23.3763
  0
LINE
  8
0
 10
136.544
 20
23.3763
 11
136.351
 21
22.7798
  0
LINE
  8
0
 10
136.351
 20
22.7798
 11
136.037
 21
22.2366
  0
LINE
  8
0
 10
136.037
 20
22.2366
 11
135.617
 21
21.7706
  0
LINE
  8
0
 10
135.617
 20
21.7706
 11
135.11
 21
21.4019
  0
LINE
  8
0
 10
135.11
 20
21.4019
 11
134.537
 21
21.1468
  0
LINE
  8
0
 10
134.537
 20
21.1468
 11
133.924
 21
21.0164
  0
LINE
  8
0
 10
133.924
 20
21.0164
 11
133.296
 21
21.0164
  0
LINE
  8
0
 10
133.296
 20
21.0164
 11
132.683
 21
21.1468
  0
LINE
  8
0
 10
132.683
 20
21.1468
 11
132.11
 21
21.4019
  0
LINE
  8
0
 10
132.11
 20
21.4019
 11
131.603
 21
21.7706
  0
LINE
  8
0
 10
131.603
 20
21.7706
 11
131.183
 21
22.2366
  0
LINE
  8
0
 10
131.183
 20
22.2366
 11
130.869
 21
22.7798
  0
LINE
  8
0
 10
130.869
 20
22.7798
 11
130.676
 21
23.3763
  0
LINE
  8
0
 10
130.676
 20
23.3763
 11
130.61
 21
24
  0
LINE
  8
0
 10
130.61
 20
24
 11
35
 21
24
  0
LINE
  8
0
 10
35
 20
24
 11
34.9344
 21
23.3763
  0
LINE
  8
0
 10
34.9344
 20
23.3763
 11
34.7406
 21
22.7798
  0
LINE
  8
0
 10
34.7406
 20
22.7798
 11
34.427
 21
22.2366
  0
LINE
  8
0
 10
34.427
 20
22.2366
 11
34.0074
 21
21.7706
  0
LINE
  8
0
 10
34.0074
 20
21.7706
 11
33.5
 21
21.4019
  0
LINE
  8
0
 10
33.5
 20
21.4019
 11
32.927
 21
21.1468
  0
LINE
  8
0
 10
32.927
 20
21.1468
 11
32.3136
 21
21.0164
  0
LINE
  8
0
 10
32.3136
 20
21.0164
 11
31.6864
 21
21.0164
  0
LINE
  8
0
 10
169.686
 20
155.35
 11
169.073
 21
155.48
  0
LINE
  8
0
 10
169.073
 20
155.48
 11
168.5
 21
155.735
  0
LINE
  8
0
 10
168.5
 20
155.735
 11
167.993
 21
156.104
  0
LINE
  8
0
 10
167.993
 20
156.104
 11
167.573
 21
156.57
  0
LINE
  8
0
 10
167.573
 20
156.57
 11
167.259
 21
157.113
  0
LINE
  8
0
 10
167.259
 20
157.113
 11
167.066
 21
157.71
  0
LINE
  8
0
 10
167.066
 20
157.71
 11
167
 21
158.333
  0
LINE
  8
0
 10
167
 20
158.333
 11
167.066
 21
158.957
  0
LINE
  8
0
 10
167.066
 20
158.957
 11
167.259
 21
159.554
  0
LINE
  8
0
 10
167.259
 20
159.554
 11
167.573
 21
160.097
  0
LINE
  8
0
 10
167.573
 20
160.097
 11
167.993
 21
160.563
  0
LINE
  8
0
 10
167.993
 20
160.563
 11
168.5
 21
160.931
  0
LINE
  8
0
 10
168.5
 20
160.931
 11
169.073
 21
161.186
  0
LINE
  8
0
 10
169.073
 20
161.186
 11
169.686
 21
161.317
  0
LINE
  8
0
 10
169.686
 20
161.317
 11
170.314
 21
161.317
  0
LINE
  8
0
 10
170.314
 20
161.317
 11
170.927
 21
161.186
  0
LINE
  8
0
 10
170.927
 20
161.186
 11
171.5
 21
160.931
  0
LINE
  8
0
 10
171.5
 20
160.931
 11
172.007
 21
160.563
  0
LINE
  8
0
 10
172.007
 20
160.563
 11
172.427
 21
160.097
  0
LINE
  8
0
 10
172.427
 20
160.097
 11
172.741
 21
159.554
  0
LINE
  8
0
 10
172.741
 20
159.554
 11
172.934
 21
158.957
  0
LINE
  8
0
 10
172.934
 20
158.957
 11
173
 21
158.333
  0
LINE
  8
0
 10
173
 20
158.333
 11
172.934
 21
157.71
  0
LINE
  8
0
 10
172.934
 20
157.71
 11
172.741
 21
157.113
  0
LINE
  8
0
 10
172.741
 20
157.113
 11
172.427
 21
156.57
  0
LINE
  8
0
 10
172.427
 20
156.57
 11
172.007
 21
156.104
  0
LINE
  8
0
 10
172.007
 20
156.104
 11
171.5
 21
155.735
  0
LINE
  8
0
 10
171.5
 20
155.735
 11
170.927
 21
155.48
  0
LINE
  8
0
 10
170.927
 20
155.48
 11
170.314
 21
155.35
  0
LINE
  8
0
 10
170.314
 20
155.35
 11
169.686
 21
155.35
  0
LINE
  8
0
 10
19.6864
 20
149.516
 11
19.0729
 21
149.647
  0
LINE
  8
0
 10
19.0729
 20
149.647
 11
18.5
 21
149.902
  0
LINE
  8
0
 10
18.5
 20
149.902
 11
17.9926
 21
150.271
  0
LINE
  8
0
 10
17.9926
 20
150.271
 11
17.5729
 21
150.737
  0
LINE
  8
0
 10
17.5729
 20
150.737
 11
17.2594
 21
151.28
  0
LINE
  8
0
 10
17.2594
 20
151.28
 11
17.0656
 21
151.876
  0
LINE
  8
0
 10
17.0656
 20
151.876
 11
17
 21
152.5
  0
LINE
  8
0
 10
17
 20
152.5
 11
17.0656
 21
153.124
  0
LINE
  8
0
 10
17.0656
 20
153.124
 11
17.2594
 21
153.72
  0
LINE
  8
0
 10
17.2594
 20
153.72
 11
17.5729
 21
154.263
  0
LINE
  8
0
 10
17.5729
 20
154.263
 11
17.9926
 21
154.729
  0
LINE
  8
0
 10
17.9926
 20
154.729
 11
18.5
 21
155.098
  0
LINE
  8
0
 10
18.5
 20
155.098
 11
19.0729
 21
155.353
  0
LINE
  8
0
 10
19.0729
 20
155.353
 11
19.6864
 21
155.484
  0
LINE
  8
0
 10
19.6864
 20
155.484
 11
20.3136
 21
155.484
  0
LINE
  8
0
 10
20.3136
 20
155.484
 11
20.927
 21
155.353
  0
LINE
  8
0
 10
20.927
 20
155.353
 11
21.5
 21
155.098
  0
LINE
  8
0
 10
21.5
 20
155.098
 11
22.0074
 21
154.729
  0
LINE
  8
0
 10
22.0074
 20
154.729
 11
22.427
 21
154.263
  0
LINE
  8
0
 10
22.427
 20
154.263
 11
22.7406
 21
153.72
  0
LINE
  8
0
 10
22.7406
 20
153.72
 11
22.9344
 21
153.124
  0
LINE
  8
0
 10
22.9344
 20
153.124
 11
23
 21
152.5
  0
LINE
  8
0
 10
23
 20
152.5
 11
22.9344
 21
151.876
  0
LINE
  8
0
 10
22.9344
 20
151.876
 11
22.7406
 21
151.28
  0
LINE
  8
0
 10
22.7406
 20
151.28
 11
22.427
 21
150.737
  0
LINE
  8
0
 10
22.427
 20
150.737
 11
22.0074
 21
150.271
  0
LINE
  8
0
 10
22.0074
 20
150.271
 11
21.5
 21
149.902
  0
LINE
  8
0
 10
21.5
 20
149.902
 11
20.927
 21
149.647
  0
LINE
  8
0
 10
20.927
 20
149.647
 11
20.3136
 21
149.516
  0
LINE
  8
0
 10
20.3136
 20
149.516
 11
19.6864
 21
149.516
  0
LINE
  8
0
 10
219.686
 20
149.516
 11
219.073
 21
149.647
  0
LINE
  8
0
 10
219.073
 20
149.647
 11
218.5
 21
149.902
  0
LINE
  8
0
 10
218.5
 20
149.902
 11
217.993
 21
150.271
  0
LINE
  8
0
 10
217.993
 20
150.271
 11
217.573
 21
150.737
  0
LINE
  8
0
 10
217.573
 20
150.737
 11
217.259
 21
151.28
  0
LINE
  8
0
 10
217.259
 20
151.28
 11
217.066
 21
151.876
  0
LINE
  8
0
 10
217.066
 20
151.876
 11
217
 21
152.5
  0
LINE
  8
0
 10
217
 20
152.5
 11
217.066
 21
153.124
  0
LINE
  8
0
 10
217.066
 20
153.124
 11
217.259
 21
153.72
  0
LINE
  8
0
 10
217.259
 20
153.72
 11
217.573
 21
154.263
  0
LINE
  8
0
 10
217.573
 20
154.263
 11
217.993
 21
154.729
  0
LINE
  8
0
 10
217.993
 20
154.729
 11
218.5
 21
155.098
  0
LINE
  8
0
 10
218.5
 20
155.098
 11
219.073
 21
155.353
  0
LINE
  8
0
 10
219.073
 20
155.353
 11
219.686
 21
155.484
  0
LINE
  8
0
 10
219.686
 20
155.484
 11
220.314
 21
155.484
  0
LINE
  8
0
 10
220.314
 20
155.484
 11
220.927
 21
155.353
  0
LINE
  8
0
 10
220.927
 20
155.353
 11
221.5
 21
155.098
  0
LINE
  8
0
 10
221.5
 20
155.098
 11
222.007
 21
154.729
  0
LINE
  8
0
 10
222.007
 20
154.729
 11
222.427
 21
154.263
  0
LINE
  8
0
 10
222.427
 20
154.263
 11
222.741
 21
153.72
  0
LINE
  8
0
 10
222.741
 20
153.72
 11
222.934
 21
153.124
  0
LINE
  8
0
 10
222.934
 20
153.124
 11
223
 21
152.5
  0
LINE
  8
0
 10
223
 20
152.5
 11
222.934
 21
151.876
  0
LINE
  8
0
 10
222.934
 20
151.876
 11
222.741
 21
151.28
  0
LINE
  8
0
 10
222.741
 20
151.28
 11
222.427
 21
150.737
  0
LINE
  8
0
 10
222.427
 20
150.737
 11
222.007
 21
150.271
  0
LINE
  8
0
 10
222.007
 20
150.271
 11
221.5
 21
149.902
  0
LINE
  8
0
 10
221.5
 20
149.902
 11
220.927
 21
149.647
  0
LINE
  8
0
 10
220.927
 20
149.647
 11
220.314
 21
149.516
  0
LINE
  8
0
 10
220.314
 20
149.516
 11
219.686
 21
149.516
  0
LINE
  8
0
 10
169.686
 20
132.016
 11
169.073
 21
132.147
  0
LINE
  8
0
 10
169.073
 20
132.147
 11
168.5
 21
132.402
  0
LINE
  8
0
 10
168.5
 20
132.402
 11
167.993
 21
132.771
  0
LINE
  8
0
 10
167.993
 20
132.771
 11
167.573
 21
133.237
  0
LINE
  8
0
 10
167.573
 20
133.237
 11
167.259
 21
133.78
  0
LINE
  8
0
 10
167.259
 20
133.78
 11
167.066
 21
134.376
  0
LINE
  8
0
 10
167.066
 20
134.376
 11
167
 21
135
  0
LINE
  8
0
 10
167
 20
135
 11
167.066
 21
135.624
  0
LINE
  8
0
 10
167.066
 20
135.624
 11
167.259
 21
136.22
  0
LINE
  8
0
 10
167.259
 20
136.22
 11
167.573
 21
136.763
  0
LINE
  8
0
 10
167.573
 20
136.763
 11
167.993
 21
137.229
  0
LINE
  8
0
 10
167.993
 20
137.229
 11
168.5
 21
137.598
  0
LINE
  8
0
 10
168.5
 20
137.598
 11
169.073
 21
137.853
  0
LINE
  8
0
 10
169.073
 20
137.853
 11
169.686
 21
137.984
  0
LINE
  8
0
 10
169.686
 20
137.984
 11
170.314
 21
137.984
  0
LINE
  8
0
 10
170.314
 20
137.984
 11
170.927
 21
137.853
  0
LINE
  8
0
 10
170.927
 20
137.853
 11
171.5
 21
137.598
  0
LINE
  8
0
 10
171.5
 20
137.598
 11
172.007
 21
137.229
  0
LINE
  8
0
 10
172.007
 20
137.229
 11
172.427
 21
136.763
  0
LINE
  8
0
 10
172.427
 20
136.763
 11
172.741
 21
136.22
  0
LINE
  8
0
 10
172.741
 20
136.22
 11
172.934
 21
135.624
  0
LINE
  8
0
 10
172.934
 20
135.624
 11
173
 21
135
  0
LINE
  8
0
 10
173
 20
135
 11
172.934
 21
134.376
  0
LINE
  8
0
 10
172.934
 20
134.376
 11
172.741
 21
133.78
  0
LINE
  8
0
 10
172.741
 20
133.78
 11
172.427
 21
133.237
  0
LINE
  8
0
 10
172.427
 20
133.237
 11
172.007
 21
132.771
  0
LINE
  8
0
 10
172.007
 20
132.771
 11
171.5
 21
132.402
  0
LINE
  8
0
 10
171.5
 20
132.402
 11
170.927
 21
132.147
  0
LINE
  8
0
 10
170.927
 20
132.147
 11
170.314
 21
132.016
  0
LINE
  8
0
 10
170.314
 20
132.016
 11
169.686
 21
132.016
  0
LINE
  8
0
 10
219.686
 20
97.0164
 11
219.073
 21
97.1468
  0
LINE
  8
0
 10
219.073
 20
97.1468
 11
218.5
 21
97.4019
  0
LINE
  8
0
 10
218.5
 20
97.4019
 11
217.993
 21
97.7706
  0
LINE
  8
0
 10
217.993
 20
97.7706
 11
217.573
 21
98.2366
  0
LINE
  8
0
 10
217.573
 20
98.2366
 11
217.259
 21
98.7798
  0
LINE
  8
0
 10
217.259
 20
98.7798
 11
217.066
 21
99.3763
  0
LINE
  8
0
 10
217.066
 20
99.3763
 11
217
 21
100
  0
LINE
  8
0
 10
217
 20
100
 11
217.066
 21
100.624
  0
LINE
  8
0
 10
217.066
 20
100.624
 11
217.259
 21
101.22
  0
LINE
  8
0
 10
217.259
 20
101.22
 11
217.573
 21
101.763
  0
LINE
  8
0
 10
217.573
 20
101.763
 11
217.993
 21
102.229
  0
LINE
  8
0
 10
217.993
 20
102.229
 11
218.5
 21
102.598
  0
LINE
  8
0
 10
218.5
 20
102.598
 11
219.073
 21
102.853
  0
LINE
  8
0
 10
219.073
 20
102.853
 11
219.686
 21
102.984
  0
LINE
  8
0
 10
219.686
 20
102.984
 11
220.314
 21
102.984
  0
LINE
  8
0
 10
220.314
 20
102.984
 11
220.927
 21
102.853
  0
LINE
  8
0
 10
220.927
 20
102.853
 11
221.5
 21
102.598
  0
LINE
  8
0
 10
221.5
 20
102.598
 11
222.007
 21
102.229
  0
LINE
  8
0
 10
222.007
 20
102.229
 11
222.427
 21
101.763
  0
LINE
  8
0
 10
222.427
 20
101.763
 11
222.741
 21
101.22
  0
LINE
  8
0
 10
222.741
 20
101.22
 11
222.934
 21
100.624
  0
LINE
  8
0
 10
222.934
 20
100.624
 11
223
 21
100
  0
LINE
  8
0
 10
223
 20
100
 11
222.934
 21
99.3763
  0
LINE
  8
0
 10
222.934
 20
99.3763
 11
222.741
 21
98.7798
  0
LINE
  8
0
 10
222.741
 20
98.7798
 11
222.427
 21
98.2366
  0
LINE
  8
0
 10
222.427
 20
98.2366
 11
222.007
 21
97.7706
  0
LINE
  8
0
 10
222.007
 20
97.7706
 11
221.5
 21
97.4019
  0
LINE
  8
0
 10
221.5
 20
97.4019
 11
220.927
 21
97.1468
  0
LINE
  8
0
 10
220.927
 20
97.1468
 11
220.314
 21
97.0164
  0
LINE
  8
0
 10
220.314
 20
97.0164
 11
219.686
 21
97.0164
  0
LINE
  8
0
 10
19.6864
 20
97.0164
 11
19.0729
 21
97.1468
  0
LINE
  8
0
 10
19.0729
 20
97.1468
 11
18.5
 21
97.4019
  0
LINE
  8
0
 10
18.5
 20
97.4019
 11
17.9926
 21
97.7706
  0
LINE
  8
0
 10
17.9926
 20
97.7706
 11
17.5729
 21
98.2366
  0
LINE
  8
0
 10
17.5729
 20
98.2366
 11
17.2594
 21
98.7798
  0
LINE
  8
0
 10
17.2594
 20
98.7798
 11
17.0656
 21
99.3763
  0
LINE
  8
0
 10
17.0656
 20
99.3763
 11
17
 21
100
  0
LINE
  8
0
 10
17
 20
100
 11
17.0656
 21
100.624
  0
LINE
  8
0
 10
17.0656
 20
100.624
 11
17.2594
 21
101.22
  0
LINE
  8
0
 10
17.2594
 20
101.22
 11
17.5729
 21
101.763
  0
LINE
  8
0
 10
17.5729
 20
101.763
 11
17.9926
 21
102.229
  0
LINE
  8
0
 10
17.9926
 20
102.229
 11
18.5
 21
102.598
  0
LINE
  8
0
 10
18.5
 20
102.598
 11
19.0729
 21
102.853
  0
LINE
  8
0
 10
19.0729
 20
102.853
 11
19.6864
 21
102.984
  0
LINE
  8
0
 10
19.6864
 20
102.984
 11
20.3136
 21
102.984
  0
LINE
  8
0
 10
20.3136
 20
102.984
 11
20.927
 21
102.853
  0
LINE
  8
0
 10
20.927
 20
102.853
 11
21.5
 21
102.598
  0
LINE
  8
0
 10
21.5
 20
102.598
 11
22.0074
 21
102.229
  0
LINE
  8
0
 10
22.0074
 20
102.229
 11
22.427
 21
101.763
  0
LINE
  8
0
 10
22.427
 20
101.763
 11
22.7406
 21
101.22
  0
LINE
  8
0
 10
22.7406
 20
101.22
 11
22.9344
 21
100.624
  0
LINE
  8
0
 10
22.9344
 20
100.624
 11
23
 21
100
  0
LINE
  8
0
 10
23
 20
100
 11
22.9344
 21
99.3763
  0
LINE
  8
0
 10
22.9344
 20
99.3763
 11
22.7406
 21
98.7798
  0
LINE
  8
0
 10
22.7406
 20
98.7798
 11
22.427
 21
98.2366
  0
LINE
  8
0
 10
22.427
 20
98.2366
 11
22.0074
 21
97.7706
  0
LINE
  8
0
 10
22.0074
 20
97.7706
 11
21.5
 21
97.4019
  0
LINE
  8
0
 10
21.5
 20
97.4019
 11
20.927
 21
97.1468
  0
LINE
  8
0
 10
20.927
 20
97.1468
 11
20.3136
 21
97.0164
  0
LINE
  8
0
 10
20.3136
 20
97.0164
 11
19.6864
 21
97.0164
  0
LINE
  8
0
 10
169.686
 20
62.0164
 11
169.073
 21
62.1468
  0
LINE
  8
0
 10
169.073
 20
62.1468
 11
168.5
 21
62.4019
  0
LINE
  8
0
 10
168.5
 20
62.4019
 11
167.993
 21
62.7706
  0
LINE
  8
0
 10
167.993
 20
62.7706
 11
167.573
 21
63.2366
  0
LINE
  8
0
 10
167.573
 20
63.2366
 11
167.259
 21
63.7798
  0
LINE
  8
0
 10
167.259
 20
63.7798
 11
167.066
 21
64.3763
  0
LINE
  8
0
 10
167.066
 20
64.3763
 11
167
 21
65
  0
LINE
  8
0
 10
167
 20
65
 11
167.066
 21
65.6237
  0
LINE
  8
0
 10
167.066
 20
65.6237
 11
167.259
 21
66.2202
  0
LINE
  8
0
 10
167.259
 20
66.2202
 11
167.573
 21
66.7634
  0
LINE
  8
0
 10
167.573
 20
66.7634
 11
167.993
 21
67.2294
  0
LINE
  8
0
 10
167.993
 20
67.2294
 11
168.5
 21
67.5981
  0
LINE
  8
0
 10
168.5
 20
67.5981
 11
169.073
 21
67.8532
  0
LINE
  8
0
 10
169.073
 20
67.8532
 11
169.686
 21
67.9836
  0
LINE
  8
0
 10
169.686
 20
67.9836
 11
170.314
 21
67.9836
  0
LINE
  8
0
 10
170.314
 20
67.9836
 11
170.927
 21
67.8532
  0
LINE
  8
0
 10
170.927
 20
67.8532
 11
171.5
 21
67.5981
  0
LINE
  8
0
 10
171.5
 20
67.5981
 11
172.007
 21
67.2294
  0
LINE
  8
0
 10
172.007
 20
67.2294
 11
172.427
 21
66.7634
  0
LINE
  8
0
 10
172.427
 20
66.7634
 11
172.741
 21
66.2202
  0
LINE
  8
0
 10
172.741
 20
66.2202
 11
172.934
 21
65.6237
  0
LINE
  8
0
 10
172.934
 20
65.6237
 11
173
 21
65
  0
LINE
  8
0
 10
173
 20
65
 11
172.934
 21
64.3763
  0
LINE
  8
0
 10
172.934
 20
64.3763
 11
172.741
 21
63.7798
  0
LINE
  8
0
 10
172.741
 20
63.7798
 11
172.427
 21
63.2366
  0
LINE
  8
0
 10
172.427
 20
63.2366
 11
172.007
 21
62.7706
  0
LINE
  8
0
 10
172.007
 20
62.7706
 11
171.5
 21
62.4019
  0
LINE
  8
0
 10
171.5
 20
62.4019
 11
170.927
 21
62.1468
  0
LINE
  8
0
 10
170.927
 20
62.1468
 11
170.314
 21
62.0164
  0
LINE
  8
0
 10
170.314
 20
62.0164
 11
169.686
 21
62.0164
  0
LINE
  8
0
 10
219.686
 20
44.5164
 11
219.073
 21
44.6468
  0
LINE
  8
0
 10
219.073
 20
44.6468
 11
218.5
 21
44.9019
  0
LINE
  8
0
 10
218.5
 20
44.9019
 11
217.993
 21
45.2706
  0
LINE
  8
0
 10
217.993
 20
45.2706
 11
217.573
 21
45.7366
  0
LINE
  8
0
 10
217.573
 20
45.7366
 11
217.259
 21
46.2798
  0
LINE
  8
0
 10
217.259
 20
46.2798
 11
217.066
 21
46.8763
  0
LINE
  8
0
 10
217.066
 20
46.8763
 11
217
 21
47.5
  0
LINE
  8
0
 10
217
 20
47.5
 11
217.066
 21
48.1237
  0
LINE
  8
0
 10
217.066
 20
48.1237
 11
217.259
 21
48.7202
  0
LINE
  8
0
 10
217.259
 20
48.7202
 11
217.573
 21
49.2634
  0
LINE
  8
0
 10
217.573
 20
49.2634
 11
217.993
 21
49.7294
  0
LINE
  8
0
 10
217.993
 20
49.7294
 11
218.5
 21
50.0981
  0
LINE
  8
0
 10
218.5
 20
50.0981
 11
219.073
 21
50.3532
  0
LINE
  8
0
 10
219.073
 20
50.3532
 11
219.686
 21
50.4836
  0
LINE
  8
0
 10
219.686
 20
50.4836
 11
220.314
 21
50.4836
  0
LINE
  8
0
 10
220.314
 20
50.4836
 11
220.927
 21
50.3532
  0
LINE
  8
0
 10
220.927
 20
50.3532
 11
221.5
 21
50.0981
  0
LINE
  8
0
 10
221.5
 20
50.0981
 11
222.007
 21
49.7294
  0
LINE
  8
0
 10
222.007
 20
49.7294
 11
222.427
 21
49.2634
  0
LINE
  8
0
 10
222.427
 20
49.2634
 11
222.741
 21
48.7202
  0
LINE
  8
0
 10
222.741
 20
48.7202
 11
222.934
 21
48.1237
  0
LINE
  8
0
 10
222.934
 20
48.1237
 11
223
 21
47.5
  0
LINE
  8
0
 10
223
 20
47.5
 11
222.934
 21
46.8763
  0
LINE
  8
0
 10
222.934
 20
46.8763
 11
222.741
 21
46.2798
  0
LINE
  8
0
 10
222.741
 20
46.2798
 11
222.427
 21
45.7366
  0
LINE
  8
0
 10
222.427
 20
45.7366
 11
222.007
 21
45.2706
  0
LINE
  8
0
 10
222.007
 20
45.2706
 11
221.5
 21
44.9019
  0
LINE
  8
0
 10
221.5
 20
44.9019
 11
220.927
 21
44.6468
  0
LINE
  8
0
 10
220.927
 20
44.6468
 11
220.314
 21
44.5164
  0
LINE
  8
0
 10
220.314
 20
44.5164
 11
219.686
 21
44.5164
  0
LINE
  8
0
 10
19.6864
 20
44.5164
 11
19.0729
 21
44.6468
  0
LINE
  8
0
 10
19.0729
 20
44.6468
 11
18.5
 21
44.9019
  0
LINE
  8
0
 10
18.5
 20
44.9019
 11
17.9926
 21
45.2706
  0
LINE
  8
0
 10
17.9926
 20
45.2706
 11
17.5729
 21
45.7366
  0
LINE
  8
0
 10
17.5729
 20
45.7366
 11
17.2594
 21
46.2798
  0
LINE
  8
0
 10
17.2594
 20
46.2798
 11
17.0656
 21
46.8763
  0
LINE
  8
0
 10
17.0656
 20
46.8763
 11
17
 21
47.5
  0
LINE
  8
0
 10
17
 20
47.5
 11
17.0656
 21
48.1237
  0
LINE
  8
0
 10
17.0656
 20
48.1237
 11
17.2594
 21
48.7202
  0
LINE
  8
0
 10
17.2594
 20
48.7202
 11
17.5729
 21
49.2634
  0
LINE
  8
0
 10
17.5729
 20
49.2634
 11
17.9926
 21
49.7294
  0
LINE
  8
0
 10
17.9926
 20
49.7294
 11
18.5
 21
50.0981
  0
LINE
  8
0
 10
18.5
 20
50.0981
 11
19.0729
 21
50.3532
  0
LINE
  8
0
 10
19.0729
 20
50.3532
 11
19.6864
 21
50.4836
  0
LINE
  8
0
 10
19.6864
 20
50.4836
 11
20.3136
 21
50.4836
  0
LINE
  8
0
 10
20.3136
 20
50.4836
 11
20.927
 21
50.3532
  0
LINE
  8
0
 10
20.927
 20
50.3532
 11
21.5
 21
50.0981
  0
LINE
  8
0
 10
21.5
 20
50.0981
 11
22.0074
 21
49.7294
  0
LINE
  8
0
 10
22.0074
 20
49.7294
 11
22.427
 21
49.2634
  0
LINE
  8
0
 10
22.427
 20
49.2634
 11
22.7406
 21
48.7202
  0
LINE
  8
0
 10
22.7406
 20
48.7202
 11
22.9344
 21
48.1237
  0
LINE
  8
0
 10
22.9344
 20
48.1237
 11
23
 21
47.5
  0
LINE
  8
0
 10
23
 20
47.5
 11
22.9344
 21
46.8763
  0
LINE
  8
0
 10
22.9344
 20
46.8763
 11
22.7406
 21
46.2798
  0
LINE
  8
0
 10
22.7406
 20
46.2798
 11
22.427
 21
45.7366
  0
LINE
  8
0
 10
22.427
 20
45.7366
 11
22.0074
 21
45.2706
  0
LINE
  8
0
 10
22.0074
 20
45.2706
 11
21.5
 21
44.9019
  0
LINE
  8
0
 10
21.5
 20
44.9019
 11
20.927
 21
44.6468
  0
LINE
  8
0
 10
20.927
 20
44.6468
 11
20.3136
 21
44.5164
  0
LINE
  8
0
 10
20.3136
 20
44.5164
 11
19.6864
 21
44.5164
  0
LINE
  8
0
 10
169.686
 20
38.6831
 11
169.073
 21
38.8135
  0
LINE
  8
0
 10
169.073
 20
38.8135
 11
168.5
 21
39.0686
  0
LINE
  8
0
 10
168.5
 20
39.0686
 11
167.993
 21
39.4372
  0
LINE
  8
0
 10
167.993
 20
39.4372
 11
167.573
 21
39.9033
  0
LINE
  8
0
 10
167.573
 20
39.9033
 11
167.259
 21
40.4464
  0
LINE
  8
0
 10
167.259
 20
40.4464
 11
167.066
 21
41.0429
  0
LINE
  8
0
 10
167.066
 20
41.0429
 11
167
 21
41.6667
  0
LINE
  8
0
 10
167
 20
41.6667
 11
167.066
 21
42.2904
  0
LINE
  8
0
 10
167.066
 20
42.2904
 11
167.259
 21
42.8869
  0
LINE
  8
0
 10
167.259
 20
42.8869
 11
167.573
 21
43.43
  0
LINE
  8
0
 10
167.573
 20
43.43
 11
167.993
 21
43.8961
  0
LINE
  8
0
 10
167.993
 20
43.8961
 11
168.5
 21
44.2647
  0
LINE
  8
0
 10
168.5
 20
44.2647
 11
169.073
 21
44.5198
  0
LINE
  8
0
 10
169.073
 20
44.5198
 11
169.686
 21
44.6502
  0
LINE
  8
0
 10
169.686
 20
44.6502
 11
170.314
 21
44.6502
  0
LINE
  8
0
 10
170.314
 20
44.6502
 11
170.927
 21
44.5198
  0
LINE
  8
0
 10
170.927
 20
44.5198
 11
171.5
 21
44.2647
  0
LINE
  8
0
 10
171.5
 20
44.2647
 11
172.007
 21
43.8961
  0
LINE
  8
0
 10
172.007
 20
43.8961
 11
172.427
 21
43.43
  0
LINE
  8
0
 10
172.427
 20
43.43
 11
172.741
 21
42.8869
  0
LINE
  8
0
 10
172.741
 20
42.8869
 11
172.934
 21
42.2904
  0
LINE
  8
0
 10
172.934
 20
42.2904
 11
173
 21
41.6667
  0
LINE
  8
0
 10
173
 20
41.6667
 11
172.934
 21
41.0429
  0
LINE
  8
0
 10
172.934
 20
41.0429
 11
172.741
 21
40.4464
  0
LINE
  8
0
 10
172.741
 20
40.4464
 11
172.427
 21
39.9033
  0
LINE
  8
0
 10
172.427
 20
39.9033
 11
172.007
 21
39.4372
  0
LINE
  8
0
 10
172.007
 20
39.4372
 11
171.5
 21
39.0686
  0
LINE
  8
0
 10
171.5
 20
39.0686
 11
170.927
 21
38.8135
  0
LINE
  8
0
 10
170.927
 20
38.8135
 11
170.314
 21
38.6831
  0
LINE
  8
0
 10
170.314
 20
38.6831
 11
169.686
 21
38.6831
  0
LINE
  8
0
 10
490
 20
200
 11
250
 21
200
  0
LINE
  8
0
 10
250
 20
200
 11
250
 21
0
  0
LINE
  8
0
 10
250
 20
0
 11
490
 21
0
  0
LINE
  8
0
 10
490
 20
0
 11
490
 21
200
  0
LINE
  8
0
 10
284
 20
26
 11
284
 21
175.02
  0
LINE
  8
0
 10
284
 20
175.02
 11
310.21
 21
175.02
  0
LINE
  8
0
 10
310.21
 20
175.02
 11
310
 21
177.02
  0
LINE
  8
0
 10
310
 20
177.02
 11
310.219
 21
179.099
  0
LINE
  8
0
 10
310.219
 20
179.099
 11
310.865
 21
181.087
  0
LINE
  8
0
 10
310.865
 20
181.087
 11
311.91
 21
182.898
  0
LINE
  8
0
 10
311.91
 20
182.898
 11
313.309
 21
184.451
  0
LINE
  8
0
 10
313.309
 20
184.451
 11
315
 21
185.68
  0
LINE
  8
0
 10
315
 20
185.68
 11
316.91
 21
186.531
  0
LINE
  8
0
 10
316.91
 20
186.531
 11
318.955
 21
186.965
  0
LINE
  8
0
 10
318.955
 20
186.965
 11
321.045
 21
186.965
  0
LINE
  8
0
 10
321.045
 20
186.965
 11
323.09
 21
186.531
  0
LINE
  8
0
 10
323.09
 20
186.531
 11
325
 21
185.68
  0
LINE
  8
0
 10
325
 20
185.68
 11
326.691
 21
184.451
  0
LINE
  8
0
 10
326.691
 20
184.451
 11
328.09
 21
182.898
  0
LINE
  8
0
 10
328.09
 20
182.898
 11
329.135
 21
181.087
  0
LINE
  8
0
 10
329.135
 20
181.087
 11
329.781
 21
179.099
  0
LINE
  8
0
 10
329.781
 20
179.099
 11
330
 21
177.02
  0
LINE
  8
0
 10
330
 20
177.02
 11
329.79
 21
175.02
  0
LINE
  8
0
 10
329.79
 20
175.02
 11
381.61
 21
175.02
  0
LINE
  8
0
 10
381.61
 20
175.02
 11
381.61
 21
26
  0
LINE
  8
0
 10
381.61
 20
26
 11
284
 21
26
  0
LINE
  8
0
 10
419.686
 20
155.35
 11
419.073
 21
155.48
  0
LINE
  8
0
 10
419.073
 20
155.48
 11
418.5
 21
155.735
  0
LINE
  8
0
 10
418.5
 20
155.735
 11
417.993
 21
156.104
  0
LINE
  8
0
 10
417.993
 20
156.104
 11
417.573
 21
156.57
  0
LINE
  8
0
 10
417.573
 20
156.57
 11
417.259
 21
157.113
  0
LINE
  8
0
 10
417.259
 20
157.113
 11
417.066
 21
157.71
  0
LINE
  8
0
 10
417.066
 20
157.71
 11
417
 21
158.333
  0
LINE
  8
0
 10
417
 20
158.333
 11
417.066
 21
158.957
  0
LINE
  8
0
 10
417.066
 20
158.957
 11
417.259
 21
159.554
  0
LINE
  8
0
 10
417.259
 20
159.554
 11
417.573
 21
160.097
  0
LINE
  8
0
 10
417.573
 20
160.097
 11
417.993
 21
160.563
  0
LINE
  8
0
 10
417.993
 20
160.563
 11
418.5
 21
160.931
  0
LINE
  8
0
 10
418.5
 20
160.931
 11
419.073
 21
161.186
  0
LINE
  8
0
 10
419.073
 20
161.186
 11
419.686
 21
161.317
  0
LINE
  8
0
 10
419.686
 20
161.317
 11
420.314
 21
161.317
  0
LINE
  8
0
 10
420.314
 20
161.317
 11
420.927
 21
161.186
  0
LINE
  8
0
 10
420.927
 20
161.186
 11
421.5
 21
160.931
  0
LINE
  8
0
 10
421.5
 20
160.931
 11
422.007
 21
160.563
  0
LINE
  8
0
 10
422.007
 20
160.563
 11
422.427
 21
160.097
  0
LINE
  8
0
 10
422.427
 20
160.097
 11
422.741
 21
159.554
  0
LINE
  8
0
 10
422.741
 20
159.554
 11
422.934
 21
158.957
  0
LINE
  8
0
 10
422.934
 20
158.957
 11
423
 21
158.333
  0
LINE
  8
0
 10
423
 20
158.333
 11
422.934
 21
157.71
  0
LINE
  8
0
 10
422.934
 20
157.71
 11
422.741
 21
157.113
  0
LINE
  8
0
 10
422.741
 20
157.113
 11
422.427
 21
156.57
  0
LINE
  8
0
 10
422.427
 20
156.57
 11
422.007
 21
156.104
  0
LINE
  8
0
 10
422.007
 20
156.104
 11
421.5
 21
155.735
  0
LINE
  8
0
 10
421.5
 20
155.735
 11
420.927
 21
155.48
  0
LINE
  8
0
 10
420.927
 20
155.48
 11
420.314
 21
155.35
  0
LINE
  8
0
 10
420.314
 20
155.35
 11
419.686
 21
155.35
  0
LINE
  8
0
 10
469.686
 20
149.516
 11
469.073
 21
149.647
  0
LINE
  8
0
 10
469.073
 20
149.647
 11
468.5
 21
149.902
  0
LINE
  8
0
 10
468.5
 20
149.902
 11
467.993
 21
150.271
  0
LINE
  8
0
 10
467.993
 20
150.271
 11
467.573
 21
150.737
  0
LINE
  8
0
 10
467.573
 20
150.737
 11
467.259
 21
151.28
  0
LINE
  8
0
 10
467.259
 20
151.28
 11
467.066
 21
151.876
  0
LINE
  8
0
 10
467.066
 20
151.876
 11
467
 21
152.5
  0
LINE
  8
0
 10
467
 20
152.5
 11
467.066
 21
153.124
  0
LINE
  8
0
 10
467.066
 20
153.124
 11
467.259
 21
153.72
  0
LINE
  8
0
 10
467.259
 20
153.72
 11
467.573
 21
154.263
  0
LINE
  8
0
 10
467.573
 20
154.263
 11
467.993
 21
154.729
  0
LINE
  8
0
 10
467.993
 20
154.729
 11
468.5
 21
155.098
  0
LINE
  8
0
 10
468.5
 20
155.098
 11
469.073
 21
155.353
  0
LINE
  8
0
 10
469.073
 20
155.353
 11
469.686
 21
155.484
  0
LINE
  8
0
 10
469.686
 20
155.484
 11
470.314
 21
155.484
  0
LINE
  8
0
 10
470.314
 20
155.484
 11
470.927
 21
155.353
  0
LINE
  8
0
 10
470.927
 20
155.353
 11
471.5
 21
155.098
  0
LINE
  8
0
 10
471.5
 20
155.098
 11
472.007
 21
154.729
  0
LINE
  8
0
 10
472.007
 20
154.729
 11
472.427
 21
154.263
  0
LINE
  8
0
 10
472.427
 20
154.263
 11
472.741
 21
153.72
  0
LINE
  8
0
 10
472.741
 20
153.72
 11
472.934
 21
153.124
  0
LINE
  8
0
 10
472.934
 20
153.124
 11
473
 21
152.5
  0
LINE
  8
0
 10
473
 20
152.5
 11
472.934
 21
151.876
  0
LINE
  8
0
 10
472.934
 20
151.876
 11
472.741
 21
151.28
  0
LINE
  8
0
 10
472.741
 20
151.28
 11
472.427
 21
150.737
  0
LINE
  8
0
 10
472.427
 20
150.737
 11
472.007
 21
150.271
  0
LINE
  8
0
 10
472.007
 20
150.271
 11
471.5
 21
149.902
  0
LINE
  8
0
 10
471.5
 20
149.902
 11
470.927
 21
149.647
  0
LINE
  8
0
 10
470.927
 20
149.647
 11
470.314
 21
149.516
  0
LINE
  8
0
 10
470.314
 20
149.516
 11
469.686
 21
149.516
  0
LINE
  8
0
 10
269.686
 20
149.516
 11
269.073
 21
149.647
  0
LINE
  8
0
 10
269.073
 20
149.647
 11
268.5
 21
149.902
  0
LINE
  8
0
 10
268.5
 20
149.902
 11
267.993
 21
150.271
  0
LINE
  8
0
 10
267.993
 20
150.271
 11
267.573
 21
150.737
  0
LINE
  8
0
 10
267.573
 20
150.737
 11
267.259
 21
151.28
  0
LINE
  8
0
 10
267.259
 20
151.28
 11
267.066
 21
151.876
  0
LINE
  8
0
 10
267.066
 20
151.876
 11
267
 21
152.5
  0
LINE
  8
0
 10
267
 20
152.5
 11
267.066
 21
153.124
  0
LINE
  8
0
 10
267.066
 20
153.124
 11
267.259
 21
153.72
  0
LINE
  8
0
 10
267.259
 20
153.72
 11
267.573
 21
154.263
  0
LINE
  8
0
 10
267.573
 20
154.263
 11
267.993
 21
154.729
  0
LINE
  8
0
 10
267.993
 20
154.729
 11
268.5
 21
155.098
  0
LINE
  8
0
 10
268.5
 20
155.098
 11
269.073
 21
155.353
  0
LINE
  8
0
 10
269.073
 20
155.353
 11
269.686
 21
155.484
  0
LINE
  8
0
 10
269.686
 20
155.484
 11
270.314
 21
155.484
  0
LINE
  8
0
 10
270.314
 20
155.484
 11
270.927
 21
155.353
  0
LINE
  8
0
 10
270.927
 20
155.353
 11
271.5
 21
155.098
  0
LINE
  8
0
 10
271.5
 20
155.098
 11
272.007
 21
154.729
  0
LINE
  8
0
 10
272.007
 20
154.729
 11
272.427
 21
154.263
  0
LINE
  8
0
 10
272.427
 20
154.263
 11
272.741
 21
153.72
  0
LINE
  8
0
 10
272.741
 20
153.72
 11
272.934
 21
153.124
  0
LINE
  8
0
 10
272.934
 20
153.124
 11
273
 21
152.5
  0
LINE
  8
0
 10
273
 20
152.5
 11
272.934
 21
151.876
  0
LINE
  8
0
 10
272.934
 20
151.876
 11
272.741
 21
151.28
  0
LINE
  8
0
 10
272.741
 20
151.28
 11
272.427
 21
150.737
  0
LINE
  8
0
 10
272.427
 20
150.737
 11
272.007
 21
150.271
  0
LINE
  8
0
 10
272.007
 20
150.271
 11
271.5
 21
149.902
  0
LINE
  8
0
 10
271.5
 20
149.902
 11
270.927
 21
149.647
  0
LINE
  8
0
 10
270.927
 20
149.647
 11
270.314
 21
149.516
  0
LINE
  8
0
 10
270.314
 20
149.516
 11
269.686
 21
149.516
  0
LINE
  8
0
 10
419.686
 20
132.016
 11
419.073
 21
132.147
  0
LINE
  8
0
 10
419.073
 20
132.147
 11
418.5
 21
132.402
  0
LINE
  8
0
 10
418.5
 20
132.402
 11
417.993
 21
132.771
  0
LINE
  8
0
 10
417.993
 20
132.771
 11
417.573
 21
133.237
  0
LINE
  8
0
 10
417.573
 20
133.237
 11
417.259
 21
133.78
  0
LINE
  8
0
 10
417.259
 20
133.78
 11
417.066
 21
134.376
  0
LINE
  8
0
 10
417.066
 20
134.376
 11
417
 21
135
  0
LINE
  8
0
 10
417
 20
135
 11
417.066
 21
135.624
  0
LINE
  8
0
 10
417.066
 20
135.624
 11
417.259
 21
136.22
  0
LINE
  8
0
 10
417.259
 20
136.22
 11
417.573
 21
136.763
  0
LINE
  8
0
 10
417.573
 20
136.763
 11
417.993
 21
137.229
  0
LINE
  8
0
 10
417.993
 20
137.229
 11
418.5
 21
137.598
  0
LINE
  8
0
 10
418.5
 20
137.598
 11
419.073
 21
137.853
  0
LINE
  8
0
 10
419.073
 20
137.853
 11
419.686
 21
137.984
  0
LINE
  8
0
 10
419.686
 20
137.984
 11
420.314
 21
137.984
  0
LINE
  8
0
 10
420.314
 20
137.984
 11
420.927
 21
137.853
  0
LINE
  8
0
 10
420.927
 20
137.853
 11
421.5
 21
137.598
  0
LINE
  8
0
 10
421.5
 20
137.598
 11
422.007
 21
137.229
  0
LINE
  8
0
 10
422.007
 20
137.229
 11
422.427
 21
136.763
  0
LINE
  8
0
 10
422.427
 20
136.763
 11
422.741
 21
136.22
  0
LINE
  8
0
 10
422.741
 20
136.22
 11
422.934
 21
135.624
  0
LINE
  8
0
 10
422.934
 20
135.624
 11
423
 21
135
  0
LINE
  8
0
 10
423
 20
135
 11
422.934
 21
134.376
  0
LINE
  8
0
 10
422.934
 20
134.376
 11
422.741
 21
133.78
  0
LINE
  8
0
 10
422.741
 20
133.78
 11
422.427
 21
133.237
  0
LINE
  8
0
 10
422.427
 20
133.237
 11
422.007
 21
132.771
  0
LINE
  8
0
 10
422.007
 20
132.771
 11
421.5
 21
132.402
  0
LINE
  8
0
 10
421.5
 20
132.402
 11
420.927
 21
132.147
  0
LINE
  8
0
 10
420.927
 20
132.147
 11
420.314
 21
132.016
  0
LINE
  8
0
 10
420.314
 20
132.016
 11
419.686
 21
132.016
  0
LINE
  8
0
 10
269.686
 20
97.0164
 11
269.073
 21
97.1468
  0
LINE
  8
0
 10
269.073
 20
97.1468
 11
268.5
 21
97.4019
  0
LINE
  8
0
 10
268.5
 20
97.4019
 11
267.993
 21
97.7706
  0
LINE
  8
0
 10
267.993
 20
97.7706
 11
267.573
 21
98.2366
  0
LINE
  8
0
 10
267.573
 20
98.2366
 11
267.259
 21
98.7798
  0
LINE
  8
0
 10
267.259
 20
98.7798
 11
267.066
 21
99.3763
  0
LINE
  8
0
 10
267.066
 20
99.3763
 11
267
 21
100
  0
LINE
  8
0
 10
267
 20
100
 11
267.066
 21
100.624
  0
LINE
  8
0
 10
267.066
 20
100.624
 11
267.259
 21
101.22
  0
LINE
  8
0
 10
267.259
 20
101.22
 11
267.573
 21
101.763
  0
LINE
  8
0
 10
267.573
 20
101.763
 11
267.993
 21
102.229
  0
LINE
  8
0
 10
267.993
 20
102.229
 11
268.5
 21
102.598
  0
LINE
  8
0
 10
268.5
 20
102.598
 11
269.073
 21
102.853
  0
LINE
  8
0
 10
269.073
 20
102.853
 11
269.686
 21
102.984
  0
LINE
  8
0
 10
269.686
 20
102.984
 11
270.314
 21
102.984
  0
LINE
  8
0
 10
270.314
 20
102.984
 11
270.927
 21
102.853
  0
LINE
  8
0
 10
270.927
 20
102.853
 11
271.5
 21
102.598
  0
LINE
  8
0
 10
271.5
 20
102.598
 11
272.007
 21
102.229
  0
LINE
  8
0
 10
272.007
 20
102.229
 11
272.427
 21
101.763
  0
LINE
  8
0
 10
272.427
 20
101.763
 11
272.741
 21
101.22
  0
LINE
  8
0
 10
272.741
 20
101.22
 11
272.934
 21
100.624
  0
LINE
  8
0
 10
272.934
 20
100.624
 11
273
 21
100
  0
LINE
  8
0
 10
273
 20
100
 11
272.934
 21
99.3763
  0
LINE
  8
0
 10
272.934
 20
99.3763
 11
272.741
 21
98.7798
  0
LINE
  8
0
 10
272.741
 20
98.7798
 11
272.427
 21
98.2366
  0
LINE
  8
0
 10
272.427
 20
98.2366
 11
272.007
 21
97.7706
  0
LINE
  8
0
 10
272.007
 20
97.7706
 11
271.5
 21
97.4019
  0
LINE
  8
0
 10
271.5
 20
97.4019
 11
270.927
 21
97.1468
  0
LINE
  8
0
 10
270.927
 20
97.1468
 11
270.314
 21
97.0164
  0
LINE
  8
0
 10
270.314
 20
97.0164
 11
269.686
 21
97.0164
  0
LINE
  8
0
 10
469.686
 20
97.0164
 11
469.073
 21
97.1468
  0
LINE
  8
0
 10
469.073
 20
97.1468
 11
468.5
 21
97.4019
  0
LINE
  8
0
 10
468.5
 20
97.4019
 11
467.993
 21
97.7706
  0
LINE
  8
0
 10
467.993
 20
97.7706
 11
467.573
 21
98.2366
  0
LINE
  8
0
 10
467.573
 20
98.2366
 11
467.259
 21
98.7798
  0
LINE
  8
0
 10
467.259
 20
98.7798
 11
467.066
 21
99.3763
  0
LINE
  8
0
 10
467.066
 20
99.3763
 11
467
 21
100
  0
LINE
  8
0
 10
467
 20
100
 11
467.066
 21
100.624
  0
LINE
  8
0
 10
467.066
 20
100.624
 11
467.259
 21
101.22
  0
LINE
  8
0
 10
467.259
 20
101.22
 11
467.573
 21
101.763
  0
LINE
  8
0
 10
467.573
 20
101.763
 11
467.993
 21
102.229
  0
LINE
  8
0
 10
467.993
 20
102.229
 11
468.5
 21
102.598
  0
LINE
  8
0
 10
468.5
 20
102.598
 11
469.073
 21
102.853
  0
LINE
  8
0
 10
469.073
 20
102.853
 11
469.686
 21
102.984
  0
LINE
  8
0
 10
469.686
 20
102.984
 11
470.314
 21
102.984
  0
LINE
  8
0
 10
470.314
 20
102.984
 11
470.927
 21
102.853
  0
LINE
  8
0
 10
470.927
 20
102.853
 11
471.5
 21
102.598
  0
LINE
  8
0
 10
471.5
 20
102.598
 11
472.007
 21
102.229
  0
LINE
  8
0
 10
472.007
 20
102.229
 11
472.427
 21
101.763
  0
LINE
  8
0
 10
472.427
 20
101.763
 11
472.741
 21
101.22
  0
LINE
  8
0
 10
472.741
 20
101.22
 11
472.934
 21
100.624
  0
LINE
  8
0
 10
472.934
 20
100.624
 11
473
 21
100
  0
LINE
  8
0
 10
473
 20
100
 11
472.934
 21
99.3763
  0
LINE
  8
0
 10
472.934
 20
99.3763
 11
472.741
 21
98.7798
  0
LINE
  8
0
 10
472.741
 20
98.7798
 11
472.427
 21
98.2366
  0
LINE
  8
0
 10
472.427
 20
98.2366
 11
472.007
 21
97.7706
  0
LINE
  8
0
 10
472.007
 20
97.7706
 11
471.5
 21
97.4019
  0
LINE
  8
0
 10
471.5
 20
97.4019
 11
470.927
 21
97.1468
  0
LINE
  8
0
 10
470.927
 20
97.1468
 11
470.314
 21
97.0164
  0
LINE
  8
0
 10
470.314
 20
97.0164
 11
469.686
 21
97.0164
  0
LINE
  8
0
 10
419.686
 20
62.0164
 11
419.073
 21
62.1468
  0
LINE
  8
0
 10
419.073
 20
62.1468
 11
418.5
 21
62.4019
  0
LINE
  8
0
 10
418.5
 20
62.4019
 11
417.993
 21
62.7706
  0
LINE
  8
0
 10
417.993
 20
62.7706
 11
417.573
 21
63.2366
  0
LINE
  8
0
 10
417.573
 20
63.2366
 11
417.259
 21
63.7798
  0
LINE
  8
0
 10
417.259
 20
63.7798
 11
417.066
 21
64.3763
  0
LINE
  8
0
 10
417.066
 20
64.3763
 11
417
 21
65
  0
LINE
  8
0
 10
417
 20
65
 11
417.066
 21
65.6237
  0
LINE
  8
0
 10
417.066
 20
65.6237
 11
417.259
 21
66.2202
  0
LINE
  8
0
 10
417.259
 20
66.2202
 11
417.573
 21
66.7634
  0
LINE
  8
0
 10
417.573
 20
66.7634
 11
417.993
 21
67.2294
  0
LINE
  8
0
 10
417.993
 20
67.2294
 11
418.5
 21
67.5981
  0
LINE
  8
0
 10
418.5
 20
67.5981
 11
419.073
 21
67.8532
  0
LINE
  8
0
 10
419.073
 20
67.8532
 11
419.686
 21
67.9836
  0
LINE
  8
0
 10
419.686
 20
67.9836
 11
420.314
 21
67.9836
  0
LINE
  8
0
 10
420.314
 20
67.9836
 11
420.927
 21
67.8532
  0
LINE
  8
0
 10
420.927
 20
67.8532
 11
421.5
 21
67.5981
  0
LINE
  8
0
 10
421.5
 20
67.5981
 11
422.007
 21
67.2294
  0
LINE
  8
0
 10
422.007
 20
67.2294
 11
422.427
 21
66.7634
  0
LINE
  8
0
 10
422.427
 20
66.7634
 11
422.741
 21
66.2202
  0
LINE
  8
0
 10
422.741
 20
66.2202
 11
422.934
 21
65.6237
  0
LINE
  8
0
 10
422.934
 20
65.6237
 11
423
 21
65
  0
LINE
  8
0
 10
423
 20
65
 11
422.934
 21
64.3763
  0
LINE
  8
0
 10
422.934
 20
64.3763
 11
422.741
 21
63.7798
  0
LINE
  8
0
 10
422.741
 20
63.7798
 11
422.427
 21
63.2366
  0
LINE
  8
0
 10
422.427
 20
63.2366
 11
422.007
 21
62.7706
  0
LINE
  8
0
 10
422.007
 20
62.7706
 11
421.5
 21
62.4019
  0
LINE
  8
0
 10
421.5
 20
62.4019
 11
420.927
 21
62.1468
  0
LINE
  8
0
 10
420.927
 20
62.1468
 11
420.314
 21
62.0164
  0
LINE
  8
0
 10
420.314
 20
62.0164
 11
419.686
 21
62.0164
  0
LINE
  8
0
 10
269.686
 20
44.5164
 11
269.073
 21
44.6468
  0
LINE
  8
0
 10
269.073
 20
44.6468
 11
268.5
 21
44.9019
  0
LINE
  8
0
 10
268.5
 20
44.9019
 11
267.993
 21
45.2706
  0
LINE
  8
0
 10
267.993
 20
45.2706
 11
267.573
 21
45.7366
  0
LINE
  8
0
 10
267.573
 20
45.7366
 11
267.259
 21
46.2798
  0
LINE
  8
0
 10
267.259
 20
46.2798
 11
267.066
 21
46.8763
  0
LINE
  8
0
 10
267.066
 20
46.8763
 11
267
 21
47.5
  0
LINE
  8
0
 10
267
 20
47.5
 11
267.066
 21
48.1237
  0
LINE
  8
0
 10
267.066
 20
48.1237
 11
267.259
 21
48.7202
  0
LINE
  8
0
 10
267.259
 20
48.7202
 11
267.573
 21
49.2634
  0
LINE
  8
0
 10
267.573
 20
49.2634
 11
267.993
 21
49.7294
  0
LINE
  8
0
 10
267.993
 20
49.7294
 11
268.5
 21
50.0981
  0
LINE
  8
0
 10
268.5
 20
50.0981
 11
269.073
 21
50.3532
  0
LINE
  8
0
 10
269.073
 20
50.3532
 11
269.686
 21
50.4836
  0
LINE
  8
0
 10
269.686
 20
50.4836
 11
270.314
 21
50.4836
  0
LINE
  8
0
 10
270.314
 20
50.4836
 11
270.927
 21
50.3532
  0
LINE
  8
0
 10
270.927
 20
50.3532
 11
271.5
 21
50.0981
  0
LINE
  8
0
 10
271.5
 20
50.0981
 11
272.007
 21
49.7294
  0
LINE
  8
0
 10
272.007
 20
49.7294
 11
272.427
 21
49.2634
  0
LINE
  8
0
 10
272.427
 20
49.2634
 11
272.741
 21
48.7202
  0
LINE
  8
0
 10
272.741
 20
48.7202
 11
272.934
 21
48.1237
  0
LINE
  8
0
 10
272.934
 20
48.1237
 11
273
 21
47.5
  0
LINE
  8
0
 10
273
 20
47.5
 11
272.934
 21
46.8763
  0
LINE
  8
0
 10
272.934
 20
46.8763
 11
272.741
 21
46.2798
  0
LINE
  8
0
 10
272.741
 20
46.2798
 11
272.427
 21
45.7366
  0
LINE
  8
0
 10
272.427
 20
45.7366
 11
272.007
 21
45.2706
  0
LINE
  8
0
 10
272.007
 20
45.2706
 11
271.5
 21
44.9019
  0
LINE
  8
0
 10
271.5
 20
44.9019
 11
270.927
 21
44.6468
  0
LINE
  8
0
 10
270.927
 20
44.6468
 11
270.314
 21
44.5164
  0
LINE
  8
0
 10
270.314
 20
44.5164
 11
269.686
 21
44.5164
  0
LINE
  8
0
 10
469.686
 20
44.5164
 11
469.073
 21
44.6468
  0
LINE
  8
0
 10
469.073
 20
44.6468
 11
468.5
 21
44.9019
  0
LINE
  8
0
 10
468.5
 20
44.9019
 11
467.993
 21
45.2706
  0
LINE
  8
0
 10
467.993
 20
45.2706
 11
467.573
 21
45.7366
  0
LINE
  8
0
 10
467.573
 20
45.7366
 11
467.259
 21
46.2798
  0
LINE
  8
0
 10
467.259
 20
46.2798
 11
467.066
 21
46.8763
  0
LINE
  8
0
 10
467.066
 20
46.8763
 11
467
 21
47.5
  0
LINE
  8
0
 10
467
 20
47.5
 11
467.066
 21
48.1237
  0
LINE
  8
0
 10
467.066
 20
48.1237
 11
467.259
 21
48.7202
  0
LINE
  8
0
 10
467.259
 20
48.7202
 11
467.573
 21
49.2634
  0
LINE
  8
0
 10
467.573
 20
49.2634
 11
467.993
 21
49.7294
  0
LINE
  8
0
 10
467.993
 20
49.7294
 11
468.5
 21
50.0981
  0
LINE
  8
0
 10
468.5
 20
50.0981
 11
469.073
 21
50.3532
  0
LINE
  8
0
 10
469.073
 20
50.3532
 11
469.686
 21
50.4836
  0
LINE
  8
0
 10
469.686
 20
50.4836
 11
470.314
 21
50.4836
  0
LINE
  8
0
 10
470.314
 20
50.4836
 11
470.927
 21
50.3532
  0
LINE
  8
0
 10
470.927
 20
50.3532
 11
471.5
 21
50.0981
  0
LINE
  8
0
 10
471.5
 20
50.0981
 11
472.007
 21
49.7294
  0
LINE
  8
0
 10
472.007
 20
49.7294
 11
472.427
 21
49.2634
  0
LINE
  8
0
 10
472.427
 20
49.2634
 11
472.741
 21
48.7202
  0
LINE
  8
0
 10
472.741
 20
48.7202
 11
472.934
 21
48.1237
  0
LINE
  8
0
 10
472.934
 20
48.1237
 11
473
 21
47.5
  0
LINE
  8
0
 10
473
 20
47.5
 11
472.934
 21
46.8763
  0
LINE
  8
0
 10
472.934
 20
46.8763
 11
472.741
 21
46.2798
  0
LINE
  8
0
 10
472.741
 20
46.2798
 11
472.427
 21
45.7366
  0
LINE
  8
0
 10
472.427
 20
45.7366
 11
472.007
 21
45.2706
  0
LINE
  8
0
 10
472.007
 20
45.2706
 11
471.5
 21
44.9019
  0
LINE
  8
0
 10
471.5
 20
44.9019
 11
470.927
 21
44.6468
  0
LINE
  8
0
 10
470.927
 20
44.6468
 11
470.314
 21
44.5164
  0
LINE
  8
0
 10
470.314
 20
44.5164
 11
469.686
 21
44.5164
  0
LINE
  8
0
 10
419.686
 20
38.6831
 11
419.073
 21
38.8135
  0
LINE
  8
0
 10
419.073
 20
38.8135
 11
418.5
 21
39.0686
  0
LINE
  8
0
 10
418.5
 20
39.0686
 11
417.993
 21
39.4372
  0
LINE
  8
0
 10
417.993
 20
39.4372
 11
417.573
 21
39.9033
  0
LINE
  8
0
 10
417.573
 20
39.9033
 11
417.259
 21
40.4464
  0
LINE
  8
0
 10
417.259
 20
40.4464
 11
417.066
 21
41.0429
  0
LINE
  8
0
 10
417.066
 20
41.0429
 11
417
 21
41.6667
  0
LINE
  8
0
 10
417
 20
41.6667
 11
417.066
 21
42.2904
  0
LINE
  8
0
 10
417.066
 20
42.2904
 11
417.259
 21
42.8869
  0
LINE
  8
0
 10
417.259
 20
42.8869
 11
417.573
 21
43.43
  0
LINE
  8
0
 10
417.573
 20
43.43
 11
417.993
 21
43.8961
  0
LINE
  8
0
 10
417.993
 20
43.8961
 11
418.5
 21
44.2647
  0
LINE
  8
0
 10
418.5
 20
44.2647
 11
419.073
 21
44.5198
  0
LINE
  8
0
 10
419.073
 20
44.5198
 11
419.686
 21
44.6502
  0
LINE
  8
0
 10
419.686
 20
44.6502
 11
420.314
 21
44.6502
  0
LINE
  8
0
 10
420.314
 20
44.6502
 11
420.927
 21
44.5198
  0
LINE
  8
0
 10
420.927
 20
44.5198
 11
421.5
 21
44.2647
  0
LINE
  8
0
 10
421.5
 20
44.2647
 11
422.007
 21
43.8961
  0
LINE
  8
0
 10
422.007
 20
43.8961
 11
422.427
 21
43.43
  0
LINE
  8
0
 10
422.427
 20
43.43
 11
422.741
 21
42.8869
  0
LINE
  8
0
 10
422.741
 20
42.8869
 11
422.934
 21
42.2904
  0
LINE
  8
0
 10
422.934
 20
42.2904
 11
423
 21
41.6667
  0
LINE
  8
0
 10
423
 20
41.6667
 11
422.934
 21
41.0429
  0
LINE
  8
0
 10
422.934
 20
41.0429
 11
422.741
 21
40.4464
  0
LINE
  8
0
 10
422.741
 20
40.4464
 11
422.427
 21
39.9033
  0
LINE
  8
0
 10
422.427
 20
39.9033
 11
422.007
 21
39.4372
  0
LINE
  8
0
 10
422.007
 20
39.4372
 11
421.5
 21
39.0686
  0
LINE
  8
0
 10
421.5
 20
39.0686
 11
420.927
 21
38.8135
  0
LINE
  8
0
 10
420.927
 20
38.8135
 11
420.314
 21
38.6831
  0
LINE
  8
0
 10
420.314
 20
38.6831
 11
419.686
 21
38.6831
  0
ENDSEC
  0
SECTION
  2
OBJECTS
  0
DICTIONARY
  0
ENDSEC
  0
EOF
