  0
SECTION
  2
BLOCKS
  0
ENDSEC
  0
SECTION
  2
ENTITIES
  0
LINE
  8
0
 10
240
 20
200
 11
0
 21
200
  0
LINE
  8
0
 10
0
 20
200
 11
0
 21
0
  0
LINE
  8
0
 10
0
 20
0
 11
240
 21
0
  0
LINE
  8
0
 10
240
 20
0
 11
240
 21
200
  0
LINE
  8
0
 10
31.073
 20
21.1468
 11
29.573
 21
22.2366
  0
LINE
  8
0
 10
29.573
 20
22.2366
 11
29
 21
24
  0
LINE
  8
0
 10
29
 20
24
 11
29.573
 21
25.7634
  0
LINE
  8
0
 10
29.573
 20
25.7634
 11
31.073
 21
26.8532
  0
LINE
  8
0
 10
31.073
 20
26.8532
 11
32
 21
26.8532
  0
LINE
  8
0
 10
32
 20
26.8532
 11
32
 21
174.167
  0
LINE
  8
0
 10
32
 20
174.167
 11
31.073
 21
174.167
  0
LINE
  8
0
 10
31.073
 20
174.167
 11
29.573
 21
175.257
  0
LINE
  8
0
 10
29.573
 20
175.257
 11
29
 21
177.02
  0
LINE
  8
0
 10
29
 20
177.02
 11
29.573
 21
178.783
  0
LINE
  8
0
 10
29.573
 20
178.783
 11
31.073
 21
179.873
  0
LINE
  8
0
 10
31.073
 20
179.873
 11
32.927
 21
179.873
  0
LINE
  8
0
 10
32.927
 20
179.873
 11
34.427
 21
178.783
  0
LINE
  8
0
 10
34.427
 20
178.783
 11
35
 21
177.02
  0
LINE
  8
0
 10
35
 20
177.02
 11
62.5
 21
177.02
  0
LINE
  8
0
 10
62.5
 20
177.02
 11
62.7556
 21
178.961
  0
LINE
  8
0
 10
62.7556
 20
178.961
 11
63.5048
 21
180.77
  0
LINE
  8
0
 10
63.5048
 20
180.77
 11
64.6967
 21
182.323
  0
LINE
  8
0
 10
64.6967
 20
182.323
 11
66.25
 21
183.515
  0
LINE
  8
0
 10
66.25
 20
183.515
 11
68.0589
 21
184.264
  0
LINE
  8
0
 10
68.0589
 20
184.264
 11
70
 21
184.52
  0
LINE
  8
0
 10
70
 20
184.52
 11
71.9411
 21
184.264
  0
LINE
  8
0
 10
71.9411
 20
184.264
 11
73.75
 21
183.515
  0
LINE
  8
0
 10
73.75
 20
183.515
 11
75.3033
 21
182.323
  0
LINE
  8
0
 10
75.3033
 20
182.323
 11
76.4952
 21
180.77
  0
LINE
  8
0
 10
76.4952
 20
180.77
 11
77.2444
 21
178.961
  0
LINE
  8
0
 10
77.2444
 20
178.961
 11
77.5
 21
177.02
  0
LINE
  8
0
 10
77.5
 20
177.02
 11
130.61
 21
177.02
  0
LINE
  8
0
 10
130.61
 20
177.02
 11
131.183
 21
178.783
  0
LINE
  8
0
 10
131.183
 20
178.783
 11
132.683
 21
179.873
  0
LINE
  8
0
 10
132.683
 20
179.873
 11
134.537
 21
179.873
  0
LINE
  8
0
 10
134.537
 20
179.873
 11
136.037
 21
178.783
  0
LINE
  8
0
 10
136.037
 20
178.783
 11
136.61
 21
177.02
  0
LINE
  8
0
 10
136.61
 20
177.02
 11
136.037
 21
175.257
  0
LINE
  8
0
 10
136.037
 20
175.257
 11
134.537
 21
174.167
  0
LINE
  8
0
 10
134.537
 20
174.167
 11
133.61
 21
174.167
  0
LINE
  8
0
 10
133.61
 20
174.167
 11
133.61
 21
26.8532
  0
LINE
  8
0
 10
133.61
 20
26.8532
 11
134.537
 21
26.8532
  0
LINE
  8
0
 10
134.537
 20
26.8532
 11
136.037
 21
25.7634
  0
LINE
  8
0
 10
136.037
 20
25.7634
 11
136.61
 21
24
  0
LINE
  8
0
 10
136.61
 20
24
 11
136.037
 21
22.2366
  0
LINE
  8
0
 10
136.037
 20
22.2366
 11
134.537
 21
21.1468
  0
LINE
  8
0
 10
134.537
 20
21.1468
 11
132.683
 21
21.1468
  0
LINE
  8
0
 10
132.683
 20
21.1468
 11
131.183
 21
22.2366
  0
LINE
  8
0
 10
131.183
 20
22.2366
 11
130.61
 21
24
  0
LINE
  8
0
 10
130.61
 20
24
 11
35
 21
24
  0
LINE
  8
0
 10
35
 20
24
 11
34.427
 21
22.2366
  0
LINE
  8
0
 10
34.427
 20
22.2366
 11
32.927
 21
21.1468
  0
LINE
  8
0
 10
32.927
 20
21.1468
 11
31.073
 21
21.1468
  0
LINE
  8
0
 10
169.073
 20
155.48
 11
167.573
 21
156.57
  0
LINE
  8
0
 10
167.573
 20
156.57
 11
167
 21
158.333
  0
LINE
  8
0
 10
167
 20
158.333
 11
167.573
 21
160.097
  0
LINE
  8
0
 10
167.573
 20
160.097
 11
169.073
 21
161.186
  0
LINE
  8
0
 10
169.073
 20
161.186
 11
170.927
 21
161.186
  0
LINE
  8
0
 10
170.927
 20
161.186
 11
172.427
 21
160.097
  0
LINE
  8
0
 10
172.427
 20
160.097
 11
173
 21
158.333
  0
LINE
  8
0
 10
173
 20
158.333
 11
172.427
 21
156.57
  0
LINE
  8
0
 10
172.427
 20
156.57
 11
170.927
 21
155.48
  0
LINE
  8
0
 10
170.927
 20
155.48
 11
169.073
 21
155.48
  0
LINE
  8
0
 10
19.0729
 20
149.647
 11
17.5729
 21
150.737
  0
LINE
  8
0
 10
17.5729
 20
150.737
 11
17
 21
152.5
  0
LINE
  8
0
 10
17
 20
152.5
 11
17.5729
 21
154.263
  0
LINE
  8
0
 10
17.5729
 20
154.263
 11
19.0729
 21
155.353
  0
LINE
  8
0
 10
19.0729
 20
155.353
 11
20.927
 21
155.353
  0
LINE
  8
0
 10
20.927
 20
155.353
 11
22.427
 21
154.263
  0
LINE
  8
0
 10
22.427
 20
154.263
 11
23
 21
152.5
  0
LINE
  8
0
 10
23
 20
152.5
 11
22.427
 21
150.737
  0
LINE
  8
0
 10
22.427
 20
150.737
 11
20.927
 21
149.647
  0
LINE
  8
0
 10
20.927
 20
149.647
 11
19.0729
 21
149.647
  0
LINE
  8
0
 10
219.073
 20
149.647
 11
217.573
 21
150.737
  0
LINE
  8
0
 10
217.573
 20
150.737
 11
217
 21
152.5
  0
LINE
  8
0
 10
217
 20
152.5
 11
217.573
 21
154.263
  0
LINE
  8
0
 10
217.573
 20
154.263
 11
219.073
 21
155.353
  0
LINE
  8
0
 10
219.073
 20
155.353
 11
220.927
 21
155.353
  0
LINE
  8
0
 10
220.927
 20
155.353
 11
222.427
 21
154.263
  0
LINE
  8
0
 10
222.427
 20
154.263
 11
223
 21
152.5
  0
LINE
  8
0
 10
223
 20
152.5
 11
222.427
 21
150.737
  0
LINE
  8
0
 10
222.427
 20
150.737
 11
220.927
 21
149.647
  0
LINE
  8
0
 10
220.927
 20
149.647
 11
219.073
 21
149.647
  0
LINE
  8
0
 10
169.073
 20
132.147
 11
167.573
 21
133.237
  0
LINE
  8
0
 10
167.573
 20
133.237
 11
167
 21
135
  0
LINE
  8
0
 10
167
 20
135
 11
167.573
 21
136.763
  0
LINE
  8
0
 10
167.573
 20
136.763
 11
169.073
 21
137.853
  0
LINE
  8
0
 10
169.073
 20
137.853
 11
170.927
 21
137.853
  0
LINE
  8
0
 10
170.927
 20
137.853
 11
172.427
 21
136.763
  0
LINE
  8
0
 10
172.427
 20
136.763
 11
173
 21
135
  0
LINE
  8
0
 10
173
 20
135
 11
172.427
 21
133.237
  0
LINE
  8
0
 10
172.427
 20
133.237
 11
170.927
 21
132.147
  0
LINE
  8
0
 10
170.927
 20
132.147
 11
169.073
 21
132.147
  0
LINE
  8
0
 10
219.073
 20
97.1468
 11
217.573
 21
98.2366
  0
LINE
  8
0
 10
217.573
 20
98.2366
 11
217
 21
100
  0
LINE
  8
0
 10
217
 20
100
 11
217.573
 21
101.763
  0
LINE
  8
0
 10
217.573
 20
101.763
 11
219.073
 21
102.853
  0
LINE
  8
0
 10
219.073
 20
102.853
 11
220.927
 21
102.853
  0
LINE
  8
0
 10
220.927
 20
102.853
 11
222.427
 21
101.763
  0
LINE
  8
0
 10
222.427
 20
101.763
 11
223
 21
100
  0
LINE
  8
0
 10
223
 20
100
 11
222.427
 21
98.2366
  0
LINE
  8
0
 10
222.427
 20
98.2366
 11
220.927
 21
97.1468
  0
LINE
  8
0
 10
220.927
 20
97.1468
 11
219.073
 21
97.1468
  0
LINE
  8
0
 10
19.0729
 20
97.1468
 11
17.5729
 21
98.2366
  0
LINE
  8
0
 10
17.5729
 20
98.2366
 11
17
 21
100
  0
LINE
  8
0
 10
17
 20
100
 11
17.5729
 21
101.763
  0
LINE
  8
0
 10
17.5729
 20
101.763
 11
19.0729
 21
102.853
  0
LINE
  8
0
 10
19.0729
 20
102.853
 11
20.927
 21
102.853
  0
LINE
  8
0
 10
20.927
 20
102.853
 11
22.427
 21
101.763
  0
LINE
  8
0
 10
22.427
 20
101.763
 11
23
 21
100
  0
LINE
  8
0
 10
23
 20
100
 11
22.427
 21
98.2366
  0
LINE
  8
0
 10
22.427
 20
98.2366
 11
20.927
 21
97.1468
  0
LINE
  8
0
 10
20.927
 20
97.1468
 11
19.0729
 21
97.1468
  0
LINE
  8
0
 10
169.073
 20
62.1468
 11
167.573
 21
63.2366
  0
LINE
  8
0
 10
167.573
 20
63.2366
 11
167
 21
65
  0
LINE
  8
0
 10
167
 20
65
 11
167.573
 21
66.7634
  0
LINE
  8
0
 10
167.573
 20
66.7634
 11
169.073
 21
67.8532
  0
LINE
  8
0
 10
169.073
 20
67.8532
 11
170.927
 21
67.8532
  0
LINE
  8
0
 10
170.927
 20
67.8532
 11
172.427
 21
66.7634
  0
LINE
  8
0
 10
172.427
 20
66.7634
 11
173
 21
65
  0
LINE
  8
0
 10
173
 20
65
 11
172.427
 21
63.2366
  0
LINE
  8
0
 10
172.427
 20
63.2366
 11
170.927
 21
62.1468
  0
LINE
  8
0
 10
170.927
 20
62.1468
 11
169.073
 21
62.1468
  0
LINE
  8
0
 10
219.073
 20
44.6468
 11
217.573
 21
45.7366
  0
LINE
  8
0
 10
217.573
 20
45.7366
 11
217
 21
47.5
  0
LINE
  8
0
 10
217
 20
47.5
 11
217.573
 21
49.2634
  0
LINE
  8
0
 10
217.573
 20
49.2634
 11
219.073
 21
50.3532
  0
LINE
  8
0
 10
219.073
 20
50.3532
 11
220.927
 21
50.3532
  0
LINE
  8
0
 10
220.927
 20
50.3532
 11
222.427
 21
49.2634
  0
LINE
  8
0
 10
222.427
 20
49.2634
 11
223
 21
47.5
  0
LINE
  8
0
 10
223
 20
47.5
 11
222.427
 21
45.7366
  0
LINE
  8
0
 10
222.427
 20
45.7366
 11
220.927
 21
44.6468
  0
LINE
  8
0
 10
220.927
 20
44.6468
 11
219.073
 21
44.6468
  0
LINE
  8
0
 10
19.0729
 20
44.6468
 11
17.5729
 21
45.7366
  0
LINE
  8
0
 10
17.5729
 20
45.7366
 11
17
 21
47.5
  0
LINE
  8
0
 10
17
 20
47.5
 11
17.5729
 21
49.2634
  0
LINE
  8
0
 10
17.5729
 20
49.2634
 11
19.0729
 21
50.3532
  0
LINE
  8
0
 10
19.0729
 20
50.3532
 11
20.927
 21
50.3532
  0
LINE
  8
0
 10
20.927
 20
50.3532
 11
22.427
 21
49.2634
  0
LINE
  8
0
 10
22.427
 20
49.2634
 11
23
 21
47.5
  0
LINE
  8
0
 10
23
 20
47.5
 11
22.427
 21
45.7366
  0
LINE
  8
0
 10
22.427
 20
45.7366
 11
20.927
 21
44.6468
  0
LINE
  8
0
 10
20.927
 20
44.6468
 11
19.0729
 21
44.6468
  0
LINE
  8
0
 10
169.073
 20
38.8135
 11
167.573
 21
39.9033
  0
LINE
  8
0
 10
167.573
 20
39.9033
 11
167
 21
41.6667
  0
LINE
  8
0
 10
167
 20
41.6667
 11
167.573
 21
43.43
  0
LINE
  8
0
 10
167.573
 20
43.43
 11
169.073
 21
44.5198
  0
LINE
  8
0
 10
169.073
 20
44.5198
 11
170.927
 21
44.5198
  0
LINE
  8
0
 10
170.927
 20
44.5198
 11
172.427
 21
43.43
  0
LINE
  8
0
 10
172.427
 20
43.43
 11
173
 21
41.6667
  0
LINE
  8
0
 10
173
 20
41.6667
 11
172.427
 21
39.9033
  0
LINE
  8
0
 10
172.427
 20
39.9033
 11
170.927
 21
38.8135
  0
LINE
  8
0
 10
170.927
 20
38.8135
 11
169.073
 21
38.8135
  0
LINE
  8
0
 10
490
 20
200
 11
250
 21
200
  0
LINE
  8
0
 10
250
 20
200
 11
250
 21
0
  0
LINE
  8
0
 10
250
 20
0
 11
490
 21
0
  0
LINE
  8
0
 10
490
 20
0
 11
490
 21
200
  0
LINE
  8
0
 10
284
 20
26
 11
284
 21
175.02
  0
LINE
  8
0
 10
284
 20
175.02
 11
312.78
 21
175.02
  0
LINE
  8
0
 10
312.78
 20
175.02
 11
312.756
 21
175.079
  0
LINE
  8
0
 10
312.756
 20
175.079
 11
312.5
 21
177.02
  0
LINE
  8
0
 10
312.5
 20
177.02
 11
312.756
 21
178.961
  0
LINE
  8
0
 10
312.756
 20
178.961
 11
313.505
 21
180.77
  0
LINE
  8
0
 10
313.505
 20
180.77
 11
314.697
 21
182.323
  0
LINE
  8
0
 10
314.697
 20
182.323
 11
316.25
 21
183.515
  0
LINE
  8
0
 10
316.25
 20
183.515
 11
318.059
 21
184.264
  0
LINE
  8
0
 10
318.059
 20
184.264
 11
320
 21
184.52
  0
LINE
  8
0
 10
320
 20
184.52
 11
321.941
 21
184.264
  0
LINE
  8
0
 10
321.941
 20
184.264
 11
323.75
 21
183.515
  0
LINE
  8
0
 10
323.75
 20
183.515
 11
325.303
 21
182.323
  0
LINE
  8
0
 10
325.303
 20
182.323
 11
326.495
 21
180.77
  0
LINE
  8
0
 10
326.495
 20
180.77
 11
327.244
 21
178.961
  0
LINE
  8
0
 10
327.244
 20
178.961
 11
327.5
 21
177.02
  0
LINE
  8
0
 10
327.5
 20
177.02
 11
327.244
 21
175.079
  0
LINE
  8
0
 10
327.244
 20
175.079
 11
327.22
 21
175.02
  0
LINE
  8
0
 10
327.22
 20
175.02
 11
381.61
 21
175.02
  0
LINE
  8
0
 10
381.61
 20
175.02
 11
381.61
 21
26
  0
LINE
  8
0
 10
381.61
 20
26
 11
284
 21
26
  0
LINE
  8
0
 10
419.073
 20
155.48
 11
417.573
 21
156.57
  0
LINE
  8
0
 10
417.573
 20
156.57
 11
417
 21
158.333
  0
LINE
  8
0
 10
417
 20
158.333
 11
417.573
 21
160.097
  0
LINE
  8
0
 10
417.573
 20
160.097
 11
419.073
 21
161.186
  0
LINE
  8
0
 10
419.073
 20
161.186
 11
420.927
 21
161.186
  0
LINE
  8
0
 10
420.927
 20
161.186
 11
422.427
 21
160.097
  0
LINE
  8
0
 10
422.427
 20
160.097
 11
423
 21
158.333
  0
LINE
  8
0
 10
423
 20
158.333
 11
422.427
 21
156.57
  0
LINE
  8
0
 10
422.427
 20
156.57
 11
420.927
 21
155.48
  0
LINE
  8
0
 10
420.927
 20
155.48
 11
419.073
 21
155.48
  0
LINE
  8
0
 10
469.073
 20
149.647
 11
467.573
 21
150.737
  0
LINE
  8
0
 10
467.573
 20
150.737
 11
467
 21
152.5
  0
LINE
  8
0
 10
467
 20
152.5
 11
467.573
 21
154.263
  0
LINE
  8
0
 10
467.573
 20
154.263
 11
469.073
 21
155.353
  0
LINE
  8
0
 10
469.073
 20
155.353
 11
470.927
 21
155.353
  0
LINE
  8
0
 10
470.927
 20
155.353
 11
472.427
 21
154.263
  0
LINE
  8
0
 10
472.427
 20
154.263
 11
473
 21
152.5
  0
LINE
  8
0
 10
473
 20
152.5
 11
472.427
 21
150.737
  0
LINE
  8
0
 10
472.427
 20
150.737
 11
470.927
 21
149.647
  0
LINE
  8
0
 10
470.927
 20
149.647
 11
469.073
 21
149.647
  0
LINE
  8
0
 10
269.073
 20
149.647
 11
267.573
 21
150.737
  0
LINE
  8
0
 10
267.573
 20
150.737
 11
267
 21
152.5
  0
LINE
  8
0
 10
267
 20
152.5
 11
267.573
 21
154.263
  0
LINE
  8
0
 10
267.573
 20
154.263
 11
269.073
 21
155.353
  0
LINE
  8
0
 10
269.073
 20
155.353
 11
270.927
 21
155.353
  0
LINE
  8
0
 10
270.927
 20
155.353
 11
272.427
 21
154.263
  0
LINE
  8
0
 10
272.427
 20
154.263
 11
273
 21
152.5
  0
LINE
  8
0
 10
273
 20
152.5
 11
272.427
 21
150.737
  0
LINE
  8
0
 10
272.427
 20
150.737
 11
270.927
 21
149.647
  0
LINE
  8
0
 10
270.927
 20
149.647
 11
269.073
 21
149.647
  0
LINE
  8
0
 10
419.073
 20
132.147
 11
417.573
 21
133.237
  0
LINE
  8
0
 10
417.573
 20
133.237
 11
417
 21
135
  0
LINE
  8
0
 10
417
 20
135
 11
417.573
 21
136.763
  0
LINE
  8
0
 10
417.573
 20
136.763
 11
419.073
 21
137.853
  0
LINE
  8
0
 10
419.073
 20
137.853
 11
420.927
 21
137.853
  0
LINE
  8
0
 10
420.927
 20
137.853
 11
422.427
 21
136.763
  0
LINE
  8
0
 10
422.427
 20
136.763
 11
423
 21
135
  0
LINE
  8
0
 10
423
 20
135
 11
422.427
 21
133.237
  0
LINE
  8
0
 10
422.427
 20
133.237
 11
420.927
 21
132.147
  0
LINE
  8
0
 10
420.927
 20
132.147
 11
419.073
 21
132.147
  0
LINE
  8
0
 10
269.073
 20
97.1468
 11
267.573
 21
98.2366
  0
LINE
  8
0
 10
267.573
 20
98.2366
 11
267
 21
100
  0
LINE
  8
0
 10
267
 20
100
 11
267.573
 21
101.763
  0
LINE
  8
0
 10
267.573
 20
101.763
 11
269.073
 21
102.853
  0
LINE
  8
0
 10
269.073
 20
102.853
 11
270.927
 21
102.853
  0
LINE
  8
0
 10
270.927
 20
102.853
 11
272.427
 21
101.763
  0
LINE
  8
0
 10
272.427
 20
101.763
 11
273
 21
100
  0
LINE
  8
0
 10
273
 20
100
 11
272.427
 21
98.2366
  0
LINE
  8
0
 10
272.427
 20
98.2366
 11
270.927
 21
97.1468
  0
LINE
  8
0
 10
270.927
 20
97.1468
 11
269.073
 21
97.1468
  0
LINE
  8
0
 10
469.073
 20
97.1468
 11
467.573
 21
98.2366
  0
LINE
  8
0
 10
467.573
 20
98.2366
 11
467
 21
100
  0
LINE
  8
0
 10
467
 20
100
 11
467.573
 21
101.763
  0
LINE
  8
0
 10
467.573
 20
101.763
 11
469.073
 21
102.853
  0
LINE
  8
0
 10
469.073
 20
102.853
 11
470.927
 21
102.853
  0
LINE
  8
0
 10
470.927
 20
102.853
 11
472.427
 21
101.763
  0
LINE
  8
0
 10
472.427
 20
101.763
 11
473
 21
100
  0
LINE
  8
0
 10
473
 20
100
 11
472.427
 21
98.2366
  0
LINE
  8
0
 10
472.427
 20
98.2366
 11
470.927
 21
97.1468
  0
LINE
  8
0
 10
470.927
 20
97.1468
 11
469.073
 21
97.1468
  0
LINE
  8
0
 10
419.073
 20
62.1468
 11
417.573
 21
63.2366
  0
LINE
  8
0
 10
417.573
 20
63.2366
 11
417
 21
65
  0
LINE
  8
0
 10
417
 20
65
 11
417.573
 21
66.7634
  0
LINE
  8
0
 10
417.573
 20
66.7634
 11
419.073
 21
67.8532
  0
LINE
  8
0
 10
419.073
 20
67.8532
 11
420.927
 21
67.8532
  0
LINE
  8
0
 10
420.927
 20
67.8532
 11
422.427
 21
66.7634
  0
LINE
  8
0
 10
422.427
 20
66.7634
 11
423
 21
65
  0
LINE
  8
0
 10
423
 20
65
 11
422.427
 21
63.2366
  0
LINE
  8
0
 10
422.427
 20
63.2366
 11
420.927
 21
62.1468
  0
LINE
  8
0
 10
420.927
 20
62.1468
 11
419.073
 21
62.1468
  0
LINE
  8
0
 10
269.073
 20
44.6468
 11
267.573
 21
45.7366
  0
LINE
  8
0
 10
267.573
 20
45.7366
 11
267
 21
47.5
  0
LINE
  8
0
 10
267
 20
47.5
 11
267.573
 21
49.2634
  0
LINE
  8
0
 10
267.573
 20
49.2634
 11
269.073
 21
50.3532
  0
LINE
  8
0
 10
269.073
 20
50.3532
 11
270.927
 21
50.3532
  0
LINE
  8
0
 10
270.927
 20
50.3532
 11
272.427
 21
49.2634
  0
LINE
  8
0
 10
272.427
 20
49.2634
 11
273
 21
47.5
  0
LINE
  8
0
 10
273
 20
47.5
 11
272.427
 21
45.7366
  0
LINE
  8
0
 10
272.427
 20
45.7366
 11
270.927
 21
44.6468
  0
LINE
  8
0
 10
270.927
 20
44.6468
 11
269.073
 21
44.6468
  0
LINE
  8
0
 10
469.073
 20
44.6468
 11
467.573
 21
45.7366
  0
LINE
  8
0
 10
467.573
 20
45.7366
 11
467
 21
47.5
  0
LINE
  8
0
 10
467
 20
47.5
 11
467.573
 21
49.2634
  0
LINE
  8
0
 10
467.573
 20
49.2634
 11
469.073
 21
50.3532
  0
LINE
  8
0
 10
469.073
 20
50.3532
 11
470.927
 21
50.3532
  0
LINE
  8
0
 10
470.927
 20
50.3532
 11
472.427
 21
49.2634
  0
LINE
  8
0
 10
472.427
 20
49.2634
 11
473
 21
47.5
  0
LINE
  8
0
 10
473
 20
47.5
 11
472.427
 21
45.7366
  0
LINE
  8
0
 10
472.427
 20
45.7366
 11
470.927
 21
44.6468
  0
LINE
  8
0
 10
470.927
 20
44.6468
 11
469.073
 21
44.6468
  0
LINE
  8
0
 10
419.073
 20
38.8135
 11
417.573
 21
39.9033
  0
LINE
  8
0
 10
417.573
 20
39.9033
 11
417
 21
41.6667
  0
LINE
  8
0
 10
417
 20
41.6667
 11
417.573
 21
43.43
  0
LINE
  8
0
 10
417.573
 20
43.43
 11
419.073
 21
44.5198
  0
LINE
  8
0
 10
419.073
 20
44.5198
 11
420.927
 21
44.5198
  0
LINE
  8
0
 10
420.927
 20
44.5198
 11
422.427
 21
43.43
  0
LINE
  8
0
 10
422.427
 20
43.43
 11
423
 21
41.6667
  0
LINE
  8
0
 10
423
 20
41.6667
 11
422.427
 21
39.9033
  0
LINE
  8
0
 10
422.427
 20
39.9033
 11
420.927
 21
38.8135
  0
LINE
  8
0
 10
420.927
 20
38.8135
 11
419.073
 21
38.8135
  0
ENDSEC
  0
SECTION
  2
OBJECTS
  0
DICTIONARY
  0
ENDSEC
  0
EOF
