  0
SECTION
  2
HEADER
  9
$ACADVER
  1
AC1014
  9
$HANDSEED
  5
FFFF
  9
$MEASUREMENT
 70
     1
  0
ENDSEC
  0
SECTION
  2
TABLES
  0
TABLE
  2
VPORT
  5
8
330
0
100
AcDbSymbolTable
 70
     4
  0
VPORT
  5
2E
330
8
100
AcDbSymbolTableRecord
100
AcDbViewportTableRecord
  2
*ACTIVE
 70
     0
 10
0.0
 20
0.0
 11
1.0
 21
1.0
 12
210.0
 22
148.5
 13
0.0
 23
0.0
 14
10.0
 24
10.0
 15
10.0
 25
10.0
 16
0.0
 26
0.0
 36
1.0
 17
0.0
 27
0.0
 37
0.0
 40
341.0
 41
1.24
 42
50.0
 43
0.0
 44
0.0
 50
0.0
 51
0.0
 71
     0
 72
   100
 73
     1
 74
     3
 75
     0
 76
     0
 77
     0
 78
     0
  0
ENDTAB
  0
TABLE
  2
LTYPE
  5
5
330
0
100
AcDbSymbolTable
 70
     1
  0
LTYPE
  5
14
330
5
100
AcDbSymbolTableRecord
100
AcDbLinetypeTableRecord
  2
BYBLOCK
 70
     0
  3

 72
    65
 73
     0
 40
0.0
  0
LTYPE
  5
15
330
5
100
AcDbSymbolTableRecord
100
AcDbLinetypeTableRecord
  2
BYLAYER
 70
     0
  3

 72
    65
 73
     0
 40
0.0
  0
LTYPE
  5
16
330
5
100
AcDbSymbolTableRecord
100
AcDbLinetypeTableRecord
  2
CONTINUOUS
 70
     0
  3
Solid line
 72
    65
 73
     0
 40
0.0
  0
ENDTAB
  0
TABLE
  2
LAYER
  5
2
100
AcDbSymbolTable
 70
4
  0
LAYER
  5
50
100
AcDbSymbolTableRecord
100
AcDbLayerTableRecord
  2
0
 70
0
  6
CONTINUOUS
  0
LAYER
  5
51
100
AcDbSymbolTableRecord
100
AcDbLayerTableRecord
  2
base_layer
 70
0
  6
CONTINUOUS
  0
LAYER
  5
52
100
AcDbSymbolTableRecord
100
AcDbLayerTableRecord
  2
x_layer
 70
0
  6
CONTINUOUS
  0
LAYER
  5
53
100
AcDbSymbolTableRecord
100
AcDbLayerTableRecord
  2
y_layer
 70
0
  6
CONTINUOUS
  0
ENDTAB
  0
TABLE
  2
STYLE
  5
3
330
0
100
AcDbSymbolTable
 70
     1
  0
STYLE
  5
11
330
3
100
AcDbSymbolTableRecord
100
AcDbTextStyleTableRecord
  2
STANDARD
 70
     0
 40
0.0
 41
1.0
 50
0.0
 71
     0
 42
2.5
  3
txt
  4

  0
ENDTAB
  0
TABLE
  2
VIEW
  5
6
330
0
100
AcDbSymbolTable
 70
     0
  0
ENDTAB
  0
TABLE
  2
UCS
  5
7
330
0
100
AcDbSymbolTable
 70
     0
  0
ENDTAB
  0
TABLE
  2
APPID
  5
9
330
0
100
AcDbSymbolTable
 70
     2
  0
APPID
  5
12
330
9
100
AcDbSymbolTableRecord
100
AcDbRegAppTableRecord
  2
ACAD
 70
     0
  0
ENDTAB
  0
TABLE
  2
DIMSTYLE
  5
A
330
0
100
AcDbSymbolTable
 70
     1
  0
DIMSTYLE
105
27
330
A
100
AcDbSymbolTableRecord
100
AcDbDimStyleTableRecord
  2
ISO-25
 70
     0
  3

  4

  5

  6

  7

 40
1.0
 41
2.5
 42
0.625
 43
3.75
 44
1.25
 45
0.0
 46
0.0
 47
0.0
 48
0.0
140
2.5
141
2.5
142
0.0
143
0.03937007874016
144
1.0
145
0.0
146
1.0
147
0.625
 71
     0
 72
     0
 73
     0
 74
     0
 75
     0
 76
     0
 77
     1
 78
     8
170
     0
171
     3
172
     1
173
     0
174
     0
175
     0
176
     0
177
     0
178
     0
270
     2
271
     2
272
     2
273
     2
274
     3
340
11
275
     0
280
     0
281
     0
282
     0
283
     0
284
     8
285
     0
286
     0
287
     3
288
     0
  0
ENDTAB
  0
TABLE
  2
BLOCK_RECORD
  5
1
330
0
100
AcDbSymbolTable
 70
     1
  0
BLOCK_RECORD
  5
1F
330
1
100
AcDbSymbolTableRecord
100
AcDbBlockTableRecord
  2
*MODEL_SPACE
  0
BLOCK_RECORD
  5
1B
330
1
100
AcDbSymbolTableRecord
100
AcDbBlockTableRecord
  2
*PAPER_SPACE
  0
ENDTAB
  0
ENDSEC
  0
SECTION
  2
BLOCKS
  0
BLOCK
  5
20
330
1F
100
AcDbEntity
  8
0
100
AcDbBlockBegin
  2
*MODEL_SPACE
 70
     0
 10
0.0
 20
0.0
 30
0.0
  3
*MODEL_SPACE
  1

  0
ENDBLK
  5
21
330
1F
100
AcDbEntity
  8
0
100
AcDbBlockEnd
  0
BLOCK
  5
1C
330
1B
100
AcDbEntity
 67
     1
  8
0
100
AcDbBlockBegin
  2
*PAPER_SPACE
  1

  0
ENDBLK
  5
1D
330
1B
100
AcDbEntity
 67
     1
  8
0
100
AcDbBlockEnd
  0
ENDSEC
  0
SECTION
  2
ENTITIES
  0
LWPOLYLINE
  5
100
100
AcDbEntity
  8
base_layer
 62
7
100
AcDbPolyline
 90
29
 70
0
 10
0.141111
 20
75.141117
 30
0.0
 10
0.141111
 20
125.141116
 30
0.0
 10
26.141111
 20
125.141116
 30
0.0
 10
26.141111
 20
200.141115
 30
0.0
 10
65.641110
 20
200.141115
 30
0.0
 10
65.641110
 20
125.141116
 30
0.0
 10
75.641110
 20
125.141116
 30
0.0
 10
75.641110
 20
200.141115
 30
0.0
 10
165.641110
 20
200.141115
 30
0.0
 10
165.641110
 20
125.141116
 30
0.0
 10
175.641110
 20
125.141116
 30
0.0
 10
175.641110
 20
200.141115
 30
0.0
 10
215.141110
 20
200.141115
 30
0.0
 10
215.141110
 20
125.141116
 30
0.0
 10
240.141111
 20
125.141116
 30
0.0
 10
240.141111
 20
75.141117
 30
0.0
 10
215.141110
 20
75.141117
 30
0.0
 10
215.141110
 20
0.141117
 30
0.0
 10
175.641110
 20
0.141117
 30
0.0
 10
175.641110
 20
75.141117
 30
0.0
 10
165.641110
 20
75.141117
 30
0.0
 10
165.641110
 20
0.141117
 30
0.0
 10
75.641110
 20
0.141117
 30
0.0
 10
75.641110
 20
75.141117
 30
0.0
 10
65.641110
 20
75.141117
 30
0.0
 10
65.641110
 20
0.141117
 30
0.0
 10
26.141111
 20
0.141117
 30
0.0
 10
26.141111
 20
75.141117
 30
0.0
 10
0.141111
 20
75.141117
 30
0.0
  0
LWPOLYLINE
  5
101
100
AcDbEntity
  8
base_layer
 62
7
100
AcDbPolyline
 90
61
 70
0
 10
43.891110
 20
15.141116
 30
0.0
 10
43.902116
 20
15.350115
 30
0.0
 10
43.935111
 20
15.557117
 30
0.0
 10
43.989111
 20
15.759117
 30
0.0
 10
44.064112
 20
15.954116
 30
0.0
 10
44.159111
 20
16.141116
 30
0.0
 10
44.273112
 20
16.317116
 30
0.0
 10
44.405110
 20
16.479117
 30
0.0
 10
44.553110
 20
16.627117
 30
0.0
 10
44.715111
 20
16.759115
 30
0.0
 10
44.891111
 20
16.873116
 30
0.0
 10
45.078111
 20
16.968115
 30
0.0
 10
45.273110
 20
17.043116
 30
0.0
 10
45.475110
 20
17.097116
 30
0.0
 10
45.682112
 20
17.130116
 30
0.0
 10
45.891111
 20
17.141123
 30
0.0
 10
46.100111
 20
17.130111
 30
0.0
 10
46.307113
 20
17.097116
 30
0.0
 10
46.509110
 20
17.043116
 30
0.0
 10
46.704112
 20
16.968115
 30
0.0
 10
46.891112
 20
16.873116
 30
0.0
 10
47.067112
 20
16.759115
 30
0.0
 10
47.229110
 20
16.627117
 30
0.0
 10
47.377110
 20
16.479117
 30
0.0
 10
47.509111
 20
16.317116
 30
0.0
 10
47.623112
 20
16.141116
 30
0.0
 10
47.718111
 20
15.954116
 30
0.0
 10
47.793111
 20
15.759117
 30
0.0
 10
47.847112
 20
15.557117
 30
0.0
 10
47.880112
 20
15.350115
 30
0.0
 10
47.891119
 20
15.141116
 30
0.0
 10
47.880103
 20
14.932116
 30
0.0
 10
47.847112
 20
14.725120
 30
0.0
 10
47.793111
 20
14.523105
 30
0.0
 10
47.718111
 20
14.328118
 30
0.0
 10
47.623112
 20
14.141118
 30
0.0
 10
47.509111
 20
13.965124
 30
0.0
 10
47.377110
 20
13.803128
 30
0.0
 10
47.229110
 20
13.655103
 30
0.0
 10
47.067112
 20
13.523107
 30
0.0
 10
46.891112
 20
13.409118
 30
0.0
 10
46.704112
 20
13.314122
 30
0.0
 10
46.509110
 20
13.239107
 30
0.0
 10
46.307113
 20
13.185118
 30
0.0
 10
46.100111
 20
13.152126
 30
0.0
 10
45.891111
 20
13.141120
 30
0.0
 10
45.682112
 20
13.152126
 30
0.0
 10
45.475110
 20
13.185118
 30
0.0
 10
45.273110
 20
13.239107
 30
0.0
 10
45.078111
 20
13.314122
 30
0.0
 10
44.891111
 20
13.409118
 30
0.0
 10
44.715111
 20
13.523107
 30
0.0
 10
44.553110
 20
13.655103
 30
0.0
 10
44.405110
 20
13.803128
 30
0.0
 10
44.273112
 20
13.965124
 30
0.0
 10
44.159111
 20
14.141118
 30
0.0
 10
44.064112
 20
14.328118
 30
0.0
 10
43.989111
 20
14.523105
 30
0.0
 10
43.935111
 20
14.725120
 30
0.0
 10
43.902111
 20
14.932116
 30
0.0
 10
43.891104
 20
15.141116
 30
0.0
  0
LWPOLYLINE
  5
102
100
AcDbEntity
  8
base_layer
 62
7
100
AcDbPolyline
 90
61
 70
0
 10
43.891110
 20
185.141117
 30
0.0
 10
43.902116
 20
185.350117
 30
0.0
 10
43.935111
 20
185.557115
 30
0.0
 10
43.989111
 20
185.759116
 30
0.0
 10
44.064112
 20
185.954115
 30
0.0
 10
44.159111
 20
186.141115
 30
0.0
 10
44.273112
 20
186.317117
 30
0.0
 10
44.405110
 20
186.479116
 30
0.0
 10
44.553110
 20
186.627116
 30
0.0
 10
44.715111
 20
186.759117
 30
0.0
 10
44.891111
 20
186.873115
 30
0.0
 10
45.078111
 20
186.968116
 30
0.0
 10
45.273110
 20
187.043117
 30
0.0
 10
45.475110
 20
187.097115
 30
0.0
 10
45.682112
 20
187.130115
 30
0.0
 10
45.891111
 20
187.141122
 30
0.0
 10
46.100111
 20
187.130109
 30
0.0
 10
46.307113
 20
187.097115
 30
0.0
 10
46.509110
 20
187.043117
 30
0.0
 10
46.704112
 20
186.968116
 30
0.0
 10
46.891112
 20
186.873115
 30
0.0
 10
47.067112
 20
186.759117
 30
0.0
 10
47.229110
 20
186.627116
 30
0.0
 10
47.377110
 20
186.479116
 30
0.0
 10
47.509111
 20
186.317117
 30
0.0
 10
47.623112
 20
186.141115
 30
0.0
 10
47.718111
 20
185.954115
 30
0.0
 10
47.793111
 20
185.759116
 30
0.0
 10
47.847112
 20
185.557115
 30
0.0
 10
47.880112
 20
185.350117
 30
0.0
 10
47.891119
 20
185.141117
 30
0.0
 10
47.880103
 20
184.932117
 30
0.0
 10
47.847112
 20
184.725116
 30
0.0
 10
47.793111
 20
184.523115
 30
0.0
 10
47.718111
 20
184.328117
 30
0.0
 10
47.623112
 20
184.141116
 30
0.0
 10
47.509111
 20
183.965117
 30
0.0
 10
47.377110
 20
183.803116
 30
0.0
 10
47.229110
 20
183.655115
 30
0.0
 10
47.067112
 20
183.523117
 30
0.0
 10
46.891112
 20
183.409116
 30
0.0
 10
46.704112
 20
183.314115
 30
0.0
 10
46.509110
 20
183.239117
 30
0.0
 10
46.307113
 20
183.185117
 30
0.0
 10
46.100111
 20
183.152116
 30
0.0
 10
45.891111
 20
183.141110
 30
0.0
 10
45.682112
 20
183.152122
 30
0.0
 10
45.475110
 20
183.185117
 30
0.0
 10
45.273110
 20
183.239117
 30
0.0
 10
45.078111
 20
183.314115
 30
0.0
 10
44.891111
 20
183.409116
 30
0.0
 10
44.715111
 20
183.523117
 30
0.0
 10
44.553110
 20
183.655115
 30
0.0
 10
44.405110
 20
183.803116
 30
0.0
 10
44.273112
 20
183.965117
 30
0.0
 10
44.159111
 20
184.141116
 30
0.0
 10
44.064112
 20
184.328117
 30
0.0
 10
43.989111
 20
184.523115
 30
0.0
 10
43.935111
 20
184.725116
 30
0.0
 10
43.902111
 20
184.932117
 30
0.0
 10
43.891104
 20
185.141117
 30
0.0
  0
LWPOLYLINE
  5
103
100
AcDbEntity
  8
base_layer
 62
7
100
AcDbPolyline
 90
61
 70
0
 10
118.641111
 20
15.141116
 30
0.0
 10
118.652118
 20
15.350115
 30
0.0
 10
118.685112
 20
15.557117
 30
0.0
 10
118.739110
 20
15.759117
 30
0.0
 10
118.814111
 20
15.954116
 30
0.0
 10
118.909112
 20
16.141116
 30
0.0
 10
119.023110
 20
16.317116
 30
0.0
 10
119.155111
 20
16.479117
 30
0.0
 10
119.303111
 20
16.627117
 30
0.0
 10
119.465113
 20
16.759115
 30
0.0
 10
119.641112
 20
16.873116
 30
0.0
 10
119.828112
 20
16.968115
 30
0.0
 10
120.023111
 20
17.043116
 30
0.0
 10
120.225112
 20
17.097116
 30
0.0
 10
120.432110
 20
17.130116
 30
0.0
 10
120.641110
 20
17.141123
 30
0.0
 10
120.850110
 20
17.130111
 30
0.0
 10
121.057111
 20
17.097116
 30
0.0
 10
121.259112
 20
17.043116
 30
0.0
 10
121.454110
 20
16.968115
 30
0.0
 10
121.641111
 20
16.873116
 30
0.0
 10
121.817110
 20
16.759115
 30
0.0
 10
121.979111
 20
16.627117
 30
0.0
 10
122.127112
 20
16.479117
 30
0.0
 10
122.259110
 20
16.317116
 30
0.0
 10
122.373111
 20
16.141116
 30
0.0
 10
122.468112
 20
15.954116
 30
0.0
 10
122.543110
 20
15.759117
 30
0.0
 10
122.597110
 20
15.557117
 30
0.0
 10
122.630111
 20
15.350115
 30
0.0
 10
122.641117
 20
15.141116
 30
0.0
 10
122.630105
 20
14.932116
 30
0.0
 10
122.597110
 20
14.725120
 30
0.0
 10
122.543110
 20
14.523105
 30
0.0
 10
122.468112
 20
14.328118
 30
0.0
 10
122.373111
 20
14.141118
 30
0.0
 10
122.259110
 20
13.965124
 30
0.0
 10
122.127112
 20
13.803128
 30
0.0
 10
121.979111
 20
13.655103
 30
0.0
 10
121.817110
 20
13.523107
 30
0.0
 10
121.641111
 20
13.409118
 30
0.0
 10
121.454110
 20
13.314122
 30
0.0
 10
121.259112
 20
13.239107
 30
0.0
 10
121.057111
 20
13.185118
 30
0.0
 10
120.850110
 20
13.152126
 30
0.0
 10
120.641110
 20
13.141120
 30
0.0
 10
120.432110
 20
13.152126
 30
0.0
 10
120.225112
 20
13.185118
 30
0.0
 10
120.023111
 20
13.239107
 30
0.0
 10
119.828112
 20
13.314122
 30
0.0
 10
119.641112
 20
13.409118
 30
0.0
 10
119.465113
 20
13.523107
 30
0.0
 10
119.303111
 20
13.655103
 30
0.0
 10
119.155111
 20
13.803128
 30
0.0
 10
119.023110
 20
13.965124
 30
0.0
 10
118.909112
 20
14.141118
 30
0.0
 10
118.814111
 20
14.328118
 30
0.0
 10
118.739110
 20
14.523105
 30
0.0
 10
118.685112
 20
14.725120
 30
0.0
 10
118.652112
 20
14.932116
 30
0.0
 10
118.641106
 20
15.141116
 30
0.0
  0
LWPOLYLINE
  5
104
100
AcDbEntity
  8
base_layer
 62
7
100
AcDbPolyline
 90
61
 70
0
 10
118.641111
 20
185.141117
 30
0.0
 10
118.652118
 20
185.350117
 30
0.0
 10
118.685112
 20
185.557115
 30
0.0
 10
118.739110
 20
185.759116
 30
0.0
 10
118.814111
 20
185.954115
 30
0.0
 10
118.909112
 20
186.141115
 30
0.0
 10
119.023110
 20
186.317117
 30
0.0
 10
119.155111
 20
186.479116
 30
0.0
 10
119.303111
 20
186.627116
 30
0.0
 10
119.465113
 20
186.759117
 30
0.0
 10
119.641112
 20
186.873115
 30
0.0
 10
119.828112
 20
186.968116
 30
0.0
 10
120.023111
 20
187.043117
 30
0.0
 10
120.225112
 20
187.097115
 30
0.0
 10
120.432110
 20
187.130115
 30
0.0
 10
120.641110
 20
187.141122
 30
0.0
 10
120.850110
 20
187.130109
 30
0.0
 10
121.057111
 20
187.097115
 30
0.0
 10
121.259112
 20
187.043117
 30
0.0
 10
121.454110
 20
186.968116
 30
0.0
 10
121.641111
 20
186.873115
 30
0.0
 10
121.817110
 20
186.759117
 30
0.0
 10
121.979111
 20
186.627116
 30
0.0
 10
122.127112
 20
186.479116
 30
0.0
 10
122.259110
 20
186.317117
 30
0.0
 10
122.373111
 20
186.141115
 30
0.0
 10
122.468112
 20
185.954115
 30
0.0
 10
122.543110
 20
185.759116
 30
0.0
 10
122.597110
 20
185.557115
 30
0.0
 10
122.630111
 20
185.350117
 30
0.0
 10
122.641117
 20
185.141117
 30
0.0
 10
122.630105
 20
184.932117
 30
0.0
 10
122.597110
 20
184.725116
 30
0.0
 10
122.543110
 20
184.523115
 30
0.0
 10
122.468112
 20
184.328117
 30
0.0
 10
122.373111
 20
184.141116
 30
0.0
 10
122.259110
 20
183.965117
 30
0.0
 10
122.127112
 20
183.803116
 30
0.0
 10
121.979111
 20
183.655115
 30
0.0
 10
121.817110
 20
183.523117
 30
0.0
 10
121.641111
 20
183.409116
 30
0.0
 10
121.454110
 20
183.314115
 30
0.0
 10
121.259112
 20
183.239117
 30
0.0
 10
121.057111
 20
183.185117
 30
0.0
 10
120.850110
 20
183.152116
 30
0.0
 10
120.641110
 20
183.141110
 30
0.0
 10
120.432110
 20
183.152122
 30
0.0
 10
120.225112
 20
183.185117
 30
0.0
 10
120.023111
 20
183.239117
 30
0.0
 10
119.828112
 20
183.314115
 30
0.0
 10
119.641112
 20
183.409116
 30
0.0
 10
119.465113
 20
183.523117
 30
0.0
 10
119.303111
 20
183.655115
 30
0.0
 10
119.155111
 20
183.803116
 30
0.0
 10
119.023110
 20
183.965117
 30
0.0
 10
118.909112
 20
184.141116
 30
0.0
 10
118.814111
 20
184.328117
 30
0.0
 10
118.739110
 20
184.523115
 30
0.0
 10
118.685112
 20
184.725116
 30
0.0
 10
118.652112
 20
184.932117
 30
0.0
 10
118.641106
 20
185.141117
 30
0.0
  0
LWPOLYLINE
  5
105
100
AcDbEntity
  8
base_layer
 62
7
100
AcDbPolyline
 90
61
 70
0
 10
193.391110
 20
15.141116
 30
0.0
 10
193.402117
 20
15.350115
 30
0.0
 10
193.435111
 20
15.557117
 30
0.0
 10
193.489112
 20
15.759117
 30
0.0
 10
193.564112
 20
15.954116
 30
0.0
 10
193.659111
 20
16.141116
 30
0.0
 10
193.773112
 20
16.317116
 30
0.0
 10
193.905110
 20
16.479117
 30
0.0
 10
194.053110
 20
16.627117
 30
0.0
 10
194.215111
 20
16.759115
 30
0.0
 10
194.391111
 20
16.873116
 30
0.0
 10
194.578111
 20
16.968115
 30
0.0
 10
194.773110
 20
17.043116
 30
0.0
 10
194.975110
 20
17.097116
 30
0.0
 10
195.182112
 20
17.130116
 30
0.0
 10
195.391111
 20
17.141123
 30
0.0
 10
195.600111
 20
17.130111
 30
0.0
 10
195.807110
 20
17.097116
 30
0.0
 10
196.009110
 20
17.043116
 30
0.0
 10
196.204112
 20
16.968115
 30
0.0
 10
196.391112
 20
16.873116
 30
0.0
 10
196.567112
 20
16.759115
 30
0.0
 10
196.729110
 20
16.627117
 30
0.0
 10
196.877110
 20
16.479117
 30
0.0
 10
197.009111
 20
16.317116
 30
0.0
 10
197.123112
 20
16.141116
 30
0.0
 10
197.218111
 20
15.954116
 30
0.0
 10
197.293111
 20
15.759117
 30
0.0
 10
197.347112
 20
15.557117
 30
0.0
 10
197.380112
 20
15.350115
 30
0.0
 10
197.391119
 20
15.141116
 30
0.0
 10
197.380104
 20
14.932116
 30
0.0
 10
197.347112
 20
14.725120
 30
0.0
 10
197.293111
 20
14.523105
 30
0.0
 10
197.218111
 20
14.328118
 30
0.0
 10
197.123112
 20
14.141118
 30
0.0
 10
197.009111
 20
13.965124
 30
0.0
 10
196.877110
 20
13.803128
 30
0.0
 10
196.729110
 20
13.655103
 30
0.0
 10
196.567112
 20
13.523107
 30
0.0
 10
196.391112
 20
13.409118
 30
0.0
 10
196.204112
 20
13.314122
 30
0.0
 10
196.009110
 20
13.239107
 30
0.0
 10
195.807110
 20
13.185118
 30
0.0
 10
195.600111
 20
13.152126
 30
0.0
 10
195.391111
 20
13.141120
 30
0.0
 10
195.182112
 20
13.152126
 30
0.0
 10
194.975110
 20
13.185118
 30
0.0
 10
194.773110
 20
13.239107
 30
0.0
 10
194.578111
 20
13.314122
 30
0.0
 10
194.391111
 20
13.409118
 30
0.0
 10
194.215111
 20
13.523107
 30
0.0
 10
194.053110
 20
13.655103
 30
0.0
 10
193.905110
 20
13.803128
 30
0.0
 10
193.773112
 20
13.965124
 30
0.0
 10
193.659111
 20
14.141118
 30
0.0
 10
193.564112
 20
14.328118
 30
0.0
 10
193.489112
 20
14.523105
 30
0.0
 10
193.435111
 20
14.725120
 30
0.0
 10
193.402111
 20
14.932116
 30
0.0
 10
193.391104
 20
15.141116
 30
0.0
  0
LWPOLYLINE
  5
106
100
AcDbEntity
  8
base_layer
 62
7
100
AcDbPolyline
 90
61
 70
0
 10
193.391110
 20
185.141117
 30
0.0
 10
193.402117
 20
185.350117
 30
0.0
 10
193.435111
 20
185.557115
 30
0.0
 10
193.489112
 20
185.759116
 30
0.0
 10
193.564112
 20
185.954115
 30
0.0
 10
193.659111
 20
186.141115
 30
0.0
 10
193.773112
 20
186.317117
 30
0.0
 10
193.905110
 20
186.479116
 30
0.0
 10
194.053110
 20
186.627116
 30
0.0
 10
194.215111
 20
186.759117
 30
0.0
 10
194.391111
 20
186.873115
 30
0.0
 10
194.578111
 20
186.968116
 30
0.0
 10
194.773110
 20
187.043117
 30
0.0
 10
194.975110
 20
187.097115
 30
0.0
 10
195.182112
 20
187.130115
 30
0.0
 10
195.391111
 20
187.141122
 30
0.0
 10
195.600111
 20
187.130109
 30
0.0
 10
195.807110
 20
187.097115
 30
0.0
 10
196.009110
 20
187.043117
 30
0.0
 10
196.204112
 20
186.968116
 30
0.0
 10
196.391112
 20
186.873115
 30
0.0
 10
196.567112
 20
186.759117
 30
0.0
 10
196.729110
 20
186.627116
 30
0.0
 10
196.877110
 20
186.479116
 30
0.0
 10
197.009111
 20
186.317117
 30
0.0
 10
197.123112
 20
186.141115
 30
0.0
 10
197.218111
 20
185.954115
 30
0.0
 10
197.293111
 20
185.759116
 30
0.0
 10
197.347112
 20
185.557115
 30
0.0
 10
197.380112
 20
185.350117
 30
0.0
 10
197.391119
 20
185.141117
 30
0.0
 10
197.380104
 20
184.932117
 30
0.0
 10
197.347112
 20
184.725116
 30
0.0
 10
197.293111
 20
184.523115
 30
0.0
 10
197.218111
 20
184.328117
 30
0.0
 10
197.123112
 20
184.141116
 30
0.0
 10
197.009111
 20
183.965117
 30
0.0
 10
196.877110
 20
183.803116
 30
0.0
 10
196.729110
 20
183.655115
 30
0.0
 10
196.567112
 20
183.523117
 30
0.0
 10
196.391112
 20
183.409116
 30
0.0
 10
196.204112
 20
183.314115
 30
0.0
 10
196.009110
 20
183.239117
 30
0.0
 10
195.807110
 20
183.185117
 30
0.0
 10
195.600111
 20
183.152116
 30
0.0
 10
195.391111
 20
183.141110
 30
0.0
 10
195.182112
 20
183.152122
 30
0.0
 10
194.975110
 20
183.185117
 30
0.0
 10
194.773110
 20
183.239117
 30
0.0
 10
194.578111
 20
183.314115
 30
0.0
 10
194.391111
 20
183.409116
 30
0.0
 10
194.215111
 20
183.523117
 30
0.0
 10
194.053110
 20
183.655115
 30
0.0
 10
193.905110
 20
183.803116
 30
0.0
 10
193.773112
 20
183.965117
 30
0.0
 10
193.659111
 20
184.141116
 30
0.0
 10
193.564112
 20
184.328117
 30
0.0
 10
193.489112
 20
184.523115
 30
0.0
 10
193.435111
 20
184.725116
 30
0.0
 10
193.402111
 20
184.932117
 30
0.0
 10
193.391104
 20
185.141117
 30
0.0
  0
LWPOLYLINE
  5
107
100
AcDbEntity
  8
y_layer
 62
7
100
AcDbPolyline
 90
2
 70
0
 10
37.181109
 20
27.141118
 30
0.0
 10
37.181109
 20
147.141118
 30
0.0
  0
LWPOLYLINE
  5
108
100
AcDbEntity
  8
y_layer
 62
7
100
AcDbPolyline
 90
2
 70
0
 10
47.181108
 20
147.141118
 30
0.0
 10
47.181108
 20
27.141118
 30
0.0
  0
LWPOLYLINE
  5
109
100
AcDbEntity
  8
y_layer
 62
7
100
AcDbPolyline
 90
2
 70
0
 10
57.181108
 20
27.141118
 30
0.0
 10
57.181108
 20
147.141118
 30
0.0
  0
LWPOLYLINE
  5
10a
100
AcDbEntity
  8
y_layer
 62
7
100
AcDbPolyline
 90
2
 70
0
 10
67.181108
 20
147.141118
 30
0.0
 10
67.181108
 20
27.141118
 30
0.0
  0
LWPOLYLINE
  5
10b
100
AcDbEntity
  8
y_layer
 62
7
100
AcDbPolyline
 90
2
 70
0
 10
77.181110
 20
27.141118
 30
0.0
 10
77.181110
 20
147.141118
 30
0.0
  0
LWPOLYLINE
  5
10c
100
AcDbEntity
  8
y_layer
 62
7
100
AcDbPolyline
 90
2
 70
0
 10
87.181110
 20
147.141118
 30
0.0
 10
87.181110
 20
27.141118
 30
0.0
  0
LWPOLYLINE
  5
10d
100
AcDbEntity
  8
y_layer
 62
7
100
AcDbPolyline
 90
2
 70
0
 10
97.181110
 20
27.141118
 30
0.0
 10
97.181110
 20
147.141118
 30
0.0
  0
LWPOLYLINE
  5
10e
100
AcDbEntity
  8
y_layer
 62
7
100
AcDbPolyline
 90
2
 70
0
 10
107.181110
 20
147.141118
 30
0.0
 10
107.181110
 20
27.141118
 30
0.0
  0
LWPOLYLINE
  5
10f
100
AcDbEntity
  8
y_layer
 62
7
100
AcDbPolyline
 90
2
 70
0
 10
117.181109
 20
27.141118
 30
0.0
 10
117.181109
 20
147.141118
 30
0.0
  0
LWPOLYLINE
  5
110
100
AcDbEntity
  8
y_layer
 62
7
100
AcDbPolyline
 90
2
 70
0
 10
127.181109
 20
147.141118
 30
0.0
 10
127.181109
 20
27.141118
 30
0.0
  0
LWPOLYLINE
  5
111
100
AcDbEntity
  8
y_layer
 62
7
100
AcDbPolyline
 90
2
 70
0
 10
137.181109
 20
27.141118
 30
0.0
 10
137.181109
 20
147.141118
 30
0.0
  0
LWPOLYLINE
  5
112
100
AcDbEntity
  8
y_layer
 62
7
100
AcDbPolyline
 90
2
 70
0
 10
147.181109
 20
147.141118
 30
0.0
 10
147.181109
 20
27.141118
 30
0.0
  0
LWPOLYLINE
  5
113
100
AcDbEntity
  8
y_layer
 62
7
100
AcDbPolyline
 90
2
 70
0
 10
157.181108
 20
27.141118
 30
0.0
 10
157.181108
 20
147.141118
 30
0.0
  0
LWPOLYLINE
  5
114
100
AcDbEntity
  8
y_layer
 62
7
100
AcDbPolyline
 90
2
 70
0
 10
167.181108
 20
147.141118
 30
0.0
 10
167.181108
 20
27.141118
 30
0.0
  0
LWPOLYLINE
  5
115
100
AcDbEntity
  8
y_layer
 62
7
100
AcDbPolyline
 90
2
 70
0
 10
177.181108
 20
27.141118
 30
0.0
 10
177.181108
 20
147.141118
 30
0.0
  0
LWPOLYLINE
  5
116
100
AcDbEntity
  8
y_layer
 62
7
100
AcDbPolyline
 90
2
 70
0
 10
182.101110
 20
147.141118
 30
0.0
 10
182.101110
 20
27.141118
 30
0.0
  0
LWPOLYLINE
  5
117
100
AcDbEntity
  8
y_layer
 62
7
100
AcDbPolyline
 90
2
 70
0
 10
37.141110
 20
46.949892
 30
0.0
 10
182.141111
 20
46.949892
 30
0.0
  0
LWPOLYLINE
  5
118
100
AcDbEntity
  8
y_layer
 62
7
100
AcDbPolyline
 90
2
 70
0
 10
182.141111
 20
36.949892
 30
0.0
 10
37.141110
 20
36.949892
 30
0.0
  0
LWPOLYLINE
  5
119
100
AcDbEntity
  8
y_layer
 62
7
100
AcDbPolyline
 90
2
 70
0
 10
37.141110
 20
66.949891
 30
0.0
 10
182.141111
 20
66.949891
 30
0.0
  0
LWPOLYLINE
  5
11a
100
AcDbEntity
  8
y_layer
 62
7
100
AcDbPolyline
 90
2
 70
0
 10
182.141111
 20
56.949892
 30
0.0
 10
37.141110
 20
56.949892
 30
0.0
  0
LWPOLYLINE
  5
11b
100
AcDbEntity
  8
y_layer
 62
7
100
AcDbPolyline
 90
2
 70
0
 10
37.141110
 20
86.949891
 30
0.0
 10
182.141111
 20
86.949891
 30
0.0
  0
LWPOLYLINE
  5
11c
100
AcDbEntity
  8
y_layer
 62
7
100
AcDbPolyline
 90
2
 70
0
 10
182.141111
 20
76.949891
 30
0.0
 10
37.141110
 20
76.949891
 30
0.0
  0
LWPOLYLINE
  5
11d
100
AcDbEntity
  8
y_layer
 62
7
100
AcDbPolyline
 90
2
 70
0
 10
37.141110
 20
106.949890
 30
0.0
 10
182.141111
 20
106.949890
 30
0.0
  0
LWPOLYLINE
  5
11e
100
AcDbEntity
  8
y_layer
 62
7
100
AcDbPolyline
 90
2
 70
0
 10
182.141111
 20
96.949891
 30
0.0
 10
37.141110
 20
96.949891
 30
0.0
  0
LWPOLYLINE
  5
11f
100
AcDbEntity
  8
y_layer
 62
7
100
AcDbPolyline
 90
2
 70
0
 10
37.141110
 20
126.949890
 30
0.0
 10
182.141111
 20
126.949890
 30
0.0
  0
LWPOLYLINE
  5
120
100
AcDbEntity
  8
y_layer
 62
7
100
AcDbPolyline
 90
2
 70
0
 10
182.141111
 20
116.949890
 30
0.0
 10
37.141110
 20
116.949890
 30
0.0
  0
LWPOLYLINE
  5
121
100
AcDbEntity
  8
y_layer
 62
7
100
AcDbPolyline
 90
2
 70
0
 10
37.141110
 20
146.949892
 30
0.0
 10
182.141111
 20
146.949892
 30
0.0
  0
LWPOLYLINE
  5
122
100
AcDbEntity
  8
y_layer
 62
7
100
AcDbPolyline
 90
2
 70
0
 10
182.141111
 20
136.949893
 30
0.0
 10
37.141110
 20
136.949893
 30
0.0
  0
LWPOLYLINE
  5
123
100
AcDbEntity
  8
y_layer
 62
7
100
AcDbPolyline
 90
2
 70
0
 10
182.141111
 20
27.332343
 30
0.0
 10
37.141110
 20
27.332343
 30
0.0
  0
ENDSEC
  0
SECTION
  2
OBJECTS
  0
DICTIONARY
  5
C
330
0
100
AcDbDictionary
  3
ACAD_GROUP
350
D
  3
ACAD_MLINESTYLE
350
17
  0
DICTIONARY
  5
D
330
C
100
AcDbDictionary
  0
DICTIONARY
  5
1A
330
C
100
AcDbDictionary
  0
DICTIONARY
  5
17
330
C
100
AcDbDictionary
  3
STANDARD
350
18
  0
DICTIONARY
  5
19
330
C
100
AcDbDictionary
  0
ENDSEC
  0
EOF
