  0
SECTION
  2
BLOCKS
  0
ENDSEC
  0
SECTION
  2
ENTITIES
  0
LINE
  8
0
 10
0
 11
0
 20
0
 21
64.77
  0
LINE
  8
0
 10
0
 11
1.27
 20
64.77
 21
66.04
  0
LINE
  8
0
 10
1.27
 11
12.7
 20
66.04
 21
66.04
  0
LINE
  8
0
 10
12.7
 11
15.24
 20
66.04
 21
68.58
  0
LINE
  8
0
 10
15.24
 11
48.26
 20
68.58
 21
68.58
  0
LINE
  8
0
 10
48.26
 11
50.8
 20
68.58
 21
66.04
  0
LINE
  8
0
 10
50.8
 11
53.34
 20
66.04
 21
66.04
  0
LINE
  8
0
 10
53.34
 11
53.34
 20
66.04
 21
0
  0
LINE
  8
0
 10
53.34
 11
0
 20
0
 21
0
  0
LINE
  8
0
 10
0.94
 11
0.949
 20
15.24
 21
15.407
  0
LINE
  8
0
 10
0.949
 11
0.975
 20
15.407
 21
15.573
  0
LINE
  8
0
 10
0.975
 11
1.018
 20
15.573
 21
15.734
  0
LINE
  8
0
 10
1.018
 11
1.078
 20
15.734
 21
15.891
  0
LINE
  8
0
 10
1.078
 11
1.154
 20
15.891
 21
16.04
  0
LINE
  8
0
 10
1.154
 11
1.246
 20
16.04
 21
16.18
  0
LINE
  8
0
 10
1.246
 11
1.351
 20
16.18
 21
16.311
  0
LINE
  8
0
 10
1.351
 11
1.469
 20
16.311
 21
16.429
  0
LINE
  8
0
 10
1.469
 11
1.6
 20
16.429
 21
16.534
  0
LINE
  8
0
 10
1.6
 11
1.74
 20
16.534
 21
16.626
  0
LINE
  8
0
 10
1.74
 11
1.889
 20
16.626
 21
16.702
  0
LINE
  8
0
 10
1.889
 11
2.046
 20
16.702
 21
16.762
  0
LINE
  8
0
 10
2.046
 11
2.207
 20
16.762
 21
16.805
  0
LINE
  8
0
 10
2.207
 11
2.373
 20
16.805
 21
16.831
  0
LINE
  8
0
 10
2.373
 11
2.54
 20
16.831
 21
16.84
  0
LINE
  8
0
 10
2.54
 11
2.707
 20
16.84
 21
16.831
  0
LINE
  8
0
 10
2.707
 11
2.873
 20
16.831
 21
16.805
  0
LINE
  8
0
 10
2.873
 11
3.034
 20
16.805
 21
16.762
  0
LINE
  8
0
 10
3.034
 11
3.191
 20
16.762
 21
16.702
  0
LINE
  8
0
 10
3.191
 11
3.34
 20
16.702
 21
16.626
  0
LINE
  8
0
 10
3.34
 11
3.48
 20
16.626
 21
16.534
  0
LINE
  8
0
 10
3.48
 11
3.611
 20
16.534
 21
16.429
  0
LINE
  8
0
 10
3.611
 11
3.729
 20
16.429
 21
16.311
  0
LINE
  8
0
 10
3.729
 11
3.834
 20
16.311
 21
16.18
  0
LINE
  8
0
 10
3.834
 11
3.926
 20
16.18
 21
16.04
  0
LINE
  8
0
 10
3.926
 11
4.002
 20
16.04
 21
15.891
  0
LINE
  8
0
 10
4.002
 11
4.062
 20
15.891
 21
15.734
  0
LINE
  8
0
 10
4.062
 11
4.105
 20
15.734
 21
15.573
  0
LINE
  8
0
 10
4.105
 11
4.131
 20
15.573
 21
15.407
  0
LINE
  8
0
 10
4.131
 11
4.14
 20
15.407
 21
15.24
  0
LINE
  8
0
 10
4.14
 11
4.131
 20
15.24
 21
15.073
  0
LINE
  8
0
 10
4.131
 11
4.105
 20
15.073
 21
14.907
  0
LINE
  8
0
 10
4.105
 11
4.062
 20
14.907
 21
14.746
  0
LINE
  8
0
 10
4.062
 11
4.002
 20
14.746
 21
14.589
  0
LINE
  8
0
 10
4.002
 11
3.926
 20
14.589
 21
14.44
  0
LINE
  8
0
 10
3.926
 11
3.834
 20
14.44
 21
14.3
  0
LINE
  8
0
 10
3.834
 11
3.729
 20
14.3
 21
14.169
  0
LINE
  8
0
 10
3.729
 11
3.611
 20
14.169
 21
14.051
  0
LINE
  8
0
 10
3.611
 11
3.48
 20
14.051
 21
13.946
  0
LINE
  8
0
 10
3.48
 11
3.34
 20
13.946
 21
13.854
  0
LINE
  8
0
 10
3.34
 11
3.191
 20
13.854
 21
13.778
  0
LINE
  8
0
 10
3.191
 11
3.034
 20
13.778
 21
13.718
  0
LINE
  8
0
 10
3.034
 11
2.873
 20
13.718
 21
13.675
  0
LINE
  8
0
 10
2.873
 11
2.707
 20
13.675
 21
13.649
  0
LINE
  8
0
 10
2.707
 11
2.54
 20
13.649
 21
13.64
  0
LINE
  8
0
 10
2.54
 11
2.373
 20
13.64
 21
13.649
  0
LINE
  8
0
 10
2.373
 11
2.207
 20
13.649
 21
13.675
  0
LINE
  8
0
 10
2.207
 11
2.046
 20
13.675
 21
13.718
  0
LINE
  8
0
 10
2.046
 11
1.889
 20
13.718
 21
13.778
  0
LINE
  8
0
 10
1.889
 11
1.74
 20
13.778
 21
13.854
  0
LINE
  8
0
 10
1.74
 11
1.6
 20
13.854
 21
13.946
  0
LINE
  8
0
 10
1.6
 11
1.469
 20
13.946
 21
14.051
  0
LINE
  8
0
 10
1.469
 11
1.351
 20
14.051
 21
14.169
  0
LINE
  8
0
 10
1.351
 11
1.246
 20
14.169
 21
14.3
  0
LINE
  8
0
 10
1.246
 11
1.154
 20
14.3
 21
14.44
  0
LINE
  8
0
 10
1.154
 11
1.078
 20
14.44
 21
14.589
  0
LINE
  8
0
 10
1.078
 11
1.018
 20
14.589
 21
14.746
  0
LINE
  8
0
 10
1.018
 11
0.975
 20
14.746
 21
14.907
  0
LINE
  8
0
 10
0.975
 11
0.949
 20
14.907
 21
15.073
  0
LINE
  8
0
 10
0.949
 11
0.94
 20
15.073
 21
15.24
  0
LINE
  8
0
 10
16.18
 11
16.189
 20
66.04
 21
66.207
  0
LINE
  8
0
 10
16.189
 11
16.215
 20
66.207
 21
66.373
  0
LINE
  8
0
 10
16.215
 11
16.258
 20
66.373
 21
66.534
  0
LINE
  8
0
 10
16.258
 11
16.318
 20
66.534
 21
66.691
  0
LINE
  8
0
 10
16.318
 11
16.394
 20
66.691
 21
66.84
  0
LINE
  8
0
 10
16.394
 11
16.486
 20
66.84
 21
66.98
  0
LINE
  8
0
 10
16.486
 11
16.591
 20
66.98
 21
67.111
  0
LINE
  8
0
 10
16.591
 11
16.709
 20
67.111
 21
67.229
  0
LINE
  8
0
 10
16.709
 11
16.84
 20
67.229
 21
67.334
  0
LINE
  8
0
 10
16.84
 11
16.98
 20
67.334
 21
67.426
  0
LINE
  8
0
 10
16.98
 11
17.129
 20
67.426
 21
67.502
  0
LINE
  8
0
 10
17.129
 11
17.286
 20
67.502
 21
67.562
  0
LINE
  8
0
 10
17.286
 11
17.447
 20
67.562
 21
67.605
  0
LINE
  8
0
 10
17.447
 11
17.613
 20
67.605
 21
67.631
  0
LINE
  8
0
 10
17.613
 11
17.78
 20
67.631
 21
67.64
  0
LINE
  8
0
 10
17.78
 11
17.947
 20
67.64
 21
67.631
  0
LINE
  8
0
 10
17.947
 11
18.113
 20
67.631
 21
67.605
  0
LINE
  8
0
 10
18.113
 11
18.274
 20
67.605
 21
67.562
  0
LINE
  8
0
 10
18.274
 11
18.431
 20
67.562
 21
67.502
  0
LINE
  8
0
 10
18.431
 11
18.58
 20
67.502
 21
67.426
  0
LINE
  8
0
 10
18.58
 11
18.72
 20
67.426
 21
67.334
  0
LINE
  8
0
 10
18.72
 11
18.851
 20
67.334
 21
67.229
  0
LINE
  8
0
 10
18.851
 11
18.969
 20
67.229
 21
67.111
  0
LINE
  8
0
 10
18.969
 11
19.074
 20
67.111
 21
66.98
  0
LINE
  8
0
 10
19.074
 11
19.166
 20
66.98
 21
66.84
  0
LINE
  8
0
 10
19.166
 11
19.242
 20
66.84
 21
66.691
  0
LINE
  8
0
 10
19.242
 11
19.302
 20
66.691
 21
66.534
  0
LINE
  8
0
 10
19.302
 11
19.345
 20
66.534
 21
66.373
  0
LINE
  8
0
 10
19.345
 11
19.371
 20
66.373
 21
66.207
  0
LINE
  8
0
 10
19.371
 11
19.38
 20
66.207
 21
66.04
  0
LINE
  8
0
 10
19.38
 11
19.371
 20
66.04
 21
65.873
  0
LINE
  8
0
 10
19.371
 11
19.345
 20
65.873
 21
65.707
  0
LINE
  8
0
 10
19.345
 11
19.302
 20
65.707
 21
65.546
  0
LINE
  8
0
 10
19.302
 11
19.242
 20
65.546
 21
65.389
  0
LINE
  8
0
 10
19.242
 11
19.166
 20
65.389
 21
65.24
  0
LINE
  8
0
 10
19.166
 11
19.074
 20
65.24
 21
65.1
  0
LINE
  8
0
 10
19.074
 11
18.969
 20
65.1
 21
64.969
  0
LINE
  8
0
 10
18.969
 11
18.851
 20
64.969
 21
64.851
  0
LINE
  8
0
 10
18.851
 11
18.72
 20
64.851
 21
64.746
  0
LINE
  8
0
 10
18.72
 11
18.58
 20
64.746
 21
64.654
  0
LINE
  8
0
 10
18.58
 11
18.431
 20
64.654
 21
64.578
  0
LINE
  8
0
 10
18.431
 11
18.274
 20
64.578
 21
64.518
  0
LINE
  8
0
 10
18.274
 11
18.113
 20
64.518
 21
64.475
  0
LINE
  8
0
 10
18.113
 11
17.947
 20
64.475
 21
64.449
  0
LINE
  8
0
 10
17.947
 11
17.78
 20
64.449
 21
64.44
  0
LINE
  8
0
 10
17.78
 11
17.613
 20
64.44
 21
64.449
  0
LINE
  8
0
 10
17.613
 11
17.447
 20
64.449
 21
64.475
  0
LINE
  8
0
 10
17.447
 11
17.286
 20
64.475
 21
64.518
  0
LINE
  8
0
 10
17.286
 11
17.129
 20
64.518
 21
64.578
  0
LINE
  8
0
 10
17.129
 11
16.98
 20
64.578
 21
64.654
  0
LINE
  8
0
 10
16.98
 11
16.84
 20
64.654
 21
64.746
  0
LINE
  8
0
 10
16.84
 11
16.709
 20
64.746
 21
64.851
  0
LINE
  8
0
 10
16.709
 11
16.591
 20
64.851
 21
64.969
  0
LINE
  8
0
 10
16.591
 11
16.486
 20
64.969
 21
65.1
  0
LINE
  8
0
 10
16.486
 11
16.394
 20
65.1
 21
65.24
  0
LINE
  8
0
 10
16.394
 11
16.318
 20
65.24
 21
65.389
  0
LINE
  8
0
 10
16.318
 11
16.258
 20
65.389
 21
65.546
  0
LINE
  8
0
 10
16.258
 11
16.215
 20
65.546
 21
65.707
  0
LINE
  8
0
 10
16.215
 11
16.189
 20
65.707
 21
65.873
  0
LINE
  8
0
 10
16.189
 11
16.18
 20
65.873
 21
66.04
  0
LINE
  8
0
 10
44.12
 11
44.129
 20
66.04
 21
66.207
  0
LINE
  8
0
 10
44.129
 11
44.155
 20
66.207
 21
66.373
  0
LINE
  8
0
 10
44.155
 11
44.198
 20
66.373
 21
66.534
  0
LINE
  8
0
 10
44.198
 11
44.258
 20
66.534
 21
66.691
  0
LINE
  8
0
 10
44.258
 11
44.334
 20
66.691
 21
66.84
  0
LINE
  8
0
 10
44.334
 11
44.426
 20
66.84
 21
66.98
  0
LINE
  8
0
 10
44.426
 11
44.531
 20
66.98
 21
67.111
  0
LINE
  8
0
 10
44.531
 11
44.649
 20
67.111
 21
67.229
  0
LINE
  8
0
 10
44.649
 11
44.78
 20
67.229
 21
67.334
  0
LINE
  8
0
 10
44.78
 11
44.92
 20
67.334
 21
67.426
  0
LINE
  8
0
 10
44.92
 11
45.069
 20
67.426
 21
67.502
  0
LINE
  8
0
 10
45.069
 11
45.226
 20
67.502
 21
67.562
  0
LINE
  8
0
 10
45.226
 11
45.387
 20
67.562
 21
67.605
  0
LINE
  8
0
 10
45.387
 11
45.553
 20
67.605
 21
67.631
  0
LINE
  8
0
 10
45.553
 11
45.72
 20
67.631
 21
67.64
  0
LINE
  8
0
 10
45.72
 11
45.887
 20
67.64
 21
67.631
  0
LINE
  8
0
 10
45.887
 11
46.053
 20
67.631
 21
67.605
  0
LINE
  8
0
 10
46.053
 11
46.214
 20
67.605
 21
67.562
  0
LINE
  8
0
 10
46.214
 11
46.371
 20
67.562
 21
67.502
  0
LINE
  8
0
 10
46.371
 11
46.52
 20
67.502
 21
67.426
  0
LINE
  8
0
 10
46.52
 11
46.66
 20
67.426
 21
67.334
  0
LINE
  8
0
 10
46.66
 11
46.791
 20
67.334
 21
67.229
  0
LINE
  8
0
 10
46.791
 11
46.909
 20
67.229
 21
67.111
  0
LINE
  8
0
 10
46.909
 11
47.014
 20
67.111
 21
66.98
  0
LINE
  8
0
 10
47.014
 11
47.106
 20
66.98
 21
66.84
  0
LINE
  8
0
 10
47.106
 11
47.182
 20
66.84
 21
66.691
  0
LINE
  8
0
 10
47.182
 11
47.242
 20
66.691
 21
66.534
  0
LINE
  8
0
 10
47.242
 11
47.285
 20
66.534
 21
66.373
  0
LINE
  8
0
 10
47.285
 11
47.311
 20
66.373
 21
66.207
  0
LINE
  8
0
 10
47.311
 11
47.32
 20
66.207
 21
66.04
  0
LINE
  8
0
 10
47.32
 11
47.311
 20
66.04
 21
65.873
  0
LINE
  8
0
 10
47.311
 11
47.285
 20
65.873
 21
65.707
  0
LINE
  8
0
 10
47.285
 11
47.242
 20
65.707
 21
65.546
  0
LINE
  8
0
 10
47.242
 11
47.182
 20
65.546
 21
65.389
  0
LINE
  8
0
 10
47.182
 11
47.106
 20
65.389
 21
65.24
  0
LINE
  8
0
 10
47.106
 11
47.014
 20
65.24
 21
65.1
  0
LINE
  8
0
 10
47.014
 11
46.909
 20
65.1
 21
64.969
  0
LINE
  8
0
 10
46.909
 11
46.791
 20
64.969
 21
64.851
  0
LINE
  8
0
 10
46.791
 11
46.66
 20
64.851
 21
64.746
  0
LINE
  8
0
 10
46.66
 11
46.52
 20
64.746
 21
64.654
  0
LINE
  8
0
 10
46.52
 11
46.371
 20
64.654
 21
64.578
  0
LINE
  8
0
 10
46.371
 11
46.214
 20
64.578
 21
64.518
  0
LINE
  8
0
 10
46.214
 11
46.053
 20
64.518
 21
64.475
  0
LINE
  8
0
 10
46.053
 11
45.887
 20
64.475
 21
64.449
  0
LINE
  8
0
 10
45.887
 11
45.72
 20
64.449
 21
64.44
  0
LINE
  8
0
 10
45.72
 11
45.553
 20
64.44
 21
64.449
  0
LINE
  8
0
 10
45.553
 11
45.387
 20
64.449
 21
64.475
  0
LINE
  8
0
 10
45.387
 11
45.226
 20
64.475
 21
64.518
  0
LINE
  8
0
 10
45.226
 11
45.069
 20
64.518
 21
64.578
  0
LINE
  8
0
 10
45.069
 11
44.92
 20
64.578
 21
64.654
  0
LINE
  8
0
 10
44.92
 11
44.78
 20
64.654
 21
64.746
  0
LINE
  8
0
 10
44.78
 11
44.649
 20
64.746
 21
64.851
  0
LINE
  8
0
 10
44.649
 11
44.531
 20
64.851
 21
64.969
  0
LINE
  8
0
 10
44.531
 11
44.426
 20
64.969
 21
65.1
  0
LINE
  8
0
 10
44.426
 11
44.334
 20
65.1
 21
65.24
  0
LINE
  8
0
 10
44.334
 11
44.258
 20
65.24
 21
65.389
  0
LINE
  8
0
 10
44.258
 11
44.198
 20
65.389
 21
65.546
  0
LINE
  8
0
 10
44.198
 11
44.155
 20
65.546
 21
65.707
  0
LINE
  8
0
 10
44.155
 11
44.129
 20
65.707
 21
65.873
  0
LINE
  8
0
 10
44.129
 11
44.12
 20
65.873
 21
66.04
  0
LINE
  8
0
 10
49.2
 11
49.209
 20
13.97
 21
14.137
  0
LINE
  8
0
 10
49.209
 11
49.235
 20
14.137
 21
14.303
  0
LINE
  8
0
 10
49.235
 11
49.278
 20
14.303
 21
14.464
  0
LINE
  8
0
 10
49.278
 11
49.338
 20
14.464
 21
14.621
  0
LINE
  8
0
 10
49.338
 11
49.414
 20
14.621
 21
14.77
  0
LINE
  8
0
 10
49.414
 11
49.506
 20
14.77
 21
14.91
  0
LINE
  8
0
 10
49.506
 11
49.611
 20
14.91
 21
15.041
  0
LINE
  8
0
 10
49.611
 11
49.729
 20
15.041
 21
15.159
  0
LINE
  8
0
 10
49.729
 11
49.86
 20
15.159
 21
15.264
  0
LINE
  8
0
 10
49.86
 11
50
 20
15.264
 21
15.356
  0
LINE
  8
0
 10
50
 11
50.149
 20
15.356
 21
15.432
  0
LINE
  8
0
 10
50.149
 11
50.306
 20
15.432
 21
15.492
  0
LINE
  8
0
 10
50.306
 11
50.467
 20
15.492
 21
15.535
  0
LINE
  8
0
 10
50.467
 11
50.633
 20
15.535
 21
15.561
  0
LINE
  8
0
 10
50.633
 11
50.8
 20
15.561
 21
15.57
  0
LINE
  8
0
 10
50.8
 11
50.967
 20
15.57
 21
15.561
  0
LINE
  8
0
 10
50.967
 11
51.133
 20
15.561
 21
15.535
  0
LINE
  8
0
 10
51.133
 11
51.294
 20
15.535
 21
15.492
  0
LINE
  8
0
 10
51.294
 11
51.451
 20
15.492
 21
15.432
  0
LINE
  8
0
 10
51.451
 11
51.6
 20
15.432
 21
15.356
  0
LINE
  8
0
 10
51.6
 11
51.74
 20
15.356
 21
15.264
  0
LINE
  8
0
 10
51.74
 11
51.871
 20
15.264
 21
15.159
  0
LINE
  8
0
 10
51.871
 11
51.989
 20
15.159
 21
15.041
  0
LINE
  8
0
 10
51.989
 11
52.094
 20
15.041
 21
14.91
  0
LINE
  8
0
 10
52.094
 11
52.186
 20
14.91
 21
14.77
  0
LINE
  8
0
 10
52.186
 11
52.262
 20
14.77
 21
14.621
  0
LINE
  8
0
 10
52.262
 11
52.322
 20
14.621
 21
14.464
  0
LINE
  8
0
 10
52.322
 11
52.365
 20
14.464
 21
14.303
  0
LINE
  8
0
 10
52.365
 11
52.391
 20
14.303
 21
14.137
  0
LINE
  8
0
 10
52.391
 11
52.4
 20
14.137
 21
13.97
  0
LINE
  8
0
 10
52.4
 11
52.391
 20
13.97
 21
13.803
  0
LINE
  8
0
 10
52.391
 11
52.365
 20
13.803
 21
13.637
  0
LINE
  8
0
 10
52.365
 11
52.322
 20
13.637
 21
13.476
  0
LINE
  8
0
 10
52.322
 11
52.262
 20
13.476
 21
13.319
  0
LINE
  8
0
 10
52.262
 11
52.186
 20
13.319
 21
13.17
  0
LINE
  8
0
 10
52.186
 11
52.094
 20
13.17
 21
13.03
  0
LINE
  8
0
 10
52.094
 11
51.989
 20
13.03
 21
12.899
  0
LINE
  8
0
 10
51.989
 11
51.871
 20
12.899
 21
12.781
  0
LINE
  8
0
 10
51.871
 11
51.74
 20
12.781
 21
12.676
  0
LINE
  8
0
 10
51.74
 11
51.6
 20
12.676
 21
12.584
  0
LINE
  8
0
 10
51.6
 11
51.451
 20
12.584
 21
12.508
  0
LINE
  8
0
 10
51.451
 11
51.294
 20
12.508
 21
12.448
  0
LINE
  8
0
 10
51.294
 11
51.133
 20
12.448
 21
12.405
  0
LINE
  8
0
 10
51.133
 11
50.967
 20
12.405
 21
12.379
  0
LINE
  8
0
 10
50.967
 11
50.8
 20
12.379
 21
12.37
  0
LINE
  8
0
 10
50.8
 11
50.633
 20
12.37
 21
12.379
  0
LINE
  8
0
 10
50.633
 11
50.467
 20
12.379
 21
12.405
  0
LINE
  8
0
 10
50.467
 11
50.306
 20
12.405
 21
12.448
  0
LINE
  8
0
 10
50.306
 11
50.149
 20
12.448
 21
12.508
  0
LINE
  8
0
 10
50.149
 11
50
 20
12.508
 21
12.584
  0
LINE
  8
0
 10
50
 11
49.86
 20
12.584
 21
12.676
  0
LINE
  8
0
 10
49.86
 11
49.729
 20
12.676
 21
12.781
  0
LINE
  8
0
 10
49.729
 11
49.611
 20
12.781
 21
12.899
  0
LINE
  8
0
 10
49.611
 11
49.506
 20
12.899
 21
13.03
  0
LINE
  8
0
 10
49.506
 11
49.414
 20
13.03
 21
13.17
  0
LINE
  8
0
 10
49.414
 11
49.338
 20
13.17
 21
13.319
  0
LINE
  8
0
 10
49.338
 11
49.278
 20
13.319
 21
13.476
  0
LINE
  8
0
 10
49.278
 11
49.235
 20
13.476
 21
13.637
  0
LINE
  8
0
 10
49.235
 11
49.209
 20
13.637
 21
13.803
  0
LINE
  8
0
 10
49.209
 11
49.2
 20
13.803
 21
13.97
  0
ENDSEC
  0
SECTION
  2
OBJECTS
  0
DICTIONARY
  0
ENDSEC
  0
EOF
