  0
SECTION
  2
BLOCKS
  0
ENDSEC
  0
SECTION
  2
ENTITIES
  0
LINE
  8
0
 10
-60
 11
-60
 20
-60
 21
60
  0
LINE
  8
0
 10
-60
 11
60
 20
60
 21
60
  0
LINE
  8
0
 10
60
 11
60
 20
60
 21
-60
  0
LINE
  8
0
 10
60
 11
-60
 20
-60
 21
-60
  0
LINE
  8
0
 10
-58
 11
-57.682
 20
0
 21
6.063
  0
LINE
  8
0
 10
-57.682
 11
-56.733
 20
6.063
 21
12.059
  0
LINE
  8
0
 10
-56.733
 11
-55.161
 20
12.059
 21
17.923
  0
LINE
  8
0
 10
-55.161
 11
-52.986
 20
17.923
 21
23.591
  0
LINE
  8
0
 10
-52.986
 11
-50.229
 20
23.591
 21
29
  0
LINE
  8
0
 10
-50.229
 11
-46.923
 20
29
 21
34.092
  0
LINE
  8
0
 10
-46.923
 11
-43.102
 20
34.092
 21
38.81
  0
LINE
  8
0
 10
-43.102
 11
-38.81
 20
38.81
 21
43.102
  0
LINE
  8
0
 10
-38.81
 11
-34.092
 20
43.102
 21
46.923
  0
LINE
  8
0
 10
-34.092
 11
-29
 20
46.923
 21
50.229
  0
LINE
  8
0
 10
-29
 11
-23.591
 20
50.229
 21
52.986
  0
LINE
  8
0
 10
-23.591
 11
-17.923
 20
52.986
 21
55.161
  0
LINE
  8
0
 10
-17.923
 11
-12.059
 20
55.161
 21
56.733
  0
LINE
  8
0
 10
-12.059
 11
-6.063
 20
56.733
 21
57.682
  0
LINE
  8
0
 10
-6.063
 11
0
 20
57.682
 21
58
  0
LINE
  8
0
 10
0
 11
6.063
 20
58
 21
57.682
  0
LINE
  8
0
 10
6.063
 11
12.059
 20
57.682
 21
56.733
  0
LINE
  8
0
 10
12.059
 11
17.923
 20
56.733
 21
55.161
  0
LINE
  8
0
 10
17.923
 11
23.591
 20
55.161
 21
52.986
  0
LINE
  8
0
 10
23.591
 11
29
 20
52.986
 21
50.229
  0
LINE
  8
0
 10
29
 11
34.092
 20
50.229
 21
46.923
  0
LINE
  8
0
 10
34.092
 11
38.81
 20
46.923
 21
43.102
  0
LINE
  8
0
 10
38.81
 11
43.102
 20
43.102
 21
38.81
  0
LINE
  8
0
 10
43.102
 11
46.923
 20
38.81
 21
34.092
  0
LINE
  8
0
 10
46.923
 11
50.229
 20
34.092
 21
29
  0
LINE
  8
0
 10
50.229
 11
52.986
 20
29
 21
23.591
  0
LINE
  8
0
 10
52.986
 11
55.161
 20
23.591
 21
17.923
  0
LINE
  8
0
 10
55.161
 11
56.733
 20
17.923
 21
12.059
  0
LINE
  8
0
 10
56.733
 11
57.682
 20
12.059
 21
6.063
  0
LINE
  8
0
 10
57.682
 11
58
 20
6.063
 21
0
  0
LINE
  8
0
 10
58
 11
57.682
 20
0
 21
-6.063
  0
LINE
  8
0
 10
57.682
 11
56.733
 20
-6.063
 21
-12.059
  0
LINE
  8
0
 10
56.733
 11
55.161
 20
-12.059
 21
-17.923
  0
LINE
  8
0
 10
55.161
 11
52.986
 20
-17.923
 21
-23.591
  0
LINE
  8
0
 10
52.986
 11
50.229
 20
-23.591
 21
-29
  0
LINE
  8
0
 10
50.229
 11
46.923
 20
-29
 21
-34.092
  0
LINE
  8
0
 10
46.923
 11
43.102
 20
-34.092
 21
-38.81
  0
LINE
  8
0
 10
43.102
 11
38.81
 20
-38.81
 21
-43.102
  0
LINE
  8
0
 10
38.81
 11
34.092
 20
-43.102
 21
-46.923
  0
LINE
  8
0
 10
34.092
 11
29
 20
-46.923
 21
-50.229
  0
LINE
  8
0
 10
29
 11
23.591
 20
-50.229
 21
-52.986
  0
LINE
  8
0
 10
23.591
 11
17.923
 20
-52.986
 21
-55.161
  0
LINE
  8
0
 10
17.923
 11
12.059
 20
-55.161
 21
-56.733
  0
LINE
  8
0
 10
12.059
 11
6.063
 20
-56.733
 21
-57.682
  0
LINE
  8
0
 10
6.063
 11
0
 20
-57.682
 21
-58
  0
LINE
  8
0
 10
0
 11
-6.063
 20
-58
 21
-57.682
  0
LINE
  8
0
 10
-6.063
 11
-12.059
 20
-57.682
 21
-56.733
  0
LINE
  8
0
 10
-12.059
 11
-17.923
 20
-56.733
 21
-55.161
  0
LINE
  8
0
 10
-17.923
 11
-23.591
 20
-55.161
 21
-52.986
  0
LINE
  8
0
 10
-23.591
 11
-29
 20
-52.986
 21
-50.229
  0
LINE
  8
0
 10
-29
 11
-34.092
 20
-50.229
 21
-46.923
  0
LINE
  8
0
 10
-34.092
 11
-38.81
 20
-46.923
 21
-43.102
  0
LINE
  8
0
 10
-38.81
 11
-43.102
 20
-43.102
 21
-38.81
  0
LINE
  8
0
 10
-43.102
 11
-46.923
 20
-38.81
 21
-34.092
  0
LINE
  8
0
 10
-46.923
 11
-50.229
 20
-34.092
 21
-29
  0
LINE
  8
0
 10
-50.229
 11
-52.986
 20
-29
 21
-23.591
  0
LINE
  8
0
 10
-52.986
 11
-55.161
 20
-23.591
 21
-17.923
  0
LINE
  8
0
 10
-55.161
 11
-56.733
 20
-17.923
 21
-12.059
  0
LINE
  8
0
 10
-56.733
 11
-57.682
 20
-12.059
 21
-6.063
  0
LINE
  8
0
 10
-57.682
 11
-58
 20
-6.063
 21
0
  0
LINE
  8
0
 10
-55.15
 11
-55.135
 20
-52.5
 21
-52.223
  0
LINE
  8
0
 10
-55.135
 11
-55.092
 20
-52.223
 21
-51.949
  0
LINE
  8
0
 10
-55.092
 11
-55.02
 20
-51.949
 21
-51.681
  0
LINE
  8
0
 10
-55.02
 11
-54.921
 20
-51.681
 21
-51.422
  0
LINE
  8
0
 10
-54.921
 11
-54.795
 20
-51.422
 21
-51.175
  0
LINE
  8
0
 10
-54.795
 11
-54.644
 20
-51.175
 21
-50.942
  0
LINE
  8
0
 10
-54.644
 11
-54.469
 20
-50.942
 21
-50.727
  0
LINE
  8
0
 10
-54.469
 11
-54.273
 20
-50.727
 21
-50.531
  0
LINE
  8
0
 10
-54.273
 11
-54.058
 20
-50.531
 21
-50.356
  0
LINE
  8
0
 10
-54.058
 11
-53.825
 20
-50.356
 21
-50.205
  0
LINE
  8
0
 10
-53.825
 11
-53.578
 20
-50.205
 21
-50.079
  0
LINE
  8
0
 10
-53.578
 11
-53.319
 20
-50.079
 21
-49.98
  0
LINE
  8
0
 10
-53.319
 11
-53.051
 20
-49.98
 21
-49.908
  0
LINE
  8
0
 10
-53.051
 11
-52.777
 20
-49.908
 21
-49.865
  0
LINE
  8
0
 10
-52.777
 11
-52.5
 20
-49.865
 21
-49.85
  0
LINE
  8
0
 10
-52.5
 11
-52.223
 20
-49.85
 21
-49.865
  0
LINE
  8
0
 10
-52.223
 11
-51.949
 20
-49.865
 21
-49.908
  0
LINE
  8
0
 10
-51.949
 11
-51.681
 20
-49.908
 21
-49.98
  0
LINE
  8
0
 10
-51.681
 11
-51.422
 20
-49.98
 21
-50.079
  0
LINE
  8
0
 10
-51.422
 11
-51.175
 20
-50.079
 21
-50.205
  0
LINE
  8
0
 10
-51.175
 11
-50.942
 20
-50.205
 21
-50.356
  0
LINE
  8
0
 10
-50.942
 11
-50.727
 20
-50.356
 21
-50.531
  0
LINE
  8
0
 10
-50.727
 11
-50.531
 20
-50.531
 21
-50.727
  0
LINE
  8
0
 10
-50.531
 11
-50.356
 20
-50.727
 21
-50.942
  0
LINE
  8
0
 10
-50.356
 11
-50.205
 20
-50.942
 21
-51.175
  0
LINE
  8
0
 10
-50.205
 11
-50.079
 20
-51.175
 21
-51.422
  0
LINE
  8
0
 10
-50.079
 11
-49.98
 20
-51.422
 21
-51.681
  0
LINE
  8
0
 10
-49.98
 11
-49.908
 20
-51.681
 21
-51.949
  0
LINE
  8
0
 10
-49.908
 11
-49.865
 20
-51.949
 21
-52.223
  0
LINE
  8
0
 10
-49.865
 11
-49.85
 20
-52.223
 21
-52.5
  0
LINE
  8
0
 10
-49.85
 11
-49.865
 20
-52.5
 21
-52.777
  0
LINE
  8
0
 10
-49.865
 11
-49.908
 20
-52.777
 21
-53.051
  0
LINE
  8
0
 10
-49.908
 11
-49.98
 20
-53.051
 21
-53.319
  0
LINE
  8
0
 10
-49.98
 11
-50.079
 20
-53.319
 21
-53.578
  0
LINE
  8
0
 10
-50.079
 11
-50.205
 20
-53.578
 21
-53.825
  0
LINE
  8
0
 10
-50.205
 11
-50.356
 20
-53.825
 21
-54.058
  0
LINE
  8
0
 10
-50.356
 11
-50.531
 20
-54.058
 21
-54.273
  0
LINE
  8
0
 10
-50.531
 11
-50.727
 20
-54.273
 21
-54.469
  0
LINE
  8
0
 10
-50.727
 11
-50.942
 20
-54.469
 21
-54.644
  0
LINE
  8
0
 10
-50.942
 11
-51.175
 20
-54.644
 21
-54.795
  0
LINE
  8
0
 10
-51.175
 11
-51.422
 20
-54.795
 21
-54.921
  0
LINE
  8
0
 10
-51.422
 11
-51.681
 20
-54.921
 21
-55.02
  0
LINE
  8
0
 10
-51.681
 11
-51.949
 20
-55.02
 21
-55.092
  0
LINE
  8
0
 10
-51.949
 11
-52.223
 20
-55.092
 21
-55.135
  0
LINE
  8
0
 10
-52.223
 11
-52.5
 20
-55.135
 21
-55.15
  0
LINE
  8
0
 10
-52.5
 11
-52.777
 20
-55.15
 21
-55.135
  0
LINE
  8
0
 10
-52.777
 11
-53.051
 20
-55.135
 21
-55.092
  0
LINE
  8
0
 10
-53.051
 11
-53.319
 20
-55.092
 21
-55.02
  0
LINE
  8
0
 10
-53.319
 11
-53.578
 20
-55.02
 21
-54.921
  0
LINE
  8
0
 10
-53.578
 11
-53.825
 20
-54.921
 21
-54.795
  0
LINE
  8
0
 10
-53.825
 11
-54.058
 20
-54.795
 21
-54.644
  0
LINE
  8
0
 10
-54.058
 11
-54.273
 20
-54.644
 21
-54.469
  0
LINE
  8
0
 10
-54.273
 11
-54.469
 20
-54.469
 21
-54.273
  0
LINE
  8
0
 10
-54.469
 11
-54.644
 20
-54.273
 21
-54.058
  0
LINE
  8
0
 10
-54.644
 11
-54.795
 20
-54.058
 21
-53.825
  0
LINE
  8
0
 10
-54.795
 11
-54.921
 20
-53.825
 21
-53.578
  0
LINE
  8
0
 10
-54.921
 11
-55.02
 20
-53.578
 21
-53.319
  0
LINE
  8
0
 10
-55.02
 11
-55.092
 20
-53.319
 21
-53.051
  0
LINE
  8
0
 10
-55.092
 11
-55.135
 20
-53.051
 21
-52.777
  0
LINE
  8
0
 10
-55.135
 11
-55.15
 20
-52.777
 21
-52.5
  0
LINE
  8
0
 10
-55.15
 11
-55.135
 20
52.5
 21
52.777
  0
LINE
  8
0
 10
-55.135
 11
-55.092
 20
52.777
 21
53.051
  0
LINE
  8
0
 10
-55.092
 11
-55.02
 20
53.051
 21
53.319
  0
LINE
  8
0
 10
-55.02
 11
-54.921
 20
53.319
 21
53.578
  0
LINE
  8
0
 10
-54.921
 11
-54.795
 20
53.578
 21
53.825
  0
LINE
  8
0
 10
-54.795
 11
-54.644
 20
53.825
 21
54.058
  0
LINE
  8
0
 10
-54.644
 11
-54.469
 20
54.058
 21
54.273
  0
LINE
  8
0
 10
-54.469
 11
-54.273
 20
54.273
 21
54.469
  0
LINE
  8
0
 10
-54.273
 11
-54.058
 20
54.469
 21
54.644
  0
LINE
  8
0
 10
-54.058
 11
-53.825
 20
54.644
 21
54.795
  0
LINE
  8
0
 10
-53.825
 11
-53.578
 20
54.795
 21
54.921
  0
LINE
  8
0
 10
-53.578
 11
-53.319
 20
54.921
 21
55.02
  0
LINE
  8
0
 10
-53.319
 11
-53.051
 20
55.02
 21
55.092
  0
LINE
  8
0
 10
-53.051
 11
-52.777
 20
55.092
 21
55.135
  0
LINE
  8
0
 10
-52.777
 11
-52.5
 20
55.135
 21
55.15
  0
LINE
  8
0
 10
-52.5
 11
-52.223
 20
55.15
 21
55.135
  0
LINE
  8
0
 10
-52.223
 11
-51.949
 20
55.135
 21
55.092
  0
LINE
  8
0
 10
-51.949
 11
-51.681
 20
55.092
 21
55.02
  0
LINE
  8
0
 10
-51.681
 11
-51.422
 20
55.02
 21
54.921
  0
LINE
  8
0
 10
-51.422
 11
-51.175
 20
54.921
 21
54.795
  0
LINE
  8
0
 10
-51.175
 11
-50.942
 20
54.795
 21
54.644
  0
LINE
  8
0
 10
-50.942
 11
-50.727
 20
54.644
 21
54.469
  0
LINE
  8
0
 10
-50.727
 11
-50.531
 20
54.469
 21
54.273
  0
LINE
  8
0
 10
-50.531
 11
-50.356
 20
54.273
 21
54.058
  0
LINE
  8
0
 10
-50.356
 11
-50.205
 20
54.058
 21
53.825
  0
LINE
  8
0
 10
-50.205
 11
-50.079
 20
53.825
 21
53.578
  0
LINE
  8
0
 10
-50.079
 11
-49.98
 20
53.578
 21
53.319
  0
LINE
  8
0
 10
-49.98
 11
-49.908
 20
53.319
 21
53.051
  0
LINE
  8
0
 10
-49.908
 11
-49.865
 20
53.051
 21
52.777
  0
LINE
  8
0
 10
-49.865
 11
-49.85
 20
52.777
 21
52.5
  0
LINE
  8
0
 10
-49.85
 11
-49.865
 20
52.5
 21
52.223
  0
LINE
  8
0
 10
-49.865
 11
-49.908
 20
52.223
 21
51.949
  0
LINE
  8
0
 10
-49.908
 11
-49.98
 20
51.949
 21
51.681
  0
LINE
  8
0
 10
-49.98
 11
-50.079
 20
51.681
 21
51.422
  0
LINE
  8
0
 10
-50.079
 11
-50.205
 20
51.422
 21
51.175
  0
LINE
  8
0
 10
-50.205
 11
-50.356
 20
51.175
 21
50.942
  0
LINE
  8
0
 10
-50.356
 11
-50.531
 20
50.942
 21
50.727
  0
LINE
  8
0
 10
-50.531
 11
-50.727
 20
50.727
 21
50.531
  0
LINE
  8
0
 10
-50.727
 11
-50.942
 20
50.531
 21
50.356
  0
LINE
  8
0
 10
-50.942
 11
-51.175
 20
50.356
 21
50.205
  0
LINE
  8
0
 10
-51.175
 11
-51.422
 20
50.205
 21
50.079
  0
LINE
  8
0
 10
-51.422
 11
-51.681
 20
50.079
 21
49.98
  0
LINE
  8
0
 10
-51.681
 11
-51.949
 20
49.98
 21
49.908
  0
LINE
  8
0
 10
-51.949
 11
-52.223
 20
49.908
 21
49.865
  0
LINE
  8
0
 10
-52.223
 11
-52.5
 20
49.865
 21
49.85
  0
LINE
  8
0
 10
-52.5
 11
-52.777
 20
49.85
 21
49.865
  0
LINE
  8
0
 10
-52.777
 11
-53.051
 20
49.865
 21
49.908
  0
LINE
  8
0
 10
-53.051
 11
-53.319
 20
49.908
 21
49.98
  0
LINE
  8
0
 10
-53.319
 11
-53.578
 20
49.98
 21
50.079
  0
LINE
  8
0
 10
-53.578
 11
-53.825
 20
50.079
 21
50.205
  0
LINE
  8
0
 10
-53.825
 11
-54.058
 20
50.205
 21
50.356
  0
LINE
  8
0
 10
-54.058
 11
-54.273
 20
50.356
 21
50.531
  0
LINE
  8
0
 10
-54.273
 11
-54.469
 20
50.531
 21
50.727
  0
LINE
  8
0
 10
-54.469
 11
-54.644
 20
50.727
 21
50.942
  0
LINE
  8
0
 10
-54.644
 11
-54.795
 20
50.942
 21
51.175
  0
LINE
  8
0
 10
-54.795
 11
-54.921
 20
51.175
 21
51.422
  0
LINE
  8
0
 10
-54.921
 11
-55.02
 20
51.422
 21
51.681
  0
LINE
  8
0
 10
-55.02
 11
-55.092
 20
51.681
 21
51.949
  0
LINE
  8
0
 10
-55.092
 11
-55.135
 20
51.949
 21
52.223
  0
LINE
  8
0
 10
-55.135
 11
-55.15
 20
52.223
 21
52.5
  0
LINE
  8
0
 10
49.85
 11
49.865
 20
-52.5
 21
-52.223
  0
LINE
  8
0
 10
49.865
 11
49.908
 20
-52.223
 21
-51.949
  0
LINE
  8
0
 10
49.908
 11
49.98
 20
-51.949
 21
-51.681
  0
LINE
  8
0
 10
49.98
 11
50.079
 20
-51.681
 21
-51.422
  0
LINE
  8
0
 10
50.079
 11
50.205
 20
-51.422
 21
-51.175
  0
LINE
  8
0
 10
50.205
 11
50.356
 20
-51.175
 21
-50.942
  0
LINE
  8
0
 10
50.356
 11
50.531
 20
-50.942
 21
-50.727
  0
LINE
  8
0
 10
50.531
 11
50.727
 20
-50.727
 21
-50.531
  0
LINE
  8
0
 10
50.727
 11
50.942
 20
-50.531
 21
-50.356
  0
LINE
  8
0
 10
50.942
 11
51.175
 20
-50.356
 21
-50.205
  0
LINE
  8
0
 10
51.175
 11
51.422
 20
-50.205
 21
-50.079
  0
LINE
  8
0
 10
51.422
 11
51.681
 20
-50.079
 21
-49.98
  0
LINE
  8
0
 10
51.681
 11
51.949
 20
-49.98
 21
-49.908
  0
LINE
  8
0
 10
51.949
 11
52.223
 20
-49.908
 21
-49.865
  0
LINE
  8
0
 10
52.223
 11
52.5
 20
-49.865
 21
-49.85
  0
LINE
  8
0
 10
52.5
 11
52.777
 20
-49.85
 21
-49.865
  0
LINE
  8
0
 10
52.777
 11
53.051
 20
-49.865
 21
-49.908
  0
LINE
  8
0
 10
53.051
 11
53.319
 20
-49.908
 21
-49.98
  0
LINE
  8
0
 10
53.319
 11
53.578
 20
-49.98
 21
-50.079
  0
LINE
  8
0
 10
53.578
 11
53.825
 20
-50.079
 21
-50.205
  0
LINE
  8
0
 10
53.825
 11
54.058
 20
-50.205
 21
-50.356
  0
LINE
  8
0
 10
54.058
 11
54.273
 20
-50.356
 21
-50.531
  0
LINE
  8
0
 10
54.273
 11
54.469
 20
-50.531
 21
-50.727
  0
LINE
  8
0
 10
54.469
 11
54.644
 20
-50.727
 21
-50.942
  0
LINE
  8
0
 10
54.644
 11
54.795
 20
-50.942
 21
-51.175
  0
LINE
  8
0
 10
54.795
 11
54.921
 20
-51.175
 21
-51.422
  0
LINE
  8
0
 10
54.921
 11
55.02
 20
-51.422
 21
-51.681
  0
LINE
  8
0
 10
55.02
 11
55.092
 20
-51.681
 21
-51.949
  0
LINE
  8
0
 10
55.092
 11
55.135
 20
-51.949
 21
-52.223
  0
LINE
  8
0
 10
55.135
 11
55.15
 20
-52.223
 21
-52.5
  0
LINE
  8
0
 10
55.15
 11
55.135
 20
-52.5
 21
-52.777
  0
LINE
  8
0
 10
55.135
 11
55.092
 20
-52.777
 21
-53.051
  0
LINE
  8
0
 10
55.092
 11
55.02
 20
-53.051
 21
-53.319
  0
LINE
  8
0
 10
55.02
 11
54.921
 20
-53.319
 21
-53.578
  0
LINE
  8
0
 10
54.921
 11
54.795
 20
-53.578
 21
-53.825
  0
LINE
  8
0
 10
54.795
 11
54.644
 20
-53.825
 21
-54.058
  0
LINE
  8
0
 10
54.644
 11
54.469
 20
-54.058
 21
-54.273
  0
LINE
  8
0
 10
54.469
 11
54.273
 20
-54.273
 21
-54.469
  0
LINE
  8
0
 10
54.273
 11
54.058
 20
-54.469
 21
-54.644
  0
LINE
  8
0
 10
54.058
 11
53.825
 20
-54.644
 21
-54.795
  0
LINE
  8
0
 10
53.825
 11
53.578
 20
-54.795
 21
-54.921
  0
LINE
  8
0
 10
53.578
 11
53.319
 20
-54.921
 21
-55.02
  0
LINE
  8
0
 10
53.319
 11
53.051
 20
-55.02
 21
-55.092
  0
LINE
  8
0
 10
53.051
 11
52.777
 20
-55.092
 21
-55.135
  0
LINE
  8
0
 10
52.777
 11
52.5
 20
-55.135
 21
-55.15
  0
LINE
  8
0
 10
52.5
 11
52.223
 20
-55.15
 21
-55.135
  0
LINE
  8
0
 10
52.223
 11
51.949
 20
-55.135
 21
-55.092
  0
LINE
  8
0
 10
51.949
 11
51.681
 20
-55.092
 21
-55.02
  0
LINE
  8
0
 10
51.681
 11
51.422
 20
-55.02
 21
-54.921
  0
LINE
  8
0
 10
51.422
 11
51.175
 20
-54.921
 21
-54.795
  0
LINE
  8
0
 10
51.175
 11
50.942
 20
-54.795
 21
-54.644
  0
LINE
  8
0
 10
50.942
 11
50.727
 20
-54.644
 21
-54.469
  0
LINE
  8
0
 10
50.727
 11
50.531
 20
-54.469
 21
-54.273
  0
LINE
  8
0
 10
50.531
 11
50.356
 20
-54.273
 21
-54.058
  0
LINE
  8
0
 10
50.356
 11
50.205
 20
-54.058
 21
-53.825
  0
LINE
  8
0
 10
50.205
 11
50.079
 20
-53.825
 21
-53.578
  0
LINE
  8
0
 10
50.079
 11
49.98
 20
-53.578
 21
-53.319
  0
LINE
  8
0
 10
49.98
 11
49.908
 20
-53.319
 21
-53.051
  0
LINE
  8
0
 10
49.908
 11
49.865
 20
-53.051
 21
-52.777
  0
LINE
  8
0
 10
49.865
 11
49.85
 20
-52.777
 21
-52.5
  0
LINE
  8
0
 10
49.85
 11
49.865
 20
52.5
 21
52.777
  0
LINE
  8
0
 10
49.865
 11
49.908
 20
52.777
 21
53.051
  0
LINE
  8
0
 10
49.908
 11
49.98
 20
53.051
 21
53.319
  0
LINE
  8
0
 10
49.98
 11
50.079
 20
53.319
 21
53.578
  0
LINE
  8
0
 10
50.079
 11
50.205
 20
53.578
 21
53.825
  0
LINE
  8
0
 10
50.205
 11
50.356
 20
53.825
 21
54.058
  0
LINE
  8
0
 10
50.356
 11
50.531
 20
54.058
 21
54.273
  0
LINE
  8
0
 10
50.531
 11
50.727
 20
54.273
 21
54.469
  0
LINE
  8
0
 10
50.727
 11
50.942
 20
54.469
 21
54.644
  0
LINE
  8
0
 10
50.942
 11
51.175
 20
54.644
 21
54.795
  0
LINE
  8
0
 10
51.175
 11
51.422
 20
54.795
 21
54.921
  0
LINE
  8
0
 10
51.422
 11
51.681
 20
54.921
 21
55.02
  0
LINE
  8
0
 10
51.681
 11
51.949
 20
55.02
 21
55.092
  0
LINE
  8
0
 10
51.949
 11
52.223
 20
55.092
 21
55.135
  0
LINE
  8
0
 10
52.223
 11
52.5
 20
55.135
 21
55.15
  0
LINE
  8
0
 10
52.5
 11
52.777
 20
55.15
 21
55.135
  0
LINE
  8
0
 10
52.777
 11
53.051
 20
55.135
 21
55.092
  0
LINE
  8
0
 10
53.051
 11
53.319
 20
55.092
 21
55.02
  0
LINE
  8
0
 10
53.319
 11
53.578
 20
55.02
 21
54.921
  0
LINE
  8
0
 10
53.578
 11
53.825
 20
54.921
 21
54.795
  0
LINE
  8
0
 10
53.825
 11
54.058
 20
54.795
 21
54.644
  0
LINE
  8
0
 10
54.058
 11
54.273
 20
54.644
 21
54.469
  0
LINE
  8
0
 10
54.273
 11
54.469
 20
54.469
 21
54.273
  0
LINE
  8
0
 10
54.469
 11
54.644
 20
54.273
 21
54.058
  0
LINE
  8
0
 10
54.644
 11
54.795
 20
54.058
 21
53.825
  0
LINE
  8
0
 10
54.795
 11
54.921
 20
53.825
 21
53.578
  0
LINE
  8
0
 10
54.921
 11
55.02
 20
53.578
 21
53.319
  0
LINE
  8
0
 10
55.02
 11
55.092
 20
53.319
 21
53.051
  0
LINE
  8
0
 10
55.092
 11
55.135
 20
53.051
 21
52.777
  0
LINE
  8
0
 10
55.135
 11
55.15
 20
52.777
 21
52.5
  0
LINE
  8
0
 10
55.15
 11
55.135
 20
52.5
 21
52.223
  0
LINE
  8
0
 10
55.135
 11
55.092
 20
52.223
 21
51.949
  0
LINE
  8
0
 10
55.092
 11
55.02
 20
51.949
 21
51.681
  0
LINE
  8
0
 10
55.02
 11
54.921
 20
51.681
 21
51.422
  0
LINE
  8
0
 10
54.921
 11
54.795
 20
51.422
 21
51.175
  0
LINE
  8
0
 10
54.795
 11
54.644
 20
51.175
 21
50.942
  0
LINE
  8
0
 10
54.644
 11
54.469
 20
50.942
 21
50.727
  0
LINE
  8
0
 10
54.469
 11
54.273
 20
50.727
 21
50.531
  0
LINE
  8
0
 10
54.273
 11
54.058
 20
50.531
 21
50.356
  0
LINE
  8
0
 10
54.058
 11
53.825
 20
50.356
 21
50.205
  0
LINE
  8
0
 10
53.825
 11
53.578
 20
50.205
 21
50.079
  0
LINE
  8
0
 10
53.578
 11
53.319
 20
50.079
 21
49.98
  0
LINE
  8
0
 10
53.319
 11
53.051
 20
49.98
 21
49.908
  0
LINE
  8
0
 10
53.051
 11
52.777
 20
49.908
 21
49.865
  0
LINE
  8
0
 10
52.777
 11
52.5
 20
49.865
 21
49.85
  0
LINE
  8
0
 10
52.5
 11
52.223
 20
49.85
 21
49.865
  0
LINE
  8
0
 10
52.223
 11
51.949
 20
49.865
 21
49.908
  0
LINE
  8
0
 10
51.949
 11
51.681
 20
49.908
 21
49.98
  0
LINE
  8
0
 10
51.681
 11
51.422
 20
49.98
 21
50.079
  0
LINE
  8
0
 10
51.422
 11
51.175
 20
50.079
 21
50.205
  0
LINE
  8
0
 10
51.175
 11
50.942
 20
50.205
 21
50.356
  0
LINE
  8
0
 10
50.942
 11
50.727
 20
50.356
 21
50.531
  0
LINE
  8
0
 10
50.727
 11
50.531
 20
50.531
 21
50.727
  0
LINE
  8
0
 10
50.531
 11
50.356
 20
50.727
 21
50.942
  0
LINE
  8
0
 10
50.356
 11
50.205
 20
50.942
 21
51.175
  0
LINE
  8
0
 10
50.205
 11
50.079
 20
51.175
 21
51.422
  0
LINE
  8
0
 10
50.079
 11
49.98
 20
51.422
 21
51.681
  0
LINE
  8
0
 10
49.98
 11
49.908
 20
51.681
 21
51.949
  0
LINE
  8
0
 10
49.908
 11
49.865
 20
51.949
 21
52.223
  0
LINE
  8
0
 10
49.865
 11
49.85
 20
52.223
 21
52.5
  0
ENDSEC
  0
SECTION
  2
OBJECTS
  0
DICTIONARY
  0
ENDSEC
  0
EOF
