  0
SECTION
  2
BLOCKS
  0
ENDSEC
  0
SECTION
  2
ENTITIES
  0
LINE
  8
0
 10
37
 11
37
 20
27
 21
147
  0
LINE
  8
0
 10
37
 11
47
 20
147
 21
147
  0
LINE
  8
0
 10
47
 11
47
 20
147
 21
27
  0
LINE
  8
0
 10
47
 11
37
 20
27
 21
27
  0
LINE
  8
0
 10
57
 11
57
 20
27
 21
147
  0
LINE
  8
0
 10
57
 11
67
 20
147
 21
147
  0
LINE
  8
0
 10
67
 11
67
 20
147
 21
27
  0
LINE
  8
0
 10
67
 11
57
 20
27
 21
27
  0
LINE
  8
0
 10
77
 11
77
 20
27
 21
147
  0
LINE
  8
0
 10
77
 11
87
 20
147
 21
147
  0
LINE
  8
0
 10
87
 11
87
 20
147
 21
27
  0
LINE
  8
0
 10
87
 11
77
 20
27
 21
27
  0
LINE
  8
0
 10
97
 11
97
 20
27
 21
147
  0
LINE
  8
0
 10
97
 11
107
 20
147
 21
147
  0
LINE
  8
0
 10
107
 11
107
 20
147
 21
27
  0
LINE
  8
0
 10
107
 11
97
 20
27
 21
27
  0
LINE
  8
0
 10
117
 11
117
 20
27
 21
147
  0
LINE
  8
0
 10
117
 11
127
 20
147
 21
147
  0
LINE
  8
0
 10
127
 11
127
 20
147
 21
27
  0
LINE
  8
0
 10
127
 11
117
 20
27
 21
27
  0
LINE
  8
0
 10
137
 11
137
 20
27
 21
147
  0
LINE
  8
0
 10
137
 11
147
 20
147
 21
147
  0
LINE
  8
0
 10
147
 11
147
 20
147
 21
27
  0
LINE
  8
0
 10
147
 11
137
 20
27
 21
27
  0
LINE
  8
0
 10
157
 11
157
 20
27
 21
147
  0
LINE
  8
0
 10
157
 11
167
 20
147
 21
147
  0
LINE
  8
0
 10
167
 11
167
 20
147
 21
27
  0
LINE
  8
0
 10
167
 11
157
 20
27
 21
27
  0
LINE
  8
0
 10
177
 11
177
 20
27
 21
147
  0
LINE
  8
0
 10
177
 11
187
 20
147
 21
147
  0
LINE
  8
0
 10
187
 11
187
 20
147
 21
27
  0
LINE
  8
0
 10
187
 11
177
 20
27
 21
27
  0
ENDSEC
  0
SECTION
  2
OBJECTS
  0
DICTIONARY
  0
ENDSEC
  0
EOF
