  0
SECTION
  2
BLOCKS
  0
ENDSEC
  0
SECTION
  2
ENTITIES
  0
LINE
  8
0
 10
0
 11
0
 20
75
 21
125
  0
LINE
  8
0
 10
0
 11
26
 20
125
 21
125
  0
LINE
  8
0
 10
26
 11
26
 20
125
 21
200
  0
LINE
  8
0
 10
26
 11
65.5
 20
200
 21
200
  0
LINE
  8
0
 10
65.5
 11
65.5
 20
200
 21
125
  0
LINE
  8
0
 10
65.5
 11
75.5
 20
125
 21
125
  0
LINE
  8
0
 10
75.5
 11
75.5
 20
125
 21
200
  0
LINE
  8
0
 10
75.5
 11
165.5
 20
200
 21
200
  0
LINE
  8
0
 10
165.5
 11
165.5
 20
200
 21
125
  0
LINE
  8
0
 10
165.5
 11
175.5
 20
125
 21
125
  0
LINE
  8
0
 10
175.5
 11
175.5
 20
125
 21
200
  0
LINE
  8
0
 10
175.5
 11
215
 20
200
 21
200
  0
LINE
  8
0
 10
215
 11
215
 20
200
 21
125
  0
LINE
  8
0
 10
215
 11
240
 20
125
 21
125
  0
LINE
  8
0
 10
240
 11
240
 20
125
 21
75
  0
LINE
  8
0
 10
240
 11
215
 20
75
 21
75
  0
LINE
  8
0
 10
215
 11
215
 20
75
 21
0
  0
LINE
  8
0
 10
215
 11
175.5
 20
0
 21
0
  0
LINE
  8
0
 10
175.5
 11
175.5
 20
0
 21
75
  0
LINE
  8
0
 10
175.5
 11
165.5
 20
75
 21
75
  0
LINE
  8
0
 10
165.5
 11
165.5
 20
75
 21
0
  0
LINE
  8
0
 10
165.5
 11
75.5
 20
0
 21
0
  0
LINE
  8
0
 10
75.5
 11
75.5
 20
0
 21
75
  0
LINE
  8
0
 10
75.5
 11
65.5
 20
75
 21
75
  0
LINE
  8
0
 10
65.5
 11
65.5
 20
75
 21
0
  0
LINE
  8
0
 10
65.5
 11
26
 20
0
 21
0
  0
LINE
  8
0
 10
26
 11
26
 20
0
 21
75
  0
LINE
  8
0
 10
26
 11
0
 20
75
 21
75
  0
LINE
  8
0
 10
43.75
 11
43.761
 20
15
 21
15.209
  0
LINE
  8
0
 10
43.761
 11
43.794
 20
15.209
 21
15.416
  0
LINE
  8
0
 10
43.794
 11
43.848
 20
15.416
 21
15.618
  0
LINE
  8
0
 10
43.848
 11
43.923
 20
15.618
 21
15.813
  0
LINE
  8
0
 10
43.923
 11
44.018
 20
15.813
 21
16
  0
LINE
  8
0
 10
44.018
 11
44.132
 20
16
 21
16.176
  0
LINE
  8
0
 10
44.132
 11
44.264
 20
16.176
 21
16.338
  0
LINE
  8
0
 10
44.264
 11
44.412
 20
16.338
 21
16.486
  0
LINE
  8
0
 10
44.412
 11
44.574
 20
16.486
 21
16.618
  0
LINE
  8
0
 10
44.574
 11
44.75
 20
16.618
 21
16.732
  0
LINE
  8
0
 10
44.75
 11
44.937
 20
16.732
 21
16.827
  0
LINE
  8
0
 10
44.937
 11
45.132
 20
16.827
 21
16.902
  0
LINE
  8
0
 10
45.132
 11
45.334
 20
16.902
 21
16.956
  0
LINE
  8
0
 10
45.334
 11
45.541
 20
16.956
 21
16.989
  0
LINE
  8
0
 10
45.541
 11
45.75
 20
16.989
 21
17
  0
LINE
  8
0
 10
45.75
 11
45.959
 20
17
 21
16.989
  0
LINE
  8
0
 10
45.959
 11
46.166
 20
16.989
 21
16.956
  0
LINE
  8
0
 10
46.166
 11
46.368
 20
16.956
 21
16.902
  0
LINE
  8
0
 10
46.368
 11
46.563
 20
16.902
 21
16.827
  0
LINE
  8
0
 10
46.563
 11
46.75
 20
16.827
 21
16.732
  0
LINE
  8
0
 10
46.75
 11
46.926
 20
16.732
 21
16.618
  0
LINE
  8
0
 10
46.926
 11
47.088
 20
16.618
 21
16.486
  0
LINE
  8
0
 10
47.088
 11
47.236
 20
16.486
 21
16.338
  0
LINE
  8
0
 10
47.236
 11
47.368
 20
16.338
 21
16.176
  0
LINE
  8
0
 10
47.368
 11
47.482
 20
16.176
 21
16
  0
LINE
  8
0
 10
47.482
 11
47.577
 20
16
 21
15.813
  0
LINE
  8
0
 10
47.577
 11
47.652
 20
15.813
 21
15.618
  0
LINE
  8
0
 10
47.652
 11
47.706
 20
15.618
 21
15.416
  0
LINE
  8
0
 10
47.706
 11
47.739
 20
15.416
 21
15.209
  0
LINE
  8
0
 10
47.739
 11
47.75
 20
15.209
 21
15
  0
LINE
  8
0
 10
47.75
 11
47.739
 20
15
 21
14.791
  0
LINE
  8
0
 10
47.739
 11
47.706
 20
14.791
 21
14.584
  0
LINE
  8
0
 10
47.706
 11
47.652
 20
14.584
 21
14.382
  0
LINE
  8
0
 10
47.652
 11
47.577
 20
14.382
 21
14.187
  0
LINE
  8
0
 10
47.577
 11
47.482
 20
14.187
 21
14
  0
LINE
  8
0
 10
47.482
 11
47.368
 20
14
 21
13.824
  0
LINE
  8
0
 10
47.368
 11
47.236
 20
13.824
 21
13.662
  0
LINE
  8
0
 10
47.236
 11
47.088
 20
13.662
 21
13.514
  0
LINE
  8
0
 10
47.088
 11
46.926
 20
13.514
 21
13.382
  0
LINE
  8
0
 10
46.926
 11
46.75
 20
13.382
 21
13.268
  0
LINE
  8
0
 10
46.75
 11
46.563
 20
13.268
 21
13.173
  0
LINE
  8
0
 10
46.563
 11
46.368
 20
13.173
 21
13.098
  0
LINE
  8
0
 10
46.368
 11
46.166
 20
13.098
 21
13.044
  0
LINE
  8
0
 10
46.166
 11
45.959
 20
13.044
 21
13.011
  0
LINE
  8
0
 10
45.959
 11
45.75
 20
13.011
 21
13
  0
LINE
  8
0
 10
45.75
 11
45.541
 20
13
 21
13.011
  0
LINE
  8
0
 10
45.541
 11
45.334
 20
13.011
 21
13.044
  0
LINE
  8
0
 10
45.334
 11
45.132
 20
13.044
 21
13.098
  0
LINE
  8
0
 10
45.132
 11
44.937
 20
13.098
 21
13.173
  0
LINE
  8
0
 10
44.937
 11
44.75
 20
13.173
 21
13.268
  0
LINE
  8
0
 10
44.75
 11
44.574
 20
13.268
 21
13.382
  0
LINE
  8
0
 10
44.574
 11
44.412
 20
13.382
 21
13.514
  0
LINE
  8
0
 10
44.412
 11
44.264
 20
13.514
 21
13.662
  0
LINE
  8
0
 10
44.264
 11
44.132
 20
13.662
 21
13.824
  0
LINE
  8
0
 10
44.132
 11
44.018
 20
13.824
 21
14
  0
LINE
  8
0
 10
44.018
 11
43.923
 20
14
 21
14.187
  0
LINE
  8
0
 10
43.923
 11
43.848
 20
14.187
 21
14.382
  0
LINE
  8
0
 10
43.848
 11
43.794
 20
14.382
 21
14.584
  0
LINE
  8
0
 10
43.794
 11
43.761
 20
14.584
 21
14.791
  0
LINE
  8
0
 10
43.761
 11
43.75
 20
14.791
 21
15
  0
LINE
  8
0
 10
43.75
 11
43.761
 20
185
 21
185.209
  0
LINE
  8
0
 10
43.761
 11
43.794
 20
185.209
 21
185.416
  0
LINE
  8
0
 10
43.794
 11
43.848
 20
185.416
 21
185.618
  0
LINE
  8
0
 10
43.848
 11
43.923
 20
185.618
 21
185.813
  0
LINE
  8
0
 10
43.923
 11
44.018
 20
185.813
 21
186
  0
LINE
  8
0
 10
44.018
 11
44.132
 20
186
 21
186.176
  0
LINE
  8
0
 10
44.132
 11
44.264
 20
186.176
 21
186.338
  0
LINE
  8
0
 10
44.264
 11
44.412
 20
186.338
 21
186.486
  0
LINE
  8
0
 10
44.412
 11
44.574
 20
186.486
 21
186.618
  0
LINE
  8
0
 10
44.574
 11
44.75
 20
186.618
 21
186.732
  0
LINE
  8
0
 10
44.75
 11
44.937
 20
186.732
 21
186.827
  0
LINE
  8
0
 10
44.937
 11
45.132
 20
186.827
 21
186.902
  0
LINE
  8
0
 10
45.132
 11
45.334
 20
186.902
 21
186.956
  0
LINE
  8
0
 10
45.334
 11
45.541
 20
186.956
 21
186.989
  0
LINE
  8
0
 10
45.541
 11
45.75
 20
186.989
 21
187
  0
LINE
  8
0
 10
45.75
 11
45.959
 20
187
 21
186.989
  0
LINE
  8
0
 10
45.959
 11
46.166
 20
186.989
 21
186.956
  0
LINE
  8
0
 10
46.166
 11
46.368
 20
186.956
 21
186.902
  0
LINE
  8
0
 10
46.368
 11
46.563
 20
186.902
 21
186.827
  0
LINE
  8
0
 10
46.563
 11
46.75
 20
186.827
 21
186.732
  0
LINE
  8
0
 10
46.75
 11
46.926
 20
186.732
 21
186.618
  0
LINE
  8
0
 10
46.926
 11
47.088
 20
186.618
 21
186.486
  0
LINE
  8
0
 10
47.088
 11
47.236
 20
186.486
 21
186.338
  0
LINE
  8
0
 10
47.236
 11
47.368
 20
186.338
 21
186.176
  0
LINE
  8
0
 10
47.368
 11
47.482
 20
186.176
 21
186
  0
LINE
  8
0
 10
47.482
 11
47.577
 20
186
 21
185.813
  0
LINE
  8
0
 10
47.577
 11
47.652
 20
185.813
 21
185.618
  0
LINE
  8
0
 10
47.652
 11
47.706
 20
185.618
 21
185.416
  0
LINE
  8
0
 10
47.706
 11
47.739
 20
185.416
 21
185.209
  0
LINE
  8
0
 10
47.739
 11
47.75
 20
185.209
 21
185
  0
LINE
  8
0
 10
47.75
 11
47.739
 20
185
 21
184.791
  0
LINE
  8
0
 10
47.739
 11
47.706
 20
184.791
 21
184.584
  0
LINE
  8
0
 10
47.706
 11
47.652
 20
184.584
 21
184.382
  0
LINE
  8
0
 10
47.652
 11
47.577
 20
184.382
 21
184.187
  0
LINE
  8
0
 10
47.577
 11
47.482
 20
184.187
 21
184
  0
LINE
  8
0
 10
47.482
 11
47.368
 20
184
 21
183.824
  0
LINE
  8
0
 10
47.368
 11
47.236
 20
183.824
 21
183.662
  0
LINE
  8
0
 10
47.236
 11
47.088
 20
183.662
 21
183.514
  0
LINE
  8
0
 10
47.088
 11
46.926
 20
183.514
 21
183.382
  0
LINE
  8
0
 10
46.926
 11
46.75
 20
183.382
 21
183.268
  0
LINE
  8
0
 10
46.75
 11
46.563
 20
183.268
 21
183.173
  0
LINE
  8
0
 10
46.563
 11
46.368
 20
183.173
 21
183.098
  0
LINE
  8
0
 10
46.368
 11
46.166
 20
183.098
 21
183.044
  0
LINE
  8
0
 10
46.166
 11
45.959
 20
183.044
 21
183.011
  0
LINE
  8
0
 10
45.959
 11
45.75
 20
183.011
 21
183
  0
LINE
  8
0
 10
45.75
 11
45.541
 20
183
 21
183.011
  0
LINE
  8
0
 10
45.541
 11
45.334
 20
183.011
 21
183.044
  0
LINE
  8
0
 10
45.334
 11
45.132
 20
183.044
 21
183.098
  0
LINE
  8
0
 10
45.132
 11
44.937
 20
183.098
 21
183.173
  0
LINE
  8
0
 10
44.937
 11
44.75
 20
183.173
 21
183.268
  0
LINE
  8
0
 10
44.75
 11
44.574
 20
183.268
 21
183.382
  0
LINE
  8
0
 10
44.574
 11
44.412
 20
183.382
 21
183.514
  0
LINE
  8
0
 10
44.412
 11
44.264
 20
183.514
 21
183.662
  0
LINE
  8
0
 10
44.264
 11
44.132
 20
183.662
 21
183.824
  0
LINE
  8
0
 10
44.132
 11
44.018
 20
183.824
 21
184
  0
LINE
  8
0
 10
44.018
 11
43.923
 20
184
 21
184.187
  0
LINE
  8
0
 10
43.923
 11
43.848
 20
184.187
 21
184.382
  0
LINE
  8
0
 10
43.848
 11
43.794
 20
184.382
 21
184.584
  0
LINE
  8
0
 10
43.794
 11
43.761
 20
184.584
 21
184.791
  0
LINE
  8
0
 10
43.761
 11
43.75
 20
184.791
 21
185
  0
LINE
  8
0
 10
118.5
 11
118.511
 20
15
 21
15.209
  0
LINE
  8
0
 10
118.511
 11
118.544
 20
15.209
 21
15.416
  0
LINE
  8
0
 10
118.544
 11
118.598
 20
15.416
 21
15.618
  0
LINE
  8
0
 10
118.598
 11
118.673
 20
15.618
 21
15.813
  0
LINE
  8
0
 10
118.673
 11
118.768
 20
15.813
 21
16
  0
LINE
  8
0
 10
118.768
 11
118.882
 20
16
 21
16.176
  0
LINE
  8
0
 10
118.882
 11
119.014
 20
16.176
 21
16.338
  0
LINE
  8
0
 10
119.014
 11
119.162
 20
16.338
 21
16.486
  0
LINE
  8
0
 10
119.162
 11
119.324
 20
16.486
 21
16.618
  0
LINE
  8
0
 10
119.324
 11
119.5
 20
16.618
 21
16.732
  0
LINE
  8
0
 10
119.5
 11
119.687
 20
16.732
 21
16.827
  0
LINE
  8
0
 10
119.687
 11
119.882
 20
16.827
 21
16.902
  0
LINE
  8
0
 10
119.882
 11
120.084
 20
16.902
 21
16.956
  0
LINE
  8
0
 10
120.084
 11
120.291
 20
16.956
 21
16.989
  0
LINE
  8
0
 10
120.291
 11
120.5
 20
16.989
 21
17
  0
LINE
  8
0
 10
120.5
 11
120.709
 20
17
 21
16.989
  0
LINE
  8
0
 10
120.709
 11
120.916
 20
16.989
 21
16.956
  0
LINE
  8
0
 10
120.916
 11
121.118
 20
16.956
 21
16.902
  0
LINE
  8
0
 10
121.118
 11
121.313
 20
16.902
 21
16.827
  0
LINE
  8
0
 10
121.313
 11
121.5
 20
16.827
 21
16.732
  0
LINE
  8
0
 10
121.5
 11
121.676
 20
16.732
 21
16.618
  0
LINE
  8
0
 10
121.676
 11
121.838
 20
16.618
 21
16.486
  0
LINE
  8
0
 10
121.838
 11
121.986
 20
16.486
 21
16.338
  0
LINE
  8
0
 10
121.986
 11
122.118
 20
16.338
 21
16.176
  0
LINE
  8
0
 10
122.118
 11
122.232
 20
16.176
 21
16
  0
LINE
  8
0
 10
122.232
 11
122.327
 20
16
 21
15.813
  0
LINE
  8
0
 10
122.327
 11
122.402
 20
15.813
 21
15.618
  0
LINE
  8
0
 10
122.402
 11
122.456
 20
15.618
 21
15.416
  0
LINE
  8
0
 10
122.456
 11
122.489
 20
15.416
 21
15.209
  0
LINE
  8
0
 10
122.489
 11
122.5
 20
15.209
 21
15
  0
LINE
  8
0
 10
122.5
 11
122.489
 20
15
 21
14.791
  0
LINE
  8
0
 10
122.489
 11
122.456
 20
14.791
 21
14.584
  0
LINE
  8
0
 10
122.456
 11
122.402
 20
14.584
 21
14.382
  0
LINE
  8
0
 10
122.402
 11
122.327
 20
14.382
 21
14.187
  0
LINE
  8
0
 10
122.327
 11
122.232
 20
14.187
 21
14
  0
LINE
  8
0
 10
122.232
 11
122.118
 20
14
 21
13.824
  0
LINE
  8
0
 10
122.118
 11
121.986
 20
13.824
 21
13.662
  0
LINE
  8
0
 10
121.986
 11
121.838
 20
13.662
 21
13.514
  0
LINE
  8
0
 10
121.838
 11
121.676
 20
13.514
 21
13.382
  0
LINE
  8
0
 10
121.676
 11
121.5
 20
13.382
 21
13.268
  0
LINE
  8
0
 10
121.5
 11
121.313
 20
13.268
 21
13.173
  0
LINE
  8
0
 10
121.313
 11
121.118
 20
13.173
 21
13.098
  0
LINE
  8
0
 10
121.118
 11
120.916
 20
13.098
 21
13.044
  0
LINE
  8
0
 10
120.916
 11
120.709
 20
13.044
 21
13.011
  0
LINE
  8
0
 10
120.709
 11
120.5
 20
13.011
 21
13
  0
LINE
  8
0
 10
120.5
 11
120.291
 20
13
 21
13.011
  0
LINE
  8
0
 10
120.291
 11
120.084
 20
13.011
 21
13.044
  0
LINE
  8
0
 10
120.084
 11
119.882
 20
13.044
 21
13.098
  0
LINE
  8
0
 10
119.882
 11
119.687
 20
13.098
 21
13.173
  0
LINE
  8
0
 10
119.687
 11
119.5
 20
13.173
 21
13.268
  0
LINE
  8
0
 10
119.5
 11
119.324
 20
13.268
 21
13.382
  0
LINE
  8
0
 10
119.324
 11
119.162
 20
13.382
 21
13.514
  0
LINE
  8
0
 10
119.162
 11
119.014
 20
13.514
 21
13.662
  0
LINE
  8
0
 10
119.014
 11
118.882
 20
13.662
 21
13.824
  0
LINE
  8
0
 10
118.882
 11
118.768
 20
13.824
 21
14
  0
LINE
  8
0
 10
118.768
 11
118.673
 20
14
 21
14.187
  0
LINE
  8
0
 10
118.673
 11
118.598
 20
14.187
 21
14.382
  0
LINE
  8
0
 10
118.598
 11
118.544
 20
14.382
 21
14.584
  0
LINE
  8
0
 10
118.544
 11
118.511
 20
14.584
 21
14.791
  0
LINE
  8
0
 10
118.511
 11
118.5
 20
14.791
 21
15
  0
LINE
  8
0
 10
118.5
 11
118.511
 20
185
 21
185.209
  0
LINE
  8
0
 10
118.511
 11
118.544
 20
185.209
 21
185.416
  0
LINE
  8
0
 10
118.544
 11
118.598
 20
185.416
 21
185.618
  0
LINE
  8
0
 10
118.598
 11
118.673
 20
185.618
 21
185.813
  0
LINE
  8
0
 10
118.673
 11
118.768
 20
185.813
 21
186
  0
LINE
  8
0
 10
118.768
 11
118.882
 20
186
 21
186.176
  0
LINE
  8
0
 10
118.882
 11
119.014
 20
186.176
 21
186.338
  0
LINE
  8
0
 10
119.014
 11
119.162
 20
186.338
 21
186.486
  0
LINE
  8
0
 10
119.162
 11
119.324
 20
186.486
 21
186.618
  0
LINE
  8
0
 10
119.324
 11
119.5
 20
186.618
 21
186.732
  0
LINE
  8
0
 10
119.5
 11
119.687
 20
186.732
 21
186.827
  0
LINE
  8
0
 10
119.687
 11
119.882
 20
186.827
 21
186.902
  0
LINE
  8
0
 10
119.882
 11
120.084
 20
186.902
 21
186.956
  0
LINE
  8
0
 10
120.084
 11
120.291
 20
186.956
 21
186.989
  0
LINE
  8
0
 10
120.291
 11
120.5
 20
186.989
 21
187
  0
LINE
  8
0
 10
120.5
 11
120.709
 20
187
 21
186.989
  0
LINE
  8
0
 10
120.709
 11
120.916
 20
186.989
 21
186.956
  0
LINE
  8
0
 10
120.916
 11
121.118
 20
186.956
 21
186.902
  0
LINE
  8
0
 10
121.118
 11
121.313
 20
186.902
 21
186.827
  0
LINE
  8
0
 10
121.313
 11
121.5
 20
186.827
 21
186.732
  0
LINE
  8
0
 10
121.5
 11
121.676
 20
186.732
 21
186.618
  0
LINE
  8
0
 10
121.676
 11
121.838
 20
186.618
 21
186.486
  0
LINE
  8
0
 10
121.838
 11
121.986
 20
186.486
 21
186.338
  0
LINE
  8
0
 10
121.986
 11
122.118
 20
186.338
 21
186.176
  0
LINE
  8
0
 10
122.118
 11
122.232
 20
186.176
 21
186
  0
LINE
  8
0
 10
122.232
 11
122.327
 20
186
 21
185.813
  0
LINE
  8
0
 10
122.327
 11
122.402
 20
185.813
 21
185.618
  0
LINE
  8
0
 10
122.402
 11
122.456
 20
185.618
 21
185.416
  0
LINE
  8
0
 10
122.456
 11
122.489
 20
185.416
 21
185.209
  0
LINE
  8
0
 10
122.489
 11
122.5
 20
185.209
 21
185
  0
LINE
  8
0
 10
122.5
 11
122.489
 20
185
 21
184.791
  0
LINE
  8
0
 10
122.489
 11
122.456
 20
184.791
 21
184.584
  0
LINE
  8
0
 10
122.456
 11
122.402
 20
184.584
 21
184.382
  0
LINE
  8
0
 10
122.402
 11
122.327
 20
184.382
 21
184.187
  0
LINE
  8
0
 10
122.327
 11
122.232
 20
184.187
 21
184
  0
LINE
  8
0
 10
122.232
 11
122.118
 20
184
 21
183.824
  0
LINE
  8
0
 10
122.118
 11
121.986
 20
183.824
 21
183.662
  0
LINE
  8
0
 10
121.986
 11
121.838
 20
183.662
 21
183.514
  0
LINE
  8
0
 10
121.838
 11
121.676
 20
183.514
 21
183.382
  0
LINE
  8
0
 10
121.676
 11
121.5
 20
183.382
 21
183.268
  0
LINE
  8
0
 10
121.5
 11
121.313
 20
183.268
 21
183.173
  0
LINE
  8
0
 10
121.313
 11
121.118
 20
183.173
 21
183.098
  0
LINE
  8
0
 10
121.118
 11
120.916
 20
183.098
 21
183.044
  0
LINE
  8
0
 10
120.916
 11
120.709
 20
183.044
 21
183.011
  0
LINE
  8
0
 10
120.709
 11
120.5
 20
183.011
 21
183
  0
LINE
  8
0
 10
120.5
 11
120.291
 20
183
 21
183.011
  0
LINE
  8
0
 10
120.291
 11
120.084
 20
183.011
 21
183.044
  0
LINE
  8
0
 10
120.084
 11
119.882
 20
183.044
 21
183.098
  0
LINE
  8
0
 10
119.882
 11
119.687
 20
183.098
 21
183.173
  0
LINE
  8
0
 10
119.687
 11
119.5
 20
183.173
 21
183.268
  0
LINE
  8
0
 10
119.5
 11
119.324
 20
183.268
 21
183.382
  0
LINE
  8
0
 10
119.324
 11
119.162
 20
183.382
 21
183.514
  0
LINE
  8
0
 10
119.162
 11
119.014
 20
183.514
 21
183.662
  0
LINE
  8
0
 10
119.014
 11
118.882
 20
183.662
 21
183.824
  0
LINE
  8
0
 10
118.882
 11
118.768
 20
183.824
 21
184
  0
LINE
  8
0
 10
118.768
 11
118.673
 20
184
 21
184.187
  0
LINE
  8
0
 10
118.673
 11
118.598
 20
184.187
 21
184.382
  0
LINE
  8
0
 10
118.598
 11
118.544
 20
184.382
 21
184.584
  0
LINE
  8
0
 10
118.544
 11
118.511
 20
184.584
 21
184.791
  0
LINE
  8
0
 10
118.511
 11
118.5
 20
184.791
 21
185
  0
LINE
  8
0
 10
193.25
 11
193.261
 20
15
 21
15.209
  0
LINE
  8
0
 10
193.261
 11
193.294
 20
15.209
 21
15.416
  0
LINE
  8
0
 10
193.294
 11
193.348
 20
15.416
 21
15.618
  0
LINE
  8
0
 10
193.348
 11
193.423
 20
15.618
 21
15.813
  0
LINE
  8
0
 10
193.423
 11
193.518
 20
15.813
 21
16
  0
LINE
  8
0
 10
193.518
 11
193.632
 20
16
 21
16.176
  0
LINE
  8
0
 10
193.632
 11
193.764
 20
16.176
 21
16.338
  0
LINE
  8
0
 10
193.764
 11
193.912
 20
16.338
 21
16.486
  0
LINE
  8
0
 10
193.912
 11
194.074
 20
16.486
 21
16.618
  0
LINE
  8
0
 10
194.074
 11
194.25
 20
16.618
 21
16.732
  0
LINE
  8
0
 10
194.25
 11
194.437
 20
16.732
 21
16.827
  0
LINE
  8
0
 10
194.437
 11
194.632
 20
16.827
 21
16.902
  0
LINE
  8
0
 10
194.632
 11
194.834
 20
16.902
 21
16.956
  0
LINE
  8
0
 10
194.834
 11
195.041
 20
16.956
 21
16.989
  0
LINE
  8
0
 10
195.041
 11
195.25
 20
16.989
 21
17
  0
LINE
  8
0
 10
195.25
 11
195.459
 20
17
 21
16.989
  0
LINE
  8
0
 10
195.459
 11
195.666
 20
16.989
 21
16.956
  0
LINE
  8
0
 10
195.666
 11
195.868
 20
16.956
 21
16.902
  0
LINE
  8
0
 10
195.868
 11
196.063
 20
16.902
 21
16.827
  0
LINE
  8
0
 10
196.063
 11
196.25
 20
16.827
 21
16.732
  0
LINE
  8
0
 10
196.25
 11
196.426
 20
16.732
 21
16.618
  0
LINE
  8
0
 10
196.426
 11
196.588
 20
16.618
 21
16.486
  0
LINE
  8
0
 10
196.588
 11
196.736
 20
16.486
 21
16.338
  0
LINE
  8
0
 10
196.736
 11
196.868
 20
16.338
 21
16.176
  0
LINE
  8
0
 10
196.868
 11
196.982
 20
16.176
 21
16
  0
LINE
  8
0
 10
196.982
 11
197.077
 20
16
 21
15.813
  0
LINE
  8
0
 10
197.077
 11
197.152
 20
15.813
 21
15.618
  0
LINE
  8
0
 10
197.152
 11
197.206
 20
15.618
 21
15.416
  0
LINE
  8
0
 10
197.206
 11
197.239
 20
15.416
 21
15.209
  0
LINE
  8
0
 10
197.239
 11
197.25
 20
15.209
 21
15
  0
LINE
  8
0
 10
197.25
 11
197.239
 20
15
 21
14.791
  0
LINE
  8
0
 10
197.239
 11
197.206
 20
14.791
 21
14.584
  0
LINE
  8
0
 10
197.206
 11
197.152
 20
14.584
 21
14.382
  0
LINE
  8
0
 10
197.152
 11
197.077
 20
14.382
 21
14.187
  0
LINE
  8
0
 10
197.077
 11
196.982
 20
14.187
 21
14
  0
LINE
  8
0
 10
196.982
 11
196.868
 20
14
 21
13.824
  0
LINE
  8
0
 10
196.868
 11
196.736
 20
13.824
 21
13.662
  0
LINE
  8
0
 10
196.736
 11
196.588
 20
13.662
 21
13.514
  0
LINE
  8
0
 10
196.588
 11
196.426
 20
13.514
 21
13.382
  0
LINE
  8
0
 10
196.426
 11
196.25
 20
13.382
 21
13.268
  0
LINE
  8
0
 10
196.25
 11
196.063
 20
13.268
 21
13.173
  0
LINE
  8
0
 10
196.063
 11
195.868
 20
13.173
 21
13.098
  0
LINE
  8
0
 10
195.868
 11
195.666
 20
13.098
 21
13.044
  0
LINE
  8
0
 10
195.666
 11
195.459
 20
13.044
 21
13.011
  0
LINE
  8
0
 10
195.459
 11
195.25
 20
13.011
 21
13
  0
LINE
  8
0
 10
195.25
 11
195.041
 20
13
 21
13.011
  0
LINE
  8
0
 10
195.041
 11
194.834
 20
13.011
 21
13.044
  0
LINE
  8
0
 10
194.834
 11
194.632
 20
13.044
 21
13.098
  0
LINE
  8
0
 10
194.632
 11
194.437
 20
13.098
 21
13.173
  0
LINE
  8
0
 10
194.437
 11
194.25
 20
13.173
 21
13.268
  0
LINE
  8
0
 10
194.25
 11
194.074
 20
13.268
 21
13.382
  0
LINE
  8
0
 10
194.074
 11
193.912
 20
13.382
 21
13.514
  0
LINE
  8
0
 10
193.912
 11
193.764
 20
13.514
 21
13.662
  0
LINE
  8
0
 10
193.764
 11
193.632
 20
13.662
 21
13.824
  0
LINE
  8
0
 10
193.632
 11
193.518
 20
13.824
 21
14
  0
LINE
  8
0
 10
193.518
 11
193.423
 20
14
 21
14.187
  0
LINE
  8
0
 10
193.423
 11
193.348
 20
14.187
 21
14.382
  0
LINE
  8
0
 10
193.348
 11
193.294
 20
14.382
 21
14.584
  0
LINE
  8
0
 10
193.294
 11
193.261
 20
14.584
 21
14.791
  0
LINE
  8
0
 10
193.261
 11
193.25
 20
14.791
 21
15
  0
LINE
  8
0
 10
193.25
 11
193.261
 20
185
 21
185.209
  0
LINE
  8
0
 10
193.261
 11
193.294
 20
185.209
 21
185.416
  0
LINE
  8
0
 10
193.294
 11
193.348
 20
185.416
 21
185.618
  0
LINE
  8
0
 10
193.348
 11
193.423
 20
185.618
 21
185.813
  0
LINE
  8
0
 10
193.423
 11
193.518
 20
185.813
 21
186
  0
LINE
  8
0
 10
193.518
 11
193.632
 20
186
 21
186.176
  0
LINE
  8
0
 10
193.632
 11
193.764
 20
186.176
 21
186.338
  0
LINE
  8
0
 10
193.764
 11
193.912
 20
186.338
 21
186.486
  0
LINE
  8
0
 10
193.912
 11
194.074
 20
186.486
 21
186.618
  0
LINE
  8
0
 10
194.074
 11
194.25
 20
186.618
 21
186.732
  0
LINE
  8
0
 10
194.25
 11
194.437
 20
186.732
 21
186.827
  0
LINE
  8
0
 10
194.437
 11
194.632
 20
186.827
 21
186.902
  0
LINE
  8
0
 10
194.632
 11
194.834
 20
186.902
 21
186.956
  0
LINE
  8
0
 10
194.834
 11
195.041
 20
186.956
 21
186.989
  0
LINE
  8
0
 10
195.041
 11
195.25
 20
186.989
 21
187
  0
LINE
  8
0
 10
195.25
 11
195.459
 20
187
 21
186.989
  0
LINE
  8
0
 10
195.459
 11
195.666
 20
186.989
 21
186.956
  0
LINE
  8
0
 10
195.666
 11
195.868
 20
186.956
 21
186.902
  0
LINE
  8
0
 10
195.868
 11
196.063
 20
186.902
 21
186.827
  0
LINE
  8
0
 10
196.063
 11
196.25
 20
186.827
 21
186.732
  0
LINE
  8
0
 10
196.25
 11
196.426
 20
186.732
 21
186.618
  0
LINE
  8
0
 10
196.426
 11
196.588
 20
186.618
 21
186.486
  0
LINE
  8
0
 10
196.588
 11
196.736
 20
186.486
 21
186.338
  0
LINE
  8
0
 10
196.736
 11
196.868
 20
186.338
 21
186.176
  0
LINE
  8
0
 10
196.868
 11
196.982
 20
186.176
 21
186
  0
LINE
  8
0
 10
196.982
 11
197.077
 20
186
 21
185.813
  0
LINE
  8
0
 10
197.077
 11
197.152
 20
185.813
 21
185.618
  0
LINE
  8
0
 10
197.152
 11
197.206
 20
185.618
 21
185.416
  0
LINE
  8
0
 10
197.206
 11
197.239
 20
185.416
 21
185.209
  0
LINE
  8
0
 10
197.239
 11
197.25
 20
185.209
 21
185
  0
LINE
  8
0
 10
197.25
 11
197.239
 20
185
 21
184.791
  0
LINE
  8
0
 10
197.239
 11
197.206
 20
184.791
 21
184.584
  0
LINE
  8
0
 10
197.206
 11
197.152
 20
184.584
 21
184.382
  0
LINE
  8
0
 10
197.152
 11
197.077
 20
184.382
 21
184.187
  0
LINE
  8
0
 10
197.077
 11
196.982
 20
184.187
 21
184
  0
LINE
  8
0
 10
196.982
 11
196.868
 20
184
 21
183.824
  0
LINE
  8
0
 10
196.868
 11
196.736
 20
183.824
 21
183.662
  0
LINE
  8
0
 10
196.736
 11
196.588
 20
183.662
 21
183.514
  0
LINE
  8
0
 10
196.588
 11
196.426
 20
183.514
 21
183.382
  0
LINE
  8
0
 10
196.426
 11
196.25
 20
183.382
 21
183.268
  0
LINE
  8
0
 10
196.25
 11
196.063
 20
183.268
 21
183.173
  0
LINE
  8
0
 10
196.063
 11
195.868
 20
183.173
 21
183.098
  0
LINE
  8
0
 10
195.868
 11
195.666
 20
183.098
 21
183.044
  0
LINE
  8
0
 10
195.666
 11
195.459
 20
183.044
 21
183.011
  0
LINE
  8
0
 10
195.459
 11
195.25
 20
183.011
 21
183
  0
LINE
  8
0
 10
195.25
 11
195.041
 20
183
 21
183.011
  0
LINE
  8
0
 10
195.041
 11
194.834
 20
183.011
 21
183.044
  0
LINE
  8
0
 10
194.834
 11
194.632
 20
183.044
 21
183.098
  0
LINE
  8
0
 10
194.632
 11
194.437
 20
183.098
 21
183.173
  0
LINE
  8
0
 10
194.437
 11
194.25
 20
183.173
 21
183.268
  0
LINE
  8
0
 10
194.25
 11
194.074
 20
183.268
 21
183.382
  0
LINE
  8
0
 10
194.074
 11
193.912
 20
183.382
 21
183.514
  0
LINE
  8
0
 10
193.912
 11
193.764
 20
183.514
 21
183.662
  0
LINE
  8
0
 10
193.764
 11
193.632
 20
183.662
 21
183.824
  0
LINE
  8
0
 10
193.632
 11
193.518
 20
183.824
 21
184
  0
LINE
  8
0
 10
193.518
 11
193.423
 20
184
 21
184.187
  0
LINE
  8
0
 10
193.423
 11
193.348
 20
184.187
 21
184.382
  0
LINE
  8
0
 10
193.348
 11
193.294
 20
184.382
 21
184.584
  0
LINE
  8
0
 10
193.294
 11
193.261
 20
184.584
 21
184.791
  0
LINE
  8
0
 10
193.261
 11
193.25
 20
184.791
 21
185
  0
ENDSEC
  0
SECTION
  2
OBJECTS
  0
DICTIONARY
  0
ENDSEC
  0
EOF
