  0
SECTION
  2
BLOCKS
  0
ENDSEC
  0
SECTION
  2
ENTITIES
  0
LINE
  8
0
 10
-5.5
 11
-5.47
 20
0
 21
0.575
  0
LINE
  8
0
 10
-5.47
 11
-5.38
 20
0.575
 21
1.144
  0
LINE
  8
0
 10
-5.38
 11
-5.231
 20
1.144
 21
1.7
  0
LINE
  8
0
 10
-5.231
 11
-5.025
 20
1.7
 21
2.237
  0
LINE
  8
0
 10
-5.025
 11
-4.763
 20
2.237
 21
2.75
  0
LINE
  8
0
 10
-4.763
 11
-4.45
 20
2.75
 21
3.233
  0
LINE
  8
0
 10
-4.45
 11
-4.087
 20
3.233
 21
3.68
  0
LINE
  8
0
 10
-4.087
 11
-3.68
 20
3.68
 21
4.087
  0
LINE
  8
0
 10
-3.68
 11
-3.233
 20
4.087
 21
4.45
  0
LINE
  8
0
 10
-3.233
 11
-2.75
 20
4.45
 21
4.763
  0
LINE
  8
0
 10
-2.75
 11
-2.237
 20
4.763
 21
5.025
  0
LINE
  8
0
 10
-2.237
 11
-1.7
 20
5.025
 21
5.231
  0
LINE
  8
0
 10
-1.7
 11
-1.144
 20
5.231
 21
5.38
  0
LINE
  8
0
 10
-1.144
 11
-0.575
 20
5.38
 21
5.47
  0
LINE
  8
0
 10
-0.575
 11
0
 20
5.47
 21
5.5
  0
LINE
  8
0
 10
0
 11
0.575
 20
5.5
 21
5.47
  0
LINE
  8
0
 10
0.575
 11
1.144
 20
5.47
 21
5.38
  0
LINE
  8
0
 10
1.144
 11
1.7
 20
5.38
 21
5.231
  0
LINE
  8
0
 10
1.7
 11
2.237
 20
5.231
 21
5.025
  0
LINE
  8
0
 10
2.237
 11
2.75
 20
5.025
 21
4.763
  0
LINE
  8
0
 10
2.75
 11
3.233
 20
4.763
 21
4.45
  0
LINE
  8
0
 10
3.233
 11
3.68
 20
4.45
 21
4.087
  0
LINE
  8
0
 10
3.68
 11
4.087
 20
4.087
 21
3.68
  0
LINE
  8
0
 10
4.087
 11
4.45
 20
3.68
 21
3.233
  0
LINE
  8
0
 10
4.45
 11
4.763
 20
3.233
 21
2.75
  0
LINE
  8
0
 10
4.763
 11
5.025
 20
2.75
 21
2.237
  0
LINE
  8
0
 10
5.025
 11
5.231
 20
2.237
 21
1.7
  0
LINE
  8
0
 10
5.231
 11
5.38
 20
1.7
 21
1.144
  0
LINE
  8
0
 10
5.38
 11
5.47
 20
1.144
 21
0.575
  0
LINE
  8
0
 10
5.47
 11
5.5
 20
0.575
 21
0
  0
LINE
  8
0
 10
5.5
 11
5.47
 20
0
 21
-0.575
  0
LINE
  8
0
 10
5.47
 11
5.38
 20
-0.575
 21
-1.144
  0
LINE
  8
0
 10
5.38
 11
5.231
 20
-1.144
 21
-1.7
  0
LINE
  8
0
 10
5.231
 11
5.025
 20
-1.7
 21
-2.237
  0
LINE
  8
0
 10
5.025
 11
4.763
 20
-2.237
 21
-2.75
  0
LINE
  8
0
 10
4.763
 11
4.45
 20
-2.75
 21
-3.233
  0
LINE
  8
0
 10
4.45
 11
4.087
 20
-3.233
 21
-3.68
  0
LINE
  8
0
 10
4.087
 11
3.68
 20
-3.68
 21
-4.087
  0
LINE
  8
0
 10
3.68
 11
3.233
 20
-4.087
 21
-4.45
  0
LINE
  8
0
 10
3.233
 11
2.75
 20
-4.45
 21
-4.763
  0
LINE
  8
0
 10
2.75
 11
2.237
 20
-4.763
 21
-5.025
  0
LINE
  8
0
 10
2.237
 11
1.7
 20
-5.025
 21
-5.231
  0
LINE
  8
0
 10
1.7
 11
1.144
 20
-5.231
 21
-5.38
  0
LINE
  8
0
 10
1.144
 11
0.575
 20
-5.38
 21
-5.47
  0
LINE
  8
0
 10
0.575
 11
0
 20
-5.47
 21
-5.5
  0
LINE
  8
0
 10
0
 11
-0.575
 20
-5.5
 21
-5.47
  0
LINE
  8
0
 10
-0.575
 11
-1.144
 20
-5.47
 21
-5.38
  0
LINE
  8
0
 10
-1.144
 11
-1.7
 20
-5.38
 21
-5.231
  0
LINE
  8
0
 10
-1.7
 11
-2.237
 20
-5.231
 21
-5.025
  0
LINE
  8
0
 10
-2.237
 11
-2.75
 20
-5.025
 21
-4.763
  0
LINE
  8
0
 10
-2.75
 11
-3.233
 20
-4.763
 21
-4.45
  0
LINE
  8
0
 10
-3.233
 11
-3.68
 20
-4.45
 21
-4.087
  0
LINE
  8
0
 10
-3.68
 11
-4.087
 20
-4.087
 21
-3.68
  0
LINE
  8
0
 10
-4.087
 11
-4.45
 20
-3.68
 21
-3.233
  0
LINE
  8
0
 10
-4.45
 11
-4.763
 20
-3.233
 21
-2.75
  0
LINE
  8
0
 10
-4.763
 11
-5.025
 20
-2.75
 21
-2.237
  0
LINE
  8
0
 10
-5.025
 11
-5.231
 20
-2.237
 21
-1.7
  0
LINE
  8
0
 10
-5.231
 11
-5.38
 20
-1.7
 21
-1.144
  0
LINE
  8
0
 10
-5.38
 11
-5.47
 20
-1.144
 21
-0.575
  0
LINE
  8
0
 10
-5.47
 11
-5.5
 20
-0.575
 21
0
  0
ENDSEC
  0
SECTION
  2
OBJECTS
  0
DICTIONARY
  0
ENDSEC
  0
EOF
