  0
SECTION
  2
BLOCKS
  0
ENDSEC
  0
SECTION
  2
ENTITIES
  0
LINE
  8
0
 10
0
 11
0
 20
0
 21
200
  0
LINE
  8
0
 10
0
 11
240
 20
200
 21
200
  0
LINE
  8
0
 10
240
 11
240
 20
200
 21
0
  0
LINE
  8
0
 10
240
 11
0
 20
0
 21
0
  0
LINE
  8
0
 10
14.082
 11
14.082
 20
23.812
 21
25.788
  0
LINE
  8
0
 10
14.082
 11
14.723
 20
25.788
 21
27.656
  0
LINE
  8
0
 10
14.723
 11
15.936
 20
27.656
 21
29.214
  0
LINE
  8
0
 10
15.936
 11
17.139
 20
29.214
 21
30
  0
LINE
  8
0
 10
17.139
 11
17
 20
30
 21
30
  0
LINE
  8
0
 10
17
 11
17
 20
30
 21
170
  0
LINE
  8
0
 10
17
 11
17.139
 20
170
 21
170
  0
LINE
  8
0
 10
17.139
 11
15.936
 20
170
 21
170.786
  0
LINE
  8
0
 10
15.936
 11
14.723
 20
170.786
 21
172.344
  0
LINE
  8
0
 10
14.723
 11
14.082
 20
172.344
 21
174.212
  0
LINE
  8
0
 10
14.082
 11
14.082
 20
174.212
 21
176.188
  0
LINE
  8
0
 10
14.082
 11
14.723
 20
176.188
 21
178.056
  0
LINE
  8
0
 10
14.723
 11
15.936
 20
178.056
 21
179.614
  0
LINE
  8
0
 10
15.936
 11
17.59
 20
179.614
 21
180.695
  0
LINE
  8
0
 10
17.59
 11
19.505
 20
180.695
 21
181.18
  0
LINE
  8
0
 10
19.505
 11
21.473
 20
181.18
 21
181.016
  0
LINE
  8
0
 10
21.473
 11
23.282
 20
181.016
 21
180.223
  0
LINE
  8
0
 10
23.282
 11
24.735
 20
180.223
 21
178.885
  0
LINE
  8
0
 10
24.735
 11
25.675
 20
178.885
 21
177.148
  0
LINE
  8
0
 10
25.675
 11
26
 20
177.148
 21
175.2
  0
LINE
  8
0
 10
26
 11
25.675
 20
175.2
 21
173.252
  0
LINE
  8
0
 10
25.675
 11
24.735
 20
173.252
 21
171.515
  0
LINE
  8
0
 10
24.735
 11
23.282
 20
171.515
 21
170.177
  0
LINE
  8
0
 10
23.282
 11
22.878
 20
170.177
 21
170
  0
LINE
  8
0
 10
22.878
 11
23
 20
170
 21
170
  0
LINE
  8
0
 10
23
 11
23
 20
170
 21
30
  0
LINE
  8
0
 10
23
 11
22.878
 20
30
 21
30
  0
LINE
  8
0
 10
22.878
 11
23.282
 20
30
 21
29.823
  0
LINE
  8
0
 10
23.282
 11
24.735
 20
29.823
 21
28.485
  0
LINE
  8
0
 10
24.735
 11
25.675
 20
28.485
 21
26.748
  0
LINE
  8
0
 10
25.675
 11
26
 20
26.748
 21
24.8
  0
LINE
  8
0
 10
26
 11
25.675
 20
24.8
 21
22.852
  0
LINE
  8
0
 10
25.675
 11
24.735
 20
22.852
 21
21.115
  0
LINE
  8
0
 10
24.735
 11
23.282
 20
21.115
 21
19.777
  0
LINE
  8
0
 10
23.282
 11
21.473
 20
19.777
 21
18.984
  0
LINE
  8
0
 10
21.473
 11
19.505
 20
18.984
 21
18.82
  0
LINE
  8
0
 10
19.505
 11
17.59
 20
18.82
 21
19.305
  0
LINE
  8
0
 10
17.59
 11
15.936
 20
19.305
 21
20.386
  0
LINE
  8
0
 10
15.936
 11
14.723
 20
20.386
 21
21.944
  0
LINE
  8
0
 10
14.723
 11
14.082
 20
21.944
 21
23.812
  0
LINE
  8
0
 10
64.082
 11
64.082
 20
23.812
 21
25.788
  0
LINE
  8
0
 10
64.082
 11
64.723
 20
25.788
 21
27.656
  0
LINE
  8
0
 10
64.723
 11
65.936
 20
27.656
 21
29.214
  0
LINE
  8
0
 10
65.936
 11
67.139
 20
29.214
 21
30
  0
LINE
  8
0
 10
67.139
 11
67
 20
30
 21
30
  0
LINE
  8
0
 10
67
 11
67
 20
30
 21
81
  0
LINE
  8
0
 10
67
 11
67.139
 20
81
 21
81
  0
LINE
  8
0
 10
67.139
 11
65.936
 20
81
 21
81.786
  0
LINE
  8
0
 10
65.936
 11
64.723
 20
81.786
 21
83.344
  0
LINE
  8
0
 10
64.723
 11
64.082
 20
83.344
 21
85.212
  0
LINE
  8
0
 10
64.082
 11
64.082
 20
85.212
 21
87.188
  0
LINE
  8
0
 10
64.082
 11
64.723
 20
87.188
 21
89.056
  0
LINE
  8
0
 10
64.723
 11
65.936
 20
89.056
 21
90.614
  0
LINE
  8
0
 10
65.936
 11
67.59
 20
90.614
 21
91.695
  0
LINE
  8
0
 10
67.59
 11
69.505
 20
91.695
 21
92.18
  0
LINE
  8
0
 10
69.505
 11
71.473
 20
92.18
 21
92.016
  0
LINE
  8
0
 10
71.473
 11
73.282
 20
92.016
 21
91.223
  0
LINE
  8
0
 10
73.282
 11
74.735
 20
91.223
 21
89.885
  0
LINE
  8
0
 10
74.735
 11
75.675
 20
89.885
 21
88.148
  0
LINE
  8
0
 10
75.675
 11
76
 20
88.148
 21
86.2
  0
LINE
  8
0
 10
76
 11
75.675
 20
86.2
 21
84.252
  0
LINE
  8
0
 10
75.675
 11
74.735
 20
84.252
 21
82.515
  0
LINE
  8
0
 10
74.735
 11
73.282
 20
82.515
 21
81.177
  0
LINE
  8
0
 10
73.282
 11
72.878
 20
81.177
 21
81
  0
LINE
  8
0
 10
72.878
 11
73
 20
81
 21
81
  0
LINE
  8
0
 10
73
 11
73
 20
81
 21
30
  0
LINE
  8
0
 10
73
 11
72.878
 20
30
 21
30
  0
LINE
  8
0
 10
72.878
 11
73.282
 20
30
 21
29.823
  0
LINE
  8
0
 10
73.282
 11
74.735
 20
29.823
 21
28.485
  0
LINE
  8
0
 10
74.735
 11
75.675
 20
28.485
 21
26.748
  0
LINE
  8
0
 10
75.675
 11
76
 20
26.748
 21
24.8
  0
LINE
  8
0
 10
76
 11
75.675
 20
24.8
 21
22.852
  0
LINE
  8
0
 10
75.675
 11
74.735
 20
22.852
 21
21.115
  0
LINE
  8
0
 10
74.735
 11
73.282
 20
21.115
 21
19.777
  0
LINE
  8
0
 10
73.282
 11
71.473
 20
19.777
 21
18.984
  0
LINE
  8
0
 10
71.473
 11
69.505
 20
18.984
 21
18.82
  0
LINE
  8
0
 10
69.505
 11
67.59
 20
18.82
 21
19.305
  0
LINE
  8
0
 10
67.59
 11
65.936
 20
19.305
 21
20.386
  0
LINE
  8
0
 10
65.936
 11
64.723
 20
20.386
 21
21.944
  0
LINE
  8
0
 10
64.723
 11
64.082
 20
21.944
 21
23.812
  0
LINE
  8
0
 10
64.082
 11
64.082
 20
113.812
 21
115.788
  0
LINE
  8
0
 10
64.082
 11
64.723
 20
115.788
 21
117.656
  0
LINE
  8
0
 10
64.723
 11
65.936
 20
117.656
 21
119.214
  0
LINE
  8
0
 10
65.936
 11
67.139
 20
119.214
 21
120
  0
LINE
  8
0
 10
67.139
 11
67
 20
120
 21
120
  0
LINE
  8
0
 10
67
 11
67
 20
120
 21
171
  0
LINE
  8
0
 10
67
 11
67.139
 20
171
 21
171
  0
LINE
  8
0
 10
67.139
 11
65.936
 20
171
 21
171.786
  0
LINE
  8
0
 10
65.936
 11
64.723
 20
171.786
 21
173.344
  0
LINE
  8
0
 10
64.723
 11
64.082
 20
173.344
 21
175.212
  0
LINE
  8
0
 10
64.082
 11
64.082
 20
175.212
 21
177.188
  0
LINE
  8
0
 10
64.082
 11
64.723
 20
177.188
 21
179.056
  0
LINE
  8
0
 10
64.723
 11
65.936
 20
179.056
 21
180.614
  0
LINE
  8
0
 10
65.936
 11
67.59
 20
180.614
 21
181.695
  0
LINE
  8
0
 10
67.59
 11
69.505
 20
181.695
 21
182.18
  0
LINE
  8
0
 10
69.505
 11
71.473
 20
182.18
 21
182.016
  0
LINE
  8
0
 10
71.473
 11
73.282
 20
182.016
 21
181.223
  0
LINE
  8
0
 10
73.282
 11
74.735
 20
181.223
 21
179.885
  0
LINE
  8
0
 10
74.735
 11
75.675
 20
179.885
 21
178.148
  0
LINE
  8
0
 10
75.675
 11
76
 20
178.148
 21
176.2
  0
LINE
  8
0
 10
76
 11
75.675
 20
176.2
 21
174.252
  0
LINE
  8
0
 10
75.675
 11
74.735
 20
174.252
 21
172.515
  0
LINE
  8
0
 10
74.735
 11
73.282
 20
172.515
 21
171.177
  0
LINE
  8
0
 10
73.282
 11
72.878
 20
171.177
 21
171
  0
LINE
  8
0
 10
72.878
 11
73
 20
171
 21
171
  0
LINE
  8
0
 10
73
 11
73
 20
171
 21
120
  0
LINE
  8
0
 10
73
 11
72.878
 20
120
 21
120
  0
LINE
  8
0
 10
72.878
 11
73.282
 20
120
 21
119.823
  0
LINE
  8
0
 10
73.282
 11
74.735
 20
119.823
 21
118.485
  0
LINE
  8
0
 10
74.735
 11
75.675
 20
118.485
 21
116.748
  0
LINE
  8
0
 10
75.675
 11
76
 20
116.748
 21
114.8
  0
LINE
  8
0
 10
76
 11
75.675
 20
114.8
 21
112.852
  0
LINE
  8
0
 10
75.675
 11
74.735
 20
112.852
 21
111.115
  0
LINE
  8
0
 10
74.735
 11
73.282
 20
111.115
 21
109.777
  0
LINE
  8
0
 10
73.282
 11
71.473
 20
109.777
 21
108.984
  0
LINE
  8
0
 10
71.473
 11
69.505
 20
108.984
 21
108.82
  0
LINE
  8
0
 10
69.505
 11
67.59
 20
108.82
 21
109.305
  0
LINE
  8
0
 10
67.59
 11
65.936
 20
109.305
 21
110.386
  0
LINE
  8
0
 10
65.936
 11
64.723
 20
110.386
 21
111.944
  0
LINE
  8
0
 10
64.723
 11
64.082
 20
111.944
 21
113.812
  0
LINE
  8
0
 10
164.082
 11
164.082
 20
23.812
 21
25.788
  0
LINE
  8
0
 10
164.082
 11
164.723
 20
25.788
 21
27.656
  0
LINE
  8
0
 10
164.723
 11
165.936
 20
27.656
 21
29.214
  0
LINE
  8
0
 10
165.936
 11
167.139
 20
29.214
 21
30
  0
LINE
  8
0
 10
167.139
 11
167
 20
30
 21
30
  0
LINE
  8
0
 10
167
 11
167
 20
30
 21
81
  0
LINE
  8
0
 10
167
 11
167.139
 20
81
 21
81
  0
LINE
  8
0
 10
167.139
 11
165.936
 20
81
 21
81.786
  0
LINE
  8
0
 10
165.936
 11
164.723
 20
81.786
 21
83.344
  0
LINE
  8
0
 10
164.723
 11
164.082
 20
83.344
 21
85.212
  0
LINE
  8
0
 10
164.082
 11
164.082
 20
85.212
 21
87.188
  0
LINE
  8
0
 10
164.082
 11
164.723
 20
87.188
 21
89.056
  0
LINE
  8
0
 10
164.723
 11
165.936
 20
89.056
 21
90.614
  0
LINE
  8
0
 10
165.936
 11
167.59
 20
90.614
 21
91.695
  0
LINE
  8
0
 10
167.59
 11
169.505
 20
91.695
 21
92.18
  0
LINE
  8
0
 10
169.505
 11
171.473
 20
92.18
 21
92.016
  0
LINE
  8
0
 10
171.473
 11
173.282
 20
92.016
 21
91.223
  0
LINE
  8
0
 10
173.282
 11
174.735
 20
91.223
 21
89.885
  0
LINE
  8
0
 10
174.735
 11
175.675
 20
89.885
 21
88.148
  0
LINE
  8
0
 10
175.675
 11
176
 20
88.148
 21
86.2
  0
LINE
  8
0
 10
176
 11
175.675
 20
86.2
 21
84.252
  0
LINE
  8
0
 10
175.675
 11
174.735
 20
84.252
 21
82.515
  0
LINE
  8
0
 10
174.735
 11
173.282
 20
82.515
 21
81.177
  0
LINE
  8
0
 10
173.282
 11
172.878
 20
81.177
 21
81
  0
LINE
  8
0
 10
172.878
 11
173
 20
81
 21
81
  0
LINE
  8
0
 10
173
 11
173
 20
81
 21
30
  0
LINE
  8
0
 10
173
 11
172.878
 20
30
 21
30
  0
LINE
  8
0
 10
172.878
 11
173.282
 20
30
 21
29.823
  0
LINE
  8
0
 10
173.282
 11
174.735
 20
29.823
 21
28.485
  0
LINE
  8
0
 10
174.735
 11
175.675
 20
28.485
 21
26.748
  0
LINE
  8
0
 10
175.675
 11
176
 20
26.748
 21
24.8
  0
LINE
  8
0
 10
176
 11
175.675
 20
24.8
 21
22.852
  0
LINE
  8
0
 10
175.675
 11
174.735
 20
22.852
 21
21.115
  0
LINE
  8
0
 10
174.735
 11
173.282
 20
21.115
 21
19.777
  0
LINE
  8
0
 10
173.282
 11
171.473
 20
19.777
 21
18.984
  0
LINE
  8
0
 10
171.473
 11
169.505
 20
18.984
 21
18.82
  0
LINE
  8
0
 10
169.505
 11
167.59
 20
18.82
 21
19.305
  0
LINE
  8
0
 10
167.59
 11
165.936
 20
19.305
 21
20.386
  0
LINE
  8
0
 10
165.936
 11
164.723
 20
20.386
 21
21.944
  0
LINE
  8
0
 10
164.723
 11
164.082
 20
21.944
 21
23.812
  0
LINE
  8
0
 10
164.082
 11
164.082
 20
113.812
 21
115.788
  0
LINE
  8
0
 10
164.082
 11
164.723
 20
115.788
 21
117.656
  0
LINE
  8
0
 10
164.723
 11
165.936
 20
117.656
 21
119.214
  0
LINE
  8
0
 10
165.936
 11
167.139
 20
119.214
 21
120
  0
LINE
  8
0
 10
167.139
 11
167
 20
120
 21
120
  0
LINE
  8
0
 10
167
 11
167
 20
120
 21
171
  0
LINE
  8
0
 10
167
 11
167.139
 20
171
 21
171
  0
LINE
  8
0
 10
167.139
 11
165.936
 20
171
 21
171.786
  0
LINE
  8
0
 10
165.936
 11
164.723
 20
171.786
 21
173.344
  0
LINE
  8
0
 10
164.723
 11
164.082
 20
173.344
 21
175.212
  0
LINE
  8
0
 10
164.082
 11
164.082
 20
175.212
 21
177.188
  0
LINE
  8
0
 10
164.082
 11
164.723
 20
177.188
 21
179.056
  0
LINE
  8
0
 10
164.723
 11
165.936
 20
179.056
 21
180.614
  0
LINE
  8
0
 10
165.936
 11
167.59
 20
180.614
 21
181.695
  0
LINE
  8
0
 10
167.59
 11
169.505
 20
181.695
 21
182.18
  0
LINE
  8
0
 10
169.505
 11
171.473
 20
182.18
 21
182.016
  0
LINE
  8
0
 10
171.473
 11
173.282
 20
182.016
 21
181.223
  0
LINE
  8
0
 10
173.282
 11
174.735
 20
181.223
 21
179.885
  0
LINE
  8
0
 10
174.735
 11
175.675
 20
179.885
 21
178.148
  0
LINE
  8
0
 10
175.675
 11
176
 20
178.148
 21
176.2
  0
LINE
  8
0
 10
176
 11
175.675
 20
176.2
 21
174.252
  0
LINE
  8
0
 10
175.675
 11
174.735
 20
174.252
 21
172.515
  0
LINE
  8
0
 10
174.735
 11
173.282
 20
172.515
 21
171.177
  0
LINE
  8
0
 10
173.282
 11
172.878
 20
171.177
 21
171
  0
LINE
  8
0
 10
172.878
 11
173
 20
171
 21
171
  0
LINE
  8
0
 10
173
 11
173
 20
171
 21
120
  0
LINE
  8
0
 10
173
 11
172.878
 20
120
 21
120
  0
LINE
  8
0
 10
172.878
 11
173.282
 20
120
 21
119.823
  0
LINE
  8
0
 10
173.282
 11
174.735
 20
119.823
 21
118.485
  0
LINE
  8
0
 10
174.735
 11
175.675
 20
118.485
 21
116.748
  0
LINE
  8
0
 10
175.675
 11
176
 20
116.748
 21
114.8
  0
LINE
  8
0
 10
176
 11
175.675
 20
114.8
 21
112.852
  0
LINE
  8
0
 10
175.675
 11
174.735
 20
112.852
 21
111.115
  0
LINE
  8
0
 10
174.735
 11
173.282
 20
111.115
 21
109.777
  0
LINE
  8
0
 10
173.282
 11
171.473
 20
109.777
 21
108.984
  0
LINE
  8
0
 10
171.473
 11
169.505
 20
108.984
 21
108.82
  0
LINE
  8
0
 10
169.505
 11
167.59
 20
108.82
 21
109.305
  0
LINE
  8
0
 10
167.59
 11
165.936
 20
109.305
 21
110.386
  0
LINE
  8
0
 10
165.936
 11
164.723
 20
110.386
 21
111.944
  0
LINE
  8
0
 10
164.723
 11
164.082
 20
111.944
 21
113.812
  0
LINE
  8
0
 10
214.082
 11
214.082
 20
23.812
 21
25.788
  0
LINE
  8
0
 10
214.082
 11
214.723
 20
25.788
 21
27.656
  0
LINE
  8
0
 10
214.723
 11
215.936
 20
27.656
 21
29.214
  0
LINE
  8
0
 10
215.936
 11
217.139
 20
29.214
 21
30
  0
LINE
  8
0
 10
217.139
 11
217
 20
30
 21
30
  0
LINE
  8
0
 10
217
 11
217
 20
30
 21
170
  0
LINE
  8
0
 10
217
 11
217.139
 20
170
 21
170
  0
LINE
  8
0
 10
217.139
 11
215.936
 20
170
 21
170.786
  0
LINE
  8
0
 10
215.936
 11
214.723
 20
170.786
 21
172.344
  0
LINE
  8
0
 10
214.723
 11
214.082
 20
172.344
 21
174.212
  0
LINE
  8
0
 10
214.082
 11
214.082
 20
174.212
 21
176.188
  0
LINE
  8
0
 10
214.082
 11
214.723
 20
176.188
 21
178.056
  0
LINE
  8
0
 10
214.723
 11
215.936
 20
178.056
 21
179.614
  0
LINE
  8
0
 10
215.936
 11
217.59
 20
179.614
 21
180.695
  0
LINE
  8
0
 10
217.59
 11
219.505
 20
180.695
 21
181.18
  0
LINE
  8
0
 10
219.505
 11
221.473
 20
181.18
 21
181.016
  0
LINE
  8
0
 10
221.473
 11
223.282
 20
181.016
 21
180.223
  0
LINE
  8
0
 10
223.282
 11
224.735
 20
180.223
 21
178.885
  0
LINE
  8
0
 10
224.735
 11
225.675
 20
178.885
 21
177.148
  0
LINE
  8
0
 10
225.675
 11
226
 20
177.148
 21
175.2
  0
LINE
  8
0
 10
226
 11
225.675
 20
175.2
 21
173.252
  0
LINE
  8
0
 10
225.675
 11
224.735
 20
173.252
 21
171.515
  0
LINE
  8
0
 10
224.735
 11
223.282
 20
171.515
 21
170.177
  0
LINE
  8
0
 10
223.282
 11
222.878
 20
170.177
 21
170
  0
LINE
  8
0
 10
222.878
 11
223
 20
170
 21
170
  0
LINE
  8
0
 10
223
 11
223
 20
170
 21
30
  0
LINE
  8
0
 10
223
 11
222.878
 20
30
 21
30
  0
LINE
  8
0
 10
222.878
 11
223.282
 20
30
 21
29.823
  0
LINE
  8
0
 10
223.282
 11
224.735
 20
29.823
 21
28.485
  0
LINE
  8
0
 10
224.735
 11
225.675
 20
28.485
 21
26.748
  0
LINE
  8
0
 10
225.675
 11
226
 20
26.748
 21
24.8
  0
LINE
  8
0
 10
226
 11
225.675
 20
24.8
 21
22.852
  0
LINE
  8
0
 10
225.675
 11
224.735
 20
22.852
 21
21.115
  0
LINE
  8
0
 10
224.735
 11
223.282
 20
21.115
 21
19.777
  0
LINE
  8
0
 10
223.282
 11
221.473
 20
19.777
 21
18.984
  0
LINE
  8
0
 10
221.473
 11
219.505
 20
18.984
 21
18.82
  0
LINE
  8
0
 10
219.505
 11
217.59
 20
18.82
 21
19.305
  0
LINE
  8
0
 10
217.59
 11
215.936
 20
19.305
 21
20.386
  0
LINE
  8
0
 10
215.936
 11
214.723
 20
20.386
 21
21.944
  0
LINE
  8
0
 10
214.723
 11
214.082
 20
21.944
 21
23.812
  0
ENDSEC
  0
SECTION
  2
OBJECTS
  0
DICTIONARY
  0
ENDSEC
  0
EOF
