  0
SECTION
  2
BLOCKS
  0
ENDSEC
  0
SECTION
  2
ENTITIES
  0
LINE
  8
0
 10
-12
 11
-11.934
 20
0
 21
1.254
  0
LINE
  8
0
 10
-11.934
 11
-11.738
 20
1.254
 21
2.495
  0
LINE
  8
0
 10
-11.738
 11
-11.413
 20
2.495
 21
3.708
  0
LINE
  8
0
 10
-11.413
 11
-10.963
 20
3.708
 21
4.881
  0
LINE
  8
0
 10
-10.963
 11
-10.392
 20
4.881
 21
6
  0
LINE
  8
0
 10
-10.392
 11
-9.708
 20
6
 21
7.053
  0
LINE
  8
0
 10
-9.708
 11
-8.918
 20
7.053
 21
8.03
  0
LINE
  8
0
 10
-8.918
 11
-8.03
 20
8.03
 21
8.918
  0
LINE
  8
0
 10
-8.03
 11
-7.053
 20
8.918
 21
9.708
  0
LINE
  8
0
 10
-7.053
 11
-6
 20
9.708
 21
10.392
  0
LINE
  8
0
 10
-6
 11
-4.881
 20
10.392
 21
10.963
  0
LINE
  8
0
 10
-4.881
 11
-3.708
 20
10.963
 21
11.413
  0
LINE
  8
0
 10
-3.708
 11
-2.495
 20
11.413
 21
11.738
  0
LINE
  8
0
 10
-2.495
 11
-1.254
 20
11.738
 21
11.934
  0
LINE
  8
0
 10
-1.254
 11
0
 20
11.934
 21
12
  0
LINE
  8
0
 10
0
 11
1.254
 20
12
 21
11.934
  0
LINE
  8
0
 10
1.254
 11
2.495
 20
11.934
 21
11.738
  0
LINE
  8
0
 10
2.495
 11
3.708
 20
11.738
 21
11.413
  0
LINE
  8
0
 10
3.708
 11
4.881
 20
11.413
 21
10.963
  0
LINE
  8
0
 10
4.881
 11
6
 20
10.963
 21
10.392
  0
LINE
  8
0
 10
6
 11
7.053
 20
10.392
 21
9.708
  0
LINE
  8
0
 10
7.053
 11
8.03
 20
9.708
 21
8.918
  0
LINE
  8
0
 10
8.03
 11
8.918
 20
8.918
 21
8.03
  0
LINE
  8
0
 10
8.918
 11
9.708
 20
8.03
 21
7.053
  0
LINE
  8
0
 10
9.708
 11
10.392
 20
7.053
 21
6
  0
LINE
  8
0
 10
10.392
 11
10.963
 20
6
 21
4.881
  0
LINE
  8
0
 10
10.963
 11
11.413
 20
4.881
 21
3.708
  0
LINE
  8
0
 10
11.413
 11
11.738
 20
3.708
 21
2.495
  0
LINE
  8
0
 10
11.738
 11
11.934
 20
2.495
 21
1.254
  0
LINE
  8
0
 10
11.934
 11
12
 20
1.254
 21
0
  0
LINE
  8
0
 10
12
 11
11.934
 20
0
 21
-1.254
  0
LINE
  8
0
 10
11.934
 11
11.738
 20
-1.254
 21
-2.495
  0
LINE
  8
0
 10
11.738
 11
11.413
 20
-2.495
 21
-3.708
  0
LINE
  8
0
 10
11.413
 11
10.963
 20
-3.708
 21
-4.881
  0
LINE
  8
0
 10
10.963
 11
10.392
 20
-4.881
 21
-6
  0
LINE
  8
0
 10
10.392
 11
9.708
 20
-6
 21
-7.053
  0
LINE
  8
0
 10
9.708
 11
8.918
 20
-7.053
 21
-8.03
  0
LINE
  8
0
 10
8.918
 11
8.03
 20
-8.03
 21
-8.918
  0
LINE
  8
0
 10
8.03
 11
7.053
 20
-8.918
 21
-9.708
  0
LINE
  8
0
 10
7.053
 11
6
 20
-9.708
 21
-10.392
  0
LINE
  8
0
 10
6
 11
4.881
 20
-10.392
 21
-10.963
  0
LINE
  8
0
 10
4.881
 11
3.708
 20
-10.963
 21
-11.413
  0
LINE
  8
0
 10
3.708
 11
2.495
 20
-11.413
 21
-11.738
  0
LINE
  8
0
 10
2.495
 11
1.254
 20
-11.738
 21
-11.934
  0
LINE
  8
0
 10
1.254
 11
0
 20
-11.934
 21
-12
  0
LINE
  8
0
 10
0
 11
-1.254
 20
-12
 21
-11.934
  0
LINE
  8
0
 10
-1.254
 11
-2.495
 20
-11.934
 21
-11.738
  0
LINE
  8
0
 10
-2.495
 11
-3.708
 20
-11.738
 21
-11.413
  0
LINE
  8
0
 10
-3.708
 11
-4.881
 20
-11.413
 21
-10.963
  0
LINE
  8
0
 10
-4.881
 11
-6
 20
-10.963
 21
-10.392
  0
LINE
  8
0
 10
-6
 11
-7.053
 20
-10.392
 21
-9.708
  0
LINE
  8
0
 10
-7.053
 11
-8.03
 20
-9.708
 21
-8.918
  0
LINE
  8
0
 10
-8.03
 11
-8.918
 20
-8.918
 21
-8.03
  0
LINE
  8
0
 10
-8.918
 11
-9.708
 20
-8.03
 21
-7.053
  0
LINE
  8
0
 10
-9.708
 11
-10.392
 20
-7.053
 21
-6
  0
LINE
  8
0
 10
-10.392
 11
-10.963
 20
-6
 21
-4.881
  0
LINE
  8
0
 10
-10.963
 11
-11.413
 20
-4.881
 21
-3.708
  0
LINE
  8
0
 10
-11.413
 11
-11.738
 20
-3.708
 21
-2.495
  0
LINE
  8
0
 10
-11.738
 11
-11.934
 20
-2.495
 21
-1.254
  0
LINE
  8
0
 10
-11.934
 11
-12
 20
-1.254
 21
0
  0
ENDSEC
  0
SECTION
  2
OBJECTS
  0
DICTIONARY
  0
ENDSEC
  0
EOF
