  0
SECTION
  2
BLOCKS
  0
ENDSEC
  0
SECTION
  2
ENTITIES
  0
LINE
  8
0
 10
-107.5
 11
-107.5
 20
-57.5
 21
57.5
  0
LINE
  8
0
 10
-107.5
 11
107.5
 20
57.5
 21
57.5
  0
LINE
  8
0
 10
107.5
 11
107.5
 20
57.5
 21
-57.5
  0
LINE
  8
0
 10
107.5
 11
-107.5
 20
-57.5
 21
-57.5
  0
LINE
  8
0
 10
-76.892
 11
-76.892
 20
-25.911
 21
-24.089
  0
LINE
  8
0
 10
-76.892
 11
-75.467
 20
-24.089
 21
-22.953
  0
LINE
  8
0
 10
-75.467
 11
-73.691
 20
-22.953
 21
-23.358
  0
LINE
  8
0
 10
-73.691
 11
-72.9
 20
-23.358
 21
-25
  0
LINE
  8
0
 10
-72.9
 11
-73.691
 20
-25
 21
-26.642
  0
LINE
  8
0
 10
-73.691
 11
-75.467
 20
-26.642
 21
-27.047
  0
LINE
  8
0
 10
-75.467
 11
-76.892
 20
-27.047
 21
-25.911
  0
LINE
  8
0
 10
-76.892
 11
-76.892
 20
24.089
 21
25.911
  0
LINE
  8
0
 10
-76.892
 11
-75.467
 20
25.911
 21
27.047
  0
LINE
  8
0
 10
-75.467
 11
-73.691
 20
27.047
 21
26.642
  0
LINE
  8
0
 10
-73.691
 11
-72.9
 20
26.642
 21
25
  0
LINE
  8
0
 10
-72.9
 11
-73.691
 20
25
 21
23.358
  0
LINE
  8
0
 10
-73.691
 11
-75.467
 20
23.358
 21
22.953
  0
LINE
  8
0
 10
-75.467
 11
-76.892
 20
22.953
 21
24.089
  0
LINE
  8
0
 10
73.108
 11
73.108
 20
-25.911
 21
-24.089
  0
LINE
  8
0
 10
73.108
 11
74.533
 20
-24.089
 21
-22.953
  0
LINE
  8
0
 10
74.533
 11
76.309
 20
-22.953
 21
-23.358
  0
LINE
  8
0
 10
76.309
 11
77.1
 20
-23.358
 21
-25
  0
LINE
  8
0
 10
77.1
 11
76.309
 20
-25
 21
-26.642
  0
LINE
  8
0
 10
76.309
 11
74.533
 20
-26.642
 21
-27.047
  0
LINE
  8
0
 10
74.533
 11
73.108
 20
-27.047
 21
-25.911
  0
LINE
  8
0
 10
73.108
 11
73.108
 20
24.089
 21
25.911
  0
LINE
  8
0
 10
73.108
 11
74.533
 20
25.911
 21
27.047
  0
LINE
  8
0
 10
74.533
 11
76.309
 20
27.047
 21
26.642
  0
LINE
  8
0
 10
76.309
 11
77.1
 20
26.642
 21
25
  0
LINE
  8
0
 10
77.1
 11
76.309
 20
25
 21
23.358
  0
LINE
  8
0
 10
76.309
 11
74.533
 20
23.358
 21
22.953
  0
LINE
  8
0
 10
74.533
 11
73.108
 20
22.953
 21
24.089
  0
ENDSEC
  0
SECTION
  2
OBJECTS
  0
DICTIONARY
  0
ENDSEC
  0
EOF
