  0
SECTION
  2
BLOCKS
  0
ENDSEC
  0
SECTION
  2
ENTITIES
  0
LINE
  8
0
 10
-9.75
 11
-9.697
 20
0
 21
1.019
  0
LINE
  8
0
 10
-9.697
 11
-9.537
 20
1.019
 21
2.027
  0
LINE
  8
0
 10
-9.537
 11
-9.273
 20
2.027
 21
3.013
  0
LINE
  8
0
 10
-9.273
 11
-8.907
 20
3.013
 21
3.966
  0
LINE
  8
0
 10
-8.907
 11
-8.444
 20
3.966
 21
4.875
  0
LINE
  8
0
 10
-8.444
 11
-7.888
 20
4.875
 21
5.731
  0
LINE
  8
0
 10
-7.888
 11
-7.246
 20
5.731
 21
6.524
  0
LINE
  8
0
 10
-7.246
 11
-6.524
 20
6.524
 21
7.246
  0
LINE
  8
0
 10
-6.524
 11
-5.731
 20
7.246
 21
7.888
  0
LINE
  8
0
 10
-5.731
 11
-4.875
 20
7.888
 21
8.444
  0
LINE
  8
0
 10
-4.875
 11
-3.966
 20
8.444
 21
8.907
  0
LINE
  8
0
 10
-3.966
 11
-3.013
 20
8.907
 21
9.273
  0
LINE
  8
0
 10
-3.013
 11
-2.027
 20
9.273
 21
9.537
  0
LINE
  8
0
 10
-2.027
 11
-1.019
 20
9.537
 21
9.697
  0
LINE
  8
0
 10
-1.019
 11
0
 20
9.697
 21
9.75
  0
LINE
  8
0
 10
0
 11
1.019
 20
9.75
 21
9.697
  0
LINE
  8
0
 10
1.019
 11
2.027
 20
9.697
 21
9.537
  0
LINE
  8
0
 10
2.027
 11
3.013
 20
9.537
 21
9.273
  0
LINE
  8
0
 10
3.013
 11
3.966
 20
9.273
 21
8.907
  0
LINE
  8
0
 10
3.966
 11
4.875
 20
8.907
 21
8.444
  0
LINE
  8
0
 10
4.875
 11
5.731
 20
8.444
 21
7.888
  0
LINE
  8
0
 10
5.731
 11
6.524
 20
7.888
 21
7.246
  0
LINE
  8
0
 10
6.524
 11
7.246
 20
7.246
 21
6.524
  0
LINE
  8
0
 10
7.246
 11
7.888
 20
6.524
 21
5.731
  0
LINE
  8
0
 10
7.888
 11
8.444
 20
5.731
 21
4.875
  0
LINE
  8
0
 10
8.444
 11
8.907
 20
4.875
 21
3.966
  0
LINE
  8
0
 10
8.907
 11
9.273
 20
3.966
 21
3.013
  0
LINE
  8
0
 10
9.273
 11
9.537
 20
3.013
 21
2.027
  0
LINE
  8
0
 10
9.537
 11
9.697
 20
2.027
 21
1.019
  0
LINE
  8
0
 10
9.697
 11
9.75
 20
1.019
 21
0
  0
LINE
  8
0
 10
9.75
 11
9.697
 20
0
 21
-1.019
  0
LINE
  8
0
 10
9.697
 11
9.537
 20
-1.019
 21
-2.027
  0
LINE
  8
0
 10
9.537
 11
9.273
 20
-2.027
 21
-3.013
  0
LINE
  8
0
 10
9.273
 11
8.907
 20
-3.013
 21
-3.966
  0
LINE
  8
0
 10
8.907
 11
8.444
 20
-3.966
 21
-4.875
  0
LINE
  8
0
 10
8.444
 11
7.888
 20
-4.875
 21
-5.731
  0
LINE
  8
0
 10
7.888
 11
7.246
 20
-5.731
 21
-6.524
  0
LINE
  8
0
 10
7.246
 11
6.524
 20
-6.524
 21
-7.246
  0
LINE
  8
0
 10
6.524
 11
5.731
 20
-7.246
 21
-7.888
  0
LINE
  8
0
 10
5.731
 11
4.875
 20
-7.888
 21
-8.444
  0
LINE
  8
0
 10
4.875
 11
3.966
 20
-8.444
 21
-8.907
  0
LINE
  8
0
 10
3.966
 11
3.013
 20
-8.907
 21
-9.273
  0
LINE
  8
0
 10
3.013
 11
2.027
 20
-9.273
 21
-9.537
  0
LINE
  8
0
 10
2.027
 11
1.019
 20
-9.537
 21
-9.697
  0
LINE
  8
0
 10
1.019
 11
0
 20
-9.697
 21
-9.75
  0
LINE
  8
0
 10
0
 11
-1.019
 20
-9.75
 21
-9.697
  0
LINE
  8
0
 10
-1.019
 11
-2.027
 20
-9.697
 21
-9.537
  0
LINE
  8
0
 10
-2.027
 11
-3.013
 20
-9.537
 21
-9.273
  0
LINE
  8
0
 10
-3.013
 11
-3.966
 20
-9.273
 21
-8.907
  0
LINE
  8
0
 10
-3.966
 11
-4.875
 20
-8.907
 21
-8.444
  0
LINE
  8
0
 10
-4.875
 11
-5.731
 20
-8.444
 21
-7.888
  0
LINE
  8
0
 10
-5.731
 11
-6.524
 20
-7.888
 21
-7.246
  0
LINE
  8
0
 10
-6.524
 11
-7.246
 20
-7.246
 21
-6.524
  0
LINE
  8
0
 10
-7.246
 11
-7.888
 20
-6.524
 21
-5.731
  0
LINE
  8
0
 10
-7.888
 11
-8.444
 20
-5.731
 21
-4.875
  0
LINE
  8
0
 10
-8.444
 11
-8.907
 20
-4.875
 21
-3.966
  0
LINE
  8
0
 10
-8.907
 11
-9.273
 20
-3.966
 21
-3.013
  0
LINE
  8
0
 10
-9.273
 11
-9.537
 20
-3.013
 21
-2.027
  0
LINE
  8
0
 10
-9.537
 11
-9.697
 20
-2.027
 21
-1.019
  0
LINE
  8
0
 10
-9.697
 11
-9.75
 20
-1.019
 21
0
  0
ENDSEC
  0
SECTION
  2
OBJECTS
  0
DICTIONARY
  0
ENDSEC
  0
EOF
