  0
SECTION
  2
BLOCKS
  0
ENDSEC
  0
SECTION
  2
ENTITIES
  0
LINE
  8
0
 10
-48
 11
-48
 20
-17.5
 21
17.5
  0
LINE
  8
0
 10
-48
 11
48
 20
17.5
 21
17.5
  0
LINE
  8
0
 10
48
 11
48
 20
17.5
 21
-17.5
  0
LINE
  8
0
 10
48
 11
-48
 20
-17.5
 21
-17.5
  0
LINE
  8
0
 10
-45.4
 11
-45.388
 20
3.3
 21
3.53
  0
LINE
  8
0
 10
-45.388
 11
-45.352
 20
3.53
 21
3.757
  0
LINE
  8
0
 10
-45.352
 11
-45.292
 20
3.757
 21
3.98
  0
LINE
  8
0
 10
-45.292
 11
-45.21
 20
3.98
 21
4.195
  0
LINE
  8
0
 10
-45.21
 11
-45.105
 20
4.195
 21
4.4
  0
LINE
  8
0
 10
-45.105
 11
-44.98
 20
4.4
 21
4.593
  0
LINE
  8
0
 10
-44.98
 11
-44.835
 20
4.593
 21
4.772
  0
LINE
  8
0
 10
-44.835
 11
-44.672
 20
4.772
 21
4.935
  0
LINE
  8
0
 10
-44.672
 11
-44.493
 20
4.935
 21
5.08
  0
LINE
  8
0
 10
-44.493
 11
-44.3
 20
5.08
 21
5.205
  0
LINE
  8
0
 10
-44.3
 11
-44.095
 20
5.205
 21
5.31
  0
LINE
  8
0
 10
-44.095
 11
-43.88
 20
5.31
 21
5.392
  0
LINE
  8
0
 10
-43.88
 11
-43.657
 20
5.392
 21
5.452
  0
LINE
  8
0
 10
-43.657
 11
-43.43
 20
5.452
 21
5.488
  0
LINE
  8
0
 10
-43.43
 11
-43.2
 20
5.488
 21
5.5
  0
LINE
  8
0
 10
-43.2
 11
-42.97
 20
5.5
 21
5.488
  0
LINE
  8
0
 10
-42.97
 11
-42.743
 20
5.488
 21
5.452
  0
LINE
  8
0
 10
-42.743
 11
-42.52
 20
5.452
 21
5.392
  0
LINE
  8
0
 10
-42.52
 11
-42.305
 20
5.392
 21
5.31
  0
LINE
  8
0
 10
-42.305
 11
-42.1
 20
5.31
 21
5.205
  0
LINE
  8
0
 10
-42.1
 11
-41.907
 20
5.205
 21
5.08
  0
LINE
  8
0
 10
-41.907
 11
-41.728
 20
5.08
 21
4.935
  0
LINE
  8
0
 10
-41.728
 11
-41.565
 20
4.935
 21
4.772
  0
LINE
  8
0
 10
-41.565
 11
-41.42
 20
4.772
 21
4.593
  0
LINE
  8
0
 10
-41.42
 11
-41.295
 20
4.593
 21
4.4
  0
LINE
  8
0
 10
-41.295
 11
-41.19
 20
4.4
 21
4.195
  0
LINE
  8
0
 10
-41.19
 11
-41.108
 20
4.195
 21
3.98
  0
LINE
  8
0
 10
-41.108
 11
-41.048
 20
3.98
 21
3.757
  0
LINE
  8
0
 10
-41.048
 11
-41.012
 20
3.757
 21
3.53
  0
LINE
  8
0
 10
-41.012
 11
-41
 20
3.53
 21
3.3
  0
LINE
  8
0
 10
-41
 11
-41.012
 20
3.3
 21
3.07
  0
LINE
  8
0
 10
-41.012
 11
-41.048
 20
3.07
 21
2.843
  0
LINE
  8
0
 10
-41.048
 11
-41.108
 20
2.843
 21
2.62
  0
LINE
  8
0
 10
-41.108
 11
-41.19
 20
2.62
 21
2.405
  0
LINE
  8
0
 10
-41.19
 11
-41.295
 20
2.405
 21
2.2
  0
LINE
  8
0
 10
-41.295
 11
-41.42
 20
2.2
 21
2.007
  0
LINE
  8
0
 10
-41.42
 11
-41.565
 20
2.007
 21
1.828
  0
LINE
  8
0
 10
-41.565
 11
-41.728
 20
1.828
 21
1.665
  0
LINE
  8
0
 10
-41.728
 11
-41.907
 20
1.665
 21
1.52
  0
LINE
  8
0
 10
-41.907
 11
-42.1
 20
1.52
 21
1.395
  0
LINE
  8
0
 10
-42.1
 11
-42.305
 20
1.395
 21
1.29
  0
LINE
  8
0
 10
-42.305
 11
-42.52
 20
1.29
 21
1.208
  0
LINE
  8
0
 10
-42.52
 11
-42.743
 20
1.208
 21
1.148
  0
LINE
  8
0
 10
-42.743
 11
-42.97
 20
1.148
 21
1.112
  0
LINE
  8
0
 10
-42.97
 11
-43.2
 20
1.112
 21
1.1
  0
LINE
  8
0
 10
-43.2
 11
-43.43
 20
1.1
 21
1.112
  0
LINE
  8
0
 10
-43.43
 11
-43.657
 20
1.112
 21
1.148
  0
LINE
  8
0
 10
-43.657
 11
-43.88
 20
1.148
 21
1.208
  0
LINE
  8
0
 10
-43.88
 11
-44.095
 20
1.208
 21
1.29
  0
LINE
  8
0
 10
-44.095
 11
-44.3
 20
1.29
 21
1.395
  0
LINE
  8
0
 10
-44.3
 11
-44.493
 20
1.395
 21
1.52
  0
LINE
  8
0
 10
-44.493
 11
-44.672
 20
1.52
 21
1.665
  0
LINE
  8
0
 10
-44.672
 11
-44.835
 20
1.665
 21
1.828
  0
LINE
  8
0
 10
-44.835
 11
-44.98
 20
1.828
 21
2.007
  0
LINE
  8
0
 10
-44.98
 11
-45.105
 20
2.007
 21
2.2
  0
LINE
  8
0
 10
-45.105
 11
-45.21
 20
2.2
 21
2.405
  0
LINE
  8
0
 10
-45.21
 11
-45.292
 20
2.405
 21
2.62
  0
LINE
  8
0
 10
-45.292
 11
-45.352
 20
2.62
 21
2.843
  0
LINE
  8
0
 10
-45.352
 11
-45.388
 20
2.843
 21
3.07
  0
LINE
  8
0
 10
-45.388
 11
-45.4
 20
3.07
 21
3.3
  0
LINE
  8
0
 10
41
 11
41.012
 20
3.3
 21
3.53
  0
LINE
  8
0
 10
41.012
 11
41.048
 20
3.53
 21
3.757
  0
LINE
  8
0
 10
41.048
 11
41.108
 20
3.757
 21
3.98
  0
LINE
  8
0
 10
41.108
 11
41.19
 20
3.98
 21
4.195
  0
LINE
  8
0
 10
41.19
 11
41.295
 20
4.195
 21
4.4
  0
LINE
  8
0
 10
41.295
 11
41.42
 20
4.4
 21
4.593
  0
LINE
  8
0
 10
41.42
 11
41.565
 20
4.593
 21
4.772
  0
LINE
  8
0
 10
41.565
 11
41.728
 20
4.772
 21
4.935
  0
LINE
  8
0
 10
41.728
 11
41.907
 20
4.935
 21
5.08
  0
LINE
  8
0
 10
41.907
 11
42.1
 20
5.08
 21
5.205
  0
LINE
  8
0
 10
42.1
 11
42.305
 20
5.205
 21
5.31
  0
LINE
  8
0
 10
42.305
 11
42.52
 20
5.31
 21
5.392
  0
LINE
  8
0
 10
42.52
 11
42.743
 20
5.392
 21
5.452
  0
LINE
  8
0
 10
42.743
 11
42.97
 20
5.452
 21
5.488
  0
LINE
  8
0
 10
42.97
 11
43.2
 20
5.488
 21
5.5
  0
LINE
  8
0
 10
43.2
 11
43.43
 20
5.5
 21
5.488
  0
LINE
  8
0
 10
43.43
 11
43.657
 20
5.488
 21
5.452
  0
LINE
  8
0
 10
43.657
 11
43.88
 20
5.452
 21
5.392
  0
LINE
  8
0
 10
43.88
 11
44.095
 20
5.392
 21
5.31
  0
LINE
  8
0
 10
44.095
 11
44.3
 20
5.31
 21
5.205
  0
LINE
  8
0
 10
44.3
 11
44.493
 20
5.205
 21
5.08
  0
LINE
  8
0
 10
44.493
 11
44.672
 20
5.08
 21
4.935
  0
LINE
  8
0
 10
44.672
 11
44.835
 20
4.935
 21
4.772
  0
LINE
  8
0
 10
44.835
 11
44.98
 20
4.772
 21
4.593
  0
LINE
  8
0
 10
44.98
 11
45.105
 20
4.593
 21
4.4
  0
LINE
  8
0
 10
45.105
 11
45.21
 20
4.4
 21
4.195
  0
LINE
  8
0
 10
45.21
 11
45.292
 20
4.195
 21
3.98
  0
LINE
  8
0
 10
45.292
 11
45.352
 20
3.98
 21
3.757
  0
LINE
  8
0
 10
45.352
 11
45.388
 20
3.757
 21
3.53
  0
LINE
  8
0
 10
45.388
 11
45.4
 20
3.53
 21
3.3
  0
LINE
  8
0
 10
45.4
 11
45.388
 20
3.3
 21
3.07
  0
LINE
  8
0
 10
45.388
 11
45.352
 20
3.07
 21
2.843
  0
LINE
  8
0
 10
45.352
 11
45.292
 20
2.843
 21
2.62
  0
LINE
  8
0
 10
45.292
 11
45.21
 20
2.62
 21
2.405
  0
LINE
  8
0
 10
45.21
 11
45.105
 20
2.405
 21
2.2
  0
LINE
  8
0
 10
45.105
 11
44.98
 20
2.2
 21
2.007
  0
LINE
  8
0
 10
44.98
 11
44.835
 20
2.007
 21
1.828
  0
LINE
  8
0
 10
44.835
 11
44.672
 20
1.828
 21
1.665
  0
LINE
  8
0
 10
44.672
 11
44.493
 20
1.665
 21
1.52
  0
LINE
  8
0
 10
44.493
 11
44.3
 20
1.52
 21
1.395
  0
LINE
  8
0
 10
44.3
 11
44.095
 20
1.395
 21
1.29
  0
LINE
  8
0
 10
44.095
 11
43.88
 20
1.29
 21
1.208
  0
LINE
  8
0
 10
43.88
 11
43.657
 20
1.208
 21
1.148
  0
LINE
  8
0
 10
43.657
 11
43.43
 20
1.148
 21
1.112
  0
LINE
  8
0
 10
43.43
 11
43.2
 20
1.112
 21
1.1
  0
LINE
  8
0
 10
43.2
 11
42.97
 20
1.1
 21
1.112
  0
LINE
  8
0
 10
42.97
 11
42.743
 20
1.112
 21
1.148
  0
LINE
  8
0
 10
42.743
 11
42.52
 20
1.148
 21
1.208
  0
LINE
  8
0
 10
42.52
 11
42.305
 20
1.208
 21
1.29
  0
LINE
  8
0
 10
42.305
 11
42.1
 20
1.29
 21
1.395
  0
LINE
  8
0
 10
42.1
 11
41.907
 20
1.395
 21
1.52
  0
LINE
  8
0
 10
41.907
 11
41.728
 20
1.52
 21
1.665
  0
LINE
  8
0
 10
41.728
 11
41.565
 20
1.665
 21
1.828
  0
LINE
  8
0
 10
41.565
 11
41.42
 20
1.828
 21
2.007
  0
LINE
  8
0
 10
41.42
 11
41.295
 20
2.007
 21
2.2
  0
LINE
  8
0
 10
41.295
 11
41.19
 20
2.2
 21
2.405
  0
LINE
  8
0
 10
41.19
 11
41.108
 20
2.405
 21
2.62
  0
LINE
  8
0
 10
41.108
 11
41.048
 20
2.62
 21
2.843
  0
LINE
  8
0
 10
41.048
 11
41.012
 20
2.843
 21
3.07
  0
LINE
  8
0
 10
41.012
 11
41
 20
3.07
 21
3.3
  0
ENDSEC
  0
SECTION
  2
OBJECTS
  0
DICTIONARY
  0
ENDSEC
  0
EOF
