  0
SECTION
  2
BLOCKS
  0
ENDSEC
  0
SECTION
  2
ENTITIES
  0
LINE
  8
0
 10
10.116
 11
10.116
 20
3.043
 21
4.957
  0
LINE
  8
0
 10
10.116
 11
11.006
 20
4.957
 21
6.652
  0
LINE
  8
0
 10
11.006
 11
12.582
 20
6.652
 21
7.74
  0
LINE
  8
0
 10
12.582
 11
14.482
 20
7.74
 21
7.971
  0
LINE
  8
0
 10
14.482
 11
36.482
 20
7.971
 21
7.971
  0
LINE
  8
0
 10
36.482
 11
38.272
 20
7.971
 21
7.292
  0
LINE
  8
0
 10
38.272
 11
39.542
 20
7.292
 21
5.859
  0
LINE
  8
0
 10
39.542
 11
40
 20
5.859
 21
4
  0
LINE
  8
0
 10
40
 11
39.542
 20
4
 21
2.141
  0
LINE
  8
0
 10
39.542
 11
38.272
 20
2.141
 21
0.708
  0
LINE
  8
0
 10
38.272
 11
36.482
 20
0.708
 21
0.029
  0
LINE
  8
0
 10
36.482
 11
14.482
 20
0.029
 21
0.029
  0
LINE
  8
0
 10
14.482
 11
12.582
 20
0.029
 21
0.26
  0
LINE
  8
0
 10
12.582
 11
11.006
 20
0.26
 21
1.348
  0
LINE
  8
0
 10
11.006
 11
10.116
 20
1.348
 21
3.043
  0
LINE
  8
0
 10
10.116
 11
10.116
 20
16.043
 21
17.957
  0
LINE
  8
0
 10
10.116
 11
11.006
 20
17.957
 21
19.652
  0
LINE
  8
0
 10
11.006
 11
12.582
 20
19.652
 21
20.74
  0
LINE
  8
0
 10
12.582
 11
14.482
 20
20.74
 21
20.971
  0
LINE
  8
0
 10
14.482
 11
36.482
 20
20.971
 21
20.971
  0
LINE
  8
0
 10
36.482
 11
38.272
 20
20.971
 21
20.292
  0
LINE
  8
0
 10
38.272
 11
39.542
 20
20.292
 21
18.859
  0
LINE
  8
0
 10
39.542
 11
40
 20
18.859
 21
17
  0
LINE
  8
0
 10
40
 11
39.542
 20
17
 21
15.141
  0
LINE
  8
0
 10
39.542
 11
38.272
 20
15.141
 21
13.708
  0
LINE
  8
0
 10
38.272
 11
36.482
 20
13.708
 21
13.029
  0
LINE
  8
0
 10
36.482
 11
14.482
 20
13.029
 21
13.029
  0
LINE
  8
0
 10
14.482
 11
12.582
 20
13.029
 21
13.26
  0
LINE
  8
0
 10
12.582
 11
11.006
 20
13.26
 21
14.348
  0
LINE
  8
0
 10
11.006
 11
10.116
 20
14.348
 21
16.043
  0
LINE
  8
0
 10
10.116
 11
10.116
 20
29.043
 21
30.957
  0
LINE
  8
0
 10
10.116
 11
11.006
 20
30.957
 21
32.652
  0
LINE
  8
0
 10
11.006
 11
12.582
 20
32.652
 21
33.74
  0
LINE
  8
0
 10
12.582
 11
14.482
 20
33.74
 21
33.971
  0
LINE
  8
0
 10
14.482
 11
36.482
 20
33.971
 21
33.971
  0
LINE
  8
0
 10
36.482
 11
38.272
 20
33.971
 21
33.292
  0
LINE
  8
0
 10
38.272
 11
39.542
 20
33.292
 21
31.859
  0
LINE
  8
0
 10
39.542
 11
40
 20
31.859
 21
30
  0
LINE
  8
0
 10
40
 11
39.542
 20
30
 21
28.141
  0
LINE
  8
0
 10
39.542
 11
38.272
 20
28.141
 21
26.708
  0
LINE
  8
0
 10
38.272
 11
36.482
 20
26.708
 21
26.029
  0
LINE
  8
0
 10
36.482
 11
14.482
 20
26.029
 21
26.029
  0
LINE
  8
0
 10
14.482
 11
12.582
 20
26.029
 21
26.26
  0
LINE
  8
0
 10
12.582
 11
11.006
 20
26.26
 21
27.348
  0
LINE
  8
0
 10
11.006
 11
10.116
 20
27.348
 21
29.043
  0
LINE
  8
0
 10
10.116
 11
10.116
 20
42.043
 21
43.957
  0
LINE
  8
0
 10
10.116
 11
11.006
 20
43.957
 21
45.652
  0
LINE
  8
0
 10
11.006
 11
12.582
 20
45.652
 21
46.74
  0
LINE
  8
0
 10
12.582
 11
14.482
 20
46.74
 21
46.971
  0
LINE
  8
0
 10
14.482
 11
36.482
 20
46.971
 21
46.971
  0
LINE
  8
0
 10
36.482
 11
38.272
 20
46.971
 21
46.292
  0
LINE
  8
0
 10
38.272
 11
39.542
 20
46.292
 21
44.859
  0
LINE
  8
0
 10
39.542
 11
40
 20
44.859
 21
43
  0
LINE
  8
0
 10
40
 11
39.542
 20
43
 21
41.141
  0
LINE
  8
0
 10
39.542
 11
38.272
 20
41.141
 21
39.708
  0
LINE
  8
0
 10
38.272
 11
36.482
 20
39.708
 21
39.029
  0
LINE
  8
0
 10
36.482
 11
14.482
 20
39.029
 21
39.029
  0
LINE
  8
0
 10
14.482
 11
12.582
 20
39.029
 21
39.26
  0
LINE
  8
0
 10
12.582
 11
11.006
 20
39.26
 21
40.348
  0
LINE
  8
0
 10
11.006
 11
10.116
 20
40.348
 21
42.043
  0
LINE
  8
0
 10
10.116
 11
10.116
 20
55.043
 21
56.957
  0
LINE
  8
0
 10
10.116
 11
11.006
 20
56.957
 21
58.652
  0
LINE
  8
0
 10
11.006
 11
12.582
 20
58.652
 21
59.74
  0
LINE
  8
0
 10
12.582
 11
14.482
 20
59.74
 21
59.971
  0
LINE
  8
0
 10
14.482
 11
36.482
 20
59.971
 21
59.971
  0
LINE
  8
0
 10
36.482
 11
38.272
 20
59.971
 21
59.292
  0
LINE
  8
0
 10
38.272
 11
39.542
 20
59.292
 21
57.859
  0
LINE
  8
0
 10
39.542
 11
40
 20
57.859
 21
56
  0
LINE
  8
0
 10
40
 11
39.542
 20
56
 21
54.141
  0
LINE
  8
0
 10
39.542
 11
38.272
 20
54.141
 21
52.708
  0
LINE
  8
0
 10
38.272
 11
36.482
 20
52.708
 21
52.029
  0
LINE
  8
0
 10
36.482
 11
14.482
 20
52.029
 21
52.029
  0
LINE
  8
0
 10
14.482
 11
12.582
 20
52.029
 21
52.26
  0
LINE
  8
0
 10
12.582
 11
11.006
 20
52.26
 21
53.348
  0
LINE
  8
0
 10
11.006
 11
10.116
 20
53.348
 21
55.043
  0
LINE
  8
0
 10
10.116
 11
10.116
 20
68.043
 21
69.957
  0
LINE
  8
0
 10
10.116
 11
11.006
 20
69.957
 21
71.652
  0
LINE
  8
0
 10
11.006
 11
12.582
 20
71.652
 21
72.74
  0
LINE
  8
0
 10
12.582
 11
14.482
 20
72.74
 21
72.971
  0
LINE
  8
0
 10
14.482
 11
36.482
 20
72.971
 21
72.971
  0
LINE
  8
0
 10
36.482
 11
38.272
 20
72.971
 21
72.292
  0
LINE
  8
0
 10
38.272
 11
39.542
 20
72.292
 21
70.859
  0
LINE
  8
0
 10
39.542
 11
40
 20
70.859
 21
69
  0
LINE
  8
0
 10
40
 11
39.542
 20
69
 21
67.141
  0
LINE
  8
0
 10
39.542
 11
38.272
 20
67.141
 21
65.708
  0
LINE
  8
0
 10
38.272
 11
36.482
 20
65.708
 21
65.029
  0
LINE
  8
0
 10
36.482
 11
14.482
 20
65.029
 21
65.029
  0
LINE
  8
0
 10
14.482
 11
12.582
 20
65.029
 21
65.26
  0
LINE
  8
0
 10
12.582
 11
11.006
 20
65.26
 21
66.348
  0
LINE
  8
0
 10
11.006
 11
10.116
 20
66.348
 21
68.043
  0
LINE
  8
0
 10
10.116
 11
10.116
 20
81.043
 21
82.957
  0
LINE
  8
0
 10
10.116
 11
11.006
 20
82.957
 21
84.652
  0
LINE
  8
0
 10
11.006
 11
12.582
 20
84.652
 21
85.74
  0
LINE
  8
0
 10
12.582
 11
14.482
 20
85.74
 21
85.971
  0
LINE
  8
0
 10
14.482
 11
36.482
 20
85.971
 21
85.971
  0
LINE
  8
0
 10
36.482
 11
38.272
 20
85.971
 21
85.292
  0
LINE
  8
0
 10
38.272
 11
39.542
 20
85.292
 21
83.859
  0
LINE
  8
0
 10
39.542
 11
40
 20
83.859
 21
82
  0
LINE
  8
0
 10
40
 11
39.542
 20
82
 21
80.141
  0
LINE
  8
0
 10
39.542
 11
38.272
 20
80.141
 21
78.708
  0
LINE
  8
0
 10
38.272
 11
36.482
 20
78.708
 21
78.029
  0
LINE
  8
0
 10
36.482
 11
14.482
 20
78.029
 21
78.029
  0
LINE
  8
0
 10
14.482
 11
12.582
 20
78.029
 21
78.26
  0
LINE
  8
0
 10
12.582
 11
11.006
 20
78.26
 21
79.348
  0
LINE
  8
0
 10
11.006
 11
10.116
 20
79.348
 21
81.043
  0
LINE
  8
0
 10
10.116
 11
10.116
 20
94.043
 21
95.957
  0
LINE
  8
0
 10
10.116
 11
11.006
 20
95.957
 21
97.652
  0
LINE
  8
0
 10
11.006
 11
12.582
 20
97.652
 21
98.74
  0
LINE
  8
0
 10
12.582
 11
14.482
 20
98.74
 21
98.971
  0
LINE
  8
0
 10
14.482
 11
36.482
 20
98.971
 21
98.971
  0
LINE
  8
0
 10
36.482
 11
38.272
 20
98.971
 21
98.292
  0
LINE
  8
0
 10
38.272
 11
39.542
 20
98.292
 21
96.859
  0
LINE
  8
0
 10
39.542
 11
40
 20
96.859
 21
95
  0
LINE
  8
0
 10
40
 11
39.542
 20
95
 21
93.141
  0
LINE
  8
0
 10
39.542
 11
38.272
 20
93.141
 21
91.708
  0
LINE
  8
0
 10
38.272
 11
36.482
 20
91.708
 21
91.029
  0
LINE
  8
0
 10
36.482
 11
14.482
 20
91.029
 21
91.029
  0
LINE
  8
0
 10
14.482
 11
12.582
 20
91.029
 21
91.26
  0
LINE
  8
0
 10
12.582
 11
11.006
 20
91.26
 21
92.348
  0
LINE
  8
0
 10
11.006
 11
10.116
 20
92.348
 21
94.043
  0
LINE
  8
0
 10
10.116
 11
10.116
 20
107.043
 21
108.957
  0
LINE
  8
0
 10
10.116
 11
11.006
 20
108.957
 21
110.652
  0
LINE
  8
0
 10
11.006
 11
12.582
 20
110.652
 21
111.74
  0
LINE
  8
0
 10
12.582
 11
14.482
 20
111.74
 21
111.971
  0
LINE
  8
0
 10
14.482
 11
36.482
 20
111.971
 21
111.971
  0
LINE
  8
0
 10
36.482
 11
38.272
 20
111.971
 21
111.292
  0
LINE
  8
0
 10
38.272
 11
39.542
 20
111.292
 21
109.859
  0
LINE
  8
0
 10
39.542
 11
40
 20
109.859
 21
108
  0
LINE
  8
0
 10
40
 11
39.542
 20
108
 21
106.141
  0
LINE
  8
0
 10
39.542
 11
38.272
 20
106.141
 21
104.708
  0
LINE
  8
0
 10
38.272
 11
36.482
 20
104.708
 21
104.029
  0
LINE
  8
0
 10
36.482
 11
14.482
 20
104.029
 21
104.029
  0
LINE
  8
0
 10
14.482
 11
12.582
 20
104.029
 21
104.26
  0
LINE
  8
0
 10
12.582
 11
11.006
 20
104.26
 21
105.348
  0
LINE
  8
0
 10
11.006
 11
10.116
 20
105.348
 21
107.043
  0
LINE
  8
0
 10
10.116
 11
10.116
 20
120.043
 21
121.957
  0
LINE
  8
0
 10
10.116
 11
11.006
 20
121.957
 21
123.652
  0
LINE
  8
0
 10
11.006
 11
12.582
 20
123.652
 21
124.74
  0
LINE
  8
0
 10
12.582
 11
14.482
 20
124.74
 21
124.971
  0
LINE
  8
0
 10
14.482
 11
36.482
 20
124.971
 21
124.971
  0
LINE
  8
0
 10
36.482
 11
38.272
 20
124.971
 21
124.292
  0
LINE
  8
0
 10
38.272
 11
39.542
 20
124.292
 21
122.859
  0
LINE
  8
0
 10
39.542
 11
40
 20
122.859
 21
121
  0
LINE
  8
0
 10
40
 11
39.542
 20
121
 21
119.141
  0
LINE
  8
0
 10
39.542
 11
38.272
 20
119.141
 21
117.708
  0
LINE
  8
0
 10
38.272
 11
36.482
 20
117.708
 21
117.029
  0
LINE
  8
0
 10
36.482
 11
14.482
 20
117.029
 21
117.029
  0
LINE
  8
0
 10
14.482
 11
12.582
 20
117.029
 21
117.26
  0
LINE
  8
0
 10
12.582
 11
11.006
 20
117.26
 21
118.348
  0
LINE
  8
0
 10
11.006
 11
10.116
 20
118.348
 21
120.043
  0
LINE
  8
0
 10
45.116
 11
45.116
 20
3.043
 21
4.957
  0
LINE
  8
0
 10
45.116
 11
46.006
 20
4.957
 21
6.652
  0
LINE
  8
0
 10
46.006
 11
47.582
 20
6.652
 21
7.74
  0
LINE
  8
0
 10
47.582
 11
49.482
 20
7.74
 21
7.971
  0
LINE
  8
0
 10
49.482
 11
71.482
 20
7.971
 21
7.971
  0
LINE
  8
0
 10
71.482
 11
73.272
 20
7.971
 21
7.292
  0
LINE
  8
0
 10
73.272
 11
74.542
 20
7.292
 21
5.859
  0
LINE
  8
0
 10
74.542
 11
75
 20
5.859
 21
4
  0
LINE
  8
0
 10
75
 11
74.542
 20
4
 21
2.141
  0
LINE
  8
0
 10
74.542
 11
73.272
 20
2.141
 21
0.708
  0
LINE
  8
0
 10
73.272
 11
71.482
 20
0.708
 21
0.029
  0
LINE
  8
0
 10
71.482
 11
49.482
 20
0.029
 21
0.029
  0
LINE
  8
0
 10
49.482
 11
47.582
 20
0.029
 21
0.26
  0
LINE
  8
0
 10
47.582
 11
46.006
 20
0.26
 21
1.348
  0
LINE
  8
0
 10
46.006
 11
45.116
 20
1.348
 21
3.043
  0
LINE
  8
0
 10
45.116
 11
45.116
 20
16.043
 21
17.957
  0
LINE
  8
0
 10
45.116
 11
46.006
 20
17.957
 21
19.652
  0
LINE
  8
0
 10
46.006
 11
47.582
 20
19.652
 21
20.74
  0
LINE
  8
0
 10
47.582
 11
49.482
 20
20.74
 21
20.971
  0
LINE
  8
0
 10
49.482
 11
71.482
 20
20.971
 21
20.971
  0
LINE
  8
0
 10
71.482
 11
73.272
 20
20.971
 21
20.292
  0
LINE
  8
0
 10
73.272
 11
74.542
 20
20.292
 21
18.859
  0
LINE
  8
0
 10
74.542
 11
75
 20
18.859
 21
17
  0
LINE
  8
0
 10
75
 11
74.542
 20
17
 21
15.141
  0
LINE
  8
0
 10
74.542
 11
73.272
 20
15.141
 21
13.708
  0
LINE
  8
0
 10
73.272
 11
71.482
 20
13.708
 21
13.029
  0
LINE
  8
0
 10
71.482
 11
49.482
 20
13.029
 21
13.029
  0
LINE
  8
0
 10
49.482
 11
47.582
 20
13.029
 21
13.26
  0
LINE
  8
0
 10
47.582
 11
46.006
 20
13.26
 21
14.348
  0
LINE
  8
0
 10
46.006
 11
45.116
 20
14.348
 21
16.043
  0
LINE
  8
0
 10
45.116
 11
45.116
 20
29.043
 21
30.957
  0
LINE
  8
0
 10
45.116
 11
46.006
 20
30.957
 21
32.652
  0
LINE
  8
0
 10
46.006
 11
47.582
 20
32.652
 21
33.74
  0
LINE
  8
0
 10
47.582
 11
49.482
 20
33.74
 21
33.971
  0
LINE
  8
0
 10
49.482
 11
71.482
 20
33.971
 21
33.971
  0
LINE
  8
0
 10
71.482
 11
73.272
 20
33.971
 21
33.292
  0
LINE
  8
0
 10
73.272
 11
74.542
 20
33.292
 21
31.859
  0
LINE
  8
0
 10
74.542
 11
75
 20
31.859
 21
30
  0
LINE
  8
0
 10
75
 11
74.542
 20
30
 21
28.141
  0
LINE
  8
0
 10
74.542
 11
73.272
 20
28.141
 21
26.708
  0
LINE
  8
0
 10
73.272
 11
71.482
 20
26.708
 21
26.029
  0
LINE
  8
0
 10
71.482
 11
49.482
 20
26.029
 21
26.029
  0
LINE
  8
0
 10
49.482
 11
47.582
 20
26.029
 21
26.26
  0
LINE
  8
0
 10
47.582
 11
46.006
 20
26.26
 21
27.348
  0
LINE
  8
0
 10
46.006
 11
45.116
 20
27.348
 21
29.043
  0
LINE
  8
0
 10
45.116
 11
45.116
 20
42.043
 21
43.957
  0
LINE
  8
0
 10
45.116
 11
46.006
 20
43.957
 21
45.652
  0
LINE
  8
0
 10
46.006
 11
47.582
 20
45.652
 21
46.74
  0
LINE
  8
0
 10
47.582
 11
49.482
 20
46.74
 21
46.971
  0
LINE
  8
0
 10
49.482
 11
71.482
 20
46.971
 21
46.971
  0
LINE
  8
0
 10
71.482
 11
73.272
 20
46.971
 21
46.292
  0
LINE
  8
0
 10
73.272
 11
74.542
 20
46.292
 21
44.859
  0
LINE
  8
0
 10
74.542
 11
75
 20
44.859
 21
43
  0
LINE
  8
0
 10
75
 11
74.542
 20
43
 21
41.141
  0
LINE
  8
0
 10
74.542
 11
73.272
 20
41.141
 21
39.708
  0
LINE
  8
0
 10
73.272
 11
71.482
 20
39.708
 21
39.029
  0
LINE
  8
0
 10
71.482
 11
49.482
 20
39.029
 21
39.029
  0
LINE
  8
0
 10
49.482
 11
47.582
 20
39.029
 21
39.26
  0
LINE
  8
0
 10
47.582
 11
46.006
 20
39.26
 21
40.348
  0
LINE
  8
0
 10
46.006
 11
45.116
 20
40.348
 21
42.043
  0
LINE
  8
0
 10
45.116
 11
45.116
 20
55.043
 21
56.957
  0
LINE
  8
0
 10
45.116
 11
46.006
 20
56.957
 21
58.652
  0
LINE
  8
0
 10
46.006
 11
47.582
 20
58.652
 21
59.74
  0
LINE
  8
0
 10
47.582
 11
49.482
 20
59.74
 21
59.971
  0
LINE
  8
0
 10
49.482
 11
71.482
 20
59.971
 21
59.971
  0
LINE
  8
0
 10
71.482
 11
73.272
 20
59.971
 21
59.292
  0
LINE
  8
0
 10
73.272
 11
74.542
 20
59.292
 21
57.859
  0
LINE
  8
0
 10
74.542
 11
75
 20
57.859
 21
56
  0
LINE
  8
0
 10
75
 11
74.542
 20
56
 21
54.141
  0
LINE
  8
0
 10
74.542
 11
73.272
 20
54.141
 21
52.708
  0
LINE
  8
0
 10
73.272
 11
71.482
 20
52.708
 21
52.029
  0
LINE
  8
0
 10
71.482
 11
49.482
 20
52.029
 21
52.029
  0
LINE
  8
0
 10
49.482
 11
47.582
 20
52.029
 21
52.26
  0
LINE
  8
0
 10
47.582
 11
46.006
 20
52.26
 21
53.348
  0
LINE
  8
0
 10
46.006
 11
45.116
 20
53.348
 21
55.043
  0
LINE
  8
0
 10
45.116
 11
45.116
 20
68.043
 21
69.957
  0
LINE
  8
0
 10
45.116
 11
46.006
 20
69.957
 21
71.652
  0
LINE
  8
0
 10
46.006
 11
47.582
 20
71.652
 21
72.74
  0
LINE
  8
0
 10
47.582
 11
49.482
 20
72.74
 21
72.971
  0
LINE
  8
0
 10
49.482
 11
71.482
 20
72.971
 21
72.971
  0
LINE
  8
0
 10
71.482
 11
73.272
 20
72.971
 21
72.292
  0
LINE
  8
0
 10
73.272
 11
74.542
 20
72.292
 21
70.859
  0
LINE
  8
0
 10
74.542
 11
75
 20
70.859
 21
69
  0
LINE
  8
0
 10
75
 11
74.542
 20
69
 21
67.141
  0
LINE
  8
0
 10
74.542
 11
73.272
 20
67.141
 21
65.708
  0
LINE
  8
0
 10
73.272
 11
71.482
 20
65.708
 21
65.029
  0
LINE
  8
0
 10
71.482
 11
49.482
 20
65.029
 21
65.029
  0
LINE
  8
0
 10
49.482
 11
47.582
 20
65.029
 21
65.26
  0
LINE
  8
0
 10
47.582
 11
46.006
 20
65.26
 21
66.348
  0
LINE
  8
0
 10
46.006
 11
45.116
 20
66.348
 21
68.043
  0
LINE
  8
0
 10
45.116
 11
45.116
 20
81.043
 21
82.957
  0
LINE
  8
0
 10
45.116
 11
46.006
 20
82.957
 21
84.652
  0
LINE
  8
0
 10
46.006
 11
47.582
 20
84.652
 21
85.74
  0
LINE
  8
0
 10
47.582
 11
49.482
 20
85.74
 21
85.971
  0
LINE
  8
0
 10
49.482
 11
71.482
 20
85.971
 21
85.971
  0
LINE
  8
0
 10
71.482
 11
73.272
 20
85.971
 21
85.292
  0
LINE
  8
0
 10
73.272
 11
74.542
 20
85.292
 21
83.859
  0
LINE
  8
0
 10
74.542
 11
75
 20
83.859
 21
82
  0
LINE
  8
0
 10
75
 11
74.542
 20
82
 21
80.141
  0
LINE
  8
0
 10
74.542
 11
73.272
 20
80.141
 21
78.708
  0
LINE
  8
0
 10
73.272
 11
71.482
 20
78.708
 21
78.029
  0
LINE
  8
0
 10
71.482
 11
49.482
 20
78.029
 21
78.029
  0
LINE
  8
0
 10
49.482
 11
47.582
 20
78.029
 21
78.26
  0
LINE
  8
0
 10
47.582
 11
46.006
 20
78.26
 21
79.348
  0
LINE
  8
0
 10
46.006
 11
45.116
 20
79.348
 21
81.043
  0
LINE
  8
0
 10
45.116
 11
45.116
 20
94.043
 21
95.957
  0
LINE
  8
0
 10
45.116
 11
46.006
 20
95.957
 21
97.652
  0
LINE
  8
0
 10
46.006
 11
47.582
 20
97.652
 21
98.74
  0
LINE
  8
0
 10
47.582
 11
49.482
 20
98.74
 21
98.971
  0
LINE
  8
0
 10
49.482
 11
71.482
 20
98.971
 21
98.971
  0
LINE
  8
0
 10
71.482
 11
73.272
 20
98.971
 21
98.292
  0
LINE
  8
0
 10
73.272
 11
74.542
 20
98.292
 21
96.859
  0
LINE
  8
0
 10
74.542
 11
75
 20
96.859
 21
95
  0
LINE
  8
0
 10
75
 11
74.542
 20
95
 21
93.141
  0
LINE
  8
0
 10
74.542
 11
73.272
 20
93.141
 21
91.708
  0
LINE
  8
0
 10
73.272
 11
71.482
 20
91.708
 21
91.029
  0
LINE
  8
0
 10
71.482
 11
49.482
 20
91.029
 21
91.029
  0
LINE
  8
0
 10
49.482
 11
47.582
 20
91.029
 21
91.26
  0
LINE
  8
0
 10
47.582
 11
46.006
 20
91.26
 21
92.348
  0
LINE
  8
0
 10
46.006
 11
45.116
 20
92.348
 21
94.043
  0
LINE
  8
0
 10
45.116
 11
45.116
 20
107.043
 21
108.957
  0
LINE
  8
0
 10
45.116
 11
46.006
 20
108.957
 21
110.652
  0
LINE
  8
0
 10
46.006
 11
47.582
 20
110.652
 21
111.74
  0
LINE
  8
0
 10
47.582
 11
49.482
 20
111.74
 21
111.971
  0
LINE
  8
0
 10
49.482
 11
71.482
 20
111.971
 21
111.971
  0
LINE
  8
0
 10
71.482
 11
73.272
 20
111.971
 21
111.292
  0
LINE
  8
0
 10
73.272
 11
74.542
 20
111.292
 21
109.859
  0
LINE
  8
0
 10
74.542
 11
75
 20
109.859
 21
108
  0
LINE
  8
0
 10
75
 11
74.542
 20
108
 21
106.141
  0
LINE
  8
0
 10
74.542
 11
73.272
 20
106.141
 21
104.708
  0
LINE
  8
0
 10
73.272
 11
71.482
 20
104.708
 21
104.029
  0
LINE
  8
0
 10
71.482
 11
49.482
 20
104.029
 21
104.029
  0
LINE
  8
0
 10
49.482
 11
47.582
 20
104.029
 21
104.26
  0
LINE
  8
0
 10
47.582
 11
46.006
 20
104.26
 21
105.348
  0
LINE
  8
0
 10
46.006
 11
45.116
 20
105.348
 21
107.043
  0
LINE
  8
0
 10
45.116
 11
45.116
 20
120.043
 21
121.957
  0
LINE
  8
0
 10
45.116
 11
46.006
 20
121.957
 21
123.652
  0
LINE
  8
0
 10
46.006
 11
47.582
 20
123.652
 21
124.74
  0
LINE
  8
0
 10
47.582
 11
49.482
 20
124.74
 21
124.971
  0
LINE
  8
0
 10
49.482
 11
71.482
 20
124.971
 21
124.971
  0
LINE
  8
0
 10
71.482
 11
73.272
 20
124.971
 21
124.292
  0
LINE
  8
0
 10
73.272
 11
74.542
 20
124.292
 21
122.859
  0
LINE
  8
0
 10
74.542
 11
75
 20
122.859
 21
121
  0
LINE
  8
0
 10
75
 11
74.542
 20
121
 21
119.141
  0
LINE
  8
0
 10
74.542
 11
73.272
 20
119.141
 21
117.708
  0
LINE
  8
0
 10
73.272
 11
71.482
 20
117.708
 21
117.029
  0
LINE
  8
0
 10
71.482
 11
49.482
 20
117.029
 21
117.029
  0
LINE
  8
0
 10
49.482
 11
47.582
 20
117.029
 21
117.26
  0
LINE
  8
0
 10
47.582
 11
46.006
 20
117.26
 21
118.348
  0
LINE
  8
0
 10
46.006
 11
45.116
 20
118.348
 21
120.043
  0
LINE
  8
0
 10
80.116
 11
80.116
 20
3.043
 21
4.957
  0
LINE
  8
0
 10
80.116
 11
81.006
 20
4.957
 21
6.652
  0
LINE
  8
0
 10
81.006
 11
82.582
 20
6.652
 21
7.74
  0
LINE
  8
0
 10
82.582
 11
84.482
 20
7.74
 21
7.971
  0
LINE
  8
0
 10
84.482
 11
106.482
 20
7.971
 21
7.971
  0
LINE
  8
0
 10
106.482
 11
108.272
 20
7.971
 21
7.292
  0
LINE
  8
0
 10
108.272
 11
109.542
 20
7.292
 21
5.859
  0
LINE
  8
0
 10
109.542
 11
110
 20
5.859
 21
4
  0
LINE
  8
0
 10
110
 11
109.542
 20
4
 21
2.141
  0
LINE
  8
0
 10
109.542
 11
108.272
 20
2.141
 21
0.708
  0
LINE
  8
0
 10
108.272
 11
106.482
 20
0.708
 21
0.029
  0
LINE
  8
0
 10
106.482
 11
84.482
 20
0.029
 21
0.029
  0
LINE
  8
0
 10
84.482
 11
82.582
 20
0.029
 21
0.26
  0
LINE
  8
0
 10
82.582
 11
81.006
 20
0.26
 21
1.348
  0
LINE
  8
0
 10
81.006
 11
80.116
 20
1.348
 21
3.043
  0
LINE
  8
0
 10
80.116
 11
80.116
 20
16.043
 21
17.957
  0
LINE
  8
0
 10
80.116
 11
81.006
 20
17.957
 21
19.652
  0
LINE
  8
0
 10
81.006
 11
82.582
 20
19.652
 21
20.74
  0
LINE
  8
0
 10
82.582
 11
84.482
 20
20.74
 21
20.971
  0
LINE
  8
0
 10
84.482
 11
106.482
 20
20.971
 21
20.971
  0
LINE
  8
0
 10
106.482
 11
108.272
 20
20.971
 21
20.292
  0
LINE
  8
0
 10
108.272
 11
109.542
 20
20.292
 21
18.859
  0
LINE
  8
0
 10
109.542
 11
110
 20
18.859
 21
17
  0
LINE
  8
0
 10
110
 11
109.542
 20
17
 21
15.141
  0
LINE
  8
0
 10
109.542
 11
108.272
 20
15.141
 21
13.708
  0
LINE
  8
0
 10
108.272
 11
106.482
 20
13.708
 21
13.029
  0
LINE
  8
0
 10
106.482
 11
84.482
 20
13.029
 21
13.029
  0
LINE
  8
0
 10
84.482
 11
82.582
 20
13.029
 21
13.26
  0
LINE
  8
0
 10
82.582
 11
81.006
 20
13.26
 21
14.348
  0
LINE
  8
0
 10
81.006
 11
80.116
 20
14.348
 21
16.043
  0
LINE
  8
0
 10
80.116
 11
80.116
 20
29.043
 21
30.957
  0
LINE
  8
0
 10
80.116
 11
81.006
 20
30.957
 21
32.652
  0
LINE
  8
0
 10
81.006
 11
82.582
 20
32.652
 21
33.74
  0
LINE
  8
0
 10
82.582
 11
84.482
 20
33.74
 21
33.971
  0
LINE
  8
0
 10
84.482
 11
106.482
 20
33.971
 21
33.971
  0
LINE
  8
0
 10
106.482
 11
108.272
 20
33.971
 21
33.292
  0
LINE
  8
0
 10
108.272
 11
109.542
 20
33.292
 21
31.859
  0
LINE
  8
0
 10
109.542
 11
110
 20
31.859
 21
30
  0
LINE
  8
0
 10
110
 11
109.542
 20
30
 21
28.141
  0
LINE
  8
0
 10
109.542
 11
108.272
 20
28.141
 21
26.708
  0
LINE
  8
0
 10
108.272
 11
106.482
 20
26.708
 21
26.029
  0
LINE
  8
0
 10
106.482
 11
84.482
 20
26.029
 21
26.029
  0
LINE
  8
0
 10
84.482
 11
82.582
 20
26.029
 21
26.26
  0
LINE
  8
0
 10
82.582
 11
81.006
 20
26.26
 21
27.348
  0
LINE
  8
0
 10
81.006
 11
80.116
 20
27.348
 21
29.043
  0
LINE
  8
0
 10
80.116
 11
80.116
 20
42.043
 21
43.957
  0
LINE
  8
0
 10
80.116
 11
81.006
 20
43.957
 21
45.652
  0
LINE
  8
0
 10
81.006
 11
82.582
 20
45.652
 21
46.74
  0
LINE
  8
0
 10
82.582
 11
84.482
 20
46.74
 21
46.971
  0
LINE
  8
0
 10
84.482
 11
106.482
 20
46.971
 21
46.971
  0
LINE
  8
0
 10
106.482
 11
108.272
 20
46.971
 21
46.292
  0
LINE
  8
0
 10
108.272
 11
109.542
 20
46.292
 21
44.859
  0
LINE
  8
0
 10
109.542
 11
110
 20
44.859
 21
43
  0
LINE
  8
0
 10
110
 11
109.542
 20
43
 21
41.141
  0
LINE
  8
0
 10
109.542
 11
108.272
 20
41.141
 21
39.708
  0
LINE
  8
0
 10
108.272
 11
106.482
 20
39.708
 21
39.029
  0
LINE
  8
0
 10
106.482
 11
84.482
 20
39.029
 21
39.029
  0
LINE
  8
0
 10
84.482
 11
82.582
 20
39.029
 21
39.26
  0
LINE
  8
0
 10
82.582
 11
81.006
 20
39.26
 21
40.348
  0
LINE
  8
0
 10
81.006
 11
80.116
 20
40.348
 21
42.043
  0
LINE
  8
0
 10
80.116
 11
80.116
 20
55.043
 21
56.957
  0
LINE
  8
0
 10
80.116
 11
81.006
 20
56.957
 21
58.652
  0
LINE
  8
0
 10
81.006
 11
82.582
 20
58.652
 21
59.74
  0
LINE
  8
0
 10
82.582
 11
84.482
 20
59.74
 21
59.971
  0
LINE
  8
0
 10
84.482
 11
106.482
 20
59.971
 21
59.971
  0
LINE
  8
0
 10
106.482
 11
108.272
 20
59.971
 21
59.292
  0
LINE
  8
0
 10
108.272
 11
109.542
 20
59.292
 21
57.859
  0
LINE
  8
0
 10
109.542
 11
110
 20
57.859
 21
56
  0
LINE
  8
0
 10
110
 11
109.542
 20
56
 21
54.141
  0
LINE
  8
0
 10
109.542
 11
108.272
 20
54.141
 21
52.708
  0
LINE
  8
0
 10
108.272
 11
106.482
 20
52.708
 21
52.029
  0
LINE
  8
0
 10
106.482
 11
84.482
 20
52.029
 21
52.029
  0
LINE
  8
0
 10
84.482
 11
82.582
 20
52.029
 21
52.26
  0
LINE
  8
0
 10
82.582
 11
81.006
 20
52.26
 21
53.348
  0
LINE
  8
0
 10
81.006
 11
80.116
 20
53.348
 21
55.043
  0
LINE
  8
0
 10
80.116
 11
80.116
 20
68.043
 21
69.957
  0
LINE
  8
0
 10
80.116
 11
81.006
 20
69.957
 21
71.652
  0
LINE
  8
0
 10
81.006
 11
82.582
 20
71.652
 21
72.74
  0
LINE
  8
0
 10
82.582
 11
84.482
 20
72.74
 21
72.971
  0
LINE
  8
0
 10
84.482
 11
106.482
 20
72.971
 21
72.971
  0
LINE
  8
0
 10
106.482
 11
108.272
 20
72.971
 21
72.292
  0
LINE
  8
0
 10
108.272
 11
109.542
 20
72.292
 21
70.859
  0
LINE
  8
0
 10
109.542
 11
110
 20
70.859
 21
69
  0
LINE
  8
0
 10
110
 11
109.542
 20
69
 21
67.141
  0
LINE
  8
0
 10
109.542
 11
108.272
 20
67.141
 21
65.708
  0
LINE
  8
0
 10
108.272
 11
106.482
 20
65.708
 21
65.029
  0
LINE
  8
0
 10
106.482
 11
84.482
 20
65.029
 21
65.029
  0
LINE
  8
0
 10
84.482
 11
82.582
 20
65.029
 21
65.26
  0
LINE
  8
0
 10
82.582
 11
81.006
 20
65.26
 21
66.348
  0
LINE
  8
0
 10
81.006
 11
80.116
 20
66.348
 21
68.043
  0
LINE
  8
0
 10
80.116
 11
80.116
 20
81.043
 21
82.957
  0
LINE
  8
0
 10
80.116
 11
81.006
 20
82.957
 21
84.652
  0
LINE
  8
0
 10
81.006
 11
82.582
 20
84.652
 21
85.74
  0
LINE
  8
0
 10
82.582
 11
84.482
 20
85.74
 21
85.971
  0
LINE
  8
0
 10
84.482
 11
106.482
 20
85.971
 21
85.971
  0
LINE
  8
0
 10
106.482
 11
108.272
 20
85.971
 21
85.292
  0
LINE
  8
0
 10
108.272
 11
109.542
 20
85.292
 21
83.859
  0
LINE
  8
0
 10
109.542
 11
110
 20
83.859
 21
82
  0
LINE
  8
0
 10
110
 11
109.542
 20
82
 21
80.141
  0
LINE
  8
0
 10
109.542
 11
108.272
 20
80.141
 21
78.708
  0
LINE
  8
0
 10
108.272
 11
106.482
 20
78.708
 21
78.029
  0
LINE
  8
0
 10
106.482
 11
84.482
 20
78.029
 21
78.029
  0
LINE
  8
0
 10
84.482
 11
82.582
 20
78.029
 21
78.26
  0
LINE
  8
0
 10
82.582
 11
81.006
 20
78.26
 21
79.348
  0
LINE
  8
0
 10
81.006
 11
80.116
 20
79.348
 21
81.043
  0
LINE
  8
0
 10
80.116
 11
80.116
 20
94.043
 21
95.957
  0
LINE
  8
0
 10
80.116
 11
81.006
 20
95.957
 21
97.652
  0
LINE
  8
0
 10
81.006
 11
82.582
 20
97.652
 21
98.74
  0
LINE
  8
0
 10
82.582
 11
84.482
 20
98.74
 21
98.971
  0
LINE
  8
0
 10
84.482
 11
106.482
 20
98.971
 21
98.971
  0
LINE
  8
0
 10
106.482
 11
108.272
 20
98.971
 21
98.292
  0
LINE
  8
0
 10
108.272
 11
109.542
 20
98.292
 21
96.859
  0
LINE
  8
0
 10
109.542
 11
110
 20
96.859
 21
95
  0
LINE
  8
0
 10
110
 11
109.542
 20
95
 21
93.141
  0
LINE
  8
0
 10
109.542
 11
108.272
 20
93.141
 21
91.708
  0
LINE
  8
0
 10
108.272
 11
106.482
 20
91.708
 21
91.029
  0
LINE
  8
0
 10
106.482
 11
84.482
 20
91.029
 21
91.029
  0
LINE
  8
0
 10
84.482
 11
82.582
 20
91.029
 21
91.26
  0
LINE
  8
0
 10
82.582
 11
81.006
 20
91.26
 21
92.348
  0
LINE
  8
0
 10
81.006
 11
80.116
 20
92.348
 21
94.043
  0
LINE
  8
0
 10
80.116
 11
80.116
 20
107.043
 21
108.957
  0
LINE
  8
0
 10
80.116
 11
81.006
 20
108.957
 21
110.652
  0
LINE
  8
0
 10
81.006
 11
82.582
 20
110.652
 21
111.74
  0
LINE
  8
0
 10
82.582
 11
84.482
 20
111.74
 21
111.971
  0
LINE
  8
0
 10
84.482
 11
106.482
 20
111.971
 21
111.971
  0
LINE
  8
0
 10
106.482
 11
108.272
 20
111.971
 21
111.292
  0
LINE
  8
0
 10
108.272
 11
109.542
 20
111.292
 21
109.859
  0
LINE
  8
0
 10
109.542
 11
110
 20
109.859
 21
108
  0
LINE
  8
0
 10
110
 11
109.542
 20
108
 21
106.141
  0
LINE
  8
0
 10
109.542
 11
108.272
 20
106.141
 21
104.708
  0
LINE
  8
0
 10
108.272
 11
106.482
 20
104.708
 21
104.029
  0
LINE
  8
0
 10
106.482
 11
84.482
 20
104.029
 21
104.029
  0
LINE
  8
0
 10
84.482
 11
82.582
 20
104.029
 21
104.26
  0
LINE
  8
0
 10
82.582
 11
81.006
 20
104.26
 21
105.348
  0
LINE
  8
0
 10
81.006
 11
80.116
 20
105.348
 21
107.043
  0
LINE
  8
0
 10
80.116
 11
80.116
 20
120.043
 21
121.957
  0
LINE
  8
0
 10
80.116
 11
81.006
 20
121.957
 21
123.652
  0
LINE
  8
0
 10
81.006
 11
82.582
 20
123.652
 21
124.74
  0
LINE
  8
0
 10
82.582
 11
84.482
 20
124.74
 21
124.971
  0
LINE
  8
0
 10
84.482
 11
106.482
 20
124.971
 21
124.971
  0
LINE
  8
0
 10
106.482
 11
108.272
 20
124.971
 21
124.292
  0
LINE
  8
0
 10
108.272
 11
109.542
 20
124.292
 21
122.859
  0
LINE
  8
0
 10
109.542
 11
110
 20
122.859
 21
121
  0
LINE
  8
0
 10
110
 11
109.542
 20
121
 21
119.141
  0
LINE
  8
0
 10
109.542
 11
108.272
 20
119.141
 21
117.708
  0
LINE
  8
0
 10
108.272
 11
106.482
 20
117.708
 21
117.029
  0
LINE
  8
0
 10
106.482
 11
84.482
 20
117.029
 21
117.029
  0
LINE
  8
0
 10
84.482
 11
82.582
 20
117.029
 21
117.26
  0
LINE
  8
0
 10
82.582
 11
81.006
 20
117.26
 21
118.348
  0
LINE
  8
0
 10
81.006
 11
80.116
 20
118.348
 21
120.043
  0
LINE
  8
0
 10
115.116
 11
115.116
 20
3.043
 21
4.957
  0
LINE
  8
0
 10
115.116
 11
116.006
 20
4.957
 21
6.652
  0
LINE
  8
0
 10
116.006
 11
117.582
 20
6.652
 21
7.74
  0
LINE
  8
0
 10
117.582
 11
119.482
 20
7.74
 21
7.971
  0
LINE
  8
0
 10
119.482
 11
141.482
 20
7.971
 21
7.971
  0
LINE
  8
0
 10
141.482
 11
143.272
 20
7.971
 21
7.292
  0
LINE
  8
0
 10
143.272
 11
144.542
 20
7.292
 21
5.859
  0
LINE
  8
0
 10
144.542
 11
145
 20
5.859
 21
4
  0
LINE
  8
0
 10
145
 11
144.542
 20
4
 21
2.141
  0
LINE
  8
0
 10
144.542
 11
143.272
 20
2.141
 21
0.708
  0
LINE
  8
0
 10
143.272
 11
141.482
 20
0.708
 21
0.029
  0
LINE
  8
0
 10
141.482
 11
119.482
 20
0.029
 21
0.029
  0
LINE
  8
0
 10
119.482
 11
117.582
 20
0.029
 21
0.26
  0
LINE
  8
0
 10
117.582
 11
116.006
 20
0.26
 21
1.348
  0
LINE
  8
0
 10
116.006
 11
115.116
 20
1.348
 21
3.043
  0
LINE
  8
0
 10
115.116
 11
115.116
 20
16.043
 21
17.957
  0
LINE
  8
0
 10
115.116
 11
116.006
 20
17.957
 21
19.652
  0
LINE
  8
0
 10
116.006
 11
117.582
 20
19.652
 21
20.74
  0
LINE
  8
0
 10
117.582
 11
119.482
 20
20.74
 21
20.971
  0
LINE
  8
0
 10
119.482
 11
141.482
 20
20.971
 21
20.971
  0
LINE
  8
0
 10
141.482
 11
143.272
 20
20.971
 21
20.292
  0
LINE
  8
0
 10
143.272
 11
144.542
 20
20.292
 21
18.859
  0
LINE
  8
0
 10
144.542
 11
145
 20
18.859
 21
17
  0
LINE
  8
0
 10
145
 11
144.542
 20
17
 21
15.141
  0
LINE
  8
0
 10
144.542
 11
143.272
 20
15.141
 21
13.708
  0
LINE
  8
0
 10
143.272
 11
141.482
 20
13.708
 21
13.029
  0
LINE
  8
0
 10
141.482
 11
119.482
 20
13.029
 21
13.029
  0
LINE
  8
0
 10
119.482
 11
117.582
 20
13.029
 21
13.26
  0
LINE
  8
0
 10
117.582
 11
116.006
 20
13.26
 21
14.348
  0
LINE
  8
0
 10
116.006
 11
115.116
 20
14.348
 21
16.043
  0
LINE
  8
0
 10
115.116
 11
115.116
 20
29.043
 21
30.957
  0
LINE
  8
0
 10
115.116
 11
116.006
 20
30.957
 21
32.652
  0
LINE
  8
0
 10
116.006
 11
117.582
 20
32.652
 21
33.74
  0
LINE
  8
0
 10
117.582
 11
119.482
 20
33.74
 21
33.971
  0
LINE
  8
0
 10
119.482
 11
141.482
 20
33.971
 21
33.971
  0
LINE
  8
0
 10
141.482
 11
143.272
 20
33.971
 21
33.292
  0
LINE
  8
0
 10
143.272
 11
144.542
 20
33.292
 21
31.859
  0
LINE
  8
0
 10
144.542
 11
145
 20
31.859
 21
30
  0
LINE
  8
0
 10
145
 11
144.542
 20
30
 21
28.141
  0
LINE
  8
0
 10
144.542
 11
143.272
 20
28.141
 21
26.708
  0
LINE
  8
0
 10
143.272
 11
141.482
 20
26.708
 21
26.029
  0
LINE
  8
0
 10
141.482
 11
119.482
 20
26.029
 21
26.029
  0
LINE
  8
0
 10
119.482
 11
117.582
 20
26.029
 21
26.26
  0
LINE
  8
0
 10
117.582
 11
116.006
 20
26.26
 21
27.348
  0
LINE
  8
0
 10
116.006
 11
115.116
 20
27.348
 21
29.043
  0
LINE
  8
0
 10
115.116
 11
115.116
 20
42.043
 21
43.957
  0
LINE
  8
0
 10
115.116
 11
116.006
 20
43.957
 21
45.652
  0
LINE
  8
0
 10
116.006
 11
117.582
 20
45.652
 21
46.74
  0
LINE
  8
0
 10
117.582
 11
119.482
 20
46.74
 21
46.971
  0
LINE
  8
0
 10
119.482
 11
141.482
 20
46.971
 21
46.971
  0
LINE
  8
0
 10
141.482
 11
143.272
 20
46.971
 21
46.292
  0
LINE
  8
0
 10
143.272
 11
144.542
 20
46.292
 21
44.859
  0
LINE
  8
0
 10
144.542
 11
145
 20
44.859
 21
43
  0
LINE
  8
0
 10
145
 11
144.542
 20
43
 21
41.141
  0
LINE
  8
0
 10
144.542
 11
143.272
 20
41.141
 21
39.708
  0
LINE
  8
0
 10
143.272
 11
141.482
 20
39.708
 21
39.029
  0
LINE
  8
0
 10
141.482
 11
119.482
 20
39.029
 21
39.029
  0
LINE
  8
0
 10
119.482
 11
117.582
 20
39.029
 21
39.26
  0
LINE
  8
0
 10
117.582
 11
116.006
 20
39.26
 21
40.348
  0
LINE
  8
0
 10
116.006
 11
115.116
 20
40.348
 21
42.043
  0
LINE
  8
0
 10
115.116
 11
115.116
 20
55.043
 21
56.957
  0
LINE
  8
0
 10
115.116
 11
116.006
 20
56.957
 21
58.652
  0
LINE
  8
0
 10
116.006
 11
117.582
 20
58.652
 21
59.74
  0
LINE
  8
0
 10
117.582
 11
119.482
 20
59.74
 21
59.971
  0
LINE
  8
0
 10
119.482
 11
141.482
 20
59.971
 21
59.971
  0
LINE
  8
0
 10
141.482
 11
143.272
 20
59.971
 21
59.292
  0
LINE
  8
0
 10
143.272
 11
144.542
 20
59.292
 21
57.859
  0
LINE
  8
0
 10
144.542
 11
145
 20
57.859
 21
56
  0
LINE
  8
0
 10
145
 11
144.542
 20
56
 21
54.141
  0
LINE
  8
0
 10
144.542
 11
143.272
 20
54.141
 21
52.708
  0
LINE
  8
0
 10
143.272
 11
141.482
 20
52.708
 21
52.029
  0
LINE
  8
0
 10
141.482
 11
119.482
 20
52.029
 21
52.029
  0
LINE
  8
0
 10
119.482
 11
117.582
 20
52.029
 21
52.26
  0
LINE
  8
0
 10
117.582
 11
116.006
 20
52.26
 21
53.348
  0
LINE
  8
0
 10
116.006
 11
115.116
 20
53.348
 21
55.043
  0
LINE
  8
0
 10
115.116
 11
115.116
 20
68.043
 21
69.957
  0
LINE
  8
0
 10
115.116
 11
116.006
 20
69.957
 21
71.652
  0
LINE
  8
0
 10
116.006
 11
117.582
 20
71.652
 21
72.74
  0
LINE
  8
0
 10
117.582
 11
119.482
 20
72.74
 21
72.971
  0
LINE
  8
0
 10
119.482
 11
141.482
 20
72.971
 21
72.971
  0
LINE
  8
0
 10
141.482
 11
143.272
 20
72.971
 21
72.292
  0
LINE
  8
0
 10
143.272
 11
144.542
 20
72.292
 21
70.859
  0
LINE
  8
0
 10
144.542
 11
145
 20
70.859
 21
69
  0
LINE
  8
0
 10
145
 11
144.542
 20
69
 21
67.141
  0
LINE
  8
0
 10
144.542
 11
143.272
 20
67.141
 21
65.708
  0
LINE
  8
0
 10
143.272
 11
141.482
 20
65.708
 21
65.029
  0
LINE
  8
0
 10
141.482
 11
119.482
 20
65.029
 21
65.029
  0
LINE
  8
0
 10
119.482
 11
117.582
 20
65.029
 21
65.26
  0
LINE
  8
0
 10
117.582
 11
116.006
 20
65.26
 21
66.348
  0
LINE
  8
0
 10
116.006
 11
115.116
 20
66.348
 21
68.043
  0
LINE
  8
0
 10
115.116
 11
115.116
 20
81.043
 21
82.957
  0
LINE
  8
0
 10
115.116
 11
116.006
 20
82.957
 21
84.652
  0
LINE
  8
0
 10
116.006
 11
117.582
 20
84.652
 21
85.74
  0
LINE
  8
0
 10
117.582
 11
119.482
 20
85.74
 21
85.971
  0
LINE
  8
0
 10
119.482
 11
141.482
 20
85.971
 21
85.971
  0
LINE
  8
0
 10
141.482
 11
143.272
 20
85.971
 21
85.292
  0
LINE
  8
0
 10
143.272
 11
144.542
 20
85.292
 21
83.859
  0
LINE
  8
0
 10
144.542
 11
145
 20
83.859
 21
82
  0
LINE
  8
0
 10
145
 11
144.542
 20
82
 21
80.141
  0
LINE
  8
0
 10
144.542
 11
143.272
 20
80.141
 21
78.708
  0
LINE
  8
0
 10
143.272
 11
141.482
 20
78.708
 21
78.029
  0
LINE
  8
0
 10
141.482
 11
119.482
 20
78.029
 21
78.029
  0
LINE
  8
0
 10
119.482
 11
117.582
 20
78.029
 21
78.26
  0
LINE
  8
0
 10
117.582
 11
116.006
 20
78.26
 21
79.348
  0
LINE
  8
0
 10
116.006
 11
115.116
 20
79.348
 21
81.043
  0
LINE
  8
0
 10
115.116
 11
115.116
 20
94.043
 21
95.957
  0
LINE
  8
0
 10
115.116
 11
116.006
 20
95.957
 21
97.652
  0
LINE
  8
0
 10
116.006
 11
117.582
 20
97.652
 21
98.74
  0
LINE
  8
0
 10
117.582
 11
119.482
 20
98.74
 21
98.971
  0
LINE
  8
0
 10
119.482
 11
141.482
 20
98.971
 21
98.971
  0
LINE
  8
0
 10
141.482
 11
143.272
 20
98.971
 21
98.292
  0
LINE
  8
0
 10
143.272
 11
144.542
 20
98.292
 21
96.859
  0
LINE
  8
0
 10
144.542
 11
145
 20
96.859
 21
95
  0
LINE
  8
0
 10
145
 11
144.542
 20
95
 21
93.141
  0
LINE
  8
0
 10
144.542
 11
143.272
 20
93.141
 21
91.708
  0
LINE
  8
0
 10
143.272
 11
141.482
 20
91.708
 21
91.029
  0
LINE
  8
0
 10
141.482
 11
119.482
 20
91.029
 21
91.029
  0
LINE
  8
0
 10
119.482
 11
117.582
 20
91.029
 21
91.26
  0
LINE
  8
0
 10
117.582
 11
116.006
 20
91.26
 21
92.348
  0
LINE
  8
0
 10
116.006
 11
115.116
 20
92.348
 21
94.043
  0
LINE
  8
0
 10
115.116
 11
115.116
 20
107.043
 21
108.957
  0
LINE
  8
0
 10
115.116
 11
116.006
 20
108.957
 21
110.652
  0
LINE
  8
0
 10
116.006
 11
117.582
 20
110.652
 21
111.74
  0
LINE
  8
0
 10
117.582
 11
119.482
 20
111.74
 21
111.971
  0
LINE
  8
0
 10
119.482
 11
141.482
 20
111.971
 21
111.971
  0
LINE
  8
0
 10
141.482
 11
143.272
 20
111.971
 21
111.292
  0
LINE
  8
0
 10
143.272
 11
144.542
 20
111.292
 21
109.859
  0
LINE
  8
0
 10
144.542
 11
145
 20
109.859
 21
108
  0
LINE
  8
0
 10
145
 11
144.542
 20
108
 21
106.141
  0
LINE
  8
0
 10
144.542
 11
143.272
 20
106.141
 21
104.708
  0
LINE
  8
0
 10
143.272
 11
141.482
 20
104.708
 21
104.029
  0
LINE
  8
0
 10
141.482
 11
119.482
 20
104.029
 21
104.029
  0
LINE
  8
0
 10
119.482
 11
117.582
 20
104.029
 21
104.26
  0
LINE
  8
0
 10
117.582
 11
116.006
 20
104.26
 21
105.348
  0
LINE
  8
0
 10
116.006
 11
115.116
 20
105.348
 21
107.043
  0
LINE
  8
0
 10
115.116
 11
115.116
 20
120.043
 21
121.957
  0
LINE
  8
0
 10
115.116
 11
116.006
 20
121.957
 21
123.652
  0
LINE
  8
0
 10
116.006
 11
117.582
 20
123.652
 21
124.74
  0
LINE
  8
0
 10
117.582
 11
119.482
 20
124.74
 21
124.971
  0
LINE
  8
0
 10
119.482
 11
141.482
 20
124.971
 21
124.971
  0
LINE
  8
0
 10
141.482
 11
143.272
 20
124.971
 21
124.292
  0
LINE
  8
0
 10
143.272
 11
144.542
 20
124.292
 21
122.859
  0
LINE
  8
0
 10
144.542
 11
145
 20
122.859
 21
121
  0
LINE
  8
0
 10
145
 11
144.542
 20
121
 21
119.141
  0
LINE
  8
0
 10
144.542
 11
143.272
 20
119.141
 21
117.708
  0
LINE
  8
0
 10
143.272
 11
141.482
 20
117.708
 21
117.029
  0
LINE
  8
0
 10
141.482
 11
119.482
 20
117.029
 21
117.029
  0
LINE
  8
0
 10
119.482
 11
117.582
 20
117.029
 21
117.26
  0
LINE
  8
0
 10
117.582
 11
116.006
 20
117.26
 21
118.348
  0
LINE
  8
0
 10
116.006
 11
115.116
 20
118.348
 21
120.043
  0
ENDSEC
  0
SECTION
  2
OBJECTS
  0
DICTIONARY
  0
ENDSEC
  0
EOF
