  0
SECTION
  2
BLOCKS
  0
ENDSEC
  0
SECTION
  2
ENTITIES
  0
LINE
  8
0
 10
0
 11
0
 20
0
 21
200
  0
LINE
  8
0
 10
0
 11
10
 20
200
 21
200
  0
LINE
  8
0
 10
10
 11
10
 20
200
 21
0
  0
LINE
  8
0
 10
10
 11
0
 20
0
 21
0
  0
LINE
  8
0
 10
20
 11
20
 20
0
 21
200
  0
LINE
  8
0
 10
20
 11
30
 20
200
 21
200
  0
LINE
  8
0
 10
30
 11
30
 20
200
 21
0
  0
LINE
  8
0
 10
30
 11
20
 20
0
 21
0
  0
LINE
  8
0
 10
40
 11
40
 20
0
 21
200
  0
LINE
  8
0
 10
40
 11
50
 20
200
 21
200
  0
LINE
  8
0
 10
50
 11
50
 20
200
 21
0
  0
LINE
  8
0
 10
50
 11
40
 20
0
 21
0
  0
LINE
  8
0
 10
60
 11
60
 20
0
 21
200
  0
LINE
  8
0
 10
60
 11
70
 20
200
 21
200
  0
LINE
  8
0
 10
70
 11
70
 20
200
 21
0
  0
LINE
  8
0
 10
70
 11
60
 20
0
 21
0
  0
LINE
  8
0
 10
80
 11
80
 20
0
 21
200
  0
LINE
  8
0
 10
80
 11
90
 20
200
 21
200
  0
LINE
  8
0
 10
90
 11
90
 20
200
 21
0
  0
LINE
  8
0
 10
90
 11
80
 20
0
 21
0
  0
LINE
  8
0
 10
100
 11
100
 20
0
 21
200
  0
LINE
  8
0
 10
100
 11
110
 20
200
 21
200
  0
LINE
  8
0
 10
110
 11
110
 20
200
 21
0
  0
LINE
  8
0
 10
110
 11
100
 20
0
 21
0
  0
LINE
  8
0
 10
120
 11
120
 20
0
 21
200
  0
LINE
  8
0
 10
120
 11
130
 20
200
 21
200
  0
LINE
  8
0
 10
130
 11
130
 20
200
 21
0
  0
LINE
  8
0
 10
130
 11
120
 20
0
 21
0
  0
LINE
  8
0
 10
140
 11
140
 20
0
 21
200
  0
LINE
  8
0
 10
140
 11
150
 20
200
 21
200
  0
LINE
  8
0
 10
150
 11
150
 20
200
 21
0
  0
LINE
  8
0
 10
150
 11
140
 20
0
 21
0
  0
LINE
  8
0
 10
160
 11
160
 20
0
 21
200
  0
LINE
  8
0
 10
160
 11
170
 20
200
 21
200
  0
LINE
  8
0
 10
170
 11
170
 20
200
 21
0
  0
LINE
  8
0
 10
170
 11
160
 20
0
 21
0
  0
LINE
  8
0
 10
180
 11
180
 20
0
 21
200
  0
LINE
  8
0
 10
180
 11
190
 20
200
 21
200
  0
LINE
  8
0
 10
190
 11
190
 20
200
 21
0
  0
LINE
  8
0
 10
190
 11
180
 20
0
 21
0
  0
LINE
  8
0
 10
200
 11
200
 20
0
 21
200
  0
LINE
  8
0
 10
200
 11
210
 20
200
 21
200
  0
LINE
  8
0
 10
210
 11
210
 20
200
 21
0
  0
LINE
  8
0
 10
210
 11
200
 20
0
 21
0
  0
LINE
  8
0
 10
220
 11
220
 20
0
 21
200
  0
LINE
  8
0
 10
220
 11
230
 20
200
 21
200
  0
LINE
  8
0
 10
230
 11
230
 20
200
 21
0
  0
LINE
  8
0
 10
230
 11
220
 20
0
 21
0
  0
ENDSEC
  0
SECTION
  2
OBJECTS
  0
DICTIONARY
  0
ENDSEC
  0
EOF
