  0
SECTION
  2
BLOCKS
  0
ENDSEC
  0
SECTION
  2
ENTITIES
  0
LINE
  8
0
 10
0
 11
0
 20
10
 21
20
  0
LINE
  8
0
 10
0
 11
240
 20
20
 21
20
  0
LINE
  8
0
 10
240
 11
240
 20
20
 21
10
  0
LINE
  8
0
 10
240
 11
0
 20
10
 21
10
  0
LINE
  8
0
 10
0
 11
0
 20
30
 21
40
  0
LINE
  8
0
 10
0
 11
240
 20
40
 21
40
  0
LINE
  8
0
 10
240
 11
240
 20
40
 21
30
  0
LINE
  8
0
 10
240
 11
0
 20
30
 21
30
  0
LINE
  8
0
 10
0
 11
0
 20
50
 21
60
  0
LINE
  8
0
 10
0
 11
240
 20
60
 21
60
  0
LINE
  8
0
 10
240
 11
240
 20
60
 21
50
  0
LINE
  8
0
 10
240
 11
0
 20
50
 21
50
  0
LINE
  8
0
 10
0
 11
0
 20
70
 21
80
  0
LINE
  8
0
 10
0
 11
240
 20
80
 21
80
  0
LINE
  8
0
 10
240
 11
240
 20
80
 21
70
  0
LINE
  8
0
 10
240
 11
0
 20
70
 21
70
  0
LINE
  8
0
 10
0
 11
0
 20
90
 21
100
  0
LINE
  8
0
 10
0
 11
240
 20
100
 21
100
  0
LINE
  8
0
 10
240
 11
240
 20
100
 21
90
  0
LINE
  8
0
 10
240
 11
0
 20
90
 21
90
  0
LINE
  8
0
 10
0
 11
0
 20
110
 21
120
  0
LINE
  8
0
 10
0
 11
240
 20
120
 21
120
  0
LINE
  8
0
 10
240
 11
240
 20
120
 21
110
  0
LINE
  8
0
 10
240
 11
0
 20
110
 21
110
  0
LINE
  8
0
 10
0
 11
0
 20
130
 21
140
  0
LINE
  8
0
 10
0
 11
240
 20
140
 21
140
  0
LINE
  8
0
 10
240
 11
240
 20
140
 21
130
  0
LINE
  8
0
 10
240
 11
0
 20
130
 21
130
  0
LINE
  8
0
 10
0
 11
0
 20
150
 21
160
  0
LINE
  8
0
 10
0
 11
240
 20
160
 21
160
  0
LINE
  8
0
 10
240
 11
240
 20
160
 21
150
  0
LINE
  8
0
 10
240
 11
0
 20
150
 21
150
  0
LINE
  8
0
 10
0
 11
0
 20
170
 21
180
  0
LINE
  8
0
 10
0
 11
240
 20
180
 21
180
  0
LINE
  8
0
 10
240
 11
240
 20
180
 21
170
  0
LINE
  8
0
 10
240
 11
0
 20
170
 21
170
  0
LINE
  8
0
 10
0
 11
0
 20
190
 21
200
  0
LINE
  8
0
 10
0
 11
240
 20
200
 21
200
  0
LINE
  8
0
 10
240
 11
240
 20
200
 21
190
  0
LINE
  8
0
 10
240
 11
0
 20
190
 21
190
  0
ENDSEC
  0
SECTION
  2
OBJECTS
  0
DICTIONARY
  0
ENDSEC
  0
EOF
