  0
SECTION
  2
HEADER
  9
$ACADVER
  1
AC1014
  9
$HANDSEED
  5
FFFF
  9
$MEASUREMENT
 70
     1
  0
ENDSEC
  0
SECTION
  2
TABLES
  0
TABLE
  2
VPORT
  5
8
330
0
100
AcDbSymbolTable
 70
     4
  0
VPORT
  5
2E
330
8
100
AcDbSymbolTableRecord
100
AcDbViewportTableRecord
  2
*ACTIVE
 70
     0
 10
0.0
 20
0.0
 11
1.0
 21
1.0
 12
210.0
 22
148.5
 13
0.0
 23
0.0
 14
10.0
 24
10.0
 15
10.0
 25
10.0
 16
0.0
 26
0.0
 36
1.0
 17
0.0
 27
0.0
 37
0.0
 40
341.0
 41
1.24
 42
50.0
 43
0.0
 44
0.0
 50
0.0
 51
0.0
 71
     0
 72
   100
 73
     1
 74
     3
 75
     0
 76
     0
 77
     0
 78
     0
  0
ENDTAB
  0
TABLE
  2
LTYPE
  5
5
330
0
100
AcDbSymbolTable
 70
     1
  0
LTYPE
  5
14
330
5
100
AcDbSymbolTableRecord
100
AcDbLinetypeTableRecord
  2
BYBLOCK
 70
     0
  3

 72
    65
 73
     0
 40
0.0
  0
LTYPE
  5
15
330
5
100
AcDbSymbolTableRecord
100
AcDbLinetypeTableRecord
  2
BYLAYER
 70
     0
  3

 72
    65
 73
     0
 40
0.0
  0
LTYPE
  5
16
330
5
100
AcDbSymbolTableRecord
100
AcDbLinetypeTableRecord
  2
CONTINUOUS
 70
     0
  3
Solid line
 72
    65
 73
     0
 40
0.0
  0
ENDTAB
  0
TABLE
  2
LAYER
  5
2
100
AcDbSymbolTable
 70
2
  0
LAYER
  5
50
100
AcDbSymbolTableRecord
100
AcDbLayerTableRecord
  2
0
 70
0
  6
CONTINUOUS
  0
LAYER
  5
51
100
AcDbSymbolTableRecord
100
AcDbLayerTableRecord
  2
Layer_1
 70
0
  6
CONTINUOUS
  0
ENDTAB
  0
TABLE
  2
STYLE
  5
3
330
0
100
AcDbSymbolTable
 70
     1
  0
STYLE
  5
11
330
3
100
AcDbSymbolTableRecord
100
AcDbTextStyleTableRecord
  2
STANDARD
 70
     0
 40
0.0
 41
1.0
 50
0.0
 71
     0
 42
2.5
  3
txt
  4

  0
ENDTAB
  0
TABLE
  2
VIEW
  5
6
330
0
100
AcDbSymbolTable
 70
     0
  0
ENDTAB
  0
TABLE
  2
UCS
  5
7
330
0
100
AcDbSymbolTable
 70
     0
  0
ENDTAB
  0
TABLE
  2
APPID
  5
9
330
0
100
AcDbSymbolTable
 70
     2
  0
APPID
  5
12
330
9
100
AcDbSymbolTableRecord
100
AcDbRegAppTableRecord
  2
ACAD
 70
     0
  0
ENDTAB
  0
TABLE
  2
DIMSTYLE
  5
A
330
0
100
AcDbSymbolTable
 70
     1
  0
DIMSTYLE
105
27
330
A
100
AcDbSymbolTableRecord
100
AcDbDimStyleTableRecord
  2
ISO-25
 70
     0
  3

  4

  5

  6

  7

 40
1.0
 41
2.5
 42
0.625
 43
3.75
 44
1.25
 45
0.0
 46
0.0
 47
0.0
 48
0.0
140
2.5
141
2.5
142
0.0
143
0.03937007874016
144
1.0
145
0.0
146
1.0
147
0.625
 71
     0
 72
     0
 73
     0
 74
     0
 75
     0
 76
     0
 77
     1
 78
     8
170
     0
171
     3
172
     1
173
     0
174
     0
175
     0
176
     0
177
     0
178
     0
270
     2
271
     2
272
     2
273
     2
274
     3
340
11
275
     0
280
     0
281
     0
282
     0
283
     0
284
     8
285
     0
286
     0
287
     3
288
     0
  0
ENDTAB
  0
TABLE
  2
BLOCK_RECORD
  5
1
330
0
100
AcDbSymbolTable
 70
     1
  0
BLOCK_RECORD
  5
1F
330
1
100
AcDbSymbolTableRecord
100
AcDbBlockTableRecord
  2
*MODEL_SPACE
  0
BLOCK_RECORD
  5
1B
330
1
100
AcDbSymbolTableRecord
100
AcDbBlockTableRecord
  2
*PAPER_SPACE
  0
ENDTAB
  0
ENDSEC
  0
SECTION
  2
BLOCKS
  0
BLOCK
  5
20
330
1F
100
AcDbEntity
  8
0
100
AcDbBlockBegin
  2
*MODEL_SPACE
 70
     0
 10
0.0
 20
0.0
 30
0.0
  3
*MODEL_SPACE
  1

  0
ENDBLK
  5
21
330
1F
100
AcDbEntity
  8
0
100
AcDbBlockEnd
  0
BLOCK
  5
1C
330
1B
100
AcDbEntity
 67
     1
  8
0
100
AcDbBlockBegin
  2
*PAPER_SPACE
  1

  0
ENDBLK
  5
1D
330
1B
100
AcDbEntity
 67
     1
  8
0
100
AcDbBlockEnd
  0
ENDSEC
  0
SECTION
  2
ENTITIES
  0
LWPOLYLINE
  5
100
100
AcDbEntity
  8
Layer_1
 62
7
100
AcDbPolyline
 90
53
 70
0
 10
228.634980
 20
226.362400
 30
0.0
 10
229.850979
 20
226.674399
 30
0.0
 10
231.018979
 20
227.137399
 30
0.0
 10
232.118979
 20
227.742399
 30
0.0
 10
233.134979
 20
228.480398
 30
0.0
 10
234.050979
 20
229.340397
 30
0.0
 10
234.850981
 20
230.307398
 30
0.0
 10
235.523979
 20
231.367399
 30
0.0
 10
236.058979
 20
232.504399
 30
0.0
 10
236.446978
 20
233.698399
 30
0.0
 10
236.681979
 20
234.932399
 30
0.0
 10
236.760979
 20
236.185398
 30
0.0
 10
236.760979
 20
336.185398
 30
0.0
 10
236.681979
 20
337.438398
 30
0.0
 10
236.446978
 20
338.672398
 30
0.0
 10
236.058979
 20
339.866398
 30
0.0
 10
235.523979
 20
341.003398
 30
0.0
 10
234.850981
 20
342.063398
 30
0.0
 10
234.050979
 20
343.030398
 30
0.0
 10
233.134979
 20
343.890398
 30
0.0
 10
232.118979
 20
344.628398
 30
0.0
 10
231.018979
 20
345.233398
 30
0.0
 10
229.850979
 20
345.696398
 30
0.0
 10
228.634980
 20
346.008398
 30
0.0
 10
227.388980
 20
346.165398
 30
0.0
 10
-13.866930
 20
346.165398
 30
0.0
 10
-15.112850
 20
346.008398
 30
0.0
 10
-16.329201
 20
345.696398
 30
0.0
 10
-17.496820
 20
345.233398
 30
0.0
 10
-18.597301
 20
344.628398
 30
0.0
 10
-19.613270
 20
343.890398
 30
0.0
 10
-20.528710
 20
343.030398
 30
0.0
 10
-21.329200
 20
342.063398
 30
0.0
 10
-22.002101
 20
341.003398
 30
0.0
 10
-22.536795
 20
339.866398
 30
0.0
 10
-22.924857
 20
338.672398
 30
0.0
 10
-23.160178
 20
337.438398
 30
0.0
 10
-23.239020
 20
336.185398
 30
0.0
 10
-23.239020
 20
236.185398
 30
0.0
 10
-23.160178
 20
234.932399
 30
0.0
 10
-22.924857
 20
233.698399
 30
0.0
 10
-22.536795
 20
232.504399
 30
0.0
 10
-22.002101
 20
231.367399
 30
0.0
 10
-21.329200
 20
230.307398
 30
0.0
 10
-20.528710
 20
229.340397
 30
0.0
 10
-19.613270
 20
228.480398
 30
0.0
 10
-18.597301
 20
227.742399
 30
0.0
 10
-17.496820
 20
227.137399
 30
0.0
 10
-16.329201
 20
226.674399
 30
0.0
 10
-15.112850
 20
226.362400
 30
0.0
 10
-13.866930
 20
226.205399
 30
0.0
 10
227.388980
 20
226.205399
 30
0.0
 10
228.634980
 20
226.362400
 30
0.0
  0
LWPOLYLINE
  5
101
100
AcDbEntity
  8
Layer_1
 62
7
100
AcDbPolyline
 90
51
 70
0
 10
226.660979
 20
334.588398
 30
0.0
 10
226.460980
 20
334.613398
 30
0.0
 10
226.266980
 20
334.663398
 30
0.0
 10
226.079980
 20
334.737398
 30
0.0
 10
225.903980
 20
334.834398
 30
0.0
 10
225.740980
 20
334.952398
 30
0.0
 10
225.594981
 20
335.090398
 30
0.0
 10
225.466979
 20
335.245398
 30
0.0
 10
225.358978
 20
335.414398
 30
0.0
 10
225.272979
 20
335.596398
 30
0.0
 10
225.210981
 20
335.787398
 30
0.0
 10
225.173979
 20
335.984398
 30
0.0
 10
225.160968
 20
336.185398
 30
0.0
 10
225.173990
 20
336.386398
 30
0.0
 10
225.210981
 20
336.583398
 30
0.0
 10
225.272979
 20
336.774398
 30
0.0
 10
225.358978
 20
336.956398
 30
0.0
 10
225.466979
 20
337.125398
 30
0.0
 10
225.594981
 20
337.280398
 30
0.0
 10
225.740980
 20
337.418398
 30
0.0
 10
225.903980
 20
337.536398
 30
0.0
 10
226.079980
 20
337.633398
 30
0.0
 10
226.266980
 20
337.707398
 30
0.0
 10
226.460980
 20
337.757398
 30
0.0
 10
226.660979
 20
337.782397
 30
0.0
 10
226.860979
 20
337.782398
 30
0.0
 10
227.060978
 20
337.757399
 30
0.0
 10
227.254981
 20
337.707398
 30
0.0
 10
227.441978
 20
337.633398
 30
0.0
 10
227.617981
 20
337.536398
 30
0.0
 10
227.780981
 20
337.418398
 30
0.0
 10
227.926980
 20
337.280398
 30
0.0
 10
228.054979
 20
337.125398
 30
0.0
 10
228.162980
 20
336.956398
 30
0.0
 10
228.248979
 20
336.774398
 30
0.0
 10
228.310980
 20
336.583398
 30
0.0
 10
228.347980
 20
336.386398
 30
0.0
 10
228.360990
 20
336.185398
 30
0.0
 10
228.347968
 20
335.984398
 30
0.0
 10
228.310980
 20
335.787398
 30
0.0
 10
228.248979
 20
335.596398
 30
0.0
 10
228.162980
 20
335.414398
 30
0.0
 10
228.054979
 20
335.245398
 30
0.0
 10
227.926980
 20
335.090398
 30
0.0
 10
227.780981
 20
334.952398
 30
0.0
 10
227.617981
 20
334.834398
 30
0.0
 10
227.441978
 20
334.737398
 30
0.0
 10
227.254981
 20
334.663398
 30
0.0
 10
227.060978
 20
334.613398
 30
0.0
 10
226.860979
 20
334.588399
 30
0.0
 10
226.660979
 20
334.588398
 30
0.0
  0
LWPOLYLINE
  5
102
100
AcDbEntity
  8
Layer_1
 62
7
100
AcDbPolyline
 90
51
 70
0
 10
-13.339501
 20
334.588398
 30
0.0
 10
-13.538840
 20
334.613398
 30
0.0
 10
-13.733450
 20
334.663398
 30
0.0
 10
-13.920281
 20
334.737398
 30
0.0
 10
-14.096351
 20
334.834398
 30
0.0
 10
-14.258900
 20
334.952398
 30
0.0
 10
-14.405370
 20
335.090398
 30
0.0
 10
-14.533450
 20
335.245398
 30
0.0
 10
-14.641120
 20
335.414398
 30
0.0
 10
-14.726680
 20
335.596398
 30
0.0
 10
-14.788761
 20
335.787398
 30
0.0
 10
-14.826410
 20
335.984398
 30
0.0
 10
-14.839031
 20
336.185398
 30
0.0
 10
-14.826410
 20
336.386398
 30
0.0
 10
-14.788761
 20
336.583398
 30
0.0
 10
-14.726680
 20
336.774398
 30
0.0
 10
-14.641120
 20
336.956398
 30
0.0
 10
-14.533450
 20
337.125398
 30
0.0
 10
-14.405370
 20
337.280398
 30
0.0
 10
-14.258900
 20
337.418398
 30
0.0
 10
-14.096351
 20
337.536398
 30
0.0
 10
-13.920281
 20
337.633398
 30
0.0
 10
-13.733450
 20
337.707398
 30
0.0
 10
-13.538840
 20
337.757398
 30
0.0
 10
-13.339501
 20
337.782397
 30
0.0
 10
-13.138521
 20
337.782398
 30
0.0
 10
-12.939221
 20
337.757399
 30
0.0
 10
-12.744620
 20
337.707398
 30
0.0
 10
-12.557820
 20
337.633398
 30
0.0
 10
-12.381721
 20
337.536398
 30
0.0
 10
-12.219120
 20
337.418398
 30
0.0
 10
-12.072720
 20
337.280398
 30
0.0
 10
-11.944620
 20
337.125398
 30
0.0
 10
-11.836920
 20
336.956398
 30
0.0
 10
-11.751421
 20
336.774398
 30
0.0
 10
-11.689320
 20
336.583398
 30
0.0
 10
-11.651620
 20
336.386398
 30
0.0
 10
-11.639019
 20
336.185398
 30
0.0
 10
-11.651622
 20
335.984398
 30
0.0
 10
-11.689320
 20
335.787398
 30
0.0
 10
-11.751421
 20
335.596398
 30
0.0
 10
-11.836920
 20
335.414398
 30
0.0
 10
-11.944620
 20
335.245398
 30
0.0
 10
-12.072720
 20
335.090398
 30
0.0
 10
-12.219120
 20
334.952398
 30
0.0
 10
-12.381721
 20
334.834398
 30
0.0
 10
-12.557820
 20
334.737398
 30
0.0
 10
-12.744620
 20
334.663398
 30
0.0
 10
-12.939221
 20
334.613398
 30
0.0
 10
-13.138521
 20
334.588399
 30
0.0
 10
-13.339501
 20
334.588398
 30
0.0
  0
LWPOLYLINE
  5
103
100
AcDbEntity
  8
Layer_1
 62
7
100
AcDbPolyline
 90
5
 70
0
 10
75.397378
 20
334.635398
 30
0.0
 10
75.397378
 20
337.735398
 30
0.0
 10
96.305981
 20
337.735398
 30
0.0
 10
96.305981
 20
334.635398
 30
0.0
 10
75.397378
 20
334.635398
 30
0.0
  0
LWPOLYLINE
  5
104
100
AcDbEntity
  8
Layer_1
 62
7
100
AcDbPolyline
 90
5
 70
0
 10
33.579179
 20
334.635398
 30
0.0
 10
33.579179
 20
337.735398
 30
0.0
 10
54.488279
 20
337.735398
 30
0.0
 10
54.488279
 20
334.635398
 30
0.0
 10
33.579179
 20
334.635398
 30
0.0
  0
LWPOLYLINE
  5
105
100
AcDbEntity
  8
Layer_1
 62
7
100
AcDbPolyline
 90
5
 70
0
 10
-8.239021
 20
334.635398
 30
0.0
 10
-8.239021
 20
337.735398
 30
0.0
 10
12.670080
 20
337.735398
 30
0.0
 10
12.670080
 20
334.635398
 30
0.0
 10
-8.239021
 20
334.635398
 30
0.0
  0
LWPOLYLINE
  5
106
100
AcDbEntity
  8
Layer_1
 62
7
100
AcDbPolyline
 90
5
 70
0
 10
200.851980
 20
334.635398
 30
0.0
 10
200.851980
 20
337.735398
 30
0.0
 10
221.760981
 20
337.735398
 30
0.0
 10
221.760981
 20
334.635398
 30
0.0
 10
200.851980
 20
334.635398
 30
0.0
  0
LWPOLYLINE
  5
107
100
AcDbEntity
  8
Layer_1
 62
7
100
AcDbPolyline
 90
5
 70
0
 10
159.033979
 20
334.635398
 30
0.0
 10
159.033979
 20
337.735398
 30
0.0
 10
179.942979
 20
337.735398
 30
0.0
 10
179.942979
 20
334.635398
 30
0.0
 10
159.033979
 20
334.635398
 30
0.0
  0
LWPOLYLINE
  5
108
100
AcDbEntity
  8
Layer_1
 62
7
100
AcDbPolyline
 90
5
 70
0
 10
117.215980
 20
334.635398
 30
0.0
 10
117.215980
 20
337.735398
 30
0.0
 10
138.124978
 20
337.735398
 30
0.0
 10
138.124978
 20
334.635398
 30
0.0
 10
117.215980
 20
334.635398
 30
0.0
  0
LWPOLYLINE
  5
109
100
AcDbEntity
  8
Layer_1
 62
7
100
AcDbPolyline
 90
5
 70
0
 10
-14.789020
 20
318.328398
 30
0.0
 10
-14.789020
 20
331.185398
 30
0.0
 10
-11.689020
 20
331.185398
 30
0.0
 10
-11.689020
 20
318.328398
 30
0.0
 10
-14.789020
 20
318.328398
 30
0.0
  0
LWPOLYLINE
  5
10a
100
AcDbEntity
  8
Layer_1
 62
7
100
AcDbPolyline
 90
5
 70
0
 10
225.210981
 20
318.328398
 30
0.0
 10
225.210981
 20
331.185398
 30
0.0
 10
228.310980
 20
331.185398
 30
0.0
 10
228.310980
 20
318.328398
 30
0.0
 10
225.210981
 20
318.328398
 30
0.0
  0
LWPOLYLINE
  5
10b
100
AcDbEntity
  8
Layer_1
 62
7
100
AcDbPolyline
 90
78
 70
0
 10
107.035979
 20
314.227398
 30
0.0
 10
106.836979
 20
314.245399
 30
0.0
 10
106.645979
 20
314.276398
 30
0.0
 10
106.462981
 20
314.319398
 30
0.0
 10
106.288979
 20
314.374398
 30
0.0
 10
106.122979
 20
314.441398
 30
0.0
 10
105.964980
 20
314.520398
 30
0.0
 10
105.815981
 20
314.611398
 30
0.0
 10
105.677980
 20
314.713398
 30
0.0
 10
105.549981
 20
314.825398
 30
0.0
 10
105.432980
 20
314.949398
 30
0.0
 10
105.325981
 20
315.083398
 30
0.0
 10
105.228978
 20
315.229398
 30
0.0
 10
105.142979
 20
315.385398
 30
0.0
 10
105.067979
 20
315.551398
 30
0.0
 10
105.003979
 20
315.724398
 30
0.0
 10
104.951980
 20
315.905398
 30
0.0
 10
104.911981
 20
316.093398
 30
0.0
 10
104.882979
 20
316.289398
 30
0.0
 10
104.864974
 20
316.493398
 30
0.0
 10
104.859984
 20
316.705398
 30
0.0
 10
104.872989
 20
317.023398
 30
0.0
 10
104.910979
 20
317.321398
 30
0.0
 10
104.975980
 20
317.598398
 30
0.0
 10
105.065981
 20
317.854398
 30
0.0
 10
105.181980
 20
318.090398
 30
0.0
 10
105.323980
 20
318.306398
 30
0.0
 10
105.491978
 20
318.501398
 30
0.0
 10
105.681979
 20
318.673398
 30
0.0
 10
105.892979
 20
318.818398
 30
0.0
 10
106.123978
 20
318.937398
 30
0.0
 10
106.374978
 20
319.030398
 30
0.0
 10
106.646978
 20
319.096398
 30
0.0
 10
106.937980
 20
319.136398
 30
0.0
 10
107.249980
 20
319.149397
 30
0.0
 10
107.455980
 20
319.143398
 30
0.0
 10
107.653978
 20
319.125398
 30
0.0
 10
107.843979
 20
319.096398
 30
0.0
 10
108.025981
 20
319.054398
 30
0.0
 10
108.199979
 20
319.001398
 30
0.0
 10
108.365980
 20
318.935398
 30
0.0
 10
108.523979
 20
318.858398
 30
0.0
 10
108.672978
 20
318.770398
 30
0.0
 10
108.810979
 20
318.671398
 30
0.0
 10
108.939980
 20
318.561398
 30
0.0
 10
109.057980
 20
318.440398
 30
0.0
 10
109.164979
 20
318.309398
 30
0.0
 10
109.261979
 20
318.167398
 30
0.0
 10
109.348980
 20
318.014398
 30
0.0
 10
109.423980
 20
317.852398
 30
0.0
 10
109.487980
 20
317.681398
 30
0.0
 10
109.540981
 20
317.502398
 30
0.0
 10
109.580980
 20
317.315398
 30
0.0
 10
109.609979
 20
317.120398
 30
0.0
 10
109.627984
 20
316.917398
 30
0.0
 10
109.633990
 20
316.705398
 30
0.0
 10
109.627967
 20
316.494398
 30
0.0
 10
109.609973
 20
316.291398
 30
0.0
 10
109.580980
 20
316.096398
 30
0.0
 10
109.538980
 20
315.908398
 30
0.0
 10
109.485979
 20
315.728398
 30
0.0
 10
109.420980
 20
315.555398
 30
0.0
 10
109.344980
 20
315.390398
 30
0.0
 10
109.256981
 20
315.234398
 30
0.0
 10
109.158979
 20
315.089398
 30
0.0
 10
109.050978
 20
314.955398
 30
0.0
 10
108.932978
 20
314.831398
 30
0.0
 10
108.804979
 20
314.717398
 30
0.0
 10
108.665979
 20
314.615398
 30
0.0
 10
108.516980
 20
314.523398
 30
0.0
 10
108.358981
 20
314.443398
 30
0.0
 10
108.192980
 20
314.375398
 30
0.0
 10
108.018979
 20
314.320398
 30
0.0
 10
107.836980
 20
314.276398
 30
0.0
 10
107.646979
 20
314.246398
 30
0.0
 10
107.448980
 20
314.227399
 30
0.0
 10
107.243980
 20
314.221398
 30
0.0
 10
107.035979
 20
314.227398
 30
0.0
  0
LWPOLYLINE
  5
10c
100
AcDbEntity
  8
Layer_1
 62
7
100
AcDbPolyline
 90
57
 70
0
 10
107.473980
 20
314.759398
 30
0.0
 10
107.688979
 20
314.791398
 30
0.0
 10
107.886978
 20
314.843398
 30
0.0
 10
108.069979
 20
314.916398
 30
0.0
 10
108.236979
 20
315.010398
 30
0.0
 10
108.387979
 20
315.124398
 30
0.0
 10
108.523979
 20
315.260398
 30
0.0
 10
108.641979
 20
315.415398
 30
0.0
 10
108.741979
 20
315.587398
 30
0.0
 10
108.823978
 20
315.776398
 30
0.0
 10
108.887978
 20
315.982398
 30
0.0
 10
108.932978
 20
316.206398
 30
0.0
 10
108.960975
 20
316.447398
 30
0.0
 10
108.969983
 20
316.706398
 30
0.0
 10
108.959990
 20
316.953398
 30
0.0
 10
108.932970
 20
317.185398
 30
0.0
 10
108.886979
 20
317.401398
 30
0.0
 10
108.822979
 20
317.601398
 30
0.0
 10
108.739981
 20
317.786398
 30
0.0
 10
108.638979
 20
317.955398
 30
0.0
 10
108.519980
 20
318.108398
 30
0.0
 10
108.383980
 20
318.243398
 30
0.0
 10
108.232980
 20
318.358398
 30
0.0
 10
108.066979
 20
318.451398
 30
0.0
 10
107.884980
 20
318.524398
 30
0.0
 10
107.688979
 20
318.576398
 30
0.0
 10
107.476980
 20
318.608398
 30
0.0
 10
107.250979
 20
318.618397
 30
0.0
 10
107.021978
 20
318.608399
 30
0.0
 10
106.807980
 20
318.577398
 30
0.0
 10
106.609979
 20
318.526398
 30
0.0
 10
106.426980
 20
318.454398
 30
0.0
 10
106.259978
 20
318.361398
 30
0.0
 10
106.107979
 20
318.248398
 30
0.0
 10
105.971979
 20
318.115398
 30
0.0
 10
105.851981
 20
317.963398
 30
0.0
 10
105.750979
 20
317.795398
 30
0.0
 10
105.667980
 20
317.610398
 30
0.0
 10
105.602979
 20
317.409398
 30
0.0
 10
105.556980
 20
317.191398
 30
0.0
 10
105.529971
 20
316.957398
 30
0.0
 10
105.520977
 20
316.706398
 30
0.0
 10
105.529982
 20
316.456398
 30
0.0
 10
105.557976
 20
316.222398
 30
0.0
 10
105.603978
 20
316.002398
 30
0.0
 10
105.669979
 20
315.798398
 30
0.0
 10
105.752980
 20
315.609398
 30
0.0
 10
105.855980
 20
315.435398
 30
0.0
 10
105.976980
 20
315.277398
 30
0.0
 10
106.113979
 20
315.137398
 30
0.0
 10
106.266980
 20
315.018398
 30
0.0
 10
106.432980
 20
314.921398
 30
0.0
 10
106.613978
 20
314.846398
 30
0.0
 10
106.809979
 20
314.792398
 30
0.0
 10
107.018978
 20
314.760398
 30
0.0
 10
107.243980
 20
314.749397
 30
0.0
 10
107.473980
 20
314.759397
 30
0.0
  0
LWPOLYLINE
  5
10d
100
AcDbEntity
  8
Layer_1
 62
7
100
AcDbPolyline
 90
34
 70
0
 10
110.401979
 20
314.285398
 30
0.0
 10
110.401979
 20
319.085398
 30
0.0
 10
112.429980
 20
319.085398
 30
0.0
 10
112.654979
 20
319.077397
 30
0.0
 10
112.863978
 20
319.054397
 30
0.0
 10
113.057981
 20
319.015398
 30
0.0
 10
113.237979
 20
318.961398
 30
0.0
 10
113.401978
 20
318.891398
 30
0.0
 10
113.550981
 20
318.806398
 30
0.0
 10
113.684980
 20
318.705398
 30
0.0
 10
113.803979
 20
318.590398
 30
0.0
 10
113.902979
 20
318.462398
 30
0.0
 10
113.984979
 20
318.322398
 30
0.0
 10
114.048979
 20
318.169398
 30
0.0
 10
114.093979
 20
318.003398
 30
0.0
 10
114.120988
 20
317.824398
 30
0.0
 10
114.129982
 20
317.633398
 30
0.0
 10
114.120976
 20
317.443398
 30
0.0
 10
114.093970
 20
317.264398
 30
0.0
 10
114.047980
 20
317.097398
 30
0.0
 10
113.984979
 20
316.941398
 30
0.0
 10
113.901980
 20
316.797398
 30
0.0
 10
113.801981
 20
316.664398
 30
0.0
 10
113.682979
 20
316.543398
 30
0.0
 10
113.548980
 20
316.436398
 30
0.0
 10
113.401978
 20
316.345398
 30
0.0
 10
113.241978
 20
316.271398
 30
0.0
 10
113.068979
 20
316.213398
 30
0.0
 10
112.882980
 20
316.172398
 30
0.0
 10
112.682981
 20
316.147399
 30
0.0
 10
112.469979
 20
316.139397
 30
0.0
 10
111.052981
 20
316.139398
 30
0.0
 10
111.052981
 20
314.285398
 30
0.0
 10
110.401979
 20
314.285398
 30
0.0
  0
LWPOLYLINE
  5
10e
100
AcDbEntity
  8
Layer_1
 62
7
100
AcDbPolyline
 90
18
 70
0
 10
112.670981
 20
316.673398
 30
0.0
 10
112.916980
 20
316.732398
 30
0.0
 10
113.117978
 20
316.832398
 30
0.0
 10
113.274978
 20
316.971398
 30
0.0
 10
113.386978
 20
317.149398
 30
0.0
 10
113.453981
 20
317.368398
 30
0.0
 10
113.475966
 20
317.626398
 30
0.0
 10
113.453995
 20
317.875398
 30
0.0
 10
113.384980
 20
318.085398
 30
0.0
 10
113.269980
 20
318.258398
 30
0.0
 10
113.108978
 20
318.392398
 30
0.0
 10
112.902979
 20
318.487398
 30
0.0
 10
112.650980
 20
318.545398
 30
0.0
 10
112.351979
 20
318.564398
 30
0.0
 10
111.052981
 20
318.564398
 30
0.0
 10
111.052981
 20
316.653398
 30
0.0
 10
112.378979
 20
316.653398
 30
0.0
 10
112.670981
 20
316.673400
 30
0.0
  0
LWPOLYLINE
  5
10f
100
AcDbEntity
  8
Layer_1
 62
7
100
AcDbPolyline
 90
9
 70
0
 10
102.307981
 20
314.285398
 30
0.0
 10
102.307981
 20
318.554398
 30
0.0
 10
100.648980
 20
318.554398
 30
0.0
 10
100.648980
 20
319.085398
 30
0.0
 10
104.617978
 20
319.085398
 30
0.0
 10
104.617978
 20
318.554398
 30
0.0
 10
102.955980
 20
318.554398
 30
0.0
 10
102.955980
 20
314.285398
 30
0.0
 10
102.307981
 20
314.285398
 30
0.0
  0
LWPOLYLINE
  5
110
100
AcDbEntity
  8
Layer_1
 62
7
100
AcDbPolyline
 90
5
 70
0
 10
107.180979
 20
301.285398
 30
0.0
 10
107.180979
 20
311.285398
 30
0.0
 10
107.680978
 20
311.285398
 30
0.0
 10
107.680978
 20
301.285398
 30
0.0
 10
107.180979
 20
301.285398
 30
0.0
  0
LWPOLYLINE
  5
111
100
AcDbEntity
  8
Layer_1
 62
7
100
AcDbPolyline
 90
5
 70
0
 10
-14.789020
 20
292.614399
 30
0.0
 10
-14.789020
 20
305.471398
 30
0.0
 10
-11.689020
 20
305.471398
 30
0.0
 10
-11.689020
 20
292.614399
 30
0.0
 10
-14.789020
 20
292.614399
 30
0.0
  0
LWPOLYLINE
  5
112
100
AcDbEntity
  8
Layer_1
 62
7
100
AcDbPolyline
 90
5
 70
0
 10
225.210981
 20
292.614399
 30
0.0
 10
225.210981
 20
305.471398
 30
0.0
 10
228.310980
 20
305.471398
 30
0.0
 10
228.310980
 20
292.614399
 30
0.0
 10
225.210981
 20
292.614399
 30
0.0
  0
LWPOLYLINE
  5
113
100
AcDbEntity
  8
Layer_1
 62
7
100
AcDbPolyline
 90
51
 70
0
 10
106.488979
 20
269.315400
 30
0.0
 10
104.619979
 20
269.551397
 30
0.0
 10
102.795980
 20
270.019398
 30
0.0
 10
101.043978
 20
270.713399
 30
0.0
 10
99.393980
 20
271.620399
 30
0.0
 10
97.869980
 20
272.727399
 30
0.0
 10
96.495978
 20
274.017397
 30
0.0
 10
95.295981
 20
275.468397
 30
0.0
 10
94.285978
 20
277.059400
 30
0.0
 10
93.483979
 20
278.763398
 30
0.0
 10
92.901980
 20
280.555399
 30
0.0
 10
92.548979
 20
282.405397
 30
0.0
 10
92.430979
 20
284.285398
 30
0.0
 10
92.548979
 20
286.165399
 30
0.0
 10
92.901980
 20
288.015399
 30
0.0
 10
93.483979
 20
289.807397
 30
0.0
 10
94.285978
 20
291.511399
 30
0.0
 10
95.295981
 20
293.102398
 30
0.0
 10
96.495978
 20
294.553399
 30
0.0
 10
97.869980
 20
295.843397
 30
0.0
 10
99.393980
 20
296.950399
 30
0.0
 10
101.043978
 20
297.857400
 30
0.0
 10
102.795980
 20
298.551398
 30
0.0
 10
104.619979
 20
299.019399
 30
0.0
 10
106.488979
 20
299.255399
 30
0.0
 10
108.372979
 20
299.255399
 30
0.0
 10
110.241979
 20
299.019399
 30
0.0
 10
112.065978
 20
298.551398
 30
0.0
 10
113.817980
 20
297.857400
 30
0.0
 10
115.467981
 20
296.950399
 30
0.0
 10
116.991981
 20
295.843397
 30
0.0
 10
118.365980
 20
294.553399
 30
0.0
 10
119.565980
 20
293.102398
 30
0.0
 10
120.575980
 20
291.511399
 30
0.0
 10
121.377979
 20
289.807397
 30
0.0
 10
121.959981
 20
288.015399
 30
0.0
 10
122.312979
 20
286.165399
 30
0.0
 10
122.430979
 20
284.285398
 30
0.0
 10
122.312979
 20
282.405397
 30
0.0
 10
121.959981
 20
280.555399
 30
0.0
 10
121.377979
 20
278.763398
 30
0.0
 10
120.575980
 20
277.059400
 30
0.0
 10
119.565980
 20
275.468397
 30
0.0
 10
118.365980
 20
274.017397
 30
0.0
 10
116.991981
 20
272.727399
 30
0.0
 10
115.467981
 20
271.620399
 30
0.0
 10
113.817980
 20
270.713399
 30
0.0
 10
112.065978
 20
270.019398
 30
0.0
 10
110.241979
 20
269.551397
 30
0.0
 10
108.372979
 20
269.315400
 30
0.0
 10
106.488979
 20
269.315400
 30
0.0
  0
LWPOLYLINE
  5
114
100
AcDbEntity
  8
Layer_1
 62
7
100
AcDbPolyline
 90
5
 70
0
 10
80.430981
 20
284.035400
 30
0.0
 10
80.430981
 20
284.535399
 30
0.0
 10
90.430980
 20
284.535399
 30
0.0
 10
90.430980
 20
284.035400
 30
0.0
 10
80.430981
 20
284.035400
 30
0.0
  0
LWPOLYLINE
  5
115
100
AcDbEntity
  8
Layer_1
 62
7
100
AcDbPolyline
 90
5
 70
0
 10
124.430980
 20
284.035400
 30
0.0
 10
124.430980
 20
284.535399
 30
0.0
 10
134.430980
 20
284.535399
 30
0.0
 10
134.430980
 20
284.035400
 30
0.0
 10
124.430980
 20
284.035400
 30
0.0
  0
LWPOLYLINE
  5
116
100
AcDbEntity
  8
Layer_1
 62
7
100
AcDbPolyline
 90
5
 70
0
 10
-14.789020
 20
266.899400
 30
0.0
 10
-14.789020
 20
279.756397
 30
0.0
 10
-11.689020
 20
279.756397
 30
0.0
 10
-11.689020
 20
266.899400
 30
0.0
 10
-14.789020
 20
266.899400
 30
0.0
  0
LWPOLYLINE
  5
117
100
AcDbEntity
  8
Layer_1
 62
7
100
AcDbPolyline
 90
5
 70
0
 10
225.210981
 20
266.899400
 30
0.0
 10
225.210981
 20
279.756397
 30
0.0
 10
228.310980
 20
279.756397
 30
0.0
 10
228.310980
 20
266.899400
 30
0.0
 10
225.210981
 20
266.899400
 30
0.0
  0
LWPOLYLINE
  5
118
100
AcDbEntity
  8
Layer_1
 62
7
100
AcDbPolyline
 90
5
 70
0
 10
107.180979
 20
257.285398
 30
0.0
 10
107.180979
 20
267.285398
 30
0.0
 10
107.680978
 20
267.285398
 30
0.0
 10
107.680978
 20
257.285398
 30
0.0
 10
107.180979
 20
257.285398
 30
0.0
  0
LWPOLYLINE
  5
119
100
AcDbEntity
  8
Layer_1
 62
7
100
AcDbPolyline
 90
5
 70
0
 10
225.210981
 20
241.185399
 30
0.0
 10
225.210981
 20
254.042400
 30
0.0
 10
228.310980
 20
254.042400
 30
0.0
 10
228.310980
 20
241.185399
 30
0.0
 10
225.210981
 20
241.185399
 30
0.0
  0
LWPOLYLINE
  5
11a
100
AcDbEntity
  8
Layer_1
 62
7
100
AcDbPolyline
 90
5
 70
0
 10
-14.789020
 20
241.185399
 30
0.0
 10
-14.789020
 20
254.042400
 30
0.0
 10
-11.689020
 20
254.042400
 30
0.0
 10
-11.689020
 20
241.185399
 30
0.0
 10
-14.789020
 20
241.185399
 30
0.0
  0
LWPOLYLINE
  5
11b
100
AcDbEntity
  8
Layer_1
 62
7
100
AcDbPolyline
 90
51
 70
0
 10
226.660979
 20
234.588398
 30
0.0
 10
226.460980
 20
234.613403
 30
0.0
 10
226.266980
 20
234.663399
 30
0.0
 10
226.079980
 20
234.737398
 30
0.0
 10
225.903980
 20
234.834397
 30
0.0
 10
225.740980
 20
234.952397
 30
0.0
 10
225.594981
 20
235.090398
 30
0.0
 10
225.466979
 20
235.245398
 30
0.0
 10
225.358978
 20
235.414398
 30
0.0
 10
225.272979
 20
235.596397
 30
0.0
 10
225.210981
 20
235.787400
 30
0.0
 10
225.173979
 20
235.984399
 30
0.0
 10
225.160968
 20
236.185398
 30
0.0
 10
225.173990
 20
236.386400
 30
0.0
 10
225.210981
 20
236.583399
 30
0.0
 10
225.272979
 20
236.774399
 30
0.0
 10
225.358978
 20
236.956398
 30
0.0
 10
225.466979
 20
237.125398
 30
0.0
 10
225.594981
 20
237.280398
 30
0.0
 10
225.740980
 20
237.418399
 30
0.0
 10
225.903980
 20
237.536399
 30
0.0
 10
226.079980
 20
237.633398
 30
0.0
 10
226.266980
 20
237.707397
 30
0.0
 10
226.460980
 20
237.757398
 30
0.0
 10
226.660979
 20
237.782403
 30
0.0
 10
226.860979
 20
237.782398
 30
0.0
 10
227.060978
 20
237.757393
 30
0.0
 10
227.254981
 20
237.707397
 30
0.0
 10
227.441978
 20
237.633398
 30
0.0
 10
227.617981
 20
237.536399
 30
0.0
 10
227.780981
 20
237.418399
 30
0.0
 10
227.926980
 20
237.280398
 30
0.0
 10
228.054979
 20
237.125398
 30
0.0
 10
228.162980
 20
236.956398
 30
0.0
 10
228.248979
 20
236.774399
 30
0.0
 10
228.310980
 20
236.583399
 30
0.0
 10
228.347980
 20
236.386400
 30
0.0
 10
228.360990
 20
236.185398
 30
0.0
 10
228.347968
 20
235.984399
 30
0.0
 10
228.310980
 20
235.787400
 30
0.0
 10
228.248979
 20
235.596397
 30
0.0
 10
228.162980
 20
235.414398
 30
0.0
 10
228.054979
 20
235.245398
 30
0.0
 10
227.926980
 20
235.090398
 30
0.0
 10
227.780981
 20
234.952397
 30
0.0
 10
227.617981
 20
234.834397
 30
0.0
 10
227.441978
 20
234.737398
 30
0.0
 10
227.254981
 20
234.663399
 30
0.0
 10
227.060978
 20
234.613398
 30
0.0
 10
226.860979
 20
234.588393
 30
0.0
 10
226.660979
 20
234.588398
 30
0.0
  0
LWPOLYLINE
  5
11c
100
AcDbEntity
  8
Layer_1
 62
7
100
AcDbPolyline
 90
51
 70
0
 10
-13.339501
 20
234.588398
 30
0.0
 10
-13.538840
 20
234.613403
 30
0.0
 10
-13.733450
 20
234.663399
 30
0.0
 10
-13.920281
 20
234.737398
 30
0.0
 10
-14.096351
 20
234.834397
 30
0.0
 10
-14.258900
 20
234.952397
 30
0.0
 10
-14.405370
 20
235.090398
 30
0.0
 10
-14.533450
 20
235.245398
 30
0.0
 10
-14.641120
 20
235.414398
 30
0.0
 10
-14.726680
 20
235.596397
 30
0.0
 10
-14.788761
 20
235.787400
 30
0.0
 10
-14.826410
 20
235.984399
 30
0.0
 10
-14.839031
 20
236.185398
 30
0.0
 10
-14.826410
 20
236.386400
 30
0.0
 10
-14.788761
 20
236.583399
 30
0.0
 10
-14.726680
 20
236.774399
 30
0.0
 10
-14.641120
 20
236.956398
 30
0.0
 10
-14.533450
 20
237.125398
 30
0.0
 10
-14.405370
 20
237.280398
 30
0.0
 10
-14.258900
 20
237.418399
 30
0.0
 10
-14.096351
 20
237.536399
 30
0.0
 10
-13.920281
 20
237.633398
 30
0.0
 10
-13.733450
 20
237.707397
 30
0.0
 10
-13.538840
 20
237.757398
 30
0.0
 10
-13.339501
 20
237.782403
 30
0.0
 10
-13.138521
 20
237.782398
 30
0.0
 10
-12.939221
 20
237.757393
 30
0.0
 10
-12.744620
 20
237.707397
 30
0.0
 10
-12.557820
 20
237.633398
 30
0.0
 10
-12.381721
 20
237.536399
 30
0.0
 10
-12.219120
 20
237.418399
 30
0.0
 10
-12.072720
 20
237.280398
 30
0.0
 10
-11.944620
 20
237.125398
 30
0.0
 10
-11.836920
 20
236.956398
 30
0.0
 10
-11.751421
 20
236.774399
 30
0.0
 10
-11.689320
 20
236.583399
 30
0.0
 10
-11.651620
 20
236.386400
 30
0.0
 10
-11.639019
 20
236.185398
 30
0.0
 10
-11.651622
 20
235.984399
 30
0.0
 10
-11.689320
 20
235.787400
 30
0.0
 10
-11.751421
 20
235.596397
 30
0.0
 10
-11.836920
 20
235.414398
 30
0.0
 10
-11.944620
 20
235.245398
 30
0.0
 10
-12.072720
 20
235.090398
 30
0.0
 10
-12.219120
 20
234.952397
 30
0.0
 10
-12.381721
 20
234.834397
 30
0.0
 10
-12.557820
 20
234.737398
 30
0.0
 10
-12.744620
 20
234.663399
 30
0.0
 10
-12.939221
 20
234.613398
 30
0.0
 10
-13.138521
 20
234.588393
 30
0.0
 10
-13.339501
 20
234.588398
 30
0.0
  0
LWPOLYLINE
  5
11d
100
AcDbEntity
  8
Layer_1
 62
7
100
AcDbPolyline
 90
5
 70
0
 10
-8.239021
 20
234.635400
 30
0.0
 10
-8.239021
 20
237.735399
 30
0.0
 10
12.670080
 20
237.735399
 30
0.0
 10
12.670080
 20
234.635400
 30
0.0
 10
-8.239021
 20
234.635400
 30
0.0
  0
LWPOLYLINE
  5
11e
100
AcDbEntity
  8
Layer_1
 62
7
100
AcDbPolyline
 90
5
 70
0
 10
33.579179
 20
234.635400
 30
0.0
 10
33.579179
 20
237.735399
 30
0.0
 10
54.488279
 20
237.735399
 30
0.0
 10
54.488279
 20
234.635400
 30
0.0
 10
33.579179
 20
234.635400
 30
0.0
  0
LWPOLYLINE
  5
11f
100
AcDbEntity
  8
Layer_1
 62
7
100
AcDbPolyline
 90
5
 70
0
 10
75.397378
 20
234.635400
 30
0.0
 10
75.397378
 20
237.735399
 30
0.0
 10
96.305981
 20
237.735399
 30
0.0
 10
96.305981
 20
234.635400
 30
0.0
 10
75.397378
 20
234.635400
 30
0.0
  0
LWPOLYLINE
  5
120
100
AcDbEntity
  8
Layer_1
 62
7
100
AcDbPolyline
 90
5
 70
0
 10
117.215980
 20
234.635400
 30
0.0
 10
117.215980
 20
237.735399
 30
0.0
 10
138.124978
 20
237.735399
 30
0.0
 10
138.124978
 20
234.635400
 30
0.0
 10
117.215980
 20
234.635400
 30
0.0
  0
LWPOLYLINE
  5
121
100
AcDbEntity
  8
Layer_1
 62
7
100
AcDbPolyline
 90
5
 70
0
 10
159.033979
 20
234.635400
 30
0.0
 10
159.033979
 20
237.735399
 30
0.0
 10
179.942979
 20
237.735399
 30
0.0
 10
179.942979
 20
234.635400
 30
0.0
 10
159.033979
 20
234.635400
 30
0.0
  0
LWPOLYLINE
  5
122
100
AcDbEntity
  8
Layer_1
 62
7
100
AcDbPolyline
 90
5
 70
0
 10
200.851980
 20
234.635400
 30
0.0
 10
200.851980
 20
237.735399
 30
0.0
 10
221.760981
 20
237.735399
 30
0.0
 10
221.760981
 20
234.635400
 30
0.0
 10
200.851980
 20
234.635400
 30
0.0
  0
LWPOLYLINE
  5
123
100
AcDbEntity
  8
Layer_1
 62
7
100
AcDbPolyline
 90
45
 70
0
 10
33.579179
 20
162.185399
 30
0.0
 10
54.488279
 20
162.185399
 30
0.0
 10
54.488279
 20
159.085397
 30
0.0
 10
75.397378
 20
159.085397
 30
0.0
 10
75.397378
 20
162.185399
 30
0.0
 10
96.305981
 20
162.185399
 30
0.0
 10
96.305981
 20
159.085397
 30
0.0
 10
117.215980
 20
159.085397
 30
0.0
 10
117.215980
 20
162.185399
 30
0.0
 10
138.124978
 20
162.185399
 30
0.0
 10
138.124978
 20
159.085397
 30
0.0
 10
159.033979
 20
159.085397
 30
0.0
 10
159.033979
 20
162.185399
 30
0.0
 10
179.942979
 20
162.185399
 30
0.0
 10
179.942979
 20
159.085397
 30
0.0
 10
200.851980
 20
159.085397
 30
0.0
 10
200.851980
 20
162.185399
 30
0.0
 10
221.760981
 20
162.185399
 30
0.0
 10
221.760981
 20
216.185399
 30
0.0
 10
200.851980
 20
216.185399
 30
0.0
 10
200.851980
 20
219.285398
 30
0.0
 10
179.942979
 20
219.285398
 30
0.0
 10
179.942979
 20
216.185399
 30
0.0
 10
159.033979
 20
216.185399
 30
0.0
 10
159.033979
 20
219.285398
 30
0.0
 10
138.124978
 20
219.285398
 30
0.0
 10
138.124978
 20
216.185399
 30
0.0
 10
117.215980
 20
216.185399
 30
0.0
 10
117.215980
 20
219.285398
 30
0.0
 10
96.305981
 20
219.285398
 30
0.0
 10
96.305981
 20
216.185399
 30
0.0
 10
75.397378
 20
216.185399
 30
0.0
 10
75.397378
 20
219.285398
 30
0.0
 10
54.488279
 20
219.285398
 30
0.0
 10
54.488279
 20
216.185399
 30
0.0
 10
33.579179
 20
216.185399
 30
0.0
 10
33.579179
 20
219.285398
 30
0.0
 10
12.670080
 20
219.285398
 30
0.0
 10
12.670080
 20
216.185399
 30
0.0
 10
-8.239021
 20
216.185399
 30
0.0
 10
-8.239021
 20
162.185399
 30
0.0
 10
12.670080
 20
162.185399
 30
0.0
 10
12.670080
 20
159.085397
 30
0.0
 10
33.579179
 20
159.085397
 30
0.0
 10
33.579179
 20
162.185399
 30
0.0
  0
LWPOLYLINE
  5
124
100
AcDbEntity
  8
Layer_1
 62
7
100
AcDbPolyline
 90
41
 70
0
 10
11.258681
 20
181.201397
 30
0.0
 10
10.261979
 20
181.327398
 30
0.0
 10
9.288880
 20
181.577399
 30
0.0
 10
8.354778
 20
181.946399
 30
0.0
 10
7.474380
 20
182.430399
 30
0.0
 10
6.661580
 20
183.021397
 30
0.0
 10
5.929278
 20
183.709399
 30
0.0
 10
5.288879
 20
184.483399
 30
0.0
 10
4.750480
 20
185.331398
 30
0.0
 10
4.510980
 20
185.840400
 30
0.0
 10
4.510980
 20
192.530398
 30
0.0
 10
4.750480
 20
193.039397
 30
0.0
 10
5.288879
 20
193.887399
 30
0.0
 10
5.929278
 20
194.661399
 30
0.0
 10
6.661580
 20
195.349398
 30
0.0
 10
7.474380
 20
195.940399
 30
0.0
 10
8.354778
 20
196.424399
 30
0.0
 10
9.288880
 20
196.793399
 30
0.0
 10
10.261979
 20
197.043397
 30
0.0
 10
11.258681
 20
197.169398
 30
0.0
 10
12.263279
 20
197.169398
 30
0.0
 10
13.259978
 20
197.043397
 30
0.0
 10
14.233080
 20
196.793399
 30
0.0
 10
15.167179
 20
196.424399
 30
0.0
 10
16.047580
 20
195.940399
 30
0.0
 10
16.860380
 20
195.349398
 30
0.0
 10
17.592679
 20
194.661399
 30
0.0
 10
18.233081
 20
193.887399
 30
0.0
 10
18.771479
 20
193.039397
 30
0.0
 10
19.010978
 20
192.530398
 30
0.0
 10
19.010978
 20
185.840400
 30
0.0
 10
18.771479
 20
185.331398
 30
0.0
 10
18.233081
 20
184.483399
 30
0.0
 10
17.592679
 20
183.709399
 30
0.0
 10
16.860380
 20
183.021397
 30
0.0
 10
16.047580
 20
182.430399
 30
0.0
 10
15.167179
 20
181.946399
 30
0.0
 10
14.233080
 20
181.577399
 30
0.0
 10
13.259978
 20
181.327398
 30
0.0
 10
12.263279
 20
181.201397
 30
0.0
 10
11.258681
 20
181.201397
 30
0.0
  0
LWPOLYLINE
  5
125
100
AcDbEntity
  8
Layer_1
 62
7
100
AcDbPolyline
 90
53
 70
0
 10
228.634980
 20
32.362522
 30
0.0
 10
229.850979
 20
32.674829
 30
0.0
 10
231.018979
 20
33.137109
 30
0.0
 10
232.118979
 20
33.742109
 30
0.0
 10
233.134979
 20
34.480261
 30
0.0
 10
234.050979
 20
35.339939
 30
0.0
 10
234.850981
 20
36.307537
 30
0.0
 10
235.523979
 20
37.367846
 30
0.0
 10
236.058979
 20
38.504129
 30
0.0
 10
236.446978
 20
39.698494
 30
0.0
 10
236.681979
 20
40.932059
 30
0.0
 10
236.760979
 20
42.185408
 30
0.0
 10
236.760979
 20
142.185397
 30
0.0
 10
236.681979
 20
143.438399
 30
0.0
 10
236.446978
 20
144.672398
 30
0.0
 10
236.058979
 20
145.866399
 30
0.0
 10
235.523979
 20
147.003399
 30
0.0
 10
234.850981
 20
148.063397
 30
0.0
 10
234.050979
 20
149.030398
 30
0.0
 10
233.134979
 20
149.890399
 30
0.0
 10
232.118979
 20
150.628399
 30
0.0
 10
231.018979
 20
151.233399
 30
0.0
 10
229.850979
 20
151.696399
 30
0.0
 10
228.634980
 20
152.008398
 30
0.0
 10
227.388980
 20
152.165398
 30
0.0
 10
-13.866930
 20
152.165398
 30
0.0
 10
-15.112850
 20
152.008398
 30
0.0
 10
-16.329201
 20
151.696399
 30
0.0
 10
-17.496820
 20
151.233399
 30
0.0
 10
-18.597301
 20
150.628399
 30
0.0
 10
-19.613270
 20
149.890399
 30
0.0
 10
-20.528710
 20
149.030398
 30
0.0
 10
-21.329200
 20
148.063397
 30
0.0
 10
-22.002101
 20
147.003399
 30
0.0
 10
-22.536795
 20
145.866399
 30
0.0
 10
-22.924857
 20
144.672398
 30
0.0
 10
-23.160178
 20
143.438399
 30
0.0
 10
-23.239020
 20
142.185397
 30
0.0
 10
-23.239020
 20
42.185408
 30
0.0
 10
-23.160178
 20
40.932059
 30
0.0
 10
-22.924857
 20
39.698494
 30
0.0
 10
-22.536795
 20
38.504129
 30
0.0
 10
-22.002101
 20
37.367846
 30
0.0
 10
-21.329200
 20
36.307537
 30
0.0
 10
-20.528710
 20
35.339939
 30
0.0
 10
-19.613270
 20
34.480261
 30
0.0
 10
-18.597301
 20
33.742109
 30
0.0
 10
-17.496820
 20
33.137109
 30
0.0
 10
-16.329201
 20
32.674829
 30
0.0
 10
-15.112850
 20
32.362522
 30
0.0
 10
-13.866930
 20
32.205127
 30
0.0
 10
227.388980
 20
32.205127
 30
0.0
 10
228.634980
 20
32.362522
 30
0.0
  0
LWPOLYLINE
  5
126
100
AcDbEntity
  8
Layer_1
 62
7
100
AcDbPolyline
 90
51
 70
0
 10
-13.339501
 20
140.588397
 30
0.0
 10
-13.538840
 20
140.613402
 30
0.0
 10
-13.733450
 20
140.663398
 30
0.0
 10
-13.920281
 20
140.737399
 30
0.0
 10
-14.096351
 20
140.834399
 30
0.0
 10
-14.258900
 20
140.952399
 30
0.0
 10
-14.405370
 20
141.090397
 30
0.0
 10
-14.533450
 20
141.245399
 30
0.0
 10
-14.641120
 20
141.414397
 30
0.0
 10
-14.726680
 20
141.596399
 30
0.0
 10
-14.788761
 20
141.787399
 30
0.0
 10
-14.826410
 20
141.984398
 30
0.0
 10
-14.839031
 20
142.185397
 30
0.0
 10
-14.826410
 20
142.386398
 30
0.0
 10
-14.788761
 20
142.583398
 30
0.0
 10
-14.726680
 20
142.774398
 30
0.0
 10
-14.641120
 20
142.956400
 30
0.0
 10
-14.533450
 20
143.125397
 30
0.0
 10
-14.405370
 20
143.280399
 30
0.0
 10
-14.258900
 20
143.418398
 30
0.0
 10
-14.096351
 20
143.536398
 30
0.0
 10
-13.920281
 20
143.633397
 30
0.0
 10
-13.733450
 20
143.707399
 30
0.0
 10
-13.538840
 20
143.757397
 30
0.0
 10
-13.339501
 20
143.782402
 30
0.0
 10
-13.138521
 20
143.782399
 30
0.0
 10
-12.939221
 20
143.757395
 30
0.0
 10
-12.744620
 20
143.707399
 30
0.0
 10
-12.557820
 20
143.633397
 30
0.0
 10
-12.381721
 20
143.536398
 30
0.0
 10
-12.219120
 20
143.418398
 30
0.0
 10
-12.072720
 20
143.280399
 30
0.0
 10
-11.944620
 20
143.125397
 30
0.0
 10
-11.836920
 20
142.956400
 30
0.0
 10
-11.751421
 20
142.774398
 30
0.0
 10
-11.689320
 20
142.583398
 30
0.0
 10
-11.651620
 20
142.386398
 30
0.0
 10
-11.639019
 20
142.185397
 30
0.0
 10
-11.651622
 20
141.984398
 30
0.0
 10
-11.689320
 20
141.787399
 30
0.0
 10
-11.751421
 20
141.596399
 30
0.0
 10
-11.836920
 20
141.414397
 30
0.0
 10
-11.944620
 20
141.245399
 30
0.0
 10
-12.072720
 20
141.090397
 30
0.0
 10
-12.219120
 20
140.952399
 30
0.0
 10
-12.381721
 20
140.834399
 30
0.0
 10
-12.557820
 20
140.737399
 30
0.0
 10
-12.744620
 20
140.663398
 30
0.0
 10
-12.939221
 20
140.613399
 30
0.0
 10
-13.138521
 20
140.588395
 30
0.0
 10
-13.339501
 20
140.588397
 30
0.0
  0
LWPOLYLINE
  5
127
100
AcDbEntity
  8
Layer_1
 62
7
100
AcDbPolyline
 90
51
 70
0
 10
226.660979
 20
140.588397
 30
0.0
 10
226.460980
 20
140.613402
 30
0.0
 10
226.266980
 20
140.663398
 30
0.0
 10
226.079980
 20
140.737399
 30
0.0
 10
225.903980
 20
140.834399
 30
0.0
 10
225.740980
 20
140.952399
 30
0.0
 10
225.594981
 20
141.090397
 30
0.0
 10
225.466979
 20
141.245399
 30
0.0
 10
225.358978
 20
141.414397
 30
0.0
 10
225.272979
 20
141.596399
 30
0.0
 10
225.210981
 20
141.787399
 30
0.0
 10
225.173979
 20
141.984398
 30
0.0
 10
225.160968
 20
142.185397
 30
0.0
 10
225.173990
 20
142.386398
 30
0.0
 10
225.210981
 20
142.583398
 30
0.0
 10
225.272979
 20
142.774398
 30
0.0
 10
225.358978
 20
142.956400
 30
0.0
 10
225.466979
 20
143.125397
 30
0.0
 10
225.594981
 20
143.280399
 30
0.0
 10
225.740980
 20
143.418398
 30
0.0
 10
225.903980
 20
143.536398
 30
0.0
 10
226.079980
 20
143.633397
 30
0.0
 10
226.266980
 20
143.707399
 30
0.0
 10
226.460980
 20
143.757397
 30
0.0
 10
226.660979
 20
143.782402
 30
0.0
 10
226.860979
 20
143.782399
 30
0.0
 10
227.060978
 20
143.757395
 30
0.0
 10
227.254981
 20
143.707399
 30
0.0
 10
227.441978
 20
143.633397
 30
0.0
 10
227.617981
 20
143.536398
 30
0.0
 10
227.780981
 20
143.418398
 30
0.0
 10
227.926980
 20
143.280399
 30
0.0
 10
228.054979
 20
143.125397
 30
0.0
 10
228.162980
 20
142.956400
 30
0.0
 10
228.248979
 20
142.774398
 30
0.0
 10
228.310980
 20
142.583398
 30
0.0
 10
228.347980
 20
142.386398
 30
0.0
 10
228.360990
 20
142.185397
 30
0.0
 10
228.347968
 20
141.984398
 30
0.0
 10
228.310980
 20
141.787399
 30
0.0
 10
228.248979
 20
141.596399
 30
0.0
 10
228.162980
 20
141.414397
 30
0.0
 10
228.054979
 20
141.245399
 30
0.0
 10
227.926980
 20
141.090397
 30
0.0
 10
227.780981
 20
140.952399
 30
0.0
 10
227.617981
 20
140.834399
 30
0.0
 10
227.441978
 20
140.737399
 30
0.0
 10
227.254981
 20
140.663398
 30
0.0
 10
227.060978
 20
140.613399
 30
0.0
 10
226.860979
 20
140.588395
 30
0.0
 10
226.660979
 20
140.588397
 30
0.0
  0
LWPOLYLINE
  5
128
100
AcDbEntity
  8
Layer_1
 62
7
100
AcDbPolyline
 90
5
 70
0
 10
12.670080
 20
140.635399
 30
0.0
 10
12.670080
 20
143.735398
 30
0.0
 10
33.579179
 20
143.735398
 30
0.0
 10
33.579179
 20
140.635399
 30
0.0
 10
12.670080
 20
140.635399
 30
0.0
  0
LWPOLYLINE
  5
129
100
AcDbEntity
  8
Layer_1
 62
7
100
AcDbPolyline
 90
5
 70
0
 10
54.488279
 20
140.635399
 30
0.0
 10
54.488279
 20
143.735398
 30
0.0
 10
75.397378
 20
143.735398
 30
0.0
 10
75.397378
 20
140.635399
 30
0.0
 10
54.488279
 20
140.635399
 30
0.0
  0
LWPOLYLINE
  5
12a
100
AcDbEntity
  8
Layer_1
 62
7
100
AcDbPolyline
 90
5
 70
0
 10
96.305981
 20
140.635399
 30
0.0
 10
96.305981
 20
143.735398
 30
0.0
 10
117.215980
 20
143.735398
 30
0.0
 10
117.215980
 20
140.635399
 30
0.0
 10
96.305981
 20
140.635399
 30
0.0
  0
LWPOLYLINE
  5
12b
100
AcDbEntity
  8
Layer_1
 62
7
100
AcDbPolyline
 90
5
 70
0
 10
138.124978
 20
140.635399
 30
0.0
 10
138.124978
 20
143.735398
 30
0.0
 10
159.033979
 20
143.735398
 30
0.0
 10
159.033979
 20
140.635399
 30
0.0
 10
138.124978
 20
140.635399
 30
0.0
  0
LWPOLYLINE
  5
12c
100
AcDbEntity
  8
Layer_1
 62
7
100
AcDbPolyline
 90
5
 70
0
 10
179.942979
 20
140.635399
 30
0.0
 10
179.942979
 20
143.735398
 30
0.0
 10
200.851980
 20
143.735398
 30
0.0
 10
200.851980
 20
140.635399
 30
0.0
 10
179.942979
 20
140.635399
 30
0.0
  0
LWPOLYLINE
  5
12d
100
AcDbEntity
  8
Layer_1
 62
7
100
AcDbPolyline
 90
51
 70
0
 10
-3.339521
 20
130.588598
 30
0.0
 10
-3.538821
 20
130.613688
 30
0.0
 10
-3.733420
 20
130.663697
 30
0.0
 10
-3.920320
 20
130.737699
 30
0.0
 10
-4.096320
 20
130.834498
 30
0.0
 10
-4.258920
 20
130.952600
 30
0.0
 10
-4.405421
 20
131.090098
 30
0.0
 10
-4.533421
 20
131.244897
 30
0.0
 10
-4.641120
 20
131.414598
 30
0.0
 10
-4.726720
 20
131.596399
 30
0.0
 10
-4.788720
 20
131.787498
 30
0.0
 10
-4.826421
 20
131.984898
 30
0.0
 10
-4.839021
 20
132.185397
 30
0.0
 10
-4.826419
 20
132.386399
 30
0.0
 10
-4.788720
 20
132.583398
 30
0.0
 10
-4.726720
 20
132.774398
 30
0.0
 10
-4.641120
 20
132.956397
 30
0.0
 10
-4.533421
 20
133.125398
 30
0.0
 10
-4.405421
 20
133.280400
 30
0.0
 10
-4.258920
 20
133.418398
 30
0.0
 10
-4.096320
 20
133.536398
 30
0.0
 10
-3.920320
 20
133.633398
 30
0.0
 10
-3.733420
 20
133.707399
 30
0.0
 10
-3.538821
 20
133.757398
 30
0.0
 10
-3.339521
 20
133.782402
 30
0.0
 10
-3.138521
 20
133.782400
 30
0.0
 10
-2.939221
 20
133.757395
 30
0.0
 10
-2.744620
 20
133.707399
 30
0.0
 10
-2.557820
 20
133.633398
 30
0.0
 10
-2.381720
 20
133.536398
 30
0.0
 10
-2.219120
 20
133.418398
 30
0.0
 10
-2.072720
 20
133.280400
 30
0.0
 10
-1.944621
 20
133.125398
 30
0.0
 10
-1.836920
 20
132.956397
 30
0.0
 10
-1.751421
 20
132.774398
 30
0.0
 10
-1.689320
 20
132.583398
 30
0.0
 10
-1.651621
 20
132.386399
 30
0.0
 10
-1.639019
 20
132.185397
 30
0.0
 10
-1.651622
 20
131.984898
 30
0.0
 10
-1.689320
 20
131.787498
 30
0.0
 10
-1.751421
 20
131.596399
 30
0.0
 10
-1.836920
 20
131.414598
 30
0.0
 10
-1.944621
 20
131.244897
 30
0.0
 10
-2.072720
 20
131.090098
 30
0.0
 10
-2.219120
 20
130.952600
 30
0.0
 10
-2.381720
 20
130.834498
 30
0.0
 10
-2.557820
 20
130.737699
 30
0.0
 10
-2.744620
 20
130.663697
 30
0.0
 10
-2.939221
 20
130.613699
 30
0.0
 10
-3.138521
 20
130.588609
 30
0.0
 10
-3.339521
 20
130.588598
 30
0.0
  0
LWPOLYLINE
  5
12e
100
AcDbEntity
  8
Layer_1
 62
7
100
AcDbPolyline
 90
51
 70
0
 10
216.660979
 20
130.588598
 30
0.0
 10
216.460980
 20
130.613688
 30
0.0
 10
216.266980
 20
130.663697
 30
0.0
 10
216.079980
 20
130.737699
 30
0.0
 10
215.903980
 20
130.834498
 30
0.0
 10
215.740980
 20
130.952600
 30
0.0
 10
215.594978
 20
131.090098
 30
0.0
 10
215.466979
 20
131.244897
 30
0.0
 10
215.358978
 20
131.414598
 30
0.0
 10
215.272980
 20
131.596399
 30
0.0
 10
215.210978
 20
131.787498
 30
0.0
 10
215.173979
 20
131.984898
 30
0.0
 10
215.160968
 20
132.185397
 30
0.0
 10
215.173990
 20
132.386399
 30
0.0
 10
215.210978
 20
132.583398
 30
0.0
 10
215.272980
 20
132.774398
 30
0.0
 10
215.358978
 20
132.956397
 30
0.0
 10
215.466979
 20
133.125398
 30
0.0
 10
215.594978
 20
133.280400
 30
0.0
 10
215.740980
 20
133.418398
 30
0.0
 10
215.903980
 20
133.536398
 30
0.0
 10
216.079980
 20
133.633398
 30
0.0
 10
216.266980
 20
133.707399
 30
0.0
 10
216.460980
 20
133.757398
 30
0.0
 10
216.660979
 20
133.782402
 30
0.0
 10
216.860979
 20
133.782400
 30
0.0
 10
217.060979
 20
133.757395
 30
0.0
 10
217.254978
 20
133.707399
 30
0.0
 10
217.441979
 20
133.633398
 30
0.0
 10
217.617978
 20
133.536398
 30
0.0
 10
217.780978
 20
133.418398
 30
0.0
 10
217.926980
 20
133.280400
 30
0.0
 10
218.054979
 20
133.125398
 30
0.0
 10
218.162980
 20
132.956397
 30
0.0
 10
218.248979
 20
132.774398
 30
0.0
 10
218.310980
 20
132.583398
 30
0.0
 10
218.347980
 20
132.386399
 30
0.0
 10
218.360990
 20
132.185397
 30
0.0
 10
218.347968
 20
131.984898
 30
0.0
 10
218.310980
 20
131.787498
 30
0.0
 10
218.248979
 20
131.596399
 30
0.0
 10
218.162980
 20
131.414598
 30
0.0
 10
218.054979
 20
131.244897
 30
0.0
 10
217.926980
 20
131.090098
 30
0.0
 10
217.780978
 20
130.952600
 30
0.0
 10
217.617978
 20
130.834498
 30
0.0
 10
217.441979
 20
130.737699
 30
0.0
 10
217.254978
 20
130.663697
 30
0.0
 10
217.060979
 20
130.613699
 30
0.0
 10
216.860979
 20
130.588609
 30
0.0
 10
216.660979
 20
130.588598
 30
0.0
  0
LWPOLYLINE
  5
12f
100
AcDbEntity
  8
Layer_1
 62
7
100
AcDbPolyline
 90
2
 70
0
 10
131.430980
 20
45.285393
 30
0.0
 10
131.054978
 20
45.309100
 30
0.0
  0
LWPOLYLINE
  5
130
100
AcDbEntity
  8
Layer_1
 62
7
100
AcDbPolyline
 90
51
 70
0
 10
131.054978
 20
45.308987
 30
0.0
 10
130.684980
 20
45.379599
 30
0.0
 10
130.326981
 20
45.496100
 30
0.0
 10
129.985980
 20
45.656487
 30
0.0
 10
129.667980
 20
45.858304
 30
0.0
 10
129.376978
 20
46.098504
 30
0.0
 10
129.118979
 20
46.373106
 30
0.0
 10
128.897979
 20
46.677906
 30
0.0
 10
128.716979
 20
47.007999
 30
0.0
 10
128.577979
 20
47.358299
 30
0.0
 10
128.483979
 20
47.723198
 30
0.0
 10
128.436981
 20
48.096998
 30
0.0
 10
128.436981
 20
127.473799
 30
0.0
 10
128.483979
 20
127.847498
 30
0.0
 10
128.577979
 20
128.212400
 30
0.0
 10
128.716979
 20
128.562697
 30
0.0
 10
128.897979
 20
128.892897
 30
0.0
 10
129.118979
 20
129.197697
 30
0.0
 10
129.376978
 20
129.472299
 30
0.0
 10
129.667980
 20
129.712400
 30
0.0
 10
129.985980
 20
129.914299
 30
0.0
 10
130.326981
 20
130.074700
 30
0.0
 10
130.684980
 20
130.191099
 30
0.0
 10
131.054978
 20
130.261697
 30
0.0
 10
131.430980
 20
130.285404
 30
0.0
 10
181.430979
 20
130.285398
 30
0.0
 10
181.806978
 20
130.261692
 30
0.0
 10
182.176980
 20
130.191099
 30
0.0
 10
182.534979
 20
130.074700
 30
0.0
 10
182.875979
 20
129.914299
 30
0.0
 10
183.193979
 20
129.712400
 30
0.0
 10
183.484978
 20
129.472299
 30
0.0
 10
183.742980
 20
129.197697
 30
0.0
 10
183.963980
 20
128.892897
 30
0.0
 10
184.144980
 20
128.562697
 30
0.0
 10
184.283980
 20
128.212400
 30
0.0
 10
184.377980
 20
127.847498
 30
0.0
 10
184.424979
 20
127.473799
 30
0.0
 10
184.424979
 20
48.096998
 30
0.0
 10
184.377980
 20
47.723198
 30
0.0
 10
184.283980
 20
47.358299
 30
0.0
 10
184.144980
 20
47.007999
 30
0.0
 10
183.963980
 20
46.677906
 30
0.0
 10
183.742980
 20
46.373106
 30
0.0
 10
183.484978
 20
46.098504
 30
0.0
 10
183.193979
 20
45.858304
 30
0.0
 10
182.875979
 20
45.656487
 30
0.0
 10
182.534979
 20
45.496100
 30
0.0
 10
182.176980
 20
45.379599
 30
0.0
 10
181.806978
 20
45.308987
 30
0.0
 10
181.430979
 20
45.285280
 30
0.0
  0
LWPOLYLINE
  5
131
100
AcDbEntity
  8
Layer_1
 62
7
100
AcDbPolyline
 90
2
 70
0
 10
181.430979
 20
45.285393
 30
0.0
 10
131.430980
 20
45.285393
 30
0.0
  0
LWPOLYLINE
  5
132
100
AcDbEntity
  8
Layer_1
 62
7
100
AcDbPolyline
 90
5
 70
0
 10
182.430980
 20
127.285399
 30
0.0
 10
172.030978
 20
127.285399
 30
0.0
 10
172.030978
 20
124.185399
 30
0.0
 10
182.430980
 20
124.185399
 30
0.0
 10
182.430980
 20
127.285399
 30
0.0
  0
LWPOLYLINE
  5
133
100
AcDbEntity
  8
Layer_1
 62
7
100
AcDbPolyline
 90
5
 70
0
 10
161.630979
 20
127.285399
 30
0.0
 10
151.230980
 20
127.285399
 30
0.0
 10
151.230980
 20
124.185399
 30
0.0
 10
161.630979
 20
124.185399
 30
0.0
 10
161.630979
 20
127.285399
 30
0.0
  0
LWPOLYLINE
  5
134
100
AcDbEntity
  8
Layer_1
 62
7
100
AcDbPolyline
 90
5
 70
0
 10
140.830978
 20
127.285399
 30
0.0
 10
130.430980
 20
127.285399
 30
0.0
 10
130.430980
 20
124.185399
 30
0.0
 10
140.830978
 20
124.185399
 30
0.0
 10
140.830978
 20
127.285399
 30
0.0
  0
LWPOLYLINE
  5
135
100
AcDbEntity
  8
Layer_1
 62
7
100
AcDbPolyline
 90
51
 70
0
 10
181.102980
 20
105.421197
 30
0.0
 10
181.272980
 20
105.453599
 30
0.0
 10
181.436979
 20
105.506900
 30
0.0
 10
181.592980
 20
105.580497
 30
0.0
 10
181.738980
 20
105.672999
 30
0.0
 10
181.871980
 20
105.783099
 30
0.0
 10
181.989979
 20
105.908900
 30
0.0
 10
182.091980
 20
106.048600
 30
0.0
 10
182.174979
 20
106.199899
 30
0.0
 10
182.238979
 20
106.360498
 30
0.0
 10
182.281981
 20
106.527697
 30
0.0
 10
182.302978
 20
106.698998
 30
0.0
 10
182.302978
 20
106.871698
 30
0.0
 10
182.281981
 20
107.042998
 30
0.0
 10
182.238979
 20
107.210300
 30
0.0
 10
182.174979
 20
107.370799
 30
0.0
 10
182.091980
 20
107.522099
 30
0.0
 10
181.989979
 20
107.661799
 30
0.0
 10
181.871980
 20
107.787698
 30
0.0
 10
181.738980
 20
107.897799
 30
0.0
 10
181.592980
 20
107.990300
 30
0.0
 10
181.436979
 20
108.063799
 30
0.0
 10
181.272980
 20
108.117198
 30
0.0
 10
181.102980
 20
108.149499
 30
0.0
 10
180.930980
 20
108.160392
 30
0.0
 10
180.758980
 20
108.149504
 30
0.0
 10
180.588980
 20
108.117198
 30
0.0
 10
180.424978
 20
108.063799
 30
0.0
 10
180.268980
 20
107.990300
 30
0.0
 10
180.122981
 20
107.897799
 30
0.0
 10
179.989981
 20
107.787698
 30
0.0
 10
179.871981
 20
107.661799
 30
0.0
 10
179.769980
 20
107.522099
 30
0.0
 10
179.686978
 20
107.370799
 30
0.0
 10
179.622979
 20
107.210300
 30
0.0
 10
179.579980
 20
107.042998
 30
0.0
 10
179.558982
 20
106.871698
 30
0.0
 10
179.558979
 20
106.698998
 30
0.0
 10
179.579977
 20
106.527697
 30
0.0
 10
179.622979
 20
106.360498
 30
0.0
 10
179.686978
 20
106.199899
 30
0.0
 10
179.769980
 20
106.048600
 30
0.0
 10
179.871981
 20
105.908900
 30
0.0
 10
179.989981
 20
105.783099
 30
0.0
 10
180.122981
 20
105.672999
 30
0.0
 10
180.268980
 20
105.580497
 30
0.0
 10
180.424978
 20
105.506900
 30
0.0
 10
180.588980
 20
105.453599
 30
0.0
 10
180.758980
 20
105.421197
 30
0.0
 10
180.930980
 20
105.410388
 30
0.0
 10
181.102980
 20
105.421208
 30
0.0
  0
LWPOLYLINE
  5
136
100
AcDbEntity
  8
Layer_1
 62
7
100
AcDbPolyline
 90
51
 70
0
 10
132.102980
 20
105.421197
 30
0.0
 10
132.272979
 20
105.453599
 30
0.0
 10
132.436978
 20
105.506900
 30
0.0
 10
132.592980
 20
105.580497
 30
0.0
 10
132.738979
 20
105.672999
 30
0.0
 10
132.871979
 20
105.783099
 30
0.0
 10
132.989979
 20
105.908900
 30
0.0
 10
133.091979
 20
106.048600
 30
0.0
 10
133.174981
 20
106.199899
 30
0.0
 10
133.238981
 20
106.360498
 30
0.0
 10
133.281980
 20
106.527697
 30
0.0
 10
133.302977
 20
106.698998
 30
0.0
 10
133.302980
 20
106.871698
 30
0.0
 10
133.281983
 20
107.042998
 30
0.0
 10
133.238981
 20
107.210300
 30
0.0
 10
133.174981
 20
107.370799
 30
0.0
 10
133.091979
 20
107.522099
 30
0.0
 10
132.989979
 20
107.661799
 30
0.0
 10
132.871979
 20
107.787698
 30
0.0
 10
132.738979
 20
107.897799
 30
0.0
 10
132.592980
 20
107.990300
 30
0.0
 10
132.436978
 20
108.063799
 30
0.0
 10
132.272979
 20
108.117198
 30
0.0
 10
132.102980
 20
108.149499
 30
0.0
 10
131.930979
 20
108.160392
 30
0.0
 10
131.758979
 20
108.149504
 30
0.0
 10
131.588980
 20
108.117198
 30
0.0
 10
131.424980
 20
108.063799
 30
0.0
 10
131.268979
 20
107.990300
 30
0.0
 10
131.122980
 20
107.897799
 30
0.0
 10
130.989980
 20
107.787698
 30
0.0
 10
130.871980
 20
107.661799
 30
0.0
 10
130.769979
 20
107.522099
 30
0.0
 10
130.686980
 20
107.370799
 30
0.0
 10
130.622978
 20
107.210300
 30
0.0
 10
130.579979
 20
107.042998
 30
0.0
 10
130.558981
 20
106.871698
 30
0.0
 10
130.558979
 20
106.698998
 30
0.0
 10
130.579976
 20
106.527697
 30
0.0
 10
130.622978
 20
106.360498
 30
0.0
 10
130.686980
 20
106.199899
 30
0.0
 10
130.769979
 20
106.048600
 30
0.0
 10
130.871980
 20
105.908900
 30
0.0
 10
130.989980
 20
105.783099
 30
0.0
 10
131.122980
 20
105.672999
 30
0.0
 10
131.268979
 20
105.580497
 30
0.0
 10
131.424980
 20
105.506900
 30
0.0
 10
131.588980
 20
105.453599
 30
0.0
 10
131.758979
 20
105.421197
 30
0.0
 10
131.930979
 20
105.410388
 30
0.0
 10
132.102980
 20
105.421208
 30
0.0
  0
LWPOLYLINE
  5
137
100
AcDbEntity
  8
Layer_1
 62
7
100
AcDbPolyline
 90
51
 70
0
 10
132.102980
 20
47.421197
 30
0.0
 10
132.272979
 20
47.453599
 30
0.0
 10
132.436978
 20
47.506897
 30
0.0
 10
132.592980
 20
47.580498
 30
0.0
 10
132.738979
 20
47.672999
 30
0.0
 10
132.871979
 20
47.783099
 30
0.0
 10
132.989979
 20
47.908897
 30
0.0
 10
133.091979
 20
48.048597
 30
0.0
 10
133.174981
 20
48.199899
 30
0.0
 10
133.238981
 20
48.360498
 30
0.0
 10
133.281980
 20
48.527698
 30
0.0
 10
133.302977
 20
48.698998
 30
0.0
 10
133.302980
 20
48.871698
 30
0.0
 10
133.281983
 20
49.042999
 30
0.0
 10
133.238981
 20
49.210297
 30
0.0
 10
133.174981
 20
49.370797
 30
0.0
 10
133.091979
 20
49.522099
 30
0.0
 10
132.989979
 20
49.661799
 30
0.0
 10
132.871979
 20
49.787698
 30
0.0
 10
132.738979
 20
49.897799
 30
0.0
 10
132.592980
 20
49.990297
 30
0.0
 10
132.436978
 20
50.063799
 30
0.0
 10
132.272979
 20
50.117199
 30
0.0
 10
132.102980
 20
50.149499
 30
0.0
 10
131.930979
 20
50.160393
 30
0.0
 10
131.758979
 20
50.149505
 30
0.0
 10
131.588980
 20
50.117199
 30
0.0
 10
131.424980
 20
50.063799
 30
0.0
 10
131.268979
 20
49.990297
 30
0.0
 10
131.122980
 20
49.897799
 30
0.0
 10
130.989980
 20
49.787698
 30
0.0
 10
130.871980
 20
49.661799
 30
0.0
 10
130.769979
 20
49.522099
 30
0.0
 10
130.686980
 20
49.370797
 30
0.0
 10
130.622978
 20
49.210297
 30
0.0
 10
130.579979
 20
49.042999
 30
0.0
 10
130.558981
 20
48.871698
 30
0.0
 10
130.558979
 20
48.698998
 30
0.0
 10
130.579976
 20
48.527698
 30
0.0
 10
130.622978
 20
48.360498
 30
0.0
 10
130.686980
 20
48.199899
 30
0.0
 10
130.769979
 20
48.048597
 30
0.0
 10
130.871980
 20
47.908897
 30
0.0
 10
130.989980
 20
47.783099
 30
0.0
 10
131.122980
 20
47.672999
 30
0.0
 10
131.268979
 20
47.580498
 30
0.0
 10
131.424980
 20
47.506897
 30
0.0
 10
131.588980
 20
47.453599
 30
0.0
 10
131.758979
 20
47.421197
 30
0.0
 10
131.930979
 20
47.410388
 30
0.0
 10
132.102980
 20
47.421209
 30
0.0
  0
LWPOLYLINE
  5
138
100
AcDbEntity
  8
Layer_1
 62
7
100
AcDbPolyline
 90
51
 70
0
 10
181.102980
 20
47.421197
 30
0.0
 10
181.272980
 20
47.453599
 30
0.0
 10
181.436979
 20
47.506897
 30
0.0
 10
181.592980
 20
47.580498
 30
0.0
 10
181.738980
 20
47.672999
 30
0.0
 10
181.871980
 20
47.783099
 30
0.0
 10
181.989979
 20
47.908897
 30
0.0
 10
182.091980
 20
48.048597
 30
0.0
 10
182.174979
 20
48.199899
 30
0.0
 10
182.238979
 20
48.360498
 30
0.0
 10
182.281981
 20
48.527698
 30
0.0
 10
182.302978
 20
48.698998
 30
0.0
 10
182.302978
 20
48.871698
 30
0.0
 10
182.281981
 20
49.042999
 30
0.0
 10
182.238979
 20
49.210297
 30
0.0
 10
182.174979
 20
49.370797
 30
0.0
 10
182.091980
 20
49.522099
 30
0.0
 10
181.989979
 20
49.661799
 30
0.0
 10
181.871980
 20
49.787698
 30
0.0
 10
181.738980
 20
49.897799
 30
0.0
 10
181.592980
 20
49.990297
 30
0.0
 10
181.436979
 20
50.063799
 30
0.0
 10
181.272980
 20
50.117199
 30
0.0
 10
181.102980
 20
50.149499
 30
0.0
 10
180.930980
 20
50.160393
 30
0.0
 10
180.758980
 20
50.149505
 30
0.0
 10
180.588980
 20
50.117199
 30
0.0
 10
180.424978
 20
50.063799
 30
0.0
 10
180.268980
 20
49.990297
 30
0.0
 10
180.122981
 20
49.897799
 30
0.0
 10
179.989981
 20
49.787698
 30
0.0
 10
179.871981
 20
49.661799
 30
0.0
 10
179.769980
 20
49.522099
 30
0.0
 10
179.686978
 20
49.370797
 30
0.0
 10
179.622979
 20
49.210297
 30
0.0
 10
179.579980
 20
49.042999
 30
0.0
 10
179.558982
 20
48.871698
 30
0.0
 10
179.558979
 20
48.698998
 30
0.0
 10
179.579977
 20
48.527698
 30
0.0
 10
179.622979
 20
48.360498
 30
0.0
 10
179.686978
 20
48.199899
 30
0.0
 10
179.769980
 20
48.048597
 30
0.0
 10
179.871981
 20
47.908897
 30
0.0
 10
179.989981
 20
47.783099
 30
0.0
 10
180.122981
 20
47.672999
 30
0.0
 10
180.268980
 20
47.580498
 30
0.0
 10
180.424978
 20
47.506897
 30
0.0
 10
180.588980
 20
47.453599
 30
0.0
 10
180.758980
 20
47.421197
 30
0.0
 10
180.930980
 20
47.410388
 30
0.0
 10
181.102980
 20
47.421209
 30
0.0
  0
LWPOLYLINE
  5
139
100
AcDbEntity
  8
Layer_1
 62
7
100
AcDbPolyline
 90
5
 70
0
 10
-14.789020
 20
111.471099
 30
0.0
 10
-14.789020
 20
124.328300
 30
0.0
 10
-11.689020
 20
124.328300
 30
0.0
 10
-11.689020
 20
111.471099
 30
0.0
 10
-14.789020
 20
111.471099
 30
0.0
  0
LWPOLYLINE
  5
13a
100
AcDbEntity
  8
Layer_1
 62
7
100
AcDbPolyline
 90
5
 70
0
 10
225.210981
 20
111.471099
 30
0.0
 10
225.210981
 20
124.328300
 30
0.0
 10
228.310980
 20
124.328300
 30
0.0
 10
228.310980
 20
111.471099
 30
0.0
 10
225.210981
 20
111.471099
 30
0.0
  0
LWPOLYLINE
  5
13b
100
AcDbEntity
  8
Layer_1
 62
7
100
AcDbPolyline
 90
14
 70
0
 10
4.090980
 20
45.285393
 30
0.0
 10
4.090980
 20
56.285399
 30
0.0
 10
8.170981
 20
56.285399
 30
0.0
 10
6.630979
 20
57.825399
 30
0.0
 10
4.090980
 20
57.825399
 30
0.0
 10
4.090980
 20
123.865399
 30
0.0
 10
57.430979
 20
123.865399
 30
0.0
 10
57.430979
 20
59.095399
 30
0.0
 10
56.160979
 20
57.825399
 30
0.0
 10
44.730979
 20
57.825399
 30
0.0
 10
43.190980
 20
56.285399
 30
0.0
 10
52.430980
 20
56.285399
 30
0.0
 10
52.430980
 20
45.285393
 30
0.0
 10
4.090980
 20
45.285393
 30
0.0
  0
LWPOLYLINE
  5
13c
100
AcDbEntity
  8
Layer_1
 62
7
100
AcDbPolyline
 90
33
 70
0
 10
6.943080
 20
108.326099
 30
0.0
 10
7.243280
 20
108.417198
 30
0.0
 10
7.519880
 20
108.564997
 30
0.0
 10
7.762281
 20
108.763998
 30
0.0
 10
7.961278
 20
109.006497
 30
0.0
 10
8.109180
 20
109.283098
 30
0.0
 10
8.200179
 20
109.583199
 30
0.0
 10
8.230978
 20
109.895399
 30
0.0
 10
8.200179
 20
110.207500
 30
0.0
 10
8.109180
 20
110.507699
 30
0.0
 10
7.961278
 20
110.784300
 30
0.0
 10
7.762281
 20
111.026799
 30
0.0
 10
7.519880
 20
111.225698
 30
0.0
 10
7.243280
 20
111.373600
 30
0.0
 10
6.943080
 20
111.464599
 30
0.0
 10
6.630979
 20
111.495398
 30
0.0
 10
6.318779
 20
111.464599
 30
0.0
 10
6.018681
 20
111.373600
 30
0.0
 10
5.742080
 20
111.225698
 30
0.0
 10
5.499578
 20
111.026799
 30
0.0
 10
5.300580
 20
110.784300
 30
0.0
 10
5.152781
 20
110.507699
 30
0.0
 10
5.061679
 20
110.207500
 30
0.0
 10
5.030979
 20
109.895399
 30
0.0
 10
5.061679
 20
109.583199
 30
0.0
 10
5.152781
 20
109.283098
 30
0.0
 10
5.300580
 20
109.006497
 30
0.0
 10
5.499578
 20
108.763998
 30
0.0
 10
5.742080
 20
108.564997
 30
0.0
 10
6.018681
 20
108.417198
 30
0.0
 10
6.318779
 20
108.326099
 30
0.0
 10
6.630979
 20
108.295399
 30
0.0
 10
6.943080
 20
108.326099
 30
0.0
  0
LWPOLYLINE
  5
13d
100
AcDbEntity
  8
Layer_1
 62
7
100
AcDbPolyline
 90
33
 70
0
 10
55.203080
 20
107.056099
 30
0.0
 10
55.503280
 20
107.147198
 30
0.0
 10
55.779880
 20
107.294997
 30
0.0
 10
56.022379
 20
107.493998
 30
0.0
 10
56.221278
 20
107.736497
 30
0.0
 10
56.369180
 20
108.013098
 30
0.0
 10
56.460179
 20
108.313199
 30
0.0
 10
56.490978
 20
108.625399
 30
0.0
 10
56.460179
 20
108.937500
 30
0.0
 10
56.369180
 20
109.237699
 30
0.0
 10
56.221278
 20
109.514300
 30
0.0
 10
56.022379
 20
109.756799
 30
0.0
 10
55.779880
 20
109.955698
 30
0.0
 10
55.503280
 20
110.103600
 30
0.0
 10
55.203080
 20
110.194599
 30
0.0
 10
54.890979
 20
110.225398
 30
0.0
 10
54.578779
 20
110.194599
 30
0.0
 10
54.278681
 20
110.103600
 30
0.0
 10
54.002080
 20
109.955698
 30
0.0
 10
53.759578
 20
109.756799
 30
0.0
 10
53.560580
 20
109.514300
 30
0.0
 10
53.412781
 20
109.237699
 30
0.0
 10
53.321679
 20
108.937500
 30
0.0
 10
53.290979
 20
108.625399
 30
0.0
 10
53.321679
 20
108.313199
 30
0.0
 10
53.412781
 20
108.013098
 30
0.0
 10
53.560580
 20
107.736497
 30
0.0
 10
53.759578
 20
107.493998
 30
0.0
 10
54.002080
 20
107.294997
 30
0.0
 10
54.278681
 20
107.147198
 30
0.0
 10
54.578779
 20
107.056099
 30
0.0
 10
54.890979
 20
107.025399
 30
0.0
 10
55.203080
 20
107.056099
 30
0.0
  0
LWPOLYLINE
  5
13e
100
AcDbEntity
  8
Layer_1
 62
7
100
AcDbPolyline
 90
32
 70
0
 10
12.323280
 20
56.347198
 30
0.0
 10
12.599880
 20
56.494997
 30
0.0
 10
12.842281
 20
56.693998
 30
0.0
 10
13.041278
 20
56.936497
 30
0.0
 10
13.189180
 20
57.213098
 30
0.0
 10
13.280179
 20
57.513199
 30
0.0
 10
13.310978
 20
57.825399
 30
0.0
 10
13.280179
 20
58.137500
 30
0.0
 10
13.189180
 20
58.437699
 30
0.0
 10
13.041278
 20
58.714300
 30
0.0
 10
12.842281
 20
58.956799
 30
0.0
 10
12.599880
 20
59.155698
 30
0.0
 10
12.323280
 20
59.303600
 30
0.0
 10
12.023080
 20
59.394599
 30
0.0
 10
11.710979
 20
59.425398
 30
0.0
 10
11.398779
 20
59.394599
 30
0.0
 10
11.098681
 20
59.303600
 30
0.0
 10
10.822080
 20
59.155698
 30
0.0
 10
10.579578
 20
58.956799
 30
0.0
 10
10.380580
 20
58.714300
 30
0.0
 10
10.232781
 20
58.437699
 30
0.0
 10
10.141679
 20
58.137500
 30
0.0
 10
10.110979
 20
57.825399
 30
0.0
 10
10.141679
 20
57.513199
 30
0.0
 10
10.232781
 20
57.213098
 30
0.0
 10
10.380580
 20
56.936497
 30
0.0
 10
10.579578
 20
56.693998
 30
0.0
 10
10.822080
 20
56.494997
 30
0.0
 10
11.098681
 20
56.347198
 30
0.0
 10
11.302380
 20
56.285399
 30
0.0
 10
12.119580
 20
56.285399
 30
0.0
 10
12.323280
 20
56.347198
 30
0.0
  0
LWPOLYLINE
  5
13f
100
AcDbEntity
  8
Layer_1
 62
7
100
AcDbPolyline
 90
32
 70
0
 10
40.263280
 20
56.347198
 30
0.0
 10
40.539880
 20
56.494997
 30
0.0
 10
40.782281
 20
56.693998
 30
0.0
 10
40.981278
 20
56.936497
 30
0.0
 10
41.129180
 20
57.213098
 30
0.0
 10
41.220179
 20
57.513199
 30
0.0
 10
41.250978
 20
57.825399
 30
0.0
 10
41.220179
 20
58.137500
 30
0.0
 10
41.129180
 20
58.437699
 30
0.0
 10
40.981278
 20
58.714300
 30
0.0
 10
40.782281
 20
58.956799
 30
0.0
 10
40.539880
 20
59.155698
 30
0.0
 10
40.263280
 20
59.303600
 30
0.0
 10
39.963080
 20
59.394599
 30
0.0
 10
39.650979
 20
59.425398
 30
0.0
 10
39.338779
 20
59.394599
 30
0.0
 10
39.038681
 20
59.303600
 30
0.0
 10
38.762080
 20
59.155698
 30
0.0
 10
38.519578
 20
58.956799
 30
0.0
 10
38.320580
 20
58.714300
 30
0.0
 10
38.172781
 20
58.437699
 30
0.0
 10
38.081679
 20
58.137500
 30
0.0
 10
38.050979
 20
57.825399
 30
0.0
 10
38.081679
 20
57.513199
 30
0.0
 10
38.172781
 20
57.213098
 30
0.0
 10
38.320580
 20
56.936497
 30
0.0
 10
38.519578
 20
56.693998
 30
0.0
 10
38.762080
 20
56.494997
 30
0.0
 10
39.038681
 20
56.347198
 30
0.0
 10
39.242380
 20
56.285399
 30
0.0
 10
40.059580
 20
56.285399
 30
0.0
 10
40.263280
 20
56.347198
 30
0.0
  0
LWPOLYLINE
  5
140
100
AcDbEntity
  8
Layer_1
 62
7
100
AcDbPolyline
 90
5
 70
0
 10
67.430979
 20
45.285393
 30
0.0
 10
67.430979
 20
121.285399
 30
0.0
 10
118.430981
 20
121.285399
 30
0.0
 10
118.430981
 20
45.285393
 30
0.0
 10
67.430979
 20
45.285393
 30
0.0
  0
LWPOLYLINE
  5
141
100
AcDbEntity
  8
Layer_1
 62
7
100
AcDbPolyline
 90
51
 70
0
 10
116.631981
 20
73.698000
 30
0.0
 10
116.828980
 20
73.735597
 30
0.0
 10
117.019980
 20
73.797698
 30
0.0
 10
117.201979
 20
73.883298
 30
0.0
 10
117.370980
 20
73.990997
 30
0.0
 10
117.525979
 20
74.118999
 30
0.0
 10
117.663980
 20
74.265498
 30
0.0
 10
117.781980
 20
74.428097
 30
0.0
 10
117.878980
 20
74.604100
 30
0.0
 10
117.952978
 20
74.790998
 30
0.0
 10
118.002980
 20
74.985599
 30
0.0
 10
118.027985
 20
75.184899
 30
0.0
 10
118.027979
 20
75.385897
 30
0.0
 10
118.002974
 20
75.585197
 30
0.0
 10
117.952978
 20
75.779798
 30
0.0
 10
117.878980
 20
75.966598
 30
0.0
 10
117.781980
 20
76.142699
 30
0.0
 10
117.663980
 20
76.305298
 30
0.0
 10
117.525979
 20
76.451698
 30
0.0
 10
117.370980
 20
76.579799
 30
0.0
 10
117.201979
 20
76.687498
 30
0.0
 10
117.019980
 20
76.772997
 30
0.0
 10
116.828980
 20
76.835097
 30
0.0
 10
116.631981
 20
76.872799
 30
0.0
 10
116.430979
 20
76.885386
 30
0.0
 10
116.229981
 20
76.872811
 30
0.0
 10
116.032981
 20
76.835097
 30
0.0
 10
115.841979
 20
76.772997
 30
0.0
 10
115.659979
 20
76.687498
 30
0.0
 10
115.490979
 20
76.579799
 30
0.0
 10
115.335980
 20
76.451698
 30
0.0
 10
115.197979
 20
76.305298
 30
0.0
 10
115.079979
 20
76.142699
 30
0.0
 10
114.982979
 20
75.966598
 30
0.0
 10
114.908980
 20
75.779798
 30
0.0
 10
114.858979
 20
75.585197
 30
0.0
 10
114.833974
 20
75.385897
 30
0.0
 10
114.833980
 20
75.184899
 30
0.0
 10
114.858985
 20
74.985599
 30
0.0
 10
114.908980
 20
74.790998
 30
0.0
 10
114.982979
 20
74.604100
 30
0.0
 10
115.079979
 20
74.428097
 30
0.0
 10
115.197979
 20
74.265498
 30
0.0
 10
115.335980
 20
74.118999
 30
0.0
 10
115.490979
 20
73.990997
 30
0.0
 10
115.659979
 20
73.883298
 30
0.0
 10
115.841979
 20
73.797698
 30
0.0
 10
116.032981
 20
73.735597
 30
0.0
 10
116.229981
 20
73.698000
 30
0.0
 10
116.430979
 20
73.685384
 30
0.0
 10
116.631981
 20
73.698014
 30
0.0
  0
LWPOLYLINE
  5
142
100
AcDbEntity
  8
Layer_1
 62
7
100
AcDbPolyline
 90
51
 70
0
 10
71.931480
 20
73.197998
 30
0.0
 10
72.128881
 20
73.235598
 30
0.0
 10
72.319979
 20
73.297699
 30
0.0
 10
72.501778
 20
73.383299
 30
0.0
 10
72.671380
 20
73.490998
 30
0.0
 10
72.826280
 20
73.618997
 30
0.0
 10
72.963779
 20
73.765499
 30
0.0
 10
73.081880
 20
73.928098
 30
0.0
 10
73.178680
 20
74.104098
 30
0.0
 10
73.252678
 20
74.290999
 30
0.0
 10
73.302680
 20
74.485597
 30
0.0
 10
73.327769
 20
74.684900
 30
0.0
 10
73.327780
 20
74.885898
 30
0.0
 10
73.302691
 20
75.085198
 30
0.0
 10
73.252678
 20
75.279799
 30
0.0
 10
73.178680
 20
75.466599
 30
0.0
 10
73.081880
 20
75.642697
 30
0.0
 10
72.963779
 20
75.805299
 30
0.0
 10
72.826280
 20
75.951699
 30
0.0
 10
72.671380
 20
76.079797
 30
0.0
 10
72.501778
 20
76.187499
 30
0.0
 10
72.319979
 20
76.272998
 30
0.0
 10
72.128881
 20
76.335098
 30
0.0
 10
71.931480
 20
76.372798
 30
0.0
 10
71.730978
 20
76.385413
 30
0.0
 10
71.530479
 20
76.372783
 30
0.0
 10
71.333079
 20
76.335098
 30
0.0
 10
71.141981
 20
76.272998
 30
0.0
 10
70.960179
 20
76.187499
 30
0.0
 10
70.790478
 20
76.079797
 30
0.0
 10
70.635680
 20
75.951699
 30
0.0
 10
70.498178
 20
75.805299
 30
0.0
 10
70.380079
 20
75.642697
 30
0.0
 10
70.283280
 20
75.466599
 30
0.0
 10
70.209278
 20
75.279799
 30
0.0
 10
70.159280
 20
75.085198
 30
0.0
 10
70.134190
 20
74.885898
 30
0.0
 10
70.134179
 20
74.684900
 30
0.0
 10
70.159269
 20
74.485597
 30
0.0
 10
70.209278
 20
74.290999
 30
0.0
 10
70.283280
 20
74.104098
 30
0.0
 10
70.380079
 20
73.928098
 30
0.0
 10
70.498178
 20
73.765499
 30
0.0
 10
70.635680
 20
73.618997
 30
0.0
 10
70.790478
 20
73.490998
 30
0.0
 10
70.960179
 20
73.383299
 30
0.0
 10
71.141981
 20
73.297699
 30
0.0
 10
71.333079
 20
73.235598
 30
0.0
 10
71.530479
 20
73.197998
 30
0.0
 10
71.730978
 20
73.185411
 30
0.0
 10
71.931480
 20
73.197987
 30
0.0
  0
LWPOLYLINE
  5
143
100
AcDbEntity
  8
Layer_1
 62
7
100
AcDbPolyline
 90
51
 70
0
 10
115.131981
 20
47.697998
 30
0.0
 10
115.328981
 20
47.735599
 30
0.0
 10
115.519980
 20
47.797699
 30
0.0
 10
115.701980
 20
47.883300
 30
0.0
 10
115.870980
 20
47.990998
 30
0.0
 10
116.025979
 20
48.118997
 30
0.0
 10
116.163980
 20
48.265499
 30
0.0
 10
116.281980
 20
48.428099
 30
0.0
 10
116.378980
 20
48.604098
 30
0.0
 10
116.452979
 20
48.791000
 30
0.0
 10
116.502980
 20
48.985597
 30
0.0
 10
116.527985
 20
49.184897
 30
0.0
 10
116.527979
 20
49.385899
 30
0.0
 10
116.502974
 20
49.585198
 30
0.0
 10
116.452979
 20
49.779799
 30
0.0
 10
116.378980
 20
49.966599
 30
0.0
 10
116.281980
 20
50.142697
 30
0.0
 10
116.163980
 20
50.305300
 30
0.0
 10
116.025979
 20
50.451700
 30
0.0
 10
115.870980
 20
50.579797
 30
0.0
 10
115.701980
 20
50.687499
 30
0.0
 10
115.519980
 20
50.772998
 30
0.0
 10
115.328981
 20
50.835098
 30
0.0
 10
115.131981
 20
50.872798
 30
0.0
 10
114.930979
 20
50.885413
 30
0.0
 10
114.729978
 20
50.872784
 30
0.0
 10
114.532978
 20
50.835098
 30
0.0
 10
114.341979
 20
50.772998
 30
0.0
 10
114.159979
 20
50.687499
 30
0.0
 10
113.990979
 20
50.579797
 30
0.0
 10
113.835980
 20
50.451700
 30
0.0
 10
113.697979
 20
50.305300
 30
0.0
 10
113.579979
 20
50.142697
 30
0.0
 10
113.482979
 20
49.966599
 30
0.0
 10
113.408980
 20
49.779799
 30
0.0
 10
113.358979
 20
49.585198
 30
0.0
 10
113.333974
 20
49.385899
 30
0.0
 10
113.333980
 20
49.184897
 30
0.0
 10
113.358985
 20
48.985597
 30
0.0
 10
113.408980
 20
48.791000
 30
0.0
 10
113.482979
 20
48.604098
 30
0.0
 10
113.579979
 20
48.428099
 30
0.0
 10
113.697979
 20
48.265499
 30
0.0
 10
113.835980
 20
48.118997
 30
0.0
 10
113.990979
 20
47.990998
 30
0.0
 10
114.159979
 20
47.883300
 30
0.0
 10
114.341979
 20
47.797699
 30
0.0
 10
114.532978
 20
47.735599
 30
0.0
 10
114.729978
 20
47.697998
 30
0.0
 10
114.930979
 20
47.685383
 30
0.0
 10
115.131981
 20
47.698012
 30
0.0
  0
LWPOLYLINE
  5
144
100
AcDbEntity
  8
Layer_1
 62
7
100
AcDbPolyline
 90
51
 70
0
 10
72.131480
 20
47.697998
 30
0.0
 10
72.328880
 20
47.735599
 30
0.0
 10
72.519979
 20
47.797699
 30
0.0
 10
72.701780
 20
47.883300
 30
0.0
 10
72.871379
 20
47.990998
 30
0.0
 10
73.026280
 20
48.118997
 30
0.0
 10
73.163778
 20
48.265499
 30
0.0
 10
73.281880
 20
48.428099
 30
0.0
 10
73.378679
 20
48.604098
 30
0.0
 10
73.452681
 20
48.791000
 30
0.0
 10
73.502679
 20
48.985597
 30
0.0
 10
73.527769
 20
49.184897
 30
0.0
 10
73.527780
 20
49.385899
 30
0.0
 10
73.502690
 20
49.585198
 30
0.0
 10
73.452681
 20
49.779799
 30
0.0
 10
73.378679
 20
49.966599
 30
0.0
 10
73.281880
 20
50.142697
 30
0.0
 10
73.163778
 20
50.305300
 30
0.0
 10
73.026280
 20
50.451700
 30
0.0
 10
72.871379
 20
50.579797
 30
0.0
 10
72.701780
 20
50.687499
 30
0.0
 10
72.519979
 20
50.772998
 30
0.0
 10
72.328880
 20
50.835098
 30
0.0
 10
72.131480
 20
50.872798
 30
0.0
 10
71.930981
 20
50.885413
 30
0.0
 10
71.730479
 20
50.872784
 30
0.0
 10
71.533079
 20
50.835098
 30
0.0
 10
71.341980
 20
50.772998
 30
0.0
 10
71.160178
 20
50.687499
 30
0.0
 10
70.990478
 20
50.579797
 30
0.0
 10
70.835679
 20
50.451700
 30
0.0
 10
70.698181
 20
50.305300
 30
0.0
 10
70.580079
 20
50.142697
 30
0.0
 10
70.483280
 20
49.966599
 30
0.0
 10
70.409278
 20
49.779799
 30
0.0
 10
70.359280
 20
49.585198
 30
0.0
 10
70.334190
 20
49.385899
 30
0.0
 10
70.334179
 20
49.184897
 30
0.0
 10
70.359268
 20
48.985597
 30
0.0
 10
70.409278
 20
48.791000
 30
0.0
 10
70.483280
 20
48.604098
 30
0.0
 10
70.580079
 20
48.428099
 30
0.0
 10
70.698181
 20
48.265499
 30
0.0
 10
70.835679
 20
48.118997
 30
0.0
 10
70.990478
 20
47.990998
 30
0.0
 10
71.160178
 20
47.883300
 30
0.0
 10
71.341980
 20
47.797699
 30
0.0
 10
71.533079
 20
47.735599
 30
0.0
 10
71.730479
 20
47.697998
 30
0.0
 10
71.930981
 20
47.685383
 30
0.0
 10
72.131480
 20
47.698012
 30
0.0
  0
LWPOLYLINE
  5
145
100
AcDbEntity
  8
Layer_1
 62
7
100
AcDbPolyline
 90
5
 70
0
 10
-14.789020
 20
85.756799
 30
0.0
 10
-14.789020
 20
98.613997
 30
0.0
 10
-11.689020
 20
98.613997
 30
0.0
 10
-11.689020
 20
85.756799
 30
0.0
 10
-14.789020
 20
85.756799
 30
0.0
  0
LWPOLYLINE
  5
146
100
AcDbEntity
  8
Layer_1
 62
7
100
AcDbPolyline
 90
5
 70
0
 10
225.210981
 20
85.756799
 30
0.0
 10
225.210981
 20
98.613997
 30
0.0
 10
228.310980
 20
98.613997
 30
0.0
 10
228.310980
 20
85.756799
 30
0.0
 10
225.210981
 20
85.756799
 30
0.0
  0
LWPOLYLINE
  5
147
100
AcDbEntity
  8
Layer_1
 62
7
100
AcDbPolyline
 90
5
 70
0
 10
194.430979
 20
61.951998
 30
0.0
 10
194.430979
 20
96.951999
 30
0.0
 10
212.430979
 20
96.951999
 30
0.0
 10
212.430979
 20
61.951998
 30
0.0
 10
194.430979
 20
61.951998
 30
0.0
  0
LWPOLYLINE
  5
148
100
AcDbEntity
  8
Layer_1
 62
7
100
AcDbPolyline
 90
5
 70
0
 10
213.980980
 20
83.735400
 30
0.0
 10
213.980980
 20
86.835399
 30
0.0
 10
217.080980
 20
86.835399
 30
0.0
 10
217.080980
 20
83.735400
 30
0.0
 10
213.980980
 20
83.735400
 30
0.0
  0
LWPOLYLINE
  5
149
100
AcDbEntity
  8
Layer_1
 62
7
100
AcDbPolyline
 90
5
 70
0
 10
189.780981
 20
83.735400
 30
0.0
 10
189.780981
 20
86.835399
 30
0.0
 10
192.880980
 20
86.835399
 30
0.0
 10
192.880980
 20
83.735400
 30
0.0
 10
189.780981
 20
83.735400
 30
0.0
  0
LWPOLYLINE
  5
14a
100
AcDbEntity
  8
Layer_1
 62
7
100
AcDbPolyline
 90
5
 70
0
 10
213.980980
 20
72.068700
 30
0.0
 10
213.980980
 20
75.168699
 30
0.0
 10
217.080980
 20
75.168699
 30
0.0
 10
217.080980
 20
72.068700
 30
0.0
 10
213.980980
 20
72.068700
 30
0.0
  0
LWPOLYLINE
  5
14b
100
AcDbEntity
  8
Layer_1
 62
7
100
AcDbPolyline
 90
5
 70
0
 10
189.780981
 20
72.068700
 30
0.0
 10
189.780981
 20
75.168699
 30
0.0
 10
192.880980
 20
75.168699
 30
0.0
 10
192.880980
 20
72.068700
 30
0.0
 10
189.780981
 20
72.068700
 30
0.0
  0
LWPOLYLINE
  5
14c
100
AcDbEntity
  8
Layer_1
 62
7
100
AcDbPolyline
 90
5
 70
0
 10
225.210981
 20
60.042500
 30
0.0
 10
225.210981
 20
72.899697
 30
0.0
 10
228.310980
 20
72.899697
 30
0.0
 10
228.310980
 20
60.042500
 30
0.0
 10
225.210981
 20
60.042500
 30
0.0
  0
LWPOLYLINE
  5
14d
100
AcDbEntity
  8
Layer_1
 62
7
100
AcDbPolyline
 90
5
 70
0
 10
-14.789020
 20
60.042500
 30
0.0
 10
-14.789020
 20
72.899697
 30
0.0
 10
-11.689020
 20
72.899697
 30
0.0
 10
-11.689020
 20
60.042500
 30
0.0
 10
-14.789020
 20
60.042500
 30
0.0
  0
LWPOLYLINE
  5
14e
100
AcDbEntity
  8
Layer_1
 62
7
100
AcDbPolyline
 90
51
 70
0
 10
-3.339521
 20
50.588597
 30
0.0
 10
-3.538821
 20
50.613687
 30
0.0
 10
-3.733420
 20
50.663699
 30
0.0
 10
-3.920320
 20
50.737698
 30
0.0
 10
-4.096320
 20
50.834497
 30
0.0
 10
-4.258920
 20
50.952599
 30
0.0
 10
-4.405421
 20
51.090098
 30
0.0
 10
-4.533421
 20
51.244899
 30
0.0
 10
-4.641120
 20
51.414599
 30
0.0
 10
-4.726720
 20
51.596399
 30
0.0
 10
-4.788720
 20
51.787500
 30
0.0
 10
-4.826421
 20
51.984897
 30
0.0
 10
-4.839022
 20
52.185399
 30
0.0
 10
-4.826419
 20
52.385898
 30
0.0
 10
-4.788720
 20
52.583299
 30
0.0
 10
-4.726720
 20
52.774400
 30
0.0
 10
-4.641120
 20
52.956199
 30
0.0
 10
-4.533421
 20
53.125797
 30
0.0
 10
-4.405421
 20
53.280698
 30
0.0
 10
-4.258920
 20
53.418199
 30
0.0
 10
-4.096320
 20
53.536298
 30
0.0
 10
-3.920320
 20
53.633098
 30
0.0
 10
-3.733420
 20
53.707099
 30
0.0
 10
-3.538821
 20
53.757098
 30
0.0
 10
-3.339521
 20
53.782187
 30
0.0
 10
-3.138521
 20
53.782198
 30
0.0
 10
-2.939221
 20
53.757109
 30
0.0
 10
-2.744620
 20
53.707099
 30
0.0
 10
-2.557820
 20
53.633098
 30
0.0
 10
-2.381720
 20
53.536298
 30
0.0
 10
-2.219120
 20
53.418199
 30
0.0
 10
-2.072720
 20
53.280698
 30
0.0
 10
-1.944621
 20
53.125797
 30
0.0
 10
-1.836920
 20
52.956199
 30
0.0
 10
-1.751421
 20
52.774400
 30
0.0
 10
-1.689320
 20
52.583299
 30
0.0
 10
-1.651621
 20
52.385898
 30
0.0
 10
-1.639019
 20
52.185399
 30
0.0
 10
-1.651622
 20
51.984897
 30
0.0
 10
-1.689320
 20
51.787500
 30
0.0
 10
-1.751421
 20
51.596399
 30
0.0
 10
-1.836920
 20
51.414599
 30
0.0
 10
-1.944621
 20
51.244899
 30
0.0
 10
-2.072720
 20
51.090098
 30
0.0
 10
-2.219120
 20
50.952599
 30
0.0
 10
-2.381720
 20
50.834497
 30
0.0
 10
-2.557820
 20
50.737698
 30
0.0
 10
-2.744620
 20
50.663699
 30
0.0
 10
-2.939221
 20
50.613698
 30
0.0
 10
-3.138521
 20
50.588608
 30
0.0
 10
-3.339521
 20
50.588597
 30
0.0
  0
LWPOLYLINE
  5
14f
100
AcDbEntity
  8
Layer_1
 62
7
100
AcDbPolyline
 90
51
 70
0
 10
216.660979
 20
50.588597
 30
0.0
 10
216.460980
 20
50.613687
 30
0.0
 10
216.266980
 20
50.663699
 30
0.0
 10
216.079980
 20
50.737698
 30
0.0
 10
215.903980
 20
50.834497
 30
0.0
 10
215.740980
 20
50.952599
 30
0.0
 10
215.594978
 20
51.090098
 30
0.0
 10
215.466979
 20
51.244899
 30
0.0
 10
215.358978
 20
51.414599
 30
0.0
 10
215.272980
 20
51.596399
 30
0.0
 10
215.210978
 20
51.787500
 30
0.0
 10
215.173979
 20
51.984897
 30
0.0
 10
215.160968
 20
52.185399
 30
0.0
 10
215.173990
 20
52.385898
 30
0.0
 10
215.210978
 20
52.583299
 30
0.0
 10
215.272980
 20
52.774400
 30
0.0
 10
215.358978
 20
52.956199
 30
0.0
 10
215.466979
 20
53.125797
 30
0.0
 10
215.594978
 20
53.280698
 30
0.0
 10
215.740980
 20
53.418199
 30
0.0
 10
215.903980
 20
53.536298
 30
0.0
 10
216.079980
 20
53.633098
 30
0.0
 10
216.266980
 20
53.707099
 30
0.0
 10
216.460980
 20
53.757098
 30
0.0
 10
216.660979
 20
53.782187
 30
0.0
 10
216.860979
 20
53.782198
 30
0.0
 10
217.060979
 20
53.757109
 30
0.0
 10
217.254978
 20
53.707099
 30
0.0
 10
217.441979
 20
53.633098
 30
0.0
 10
217.617978
 20
53.536298
 30
0.0
 10
217.780978
 20
53.418199
 30
0.0
 10
217.926980
 20
53.280698
 30
0.0
 10
218.054979
 20
53.125797
 30
0.0
 10
218.162980
 20
52.956199
 30
0.0
 10
218.248979
 20
52.774400
 30
0.0
 10
218.310980
 20
52.583299
 30
0.0
 10
218.347980
 20
52.385898
 30
0.0
 10
218.360990
 20
52.185399
 30
0.0
 10
218.347968
 20
51.984897
 30
0.0
 10
218.310980
 20
51.787500
 30
0.0
 10
218.248979
 20
51.596399
 30
0.0
 10
218.162980
 20
51.414599
 30
0.0
 10
218.054979
 20
51.244899
 30
0.0
 10
217.926980
 20
51.090098
 30
0.0
 10
217.780978
 20
50.952599
 30
0.0
 10
217.617978
 20
50.834497
 30
0.0
 10
217.441979
 20
50.737698
 30
0.0
 10
217.254978
 20
50.663699
 30
0.0
 10
217.060979
 20
50.613698
 30
0.0
 10
216.860979
 20
50.588608
 30
0.0
 10
216.660979
 20
50.588597
 30
0.0
  0
LWPOLYLINE
  5
150
100
AcDbEntity
  8
Layer_1
 62
7
100
AcDbPolyline
 90
51
 70
0
 10
226.660979
 20
40.588538
 30
0.0
 10
226.460980
 20
40.613656
 30
0.0
 10
226.266980
 20
40.663694
 30
0.0
 10
226.079980
 20
40.737693
 30
0.0
 10
225.903980
 20
40.834467
 30
0.0
 10
225.740980
 20
40.952577
 30
0.0
 10
225.594981
 20
41.090132
 30
0.0
 10
225.466979
 20
41.244931
 30
0.0
 10
225.358978
 20
41.414603
 30
0.0
 10
225.272979
 20
41.596410
 30
0.0
 10
225.210981
 20
41.787475
 30
0.0
 10
225.173979
 20
41.984861
 30
0.0
 10
225.160968
 20
42.185408
 30
0.0
 10
225.173990
 20
42.385899
 30
0.0
 10
225.210981
 20
42.583285
 30
0.0
 10
225.272979
 20
42.774406
 30
0.0
 10
225.358978
 20
42.956185
 30
0.0
 10
225.466979
 20
43.125801
 30
0.0
 10
225.594981
 20
43.280712
 30
0.0
 10
225.740980
 20
43.418211
 30
0.0
 10
225.903980
 20
43.536293
 30
0.0
 10
226.079980
 20
43.633095
 30
0.0
 10
226.266980
 20
43.707094
 30
0.0
 10
226.460980
 20
43.757103
 30
0.0
 10
226.660979
 20
43.782221
 30
0.0
 10
226.860979
 20
43.782193
 30
0.0
 10
227.060978
 20
43.757075
 30
0.0
 10
227.254981
 20
43.707094
 30
0.0
 10
227.441978
 20
43.633095
 30
0.0
 10
227.617981
 20
43.536293
 30
0.0
 10
227.780981
 20
43.418211
 30
0.0
 10
227.926980
 20
43.280712
 30
0.0
 10
228.054979
 20
43.125801
 30
0.0
 10
228.162980
 20
42.956185
 30
0.0
 10
228.248979
 20
42.774406
 30
0.0
 10
228.310980
 20
42.583285
 30
0.0
 10
228.347980
 20
42.385899
 30
0.0
 10
228.360990
 20
42.185408
 30
0.0
 10
228.347968
 20
41.984861
 30
0.0
 10
228.310980
 20
41.787475
 30
0.0
 10
228.248979
 20
41.596410
 30
0.0
 10
228.162980
 20
41.414603
 30
0.0
 10
228.054979
 20
41.244931
 30
0.0
 10
227.926980
 20
41.090132
 30
0.0
 10
227.780981
 20
40.952577
 30
0.0
 10
227.617981
 20
40.834467
 30
0.0
 10
227.441978
 20
40.737693
 30
0.0
 10
227.254981
 20
40.663694
 30
0.0
 10
227.060978
 20
40.613741
 30
0.0
 10
226.860979
 20
40.588623
 30
0.0
 10
226.660979
 20
40.588538
 30
0.0
  0
LWPOLYLINE
  5
151
100
AcDbEntity
  8
Layer_1
 62
7
100
AcDbPolyline
 90
51
 70
0
 10
-13.339501
 20
40.588538
 30
0.0
 10
-13.538840
 20
40.613656
 30
0.0
 10
-13.733450
 20
40.663694
 30
0.0
 10
-13.920281
 20
40.737693
 30
0.0
 10
-14.096351
 20
40.834467
 30
0.0
 10
-14.258900
 20
40.952577
 30
0.0
 10
-14.405370
 20
41.090132
 30
0.0
 10
-14.533450
 20
41.244931
 30
0.0
 10
-14.641120
 20
41.414603
 30
0.0
 10
-14.726680
 20
41.596410
 30
0.0
 10
-14.788761
 20
41.787475
 30
0.0
 10
-14.826410
 20
41.984861
 30
0.0
 10
-14.839031
 20
42.185408
 30
0.0
 10
-14.826410
 20
42.385899
 30
0.0
 10
-14.788761
 20
42.583285
 30
0.0
 10
-14.726680
 20
42.774406
 30
0.0
 10
-14.641120
 20
42.956185
 30
0.0
 10
-14.533450
 20
43.125801
 30
0.0
 10
-14.405370
 20
43.280712
 30
0.0
 10
-14.258900
 20
43.418211
 30
0.0
 10
-14.096351
 20
43.536293
 30
0.0
 10
-13.920281
 20
43.633095
 30
0.0
 10
-13.733450
 20
43.707094
 30
0.0
 10
-13.538840
 20
43.757103
 30
0.0
 10
-13.339501
 20
43.782221
 30
0.0
 10
-13.138521
 20
43.782193
 30
0.0
 10
-12.939221
 20
43.757075
 30
0.0
 10
-12.744620
 20
43.707094
 30
0.0
 10
-12.557820
 20
43.633095
 30
0.0
 10
-12.381721
 20
43.536293
 30
0.0
 10
-12.219120
 20
43.418211
 30
0.0
 10
-12.072720
 20
43.280712
 30
0.0
 10
-11.944620
 20
43.125801
 30
0.0
 10
-11.836920
 20
42.956185
 30
0.0
 10
-11.751421
 20
42.774406
 30
0.0
 10
-11.689320
 20
42.583285
 30
0.0
 10
-11.651620
 20
42.385899
 30
0.0
 10
-11.639019
 20
42.185408
 30
0.0
 10
-11.651622
 20
41.984861
 30
0.0
 10
-11.689320
 20
41.787475
 30
0.0
 10
-11.751421
 20
41.596410
 30
0.0
 10
-11.836920
 20
41.414603
 30
0.0
 10
-11.944620
 20
41.244931
 30
0.0
 10
-12.072720
 20
41.090132
 30
0.0
 10
-12.219120
 20
40.952577
 30
0.0
 10
-12.381721
 20
40.834467
 30
0.0
 10
-12.557820
 20
40.737693
 30
0.0
 10
-12.744620
 20
40.663694
 30
0.0
 10
-12.939221
 20
40.613741
 30
0.0
 10
-13.138521
 20
40.588623
 30
0.0
 10
-13.339501
 20
40.588538
 30
0.0
  0
LWPOLYLINE
  5
152
100
AcDbEntity
  8
Layer_1
 62
7
100
AcDbPolyline
 90
5
 70
0
 10
179.942979
 20
40.635387
 30
0.0
 10
179.942979
 20
43.735401
 30
0.0
 10
200.851980
 20
43.735401
 30
0.0
 10
200.851980
 20
40.635387
 30
0.0
 10
179.942979
 20
40.635387
 30
0.0
  0
LWPOLYLINE
  5
153
100
AcDbEntity
  8
Layer_1
 62
7
100
AcDbPolyline
 90
5
 70
0
 10
138.124978
 20
40.635387
 30
0.0
 10
138.124978
 20
43.735401
 30
0.0
 10
159.033979
 20
43.735401
 30
0.0
 10
159.033979
 20
40.635387
 30
0.0
 10
138.124978
 20
40.635387
 30
0.0
  0
LWPOLYLINE
  5
154
100
AcDbEntity
  8
Layer_1
 62
7
100
AcDbPolyline
 90
5
 70
0
 10
12.670080
 20
40.635387
 30
0.0
 10
12.670080
 20
43.735401
 30
0.0
 10
33.579179
 20
43.735401
 30
0.0
 10
33.579179
 20
40.635387
 30
0.0
 10
12.670080
 20
40.635387
 30
0.0
  0
LWPOLYLINE
  5
155
100
AcDbEntity
  8
Layer_1
 62
7
100
AcDbPolyline
 90
5
 70
0
 10
54.488279
 20
40.635387
 30
0.0
 10
54.488279
 20
43.735401
 30
0.0
 10
75.397378
 20
43.735401
 30
0.0
 10
75.397378
 20
40.635387
 30
0.0
 10
54.488279
 20
40.635387
 30
0.0
  0
LWPOLYLINE
  5
156
100
AcDbEntity
  8
Layer_1
 62
7
100
AcDbPolyline
 90
5
 70
0
 10
96.305981
 20
40.635387
 30
0.0
 10
96.305981
 20
43.735401
 30
0.0
 10
117.215980
 20
43.735401
 30
0.0
 10
117.215980
 20
40.635387
 30
0.0
 10
96.305981
 20
40.635387
 30
0.0
  0
LWPOLYLINE
  5
157
100
AcDbEntity
  8
Layer_1
 62
7
100
AcDbPolyline
 90
29
 70
0
 10
-33.239021
 20
60.042500
 30
0.0
 10
-30.139030
 20
60.042500
 30
0.0
 10
-30.139030
 20
72.899697
 30
0.0
 10
-33.239021
 20
72.899697
 30
0.0
 10
-33.239021
 20
85.756799
 30
0.0
 10
-30.139030
 20
85.756799
 30
0.0
 10
-30.139030
 20
98.613997
 30
0.0
 10
-33.239021
 20
98.613997
 30
0.0
 10
-33.239021
 20
111.471099
 30
0.0
 10
-30.139030
 20
111.471099
 30
0.0
 10
-30.139030
 20
124.328300
 30
0.0
 10
-33.239021
 20
124.328300
 30
0.0
 10
-33.239021
 20
137.185399
 30
0.0
 10
-87.239019
 20
137.185399
 30
0.0
 10
-87.239019
 20
124.328300
 30
0.0
 10
-90.339022
 20
124.328300
 30
0.0
 10
-90.339022
 20
111.471099
 30
0.0
 10
-87.239019
 20
111.471099
 30
0.0
 10
-87.239019
 20
98.613997
 30
0.0
 10
-90.339022
 20
98.613997
 30
0.0
 10
-90.339022
 20
85.756799
 30
0.0
 10
-87.239019
 20
85.756799
 30
0.0
 10
-87.239019
 20
72.899697
 30
0.0
 10
-90.339022
 20
72.899697
 30
0.0
 10
-90.339022
 20
60.042500
 30
0.0
 10
-87.239019
 20
60.042500
 30
0.0
 10
-87.239019
 20
47.185398
 30
0.0
 10
-33.239021
 20
47.185398
 30
0.0
 10
-33.239021
 20
60.042500
 30
0.0
  0
LWPOLYLINE
  5
158
100
AcDbEntity
  8
Layer_1
 62
7
100
AcDbPolyline
 90
41
 70
0
 10
-69.741321
 20
106.701199
 30
0.0
 10
-70.738020
 20
106.827098
 30
0.0
 10
-71.711119
 20
107.076998
 30
0.0
 10
-72.645221
 20
107.446799
 30
0.0
 10
-73.525622
 20
107.930799
 30
0.0
 10
-74.338422
 20
108.521298
 30
0.0
 10
-75.070721
 20
109.208997
 30
0.0
 10
-75.711119
 20
109.983099
 30
0.0
 10
-76.249520
 20
110.831397
 30
0.0
 10
-76.489020
 20
111.340498
 30
0.0
 10
-76.489020
 20
118.030299
 30
0.0
 10
-76.249520
 20
118.539400
 30
0.0
 10
-75.711119
 20
119.387698
 30
0.0
 10
-75.070721
 20
120.161799
 30
0.0
 10
-74.338422
 20
120.849499
 30
0.0
 10
-73.525622
 20
121.439998
 30
0.0
 10
-72.645221
 20
121.923998
 30
0.0
 10
-71.711119
 20
122.293799
 30
0.0
 10
-70.738020
 20
122.543698
 30
0.0
 10
-69.741321
 20
122.669598
 30
0.0
 10
-68.736720
 20
122.669598
 30
0.0
 10
-67.740021
 20
122.543698
 30
0.0
 10
-66.766921
 20
122.293799
 30
0.0
 10
-65.832820
 20
121.923998
 30
0.0
 10
-64.952422
 20
121.439998
 30
0.0
 10
-64.139622
 20
120.849499
 30
0.0
 10
-63.407320
 20
120.161799
 30
0.0
 10
-62.766921
 20
119.387698
 30
0.0
 10
-62.228520
 20
118.539400
 30
0.0
 10
-61.989021
 20
118.030299
 30
0.0
 10
-61.989021
 20
111.340498
 30
0.0
 10
-62.228520
 20
110.831397
 30
0.0
 10
-62.766921
 20
109.983099
 30
0.0
 10
-63.407320
 20
109.208997
 30
0.0
 10
-64.139622
 20
108.521298
 30
0.0
 10
-64.952422
 20
107.930799
 30
0.0
 10
-65.832820
 20
107.446799
 30
0.0
 10
-66.766921
 20
107.076998
 30
0.0
 10
-67.740021
 20
106.827098
 30
0.0
 10
-68.736720
 20
106.701199
 30
0.0
 10
-69.741321
 20
106.701199
 30
0.0
  0
LWPOLYLINE
  5
159
100
AcDbEntity
  8
Layer_1
 62
7
100
AcDbPolyline
 90
51
 70
0
 10
-51.487021
 20
110.743200
 30
0.0
 10
-51.979219
 20
110.805399
 30
0.0
 10
-52.459621
 20
110.928699
 30
0.0
 10
-52.920820
 20
111.111299
 30
0.0
 10
-53.355521
 20
111.350299
 30
0.0
 10
-53.756821
 20
111.641897
 30
0.0
 10
-54.118421
 20
111.981399
 30
0.0
 10
-54.434620
 20
112.363598
 30
0.0
 10
-54.700420
 20
112.782498
 30
0.0
 10
-54.911621
 20
113.231299
 30
0.0
 10
-55.064921
 20
113.703099
 30
0.0
 10
-55.157922
 20
114.190299
 30
0.0
 10
-55.189020
 20
114.685398
 30
0.0
 10
-55.157922
 20
115.180498
 30
0.0
 10
-55.064921
 20
115.667698
 30
0.0
 10
-54.911621
 20
116.139498
 30
0.0
 10
-54.700420
 20
116.588299
 30
0.0
 10
-54.434620
 20
117.007099
 30
0.0
 10
-54.118421
 20
117.389299
 30
0.0
 10
-53.756821
 20
117.728900
 30
0.0
 10
-53.355521
 20
118.020497
 30
0.0
 10
-52.920820
 20
118.259497
 30
0.0
 10
-52.459621
 20
118.442098
 30
0.0
 10
-51.979219
 20
118.565398
 30
0.0
 10
-51.487021
 20
118.627597
 30
0.0
 10
-50.991020
 20
118.627597
 30
0.0
 10
-50.498921
 20
118.565398
 30
0.0
 10
-50.018421
 20
118.442098
 30
0.0
 10
-49.557221
 20
118.259497
 30
0.0
 10
-49.122520
 20
118.020497
 30
0.0
 10
-48.721221
 20
117.728900
 30
0.0
 10
-48.359620
 20
117.389299
 30
0.0
 10
-48.043420
 20
117.007099
 30
0.0
 10
-47.777620
 20
116.588299
 30
0.0
 10
-47.566421
 20
116.139498
 30
0.0
 10
-47.413121
 20
115.667698
 30
0.0
 10
-47.320221
 20
115.180498
 30
0.0
 10
-47.289020
 20
114.685398
 30
0.0
 10
-47.320221
 20
114.190299
 30
0.0
 10
-47.413121
 20
113.703099
 30
0.0
 10
-47.566421
 20
113.231299
 30
0.0
 10
-47.777620
 20
112.782498
 30
0.0
 10
-48.043420
 20
112.363598
 30
0.0
 10
-48.359620
 20
111.981399
 30
0.0
 10
-48.721221
 20
111.641897
 30
0.0
 10
-49.122520
 20
111.350299
 30
0.0
 10
-49.557221
 20
111.111299
 30
0.0
 10
-50.018421
 20
110.928699
 30
0.0
 10
-50.498921
 20
110.805399
 30
0.0
 10
-50.991020
 20
110.743200
 30
0.0
 10
-51.487021
 20
110.743200
 30
0.0
  0
LWPOLYLINE
  5
15a
100
AcDbEntity
  8
Layer_1
 62
7
100
AcDbPolyline
 90
41
 70
0
 10
-69.741321
 20
84.201199
 30
0.0
 10
-70.738020
 20
84.327098
 30
0.0
 10
-71.711119
 20
84.576998
 30
0.0
 10
-72.645221
 20
84.946799
 30
0.0
 10
-73.525622
 20
85.430799
 30
0.0
 10
-74.338422
 20
86.021298
 30
0.0
 10
-75.070721
 20
86.708997
 30
0.0
 10
-75.711119
 20
87.483099
 30
0.0
 10
-76.249520
 20
88.331400
 30
0.0
 10
-76.489020
 20
88.840498
 30
0.0
 10
-76.489020
 20
95.530299
 30
0.0
 10
-76.249520
 20
96.039399
 30
0.0
 10
-75.711119
 20
96.887697
 30
0.0
 10
-75.070721
 20
97.661799
 30
0.0
 10
-74.338422
 20
98.349498
 30
0.0
 10
-73.525622
 20
98.939998
 30
0.0
 10
-72.645221
 20
99.423997
 30
0.0
 10
-71.711119
 20
99.793799
 30
0.0
 10
-70.738020
 20
100.043698
 30
0.0
 10
-69.741321
 20
100.169598
 30
0.0
 10
-68.736720
 20
100.169598
 30
0.0
 10
-67.740021
 20
100.043698
 30
0.0
 10
-66.766921
 20
99.793799
 30
0.0
 10
-65.832820
 20
99.423997
 30
0.0
 10
-64.952422
 20
98.939998
 30
0.0
 10
-64.139622
 20
98.349498
 30
0.0
 10
-63.407320
 20
97.661799
 30
0.0
 10
-62.766921
 20
96.887697
 30
0.0
 10
-62.228520
 20
96.039399
 30
0.0
 10
-61.989021
 20
95.530299
 30
0.0
 10
-61.989021
 20
88.840498
 30
0.0
 10
-62.228520
 20
88.331400
 30
0.0
 10
-62.766921
 20
87.483099
 30
0.0
 10
-63.407320
 20
86.708997
 30
0.0
 10
-64.139622
 20
86.021298
 30
0.0
 10
-64.952422
 20
85.430799
 30
0.0
 10
-65.832820
 20
84.946799
 30
0.0
 10
-66.766921
 20
84.576998
 30
0.0
 10
-67.740021
 20
84.327098
 30
0.0
 10
-68.736720
 20
84.201199
 30
0.0
 10
-69.741321
 20
84.201199
 30
0.0
  0
LWPOLYLINE
  5
15b
100
AcDbEntity
  8
Layer_1
 62
7
100
AcDbPolyline
 90
51
 70
0
 10
-51.487021
 20
88.243197
 30
0.0
 10
-51.979219
 20
88.305399
 30
0.0
 10
-52.459621
 20
88.428699
 30
0.0
 10
-52.920820
 20
88.611299
 30
0.0
 10
-53.355521
 20
88.850299
 30
0.0
 10
-53.756821
 20
89.141900
 30
0.0
 10
-54.118421
 20
89.481399
 30
0.0
 10
-54.434620
 20
89.863598
 30
0.0
 10
-54.700420
 20
90.282498
 30
0.0
 10
-54.911621
 20
90.731299
 30
0.0
 10
-55.064921
 20
91.203098
 30
0.0
 10
-55.157922
 20
91.690299
 30
0.0
 10
-55.189020
 20
92.185398
 30
0.0
 10
-55.157922
 20
92.680498
 30
0.0
 10
-55.064921
 20
93.167698
 30
0.0
 10
-54.911621
 20
93.639497
 30
0.0
 10
-54.700420
 20
94.088298
 30
0.0
 10
-54.434620
 20
94.507099
 30
0.0
 10
-54.118421
 20
94.889299
 30
0.0
 10
-53.756821
 20
95.228900
 30
0.0
 10
-53.355521
 20
95.520497
 30
0.0
 10
-52.920820
 20
95.759497
 30
0.0
 10
-52.459621
 20
95.942098
 30
0.0
 10
-51.979219
 20
96.065398
 30
0.0
 10
-51.487021
 20
96.127600
 30
0.0
 10
-50.991020
 20
96.127600
 30
0.0
 10
-50.498921
 20
96.065398
 30
0.0
 10
-50.018421
 20
95.942098
 30
0.0
 10
-49.557221
 20
95.759497
 30
0.0
 10
-49.122520
 20
95.520497
 30
0.0
 10
-48.721221
 20
95.228900
 30
0.0
 10
-48.359620
 20
94.889299
 30
0.0
 10
-48.043420
 20
94.507099
 30
0.0
 10
-47.777620
 20
94.088298
 30
0.0
 10
-47.566421
 20
93.639497
 30
0.0
 10
-47.413121
 20
93.167698
 30
0.0
 10
-47.320221
 20
92.680498
 30
0.0
 10
-47.289020
 20
92.185398
 30
0.0
 10
-47.320221
 20
91.690299
 30
0.0
 10
-47.413121
 20
91.203098
 30
0.0
 10
-47.566421
 20
90.731299
 30
0.0
 10
-47.777620
 20
90.282498
 30
0.0
 10
-48.043420
 20
89.863598
 30
0.0
 10
-48.359620
 20
89.481399
 30
0.0
 10
-48.721221
 20
89.141900
 30
0.0
 10
-49.122520
 20
88.850299
 30
0.0
 10
-49.557221
 20
88.611299
 30
0.0
 10
-50.018421
 20
88.428699
 30
0.0
 10
-50.498921
 20
88.305399
 30
0.0
 10
-50.991020
 20
88.243197
 30
0.0
 10
-51.487021
 20
88.243197
 30
0.0
  0
LWPOLYLINE
  5
15c
100
AcDbEntity
  8
Layer_1
 62
7
100
AcDbPolyline
 90
41
 70
0
 10
-69.741321
 20
61.701199
 30
0.0
 10
-70.738020
 20
61.827098
 30
0.0
 10
-71.711119
 20
62.076997
 30
0.0
 10
-72.645221
 20
62.446799
 30
0.0
 10
-73.525622
 20
62.930799
 30
0.0
 10
-74.338422
 20
63.521298
 30
0.0
 10
-75.070721
 20
64.208997
 30
0.0
 10
-75.711119
 20
64.983099
 30
0.0
 10
-76.249520
 20
65.831400
 30
0.0
 10
-76.489020
 20
66.340497
 30
0.0
 10
-76.489020
 20
73.030299
 30
0.0
 10
-76.249520
 20
73.539399
 30
0.0
 10
-75.711119
 20
74.387697
 30
0.0
 10
-75.070721
 20
75.161799
 30
0.0
 10
-74.338422
 20
75.849498
 30
0.0
 10
-73.525622
 20
76.439997
 30
0.0
 10
-72.645221
 20
76.923997
 30
0.0
 10
-71.711119
 20
77.293799
 30
0.0
 10
-70.738020
 20
77.543698
 30
0.0
 10
-69.741321
 20
77.669597
 30
0.0
 10
-68.736720
 20
77.669597
 30
0.0
 10
-67.740021
 20
77.543698
 30
0.0
 10
-66.766921
 20
77.293799
 30
0.0
 10
-65.832820
 20
76.923997
 30
0.0
 10
-64.952422
 20
76.439997
 30
0.0
 10
-64.139622
 20
75.849498
 30
0.0
 10
-63.407320
 20
75.161799
 30
0.0
 10
-62.766921
 20
74.387697
 30
0.0
 10
-62.228520
 20
73.539399
 30
0.0
 10
-61.989021
 20
73.030299
 30
0.0
 10
-61.989021
 20
66.340497
 30
0.0
 10
-62.228520
 20
65.831400
 30
0.0
 10
-62.766921
 20
64.983099
 30
0.0
 10
-63.407320
 20
64.208997
 30
0.0
 10
-64.139622
 20
63.521298
 30
0.0
 10
-64.952422
 20
62.930799
 30
0.0
 10
-65.832820
 20
62.446799
 30
0.0
 10
-66.766921
 20
62.076997
 30
0.0
 10
-67.740021
 20
61.827098
 30
0.0
 10
-68.736720
 20
61.701199
 30
0.0
 10
-69.741321
 20
61.701199
 30
0.0
  0
LWPOLYLINE
  5
15d
100
AcDbEntity
  8
Layer_1
 62
7
100
AcDbPolyline
 90
51
 70
0
 10
-51.487021
 20
65.743200
 30
0.0
 10
-51.979219
 20
65.805398
 30
0.0
 10
-52.459621
 20
65.928699
 30
0.0
 10
-52.920820
 20
66.111299
 30
0.0
 10
-53.355521
 20
66.350299
 30
0.0
 10
-53.756821
 20
66.641899
 30
0.0
 10
-54.118421
 20
66.981399
 30
0.0
 10
-54.434620
 20
67.363598
 30
0.0
 10
-54.700420
 20
67.782498
 30
0.0
 10
-54.911621
 20
68.231299
 30
0.0
 10
-55.064921
 20
68.703098
 30
0.0
 10
-55.157922
 20
69.190298
 30
0.0
 10
-55.189020
 20
69.685398
 30
0.0
 10
-55.157922
 20
70.180498
 30
0.0
 10
-55.064921
 20
70.667698
 30
0.0
 10
-54.911621
 20
71.139497
 30
0.0
 10
-54.700420
 20
71.588298
 30
0.0
 10
-54.434620
 20
72.007099
 30
0.0
 10
-54.118421
 20
72.389299
 30
0.0
 10
-53.756821
 20
72.728899
 30
0.0
 10
-53.355521
 20
73.020497
 30
0.0
 10
-52.920820
 20
73.259497
 30
0.0
 10
-52.459621
 20
73.442098
 30
0.0
 10
-51.979219
 20
73.565398
 30
0.0
 10
-51.487021
 20
73.627599
 30
0.0
 10
-50.991020
 20
73.627599
 30
0.0
 10
-50.498921
 20
73.565398
 30
0.0
 10
-50.018421
 20
73.442098
 30
0.0
 10
-49.557221
 20
73.259497
 30
0.0
 10
-49.122520
 20
73.020497
 30
0.0
 10
-48.721221
 20
72.728899
 30
0.0
 10
-48.359620
 20
72.389299
 30
0.0
 10
-48.043420
 20
72.007099
 30
0.0
 10
-47.777620
 20
71.588298
 30
0.0
 10
-47.566421
 20
71.139497
 30
0.0
 10
-47.413121
 20
70.667698
 30
0.0
 10
-47.320221
 20
70.180498
 30
0.0
 10
-47.289020
 20
69.685398
 30
0.0
 10
-47.320221
 20
69.190298
 30
0.0
 10
-47.413121
 20
68.703098
 30
0.0
 10
-47.566421
 20
68.231299
 30
0.0
 10
-47.777620
 20
67.782498
 30
0.0
 10
-48.043420
 20
67.363598
 30
0.0
 10
-48.359620
 20
66.981399
 30
0.0
 10
-48.721221
 20
66.641899
 30
0.0
 10
-49.122520
 20
66.350299
 30
0.0
 10
-49.557221
 20
66.111299
 30
0.0
 10
-50.018421
 20
65.928699
 30
0.0
 10
-50.498921
 20
65.805398
 30
0.0
 10
-50.991020
 20
65.743200
 30
0.0
 10
-51.487021
 20
65.743200
 30
0.0
  0
LWPOLYLINE
  5
15e
100
AcDbEntity
  8
Layer_1
 62
7
100
AcDbPolyline
 90
29
 70
0
 10
300.760981
 20
60.042500
 30
0.0
 10
303.860966
 20
60.042500
 30
0.0
 10
303.860966
 20
72.899697
 30
0.0
 10
300.760981
 20
72.899697
 30
0.0
 10
300.760981
 20
85.756799
 30
0.0
 10
303.860966
 20
85.756799
 30
0.0
 10
303.860966
 20
98.613997
 30
0.0
 10
300.760981
 20
98.613997
 30
0.0
 10
300.760981
 20
111.471099
 30
0.0
 10
303.860966
 20
111.471099
 30
0.0
 10
303.860966
 20
124.328300
 30
0.0
 10
300.760981
 20
124.328300
 30
0.0
 10
300.760981
 20
137.185399
 30
0.0
 10
246.760979
 20
137.185399
 30
0.0
 10
246.760979
 20
124.328300
 30
0.0
 10
243.660979
 20
124.328300
 30
0.0
 10
243.660979
 20
111.471099
 30
0.0
 10
246.760979
 20
111.471099
 30
0.0
 10
246.760979
 20
98.613997
 30
0.0
 10
243.660979
 20
98.613997
 30
0.0
 10
243.660979
 20
85.756799
 30
0.0
 10
246.760979
 20
85.756799
 30
0.0
 10
246.760979
 20
72.899697
 30
0.0
 10
243.660979
 20
72.899697
 30
0.0
 10
243.660979
 20
60.042500
 30
0.0
 10
246.760979
 20
60.042500
 30
0.0
 10
246.760979
 20
47.185398
 30
0.0
 10
300.760981
 20
47.185398
 30
0.0
 10
300.760981
 20
60.042500
 30
0.0
  0
LWPOLYLINE
  5
15f
100
AcDbEntity
  8
Layer_1
 62
7
100
AcDbPolyline
 90
41
 70
0
 10
259.758974
 20
106.701199
 30
0.0
 10
258.761979
 20
106.827098
 30
0.0
 10
257.788978
 20
107.076998
 30
0.0
 10
256.854981
 20
107.446799
 30
0.0
 10
255.973979
 20
107.930799
 30
0.0
 10
255.161981
 20
108.521298
 30
0.0
 10
254.428979
 20
109.208997
 30
0.0
 10
253.788981
 20
109.983099
 30
0.0
 10
253.250981
 20
110.831397
 30
0.0
 10
253.010979
 20
111.340498
 30
0.0
 10
253.010979
 20
118.030299
 30
0.0
 10
253.250981
 20
118.539400
 30
0.0
 10
253.788981
 20
119.387698
 30
0.0
 10
254.428979
 20
120.161799
 30
0.0
 10
255.161981
 20
120.849499
 30
0.0
 10
255.973979
 20
121.439998
 30
0.0
 10
256.854981
 20
121.923998
 30
0.0
 10
257.788978
 20
122.293799
 30
0.0
 10
258.761979
 20
122.543698
 30
0.0
 10
259.758974
 20
122.669598
 30
0.0
 10
260.762980
 20
122.669598
 30
0.0
 10
261.759986
 20
122.543698
 30
0.0
 10
262.732976
 20
122.293799
 30
0.0
 10
263.666990
 20
121.923998
 30
0.0
 10
264.547975
 20
121.439998
 30
0.0
 10
265.359985
 20
120.849499
 30
0.0
 10
266.092972
 20
120.161799
 30
0.0
 10
266.732968
 20
119.387698
 30
0.0
 10
267.270968
 20
118.539400
 30
0.0
 10
267.510970
 20
118.030299
 30
0.0
 10
267.510970
 20
111.340498
 30
0.0
 10
267.270968
 20
110.831397
 30
0.0
 10
266.732968
 20
109.983099
 30
0.0
 10
266.092972
 20
109.208997
 30
0.0
 10
265.359985
 20
108.521298
 30
0.0
 10
264.547975
 20
107.930799
 30
0.0
 10
263.666990
 20
107.446799
 30
0.0
 10
262.732976
 20
107.076998
 30
0.0
 10
261.759986
 20
106.827098
 30
0.0
 10
260.762980
 20
106.701199
 30
0.0
 10
259.758974
 20
106.701199
 30
0.0
  0
LWPOLYLINE
  5
160
100
AcDbEntity
  8
Layer_1
 62
7
100
AcDbPolyline
 90
12
 70
0
 10
277.810980
 20
118.367498
 30
0.0
 10
277.810980
 20
119.553399
 30
0.0
 10
278.016974
 20
119.553399
 30
0.0
 10
278.016974
 20
119.071400
 30
0.0
 10
279.499967
 20
119.071400
 30
0.0
 10
279.218987
 20
119.498399
 30
0.0
 10
279.447982
 20
119.498399
 30
0.0
 10
279.730966
 20
119.051399
 30
0.0
 10
279.730966
 20
118.828500
 30
0.0
 10
278.016974
 20
118.828500
 30
0.0
 10
278.016974
 20
118.367498
 30
0.0
 10
277.810980
 20
118.367498
 30
0.0
  0
LWPOLYLINE
  5
161
100
AcDbEntity
  8
Layer_1
 62
7
100
AcDbPolyline
 90
51
 70
0
 10
287.012977
 20
110.743200
 30
0.0
 10
286.520979
 20
110.805399
 30
0.0
 10
286.039987
 20
110.928699
 30
0.0
 10
285.578977
 20
111.111299
 30
0.0
 10
285.143988
 20
111.350299
 30
0.0
 10
284.742979
 20
111.641897
 30
0.0
 10
284.381988
 20
111.981399
 30
0.0
 10
284.064968
 20
112.363598
 30
0.0
 10
283.799990
 20
112.782498
 30
0.0
 10
283.587984
 20
113.231299
 30
0.0
 10
283.434992
 20
113.703099
 30
0.0
 10
283.341971
 20
114.190299
 30
0.0
 10
283.310983
 20
114.685398
 30
0.0
 10
283.341971
 20
115.180498
 30
0.0
 10
283.434992
 20
115.667698
 30
0.0
 10
283.587984
 20
116.139498
 30
0.0
 10
283.799990
 20
116.588299
 30
0.0
 10
284.064968
 20
117.007099
 30
0.0
 10
284.381988
 20
117.389299
 30
0.0
 10
284.742979
 20
117.728900
 30
0.0
 10
285.143988
 20
118.020497
 30
0.0
 10
285.578977
 20
118.259497
 30
0.0
 10
286.039987
 20
118.442098
 30
0.0
 10
286.520979
 20
118.565398
 30
0.0
 10
287.012977
 20
118.627597
 30
0.0
 10
287.508982
 20
118.627597
 30
0.0
 10
288.000980
 20
118.565398
 30
0.0
 10
288.481972
 20
118.442098
 30
0.0
 10
288.942982
 20
118.259497
 30
0.0
 10
289.377971
 20
118.020497
 30
0.0
 10
289.778980
 20
117.728900
 30
0.0
 10
290.139971
 20
117.389299
 30
0.0
 10
290.456991
 20
117.007099
 30
0.0
 10
290.721969
 20
116.588299
 30
0.0
 10
290.933975
 20
116.139498
 30
0.0
 10
291.086967
 20
115.667698
 30
0.0
 10
291.179988
 20
115.180498
 30
0.0
 10
291.210976
 20
114.685398
 30
0.0
 10
291.179988
 20
114.190299
 30
0.0
 10
291.086967
 20
113.703099
 30
0.0
 10
290.933975
 20
113.231299
 30
0.0
 10
290.721969
 20
112.782498
 30
0.0
 10
290.456991
 20
112.363598
 30
0.0
 10
290.139971
 20
111.981399
 30
0.0
 10
289.778980
 20
111.641897
 30
0.0
 10
289.377971
 20
111.350299
 30
0.0
 10
288.942982
 20
111.111299
 30
0.0
 10
288.481972
 20
110.928699
 30
0.0
 10
288.000980
 20
110.805399
 30
0.0
 10
287.508982
 20
110.743200
 30
0.0
 10
287.012977
 20
110.743200
 30
0.0
  0
LWPOLYLINE
  5
162
100
AcDbEntity
  8
Layer_1
 62
7
100
AcDbPolyline
 90
12
 70
0
 10
271.732986
 20
116.116099
 30
0.0
 10
271.732986
 20
116.518099
 30
0.0
 10
271.060986
 20
116.518099
 30
0.0
 10
271.060986
 20
116.864097
 30
0.0
 10
271.732986
 20
116.864097
 30
0.0
 10
271.732986
 20
118.205099
 30
0.0
 10
272.016986
 20
118.205099
 30
0.0
 10
273.940980
 20
116.900098
 30
0.0
 10
273.940980
 20
116.518099
 30
0.0
 10
272.020994
 20
116.518099
 30
0.0
 10
272.020994
 20
116.116099
 30
0.0
 10
271.732986
 20
116.116099
 30
0.0
  0
LWPOLYLINE
  5
163
100
AcDbEntity
  8
Layer_1
 62
7
100
AcDbPolyline
 90
7
 70
0
 10
273.314982
 20
116.982199
 30
0.0
 10
272.210986
 20
117.726097
 30
0.0
 10
272.060984
 20
117.835097
 30
0.0
 10
272.020994
 20
117.867098
 30
0.0
 10
272.020994
 20
116.864097
 30
0.0
 10
273.528992
 20
116.864097
 30
0.0
 10
273.314982
 20
116.982199
 30
0.0
  0
LWPOLYLINE
  5
164
100
AcDbEntity
  8
Layer_1
 62
7
100
AcDbPolyline
 90
17
 70
0
 10
277.810980
 20
116.874300
 30
0.0
 10
277.810980
 20
118.132297
 30
0.0
 10
277.981978
 20
118.132297
 30
0.0
 10
278.025977
 20
118.112005
 30
0.0
 10
278.109966
 20
118.067699
 30
0.0
 10
278.186985
 20
118.018499
 30
0.0
 10
278.258980
 20
117.964298
 30
0.0
 10
278.357983
 20
117.877597
 30
0.0
 10
278.447984
 20
117.787297
 30
0.0
 10
278.530985
 20
117.694198
 30
0.0
 10
278.704975
 20
117.480397
 30
0.0
 10
278.799971
 20
117.371299
 30
0.0
 10
278.871966
 20
117.299899
 30
0.0
 10
278.920988
 20
117.258799
 30
0.0
 10
278.971986
 20
117.223200
 30
0.0
 10
279.024987
 20
117.192999
 30
0.0
 10
279.052080
 20
117.180892
 30
0.0
  0
LWPOLYLINE
  5
165
100
AcDbEntity
  8
Layer_1
 62
7
100
AcDbPolyline
 90
14
 70
0
 10
279.051968
 20
117.180898
 30
0.0
 10
279.080980
 20
117.170992
 30
0.0
 10
279.110980
 20
117.163208
 30
0.0
 10
279.140980
 20
117.157696
 30
0.0
 10
279.172984
 20
117.154397
 30
0.0
 10
279.204988
 20
117.153271
 30
0.0
 10
279.247971
 20
117.155275
 30
0.0
 10
279.287990
 20
117.160786
 30
0.0
 10
279.324989
 20
117.170196
 30
0.0
 10
279.359985
 20
117.183407
 30
0.0
 10
279.390973
 20
117.200303
 30
0.0
 10
279.419985
 20
117.220900
 30
0.0
 10
279.445950
 20
117.245312
 30
0.0
 10
279.468838
 20
117.273097
 30
0.0
  0
LWPOLYLINE
  5
166
100
AcDbEntity
  8
Layer_1
 62
7
100
AcDbPolyline
 90
4
 70
0
 10
279.468979
 20
117.273100
 30
0.0
 10
279.487888
 20
117.303698
 30
0.0
 10
279.504059
 20
117.337198
 30
0.0
 10
279.516110
 20
117.373698
 30
0.0
  0
LWPOLYLINE
  5
167
100
AcDbEntity
  8
Layer_1
 62
7
100
AcDbPolyline
 90
4
 70
0
 10
279.515969
 20
117.373698
 30
0.0
 10
279.525000
 20
117.412997
 30
0.0
 10
279.530052
 20
117.455198
 30
0.0
 10
279.532790
 20
117.500297
 30
0.0
  0
LWPOLYLINE
  5
168
100
AcDbEntity
  8
Layer_1
 62
7
100
AcDbPolyline
 90
2
 70
0
 10
279.531971
 20
117.500297
 30
0.0
 10
279.529149
 20
117.543499
 30
0.0
  0
LWPOLYLINE
  5
169
100
AcDbEntity
  8
Layer_1
 62
7
100
AcDbPolyline
 90
4
 70
0
 10
279.529967
 20
117.543499
 30
0.0
 10
279.524887
 20
117.584498
 30
0.0
 10
279.517070
 20
117.623298
 30
0.0
 10
279.504850
 20
117.659798
 30
0.0
  0
LWPOLYLINE
  5
16a
100
AcDbEntity
  8
Layer_1
 62
7
100
AcDbPolyline
 90
3
 70
0
 10
279.504991
 20
117.659798
 30
0.0
 10
279.488904
 20
117.694198
 30
0.0
 10
279.470080
 20
117.726399
 30
0.0
  0
LWPOLYLINE
  5
16b
100
AcDbEntity
  8
Layer_1
 62
7
100
AcDbPolyline
 90
3
 70
0
 10
279.469967
 20
117.726399
 30
0.0
 10
279.447954
 20
117.756298
 30
0.0
 10
279.422864
 20
117.783194
 30
0.0
  0
LWPOLYLINE
  5
16c
100
AcDbEntity
  8
Layer_1
 62
7
100
AcDbPolyline
 90
8
 70
0
 10
279.422977
 20
117.783199
 30
0.0
 10
279.393993
 20
117.806793
 30
0.0
 10
279.362976
 20
117.827006
 30
0.0
 10
279.329985
 20
117.843790
 30
0.0
 10
279.292985
 20
117.857398
 30
0.0
 10
279.253982
 20
117.867502
 30
0.0
 10
279.211988
 20
117.874301
 30
0.0
 10
279.235130
 20
118.121299
 30
0.0
  0
LWPOLYLINE
  5
16d
100
AcDbEntity
  8
Layer_1
 62
7
100
AcDbPolyline
 90
11
 70
0
 10
279.234989
 20
118.121299
 30
0.0
 10
279.297981
 20
118.110800
 30
0.0
 10
279.356993
 20
118.094513
 30
0.0
 10
279.411970
 20
118.072683
 30
0.0
 10
279.463984
 20
118.045096
 30
0.0
 10
279.511990
 20
118.011799
 30
0.0
 10
279.555988
 20
117.972898
 30
0.0
 10
279.595979
 20
117.928298
 30
0.0
 10
279.631991
 20
117.878698
 30
0.0
 10
279.661991
 20
117.825200
 30
0.0
 10
279.686826
 20
117.767897
 30
0.0
  0
LWPOLYLINE
  5
16e
100
AcDbEntity
  8
Layer_1
 62
7
100
AcDbPolyline
 90
2
 70
0
 10
279.686968
 20
117.767897
 30
0.0
 10
279.705876
 20
117.706799
 30
0.0
  0
LWPOLYLINE
  5
16f
100
AcDbEntity
  8
Layer_1
 62
7
100
AcDbPolyline
 90
2
 70
0
 10
279.705989
 20
117.706799
 30
0.0
 10
279.720100
 20
117.641797
 30
0.0
  0
LWPOLYLINE
  5
170
100
AcDbEntity
  8
Layer_1
 62
7
100
AcDbPolyline
 90
3
 70
0
 10
279.719988
 20
117.641797
 30
0.0
 10
279.727890
 20
117.572997
 30
0.0
 10
279.731079
 20
117.500297
 30
0.0
  0
LWPOLYLINE
  5
171
100
AcDbEntity
  8
Layer_1
 62
7
100
AcDbPolyline
 90
2
 70
0
 10
279.730966
 20
117.500297
 30
0.0
 10
279.727862
 20
117.420998
 30
0.0
  0
LWPOLYLINE
  5
172
100
AcDbEntity
  8
Layer_1
 62
7
100
AcDbPolyline
 90
3
 70
0
 10
279.727974
 20
117.420998
 30
0.0
 10
279.720072
 20
117.347200
 30
0.0
 10
279.705876
 20
117.278798
 30
0.0
  0
LWPOLYLINE
  5
173
100
AcDbEntity
  8
Layer_1
 62
7
100
AcDbPolyline
 90
2
 70
0
 10
279.705989
 20
117.278798
 30
0.0
 10
279.687080
 20
117.215797
 30
0.0
  0
LWPOLYLINE
  5
174
100
AcDbEntity
  8
Layer_1
 62
7
100
AcDbPolyline
 90
2
 70
0
 10
279.686968
 20
117.215797
 30
0.0
 10
279.662132
 20
117.158198
 30
0.0
  0
LWPOLYLINE
  5
175
100
AcDbEntity
  8
Layer_1
 62
7
100
AcDbPolyline
 90
31
 70
0
 10
279.661991
 20
117.158198
 30
0.0
 10
279.631991
 20
117.105999
 30
0.0
 10
279.595979
 20
117.059299
 30
0.0
 10
279.554972
 20
117.018199
 30
0.0
 10
279.509986
 20
116.983398
 30
0.0
 10
279.459976
 20
116.954900
 30
0.0
 10
279.404971
 20
116.932802
 30
0.0
 10
279.344971
 20
116.916994
 30
0.0
 10
279.281979
 20
116.907486
 30
0.0
 10
279.212975
 20
116.904308
 30
0.0
 10
279.181987
 20
116.905426
 30
0.0
 10
279.149983
 20
116.908502
 30
0.0
 10
279.118967
 20
116.913692
 30
0.0
 10
279.087979
 20
116.921008
 30
0.0
 10
279.055975
 20
116.930284
 30
0.0
 10
278.993971
 20
116.955303
 30
0.0
 10
278.931967
 20
116.987999
 30
0.0
 10
278.868975
 20
117.028800
 30
0.0
 10
278.806970
 20
117.077799
 30
0.0
 10
278.742991
 20
117.137599
 30
0.0
 10
278.660977
 20
117.224498
 30
0.0
 10
278.559970
 20
117.340999
 30
0.0
 10
278.403985
 20
117.530297
 30
0.0
 10
278.303966
 20
117.643897
 30
0.0
 10
278.241990
 20
117.706799
 30
0.0
 10
278.182977
 20
117.759600
 30
0.0
 10
278.126984
 20
117.803598
 30
0.0
 10
278.070991
 20
117.839198
 30
0.0
 10
278.016974
 20
117.866291
 30
0.0
 10
278.016974
 20
116.874300
 30
0.0
 10
277.810980
 20
116.874300
 30
0.0
  0
LWPOLYLINE
  5
176
100
AcDbEntity
  8
Layer_1
 62
7
100
AcDbPolyline
 90
5
 70
0
 10
278.427974
 20
115.253100
 30
0.0
 10
278.427974
 20
115.909097
 30
0.0
 10
278.642971
 20
115.909097
 30
0.0
 10
278.642971
 20
115.253100
 30
0.0
 10
278.427974
 20
115.253100
 30
0.0
  0
LWPOLYLINE
  5
177
100
AcDbEntity
  8
Layer_1
 62
7
100
AcDbPolyline
 90
12
 70
0
 10
271.746984
 20
113.921499
 30
0.0
 10
271.641969
 20
113.936908
 30
0.0
 10
271.542994
 20
113.962495
 30
0.0
 10
271.451977
 20
113.998297
 30
0.0
 10
271.368976
 20
114.044497
 30
0.0
 10
271.292973
 20
114.100798
 30
0.0
 10
271.223970
 20
114.167399
 30
0.0
 10
271.163969
 20
114.243599
 30
0.0
 10
271.112972
 20
114.328599
 30
0.0
 10
271.070977
 20
114.422599
 30
0.0
 10
271.038973
 20
114.525398
 30
0.0
 10
271.015831
 20
114.637198
 30
0.0
  0
LWPOLYLINE
  5
178
100
AcDbEntity
  8
Layer_1
 62
7
100
AcDbPolyline
 90
2
 70
0
 10
271.015972
 20
114.637198
 30
0.0
 10
271.001861
 20
114.757800
 30
0.0
  0
LWPOLYLINE
  5
179
100
AcDbEntity
  8
Layer_1
 62
7
100
AcDbPolyline
 90
5
 70
0
 10
271.001974
 20
114.757800
 30
0.0
 10
270.996894
 20
114.887399
 30
0.0
 10
271.002058
 20
115.013899
 30
0.0
 10
271.014956
 20
115.132297
 30
0.0
 10
271.038126
 20
115.242499
 30
0.0
  0
LWPOLYLINE
  5
17a
100
AcDbEntity
  8
Layer_1
 62
7
100
AcDbPolyline
 90
27
 70
0
 10
271.037985
 20
115.242499
 30
0.0
 10
271.069989
 20
115.344698
 30
0.0
 10
271.110968
 20
115.438697
 30
0.0
 10
271.160978
 20
115.524597
 30
0.0
 10
271.219990
 20
115.602398
 30
0.0
 10
271.287978
 20
115.670800
 30
0.0
 10
271.362992
 20
115.728698
 30
0.0
 10
271.446982
 20
115.776100
 30
0.0
 10
271.536982
 20
115.812997
 30
0.0
 10
271.635986
 20
115.839301
 30
0.0
 10
271.741989
 20
115.855102
 30
0.0
 10
271.855978
 20
115.860405
 30
0.0
 10
271.935988
 20
115.857098
 30
0.0
 10
272.012978
 20
115.847389
 30
0.0
 10
272.085989
 20
115.831198
 30
0.0
 10
272.154993
 20
115.808394
 30
0.0
 10
272.219988
 20
115.779297
 30
0.0
 10
272.281993
 20
115.743599
 30
0.0
 10
272.339989
 20
115.701398
 30
0.0
 10
272.392991
 20
115.653799
 30
0.0
 10
272.439981
 20
115.602700
 30
0.0
 10
272.479972
 20
115.547898
 30
0.0
 10
272.514967
 20
115.489497
 30
0.0
 10
272.542060
 20
115.427397
 30
0.0
 10
272.563989
 20
115.361699
 30
0.0
 10
272.578947
 20
115.292399
 30
0.0
 10
272.586877
 20
115.292399
 30
0.0
  0
LWPOLYLINE
  5
17b
100
AcDbEntity
  8
Layer_1
 62
7
100
AcDbPolyline
 90
27
 70
0
 10
272.586990
 20
115.292399
 30
0.0
 10
272.605899
 20
115.356698
 30
0.0
 10
272.629973
 20
115.416997
 30
0.0
 10
272.658985
 20
115.473399
 30
0.0
 10
272.692993
 20
115.525800
 30
0.0
 10
272.732984
 20
115.574300
 30
0.0
 10
272.777970
 20
115.618798
 30
0.0
 10
272.827980
 20
115.659398
 30
0.0
 10
272.881969
 20
115.694899
 30
0.0
 10
272.938978
 20
115.724998
 30
0.0
 10
272.997990
 20
115.749608
 30
0.0
 10
273.059966
 20
115.768790
 30
0.0
 10
273.124990
 20
115.782402
 30
0.0
 10
273.191990
 20
115.790612
 30
0.0
 10
273.261981
 20
115.793420
 30
0.0
 10
273.353986
 20
115.788402
 30
0.0
 10
273.440966
 20
115.773498
 30
0.0
 10
273.522980
 20
115.748690
 30
0.0
 10
273.598983
 20
115.714000
 30
0.0
 10
273.670978
 20
115.669397
 30
0.0
 10
273.737977
 20
115.614798
 30
0.0
 10
273.798994
 20
115.550398
 30
0.0
 10
273.853970
 20
115.477300
 30
0.0
 10
273.899973
 20
115.397298
 30
0.0
 10
273.937988
 20
115.310600
 30
0.0
 10
273.966972
 20
115.216998
 30
0.0
 10
273.987857
 20
115.116597
 30
0.0
  0
LWPOLYLINE
  5
17c
100
AcDbEntity
  8
Layer_1
 62
7
100
AcDbPolyline
 90
47
 70
0
 10
273.987970
 20
115.116597
 30
0.0
 10
274.000952
 20
115.009398
 30
0.0
 10
274.004931
 20
114.895397
 30
0.0
 10
274.001036
 20
114.778698
 30
0.0
 10
273.987998
 20
114.669298
 30
0.0
 10
273.967932
 20
114.567198
 30
0.0
 10
273.938976
 20
114.472400
 30
0.0
 10
273.901976
 20
114.384798
 30
0.0
 10
273.856990
 20
114.304398
 30
0.0
 10
273.802973
 20
114.231399
 30
0.0
 10
273.742972
 20
114.166598
 30
0.0
 10
273.675973
 20
114.111897
 30
0.0
 10
273.603978
 20
114.067097
 30
0.0
 10
273.526988
 20
114.032198
 30
0.0
 10
273.442970
 20
114.007306
 30
0.0
 10
273.352970
 20
113.992396
 30
0.0
 10
273.257974
 20
113.987404
 30
0.0
 10
273.187982
 20
113.990220
 30
0.0
 10
273.120983
 20
113.998495
 30
0.0
 10
273.055987
 20
114.012383
 30
0.0
 10
272.993983
 20
114.031786
 30
0.0
 10
272.933982
 20
114.056802
 30
0.0
 10
272.876974
 20
114.087299
 30
0.0
 10
272.822984
 20
114.123398
 30
0.0
 10
272.772975
 20
114.163998
 30
0.0
 10
272.728976
 20
114.208697
 30
0.0
 10
272.689973
 20
114.257499
 30
0.0
 10
272.656981
 20
114.310297
 30
0.0
 10
272.629041
 20
114.367297
 30
0.0
 10
272.606972
 20
114.428300
 30
0.0
 10
272.590885
 20
114.493397
 30
0.0
 10
272.583067
 20
114.493397
 30
0.0
 10
272.566896
 20
114.417897
 30
0.0
 10
272.544967
 20
114.347299
 30
0.0
 10
272.515983
 20
114.281598
 30
0.0
 10
272.481975
 20
114.220897
 30
0.0
 10
272.441984
 20
114.165099
 30
0.0
 10
272.394966
 20
114.114299
 30
0.0
 10
272.342981
 20
114.068398
 30
0.0
 10
272.285972
 20
114.028097
 30
0.0
 10
272.224984
 20
113.993897
 30
0.0
 10
272.159988
 20
113.965986
 30
0.0
 10
272.090985
 20
113.944294
 30
0.0
 10
272.017974
 20
113.928806
 30
0.0
 10
271.940984
 20
113.919484
 30
0.0
 10
271.859986
 20
113.916394
 30
0.0
 10
271.746984
 20
113.921507
 30
0.0
  0
LWPOLYLINE
  5
17d
100
AcDbEntity
  8
Layer_1
 62
7
100
AcDbPolyline
 90
18
 70
0
 10
271.969968
 20
114.299598
 30
0.0
 10
272.040975
 20
114.309306
 30
0.0
 10
272.105971
 20
114.325413
 30
0.0
 10
272.164983
 20
114.348005
 30
0.0
 10
272.218972
 20
114.376997
 30
0.0
 10
272.266978
 20
114.412498
 30
0.0
 10
272.309989
 20
114.454399
 30
0.0
 10
272.346988
 20
114.501799
 30
0.0
 10
272.378992
 20
114.554498
 30
0.0
 10
272.404957
 20
114.612297
 30
0.0
 10
272.425023
 20
114.675298
 30
0.0
 10
272.439078
 20
114.743499
 30
0.0
 10
272.448024
 20
114.816798
 30
0.0
 10
272.451072
 20
114.895397
 30
0.0
 10
272.447883
 20
114.971797
 30
0.0
 10
272.438936
 20
115.043298
 30
0.0
 10
272.422906
 20
115.109897
 30
0.0
 10
272.402106
 20
115.171600
 30
0.0
  0
LWPOLYLINE
  5
17e
100
AcDbEntity
  8
Layer_1
 62
7
100
AcDbPolyline
 90
19
 70
0
 10
272.401994
 20
115.171600
 30
0.0
 10
272.374054
 20
115.228400
 30
0.0
 10
272.339989
 20
115.280399
 30
0.0
 10
272.299970
 20
115.327397
 30
0.0
 10
272.254984
 20
115.368497
 30
0.0
 10
272.203986
 20
115.403298
 30
0.0
 10
272.149969
 20
115.431797
 30
0.0
 10
272.090985
 20
115.453895
 30
0.0
 10
272.026977
 20
115.469702
 30
0.0
 10
271.957973
 20
115.479210
 30
0.0
 10
271.884991
 20
115.482388
 30
0.0
 10
271.721979
 20
115.470095
 30
0.0
 10
271.583972
 20
115.433499
 30
0.0
 10
271.470971
 20
115.372398
 30
0.0
 10
271.383990
 20
115.286800
 30
0.0
 10
271.320970
 20
115.176798
 30
0.0
 10
271.283970
 20
115.042299
 30
0.0
 10
271.270988
 20
114.883397
 30
0.0
 10
271.274092
 20
114.801598
 30
0.0
  0
LWPOLYLINE
  5
17f
100
AcDbEntity
  8
Layer_1
 62
7
100
AcDbPolyline
 90
15
 70
0
 10
271.273980
 20
114.801598
 30
0.0
 10
271.283011
 20
114.726098
 30
0.0
 10
271.297940
 20
114.656699
 30
0.0
 10
271.319982
 20
114.593597
 30
0.0
 10
271.347075
 20
114.536698
 30
0.0
 10
271.379982
 20
114.485898
 30
0.0
 10
271.419973
 20
114.441397
 30
0.0
 10
271.465975
 20
114.402900
 30
0.0
 10
271.518977
 20
114.370399
 30
0.0
 10
271.579993
 20
114.343701
 30
0.0
 10
271.647980
 20
114.322983
 30
0.0
 10
271.722967
 20
114.308208
 30
0.0
 10
271.804981
 20
114.299392
 30
0.0
 10
271.893994
 20
114.296406
 30
0.0
 10
271.969968
 20
114.299586
 30
0.0
  0
LWPOLYLINE
  5
180
100
AcDbEntity
  8
Layer_1
 62
7
100
AcDbPolyline
 90
7
 70
0
 10
273.368972
 20
114.378199
 30
0.0
 10
273.479970
 20
114.410500
 30
0.0
 10
273.570986
 20
114.464399
 30
0.0
 10
273.641993
 20
114.539797
 30
0.0
 10
273.692991
 20
114.636797
 30
0.0
 10
273.722991
 20
114.755299
 30
0.0
 10
273.732869
 20
114.895397
 30
0.0
  0
LWPOLYLINE
  5
181
100
AcDbEntity
  8
Layer_1
 62
7
100
AcDbPolyline
 90
2
 70
0
 10
273.732982
 20
114.895397
 30
0.0
 10
273.729877
 20
114.965998
 30
0.0
  0
LWPOLYLINE
  5
182
100
AcDbEntity
  8
Layer_1
 62
7
100
AcDbPolyline
 90
29
 70
0
 10
273.729990
 20
114.965998
 30
0.0
 10
273.722935
 20
115.031699
 30
0.0
 10
273.710009
 20
115.092399
 30
0.0
 10
273.691918
 20
115.148099
 30
0.0
 10
273.669962
 20
115.198797
 30
0.0
 10
273.642050
 20
115.244599
 30
0.0
 10
273.608973
 20
115.285397
 30
0.0
 10
273.570986
 20
115.320898
 30
0.0
 10
273.527976
 20
115.351000
 30
0.0
 10
273.479970
 20
115.375609
 30
0.0
 10
273.426968
 20
115.394789
 30
0.0
 10
273.368972
 20
115.408401
 30
0.0
 10
273.305980
 20
115.416611
 30
0.0
 10
273.237992
 20
115.419422
 30
0.0
 10
273.168989
 20
115.416577
 30
0.0
 10
273.104981
 20
115.408105
 30
0.0
 10
273.044980
 20
115.393988
 30
0.0
 10
272.990991
 20
115.374300
 30
0.0
 10
272.940982
 20
115.349010
 30
0.0
 10
272.895967
 20
115.317999
 30
0.0
 10
272.855976
 20
115.281398
 30
0.0
 10
272.820981
 20
115.239598
 30
0.0
 10
272.791968
 20
115.193198
 30
0.0
 10
272.767979
 20
115.142099
 30
0.0
 10
272.749070
 20
115.086399
 30
0.0
 10
272.736004
 20
115.026097
 30
0.0
 10
272.728073
 20
114.961098
 30
0.0
 10
272.724884
 20
114.891398
 30
0.0
 10
272.727791
 20
114.820699
 30
0.0
  0
LWPOLYLINE
  5
183
100
AcDbEntity
  8
Layer_1
 62
7
100
AcDbPolyline
 90
2
 70
0
 10
272.726972
 20
114.820699
 30
0.0
 10
272.734875
 20
114.754997
 30
0.0
  0
LWPOLYLINE
  5
184
100
AcDbEntity
  8
Layer_1
 62
7
100
AcDbPolyline
 90
2
 70
0
 10
272.734988
 20
114.754997
 30
0.0
 10
272.747123
 20
114.694398
 30
0.0
  0
LWPOLYLINE
  5
185
100
AcDbEntity
  8
Layer_1
 62
7
100
AcDbPolyline
 90
3
 70
0
 10
272.746982
 20
114.694398
 30
0.0
 10
272.763915
 20
114.638597
 30
0.0
 10
272.787114
 20
114.587899
 30
0.0
  0
LWPOLYLINE
  5
186
100
AcDbEntity
  8
Layer_1
 62
7
100
AcDbPolyline
 90
10
 70
0
 10
272.786973
 20
114.587899
 30
0.0
 10
272.814066
 20
114.542199
 30
0.0
 10
272.845986
 20
114.501398
 30
0.0
 10
272.883973
 20
114.465798
 30
0.0
 10
272.926983
 20
114.435798
 30
0.0
 10
272.976993
 20
114.411104
 30
0.0
 10
273.032986
 20
114.391992
 30
0.0
 10
273.094990
 20
114.378310
 30
0.0
 10
273.163994
 20
114.370114
 30
0.0
 10
273.237992
 20
114.367277
 30
0.0
  0
LWPOLYLINE
  5
187
100
AcDbEntity
  8
Layer_1
 62
7
100
AcDbPolyline
 90
2
 70
0
 10
273.237992
 20
114.367399
 30
0.0
 10
273.368972
 20
114.378208
 30
0.0
  0
LWPOLYLINE
  5
188
100
AcDbEntity
  8
Layer_1
 62
7
100
AcDbPolyline
 90
17
 70
0
 10
277.810980
 20
112.990597
 30
0.0
 10
277.810980
 20
114.248597
 30
0.0
 10
277.981978
 20
114.248597
 30
0.0
 10
278.025977
 20
114.228193
 30
0.0
 10
278.109966
 20
114.183898
 30
0.0
 10
278.186985
 20
114.134698
 30
0.0
 10
278.258980
 20
114.080599
 30
0.0
 10
278.357983
 20
113.993897
 30
0.0
 10
278.447984
 20
113.903499
 30
0.0
 10
278.530985
 20
113.810399
 30
0.0
 10
278.704975
 20
113.596599
 30
0.0
 10
278.799971
 20
113.487599
 30
0.0
 10
278.871966
 20
113.416098
 30
0.0
 10
278.920988
 20
113.375097
 30
0.0
 10
278.971986
 20
113.339399
 30
0.0
 10
279.024987
 20
113.309198
 30
0.0
 10
279.052080
 20
113.297091
 30
0.0
  0
LWPOLYLINE
  5
189
100
AcDbEntity
  8
Layer_1
 62
7
100
AcDbPolyline
 90
7
 70
0
 10
279.051968
 20
113.297099
 30
0.0
 10
279.080980
 20
113.287193
 30
0.0
 10
279.110980
 20
113.279494
 30
0.0
 10
279.140980
 20
113.273994
 30
0.0
 10
279.172984
 20
113.270697
 30
0.0
 10
279.204988
 20
113.269568
 30
0.0
 10
279.247971
 20
113.271293
 30
0.0
  0
LWPOLYLINE
  5
18a
100
AcDbEntity
  8
Layer_1
 62
7
100
AcDbPolyline
 90
8
 70
0
 10
279.247971
 20
113.271397
 30
0.0
 10
279.287990
 20
113.277098
 30
0.0
 10
279.324989
 20
113.286496
 30
0.0
 10
279.359985
 20
113.299594
 30
0.0
 10
279.390973
 20
113.316502
 30
0.0
 10
279.419985
 20
113.337101
 30
0.0
 10
279.445950
 20
113.361596
 30
0.0
 10
279.468838
 20
113.389313
 30
0.0
  0
LWPOLYLINE
  5
18b
100
AcDbEntity
  8
Layer_1
 62
7
100
AcDbPolyline
 90
4
 70
0
 10
279.468979
 20
113.389298
 30
0.0
 10
279.487888
 20
113.419900
 30
0.0
 10
279.504059
 20
113.453498
 30
0.0
 10
279.516110
 20
113.489899
 30
0.0
  0
LWPOLYLINE
  5
18c
100
AcDbEntity
  8
Layer_1
 62
7
100
AcDbPolyline
 90
4
 70
0
 10
279.515969
 20
113.489899
 30
0.0
 10
279.525000
 20
113.529199
 30
0.0
 10
279.530052
 20
113.571400
 30
0.0
 10
279.532790
 20
113.616597
 30
0.0
  0
LWPOLYLINE
  5
18d
100
AcDbEntity
  8
Layer_1
 62
7
100
AcDbPolyline
 90
2
 70
0
 10
279.531971
 20
113.616597
 30
0.0
 10
279.529149
 20
113.659698
 30
0.0
  0
LWPOLYLINE
  5
18e
100
AcDbEntity
  8
Layer_1
 62
7
100
AcDbPolyline
 90
4
 70
0
 10
279.529967
 20
113.659698
 30
0.0
 10
279.524887
 20
113.700700
 30
0.0
 10
279.517070
 20
113.739500
 30
0.0
 10
279.504850
 20
113.776098
 30
0.0
  0
LWPOLYLINE
  5
18f
100
AcDbEntity
  8
Layer_1
 62
7
100
AcDbPolyline
 90
3
 70
0
 10
279.504991
 20
113.776098
 30
0.0
 10
279.488904
 20
113.810399
 30
0.0
 10
279.470080
 20
113.842598
 30
0.0
  0
LWPOLYLINE
  5
190
100
AcDbEntity
  8
Layer_1
 62
7
100
AcDbPolyline
 90
3
 70
0
 10
279.469967
 20
113.842598
 30
0.0
 10
279.447954
 20
113.872500
 30
0.0
 10
279.422864
 20
113.899508
 30
0.0
  0
LWPOLYLINE
  5
191
100
AcDbEntity
  8
Layer_1
 62
7
100
AcDbPolyline
 90
8
 70
0
 10
279.422977
 20
113.899497
 30
0.0
 10
279.393993
 20
113.923006
 30
0.0
 10
279.362976
 20
113.943205
 30
0.0
 10
279.329985
 20
113.960104
 30
0.0
 10
279.292985
 20
113.973589
 30
0.0
 10
279.253982
 20
113.983701
 30
0.0
 10
279.211988
 20
113.990612
 30
0.0
 10
279.235130
 20
114.237599
 30
0.0
  0
LWPOLYLINE
  5
192
100
AcDbEntity
  8
Layer_1
 62
7
100
AcDbPolyline
 90
11
 70
0
 10
279.234989
 20
114.237599
 30
0.0
 10
279.297981
 20
114.226988
 30
0.0
 10
279.356993
 20
114.210799
 30
0.0
 10
279.411970
 20
114.188899
 30
0.0
 10
279.463984
 20
114.161298
 30
0.0
 10
279.511990
 20
114.128100
 30
0.0
 10
279.555988
 20
114.089099
 30
0.0
 10
279.595979
 20
114.044599
 30
0.0
 10
279.631991
 20
113.994899
 30
0.0
 10
279.661991
 20
113.941497
 30
0.0
 10
279.686826
 20
113.884099
 30
0.0
  0
LWPOLYLINE
  5
193
100
AcDbEntity
  8
Layer_1
 62
7
100
AcDbPolyline
 90
2
 70
0
 10
279.686968
 20
113.884099
 30
0.0
 10
279.705876
 20
113.822998
 30
0.0
  0
LWPOLYLINE
  5
194
100
AcDbEntity
  8
Layer_1
 62
7
100
AcDbPolyline
 90
2
 70
0
 10
279.705989
 20
113.822998
 30
0.0
 10
279.720100
 20
113.757999
 30
0.0
  0
LWPOLYLINE
  5
195
100
AcDbEntity
  8
Layer_1
 62
7
100
AcDbPolyline
 90
3
 70
0
 10
279.719988
 20
113.757999
 30
0.0
 10
279.727890
 20
113.689199
 30
0.0
 10
279.731079
 20
113.616597
 30
0.0
  0
LWPOLYLINE
  5
196
100
AcDbEntity
  8
Layer_1
 62
7
100
AcDbPolyline
 90
2
 70
0
 10
279.730966
 20
113.616597
 30
0.0
 10
279.727862
 20
113.537299
 30
0.0
  0
LWPOLYLINE
  5
197
100
AcDbEntity
  8
Layer_1
 62
7
100
AcDbPolyline
 90
3
 70
0
 10
279.727974
 20
113.537299
 30
0.0
 10
279.720072
 20
113.463399
 30
0.0
 10
279.705876
 20
113.394999
 30
0.0
  0
LWPOLYLINE
  5
198
100
AcDbEntity
  8
Layer_1
 62
7
100
AcDbPolyline
 90
2
 70
0
 10
279.705989
 20
113.394999
 30
0.0
 10
279.687080
 20
113.331999
 30
0.0
  0
LWPOLYLINE
  5
199
100
AcDbEntity
  8
Layer_1
 62
7
100
AcDbPolyline
 90
2
 70
0
 10
279.686968
 20
113.331999
 30
0.0
 10
279.662132
 20
113.274397
 30
0.0
  0
LWPOLYLINE
  5
19a
100
AcDbEntity
  8
Layer_1
 62
7
100
AcDbPolyline
 90
11
 70
0
 10
279.661991
 20
113.274397
 30
0.0
 10
279.631991
 20
113.222299
 30
0.0
 10
279.595979
 20
113.175600
 30
0.0
 10
279.554972
 20
113.134398
 30
0.0
 10
279.509986
 20
113.099597
 30
0.0
 10
279.459976
 20
113.071197
 30
0.0
 10
279.404971
 20
113.048986
 30
0.0
 10
279.344971
 20
113.033193
 30
0.0
 10
279.281979
 20
113.023688
 30
0.0
 10
279.212975
 20
113.020595
 30
0.0
 10
279.181987
 20
113.021727
 30
0.0
  0
LWPOLYLINE
  5
19b
100
AcDbEntity
  8
Layer_1
 62
7
100
AcDbPolyline
 90
21
 70
0
 10
279.181987
 20
113.021600
 30
0.0
 10
279.149983
 20
113.024704
 30
0.0
 10
279.118967
 20
113.029891
 30
0.0
 10
279.087979
 20
113.037209
 30
0.0
 10
279.055975
 20
113.046596
 30
0.0
 10
278.993971
 20
113.071604
 30
0.0
 10
278.931967
 20
113.104198
 30
0.0
 10
278.868975
 20
113.144998
 30
0.0
 10
278.806970
 20
113.193998
 30
0.0
 10
278.742991
 20
113.253798
 30
0.0
 10
278.660977
 20
113.340700
 30
0.0
 10
278.559970
 20
113.457297
 30
0.0
 10
278.403985
 20
113.646598
 30
0.0
 10
278.303966
 20
113.760099
 30
0.0
 10
278.241990
 20
113.822998
 30
0.0
 10
278.182977
 20
113.875799
 30
0.0
 10
278.126984
 20
113.919899
 30
0.0
 10
278.070991
 20
113.955498
 30
0.0
 10
278.016974
 20
113.982507
 30
0.0
 10
278.016974
 20
112.990597
 30
0.0
 10
277.810980
 20
112.990597
 30
0.0
  0
LWPOLYLINE
  5
19c
100
AcDbEntity
  8
Layer_1
 62
7
100
AcDbPolyline
 90
10
 70
0
 10
271.060986
 20
112.203598
 30
0.0
 10
271.060986
 20
112.605598
 30
0.0
 10
273.940980
 20
113.762599
 30
0.0
 10
273.940980
 20
113.353597
 30
0.0
 10
271.910983
 20
112.571599
 30
0.0
 10
271.401967
 20
112.402599
 30
0.0
 10
271.910983
 20
112.233598
 30
0.0
 10
273.940980
 20
111.454597
 30
0.0
 10
273.940980
 20
111.046597
 30
0.0
 10
271.060986
 20
112.203598
 30
0.0
  0
LWPOLYLINE
  5
19d
100
AcDbEntity
  8
Layer_1
 62
7
100
AcDbPolyline
 90
12
 70
0
 10
278.259967
 20
111.438398
 30
0.0
 10
278.259967
 20
111.704398
 30
0.0
 10
277.810980
 20
111.704398
 30
0.0
 10
277.810980
 20
111.933399
 30
0.0
 10
278.259967
 20
111.933399
 30
0.0
 10
278.259967
 20
112.829398
 30
0.0
 10
278.448972
 20
112.829398
 30
0.0
 10
279.730966
 20
111.959397
 30
0.0
 10
279.730966
 20
111.704398
 30
0.0
 10
278.450975
 20
111.704398
 30
0.0
 10
278.450975
 20
111.438398
 30
0.0
 10
278.259967
 20
111.438398
 30
0.0
  0
LWPOLYLINE
  5
19e
100
AcDbEntity
  8
Layer_1
 62
7
100
AcDbPolyline
 90
7
 70
0
 10
279.339975
 20
111.998298
 30
0.0
 10
278.577975
 20
112.511398
 30
0.0
 10
278.477984
 20
112.584398
 30
0.0
 10
278.450891
 20
112.606411
 30
0.0
 10
278.450975
 20
111.933399
 30
0.0
 10
279.458988
 20
111.933399
 30
0.0
 10
279.339975
 20
111.998298
 30
0.0
  0
LWPOLYLINE
  5
19f
100
AcDbEntity
  8
Layer_1
 62
7
100
AcDbPolyline
 90
10
 70
0
 10
277.810980
 20
110.336297
 30
0.0
 10
277.810980
 20
110.602298
 30
0.0
 10
279.730966
 20
111.385298
 30
0.0
 10
279.730966
 20
111.115299
 30
0.0
 10
278.376977
 20
110.583298
 30
0.0
 10
278.036984
 20
110.468298
 30
0.0
 10
278.376977
 20
110.353299
 30
0.0
 10
279.730966
 20
109.823299
 30
0.0
 10
279.730966
 20
109.553297
 30
0.0
 10
277.810980
 20
110.336297
 30
0.0
  0
LWPOLYLINE
  5
1a0
100
AcDbEntity
  8
Layer_1
 62
7
100
AcDbPolyline
 90
5
 70
0
 10
253.760979
 20
57.185398
 30
0.0
 10
253.760979
 20
97.185399
 30
0.0
 10
293.760966
 20
97.185399
 30
0.0
 10
293.760966
 20
57.185398
 30
0.0
 10
253.760979
 20
57.185398
 30
0.0
  0
LWPOLYLINE
  5
1a1
100
AcDbEntity
  8
Layer_1
 62
7
100
AcDbPolyline
 90
61
 70
0
 10
290.037976
 20
90.549898
 30
0.0
 10
290.311985
 20
90.593298
 30
0.0
 10
290.579983
 20
90.665098
 30
0.0
 10
290.838979
 20
90.764500
 30
0.0
 10
291.085980
 20
90.890399
 30
0.0
 10
291.318982
 20
91.041498
 30
0.0
 10
291.533979
 20
91.216098
 30
0.0
 10
291.729982
 20
91.412200
 30
0.0
 10
291.904988
 20
91.627798
 30
0.0
 10
292.055977
 20
91.860400
 30
0.0
 10
292.181990
 20
92.107499
 30
0.0
 10
292.280993
 20
92.366497
 30
0.0
 10
292.352988
 20
92.634400
 30
0.0
 10
292.395970
 20
92.908398
 30
0.0
 10
292.410928
 20
93.185399
 30
0.0
 10
292.396027
 20
93.462397
 30
0.0
 10
292.352988
 20
93.736398
 30
0.0
 10
292.280993
 20
94.004298
 30
0.0
 10
292.181990
 20
94.263299
 30
0.0
 10
292.055977
 20
94.510398
 30
0.0
 10
291.904988
 20
94.742998
 30
0.0
 10
291.729982
 20
94.958598
 30
0.0
 10
291.533979
 20
95.154698
 30
0.0
 10
291.318982
 20
95.329297
 30
0.0
 10
291.085980
 20
95.480399
 30
0.0
 10
290.838979
 20
95.606298
 30
0.0
 10
290.579983
 20
95.705697
 30
0.0
 10
290.311985
 20
95.777497
 30
0.0
 10
290.037976
 20
95.820897
 30
0.0
 10
289.760974
 20
95.835404
 30
0.0
 10
289.483973
 20
95.820892
 30
0.0
 10
289.209992
 20
95.777497
 30
0.0
 10
288.941994
 20
95.705697
 30
0.0
 10
288.682970
 20
95.606298
 30
0.0
 10
288.435969
 20
95.480399
 30
0.0
 10
288.202967
 20
95.329297
 30
0.0
 10
287.987970
 20
95.154698
 30
0.0
 10
287.791966
 20
94.958598
 30
0.0
 10
287.616989
 20
94.742998
 30
0.0
 10
287.465972
 20
94.510398
 30
0.0
 10
287.339988
 20
94.263299
 30
0.0
 10
287.240984
 20
94.004298
 30
0.0
 10
287.168989
 20
93.736398
 30
0.0
 10
287.125978
 20
93.462397
 30
0.0
 10
287.111021
 20
93.185399
 30
0.0
 10
287.125950
 20
92.908398
 30
0.0
 10
287.168989
 20
92.634400
 30
0.0
 10
287.240984
 20
92.366497
 30
0.0
 10
287.339988
 20
92.107499
 30
0.0
 10
287.465972
 20
91.860400
 30
0.0
 10
287.616989
 20
91.627798
 30
0.0
 10
287.791966
 20
91.412200
 30
0.0
 10
287.987970
 20
91.216098
 30
0.0
 10
288.202967
 20
91.041498
 30
0.0
 10
288.435969
 20
90.890399
 30
0.0
 10
288.682970
 20
90.764500
 30
0.0
 10
288.941994
 20
90.665098
 30
0.0
 10
289.209992
 20
90.593298
 30
0.0
 10
289.483973
 20
90.549898
 30
0.0
 10
289.760974
 20
90.535392
 30
0.0
 10
290.037976
 20
90.549903
 30
0.0
  0
LWPOLYLINE
  5
1a2
100
AcDbEntity
  8
Layer_1
 62
7
100
AcDbPolyline
 90
61
 70
0
 10
258.037980
 20
90.549898
 30
0.0
 10
258.311979
 20
90.593298
 30
0.0
 10
258.579980
 20
90.665098
 30
0.0
 10
258.838981
 20
90.764500
 30
0.0
 10
259.085987
 20
90.890399
 30
0.0
 10
259.318990
 20
91.041498
 30
0.0
 10
259.533987
 20
91.216098
 30
0.0
 10
259.729990
 20
91.412200
 30
0.0
 10
259.904968
 20
91.627798
 30
0.0
 10
260.055985
 20
91.860400
 30
0.0
 10
260.181969
 20
92.107499
 30
0.0
 10
260.280972
 20
92.366497
 30
0.0
 10
260.352967
 20
92.634400
 30
0.0
 10
260.395978
 20
92.908398
 30
0.0
 10
260.410936
 20
93.185399
 30
0.0
 10
260.396034
 20
93.462397
 30
0.0
 10
260.352967
 20
93.736398
 30
0.0
 10
260.280972
 20
94.004298
 30
0.0
 10
260.181969
 20
94.263299
 30
0.0
 10
260.055985
 20
94.510398
 30
0.0
 10
259.904968
 20
94.742998
 30
0.0
 10
259.729990
 20
94.958598
 30
0.0
 10
259.533987
 20
95.154698
 30
0.0
 10
259.318990
 20
95.329297
 30
0.0
 10
259.085987
 20
95.480399
 30
0.0
 10
258.838981
 20
95.606298
 30
0.0
 10
258.579980
 20
95.705697
 30
0.0
 10
258.311979
 20
95.777497
 30
0.0
 10
258.037980
 20
95.820897
 30
0.0
 10
257.760979
 20
95.835404
 30
0.0
 10
257.483981
 20
95.820892
 30
0.0
 10
257.209980
 20
95.777497
 30
0.0
 10
256.941979
 20
95.705697
 30
0.0
 10
256.682981
 20
95.606298
 30
0.0
 10
256.435980
 20
95.480399
 30
0.0
 10
256.202980
 20
95.329297
 30
0.0
 10
255.987980
 20
95.154698
 30
0.0
 10
255.791980
 20
94.958598
 30
0.0
 10
255.616979
 20
94.742998
 30
0.0
 10
255.465979
 20
94.510398
 30
0.0
 10
255.339981
 20
94.263299
 30
0.0
 10
255.240980
 20
94.004298
 30
0.0
 10
255.168980
 20
93.736398
 30
0.0
 10
255.125980
 20
93.462397
 30
0.0
 10
255.110994
 20
93.185399
 30
0.0
 10
255.125966
 20
92.908398
 30
0.0
 10
255.168980
 20
92.634400
 30
0.0
 10
255.240980
 20
92.366497
 30
0.0
 10
255.339981
 20
92.107499
 30
0.0
 10
255.465979
 20
91.860400
 30
0.0
 10
255.616979
 20
91.627798
 30
0.0
 10
255.791980
 20
91.412200
 30
0.0
 10
255.987980
 20
91.216098
 30
0.0
 10
256.202980
 20
91.041498
 30
0.0
 10
256.435980
 20
90.890399
 30
0.0
 10
256.682981
 20
90.764500
 30
0.0
 10
256.941979
 20
90.665098
 30
0.0
 10
257.209980
 20
90.593298
 30
0.0
 10
257.483981
 20
90.549898
 30
0.0
 10
257.760979
 20
90.535392
 30
0.0
 10
258.037980
 20
90.549903
 30
0.0
  0
LWPOLYLINE
  5
1a3
100
AcDbEntity
  8
Layer_1
 62
7
100
AcDbPolyline
 90
61
 70
0
 10
275.642977
 20
59.283999
 30
0.0
 10
277.502991
 20
59.578797
 30
0.0
 10
279.322986
 20
60.066398
 30
0.0
 10
281.081992
 20
60.741598
 30
0.0
 10
282.760988
 20
61.596898
 30
0.0
 10
284.340981
 20
62.623097
 30
0.0
 10
285.804981
 20
63.808798
 30
0.0
 10
287.137973
 20
65.141098
 30
0.0
 10
288.322968
 20
66.605298
 30
0.0
 10
289.348986
 20
68.185398
 30
0.0
 10
290.204966
 20
69.864098
 30
0.0
 10
290.879986
 20
71.623099
 30
0.0
 10
291.367976
 20
73.442998
 30
0.0
 10
291.661967
 20
75.303898
 30
0.0
 10
291.760970
 20
77.185397
 30
0.0
 10
291.661967
 20
79.066899
 30
0.0
 10
291.367976
 20
80.927799
 30
0.0
 10
290.879986
 20
82.747698
 30
0.0
 10
290.204966
 20
84.506699
 30
0.0
 10
289.348986
 20
86.185399
 30
0.0
 10
288.322968
 20
87.765499
 30
0.0
 10
287.137973
 20
89.229699
 30
0.0
 10
285.804981
 20
90.562000
 30
0.0
 10
284.340981
 20
91.747697
 30
0.0
 10
282.760988
 20
92.773899
 30
0.0
 10
281.081992
 20
93.629199
 30
0.0
 10
279.322986
 20
94.304399
 30
0.0
 10
277.502991
 20
94.792000
 30
0.0
 10
275.642977
 20
95.086798
 30
0.0
 10
273.760978
 20
95.185398
 30
0.0
 10
271.878979
 20
95.086798
 30
0.0
 10
270.018994
 20
94.792000
 30
0.0
 10
268.198971
 20
94.304399
 30
0.0
 10
266.439993
 20
93.629199
 30
0.0
 10
264.760968
 20
92.773899
 30
0.0
 10
263.180975
 20
91.747697
 30
0.0
 10
261.716976
 20
90.562000
 30
0.0
 10
260.383984
 20
89.229699
 30
0.0
 10
259.198989
 20
87.765499
 30
0.0
 10
258.172978
 20
86.185399
 30
0.0
 10
257.316979
 20
84.506699
 30
0.0
 10
256.641979
 20
82.747698
 30
0.0
 10
256.153980
 20
80.927799
 30
0.0
 10
255.859978
 20
79.066899
 30
0.0
 10
255.760980
 20
77.185397
 30
0.0
 10
255.859978
 20
75.303898
 30
0.0
 10
256.153980
 20
73.442998
 30
0.0
 10
256.641979
 20
71.623099
 30
0.0
 10
257.316979
 20
69.864098
 30
0.0
 10
258.172978
 20
68.185398
 30
0.0
 10
259.198989
 20
66.605298
 30
0.0
 10
260.383984
 20
65.141098
 30
0.0
 10
261.716976
 20
63.808798
 30
0.0
 10
263.180975
 20
62.623097
 30
0.0
 10
264.760968
 20
61.596898
 30
0.0
 10
266.439993
 20
60.741598
 30
0.0
 10
268.198971
 20
60.066398
 30
0.0
 10
270.018994
 20
59.578797
 30
0.0
 10
271.878979
 20
59.283999
 30
0.0
 10
273.760978
 20
59.185399
 30
0.0
 10
275.642977
 20
59.283999
 30
0.0
  0
LWPOLYLINE
  5
1a4
100
AcDbEntity
  8
Layer_1
 62
7
100
AcDbPolyline
 90
61
 70
0
 10
290.037976
 20
58.549897
 30
0.0
 10
290.311985
 20
58.593297
 30
0.0
 10
290.579983
 20
58.665097
 30
0.0
 10
290.838979
 20
58.764499
 30
0.0
 10
291.085980
 20
58.890398
 30
0.0
 10
291.318982
 20
59.041497
 30
0.0
 10
291.533979
 20
59.216099
 30
0.0
 10
291.729982
 20
59.412199
 30
0.0
 10
291.904988
 20
59.627800
 30
0.0
 10
292.055977
 20
59.860399
 30
0.0
 10
292.181990
 20
60.107498
 30
0.0
 10
292.280993
 20
60.366499
 30
0.0
 10
292.352988
 20
60.634399
 30
0.0
 10
292.395970
 20
60.908397
 30
0.0
 10
292.410928
 20
61.185398
 30
0.0
 10
292.396027
 20
61.462399
 30
0.0
 10
292.352988
 20
61.736397
 30
0.0
 10
292.280993
 20
62.004297
 30
0.0
 10
292.181990
 20
62.263298
 30
0.0
 10
292.055977
 20
62.510398
 30
0.0
 10
291.904988
 20
62.742999
 30
0.0
 10
291.729982
 20
62.958598
 30
0.0
 10
291.533979
 20
63.154700
 30
0.0
 10
291.318982
 20
63.329299
 30
0.0
 10
291.085980
 20
63.480398
 30
0.0
 10
290.838979
 20
63.606298
 30
0.0
 10
290.579983
 20
63.705699
 30
0.0
 10
290.311985
 20
63.777499
 30
0.0
 10
290.037976
 20
63.820899
 30
0.0
 10
289.760974
 20
63.835406
 30
0.0
 10
289.483973
 20
63.820891
 30
0.0
 10
289.209992
 20
63.777499
 30
0.0
 10
288.941994
 20
63.705699
 30
0.0
 10
288.682970
 20
63.606298
 30
0.0
 10
288.435969
 20
63.480398
 30
0.0
 10
288.202967
 20
63.329299
 30
0.0
 10
287.987970
 20
63.154700
 30
0.0
 10
287.791966
 20
62.958598
 30
0.0
 10
287.616989
 20
62.742999
 30
0.0
 10
287.465972
 20
62.510398
 30
0.0
 10
287.339988
 20
62.263298
 30
0.0
 10
287.240984
 20
62.004297
 30
0.0
 10
287.168989
 20
61.736397
 30
0.0
 10
287.125978
 20
61.462399
 30
0.0
 10
287.111021
 20
61.185398
 30
0.0
 10
287.125950
 20
60.908397
 30
0.0
 10
287.168989
 20
60.634399
 30
0.0
 10
287.240984
 20
60.366499
 30
0.0
 10
287.339988
 20
60.107498
 30
0.0
 10
287.465972
 20
59.860399
 30
0.0
 10
287.616989
 20
59.627800
 30
0.0
 10
287.791966
 20
59.412199
 30
0.0
 10
287.987970
 20
59.216099
 30
0.0
 10
288.202967
 20
59.041497
 30
0.0
 10
288.435969
 20
58.890398
 30
0.0
 10
288.682970
 20
58.764499
 30
0.0
 10
288.941994
 20
58.665097
 30
0.0
 10
289.209992
 20
58.593297
 30
0.0
 10
289.483973
 20
58.549897
 30
0.0
 10
289.760974
 20
58.535391
 30
0.0
 10
290.037976
 20
58.549905
 30
0.0
  0
LWPOLYLINE
  5
1a5
100
AcDbEntity
  8
Layer_1
 62
7
100
AcDbPolyline
 90
61
 70
0
 10
258.037980
 20
58.549897
 30
0.0
 10
258.311979
 20
58.593297
 30
0.0
 10
258.579980
 20
58.665097
 30
0.0
 10
258.838981
 20
58.764499
 30
0.0
 10
259.085987
 20
58.890398
 30
0.0
 10
259.318990
 20
59.041497
 30
0.0
 10
259.533987
 20
59.216099
 30
0.0
 10
259.729990
 20
59.412199
 30
0.0
 10
259.904968
 20
59.627800
 30
0.0
 10
260.055985
 20
59.860399
 30
0.0
 10
260.181969
 20
60.107498
 30
0.0
 10
260.280972
 20
60.366499
 30
0.0
 10
260.352967
 20
60.634399
 30
0.0
 10
260.395978
 20
60.908397
 30
0.0
 10
260.410936
 20
61.185398
 30
0.0
 10
260.396034
 20
61.462399
 30
0.0
 10
260.352967
 20
61.736397
 30
0.0
 10
260.280972
 20
62.004297
 30
0.0
 10
260.181969
 20
62.263298
 30
0.0
 10
260.055985
 20
62.510398
 30
0.0
 10
259.904968
 20
62.742999
 30
0.0
 10
259.729990
 20
62.958598
 30
0.0
 10
259.533987
 20
63.154700
 30
0.0
 10
259.318990
 20
63.329299
 30
0.0
 10
259.085987
 20
63.480398
 30
0.0
 10
258.838981
 20
63.606298
 30
0.0
 10
258.579980
 20
63.705699
 30
0.0
 10
258.311979
 20
63.777499
 30
0.0
 10
258.037980
 20
63.820899
 30
0.0
 10
257.760979
 20
63.835406
 30
0.0
 10
257.483981
 20
63.820891
 30
0.0
 10
257.209980
 20
63.777499
 30
0.0
 10
256.941979
 20
63.705699
 30
0.0
 10
256.682981
 20
63.606298
 30
0.0
 10
256.435980
 20
63.480398
 30
0.0
 10
256.202980
 20
63.329299
 30
0.0
 10
255.987980
 20
63.154700
 30
0.0
 10
255.791980
 20
62.958598
 30
0.0
 10
255.616979
 20
62.742999
 30
0.0
 10
255.465979
 20
62.510398
 30
0.0
 10
255.339981
 20
62.263298
 30
0.0
 10
255.240980
 20
62.004297
 30
0.0
 10
255.168980
 20
61.736397
 30
0.0
 10
255.125980
 20
61.462399
 30
0.0
 10
255.110994
 20
61.185398
 30
0.0
 10
255.125966
 20
60.908397
 30
0.0
 10
255.168980
 20
60.634399
 30
0.0
 10
255.240980
 20
60.366499
 30
0.0
 10
255.339981
 20
60.107498
 30
0.0
 10
255.465979
 20
59.860399
 30
0.0
 10
255.616979
 20
59.627800
 30
0.0
 10
255.791980
 20
59.412199
 30
0.0
 10
255.987980
 20
59.216099
 30
0.0
 10
256.202980
 20
59.041497
 30
0.0
 10
256.435980
 20
58.890398
 30
0.0
 10
256.682981
 20
58.764499
 30
0.0
 10
256.941979
 20
58.665097
 30
0.0
 10
257.209980
 20
58.593297
 30
0.0
 10
257.483981
 20
58.549897
 30
0.0
 10
257.760979
 20
58.535391
 30
0.0
 10
258.037980
 20
58.549905
 30
0.0
  0
LWPOLYLINE
  5
1a6
100
AcDbEntity
  8
Layer_1
 62
7
100
AcDbPolyline
 90
45
 70
0
 10
33.579179
 20
-31.814613
 30
0.0
 10
54.488279
 20
-31.814613
 30
0.0
 10
54.488279
 20
-34.914599
 30
0.0
 10
75.397378
 20
-34.914599
 30
0.0
 10
75.397378
 20
-31.814613
 30
0.0
 10
96.305981
 20
-31.814613
 30
0.0
 10
96.305981
 20
-34.914599
 30
0.0
 10
117.215980
 20
-34.914599
 30
0.0
 10
117.215980
 20
-31.814613
 30
0.0
 10
138.124978
 20
-31.814613
 30
0.0
 10
138.124978
 20
-34.914599
 30
0.0
 10
159.033979
 20
-34.914599
 30
0.0
 10
159.033979
 20
-31.814613
 30
0.0
 10
179.942979
 20
-31.814613
 30
0.0
 10
179.942979
 20
-34.914599
 30
0.0
 10
200.851980
 20
-34.914599
 30
0.0
 10
200.851980
 20
-31.814613
 30
0.0
 10
221.760981
 20
-31.814613
 30
0.0
 10
221.760981
 20
22.185391
 30
0.0
 10
200.851980
 20
22.185391
 30
0.0
 10
200.851980
 20
25.285377
 30
0.0
 10
179.942979
 20
25.285377
 30
0.0
 10
179.942979
 20
22.185391
 30
0.0
 10
159.033979
 20
22.185391
 30
0.0
 10
159.033979
 20
25.285377
 30
0.0
 10
138.124978
 20
25.285377
 30
0.0
 10
138.124978
 20
22.185391
 30
0.0
 10
117.215980
 20
22.185391
 30
0.0
 10
117.215980
 20
25.285377
 30
0.0
 10
96.305981
 20
25.285377
 30
0.0
 10
96.305981
 20
22.185391
 30
0.0
 10
75.397378
 20
22.185391
 30
0.0
 10
75.397378
 20
25.285377
 30
0.0
 10
54.488279
 20
25.285377
 30
0.0
 10
54.488279
 20
22.185391
 30
0.0
 10
33.579179
 20
22.185391
 30
0.0
 10
33.579179
 20
25.285377
 30
0.0
 10
12.670080
 20
25.285377
 30
0.0
 10
12.670080
 20
22.185391
 30
0.0
 10
-8.239021
 20
22.185391
 30
0.0
 10
-8.239021
 20
-31.814613
 30
0.0
 10
12.670080
 20
-31.814613
 30
0.0
 10
12.670080
 20
-34.914599
 30
0.0
 10
33.579179
 20
-34.914599
 30
0.0
 10
33.579179
 20
-31.814613
 30
0.0
  0
LWPOLYLINE
  5
1a7
100
AcDbEntity
  8
Layer_1
 62
7
100
AcDbPolyline
 90
51
 70
0
 10
11.843180
 20
9.193291
 30
0.0
 10
11.344778
 20
9.256199
 30
0.0
 10
10.858281
 20
9.381195
 30
0.0
 10
10.391181
 20
9.566107
 30
0.0
 10
9.950979
 20
9.808084
 30
0.0
 10
9.544579
 20
10.103289
 30
0.0
 10
9.178379
 20
10.447205
 30
0.0
 10
8.858279
 20
10.834188
 30
0.0
 10
8.589079
 20
11.258396
 30
0.0
 10
8.375180
 20
11.712887
 30
0.0
 10
8.219980
 20
12.190604
 30
0.0
 10
8.125879
 20
12.684098
 30
0.0
 10
8.094278
 20
13.185409
 30
0.0
 10
8.125879
 20
13.686693
 30
0.0
 10
8.219980
 20
14.180186
 30
0.0
 10
8.375180
 20
14.657904
 30
0.0
 10
8.589079
 20
15.112395
 30
0.0
 10
8.858279
 20
15.536490
 30
0.0
 10
9.178379
 20
15.923586
 30
0.0
 10
9.544579
 20
16.267389
 30
0.0
 10
9.950979
 20
16.562706
 30
0.0
 10
10.391181
 20
16.804712
 30
0.0
 10
10.858281
 20
16.989596
 30
0.0
 10
11.344778
 20
17.114507
 30
0.0
 10
11.843180
 20
17.177499
 30
0.0
 10
12.345479
 20
17.177499
 30
0.0
 10
12.843779
 20
17.114507
 30
0.0
 10
13.330378
 20
16.989596
 30
0.0
 10
13.797380
 20
16.804712
 30
0.0
 10
14.237579
 20
16.562706
 30
0.0
 10
14.643979
 20
16.267389
 30
0.0
 10
15.010179
 20
15.923586
 30
0.0
 10
15.330380
 20
15.536490
 30
0.0
 10
15.599479
 20
15.112395
 30
0.0
 10
15.813381
 20
14.657904
 30
0.0
 10
15.968679
 20
14.180186
 30
0.0
 10
16.062781
 20
13.686693
 30
0.0
 10
16.094279
 20
13.185409
 30
0.0
 10
16.062781
 20
12.684098
 30
0.0
 10
15.968679
 20
12.190604
 30
0.0
 10
15.813381
 20
11.712887
 30
0.0
 10
15.599479
 20
11.258396
 30
0.0
 10
15.330380
 20
10.834188
 30
0.0
 10
15.010179
 20
10.447205
 30
0.0
 10
14.643979
 20
10.103289
 30
0.0
 10
14.237579
 20
9.808084
 30
0.0
 10
13.797380
 20
9.566107
 30
0.0
 10
13.330378
 20
9.381195
 30
0.0
 10
12.843779
 20
9.256199
 30
0.0
 10
12.345479
 20
9.193291
 30
0.0
 10
11.843180
 20
9.193291
 30
0.0
  0
LWPOLYLINE
  5
1a8
100
AcDbEntity
  8
Layer_1
 62
7
100
AcDbPolyline
 90
51
 70
0
 10
-0.156820
 20
9.193291
 30
0.0
 10
-0.655220
 20
9.256199
 30
0.0
 10
-1.141720
 20
9.381195
 30
0.0
 10
-1.608820
 20
9.566107
 30
0.0
 10
-2.049021
 20
9.808084
 30
0.0
 10
-2.455421
 20
10.103289
 30
0.0
 10
-2.821521
 20
10.447205
 30
0.0
 10
-3.141720
 20
10.834188
 30
0.0
 10
-3.410921
 20
11.258396
 30
0.0
 10
-3.624820
 20
11.712887
 30
0.0
 10
-3.780020
 20
12.190604
 30
0.0
 10
-3.874121
 20
12.684098
 30
0.0
 10
-3.905720
 20
13.185409
 30
0.0
 10
-3.874121
 20
13.686693
 30
0.0
 10
-3.780020
 20
14.180186
 30
0.0
 10
-3.624820
 20
14.657904
 30
0.0
 10
-3.410921
 20
15.112395
 30
0.0
 10
-3.141720
 20
15.536490
 30
0.0
 10
-2.821521
 20
15.923586
 30
0.0
 10
-2.455421
 20
16.267389
 30
0.0
 10
-2.049021
 20
16.562706
 30
0.0
 10
-1.608820
 20
16.804712
 30
0.0
 10
-1.141720
 20
16.989596
 30
0.0
 10
-0.655220
 20
17.114507
 30
0.0
 10
-0.156820
 20
17.177499
 30
0.0
 10
0.345480
 20
17.177499
 30
0.0
 10
0.843780
 20
17.114507
 30
0.0
 10
1.330379
 20
16.989596
 30
0.0
 10
1.797380
 20
16.804712
 30
0.0
 10
2.237579
 20
16.562706
 30
0.0
 10
2.643979
 20
16.267389
 30
0.0
 10
3.010179
 20
15.923586
 30
0.0
 10
3.330379
 20
15.536490
 30
0.0
 10
3.599479
 20
15.112395
 30
0.0
 10
3.813380
 20
14.657904
 30
0.0
 10
3.968679
 20
14.180186
 30
0.0
 10
4.062779
 20
13.686693
 30
0.0
 10
4.094280
 20
13.185409
 30
0.0
 10
4.062779
 20
12.684098
 30
0.0
 10
3.968679
 20
12.190604
 30
0.0
 10
3.813380
 20
11.712887
 30
0.0
 10
3.599479
 20
11.258396
 30
0.0
 10
3.330379
 20
10.834188
 30
0.0
 10
3.010179
 20
10.447205
 30
0.0
 10
2.643979
 20
10.103289
 30
0.0
 10
2.237579
 20
9.808084
 30
0.0
 10
1.797380
 20
9.566107
 30
0.0
 10
1.330379
 20
9.381195
 30
0.0
 10
0.843780
 20
9.256199
 30
0.0
 10
0.345480
 20
9.193291
 30
0.0
 10
-0.156820
 20
9.193291
 30
0.0
  0
LWPOLYLINE
  5
1a9
100
AcDbEntity
  8
Layer_1
 62
7
100
AcDbPolyline
 90
51
 70
0
 10
23.843179
 20
9.193291
 30
0.0
 10
23.344780
 20
9.256199
 30
0.0
 10
22.858280
 20
9.381195
 30
0.0
 10
22.391179
 20
9.566107
 30
0.0
 10
21.950980
 20
9.808084
 30
0.0
 10
21.544580
 20
10.103289
 30
0.0
 10
21.178380
 20
10.447205
 30
0.0
 10
20.858281
 20
10.834188
 30
0.0
 10
20.589080
 20
11.258396
 30
0.0
 10
20.375178
 20
11.712887
 30
0.0
 10
20.219979
 20
12.190604
 30
0.0
 10
20.125880
 20
12.684098
 30
0.0
 10
20.094280
 20
13.185409
 30
0.0
 10
20.125880
 20
13.686693
 30
0.0
 10
20.219979
 20
14.180186
 30
0.0
 10
20.375178
 20
14.657904
 30
0.0
 10
20.589080
 20
15.112395
 30
0.0
 10
20.858281
 20
15.536490
 30
0.0
 10
21.178380
 20
15.923586
 30
0.0
 10
21.544580
 20
16.267389
 30
0.0
 10
21.950980
 20
16.562706
 30
0.0
 10
22.391179
 20
16.804712
 30
0.0
 10
22.858280
 20
16.989596
 30
0.0
 10
23.344780
 20
17.114507
 30
0.0
 10
23.843179
 20
17.177499
 30
0.0
 10
24.345481
 20
17.177499
 30
0.0
 10
24.843781
 20
17.114507
 30
0.0
 10
25.330380
 20
16.989596
 30
0.0
 10
25.797378
 20
16.804712
 30
0.0
 10
26.237580
 20
16.562706
 30
0.0
 10
26.643980
 20
16.267389
 30
0.0
 10
27.010181
 20
15.923586
 30
0.0
 10
27.330379
 20
15.536490
 30
0.0
 10
27.599480
 20
15.112395
 30
0.0
 10
27.813379
 20
14.657904
 30
0.0
 10
27.968681
 20
14.180186
 30
0.0
 10
28.062779
 20
13.686693
 30
0.0
 10
28.094281
 20
13.185409
 30
0.0
 10
28.062779
 20
12.684098
 30
0.0
 10
27.968681
 20
12.190604
 30
0.0
 10
27.813379
 20
11.712887
 30
0.0
 10
27.599480
 20
11.258396
 30
0.0
 10
27.330379
 20
10.834188
 30
0.0
 10
27.010181
 20
10.447205
 30
0.0
 10
26.643980
 20
10.103289
 30
0.0
 10
26.237580
 20
9.808084
 30
0.0
 10
25.797378
 20
9.566107
 30
0.0
 10
25.330380
 20
9.381195
 30
0.0
 10
24.843781
 20
9.256199
 30
0.0
 10
24.345481
 20
9.193291
 30
0.0
 10
23.843179
 20
9.193291
 30
0.0
  0
LWPOLYLINE
  5
1aa
100
AcDbEntity
  8
Layer_1
 62
7
100
AcDbPolyline
 90
51
 70
0
 10
35.843180
 20
9.193291
 30
0.0
 10
35.344778
 20
9.256199
 30
0.0
 10
34.858278
 20
9.381195
 30
0.0
 10
34.391181
 20
9.566107
 30
0.0
 10
33.950979
 20
9.808084
 30
0.0
 10
33.544579
 20
10.103289
 30
0.0
 10
33.178379
 20
10.447205
 30
0.0
 10
32.858279
 20
10.834188
 30
0.0
 10
32.589079
 20
11.258396
 30
0.0
 10
32.375180
 20
11.712887
 30
0.0
 10
32.219980
 20
12.190604
 30
0.0
 10
32.125879
 20
12.684098
 30
0.0
 10
32.094278
 20
13.185409
 30
0.0
 10
32.125879
 20
13.686693
 30
0.0
 10
32.219980
 20
14.180186
 30
0.0
 10
32.375180
 20
14.657904
 30
0.0
 10
32.589079
 20
15.112395
 30
0.0
 10
32.858279
 20
15.536490
 30
0.0
 10
33.178379
 20
15.923586
 30
0.0
 10
33.544579
 20
16.267389
 30
0.0
 10
33.950979
 20
16.562706
 30
0.0
 10
34.391181
 20
16.804712
 30
0.0
 10
34.858278
 20
16.989596
 30
0.0
 10
35.344778
 20
17.114507
 30
0.0
 10
35.843180
 20
17.177499
 30
0.0
 10
36.345479
 20
17.177499
 30
0.0
 10
36.843779
 20
17.114507
 30
0.0
 10
37.330378
 20
16.989596
 30
0.0
 10
37.797380
 20
16.804712
 30
0.0
 10
38.237579
 20
16.562706
 30
0.0
 10
38.643979
 20
16.267389
 30
0.0
 10
39.010179
 20
15.923586
 30
0.0
 10
39.330380
 20
15.536490
 30
0.0
 10
39.599479
 20
15.112395
 30
0.0
 10
39.813381
 20
14.657904
 30
0.0
 10
39.968679
 20
14.180186
 30
0.0
 10
40.062780
 20
13.686693
 30
0.0
 10
40.094279
 20
13.185409
 30
0.0
 10
40.062780
 20
12.684098
 30
0.0
 10
39.968679
 20
12.190604
 30
0.0
 10
39.813381
 20
11.712887
 30
0.0
 10
39.599479
 20
11.258396
 30
0.0
 10
39.330380
 20
10.834188
 30
0.0
 10
39.010179
 20
10.447205
 30
0.0
 10
38.643979
 20
10.103289
 30
0.0
 10
38.237579
 20
9.808084
 30
0.0
 10
37.797380
 20
9.566107
 30
0.0
 10
37.330378
 20
9.381195
 30
0.0
 10
36.843779
 20
9.256199
 30
0.0
 10
36.345479
 20
9.193291
 30
0.0
 10
35.843180
 20
9.193291
 30
0.0
  0
LWPOLYLINE
  5
1ab
100
AcDbEntity
  8
Layer_1
 62
7
100
AcDbPolyline
 90
51
 70
0
 10
47.843179
 20
9.193291
 30
0.0
 10
47.344780
 20
9.256199
 30
0.0
 10
46.858280
 20
9.381195
 30
0.0
 10
46.391179
 20
9.566107
 30
0.0
 10
45.950980
 20
9.808084
 30
0.0
 10
45.544580
 20
10.103289
 30
0.0
 10
45.178380
 20
10.447205
 30
0.0
 10
44.858281
 20
10.834188
 30
0.0
 10
44.589080
 20
11.258396
 30
0.0
 10
44.375178
 20
11.712887
 30
0.0
 10
44.219979
 20
12.190604
 30
0.0
 10
44.125880
 20
12.684098
 30
0.0
 10
44.094280
 20
13.185409
 30
0.0
 10
44.125880
 20
13.686693
 30
0.0
 10
44.219979
 20
14.180186
 30
0.0
 10
44.375178
 20
14.657904
 30
0.0
 10
44.589080
 20
15.112395
 30
0.0
 10
44.858281
 20
15.536490
 30
0.0
 10
45.178380
 20
15.923586
 30
0.0
 10
45.544580
 20
16.267389
 30
0.0
 10
45.950980
 20
16.562706
 30
0.0
 10
46.391179
 20
16.804712
 30
0.0
 10
46.858280
 20
16.989596
 30
0.0
 10
47.344780
 20
17.114507
 30
0.0
 10
47.843179
 20
17.177499
 30
0.0
 10
48.345481
 20
17.177499
 30
0.0
 10
48.843781
 20
17.114507
 30
0.0
 10
49.330380
 20
16.989596
 30
0.0
 10
49.797378
 20
16.804712
 30
0.0
 10
50.237580
 20
16.562706
 30
0.0
 10
50.643980
 20
16.267389
 30
0.0
 10
51.010180
 20
15.923586
 30
0.0
 10
51.330379
 20
15.536490
 30
0.0
 10
51.599480
 20
15.112395
 30
0.0
 10
51.813379
 20
14.657904
 30
0.0
 10
51.968681
 20
14.180186
 30
0.0
 10
52.062779
 20
13.686693
 30
0.0
 10
52.094281
 20
13.185409
 30
0.0
 10
52.062779
 20
12.684098
 30
0.0
 10
51.968681
 20
12.190604
 30
0.0
 10
51.813379
 20
11.712887
 30
0.0
 10
51.599480
 20
11.258396
 30
0.0
 10
51.330379
 20
10.834188
 30
0.0
 10
51.010180
 20
10.447205
 30
0.0
 10
50.643980
 20
10.103289
 30
0.0
 10
50.237580
 20
9.808084
 30
0.0
 10
49.797378
 20
9.566107
 30
0.0
 10
49.330380
 20
9.381195
 30
0.0
 10
48.843781
 20
9.256199
 30
0.0
 10
48.345481
 20
9.193291
 30
0.0
 10
47.843179
 20
9.193291
 30
0.0
  0
LWPOLYLINE
  5
1ac
100
AcDbEntity
  8
Layer_1
 62
7
100
AcDbPolyline
 90
51
 70
0
 10
59.843180
 20
9.193291
 30
0.0
 10
59.344778
 20
9.256199
 30
0.0
 10
58.858278
 20
9.381195
 30
0.0
 10
58.391181
 20
9.566107
 30
0.0
 10
57.950979
 20
9.808084
 30
0.0
 10
57.544579
 20
10.103289
 30
0.0
 10
57.178379
 20
10.447205
 30
0.0
 10
56.858279
 20
10.834188
 30
0.0
 10
56.589079
 20
11.258396
 30
0.0
 10
56.375180
 20
11.712887
 30
0.0
 10
56.219980
 20
12.190604
 30
0.0
 10
56.125879
 20
12.684098
 30
0.0
 10
56.094278
 20
13.185409
 30
0.0
 10
56.125879
 20
13.686693
 30
0.0
 10
56.219980
 20
14.180186
 30
0.0
 10
56.375180
 20
14.657904
 30
0.0
 10
56.589079
 20
15.112395
 30
0.0
 10
56.858279
 20
15.536490
 30
0.0
 10
57.178379
 20
15.923586
 30
0.0
 10
57.544579
 20
16.267389
 30
0.0
 10
57.950979
 20
16.562706
 30
0.0
 10
58.391181
 20
16.804712
 30
0.0
 10
58.858278
 20
16.989596
 30
0.0
 10
59.344778
 20
17.114507
 30
0.0
 10
59.843180
 20
17.177499
 30
0.0
 10
60.345479
 20
17.177499
 30
0.0
 10
60.843779
 20
17.114507
 30
0.0
 10
61.330378
 20
16.989596
 30
0.0
 10
61.797380
 20
16.804712
 30
0.0
 10
62.237579
 20
16.562706
 30
0.0
 10
62.643979
 20
16.267389
 30
0.0
 10
63.010179
 20
15.923586
 30
0.0
 10
63.330380
 20
15.536490
 30
0.0
 10
63.599479
 20
15.112395
 30
0.0
 10
63.813381
 20
14.657904
 30
0.0
 10
63.968679
 20
14.180186
 30
0.0
 10
64.062780
 20
13.686693
 30
0.0
 10
64.094279
 20
13.185409
 30
0.0
 10
64.062780
 20
12.684098
 30
0.0
 10
63.968679
 20
12.190604
 30
0.0
 10
63.813381
 20
11.712887
 30
0.0
 10
63.599479
 20
11.258396
 30
0.0
 10
63.330380
 20
10.834188
 30
0.0
 10
63.010179
 20
10.447205
 30
0.0
 10
62.643979
 20
10.103289
 30
0.0
 10
62.237579
 20
9.808084
 30
0.0
 10
61.797380
 20
9.566107
 30
0.0
 10
61.330378
 20
9.381195
 30
0.0
 10
60.843779
 20
9.256199
 30
0.0
 10
60.345479
 20
9.193291
 30
0.0
 10
59.843180
 20
9.193291
 30
0.0
  0
LWPOLYLINE
  5
1ad
100
AcDbEntity
  8
Layer_1
 62
7
100
AcDbPolyline
 90
51
 70
0
 10
59.843180
 20
-2.806713
 30
0.0
 10
59.344778
 20
-2.743805
 30
0.0
 10
58.858278
 20
-2.618809
 30
0.0
 10
58.391181
 20
-2.433897
 30
0.0
 10
57.950979
 20
-2.191892
 30
0.0
 10
57.544579
 20
-1.896715
 30
0.0
 10
57.178379
 20
-1.552799
 30
0.0
 10
56.858279
 20
-1.165788
 30
0.0
 10
56.589079
 20
-0.741608
 30
0.0
 10
56.375180
 20
-0.287089
 30
0.0
 10
56.219980
 20
0.190600
 30
0.0
 10
56.125879
 20
0.684094
 30
0.0
 10
56.094278
 20
1.185405
 30
0.0
 10
56.125879
 20
1.686688
 30
0.0
 10
56.219980
 20
2.180210
 30
0.0
 10
56.375180
 20
2.657900
 30
0.0
 10
56.589079
 20
3.112390
 30
0.0
 10
56.858279
 20
3.536486
 30
0.0
 10
57.178379
 20
3.923610
 30
0.0
 10
57.544579
 20
4.267385
 30
0.0
 10
57.950979
 20
4.562702
 30
0.0
 10
58.391181
 20
4.804708
 30
0.0
 10
58.858278
 20
4.989591
 30
0.0
 10
59.344778
 20
5.114503
 30
0.0
 10
59.843180
 20
5.177495
 30
0.0
 10
60.345479
 20
5.177495
 30
0.0
 10
60.843779
 20
5.114503
 30
0.0
 10
61.330378
 20
4.989591
 30
0.0
 10
61.797380
 20
4.804708
 30
0.0
 10
62.237579
 20
4.562702
 30
0.0
 10
62.643979
 20
4.267385
 30
0.0
 10
63.010179
 20
3.923610
 30
0.0
 10
63.330380
 20
3.536486
 30
0.0
 10
63.599479
 20
3.112390
 30
0.0
 10
63.813381
 20
2.657900
 30
0.0
 10
63.968679
 20
2.180210
 30
0.0
 10
64.062780
 20
1.686688
 30
0.0
 10
64.094279
 20
1.185405
 30
0.0
 10
64.062780
 20
0.684094
 30
0.0
 10
63.968679
 20
0.190600
 30
0.0
 10
63.813381
 20
-0.287089
 30
0.0
 10
63.599479
 20
-0.741608
 30
0.0
 10
63.330380
 20
-1.165788
 30
0.0
 10
63.010179
 20
-1.552799
 30
0.0
 10
62.643979
 20
-1.896715
 30
0.0
 10
62.237579
 20
-2.191892
 30
0.0
 10
61.797380
 20
-2.433897
 30
0.0
 10
61.330378
 20
-2.618809
 30
0.0
 10
60.843779
 20
-2.743805
 30
0.0
 10
60.345479
 20
-2.806713
 30
0.0
 10
59.843180
 20
-2.806713
 30
0.0
  0
LWPOLYLINE
  5
1ae
100
AcDbEntity
  8
Layer_1
 62
7
100
AcDbPolyline
 90
51
 70
0
 10
47.843179
 20
-2.806713
 30
0.0
 10
47.344780
 20
-2.743805
 30
0.0
 10
46.858280
 20
-2.618809
 30
0.0
 10
46.391179
 20
-2.433897
 30
0.0
 10
45.950980
 20
-2.191892
 30
0.0
 10
45.544580
 20
-1.896715
 30
0.0
 10
45.178380
 20
-1.552799
 30
0.0
 10
44.858281
 20
-1.165788
 30
0.0
 10
44.589080
 20
-0.741608
 30
0.0
 10
44.375178
 20
-0.287089
 30
0.0
 10
44.219979
 20
0.190600
 30
0.0
 10
44.125880
 20
0.684094
 30
0.0
 10
44.094280
 20
1.185405
 30
0.0
 10
44.125880
 20
1.686688
 30
0.0
 10
44.219979
 20
2.180210
 30
0.0
 10
44.375178
 20
2.657900
 30
0.0
 10
44.589080
 20
3.112390
 30
0.0
 10
44.858281
 20
3.536486
 30
0.0
 10
45.178380
 20
3.923610
 30
0.0
 10
45.544580
 20
4.267385
 30
0.0
 10
45.950980
 20
4.562702
 30
0.0
 10
46.391179
 20
4.804708
 30
0.0
 10
46.858280
 20
4.989591
 30
0.0
 10
47.344780
 20
5.114503
 30
0.0
 10
47.843179
 20
5.177495
 30
0.0
 10
48.345481
 20
5.177495
 30
0.0
 10
48.843781
 20
5.114503
 30
0.0
 10
49.330380
 20
4.989591
 30
0.0
 10
49.797378
 20
4.804708
 30
0.0
 10
50.237580
 20
4.562702
 30
0.0
 10
50.643980
 20
4.267385
 30
0.0
 10
51.010180
 20
3.923610
 30
0.0
 10
51.330379
 20
3.536486
 30
0.0
 10
51.599480
 20
3.112390
 30
0.0
 10
51.813379
 20
2.657900
 30
0.0
 10
51.968681
 20
2.180210
 30
0.0
 10
52.062779
 20
1.686688
 30
0.0
 10
52.094281
 20
1.185405
 30
0.0
 10
52.062779
 20
0.684094
 30
0.0
 10
51.968681
 20
0.190600
 30
0.0
 10
51.813379
 20
-0.287089
 30
0.0
 10
51.599480
 20
-0.741608
 30
0.0
 10
51.330379
 20
-1.165788
 30
0.0
 10
51.010180
 20
-1.552799
 30
0.0
 10
50.643980
 20
-1.896715
 30
0.0
 10
50.237580
 20
-2.191892
 30
0.0
 10
49.797378
 20
-2.433897
 30
0.0
 10
49.330380
 20
-2.618809
 30
0.0
 10
48.843781
 20
-2.743805
 30
0.0
 10
48.345481
 20
-2.806713
 30
0.0
 10
47.843179
 20
-2.806713
 30
0.0
  0
LWPOLYLINE
  5
1af
100
AcDbEntity
  8
Layer_1
 62
7
100
AcDbPolyline
 90
51
 70
0
 10
35.843180
 20
-2.806713
 30
0.0
 10
35.344778
 20
-2.743805
 30
0.0
 10
34.858278
 20
-2.618809
 30
0.0
 10
34.391181
 20
-2.433897
 30
0.0
 10
33.950979
 20
-2.191892
 30
0.0
 10
33.544579
 20
-1.896715
 30
0.0
 10
33.178379
 20
-1.552799
 30
0.0
 10
32.858279
 20
-1.165788
 30
0.0
 10
32.589079
 20
-0.741608
 30
0.0
 10
32.375180
 20
-0.287089
 30
0.0
 10
32.219980
 20
0.190600
 30
0.0
 10
32.125879
 20
0.684094
 30
0.0
 10
32.094278
 20
1.185405
 30
0.0
 10
32.125879
 20
1.686688
 30
0.0
 10
32.219980
 20
2.180210
 30
0.0
 10
32.375180
 20
2.657900
 30
0.0
 10
32.589079
 20
3.112390
 30
0.0
 10
32.858279
 20
3.536486
 30
0.0
 10
33.178379
 20
3.923610
 30
0.0
 10
33.544579
 20
4.267385
 30
0.0
 10
33.950979
 20
4.562702
 30
0.0
 10
34.391181
 20
4.804708
 30
0.0
 10
34.858278
 20
4.989591
 30
0.0
 10
35.344778
 20
5.114503
 30
0.0
 10
35.843180
 20
5.177495
 30
0.0
 10
36.345479
 20
5.177495
 30
0.0
 10
36.843779
 20
5.114503
 30
0.0
 10
37.330378
 20
4.989591
 30
0.0
 10
37.797380
 20
4.804708
 30
0.0
 10
38.237579
 20
4.562702
 30
0.0
 10
38.643979
 20
4.267385
 30
0.0
 10
39.010179
 20
3.923610
 30
0.0
 10
39.330380
 20
3.536486
 30
0.0
 10
39.599479
 20
3.112390
 30
0.0
 10
39.813381
 20
2.657900
 30
0.0
 10
39.968679
 20
2.180210
 30
0.0
 10
40.062780
 20
1.686688
 30
0.0
 10
40.094279
 20
1.185405
 30
0.0
 10
40.062780
 20
0.684094
 30
0.0
 10
39.968679
 20
0.190600
 30
0.0
 10
39.813381
 20
-0.287089
 30
0.0
 10
39.599479
 20
-0.741608
 30
0.0
 10
39.330380
 20
-1.165788
 30
0.0
 10
39.010179
 20
-1.552799
 30
0.0
 10
38.643979
 20
-1.896715
 30
0.0
 10
38.237579
 20
-2.191892
 30
0.0
 10
37.797380
 20
-2.433897
 30
0.0
 10
37.330378
 20
-2.618809
 30
0.0
 10
36.843779
 20
-2.743805
 30
0.0
 10
36.345479
 20
-2.806713
 30
0.0
 10
35.843180
 20
-2.806713
 30
0.0
  0
LWPOLYLINE
  5
1b0
100
AcDbEntity
  8
Layer_1
 62
7
100
AcDbPolyline
 90
51
 70
0
 10
23.843179
 20
-2.806713
 30
0.0
 10
23.344780
 20
-2.743805
 30
0.0
 10
22.858280
 20
-2.618809
 30
0.0
 10
22.391179
 20
-2.433897
 30
0.0
 10
21.950980
 20
-2.191892
 30
0.0
 10
21.544580
 20
-1.896715
 30
0.0
 10
21.178380
 20
-1.552799
 30
0.0
 10
20.858281
 20
-1.165788
 30
0.0
 10
20.589080
 20
-0.741608
 30
0.0
 10
20.375178
 20
-0.287089
 30
0.0
 10
20.219979
 20
0.190600
 30
0.0
 10
20.125880
 20
0.684094
 30
0.0
 10
20.094280
 20
1.185405
 30
0.0
 10
20.125880
 20
1.686688
 30
0.0
 10
20.219979
 20
2.180210
 30
0.0
 10
20.375178
 20
2.657900
 30
0.0
 10
20.589080
 20
3.112390
 30
0.0
 10
20.858281
 20
3.536486
 30
0.0
 10
21.178380
 20
3.923610
 30
0.0
 10
21.544580
 20
4.267385
 30
0.0
 10
21.950980
 20
4.562702
 30
0.0
 10
22.391179
 20
4.804708
 30
0.0
 10
22.858280
 20
4.989591
 30
0.0
 10
23.344780
 20
5.114503
 30
0.0
 10
23.843179
 20
5.177495
 30
0.0
 10
24.345481
 20
5.177495
 30
0.0
 10
24.843781
 20
5.114503
 30
0.0
 10
25.330380
 20
4.989591
 30
0.0
 10
25.797378
 20
4.804708
 30
0.0
 10
26.237580
 20
4.562702
 30
0.0
 10
26.643980
 20
4.267385
 30
0.0
 10
27.010181
 20
3.923610
 30
0.0
 10
27.330379
 20
3.536486
 30
0.0
 10
27.599480
 20
3.112390
 30
0.0
 10
27.813379
 20
2.657900
 30
0.0
 10
27.968681
 20
2.180210
 30
0.0
 10
28.062779
 20
1.686688
 30
0.0
 10
28.094281
 20
1.185405
 30
0.0
 10
28.062779
 20
0.684094
 30
0.0
 10
27.968681
 20
0.190600
 30
0.0
 10
27.813379
 20
-0.287089
 30
0.0
 10
27.599480
 20
-0.741608
 30
0.0
 10
27.330379
 20
-1.165788
 30
0.0
 10
27.010181
 20
-1.552799
 30
0.0
 10
26.643980
 20
-1.896715
 30
0.0
 10
26.237580
 20
-2.191892
 30
0.0
 10
25.797378
 20
-2.433897
 30
0.0
 10
25.330380
 20
-2.618809
 30
0.0
 10
24.843781
 20
-2.743805
 30
0.0
 10
24.345481
 20
-2.806713
 30
0.0
 10
23.843179
 20
-2.806713
 30
0.0
  0
LWPOLYLINE
  5
1b1
100
AcDbEntity
  8
Layer_1
 62
7
100
AcDbPolyline
 90
51
 70
0
 10
11.843180
 20
-2.806713
 30
0.0
 10
11.344778
 20
-2.743805
 30
0.0
 10
10.858281
 20
-2.618809
 30
0.0
 10
10.391181
 20
-2.433897
 30
0.0
 10
9.950979
 20
-2.191892
 30
0.0
 10
9.544579
 20
-1.896715
 30
0.0
 10
9.178379
 20
-1.552799
 30
0.0
 10
8.858279
 20
-1.165788
 30
0.0
 10
8.589079
 20
-0.741608
 30
0.0
 10
8.375180
 20
-0.287089
 30
0.0
 10
8.219980
 20
0.190600
 30
0.0
 10
8.125879
 20
0.684094
 30
0.0
 10
8.094278
 20
1.185405
 30
0.0
 10
8.125879
 20
1.686688
 30
0.0
 10
8.219980
 20
2.180210
 30
0.0
 10
8.375180
 20
2.657900
 30
0.0
 10
8.589079
 20
3.112390
 30
0.0
 10
8.858279
 20
3.536486
 30
0.0
 10
9.178379
 20
3.923610
 30
0.0
 10
9.544579
 20
4.267385
 30
0.0
 10
9.950979
 20
4.562702
 30
0.0
 10
10.391181
 20
4.804708
 30
0.0
 10
10.858281
 20
4.989591
 30
0.0
 10
11.344778
 20
5.114503
 30
0.0
 10
11.843180
 20
5.177495
 30
0.0
 10
12.345479
 20
5.177495
 30
0.0
 10
12.843779
 20
5.114503
 30
0.0
 10
13.330378
 20
4.989591
 30
0.0
 10
13.797380
 20
4.804708
 30
0.0
 10
14.237579
 20
4.562702
 30
0.0
 10
14.643979
 20
4.267385
 30
0.0
 10
15.010179
 20
3.923610
 30
0.0
 10
15.330380
 20
3.536486
 30
0.0
 10
15.599479
 20
3.112390
 30
0.0
 10
15.813381
 20
2.657900
 30
0.0
 10
15.968679
 20
2.180210
 30
0.0
 10
16.062781
 20
1.686688
 30
0.0
 10
16.094279
 20
1.185405
 30
0.0
 10
16.062781
 20
0.684094
 30
0.0
 10
15.968679
 20
0.190600
 30
0.0
 10
15.813381
 20
-0.287089
 30
0.0
 10
15.599479
 20
-0.741608
 30
0.0
 10
15.330380
 20
-1.165788
 30
0.0
 10
15.010179
 20
-1.552799
 30
0.0
 10
14.643979
 20
-1.896715
 30
0.0
 10
14.237579
 20
-2.191892
 30
0.0
 10
13.797380
 20
-2.433897
 30
0.0
 10
13.330378
 20
-2.618809
 30
0.0
 10
12.843779
 20
-2.743805
 30
0.0
 10
12.345479
 20
-2.806713
 30
0.0
 10
11.843180
 20
-2.806713
 30
0.0
  0
LWPOLYLINE
  5
1b2
100
AcDbEntity
  8
Layer_1
 62
7
100
AcDbPolyline
 90
51
 70
0
 10
-0.156820
 20
-2.806713
 30
0.0
 10
-0.655220
 20
-2.743805
 30
0.0
 10
-1.141720
 20
-2.618809
 30
0.0
 10
-1.608820
 20
-2.433897
 30
0.0
 10
-2.049021
 20
-2.191892
 30
0.0
 10
-2.455421
 20
-1.896715
 30
0.0
 10
-2.821521
 20
-1.552799
 30
0.0
 10
-3.141720
 20
-1.165788
 30
0.0
 10
-3.410921
 20
-0.741608
 30
0.0
 10
-3.624820
 20
-0.287089
 30
0.0
 10
-3.780020
 20
0.190600
 30
0.0
 10
-3.874121
 20
0.684094
 30
0.0
 10
-3.905720
 20
1.185405
 30
0.0
 10
-3.874121
 20
1.686688
 30
0.0
 10
-3.780020
 20
2.180210
 30
0.0
 10
-3.624820
 20
2.657900
 30
0.0
 10
-3.410921
 20
3.112390
 30
0.0
 10
-3.141720
 20
3.536486
 30
0.0
 10
-2.821521
 20
3.923610
 30
0.0
 10
-2.455421
 20
4.267385
 30
0.0
 10
-2.049021
 20
4.562702
 30
0.0
 10
-1.608820
 20
4.804708
 30
0.0
 10
-1.141720
 20
4.989591
 30
0.0
 10
-0.655220
 20
5.114503
 30
0.0
 10
-0.156820
 20
5.177495
 30
0.0
 10
0.345480
 20
5.177495
 30
0.0
 10
0.843780
 20
5.114503
 30
0.0
 10
1.330379
 20
4.989591
 30
0.0
 10
1.797380
 20
4.804708
 30
0.0
 10
2.237579
 20
4.562702
 30
0.0
 10
2.643979
 20
4.267385
 30
0.0
 10
3.010179
 20
3.923610
 30
0.0
 10
3.330379
 20
3.536486
 30
0.0
 10
3.599479
 20
3.112390
 30
0.0
 10
3.813380
 20
2.657900
 30
0.0
 10
3.968679
 20
2.180210
 30
0.0
 10
4.062779
 20
1.686688
 30
0.0
 10
4.094280
 20
1.185405
 30
0.0
 10
4.062779
 20
0.684094
 30
0.0
 10
3.968679
 20
0.190600
 30
0.0
 10
3.813380
 20
-0.287089
 30
0.0
 10
3.599479
 20
-0.741608
 30
0.0
 10
3.330379
 20
-1.165788
 30
0.0
 10
3.010179
 20
-1.552799
 30
0.0
 10
2.643979
 20
-1.896715
 30
0.0
 10
2.237579
 20
-2.191892
 30
0.0
 10
1.797380
 20
-2.433897
 30
0.0
 10
1.330379
 20
-2.618809
 30
0.0
 10
0.843780
 20
-2.743805
 30
0.0
 10
0.345480
 20
-2.806713
 30
0.0
 10
-0.156820
 20
-2.806713
 30
0.0
  0
LWPOLYLINE
  5
1b3
100
AcDbEntity
  8
Layer_1
 62
7
100
AcDbPolyline
 90
51
 70
0
 10
-0.156820
 20
-14.806689
 30
0.0
 10
-0.655220
 20
-14.743810
 30
0.0
 10
-1.141720
 20
-14.618813
 30
0.0
 10
-1.608820
 20
-14.433901
 30
0.0
 10
-2.049021
 20
-14.191896
 30
0.0
 10
-2.455421
 20
-13.896691
 30
0.0
 10
-2.821521
 20
-13.552804
 30
0.0
 10
-3.141720
 20
-13.165792
 30
0.0
 10
-3.410921
 20
-12.741612
 30
0.0
 10
-3.624820
 20
-12.287093
 30
0.0
 10
-3.780020
 20
-11.809404
 30
0.0
 10
-3.874121
 20
-11.315910
 30
0.0
 10
-3.905720
 20
-10.814599
 30
0.0
 10
-3.874121
 20
-10.313316
 30
0.0
 10
-3.780020
 20
-9.819794
 30
0.0
 10
-3.624820
 20
-9.342105
 30
0.0
 10
-3.410921
 20
-8.887614
 30
0.0
 10
-3.141720
 20
-8.463490
 30
0.0
 10
-2.821521
 20
-8.076394
 30
0.0
 10
-2.455421
 20
-7.732591
 30
0.0
 10
-2.049021
 20
-7.437302
 30
0.0
 10
-1.608820
 20
-7.195297
 30
0.0
 10
-1.141720
 20
-7.010413
 30
0.0
 10
-0.655220
 20
-6.885501
 30
0.0
 10
-0.156820
 20
-6.822509
 30
0.0
 10
0.345480
 20
-6.822509
 30
0.0
 10
0.843780
 20
-6.885501
 30
0.0
 10
1.330379
 20
-7.010413
 30
0.0
 10
1.797380
 20
-7.195297
 30
0.0
 10
2.237579
 20
-7.437302
 30
0.0
 10
2.643979
 20
-7.732591
 30
0.0
 10
3.010179
 20
-8.076394
 30
0.0
 10
3.330379
 20
-8.463490
 30
0.0
 10
3.599479
 20
-8.887614
 30
0.0
 10
3.813380
 20
-9.342105
 30
0.0
 10
3.968679
 20
-9.819794
 30
0.0
 10
4.062779
 20
-10.313316
 30
0.0
 10
4.094280
 20
-10.814599
 30
0.0
 10
4.062779
 20
-11.315910
 30
0.0
 10
3.968679
 20
-11.809404
 30
0.0
 10
3.813380
 20
-12.287093
 30
0.0
 10
3.599479
 20
-12.741612
 30
0.0
 10
3.330379
 20
-13.165792
 30
0.0
 10
3.010179
 20
-13.552804
 30
0.0
 10
2.643979
 20
-13.896691
 30
0.0
 10
2.237579
 20
-14.191896
 30
0.0
 10
1.797380
 20
-14.433901
 30
0.0
 10
1.330379
 20
-14.618813
 30
0.0
 10
0.843780
 20
-14.743810
 30
0.0
 10
0.345480
 20
-14.806689
 30
0.0
 10
-0.156820
 20
-14.806689
 30
0.0
  0
LWPOLYLINE
  5
1b4
100
AcDbEntity
  8
Layer_1
 62
7
100
AcDbPolyline
 90
51
 70
0
 10
11.843180
 20
-14.806689
 30
0.0
 10
11.344778
 20
-14.743810
 30
0.0
 10
10.858281
 20
-14.618813
 30
0.0
 10
10.391181
 20
-14.433901
 30
0.0
 10
9.950979
 20
-14.191896
 30
0.0
 10
9.544579
 20
-13.896691
 30
0.0
 10
9.178379
 20
-13.552804
 30
0.0
 10
8.858279
 20
-13.165792
 30
0.0
 10
8.589079
 20
-12.741612
 30
0.0
 10
8.375180
 20
-12.287093
 30
0.0
 10
8.219980
 20
-11.809404
 30
0.0
 10
8.125879
 20
-11.315910
 30
0.0
 10
8.094278
 20
-10.814599
 30
0.0
 10
8.125879
 20
-10.313316
 30
0.0
 10
8.219980
 20
-9.819794
 30
0.0
 10
8.375180
 20
-9.342105
 30
0.0
 10
8.589079
 20
-8.887614
 30
0.0
 10
8.858279
 20
-8.463490
 30
0.0
 10
9.178379
 20
-8.076394
 30
0.0
 10
9.544579
 20
-7.732591
 30
0.0
 10
9.950979
 20
-7.437302
 30
0.0
 10
10.391181
 20
-7.195297
 30
0.0
 10
10.858281
 20
-7.010413
 30
0.0
 10
11.344778
 20
-6.885501
 30
0.0
 10
11.843180
 20
-6.822509
 30
0.0
 10
12.345479
 20
-6.822509
 30
0.0
 10
12.843779
 20
-6.885501
 30
0.0
 10
13.330378
 20
-7.010413
 30
0.0
 10
13.797380
 20
-7.195297
 30
0.0
 10
14.237579
 20
-7.437302
 30
0.0
 10
14.643979
 20
-7.732591
 30
0.0
 10
15.010179
 20
-8.076394
 30
0.0
 10
15.330380
 20
-8.463490
 30
0.0
 10
15.599479
 20
-8.887614
 30
0.0
 10
15.813381
 20
-9.342105
 30
0.0
 10
15.968679
 20
-9.819794
 30
0.0
 10
16.062781
 20
-10.313316
 30
0.0
 10
16.094279
 20
-10.814599
 30
0.0
 10
16.062781
 20
-11.315910
 30
0.0
 10
15.968679
 20
-11.809404
 30
0.0
 10
15.813381
 20
-12.287093
 30
0.0
 10
15.599479
 20
-12.741612
 30
0.0
 10
15.330380
 20
-13.165792
 30
0.0
 10
15.010179
 20
-13.552804
 30
0.0
 10
14.643979
 20
-13.896691
 30
0.0
 10
14.237579
 20
-14.191896
 30
0.0
 10
13.797380
 20
-14.433901
 30
0.0
 10
13.330378
 20
-14.618813
 30
0.0
 10
12.843779
 20
-14.743810
 30
0.0
 10
12.345479
 20
-14.806689
 30
0.0
 10
11.843180
 20
-14.806689
 30
0.0
  0
LWPOLYLINE
  5
1b5
100
AcDbEntity
  8
Layer_1
 62
7
100
AcDbPolyline
 90
51
 70
0
 10
23.843179
 20
-14.806689
 30
0.0
 10
23.344780
 20
-14.743810
 30
0.0
 10
22.858280
 20
-14.618813
 30
0.0
 10
22.391179
 20
-14.433901
 30
0.0
 10
21.950980
 20
-14.191896
 30
0.0
 10
21.544580
 20
-13.896691
 30
0.0
 10
21.178380
 20
-13.552804
 30
0.0
 10
20.858281
 20
-13.165792
 30
0.0
 10
20.589080
 20
-12.741612
 30
0.0
 10
20.375178
 20
-12.287093
 30
0.0
 10
20.219979
 20
-11.809404
 30
0.0
 10
20.125880
 20
-11.315910
 30
0.0
 10
20.094280
 20
-10.814599
 30
0.0
 10
20.125880
 20
-10.313316
 30
0.0
 10
20.219979
 20
-9.819794
 30
0.0
 10
20.375178
 20
-9.342105
 30
0.0
 10
20.589080
 20
-8.887614
 30
0.0
 10
20.858281
 20
-8.463490
 30
0.0
 10
21.178380
 20
-8.076394
 30
0.0
 10
21.544580
 20
-7.732591
 30
0.0
 10
21.950980
 20
-7.437302
 30
0.0
 10
22.391179
 20
-7.195297
 30
0.0
 10
22.858280
 20
-7.010413
 30
0.0
 10
23.344780
 20
-6.885501
 30
0.0
 10
23.843179
 20
-6.822509
 30
0.0
 10
24.345481
 20
-6.822509
 30
0.0
 10
24.843781
 20
-6.885501
 30
0.0
 10
25.330380
 20
-7.010413
 30
0.0
 10
25.797378
 20
-7.195297
 30
0.0
 10
26.237580
 20
-7.437302
 30
0.0
 10
26.643980
 20
-7.732591
 30
0.0
 10
27.010181
 20
-8.076394
 30
0.0
 10
27.330379
 20
-8.463490
 30
0.0
 10
27.599480
 20
-8.887614
 30
0.0
 10
27.813379
 20
-9.342105
 30
0.0
 10
27.968681
 20
-9.819794
 30
0.0
 10
28.062779
 20
-10.313316
 30
0.0
 10
28.094281
 20
-10.814599
 30
0.0
 10
28.062779
 20
-11.315910
 30
0.0
 10
27.968681
 20
-11.809404
 30
0.0
 10
27.813379
 20
-12.287093
 30
0.0
 10
27.599480
 20
-12.741612
 30
0.0
 10
27.330379
 20
-13.165792
 30
0.0
 10
27.010181
 20
-13.552804
 30
0.0
 10
26.643980
 20
-13.896691
 30
0.0
 10
26.237580
 20
-14.191896
 30
0.0
 10
25.797378
 20
-14.433901
 30
0.0
 10
25.330380
 20
-14.618813
 30
0.0
 10
24.843781
 20
-14.743810
 30
0.0
 10
24.345481
 20
-14.806689
 30
0.0
 10
23.843179
 20
-14.806689
 30
0.0
  0
LWPOLYLINE
  5
1b6
100
AcDbEntity
  8
Layer_1
 62
7
100
AcDbPolyline
 90
51
 70
0
 10
35.843180
 20
-14.806689
 30
0.0
 10
35.344778
 20
-14.743810
 30
0.0
 10
34.858278
 20
-14.618813
 30
0.0
 10
34.391181
 20
-14.433901
 30
0.0
 10
33.950979
 20
-14.191896
 30
0.0
 10
33.544579
 20
-13.896691
 30
0.0
 10
33.178379
 20
-13.552804
 30
0.0
 10
32.858279
 20
-13.165792
 30
0.0
 10
32.589079
 20
-12.741612
 30
0.0
 10
32.375180
 20
-12.287093
 30
0.0
 10
32.219980
 20
-11.809404
 30
0.0
 10
32.125879
 20
-11.315910
 30
0.0
 10
32.094278
 20
-10.814599
 30
0.0
 10
32.125879
 20
-10.313316
 30
0.0
 10
32.219980
 20
-9.819794
 30
0.0
 10
32.375180
 20
-9.342105
 30
0.0
 10
32.589079
 20
-8.887614
 30
0.0
 10
32.858279
 20
-8.463490
 30
0.0
 10
33.178379
 20
-8.076394
 30
0.0
 10
33.544579
 20
-7.732591
 30
0.0
 10
33.950979
 20
-7.437302
 30
0.0
 10
34.391181
 20
-7.195297
 30
0.0
 10
34.858278
 20
-7.010413
 30
0.0
 10
35.344778
 20
-6.885501
 30
0.0
 10
35.843180
 20
-6.822509
 30
0.0
 10
36.345479
 20
-6.822509
 30
0.0
 10
36.843779
 20
-6.885501
 30
0.0
 10
37.330378
 20
-7.010413
 30
0.0
 10
37.797380
 20
-7.195297
 30
0.0
 10
38.237579
 20
-7.437302
 30
0.0
 10
38.643979
 20
-7.732591
 30
0.0
 10
39.010179
 20
-8.076394
 30
0.0
 10
39.330380
 20
-8.463490
 30
0.0
 10
39.599479
 20
-8.887614
 30
0.0
 10
39.813381
 20
-9.342105
 30
0.0
 10
39.968679
 20
-9.819794
 30
0.0
 10
40.062780
 20
-10.313316
 30
0.0
 10
40.094279
 20
-10.814599
 30
0.0
 10
40.062780
 20
-11.315910
 30
0.0
 10
39.968679
 20
-11.809404
 30
0.0
 10
39.813381
 20
-12.287093
 30
0.0
 10
39.599479
 20
-12.741612
 30
0.0
 10
39.330380
 20
-13.165792
 30
0.0
 10
39.010179
 20
-13.552804
 30
0.0
 10
38.643979
 20
-13.896691
 30
0.0
 10
38.237579
 20
-14.191896
 30
0.0
 10
37.797380
 20
-14.433901
 30
0.0
 10
37.330378
 20
-14.618813
 30
0.0
 10
36.843779
 20
-14.743810
 30
0.0
 10
36.345479
 20
-14.806689
 30
0.0
 10
35.843180
 20
-14.806689
 30
0.0
  0
LWPOLYLINE
  5
1b7
100
AcDbEntity
  8
Layer_1
 62
7
100
AcDbPolyline
 90
51
 70
0
 10
47.843179
 20
-14.806689
 30
0.0
 10
47.344780
 20
-14.743810
 30
0.0
 10
46.858280
 20
-14.618813
 30
0.0
 10
46.391179
 20
-14.433901
 30
0.0
 10
45.950980
 20
-14.191896
 30
0.0
 10
45.544580
 20
-13.896691
 30
0.0
 10
45.178380
 20
-13.552804
 30
0.0
 10
44.858281
 20
-13.165792
 30
0.0
 10
44.589080
 20
-12.741612
 30
0.0
 10
44.375178
 20
-12.287093
 30
0.0
 10
44.219979
 20
-11.809404
 30
0.0
 10
44.125880
 20
-11.315910
 30
0.0
 10
44.094280
 20
-10.814599
 30
0.0
 10
44.125880
 20
-10.313316
 30
0.0
 10
44.219979
 20
-9.819794
 30
0.0
 10
44.375178
 20
-9.342105
 30
0.0
 10
44.589080
 20
-8.887614
 30
0.0
 10
44.858281
 20
-8.463490
 30
0.0
 10
45.178380
 20
-8.076394
 30
0.0
 10
45.544580
 20
-7.732591
 30
0.0
 10
45.950980
 20
-7.437302
 30
0.0
 10
46.391179
 20
-7.195297
 30
0.0
 10
46.858280
 20
-7.010413
 30
0.0
 10
47.344780
 20
-6.885501
 30
0.0
 10
47.843179
 20
-6.822509
 30
0.0
 10
48.345481
 20
-6.822509
 30
0.0
 10
48.843781
 20
-6.885501
 30
0.0
 10
49.330380
 20
-7.010413
 30
0.0
 10
49.797378
 20
-7.195297
 30
0.0
 10
50.237580
 20
-7.437302
 30
0.0
 10
50.643980
 20
-7.732591
 30
0.0
 10
51.010180
 20
-8.076394
 30
0.0
 10
51.330379
 20
-8.463490
 30
0.0
 10
51.599480
 20
-8.887614
 30
0.0
 10
51.813379
 20
-9.342105
 30
0.0
 10
51.968681
 20
-9.819794
 30
0.0
 10
52.062779
 20
-10.313316
 30
0.0
 10
52.094281
 20
-10.814599
 30
0.0
 10
52.062779
 20
-11.315910
 30
0.0
 10
51.968681
 20
-11.809404
 30
0.0
 10
51.813379
 20
-12.287093
 30
0.0
 10
51.599480
 20
-12.741612
 30
0.0
 10
51.330379
 20
-13.165792
 30
0.0
 10
51.010180
 20
-13.552804
 30
0.0
 10
50.643980
 20
-13.896691
 30
0.0
 10
50.237580
 20
-14.191896
 30
0.0
 10
49.797378
 20
-14.433901
 30
0.0
 10
49.330380
 20
-14.618813
 30
0.0
 10
48.843781
 20
-14.743810
 30
0.0
 10
48.345481
 20
-14.806689
 30
0.0
 10
47.843179
 20
-14.806689
 30
0.0
  0
LWPOLYLINE
  5
1b8
100
AcDbEntity
  8
Layer_1
 62
7
100
AcDbPolyline
 90
51
 70
0
 10
59.843180
 20
-14.806689
 30
0.0
 10
59.344778
 20
-14.743810
 30
0.0
 10
58.858278
 20
-14.618813
 30
0.0
 10
58.391181
 20
-14.433901
 30
0.0
 10
57.950979
 20
-14.191896
 30
0.0
 10
57.544579
 20
-13.896691
 30
0.0
 10
57.178379
 20
-13.552804
 30
0.0
 10
56.858279
 20
-13.165792
 30
0.0
 10
56.589079
 20
-12.741612
 30
0.0
 10
56.375180
 20
-12.287093
 30
0.0
 10
56.219980
 20
-11.809404
 30
0.0
 10
56.125879
 20
-11.315910
 30
0.0
 10
56.094278
 20
-10.814599
 30
0.0
 10
56.125879
 20
-10.313316
 30
0.0
 10
56.219980
 20
-9.819794
 30
0.0
 10
56.375180
 20
-9.342105
 30
0.0
 10
56.589079
 20
-8.887614
 30
0.0
 10
56.858279
 20
-8.463490
 30
0.0
 10
57.178379
 20
-8.076394
 30
0.0
 10
57.544579
 20
-7.732591
 30
0.0
 10
57.950979
 20
-7.437302
 30
0.0
 10
58.391181
 20
-7.195297
 30
0.0
 10
58.858278
 20
-7.010413
 30
0.0
 10
59.344778
 20
-6.885501
 30
0.0
 10
59.843180
 20
-6.822509
 30
0.0
 10
60.345479
 20
-6.822509
 30
0.0
 10
60.843779
 20
-6.885501
 30
0.0
 10
61.330378
 20
-7.010413
 30
0.0
 10
61.797380
 20
-7.195297
 30
0.0
 10
62.237579
 20
-7.437302
 30
0.0
 10
62.643979
 20
-7.732591
 30
0.0
 10
63.010179
 20
-8.076394
 30
0.0
 10
63.330380
 20
-8.463490
 30
0.0
 10
63.599479
 20
-8.887614
 30
0.0
 10
63.813381
 20
-9.342105
 30
0.0
 10
63.968679
 20
-9.819794
 30
0.0
 10
64.062780
 20
-10.313316
 30
0.0
 10
64.094279
 20
-10.814599
 30
0.0
 10
64.062780
 20
-11.315910
 30
0.0
 10
63.968679
 20
-11.809404
 30
0.0
 10
63.813381
 20
-12.287093
 30
0.0
 10
63.599479
 20
-12.741612
 30
0.0
 10
63.330380
 20
-13.165792
 30
0.0
 10
63.010179
 20
-13.552804
 30
0.0
 10
62.643979
 20
-13.896691
 30
0.0
 10
62.237579
 20
-14.191896
 30
0.0
 10
61.797380
 20
-14.433901
 30
0.0
 10
61.330378
 20
-14.618813
 30
0.0
 10
60.843779
 20
-14.743810
 30
0.0
 10
60.345479
 20
-14.806689
 30
0.0
 10
59.843180
 20
-14.806689
 30
0.0
  0
LWPOLYLINE
  5
1b9
100
AcDbEntity
  8
Layer_1
 62
7
100
AcDbPolyline
 90
51
 70
0
 10
35.843180
 20
-26.806693
 30
0.0
 10
35.344778
 20
-26.743701
 30
0.0
 10
34.858278
 20
-26.618789
 30
0.0
 10
34.391181
 20
-26.433906
 30
0.0
 10
33.950979
 20
-26.191900
 30
0.0
 10
33.544579
 20
-25.896611
 30
0.0
 10
33.178379
 20
-25.552808
 30
0.0
 10
32.858279
 20
-25.165712
 30
0.0
 10
32.589079
 20
-24.741588
 30
0.0
 10
32.375180
 20
-24.287098
 30
0.0
 10
32.219980
 20
-23.809408
 30
0.0
 10
32.125879
 20
-23.315915
 30
0.0
 10
32.094278
 20
-22.814603
 30
0.0
 10
32.125879
 20
-22.313292
 30
0.0
 10
32.219980
 20
-21.819798
 30
0.0
 10
32.375180
 20
-21.342109
 30
0.0
 10
32.589079
 20
-20.887590
 30
0.0
 10
32.858279
 20
-20.463495
 30
0.0
 10
33.178379
 20
-20.076399
 30
0.0
 10
33.544579
 20
-19.732595
 30
0.0
 10
33.950979
 20
-19.437306
 30
0.0
 10
34.391181
 20
-19.195301
 30
0.0
 10
34.858278
 20
-19.010389
 30
0.0
 10
35.344778
 20
-18.885505
 30
0.0
 10
35.843180
 20
-18.822513
 30
0.0
 10
36.345479
 20
-18.822513
 30
0.0
 10
36.843779
 20
-18.885505
 30
0.0
 10
37.330378
 20
-19.010389
 30
0.0
 10
37.797380
 20
-19.195301
 30
0.0
 10
38.237579
 20
-19.437306
 30
0.0
 10
38.643979
 20
-19.732595
 30
0.0
 10
39.010179
 20
-20.076399
 30
0.0
 10
39.330380
 20
-20.463495
 30
0.0
 10
39.599479
 20
-20.887590
 30
0.0
 10
39.813381
 20
-21.342109
 30
0.0
 10
39.968679
 20
-21.819798
 30
0.0
 10
40.062780
 20
-22.313292
 30
0.0
 10
40.094279
 20
-22.814603
 30
0.0
 10
40.062780
 20
-23.315915
 30
0.0
 10
39.968679
 20
-23.809408
 30
0.0
 10
39.813381
 20
-24.287098
 30
0.0
 10
39.599479
 20
-24.741588
 30
0.0
 10
39.330380
 20
-25.165712
 30
0.0
 10
39.010179
 20
-25.552808
 30
0.0
 10
38.643979
 20
-25.896611
 30
0.0
 10
38.237579
 20
-26.191900
 30
0.0
 10
37.797380
 20
-26.433906
 30
0.0
 10
37.330378
 20
-26.618789
 30
0.0
 10
36.843779
 20
-26.743701
 30
0.0
 10
36.345479
 20
-26.806693
 30
0.0
 10
35.843180
 20
-26.806693
 30
0.0
  0
LWPOLYLINE
  5
1ba
100
AcDbEntity
  8
Layer_1
 62
7
100
AcDbPolyline
 90
51
 70
0
 10
47.843179
 20
-26.806693
 30
0.0
 10
47.344780
 20
-26.743701
 30
0.0
 10
46.858280
 20
-26.618789
 30
0.0
 10
46.391179
 20
-26.433906
 30
0.0
 10
45.950980
 20
-26.191900
 30
0.0
 10
45.544580
 20
-25.896611
 30
0.0
 10
45.178380
 20
-25.552808
 30
0.0
 10
44.858281
 20
-25.165712
 30
0.0
 10
44.589080
 20
-24.741588
 30
0.0
 10
44.375178
 20
-24.287098
 30
0.0
 10
44.219979
 20
-23.809408
 30
0.0
 10
44.125880
 20
-23.315915
 30
0.0
 10
44.094280
 20
-22.814603
 30
0.0
 10
44.125880
 20
-22.313292
 30
0.0
 10
44.219979
 20
-21.819798
 30
0.0
 10
44.375178
 20
-21.342109
 30
0.0
 10
44.589080
 20
-20.887590
 30
0.0
 10
44.858281
 20
-20.463495
 30
0.0
 10
45.178380
 20
-20.076399
 30
0.0
 10
45.544580
 20
-19.732595
 30
0.0
 10
45.950980
 20
-19.437306
 30
0.0
 10
46.391179
 20
-19.195301
 30
0.0
 10
46.858280
 20
-19.010389
 30
0.0
 10
47.344780
 20
-18.885505
 30
0.0
 10
47.843179
 20
-18.822513
 30
0.0
 10
48.345481
 20
-18.822513
 30
0.0
 10
48.843781
 20
-18.885505
 30
0.0
 10
49.330380
 20
-19.010389
 30
0.0
 10
49.797378
 20
-19.195301
 30
0.0
 10
50.237580
 20
-19.437306
 30
0.0
 10
50.643980
 20
-19.732595
 30
0.0
 10
51.010180
 20
-20.076399
 30
0.0
 10
51.330379
 20
-20.463495
 30
0.0
 10
51.599480
 20
-20.887590
 30
0.0
 10
51.813379
 20
-21.342109
 30
0.0
 10
51.968681
 20
-21.819798
 30
0.0
 10
52.062779
 20
-22.313292
 30
0.0
 10
52.094281
 20
-22.814603
 30
0.0
 10
52.062779
 20
-23.315915
 30
0.0
 10
51.968681
 20
-23.809408
 30
0.0
 10
51.813379
 20
-24.287098
 30
0.0
 10
51.599480
 20
-24.741588
 30
0.0
 10
51.330379
 20
-25.165712
 30
0.0
 10
51.010180
 20
-25.552808
 30
0.0
 10
50.643980
 20
-25.896611
 30
0.0
 10
50.237580
 20
-26.191900
 30
0.0
 10
49.797378
 20
-26.433906
 30
0.0
 10
49.330380
 20
-26.618789
 30
0.0
 10
48.843781
 20
-26.743701
 30
0.0
 10
48.345481
 20
-26.806693
 30
0.0
 10
47.843179
 20
-26.806693
 30
0.0
  0
LWPOLYLINE
  5
1bb
100
AcDbEntity
  8
Layer_1
 62
7
100
AcDbPolyline
 90
51
 70
0
 10
59.843180
 20
-26.806693
 30
0.0
 10
59.344778
 20
-26.743701
 30
0.0
 10
58.858278
 20
-26.618789
 30
0.0
 10
58.391181
 20
-26.433906
 30
0.0
 10
57.950979
 20
-26.191900
 30
0.0
 10
57.544579
 20
-25.896611
 30
0.0
 10
57.178379
 20
-25.552808
 30
0.0
 10
56.858279
 20
-25.165712
 30
0.0
 10
56.589079
 20
-24.741588
 30
0.0
 10
56.375180
 20
-24.287098
 30
0.0
 10
56.219980
 20
-23.809408
 30
0.0
 10
56.125879
 20
-23.315915
 30
0.0
 10
56.094278
 20
-22.814603
 30
0.0
 10
56.125879
 20
-22.313292
 30
0.0
 10
56.219980
 20
-21.819798
 30
0.0
 10
56.375180
 20
-21.342109
 30
0.0
 10
56.589079
 20
-20.887590
 30
0.0
 10
56.858279
 20
-20.463495
 30
0.0
 10
57.178379
 20
-20.076399
 30
0.0
 10
57.544579
 20
-19.732595
 30
0.0
 10
57.950979
 20
-19.437306
 30
0.0
 10
58.391181
 20
-19.195301
 30
0.0
 10
58.858278
 20
-19.010389
 30
0.0
 10
59.344778
 20
-18.885505
 30
0.0
 10
59.843180
 20
-18.822513
 30
0.0
 10
60.345479
 20
-18.822513
 30
0.0
 10
60.843779
 20
-18.885505
 30
0.0
 10
61.330378
 20
-19.010389
 30
0.0
 10
61.797380
 20
-19.195301
 30
0.0
 10
62.237579
 20
-19.437306
 30
0.0
 10
62.643979
 20
-19.732595
 30
0.0
 10
63.010179
 20
-20.076399
 30
0.0
 10
63.330380
 20
-20.463495
 30
0.0
 10
63.599479
 20
-20.887590
 30
0.0
 10
63.813381
 20
-21.342109
 30
0.0
 10
63.968679
 20
-21.819798
 30
0.0
 10
64.062780
 20
-22.313292
 30
0.0
 10
64.094279
 20
-22.814603
 30
0.0
 10
64.062780
 20
-23.315915
 30
0.0
 10
63.968679
 20
-23.809408
 30
0.0
 10
63.813381
 20
-24.287098
 30
0.0
 10
63.599479
 20
-24.741588
 30
0.0
 10
63.330380
 20
-25.165712
 30
0.0
 10
63.010179
 20
-25.552808
 30
0.0
 10
62.643979
 20
-25.896611
 30
0.0
 10
62.237579
 20
-26.191900
 30
0.0
 10
61.797380
 20
-26.433906
 30
0.0
 10
61.330378
 20
-26.618789
 30
0.0
 10
60.843779
 20
-26.743701
 30
0.0
 10
60.345479
 20
-26.806693
 30
0.0
 10
59.843180
 20
-26.806693
 30
0.0
  0
LWPOLYLINE
  5
1bc
100
AcDbEntity
  8
Layer_1
 62
7
100
AcDbPolyline
 90
51
 70
0
 10
23.843179
 20
-26.806693
 30
0.0
 10
23.344780
 20
-26.743701
 30
0.0
 10
22.858280
 20
-26.618789
 30
0.0
 10
22.391179
 20
-26.433906
 30
0.0
 10
21.950980
 20
-26.191900
 30
0.0
 10
21.544580
 20
-25.896611
 30
0.0
 10
21.178380
 20
-25.552808
 30
0.0
 10
20.858281
 20
-25.165712
 30
0.0
 10
20.589080
 20
-24.741588
 30
0.0
 10
20.375178
 20
-24.287098
 30
0.0
 10
20.219979
 20
-23.809408
 30
0.0
 10
20.125880
 20
-23.315915
 30
0.0
 10
20.094280
 20
-22.814603
 30
0.0
 10
20.125880
 20
-22.313292
 30
0.0
 10
20.219979
 20
-21.819798
 30
0.0
 10
20.375178
 20
-21.342109
 30
0.0
 10
20.589080
 20
-20.887590
 30
0.0
 10
20.858281
 20
-20.463495
 30
0.0
 10
21.178380
 20
-20.076399
 30
0.0
 10
21.544580
 20
-19.732595
 30
0.0
 10
21.950980
 20
-19.437306
 30
0.0
 10
22.391179
 20
-19.195301
 30
0.0
 10
22.858280
 20
-19.010389
 30
0.0
 10
23.344780
 20
-18.885505
 30
0.0
 10
23.843179
 20
-18.822513
 30
0.0
 10
24.345481
 20
-18.822513
 30
0.0
 10
24.843781
 20
-18.885505
 30
0.0
 10
25.330380
 20
-19.010389
 30
0.0
 10
25.797378
 20
-19.195301
 30
0.0
 10
26.237580
 20
-19.437306
 30
0.0
 10
26.643980
 20
-19.732595
 30
0.0
 10
27.010181
 20
-20.076399
 30
0.0
 10
27.330379
 20
-20.463495
 30
0.0
 10
27.599480
 20
-20.887590
 30
0.0
 10
27.813379
 20
-21.342109
 30
0.0
 10
27.968681
 20
-21.819798
 30
0.0
 10
28.062779
 20
-22.313292
 30
0.0
 10
28.094281
 20
-22.814603
 30
0.0
 10
28.062779
 20
-23.315915
 30
0.0
 10
27.968681
 20
-23.809408
 30
0.0
 10
27.813379
 20
-24.287098
 30
0.0
 10
27.599480
 20
-24.741588
 30
0.0
 10
27.330379
 20
-25.165712
 30
0.0
 10
27.010181
 20
-25.552808
 30
0.0
 10
26.643980
 20
-25.896611
 30
0.0
 10
26.237580
 20
-26.191900
 30
0.0
 10
25.797378
 20
-26.433906
 30
0.0
 10
25.330380
 20
-26.618789
 30
0.0
 10
24.843781
 20
-26.743701
 30
0.0
 10
24.345481
 20
-26.806693
 30
0.0
 10
23.843179
 20
-26.806693
 30
0.0
  0
LWPOLYLINE
  5
1bd
100
AcDbEntity
  8
Layer_1
 62
7
100
AcDbPolyline
 90
51
 70
0
 10
-0.156820
 20
-26.806693
 30
0.0
 10
-0.655220
 20
-26.743701
 30
0.0
 10
-1.141720
 20
-26.618789
 30
0.0
 10
-1.608820
 20
-26.433906
 30
0.0
 10
-2.049021
 20
-26.191900
 30
0.0
 10
-2.455421
 20
-25.896611
 30
0.0
 10
-2.821521
 20
-25.552808
 30
0.0
 10
-3.141720
 20
-25.165712
 30
0.0
 10
-3.410921
 20
-24.741588
 30
0.0
 10
-3.624820
 20
-24.287098
 30
0.0
 10
-3.780020
 20
-23.809408
 30
0.0
 10
-3.874121
 20
-23.315915
 30
0.0
 10
-3.905720
 20
-22.814603
 30
0.0
 10
-3.874121
 20
-22.313292
 30
0.0
 10
-3.780020
 20
-21.819798
 30
0.0
 10
-3.624820
 20
-21.342109
 30
0.0
 10
-3.410921
 20
-20.887590
 30
0.0
 10
-3.141720
 20
-20.463495
 30
0.0
 10
-2.821521
 20
-20.076399
 30
0.0
 10
-2.455421
 20
-19.732595
 30
0.0
 10
-2.049021
 20
-19.437306
 30
0.0
 10
-1.608820
 20
-19.195301
 30
0.0
 10
-1.141720
 20
-19.010389
 30
0.0
 10
-0.655220
 20
-18.885505
 30
0.0
 10
-0.156820
 20
-18.822513
 30
0.0
 10
0.345480
 20
-18.822513
 30
0.0
 10
0.843780
 20
-18.885505
 30
0.0
 10
1.330379
 20
-19.010389
 30
0.0
 10
1.797380
 20
-19.195301
 30
0.0
 10
2.237579
 20
-19.437306
 30
0.0
 10
2.643979
 20
-19.732595
 30
0.0
 10
3.010179
 20
-20.076399
 30
0.0
 10
3.330379
 20
-20.463495
 30
0.0
 10
3.599479
 20
-20.887590
 30
0.0
 10
3.813380
 20
-21.342109
 30
0.0
 10
3.968679
 20
-21.819798
 30
0.0
 10
4.062779
 20
-22.313292
 30
0.0
 10
4.094280
 20
-22.814603
 30
0.0
 10
4.062779
 20
-23.315915
 30
0.0
 10
3.968679
 20
-23.809408
 30
0.0
 10
3.813380
 20
-24.287098
 30
0.0
 10
3.599479
 20
-24.741588
 30
0.0
 10
3.330379
 20
-25.165712
 30
0.0
 10
3.010179
 20
-25.552808
 30
0.0
 10
2.643979
 20
-25.896611
 30
0.0
 10
2.237579
 20
-26.191900
 30
0.0
 10
1.797380
 20
-26.433906
 30
0.0
 10
1.330379
 20
-26.618789
 30
0.0
 10
0.843780
 20
-26.743701
 30
0.0
 10
0.345480
 20
-26.806693
 30
0.0
 10
-0.156820
 20
-26.806693
 30
0.0
  0
LWPOLYLINE
  5
1be
100
AcDbEntity
  8
Layer_1
 62
7
100
AcDbPolyline
 90
51
 70
0
 10
11.843180
 20
-26.806693
 30
0.0
 10
11.344778
 20
-26.743701
 30
0.0
 10
10.858281
 20
-26.618789
 30
0.0
 10
10.391181
 20
-26.433906
 30
0.0
 10
9.950979
 20
-26.191900
 30
0.0
 10
9.544579
 20
-25.896611
 30
0.0
 10
9.178379
 20
-25.552808
 30
0.0
 10
8.858279
 20
-25.165712
 30
0.0
 10
8.589079
 20
-24.741588
 30
0.0
 10
8.375180
 20
-24.287098
 30
0.0
 10
8.219980
 20
-23.809408
 30
0.0
 10
8.125879
 20
-23.315915
 30
0.0
 10
8.094278
 20
-22.814603
 30
0.0
 10
8.125879
 20
-22.313292
 30
0.0
 10
8.219980
 20
-21.819798
 30
0.0
 10
8.375180
 20
-21.342109
 30
0.0
 10
8.589079
 20
-20.887590
 30
0.0
 10
8.858279
 20
-20.463495
 30
0.0
 10
9.178379
 20
-20.076399
 30
0.0
 10
9.544579
 20
-19.732595
 30
0.0
 10
9.950979
 20
-19.437306
 30
0.0
 10
10.391181
 20
-19.195301
 30
0.0
 10
10.858281
 20
-19.010389
 30
0.0
 10
11.344778
 20
-18.885505
 30
0.0
 10
11.843180
 20
-18.822513
 30
0.0
 10
12.345479
 20
-18.822513
 30
0.0
 10
12.843779
 20
-18.885505
 30
0.0
 10
13.330378
 20
-19.010389
 30
0.0
 10
13.797380
 20
-19.195301
 30
0.0
 10
14.237579
 20
-19.437306
 30
0.0
 10
14.643979
 20
-19.732595
 30
0.0
 10
15.010179
 20
-20.076399
 30
0.0
 10
15.330380
 20
-20.463495
 30
0.0
 10
15.599479
 20
-20.887590
 30
0.0
 10
15.813381
 20
-21.342109
 30
0.0
 10
15.968679
 20
-21.819798
 30
0.0
 10
16.062781
 20
-22.313292
 30
0.0
 10
16.094279
 20
-22.814603
 30
0.0
 10
16.062781
 20
-23.315915
 30
0.0
 10
15.968679
 20
-23.809408
 30
0.0
 10
15.813381
 20
-24.287098
 30
0.0
 10
15.599479
 20
-24.741588
 30
0.0
 10
15.330380
 20
-25.165712
 30
0.0
 10
15.010179
 20
-25.552808
 30
0.0
 10
14.643979
 20
-25.896611
 30
0.0
 10
14.237579
 20
-26.191900
 30
0.0
 10
13.797380
 20
-26.433906
 30
0.0
 10
13.330378
 20
-26.618789
 30
0.0
 10
12.843779
 20
-26.743701
 30
0.0
 10
12.345479
 20
-26.806693
 30
0.0
 10
11.843180
 20
-26.806693
 30
0.0
  0
LWPOLYLINE
  5
1bf
100
AcDbEntity
  8
Layer_1
 62
7
100
AcDbPolyline
 90
9
 70
0
 10
-25.939031
 20
12.285403
 30
0.0
 10
-29.039020
 20
12.285403
 30
0.0
 10
-29.039020
 20
5.285389
 30
0.0
 10
-50.139021
 20
5.285389
 30
0.0
 10
-50.139021
 20
12.285403
 30
0.0
 10
-53.239020
 20
12.285403
 30
0.0
 10
-53.239020
 20
2.185403
 30
0.0
 10
-25.939031
 20
2.185403
 30
0.0
 10
-25.939031
 20
12.285403
 30
0.0
  0
LWPOLYLINE
  5
1c0
100
AcDbEntity
  8
Layer_1
 62
7
100
AcDbPolyline
 90
54
 70
0
 10
-81.365222
 20
-7.637511
 30
0.0
 10
-80.148821
 20
-7.325203
 30
0.0
 10
-78.981220
 20
-6.862895
 30
0.0
 10
-77.880720
 20
-6.257895
 30
0.0
 10
-76.864821
 20
-5.519715
 30
0.0
 10
-75.949321
 20
-4.660094
 30
0.0
 10
-75.148820
 20
-3.692411
 30
0.0
 10
-74.475920
 20
-2.632102
 30
0.0
 10
-73.941219
 20
-1.495791
 30
0.0
 10
-73.553220
 20
-0.301511
 30
0.0
 10
-73.374520
 20
0.635411
 30
0.0
 10
-78.239021
 20
0.635411
 30
0.0
 10
-78.239021
 20
3.735396
 30
0.0
 10
-73.374520
 20
3.735396
 30
0.0
 10
-73.553220
 20
4.672289
 30
0.0
 10
-73.941219
 20
5.866597
 30
0.0
 10
-74.475920
 20
7.002908
 30
0.0
 10
-75.148820
 20
8.063189
 30
0.0
 10
-75.949321
 20
9.030901
 30
0.0
 10
-76.864821
 20
9.890493
 30
0.0
 10
-77.880720
 20
10.628702
 30
0.0
 10
-78.981220
 20
11.233702
 30
0.0
 10
-80.148821
 20
11.696010
 30
0.0
 10
-81.365222
 20
12.008289
 30
0.0
 10
-81.689021
 20
12.049211
 30
0.0
 10
-81.689021
 20
7.185393
 30
0.0
 10
-84.789020
 20
7.185393
 30
0.0
 10
-84.789020
 20
12.049211
 30
0.0
 10
-85.112819
 20
12.008289
 30
0.0
 10
-86.329220
 20
11.696010
 30
0.0
 10
-87.496821
 20
11.233702
 30
0.0
 10
-88.597321
 20
10.628702
 30
0.0
 10
-89.613220
 20
9.890493
 30
0.0
 10
-90.528720
 20
9.030901
 30
0.0
 10
-91.329221
 20
8.063189
 30
0.0
 10
-92.002121
 20
7.002908
 30
0.0
 10
-92.536822
 20
5.866597
 30
0.0
 10
-92.924821
 20
4.672289
 30
0.0
 10
-93.160121
 20
3.438696
 30
0.0
 10
-93.239022
 20
2.185403
 30
0.0
 10
-93.160121
 20
0.932111
 30
0.0
 10
-92.924821
 20
-0.301511
 30
0.0
 10
-92.536822
 20
-1.495791
 30
0.0
 10
-92.002121
 20
-2.632102
 30
0.0
 10
-91.329221
 20
-3.692411
 30
0.0
 10
-90.528720
 20
-4.660094
 30
0.0
 10
-89.613220
 20
-5.519715
 30
0.0
 10
-88.597321
 20
-6.257895
 30
0.0
 10
-87.496821
 20
-6.862895
 30
0.0
 10
-86.329220
 20
-7.325203
 30
0.0
 10
-85.112819
 20
-7.637511
 30
0.0
 10
-83.866921
 20
-7.794906
 30
0.0
 10
-82.611120
 20
-7.794906
 30
0.0
 10
-81.365222
 20
-7.637511
 30
0.0
  0
LWPOLYLINE
  5
1c1
100
AcDbEntity
  8
Layer_1
 62
7
100
AcDbPolyline
 90
51
 70
0
 10
-83.339521
 20
0.588590
 30
0.0
 10
-83.538821
 20
0.613708
 30
0.0
 10
-83.733422
 20
0.663689
 30
0.0
 10
-83.920222
 20
0.737688
 30
0.0
 10
-84.096320
 20
0.834490
 30
0.0
 10
-84.258919
 20
0.952600
 30
0.0
 10
-84.405319
 20
1.090099
 30
0.0
 10
-84.533420
 20
1.245011
 30
0.0
 10
-84.641122
 20
1.414598
 30
0.0
 10
-84.726621
 20
1.596405
 30
0.0
 10
-84.788721
 20
1.787498
 30
0.0
 10
-84.826420
 20
1.984884
 30
0.0
 10
-84.839007
 20
2.185403
 30
0.0
 10
-84.826434
 20
2.385894
 30
0.0
 10
-84.788721
 20
2.583308
 30
0.0
 10
-84.726621
 20
2.774401
 30
0.0
 10
-84.641122
 20
2.956209
 30
0.0
 10
-84.533420
 20
3.125796
 30
0.0
 10
-84.405319
 20
3.280708
 30
0.0
 10
-84.258919
 20
3.418206
 30
0.0
 10
-84.096320
 20
3.536288
 30
0.0
 10
-83.920222
 20
3.633090
 30
0.0
 10
-83.733422
 20
3.707089
 30
0.0
 10
-83.538821
 20
3.757099
 30
0.0
 10
-83.339521
 20
3.782217
 30
0.0
 10
-83.138520
 20
3.782188
 30
0.0
 10
-82.939220
 20
3.757071
 30
0.0
 10
-82.744619
 20
3.707089
 30
0.0
 10
-82.557819
 20
3.633090
 30
0.0
 10
-82.381721
 20
3.536288
 30
0.0
 10
-82.219122
 20
3.418206
 30
0.0
 10
-82.072722
 20
3.280708
 30
0.0
 10
-81.944621
 20
3.125796
 30
0.0
 10
-81.836919
 20
2.956209
 30
0.0
 10
-81.751420
 20
2.774401
 30
0.0
 10
-81.689320
 20
2.583308
 30
0.0
 10
-81.651621
 20
2.385894
 30
0.0
 10
-81.639005
 20
2.185403
 30
0.0
 10
-81.651635
 20
1.984884
 30
0.0
 10
-81.689320
 20
1.787498
 30
0.0
 10
-81.751420
 20
1.596405
 30
0.0
 10
-81.836919
 20
1.414598
 30
0.0
 10
-81.944621
 20
1.245011
 30
0.0
 10
-82.072722
 20
1.090099
 30
0.0
 10
-82.219122
 20
0.952600
 30
0.0
 10
-82.381721
 20
0.834490
 30
0.0
 10
-82.557819
 20
0.737688
 30
0.0
 10
-82.744619
 20
0.663689
 30
0.0
 10
-82.939220
 20
0.613708
 30
0.0
 10
-83.138520
 20
0.588590
 30
0.0
 10
-83.339521
 20
0.588590
 30
0.0
  0
LWPOLYLINE
  5
1c2
100
AcDbEntity
  8
Layer_1
 62
7
100
AcDbPolyline
 90
54
 70
0
 10
-111.365221
 20
-7.637511
 30
0.0
 10
-110.148820
 20
-7.325203
 30
0.0
 10
-108.981219
 20
-6.862895
 30
0.0
 10
-107.880722
 20
-6.257895
 30
0.0
 10
-106.864821
 20
-5.519715
 30
0.0
 10
-105.949320
 20
-4.660094
 30
0.0
 10
-105.148822
 20
-3.692411
 30
0.0
 10
-104.475920
 20
-2.632102
 30
0.0
 10
-103.941221
 20
-1.495791
 30
0.0
 10
-103.553219
 20
-0.301511
 30
0.0
 10
-103.374519
 20
0.635411
 30
0.0
 10
-108.239020
 20
0.635411
 30
0.0
 10
-108.239020
 20
3.735396
 30
0.0
 10
-103.374519
 20
3.735396
 30
0.0
 10
-103.553219
 20
4.672289
 30
0.0
 10
-103.941221
 20
5.866597
 30
0.0
 10
-104.475920
 20
7.002908
 30
0.0
 10
-105.148822
 20
8.063189
 30
0.0
 10
-105.949320
 20
9.030901
 30
0.0
 10
-106.864821
 20
9.890493
 30
0.0
 10
-107.880722
 20
10.628702
 30
0.0
 10
-108.981219
 20
11.233702
 30
0.0
 10
-110.148820
 20
11.696010
 30
0.0
 10
-111.365221
 20
12.008289
 30
0.0
 10
-111.689020
 20
12.049211
 30
0.0
 10
-111.689020
 20
7.185393
 30
0.0
 10
-114.789019
 20
7.185393
 30
0.0
 10
-114.789019
 20
12.049211
 30
0.0
 10
-115.112821
 20
12.008289
 30
0.0
 10
-116.329222
 20
11.696010
 30
0.0
 10
-117.496820
 20
11.233702
 30
0.0
 10
-118.597320
 20
10.628702
 30
0.0
 10
-119.613222
 20
9.890493
 30
0.0
 10
-120.528720
 20
9.030901
 30
0.0
 10
-121.329220
 20
8.063189
 30
0.0
 10
-122.002120
 20
7.002908
 30
0.0
 10
-122.536821
 20
5.866597
 30
0.0
 10
-122.924820
 20
4.672289
 30
0.0
 10
-123.160120
 20
3.438696
 30
0.0
 10
-123.239021
 20
2.185403
 30
0.0
 10
-123.160120
 20
0.932111
 30
0.0
 10
-122.924820
 20
-0.301511
 30
0.0
 10
-122.536821
 20
-1.495791
 30
0.0
 10
-122.002120
 20
-2.632102
 30
0.0
 10
-121.329220
 20
-3.692411
 30
0.0
 10
-120.528720
 20
-4.660094
 30
0.0
 10
-119.613222
 20
-5.519715
 30
0.0
 10
-118.597320
 20
-6.257895
 30
0.0
 10
-117.496820
 20
-6.862895
 30
0.0
 10
-116.329222
 20
-7.325203
 30
0.0
 10
-115.112821
 20
-7.637511
 30
0.0
 10
-113.866920
 20
-7.794906
 30
0.0
 10
-112.611119
 20
-7.794906
 30
0.0
 10
-111.365221
 20
-7.637511
 30
0.0
  0
LWPOLYLINE
  5
1c3
100
AcDbEntity
  8
Layer_1
 62
7
100
AcDbPolyline
 90
7
 70
0
 10
-114.589020
 20
-0.152893
 30
0.0
 10
-115.939021
 20
2.185403
 30
0.0
 10
-114.589020
 20
4.523699
 30
0.0
 10
-111.889020
 20
4.523699
 30
0.0
 10
-110.539021
 20
2.185403
 30
0.0
 10
-111.889020
 20
-0.152893
 30
0.0
 10
-114.589020
 20
-0.152893
 30
0.0
  0
LWPOLYLINE
  5
1c4
100
AcDbEntity
  8
Layer_1
 62
7
100
AcDbPolyline
 90
51
 70
0
 10
-52.676921
 20
-15.761503
 30
0.0
 10
-52.312021
 20
-15.667805
 30
0.0
 10
-51.961721
 20
-15.529093
 30
0.0
 10
-51.631521
 20
-15.347596
 30
0.0
 10
-51.326720
 20
-15.126108
 30
0.0
 10
-51.052120
 20
-14.868213
 30
0.0
 10
-50.812020
 20
-14.578004
 30
0.0
 10
-50.610121
 20
-14.259911
 30
0.0
 10
-50.449720
 20
-13.919015
 30
0.0
 10
-50.333320
 20
-13.560706
 30
0.0
 10
-50.262721
 20
-13.190600
 30
0.0
 10
-50.239020
 20
-12.814595
 30
0.0
 10
-50.262721
 20
-12.438590
 30
0.0
 10
-50.333320
 20
-12.068512
 30
0.0
 10
-50.449720
 20
-11.710203
 30
0.0
 10
-50.610121
 20
-11.369307
 30
0.0
 10
-50.812020
 20
-11.051214
 30
0.0
 10
-51.052120
 20
-10.761005
 30
0.0
 10
-51.326720
 20
-10.503110
 30
0.0
 10
-51.631521
 20
-10.281594
 30
0.0
 10
-51.961721
 20
-10.100097
 30
0.0
 10
-52.312021
 20
-9.961413
 30
0.0
 10
-52.676921
 20
-9.867715
 30
0.0
 10
-53.050619
 20
-9.820499
 30
0.0
 10
-53.427420
 20
-9.820499
 30
0.0
 10
-53.801122
 20
-9.867715
 30
0.0
 10
-54.166021
 20
-9.961413
 30
0.0
 10
-54.516321
 20
-10.100097
 30
0.0
 10
-54.846521
 20
-10.281594
 30
0.0
 10
-55.151321
 20
-10.503110
 30
0.0
 10
-55.425920
 20
-10.761005
 30
0.0
 10
-55.666021
 20
-11.051214
 30
0.0
 10
-55.867920
 20
-11.369307
 30
0.0
 10
-56.028321
 20
-11.710203
 30
0.0
 10
-56.144720
 20
-12.068512
 30
0.0
 10
-56.215321
 20
-12.438590
 30
0.0
 10
-56.239028
 20
-12.814595
 30
0.0
 10
-56.215313
 20
-13.190600
 30
0.0
 10
-56.144720
 20
-13.560706
 30
0.0
 10
-56.028321
 20
-13.919015
 30
0.0
 10
-55.867920
 20
-14.259911
 30
0.0
 10
-55.666021
 20
-14.578004
 30
0.0
 10
-55.425920
 20
-14.868213
 30
0.0
 10
-55.151321
 20
-15.126108
 30
0.0
 10
-54.846521
 20
-15.347596
 30
0.0
 10
-54.516321
 20
-15.529093
 30
0.0
 10
-54.166021
 20
-15.667805
 30
0.0
 10
-53.801122
 20
-15.761503
 30
0.0
 10
-53.427420
 20
-15.808691
 30
0.0
 10
-53.050619
 20
-15.808691
 30
0.0
 10
-52.676921
 20
-15.761503
 30
0.0
  0
LWPOLYLINE
  5
1c5
100
AcDbEntity
  8
Layer_1
 62
7
100
AcDbPolyline
 90
51
 70
0
 10
-53.325320
 20
-14.186901
 30
0.0
 10
-53.496621
 20
-14.165169
 30
0.0
 10
-53.663919
 20
-14.122300
 30
0.0
 10
-53.824419
 20
-14.058715
 30
0.0
 10
-53.975820
 20
-13.975488
 30
0.0
 10
-54.115421
 20
-13.874001
 30
0.0
 10
-54.241321
 20
-13.755806
 30
0.0
 10
-54.351421
 20
-13.622795
 30
0.0
 10
-54.443920
 20
-13.476999
 30
0.0
 10
-54.517422
 20
-13.320789
 30
0.0
 10
-54.570821
 20
-13.156507
 30
0.0
 10
-54.603220
 20
-12.986892
 30
0.0
 10
-54.614029
 20
-12.814595
 30
0.0
 10
-54.603211
 20
-12.642298
 30
0.0
 10
-54.570821
 20
-12.472711
 30
0.0
 10
-54.517422
 20
-12.308401
 30
0.0
 10
-54.443920
 20
-12.152191
 30
0.0
 10
-54.351421
 20
-12.006395
 30
0.0
 10
-54.241321
 20
-11.873412
 30
0.0
 10
-54.115421
 20
-11.755189
 30
0.0
 10
-53.975820
 20
-11.653702
 30
0.0
 10
-53.824419
 20
-11.570503
 30
0.0
 10
-53.663919
 20
-11.506890
 30
0.0
 10
-53.496621
 20
-11.463992
 30
0.0
 10
-53.325320
 20
-11.442261
 30
0.0
 10
-53.152722
 20
-11.442289
 30
0.0
 10
-52.981421
 20
-11.464021
 30
0.0
 10
-52.814120
 20
-11.506890
 30
0.0
 10
-52.653620
 20
-11.570503
 30
0.0
 10
-52.502219
 20
-11.653702
 30
0.0
 10
-52.362621
 20
-11.755189
 30
0.0
 10
-52.236722
 20
-11.873412
 30
0.0
 10
-52.126621
 20
-12.006395
 30
0.0
 10
-52.034120
 20
-12.152191
 30
0.0
 10
-51.960621
 20
-12.308401
 30
0.0
 10
-51.907222
 20
-12.472711
 30
0.0
 10
-51.874820
 20
-12.642298
 30
0.0
 10
-51.864011
 20
-12.814595
 30
0.0
 10
-51.874831
 20
-12.986892
 30
0.0
 10
-51.907222
 20
-13.156507
 30
0.0
 10
-51.960621
 20
-13.320789
 30
0.0
 10
-52.034120
 20
-13.476999
 30
0.0
 10
-52.126621
 20
-13.622795
 30
0.0
 10
-52.236722
 20
-13.755806
 30
0.0
 10
-52.362621
 20
-13.874001
 30
0.0
 10
-52.502219
 20
-13.975488
 30
0.0
 10
-52.653620
 20
-14.058715
 30
0.0
 10
-52.814120
 20
-14.122300
 30
0.0
 10
-52.981421
 20
-14.165198
 30
0.0
 10
-53.152722
 20
-14.186929
 30
0.0
 10
-53.325320
 20
-14.186901
 30
0.0
  0
LWPOLYLINE
  5
1c6
100
AcDbEntity
  8
Layer_1
 62
7
100
AcDbPolyline
 90
13
 70
0
 10
-31.239021
 20
-20.714616
 30
0.0
 10
-41.639020
 20
-20.714616
 30
0.0
 10
-41.639020
 20
-23.814601
 30
0.0
 10
-52.039019
 20
-23.814601
 30
0.0
 10
-52.039019
 20
-20.714616
 30
0.0
 10
-62.439021
 20
-20.714616
 30
0.0
 10
-62.439021
 20
-23.814601
 30
0.0
 10
-72.839020
 20
-23.814601
 30
0.0
 10
-72.839020
 20
-20.714616
 30
0.0
 10
-83.239019
 20
-20.714616
 30
0.0
 10
-83.239019
 20
-27.814593
 30
0.0
 10
-31.239021
 20
-27.814593
 30
0.0
 10
-31.239021
 20
-20.714616
 30
0.0
  0
ENDSEC
  0
SECTION
  2
OBJECTS
  0
DICTIONARY
  5
C
330
0
100
AcDbDictionary
  3
ACAD_GROUP
350
D
  3
ACAD_MLINESTYLE
350
17
  0
DICTIONARY
  5
D
330
C
100
AcDbDictionary
  0
DICTIONARY
  5
1A
330
C
100
AcDbDictionary
  0
DICTIONARY
  5
17
330
C
100
AcDbDictionary
  3
STANDARD
350
18
  0
DICTIONARY
  5
19
330
C
100
AcDbDictionary
  0
ENDSEC
  0
EOF
