  0
SECTION
  2
HEADER
  9
$ACADVER
  1
AC1014
  9
$HANDSEED
  5
FFFF
  9
$MEASUREMENT
 70
     1
  0
ENDSEC
  0
SECTION
  2
TABLES
  0
TABLE
  2
VPORT
  5
8
330
0
100
AcDbSymbolTable
 70
     4
  0
VPORT
  5
2E
330
8
100
AcDbSymbolTableRecord
100
AcDbViewportTableRecord
  2
*ACTIVE
 70
     0
 10
0.0
 20
0.0
 11
1.0
 21
1.0
 12
210.0
 22
148.5
 13
0.0
 23
0.0
 14
10.0
 24
10.0
 15
10.0
 25
10.0
 16
0.0
 26
0.0
 36
1.0
 17
0.0
 27
0.0
 37
0.0
 40
341.0
 41
1.24
 42
50.0
 43
0.0
 44
0.0
 50
0.0
 51
0.0
 71
     0
 72
   100
 73
     1
 74
     3
 75
     0
 76
     0
 77
     0
 78
     0
  0
ENDTAB
  0
TABLE
  2
LTYPE
  5
5
330
0
100
AcDbSymbolTable
 70
     1
  0
LTYPE
  5
14
330
5
100
AcDbSymbolTableRecord
100
AcDbLinetypeTableRecord
  2
BYBLOCK
 70
     0
  3

 72
    65
 73
     0
 40
0.0
  0
LTYPE
  5
15
330
5
100
AcDbSymbolTableRecord
100
AcDbLinetypeTableRecord
  2
BYLAYER
 70
     0
  3

 72
    65
 73
     0
 40
0.0
  0
LTYPE
  5
16
330
5
100
AcDbSymbolTableRecord
100
AcDbLinetypeTableRecord
  2
CONTINUOUS
 70
     0
  3
Solid line
 72
    65
 73
     0
 40
0.0
  0
ENDTAB
  0
TABLE
  2
LAYER
  5
2
100
AcDbSymbolTable
 70
2
  0
LAYER
  5
50
100
AcDbSymbolTableRecord
100
AcDbLayerTableRecord
  2
0
 70
0
  6
CONTINUOUS
  0
LAYER
  5
51
100
AcDbSymbolTableRecord
100
AcDbLayerTableRecord
  2
Layer_1
 70
0
  6
CONTINUOUS
  0
ENDTAB
  0
TABLE
  2
STYLE
  5
3
330
0
100
AcDbSymbolTable
 70
     1
  0
STYLE
  5
11
330
3
100
AcDbSymbolTableRecord
100
AcDbTextStyleTableRecord
  2
STANDARD
 70
     0
 40
0.0
 41
1.0
 50
0.0
 71
     0
 42
2.5
  3
txt
  4

  0
ENDTAB
  0
TABLE
  2
VIEW
  5
6
330
0
100
AcDbSymbolTable
 70
     0
  0
ENDTAB
  0
TABLE
  2
UCS
  5
7
330
0
100
AcDbSymbolTable
 70
     0
  0
ENDTAB
  0
TABLE
  2
APPID
  5
9
330
0
100
AcDbSymbolTable
 70
     2
  0
APPID
  5
12
330
9
100
AcDbSymbolTableRecord
100
AcDbRegAppTableRecord
  2
ACAD
 70
     0
  0
ENDTAB
  0
TABLE
  2
DIMSTYLE
  5
A
330
0
100
AcDbSymbolTable
 70
     1
  0
DIMSTYLE
105
27
330
A
100
AcDbSymbolTableRecord
100
AcDbDimStyleTableRecord
  2
ISO-25
 70
     0
  3

  4

  5

  6

  7

 40
1.0
 41
2.5
 42
0.625
 43
3.75
 44
1.25
 45
0.0
 46
0.0
 47
0.0
 48
0.0
140
2.5
141
2.5
142
0.0
143
0.03937007874016
144
1.0
145
0.0
146
1.0
147
0.625
 71
     0
 72
     0
 73
     0
 74
     0
 75
     0
 76
     0
 77
     1
 78
     8
170
     0
171
     3
172
     1
173
     0
174
     0
175
     0
176
     0
177
     0
178
     0
270
     2
271
     2
272
     2
273
     2
274
     3
340
11
275
     0
280
     0
281
     0
282
     0
283
     0
284
     8
285
     0
286
     0
287
     3
288
     0
  0
ENDTAB
  0
TABLE
  2
BLOCK_RECORD
  5
1
330
0
100
AcDbSymbolTable
 70
     1
  0
BLOCK_RECORD
  5
1F
330
1
100
AcDbSymbolTableRecord
100
AcDbBlockTableRecord
  2
*MODEL_SPACE
  0
BLOCK_RECORD
  5
1B
330
1
100
AcDbSymbolTableRecord
100
AcDbBlockTableRecord
  2
*PAPER_SPACE
  0
ENDTAB
  0
ENDSEC
  0
SECTION
  2
BLOCKS
  0
BLOCK
  5
20
330
1F
100
AcDbEntity
  8
0
100
AcDbBlockBegin
  2
*MODEL_SPACE
 70
     0
 10
0.0
 20
0.0
 30
0.0
  3
*MODEL_SPACE
  1

  0
ENDBLK
  5
21
330
1F
100
AcDbEntity
  8
0
100
AcDbBlockEnd
  0
BLOCK
  5
1C
330
1B
100
AcDbEntity
 67
     1
  8
0
100
AcDbBlockBegin
  2
*PAPER_SPACE
  1

  0
ENDBLK
  5
1D
330
1B
100
AcDbEntity
 67
     1
  8
0
100
AcDbBlockEnd
  0
ENDSEC
  0
SECTION
  2
ENTITIES
  0
LWPOLYLINE
  5
100
100
AcDbEntity
  8
Layer_1
 62
7
100
AcDbPolyline
 90
53
 70
0
 10
208.476249
 20
207.010016
 30
0.0
 10
209.692248
 20
207.322015
 30
0.0
 10
210.860248
 20
207.785015
 30
0.0
 10
211.960248
 20
208.390015
 30
0.0
 10
212.976248
 20
209.128014
 30
0.0
 10
213.892249
 20
209.988013
 30
0.0
 10
214.692250
 20
210.955014
 30
0.0
 10
215.365248
 20
212.015015
 30
0.0
 10
215.900248
 20
213.152015
 30
0.0
 10
216.288247
 20
214.346016
 30
0.0
 10
216.523248
 20
215.580015
 30
0.0
 10
216.602248
 20
216.833014
 30
0.0
 10
216.602248
 20
316.833015
 30
0.0
 10
216.523248
 20
318.086014
 30
0.0
 10
216.288247
 20
319.320014
 30
0.0
 10
215.900248
 20
320.514014
 30
0.0
 10
215.365248
 20
321.651014
 30
0.0
 10
214.692250
 20
322.711015
 30
0.0
 10
213.892249
 20
323.678015
 30
0.0
 10
212.976248
 20
324.538015
 30
0.0
 10
211.960248
 20
325.276014
 30
0.0
 10
210.860248
 20
325.881014
 30
0.0
 10
209.692248
 20
326.344014
 30
0.0
 10
208.476249
 20
326.656014
 30
0.0
 10
207.230249
 20
326.813014
 30
0.0
 10
-34.025661
 20
326.813014
 30
0.0
 10
-35.271581
 20
326.656014
 30
0.0
 10
-36.487931
 20
326.344014
 30
0.0
 10
-37.655551
 20
325.881014
 30
0.0
 10
-38.756031
 20
325.276014
 30
0.0
 10
-39.772001
 20
324.538015
 30
0.0
 10
-40.687441
 20
323.678015
 30
0.0
 10
-41.487931
 20
322.711015
 30
0.0
 10
-42.160831
 20
321.651014
 30
0.0
 10
-42.695526
 20
320.514014
 30
0.0
 10
-43.083588
 20
319.320014
 30
0.0
 10
-43.318909
 20
318.086014
 30
0.0
 10
-43.397751
 20
316.833015
 30
0.0
 10
-43.397751
 20
216.833014
 30
0.0
 10
-43.318909
 20
215.580015
 30
0.0
 10
-43.083588
 20
214.346016
 30
0.0
 10
-42.695526
 20
213.152015
 30
0.0
 10
-42.160831
 20
212.015015
 30
0.0
 10
-41.487931
 20
210.955014
 30
0.0
 10
-40.687441
 20
209.988013
 30
0.0
 10
-39.772001
 20
209.128014
 30
0.0
 10
-38.756031
 20
208.390015
 30
0.0
 10
-37.655551
 20
207.785015
 30
0.0
 10
-36.487931
 20
207.322015
 30
0.0
 10
-35.271581
 20
207.010016
 30
0.0
 10
-34.025661
 20
206.853016
 30
0.0
 10
207.230249
 20
206.853016
 30
0.0
 10
208.476249
 20
207.010016
 30
0.0
  0
LWPOLYLINE
  5
101
100
AcDbEntity
  8
Layer_1
 62
7
100
AcDbPolyline
 90
51
 70
0
 10
-33.498231
 20
315.236014
 30
0.0
 10
-33.697571
 20
315.261014
 30
0.0
 10
-33.892181
 20
315.311014
 30
0.0
 10
-34.079012
 20
315.385014
 30
0.0
 10
-34.255081
 20
315.482015
 30
0.0
 10
-34.417631
 20
315.600014
 30
0.0
 10
-34.564101
 20
315.738014
 30
0.0
 10
-34.692181
 20
315.893014
 30
0.0
 10
-34.799851
 20
316.062014
 30
0.0
 10
-34.885411
 20
316.244015
 30
0.0
 10
-34.947491
 20
316.435014
 30
0.0
 10
-34.985141
 20
316.632014
 30
0.0
 10
-34.997762
 20
316.833015
 30
0.0
 10
-34.985140
 20
317.034014
 30
0.0
 10
-34.947491
 20
317.231014
 30
0.0
 10
-34.885411
 20
317.422014
 30
0.0
 10
-34.799851
 20
317.604014
 30
0.0
 10
-34.692181
 20
317.773014
 30
0.0
 10
-34.564101
 20
317.928014
 30
0.0
 10
-34.417631
 20
318.066014
 30
0.0
 10
-34.255081
 20
318.184014
 30
0.0
 10
-34.079012
 20
318.281014
 30
0.0
 10
-33.892181
 20
318.355014
 30
0.0
 10
-33.697571
 20
318.405014
 30
0.0
 10
-33.498231
 20
318.430014
 30
0.0
 10
-33.297251
 20
318.430014
 30
0.0
 10
-33.097951
 20
318.405015
 30
0.0
 10
-32.903351
 20
318.355014
 30
0.0
 10
-32.716551
 20
318.281014
 30
0.0
 10
-32.540451
 20
318.184014
 30
0.0
 10
-32.377851
 20
318.066014
 30
0.0
 10
-32.231451
 20
317.928014
 30
0.0
 10
-32.103351
 20
317.773014
 30
0.0
 10
-31.995651
 20
317.604014
 30
0.0
 10
-31.910152
 20
317.422014
 30
0.0
 10
-31.848051
 20
317.231014
 30
0.0
 10
-31.810351
 20
317.034014
 30
0.0
 10
-31.797750
 20
316.833015
 30
0.0
 10
-31.810353
 20
316.632014
 30
0.0
 10
-31.848051
 20
316.435014
 30
0.0
 10
-31.910152
 20
316.244015
 30
0.0
 10
-31.995651
 20
316.062014
 30
0.0
 10
-32.103351
 20
315.893014
 30
0.0
 10
-32.231451
 20
315.738014
 30
0.0
 10
-32.377851
 20
315.600014
 30
0.0
 10
-32.540451
 20
315.482015
 30
0.0
 10
-32.716551
 20
315.385014
 30
0.0
 10
-32.903351
 20
315.311014
 30
0.0
 10
-33.097951
 20
315.261014
 30
0.0
 10
-33.297251
 20
315.236015
 30
0.0
 10
-33.498231
 20
315.236014
 30
0.0
  0
LWPOLYLINE
  5
102
100
AcDbEntity
  8
Layer_1
 62
7
100
AcDbPolyline
 90
51
 70
0
 10
206.502248
 20
315.236014
 30
0.0
 10
206.302249
 20
315.261014
 30
0.0
 10
206.108249
 20
315.311014
 30
0.0
 10
205.921249
 20
315.385014
 30
0.0
 10
205.745249
 20
315.482015
 30
0.0
 10
205.582249
 20
315.600014
 30
0.0
 10
205.436250
 20
315.738014
 30
0.0
 10
205.308248
 20
315.893014
 30
0.0
 10
205.200247
 20
316.062014
 30
0.0
 10
205.114248
 20
316.244015
 30
0.0
 10
205.052250
 20
316.435014
 30
0.0
 10
205.015248
 20
316.632014
 30
0.0
 10
205.002237
 20
316.833015
 30
0.0
 10
205.015259
 20
317.034014
 30
0.0
 10
205.052250
 20
317.231014
 30
0.0
 10
205.114248
 20
317.422014
 30
0.0
 10
205.200247
 20
317.604014
 30
0.0
 10
205.308248
 20
317.773014
 30
0.0
 10
205.436250
 20
317.928014
 30
0.0
 10
205.582249
 20
318.066014
 30
0.0
 10
205.745249
 20
318.184014
 30
0.0
 10
205.921249
 20
318.281014
 30
0.0
 10
206.108249
 20
318.355014
 30
0.0
 10
206.302249
 20
318.405014
 30
0.0
 10
206.502248
 20
318.430014
 30
0.0
 10
206.702248
 20
318.430014
 30
0.0
 10
206.902248
 20
318.405015
 30
0.0
 10
207.096250
 20
318.355014
 30
0.0
 10
207.283248
 20
318.281014
 30
0.0
 10
207.459250
 20
318.184014
 30
0.0
 10
207.622250
 20
318.066014
 30
0.0
 10
207.768249
 20
317.928014
 30
0.0
 10
207.896248
 20
317.773014
 30
0.0
 10
208.004249
 20
317.604014
 30
0.0
 10
208.090248
 20
317.422014
 30
0.0
 10
208.152249
 20
317.231014
 30
0.0
 10
208.189249
 20
317.034014
 30
0.0
 10
208.202259
 20
316.833015
 30
0.0
 10
208.189237
 20
316.632014
 30
0.0
 10
208.152249
 20
316.435014
 30
0.0
 10
208.090248
 20
316.244015
 30
0.0
 10
208.004249
 20
316.062014
 30
0.0
 10
207.896248
 20
315.893014
 30
0.0
 10
207.768249
 20
315.738014
 30
0.0
 10
207.622250
 20
315.600014
 30
0.0
 10
207.459250
 20
315.482015
 30
0.0
 10
207.283248
 20
315.385014
 30
0.0
 10
207.096250
 20
315.311014
 30
0.0
 10
206.902248
 20
315.261014
 30
0.0
 10
206.702248
 20
315.236015
 30
0.0
 10
206.502248
 20
315.236014
 30
0.0
  0
LWPOLYLINE
  5
103
100
AcDbEntity
  8
Layer_1
 62
7
100
AcDbPolyline
 90
5
 70
0
 10
76.147250
 20
315.283015
 30
0.0
 10
76.147250
 20
318.383015
 30
0.0
 10
97.057250
 20
318.383015
 30
0.0
 10
97.057250
 20
315.283015
 30
0.0
 10
76.147250
 20
315.283015
 30
0.0
  0
LWPOLYLINE
  5
104
100
AcDbEntity
  8
Layer_1
 62
7
100
AcDbPolyline
 90
5
 70
0
 10
34.329548
 20
315.283015
 30
0.0
 10
34.329548
 20
318.383015
 30
0.0
 10
55.238647
 20
318.383015
 30
0.0
 10
55.238647
 20
315.283015
 30
0.0
 10
34.329548
 20
315.283015
 30
0.0
  0
LWPOLYLINE
  5
105
100
AcDbEntity
  8
Layer_1
 62
7
100
AcDbPolyline
 90
5
 70
0
 10
-7.488651
 20
315.283015
 30
0.0
 10
-7.488651
 20
318.383015
 30
0.0
 10
13.420448
 20
318.383015
 30
0.0
 10
13.420448
 20
315.283015
 30
0.0
 10
-7.488651
 20
315.283015
 30
0.0
  0
LWPOLYLINE
  5
106
100
AcDbEntity
  8
Layer_1
 62
7
100
AcDbPolyline
 90
5
 70
0
 10
159.784248
 20
315.283015
 30
0.0
 10
159.784248
 20
318.383015
 30
0.0
 10
180.693249
 20
318.383015
 30
0.0
 10
180.693249
 20
315.283015
 30
0.0
 10
159.784248
 20
315.283015
 30
0.0
  0
LWPOLYLINE
  5
107
100
AcDbEntity
  8
Layer_1
 62
7
100
AcDbPolyline
 90
5
 70
0
 10
117.966247
 20
315.283015
 30
0.0
 10
117.966247
 20
318.383015
 30
0.0
 10
138.875248
 20
318.383015
 30
0.0
 10
138.875248
 20
315.283015
 30
0.0
 10
117.966247
 20
315.283015
 30
0.0
  0
LWPOLYLINE
  5
108
100
AcDbEntity
  8
Layer_1
 62
7
100
AcDbPolyline
 90
78
 70
0
 10
86.877248
 20
294.875015
 30
0.0
 10
86.678248
 20
294.893015
 30
0.0
 10
86.487248
 20
294.924015
 30
0.0
 10
86.304250
 20
294.967014
 30
0.0
 10
86.130249
 20
295.022015
 30
0.0
 10
85.964248
 20
295.089014
 30
0.0
 10
85.806249
 20
295.168015
 30
0.0
 10
85.657250
 20
295.259015
 30
0.0
 10
85.519249
 20
295.361014
 30
0.0
 10
85.391250
 20
295.473014
 30
0.0
 10
85.274249
 20
295.597014
 30
0.0
 10
85.167250
 20
295.731014
 30
0.0
 10
85.070247
 20
295.877014
 30
0.0
 10
84.984249
 20
296.033014
 30
0.0
 10
84.909248
 20
296.199014
 30
0.0
 10
84.845248
 20
296.372014
 30
0.0
 10
84.793249
 20
296.553014
 30
0.0
 10
84.753250
 20
296.741015
 30
0.0
 10
84.724248
 20
296.937014
 30
0.0
 10
84.706243
 20
297.141014
 30
0.0
 10
84.701253
 20
297.353015
 30
0.0
 10
84.714258
 20
297.671014
 30
0.0
 10
84.752248
 20
297.969015
 30
0.0
 10
84.817249
 20
298.246014
 30
0.0
 10
84.907250
 20
298.502014
 30
0.0
 10
85.023249
 20
298.738014
 30
0.0
 10
85.165249
 20
298.954014
 30
0.0
 10
85.333247
 20
299.149014
 30
0.0
 10
85.523248
 20
299.321014
 30
0.0
 10
85.734248
 20
299.466014
 30
0.0
 10
85.965247
 20
299.585014
 30
0.0
 10
86.216247
 20
299.678015
 30
0.0
 10
86.488247
 20
299.744014
 30
0.0
 10
86.779250
 20
299.784014
 30
0.0
 10
87.091249
 20
299.797014
 30
0.0
 10
87.297249
 20
299.791014
 30
0.0
 10
87.495247
 20
299.773014
 30
0.0
 10
87.685248
 20
299.744014
 30
0.0
 10
87.867250
 20
299.702014
 30
0.0
 10
88.041249
 20
299.649015
 30
0.0
 10
88.207249
 20
299.583014
 30
0.0
 10
88.365248
 20
299.506015
 30
0.0
 10
88.514247
 20
299.418015
 30
0.0
 10
88.652248
 20
299.319014
 30
0.0
 10
88.781249
 20
299.209015
 30
0.0
 10
88.899249
 20
299.088014
 30
0.0
 10
89.006248
 20
298.957014
 30
0.0
 10
89.103248
 20
298.815015
 30
0.0
 10
89.190249
 20
298.662015
 30
0.0
 10
89.265249
 20
298.500014
 30
0.0
 10
89.329249
 20
298.329014
 30
0.0
 10
89.382250
 20
298.150014
 30
0.0
 10
89.422249
 20
297.963014
 30
0.0
 10
89.451248
 20
297.768014
 30
0.0
 10
89.469254
 20
297.565015
 30
0.0
 10
89.475259
 20
297.353015
 30
0.0
 10
89.469237
 20
297.142015
 30
0.0
 10
89.451242
 20
296.939014
 30
0.0
 10
89.422249
 20
296.744015
 30
0.0
 10
89.380249
 20
296.556014
 30
0.0
 10
89.327248
 20
296.376015
 30
0.0
 10
89.262249
 20
296.203014
 30
0.0
 10
89.186250
 20
296.038015
 30
0.0
 10
89.098250
 20
295.882014
 30
0.0
 10
89.000248
 20
295.737014
 30
0.0
 10
88.892247
 20
295.603014
 30
0.0
 10
88.774247
 20
295.479014
 30
0.0
 10
88.646248
 20
295.365014
 30
0.0
 10
88.507248
 20
295.263015
 30
0.0
 10
88.358249
 20
295.171014
 30
0.0
 10
88.200250
 20
295.091014
 30
0.0
 10
88.034249
 20
295.023014
 30
0.0
 10
87.860248
 20
294.968014
 30
0.0
 10
87.678249
 20
294.924015
 30
0.0
 10
87.488248
 20
294.894014
 30
0.0
 10
87.290250
 20
294.875015
 30
0.0
 10
87.085249
 20
294.869015
 30
0.0
 10
86.877248
 20
294.875015
 30
0.0
  0
LWPOLYLINE
  5
109
100
AcDbEntity
  8
Layer_1
 62
7
100
AcDbPolyline
 90
57
 70
0
 10
87.315249
 20
295.407014
 30
0.0
 10
87.530249
 20
295.439014
 30
0.0
 10
87.728247
 20
295.491015
 30
0.0
 10
87.911249
 20
295.564014
 30
0.0
 10
88.078248
 20
295.658014
 30
0.0
 10
88.229248
 20
295.772014
 30
0.0
 10
88.365248
 20
295.908014
 30
0.0
 10
88.483248
 20
296.063014
 30
0.0
 10
88.583248
 20
296.235014
 30
0.0
 10
88.665248
 20
296.424014
 30
0.0
 10
88.729247
 20
296.630015
 30
0.0
 10
88.774247
 20
296.854014
 30
0.0
 10
88.802244
 20
297.095014
 30
0.0
 10
88.811252
 20
297.354014
 30
0.0
 10
88.801259
 20
297.601015
 30
0.0
 10
88.774239
 20
297.833014
 30
0.0
 10
88.728248
 20
298.049014
 30
0.0
 10
88.664248
 20
298.249015
 30
0.0
 10
88.581250
 20
298.434015
 30
0.0
 10
88.480248
 20
298.603014
 30
0.0
 10
88.361249
 20
298.756014
 30
0.0
 10
88.225249
 20
298.891014
 30
0.0
 10
88.074249
 20
299.006014
 30
0.0
 10
87.908249
 20
299.099015
 30
0.0
 10
87.726249
 20
299.172014
 30
0.0
 10
87.530249
 20
299.224014
 30
0.0
 10
87.318249
 20
299.256014
 30
0.0
 10
87.092248
 20
299.266014
 30
0.0
 10
86.863247
 20
299.256015
 30
0.0
 10
86.649250
 20
299.225014
 30
0.0
 10
86.451248
 20
299.174015
 30
0.0
 10
86.268250
 20
299.102015
 30
0.0
 10
86.101247
 20
299.009014
 30
0.0
 10
85.949248
 20
298.896014
 30
0.0
 10
85.813248
 20
298.763015
 30
0.0
 10
85.693250
 20
298.611014
 30
0.0
 10
85.592248
 20
298.443014
 30
0.0
 10
85.509250
 20
298.258014
 30
0.0
 10
85.444248
 20
298.057015
 30
0.0
 10
85.398249
 20
297.839014
 30
0.0
 10
85.371240
 20
297.605014
 30
0.0
 10
85.362246
 20
297.354014
 30
0.0
 10
85.371251
 20
297.104014
 30
0.0
 10
85.399245
 20
296.870014
 30
0.0
 10
85.445247
 20
296.650015
 30
0.0
 10
85.511248
 20
296.446014
 30
0.0
 10
85.594249
 20
296.257014
 30
0.0
 10
85.697249
 20
296.083015
 30
0.0
 10
85.818249
 20
295.925014
 30
0.0
 10
85.955248
 20
295.785014
 30
0.0
 10
86.108249
 20
295.666015
 30
0.0
 10
86.274250
 20
295.569015
 30
0.0
 10
86.455247
 20
295.494015
 30
0.0
 10
86.651248
 20
295.440014
 30
0.0
 10
86.860247
 20
295.408014
 30
0.0
 10
87.085249
 20
295.397013
 30
0.0
 10
87.315249
 20
295.407014
 30
0.0
  0
LWPOLYLINE
  5
10a
100
AcDbEntity
  8
Layer_1
 62
7
100
AcDbPolyline
 90
9
 70
0
 10
82.149250
 20
294.933014
 30
0.0
 10
82.149250
 20
299.202014
 30
0.0
 10
80.490249
 20
299.202014
 30
0.0
 10
80.490249
 20
299.733014
 30
0.0
 10
84.459247
 20
299.733014
 30
0.0
 10
84.459247
 20
299.202014
 30
0.0
 10
82.797249
 20
299.202014
 30
0.0
 10
82.797249
 20
294.933014
 30
0.0
 10
82.149250
 20
294.933014
 30
0.0
  0
LWPOLYLINE
  5
10b
100
AcDbEntity
  8
Layer_1
 62
7
100
AcDbPolyline
 90
34
 70
0
 10
90.243248
 20
294.933014
 30
0.0
 10
90.243248
 20
299.733014
 30
0.0
 10
92.271249
 20
299.733014
 30
0.0
 10
92.496248
 20
299.725013
 30
0.0
 10
92.705247
 20
299.702013
 30
0.0
 10
92.899250
 20
299.663014
 30
0.0
 10
93.079248
 20
299.609014
 30
0.0
 10
93.243248
 20
299.539014
 30
0.0
 10
93.392250
 20
299.454015
 30
0.0
 10
93.526249
 20
299.353015
 30
0.0
 10
93.645248
 20
299.238014
 30
0.0
 10
93.744248
 20
299.110014
 30
0.0
 10
93.826248
 20
298.970014
 30
0.0
 10
93.890248
 20
298.817014
 30
0.0
 10
93.935248
 20
298.651014
 30
0.0
 10
93.962257
 20
298.472014
 30
0.0
 10
93.971251
 20
298.281015
 30
0.0
 10
93.962245
 20
298.091014
 30
0.0
 10
93.935240
 20
297.912014
 30
0.0
 10
93.889249
 20
297.745014
 30
0.0
 10
93.826248
 20
297.589014
 30
0.0
 10
93.743249
 20
297.445014
 30
0.0
 10
93.643250
 20
297.312014
 30
0.0
 10
93.524248
 20
297.191014
 30
0.0
 10
93.390249
 20
297.084014
 30
0.0
 10
93.243248
 20
296.993014
 30
0.0
 10
93.083247
 20
296.919014
 30
0.0
 10
92.910248
 20
296.861014
 30
0.0
 10
92.724249
 20
296.820014
 30
0.0
 10
92.524250
 20
296.795015
 30
0.0
 10
92.311248
 20
296.787013
 30
0.0
 10
90.894250
 20
296.787015
 30
0.0
 10
90.894250
 20
294.933014
 30
0.0
 10
90.243248
 20
294.933014
 30
0.0
  0
LWPOLYLINE
  5
10c
100
AcDbEntity
  8
Layer_1
 62
7
100
AcDbPolyline
 90
18
 70
0
 10
92.512250
 20
297.321015
 30
0.0
 10
92.758249
 20
297.380014
 30
0.0
 10
92.959247
 20
297.480015
 30
0.0
 10
93.116248
 20
297.619014
 30
0.0
 10
93.228247
 20
297.797014
 30
0.0
 10
93.295250
 20
298.016014
 30
0.0
 10
93.317235
 20
298.274014
 30
0.0
 10
93.295264
 20
298.523014
 30
0.0
 10
93.226249
 20
298.733014
 30
0.0
 10
93.111249
 20
298.906014
 30
0.0
 10
92.950247
 20
299.040015
 30
0.0
 10
92.744248
 20
299.135014
 30
0.0
 10
92.492249
 20
299.193015
 30
0.0
 10
92.193248
 20
299.212014
 30
0.0
 10
90.894250
 20
299.212014
 30
0.0
 10
90.894250
 20
297.301015
 30
0.0
 10
92.220248
 20
297.301015
 30
0.0
 10
92.512250
 20
297.321016
 30
0.0
  0
LWPOLYLINE
  5
10d
100
AcDbEntity
  8
Layer_1
 62
7
100
AcDbPolyline
 90
5
 70
0
 10
205.052250
 20
286.119015
 30
0.0
 10
205.052250
 20
298.976014
 30
0.0
 10
208.152249
 20
298.976014
 30
0.0
 10
208.152249
 20
286.119015
 30
0.0
 10
205.052250
 20
286.119015
 30
0.0
  0
LWPOLYLINE
  5
10e
100
AcDbEntity
  8
Layer_1
 62
7
100
AcDbPolyline
 90
5
 70
0
 10
-34.947751
 20
286.119015
 30
0.0
 10
-34.947751
 20
298.976014
 30
0.0
 10
-31.847751
 20
298.976014
 30
0.0
 10
-31.847751
 20
286.119015
 30
0.0
 10
-34.947751
 20
286.119015
 30
0.0
  0
LWPOLYLINE
  5
10f
100
AcDbEntity
  8
Layer_1
 62
7
100
AcDbPolyline
 90
5
 70
0
 10
87.022249
 20
281.933014
 30
0.0
 10
87.022249
 20
291.933014
 30
0.0
 10
87.522248
 20
291.933014
 30
0.0
 10
87.522248
 20
281.933014
 30
0.0
 10
87.022249
 20
281.933014
 30
0.0
  0
LWPOLYLINE
  5
110
100
AcDbEntity
  8
Layer_1
 62
7
100
AcDbPolyline
 90
51
 70
0
 10
86.330248
 20
249.963016
 30
0.0
 10
84.461248
 20
250.199013
 30
0.0
 10
82.637249
 20
250.667014
 30
0.0
 10
80.885247
 20
251.361015
 30
0.0
 10
79.235249
 20
252.268015
 30
0.0
 10
77.711249
 20
253.375015
 30
0.0
 10
76.337247
 20
254.665013
 30
0.0
 10
75.137250
 20
256.116014
 30
0.0
 10
74.127247
 20
257.707016
 30
0.0
 10
73.325248
 20
259.411014
 30
0.0
 10
72.743249
 20
261.203015
 30
0.0
 10
72.390248
 20
263.053013
 30
0.0
 10
72.272248
 20
264.933014
 30
0.0
 10
72.390248
 20
266.813015
 30
0.0
 10
72.743249
 20
268.663015
 30
0.0
 10
73.325248
 20
270.455013
 30
0.0
 10
74.127247
 20
272.159015
 30
0.0
 10
75.137250
 20
273.750014
 30
0.0
 10
76.337247
 20
275.201015
 30
0.0
 10
77.711249
 20
276.491013
 30
0.0
 10
79.235249
 20
277.598016
 30
0.0
 10
80.885247
 20
278.505016
 30
0.0
 10
82.637249
 20
279.199014
 30
0.0
 10
84.461248
 20
279.667015
 30
0.0
 10
86.330248
 20
279.903015
 30
0.0
 10
88.214248
 20
279.903015
 30
0.0
 10
90.083248
 20
279.667015
 30
0.0
 10
91.907247
 20
279.199014
 30
0.0
 10
93.659249
 20
278.505016
 30
0.0
 10
95.309250
 20
277.598016
 30
0.0
 10
96.833250
 20
276.491013
 30
0.0
 10
98.207249
 20
275.201015
 30
0.0
 10
99.407249
 20
273.750014
 30
0.0
 10
100.417249
 20
272.159015
 30
0.0
 10
101.219248
 20
270.455013
 30
0.0
 10
101.801250
 20
268.663015
 30
0.0
 10
102.154248
 20
266.813015
 30
0.0
 10
102.272248
 20
264.933014
 30
0.0
 10
102.154248
 20
263.053013
 30
0.0
 10
101.801250
 20
261.203015
 30
0.0
 10
101.219248
 20
259.411014
 30
0.0
 10
100.417249
 20
257.707016
 30
0.0
 10
99.407249
 20
256.116014
 30
0.0
 10
98.207249
 20
254.665013
 30
0.0
 10
96.833250
 20
253.375015
 30
0.0
 10
95.309250
 20
252.268015
 30
0.0
 10
93.659249
 20
251.361015
 30
0.0
 10
91.907247
 20
250.667014
 30
0.0
 10
90.083248
 20
250.199013
 30
0.0
 10
88.214248
 20
249.963016
 30
0.0
 10
86.330248
 20
249.963016
 30
0.0
  0
LWPOLYLINE
  5
111
100
AcDbEntity
  8
Layer_1
 62
7
100
AcDbPolyline
 90
5
 70
0
 10
205.052250
 20
260.404013
 30
0.0
 10
205.052250
 20
273.262015
 30
0.0
 10
208.152249
 20
273.262015
 30
0.0
 10
208.152249
 20
260.404013
 30
0.0
 10
205.052250
 20
260.404013
 30
0.0
  0
LWPOLYLINE
  5
112
100
AcDbEntity
  8
Layer_1
 62
7
100
AcDbPolyline
 90
5
 70
0
 10
-34.947751
 20
260.404013
 30
0.0
 10
-34.947751
 20
273.262015
 30
0.0
 10
-31.847751
 20
273.262015
 30
0.0
 10
-31.847751
 20
260.404013
 30
0.0
 10
-34.947751
 20
260.404013
 30
0.0
  0
LWPOLYLINE
  5
113
100
AcDbEntity
  8
Layer_1
 62
7
100
AcDbPolyline
 90
5
 70
0
 10
104.272249
 20
264.683016
 30
0.0
 10
104.272249
 20
265.183015
 30
0.0
 10
114.272249
 20
265.183015
 30
0.0
 10
114.272249
 20
264.683016
 30
0.0
 10
104.272249
 20
264.683016
 30
0.0
  0
LWPOLYLINE
  5
114
100
AcDbEntity
  8
Layer_1
 62
7
100
AcDbPolyline
 90
5
 70
0
 10
60.272250
 20
264.683016
 30
0.0
 10
60.272250
 20
265.183015
 30
0.0
 10
70.272250
 20
265.183015
 30
0.0
 10
70.272250
 20
264.683016
 30
0.0
 10
60.272250
 20
264.683016
 30
0.0
  0
LWPOLYLINE
  5
115
100
AcDbEntity
  8
Layer_1
 62
7
100
AcDbPolyline
 90
5
 70
0
 10
87.022249
 20
237.933014
 30
0.0
 10
87.022249
 20
247.933014
 30
0.0
 10
87.522248
 20
247.933014
 30
0.0
 10
87.522248
 20
237.933014
 30
0.0
 10
87.022249
 20
237.933014
 30
0.0
  0
LWPOLYLINE
  5
116
100
AcDbEntity
  8
Layer_1
 62
7
100
AcDbPolyline
 90
5
 70
0
 10
205.052250
 20
234.690016
 30
0.0
 10
205.052250
 20
247.547016
 30
0.0
 10
208.152249
 20
247.547016
 30
0.0
 10
208.152249
 20
234.690016
 30
0.0
 10
205.052250
 20
234.690016
 30
0.0
  0
LWPOLYLINE
  5
117
100
AcDbEntity
  8
Layer_1
 62
7
100
AcDbPolyline
 90
5
 70
0
 10
-34.947751
 20
234.690016
 30
0.0
 10
-34.947751
 20
247.547016
 30
0.0
 10
-31.847751
 20
247.547016
 30
0.0
 10
-31.847751
 20
234.690016
 30
0.0
 10
-34.947751
 20
234.690016
 30
0.0
  0
LWPOLYLINE
  5
118
100
AcDbEntity
  8
Layer_1
 62
7
100
AcDbPolyline
 90
51
 70
0
 10
206.502248
 20
215.236015
 30
0.0
 10
206.302249
 20
215.261019
 30
0.0
 10
206.108249
 20
215.311015
 30
0.0
 10
205.921249
 20
215.385014
 30
0.0
 10
205.745249
 20
215.482014
 30
0.0
 10
205.582249
 20
215.600014
 30
0.0
 10
205.436250
 20
215.738015
 30
0.0
 10
205.308248
 20
215.893014
 30
0.0
 10
205.200247
 20
216.062014
 30
0.0
 10
205.114248
 20
216.244014
 30
0.0
 10
205.052250
 20
216.435016
 30
0.0
 10
205.015248
 20
216.632016
 30
0.0
 10
205.002237
 20
216.833014
 30
0.0
 10
205.015259
 20
217.034016
 30
0.0
 10
205.052250
 20
217.231015
 30
0.0
 10
205.114248
 20
217.422015
 30
0.0
 10
205.200247
 20
217.604014
 30
0.0
 10
205.308248
 20
217.773015
 30
0.0
 10
205.436250
 20
217.928014
 30
0.0
 10
205.582249
 20
218.066015
 30
0.0
 10
205.745249
 20
218.184015
 30
0.0
 10
205.921249
 20
218.281015
 30
0.0
 10
206.108249
 20
218.355013
 30
0.0
 10
206.302249
 20
218.405015
 30
0.0
 10
206.502248
 20
218.430019
 30
0.0
 10
206.702248
 20
218.430014
 30
0.0
 10
206.902248
 20
218.405009
 30
0.0
 10
207.096250
 20
218.355013
 30
0.0
 10
207.283248
 20
218.281015
 30
0.0
 10
207.459250
 20
218.184015
 30
0.0
 10
207.622250
 20
218.066015
 30
0.0
 10
207.768249
 20
217.928014
 30
0.0
 10
207.896248
 20
217.773015
 30
0.0
 10
208.004249
 20
217.604014
 30
0.0
 10
208.090248
 20
217.422015
 30
0.0
 10
208.152249
 20
217.231015
 30
0.0
 10
208.189249
 20
217.034016
 30
0.0
 10
208.202259
 20
216.833014
 30
0.0
 10
208.189237
 20
216.632016
 30
0.0
 10
208.152249
 20
216.435016
 30
0.0
 10
208.090248
 20
216.244014
 30
0.0
 10
208.004249
 20
216.062014
 30
0.0
 10
207.896248
 20
215.893014
 30
0.0
 10
207.768249
 20
215.738015
 30
0.0
 10
207.622250
 20
215.600014
 30
0.0
 10
207.459250
 20
215.482014
 30
0.0
 10
207.283248
 20
215.385014
 30
0.0
 10
207.096250
 20
215.311015
 30
0.0
 10
206.902248
 20
215.261014
 30
0.0
 10
206.702248
 20
215.236009
 30
0.0
 10
206.502248
 20
215.236015
 30
0.0
  0
LWPOLYLINE
  5
119
100
AcDbEntity
  8
Layer_1
 62
7
100
AcDbPolyline
 90
51
 70
0
 10
-33.498231
 20
215.236015
 30
0.0
 10
-33.697571
 20
215.261019
 30
0.0
 10
-33.892181
 20
215.311015
 30
0.0
 10
-34.079012
 20
215.385014
 30
0.0
 10
-34.255081
 20
215.482014
 30
0.0
 10
-34.417631
 20
215.600014
 30
0.0
 10
-34.564101
 20
215.738015
 30
0.0
 10
-34.692181
 20
215.893014
 30
0.0
 10
-34.799851
 20
216.062014
 30
0.0
 10
-34.885411
 20
216.244014
 30
0.0
 10
-34.947491
 20
216.435016
 30
0.0
 10
-34.985141
 20
216.632016
 30
0.0
 10
-34.997762
 20
216.833014
 30
0.0
 10
-34.985140
 20
217.034016
 30
0.0
 10
-34.947491
 20
217.231015
 30
0.0
 10
-34.885411
 20
217.422015
 30
0.0
 10
-34.799851
 20
217.604014
 30
0.0
 10
-34.692181
 20
217.773015
 30
0.0
 10
-34.564101
 20
217.928014
 30
0.0
 10
-34.417631
 20
218.066015
 30
0.0
 10
-34.255081
 20
218.184015
 30
0.0
 10
-34.079012
 20
218.281015
 30
0.0
 10
-33.892181
 20
218.355013
 30
0.0
 10
-33.697571
 20
218.405015
 30
0.0
 10
-33.498231
 20
218.430019
 30
0.0
 10
-33.297251
 20
218.430014
 30
0.0
 10
-33.097951
 20
218.405009
 30
0.0
 10
-32.903351
 20
218.355013
 30
0.0
 10
-32.716551
 20
218.281015
 30
0.0
 10
-32.540451
 20
218.184015
 30
0.0
 10
-32.377851
 20
218.066015
 30
0.0
 10
-32.231451
 20
217.928014
 30
0.0
 10
-32.103351
 20
217.773015
 30
0.0
 10
-31.995651
 20
217.604014
 30
0.0
 10
-31.910152
 20
217.422015
 30
0.0
 10
-31.848051
 20
217.231015
 30
0.0
 10
-31.810351
 20
217.034016
 30
0.0
 10
-31.797750
 20
216.833014
 30
0.0
 10
-31.810353
 20
216.632016
 30
0.0
 10
-31.848051
 20
216.435016
 30
0.0
 10
-31.910152
 20
216.244014
 30
0.0
 10
-31.995651
 20
216.062014
 30
0.0
 10
-32.103351
 20
215.893014
 30
0.0
 10
-32.231451
 20
215.738015
 30
0.0
 10
-32.377851
 20
215.600014
 30
0.0
 10
-32.540451
 20
215.482014
 30
0.0
 10
-32.716551
 20
215.385014
 30
0.0
 10
-32.903351
 20
215.311015
 30
0.0
 10
-33.097951
 20
215.261014
 30
0.0
 10
-33.297251
 20
215.236009
 30
0.0
 10
-33.498231
 20
215.236015
 30
0.0
  0
LWPOLYLINE
  5
11a
100
AcDbEntity
  8
Layer_1
 62
7
100
AcDbPolyline
 90
5
 70
0
 10
-7.488651
 20
215.283016
 30
0.0
 10
-7.488651
 20
218.383015
 30
0.0
 10
13.420448
 20
218.383015
 30
0.0
 10
13.420448
 20
215.283016
 30
0.0
 10
-7.488651
 20
215.283016
 30
0.0
  0
LWPOLYLINE
  5
11b
100
AcDbEntity
  8
Layer_1
 62
7
100
AcDbPolyline
 90
5
 70
0
 10
34.329548
 20
215.283016
 30
0.0
 10
34.329548
 20
218.383015
 30
0.0
 10
55.238647
 20
218.383015
 30
0.0
 10
55.238647
 20
215.283016
 30
0.0
 10
34.329548
 20
215.283016
 30
0.0
  0
LWPOLYLINE
  5
11c
100
AcDbEntity
  8
Layer_1
 62
7
100
AcDbPolyline
 90
5
 70
0
 10
76.147250
 20
215.283016
 30
0.0
 10
76.147250
 20
218.383015
 30
0.0
 10
97.057250
 20
218.383015
 30
0.0
 10
97.057250
 20
215.283016
 30
0.0
 10
76.147250
 20
215.283016
 30
0.0
  0
LWPOLYLINE
  5
11d
100
AcDbEntity
  8
Layer_1
 62
7
100
AcDbPolyline
 90
5
 70
0
 10
117.966247
 20
215.283016
 30
0.0
 10
117.966247
 20
218.383015
 30
0.0
 10
138.875248
 20
218.383015
 30
0.0
 10
138.875248
 20
215.283016
 30
0.0
 10
117.966247
 20
215.283016
 30
0.0
  0
LWPOLYLINE
  5
11e
100
AcDbEntity
  8
Layer_1
 62
7
100
AcDbPolyline
 90
5
 70
0
 10
159.784248
 20
215.283016
 30
0.0
 10
159.784248
 20
218.383015
 30
0.0
 10
180.693249
 20
218.383015
 30
0.0
 10
180.693249
 20
215.283016
 30
0.0
 10
159.784248
 20
215.283016
 30
0.0
  0
LWPOLYLINE
  5
11f
100
AcDbEntity
  8
Layer_1
 62
7
100
AcDbPolyline
 90
45
 70
0
 10
13.420448
 20
142.833015
 30
0.0
 10
34.329548
 20
142.833015
 30
0.0
 10
34.329548
 20
139.733013
 30
0.0
 10
55.238647
 20
139.733013
 30
0.0
 10
55.238647
 20
142.833015
 30
0.0
 10
76.147250
 20
142.833015
 30
0.0
 10
76.147250
 20
139.733013
 30
0.0
 10
97.057250
 20
139.733013
 30
0.0
 10
97.057250
 20
142.833015
 30
0.0
 10
117.966247
 20
142.833015
 30
0.0
 10
117.966247
 20
139.733013
 30
0.0
 10
138.875248
 20
139.733013
 30
0.0
 10
138.875248
 20
142.833015
 30
0.0
 10
159.784248
 20
142.833015
 30
0.0
 10
159.784248
 20
139.733013
 30
0.0
 10
180.693249
 20
139.733013
 30
0.0
 10
180.693249
 20
142.833015
 30
0.0
 10
201.602250
 20
142.833015
 30
0.0
 10
201.602250
 20
196.833015
 30
0.0
 10
180.693249
 20
196.833015
 30
0.0
 10
180.693249
 20
199.933014
 30
0.0
 10
159.784248
 20
199.933014
 30
0.0
 10
159.784248
 20
196.833015
 30
0.0
 10
138.875248
 20
196.833015
 30
0.0
 10
138.875248
 20
199.933014
 30
0.0
 10
117.966247
 20
199.933014
 30
0.0
 10
117.966247
 20
196.833015
 30
0.0
 10
97.057250
 20
196.833015
 30
0.0
 10
97.057250
 20
199.933014
 30
0.0
 10
76.147250
 20
199.933014
 30
0.0
 10
76.147250
 20
196.833015
 30
0.0
 10
55.238647
 20
196.833015
 30
0.0
 10
55.238647
 20
199.933014
 30
0.0
 10
34.329548
 20
199.933014
 30
0.0
 10
34.329548
 20
196.833015
 30
0.0
 10
13.420448
 20
196.833015
 30
0.0
 10
13.420448
 20
199.933014
 30
0.0
 10
-7.488651
 20
199.933014
 30
0.0
 10
-7.488651
 20
196.833015
 30
0.0
 10
-28.397751
 20
196.833015
 30
0.0
 10
-28.397751
 20
142.833015
 30
0.0
 10
-7.488651
 20
142.833015
 30
0.0
 10
-7.488651
 20
139.733013
 30
0.0
 10
13.420448
 20
139.733013
 30
0.0
 10
13.420448
 20
142.833015
 30
0.0
  0
LWPOLYLINE
  5
120
100
AcDbEntity
  8
Layer_1
 62
7
100
AcDbPolyline
 90
41
 70
0
 10
-8.900050
 20
161.849013
 30
0.0
 10
-9.896752
 20
161.975014
 30
0.0
 10
-10.869851
 20
162.225015
 30
0.0
 10
-11.803953
 20
162.594015
 30
0.0
 10
-12.684351
 20
163.078015
 30
0.0
 10
-13.497151
 20
163.669014
 30
0.0
 10
-14.229453
 20
164.357015
 30
0.0
 10
-14.869851
 20
165.131015
 30
0.0
 10
-15.408251
 20
165.979014
 30
0.0
 10
-15.647751
 20
166.488016
 30
0.0
 10
-15.647751
 20
173.178014
 30
0.0
 10
-15.408251
 20
173.687013
 30
0.0
 10
-14.869851
 20
174.535015
 30
0.0
 10
-14.229453
 20
175.309015
 30
0.0
 10
-13.497151
 20
175.997014
 30
0.0
 10
-12.684351
 20
176.588015
 30
0.0
 10
-11.803953
 20
177.072015
 30
0.0
 10
-10.869851
 20
177.441015
 30
0.0
 10
-9.896752
 20
177.691013
 30
0.0
 10
-8.900050
 20
177.817014
 30
0.0
 10
-7.895452
 20
177.817014
 30
0.0
 10
-6.898753
 20
177.691013
 30
0.0
 10
-5.925651
 20
177.441015
 30
0.0
 10
-4.991552
 20
177.072015
 30
0.0
 10
-4.111151
 20
176.588015
 30
0.0
 10
-3.298351
 20
175.997014
 30
0.0
 10
-2.566052
 20
175.309015
 30
0.0
 10
-1.925650
 20
174.535015
 30
0.0
 10
-1.387252
 20
173.687013
 30
0.0
 10
-1.147753
 20
173.178014
 30
0.0
 10
-1.147753
 20
166.488016
 30
0.0
 10
-1.387252
 20
165.979014
 30
0.0
 10
-1.925650
 20
165.131015
 30
0.0
 10
-2.566052
 20
164.357015
 30
0.0
 10
-3.298351
 20
163.669014
 30
0.0
 10
-4.111151
 20
163.078015
 30
0.0
 10
-4.991552
 20
162.594015
 30
0.0
 10
-5.925651
 20
162.225015
 30
0.0
 10
-6.898753
 20
161.975014
 30
0.0
 10
-7.895452
 20
161.849013
 30
0.0
 10
-8.900050
 20
161.849013
 30
0.0
  0
LWPOLYLINE
  5
121
100
AcDbEntity
  8
Layer_1
 62
7
100
AcDbPolyline
 90
53
 70
0
 10
208.476249
 20
13.010138
 30
0.0
 10
209.692248
 20
13.322446
 30
0.0
 10
210.860248
 20
13.784726
 30
0.0
 10
211.960248
 20
14.389725
 30
0.0
 10
212.976248
 20
15.127878
 30
0.0
 10
213.892249
 20
15.987555
 30
0.0
 10
214.692250
 20
16.955154
 30
0.0
 10
215.365248
 20
18.015462
 30
0.0
 10
215.900248
 20
19.151746
 30
0.0
 10
216.288247
 20
20.346110
 30
0.0
 10
216.523248
 20
21.579675
 30
0.0
 10
216.602248
 20
22.833024
 30
0.0
 10
216.602248
 20
122.833013
 30
0.0
 10
216.523248
 20
124.086015
 30
0.0
 10
216.288247
 20
125.320015
 30
0.0
 10
215.900248
 20
126.514015
 30
0.0
 10
215.365248
 20
127.651015
 30
0.0
 10
214.692250
 20
128.711013
 30
0.0
 10
213.892249
 20
129.678014
 30
0.0
 10
212.976248
 20
130.538016
 30
0.0
 10
211.960248
 20
131.276015
 30
0.0
 10
210.860248
 20
131.881015
 30
0.0
 10
209.692248
 20
132.344015
 30
0.0
 10
208.476249
 20
132.656014
 30
0.0
 10
207.230249
 20
132.813015
 30
0.0
 10
-34.025661
 20
132.813015
 30
0.0
 10
-35.271581
 20
132.656014
 30
0.0
 10
-36.487931
 20
132.344015
 30
0.0
 10
-37.655551
 20
131.881015
 30
0.0
 10
-38.756031
 20
131.276015
 30
0.0
 10
-39.772001
 20
130.538016
 30
0.0
 10
-40.687441
 20
129.678014
 30
0.0
 10
-41.487931
 20
128.711013
 30
0.0
 10
-42.160831
 20
127.651015
 30
0.0
 10
-42.695526
 20
126.514015
 30
0.0
 10
-43.083588
 20
125.320015
 30
0.0
 10
-43.318909
 20
124.086015
 30
0.0
 10
-43.397751
 20
122.833013
 30
0.0
 10
-43.397751
 20
22.833024
 30
0.0
 10
-43.318909
 20
21.579675
 30
0.0
 10
-43.083588
 20
20.346110
 30
0.0
 10
-42.695526
 20
19.151746
 30
0.0
 10
-42.160831
 20
18.015462
 30
0.0
 10
-41.487931
 20
16.955154
 30
0.0
 10
-40.687441
 20
15.987555
 30
0.0
 10
-39.772001
 20
15.127878
 30
0.0
 10
-38.756031
 20
14.389725
 30
0.0
 10
-37.655551
 20
13.784726
 30
0.0
 10
-36.487931
 20
13.322446
 30
0.0
 10
-35.271581
 20
13.010138
 30
0.0
 10
-34.025661
 20
12.852743
 30
0.0
 10
207.230249
 20
12.852743
 30
0.0
 10
208.476249
 20
13.010138
 30
0.0
  0
LWPOLYLINE
  5
122
100
AcDbEntity
  8
Layer_1
 62
7
100
AcDbPolyline
 90
51
 70
0
 10
-33.498231
 20
121.236013
 30
0.0
 10
-33.697571
 20
121.261018
 30
0.0
 10
-33.892181
 20
121.311014
 30
0.0
 10
-34.079012
 20
121.385016
 30
0.0
 10
-34.255081
 20
121.482015
 30
0.0
 10
-34.417631
 20
121.600015
 30
0.0
 10
-34.564101
 20
121.738013
 30
0.0
 10
-34.692181
 20
121.893016
 30
0.0
 10
-34.799851
 20
122.062013
 30
0.0
 10
-34.885411
 20
122.244015
 30
0.0
 10
-34.947491
 20
122.435015
 30
0.0
 10
-34.985141
 20
122.632014
 30
0.0
 10
-34.997762
 20
122.833013
 30
0.0
 10
-34.985140
 20
123.034015
 30
0.0
 10
-34.947491
 20
123.231014
 30
0.0
 10
-34.885411
 20
123.422014
 30
0.0
 10
-34.799851
 20
123.604016
 30
0.0
 10
-34.692181
 20
123.773013
 30
0.0
 10
-34.564101
 20
123.928016
 30
0.0
 10
-34.417631
 20
124.066014
 30
0.0
 10
-34.255081
 20
124.184014
 30
0.0
 10
-34.079012
 20
124.281013
 30
0.0
 10
-33.892181
 20
124.355015
 30
0.0
 10
-33.697571
 20
124.405013
 30
0.0
 10
-33.498231
 20
124.430018
 30
0.0
 10
-33.297251
 20
124.430016
 30
0.0
 10
-33.097951
 20
124.405011
 30
0.0
 10
-32.903351
 20
124.355015
 30
0.0
 10
-32.716551
 20
124.281013
 30
0.0
 10
-32.540451
 20
124.184014
 30
0.0
 10
-32.377851
 20
124.066014
 30
0.0
 10
-32.231451
 20
123.928016
 30
0.0
 10
-32.103351
 20
123.773013
 30
0.0
 10
-31.995651
 20
123.604016
 30
0.0
 10
-31.910152
 20
123.422014
 30
0.0
 10
-31.848051
 20
123.231014
 30
0.0
 10
-31.810351
 20
123.034015
 30
0.0
 10
-31.797750
 20
122.833013
 30
0.0
 10
-31.810353
 20
122.632014
 30
0.0
 10
-31.848051
 20
122.435015
 30
0.0
 10
-31.910152
 20
122.244015
 30
0.0
 10
-31.995651
 20
122.062013
 30
0.0
 10
-32.103351
 20
121.893016
 30
0.0
 10
-32.231451
 20
121.738013
 30
0.0
 10
-32.377851
 20
121.600015
 30
0.0
 10
-32.540451
 20
121.482015
 30
0.0
 10
-32.716551
 20
121.385016
 30
0.0
 10
-32.903351
 20
121.311014
 30
0.0
 10
-33.097951
 20
121.261016
 30
0.0
 10
-33.297251
 20
121.236011
 30
0.0
 10
-33.498231
 20
121.236013
 30
0.0
  0
LWPOLYLINE
  5
123
100
AcDbEntity
  8
Layer_1
 62
7
100
AcDbPolyline
 90
51
 70
0
 10
206.502248
 20
121.236013
 30
0.0
 10
206.302249
 20
121.261018
 30
0.0
 10
206.108249
 20
121.311014
 30
0.0
 10
205.921249
 20
121.385016
 30
0.0
 10
205.745249
 20
121.482015
 30
0.0
 10
205.582249
 20
121.600015
 30
0.0
 10
205.436250
 20
121.738013
 30
0.0
 10
205.308248
 20
121.893016
 30
0.0
 10
205.200247
 20
122.062013
 30
0.0
 10
205.114248
 20
122.244015
 30
0.0
 10
205.052250
 20
122.435015
 30
0.0
 10
205.015248
 20
122.632014
 30
0.0
 10
205.002237
 20
122.833013
 30
0.0
 10
205.015259
 20
123.034015
 30
0.0
 10
205.052250
 20
123.231014
 30
0.0
 10
205.114248
 20
123.422014
 30
0.0
 10
205.200247
 20
123.604016
 30
0.0
 10
205.308248
 20
123.773013
 30
0.0
 10
205.436250
 20
123.928016
 30
0.0
 10
205.582249
 20
124.066014
 30
0.0
 10
205.745249
 20
124.184014
 30
0.0
 10
205.921249
 20
124.281013
 30
0.0
 10
206.108249
 20
124.355015
 30
0.0
 10
206.302249
 20
124.405013
 30
0.0
 10
206.502248
 20
124.430018
 30
0.0
 10
206.702248
 20
124.430016
 30
0.0
 10
206.902248
 20
124.405011
 30
0.0
 10
207.096250
 20
124.355015
 30
0.0
 10
207.283248
 20
124.281013
 30
0.0
 10
207.459250
 20
124.184014
 30
0.0
 10
207.622250
 20
124.066014
 30
0.0
 10
207.768249
 20
123.928016
 30
0.0
 10
207.896248
 20
123.773013
 30
0.0
 10
208.004249
 20
123.604016
 30
0.0
 10
208.090248
 20
123.422014
 30
0.0
 10
208.152249
 20
123.231014
 30
0.0
 10
208.189249
 20
123.034015
 30
0.0
 10
208.202259
 20
122.833013
 30
0.0
 10
208.189237
 20
122.632014
 30
0.0
 10
208.152249
 20
122.435015
 30
0.0
 10
208.090248
 20
122.244015
 30
0.0
 10
208.004249
 20
122.062013
 30
0.0
 10
207.896248
 20
121.893016
 30
0.0
 10
207.768249
 20
121.738013
 30
0.0
 10
207.622250
 20
121.600015
 30
0.0
 10
207.459250
 20
121.482015
 30
0.0
 10
207.283248
 20
121.385016
 30
0.0
 10
207.096250
 20
121.311014
 30
0.0
 10
206.902248
 20
121.261016
 30
0.0
 10
206.702248
 20
121.236011
 30
0.0
 10
206.502248
 20
121.236013
 30
0.0
  0
LWPOLYLINE
  5
124
100
AcDbEntity
  8
Layer_1
 62
7
100
AcDbPolyline
 90
5
 70
0
 10
76.147250
 20
121.283015
 30
0.0
 10
76.147250
 20
124.383014
 30
0.0
 10
97.057250
 20
124.383014
 30
0.0
 10
97.057250
 20
121.283015
 30
0.0
 10
76.147250
 20
121.283015
 30
0.0
  0
LWPOLYLINE
  5
125
100
AcDbEntity
  8
Layer_1
 62
7
100
AcDbPolyline
 90
5
 70
0
 10
117.966247
 20
121.283015
 30
0.0
 10
117.966247
 20
124.383014
 30
0.0
 10
138.875248
 20
124.383014
 30
0.0
 10
138.875248
 20
121.283015
 30
0.0
 10
117.966247
 20
121.283015
 30
0.0
  0
LWPOLYLINE
  5
126
100
AcDbEntity
  8
Layer_1
 62
7
100
AcDbPolyline
 90
5
 70
0
 10
159.784248
 20
121.283015
 30
0.0
 10
159.784248
 20
124.383014
 30
0.0
 10
180.693249
 20
124.383014
 30
0.0
 10
180.693249
 20
121.283015
 30
0.0
 10
159.784248
 20
121.283015
 30
0.0
  0
LWPOLYLINE
  5
127
100
AcDbEntity
  8
Layer_1
 62
7
100
AcDbPolyline
 90
5
 70
0
 10
34.329548
 20
121.283015
 30
0.0
 10
34.329548
 20
124.383014
 30
0.0
 10
55.238647
 20
124.383014
 30
0.0
 10
55.238647
 20
121.283015
 30
0.0
 10
34.329548
 20
121.283015
 30
0.0
  0
LWPOLYLINE
  5
128
100
AcDbEntity
  8
Layer_1
 62
7
100
AcDbPolyline
 90
5
 70
0
 10
-7.488651
 20
121.283015
 30
0.0
 10
-7.488651
 20
124.383014
 30
0.0
 10
13.420448
 20
124.383014
 30
0.0
 10
13.420448
 20
121.283015
 30
0.0
 10
-7.488651
 20
121.283015
 30
0.0
  0
LWPOLYLINE
  5
129
100
AcDbEntity
  8
Layer_1
 62
7
100
AcDbPolyline
 90
51
 70
0
 10
-23.498251
 20
111.236214
 30
0.0
 10
-23.697551
 20
111.261304
 30
0.0
 10
-23.892151
 20
111.311313
 30
0.0
 10
-24.079051
 20
111.385315
 30
0.0
 10
-24.255051
 20
111.482114
 30
0.0
 10
-24.417651
 20
111.600216
 30
0.0
 10
-24.564151
 20
111.737715
 30
0.0
 10
-24.692151
 20
111.892513
 30
0.0
 10
-24.799851
 20
112.062214
 30
0.0
 10
-24.885451
 20
112.244016
 30
0.0
 10
-24.947451
 20
112.435114
 30
0.0
 10
-24.985151
 20
112.632514
 30
0.0
 10
-24.997751
 20
112.833013
 30
0.0
 10
-24.985150
 20
113.034015
 30
0.0
 10
-24.947451
 20
113.231014
 30
0.0
 10
-24.885451
 20
113.422014
 30
0.0
 10
-24.799851
 20
113.604013
 30
0.0
 10
-24.692151
 20
113.773014
 30
0.0
 10
-24.564151
 20
113.928016
 30
0.0
 10
-24.417651
 20
114.066014
 30
0.0
 10
-24.255051
 20
114.184014
 30
0.0
 10
-24.079051
 20
114.281014
 30
0.0
 10
-23.892151
 20
114.355015
 30
0.0
 10
-23.697551
 20
114.405014
 30
0.0
 10
-23.498251
 20
114.430019
 30
0.0
 10
-23.297251
 20
114.430016
 30
0.0
 10
-23.097951
 20
114.405011
 30
0.0
 10
-22.903351
 20
114.355015
 30
0.0
 10
-22.716551
 20
114.281014
 30
0.0
 10
-22.540451
 20
114.184014
 30
0.0
 10
-22.377851
 20
114.066014
 30
0.0
 10
-22.231451
 20
113.928016
 30
0.0
 10
-22.103351
 20
113.773014
 30
0.0
 10
-21.995651
 20
113.604013
 30
0.0
 10
-21.910151
 20
113.422014
 30
0.0
 10
-21.848051
 20
113.231014
 30
0.0
 10
-21.810351
 20
113.034015
 30
0.0
 10
-21.797750
 20
112.833013
 30
0.0
 10
-21.810353
 20
112.632514
 30
0.0
 10
-21.848051
 20
112.435114
 30
0.0
 10
-21.910151
 20
112.244016
 30
0.0
 10
-21.995651
 20
112.062214
 30
0.0
 10
-22.103351
 20
111.892513
 30
0.0
 10
-22.231451
 20
111.737715
 30
0.0
 10
-22.377851
 20
111.600216
 30
0.0
 10
-22.540451
 20
111.482114
 30
0.0
 10
-22.716551
 20
111.385315
 30
0.0
 10
-22.903351
 20
111.311313
 30
0.0
 10
-23.097951
 20
111.261315
 30
0.0
 10
-23.297251
 20
111.236225
 30
0.0
 10
-23.498251
 20
111.236214
 30
0.0
  0
LWPOLYLINE
  5
12a
100
AcDbEntity
  8
Layer_1
 62
7
100
AcDbPolyline
 90
51
 70
0
 10
196.502249
 20
111.236214
 30
0.0
 10
196.302249
 20
111.261304
 30
0.0
 10
196.108249
 20
111.311313
 30
0.0
 10
195.921249
 20
111.385315
 30
0.0
 10
195.745250
 20
111.482114
 30
0.0
 10
195.582249
 20
111.600216
 30
0.0
 10
195.436247
 20
111.737715
 30
0.0
 10
195.308248
 20
111.892513
 30
0.0
 10
195.200247
 20
112.062214
 30
0.0
 10
195.114249
 20
112.244016
 30
0.0
 10
195.052247
 20
112.435114
 30
0.0
 10
195.015248
 20
112.632514
 30
0.0
 10
195.002237
 20
112.833013
 30
0.0
 10
195.015259
 20
113.034015
 30
0.0
 10
195.052247
 20
113.231014
 30
0.0
 10
195.114249
 20
113.422014
 30
0.0
 10
195.200247
 20
113.604013
 30
0.0
 10
195.308248
 20
113.773014
 30
0.0
 10
195.436247
 20
113.928016
 30
0.0
 10
195.582249
 20
114.066014
 30
0.0
 10
195.745250
 20
114.184014
 30
0.0
 10
195.921249
 20
114.281014
 30
0.0
 10
196.108249
 20
114.355015
 30
0.0
 10
196.302249
 20
114.405014
 30
0.0
 10
196.502249
 20
114.430019
 30
0.0
 10
196.702248
 20
114.430016
 30
0.0
 10
196.902248
 20
114.405011
 30
0.0
 10
197.096247
 20
114.355015
 30
0.0
 10
197.283248
 20
114.281014
 30
0.0
 10
197.459247
 20
114.184014
 30
0.0
 10
197.622247
 20
114.066014
 30
0.0
 10
197.768250
 20
113.928016
 30
0.0
 10
197.896249
 20
113.773014
 30
0.0
 10
198.004249
 20
113.604013
 30
0.0
 10
198.090248
 20
113.422014
 30
0.0
 10
198.152250
 20
113.231014
 30
0.0
 10
198.189249
 20
113.034015
 30
0.0
 10
198.202259
 20
112.833013
 30
0.0
 10
198.189238
 20
112.632514
 30
0.0
 10
198.152250
 20
112.435114
 30
0.0
 10
198.090248
 20
112.244016
 30
0.0
 10
198.004249
 20
112.062214
 30
0.0
 10
197.896249
 20
111.892513
 30
0.0
 10
197.768250
 20
111.737715
 30
0.0
 10
197.622247
 20
111.600216
 30
0.0
 10
197.459247
 20
111.482114
 30
0.0
 10
197.283248
 20
111.385315
 30
0.0
 10
197.096247
 20
111.311313
 30
0.0
 10
196.902248
 20
111.261315
 30
0.0
 10
196.702248
 20
111.236225
 30
0.0
 10
196.502249
 20
111.236214
 30
0.0
  0
LWPOLYLINE
  5
12b
100
AcDbEntity
  8
Layer_1
 62
7
100
AcDbPolyline
 90
5
 70
0
 10
151.872247
 20
107.833015
 30
0.0
 10
151.872247
 20
110.933014
 30
0.0
 10
162.272249
 20
110.933014
 30
0.0
 10
162.272249
 20
107.833015
 30
0.0
 10
151.872247
 20
107.833015
 30
0.0
  0
LWPOLYLINE
  5
12c
100
AcDbEntity
  8
Layer_1
 62
7
100
AcDbPolyline
 90
5
 70
0
 10
131.072249
 20
107.833015
 30
0.0
 10
131.072249
 20
110.933014
 30
0.0
 10
141.472248
 20
110.933014
 30
0.0
 10
141.472248
 20
107.833015
 30
0.0
 10
131.072249
 20
107.833015
 30
0.0
  0
LWPOLYLINE
  5
12d
100
AcDbEntity
  8
Layer_1
 62
7
100
AcDbPolyline
 90
5
 70
0
 10
110.272249
 20
107.833015
 30
0.0
 10
110.272249
 20
110.933014
 30
0.0
 10
120.672248
 20
110.933014
 30
0.0
 10
120.672248
 20
107.833015
 30
0.0
 10
110.272249
 20
107.833015
 30
0.0
  0
LWPOLYLINE
  5
12e
100
AcDbEntity
  8
Layer_1
 62
7
100
AcDbPolyline
 90
5
 70
0
 10
-34.947751
 20
92.118715
 30
0.0
 10
-34.947751
 20
104.975916
 30
0.0
 10
-31.847751
 20
104.975916
 30
0.0
 10
-31.847751
 20
92.118715
 30
0.0
 10
-34.947751
 20
92.118715
 30
0.0
  0
LWPOLYLINE
  5
12f
100
AcDbEntity
  8
Layer_1
 62
7
100
AcDbPolyline
 90
5
 70
0
 10
205.052250
 20
92.118715
 30
0.0
 10
205.052250
 20
104.975916
 30
0.0
 10
208.152249
 20
104.975916
 30
0.0
 10
208.152249
 20
92.118715
 30
0.0
 10
205.052250
 20
92.118715
 30
0.0
  0
LWPOLYLINE
  5
130
100
AcDbEntity
  8
Layer_1
 62
7
100
AcDbPolyline
 90
14
 70
0
 10
-16.067751
 20
25.933009
 30
0.0
 10
-16.067751
 20
36.933016
 30
0.0
 10
-11.987750
 20
36.933016
 30
0.0
 10
-13.527752
 20
38.473015
 30
0.0
 10
-16.067751
 20
38.473015
 30
0.0
 10
-16.067751
 20
104.513015
 30
0.0
 10
37.272248
 20
104.513015
 30
0.0
 10
37.272248
 20
39.743015
 30
0.0
 10
36.002248
 20
38.473015
 30
0.0
 10
24.572248
 20
38.473015
 30
0.0
 10
23.032249
 20
36.933016
 30
0.0
 10
32.272249
 20
36.933016
 30
0.0
 10
32.272249
 20
25.933009
 30
0.0
 10
-16.067751
 20
25.933009
 30
0.0
  0
LWPOLYLINE
  5
131
100
AcDbEntity
  8
Layer_1
 62
7
100
AcDbPolyline
 90
33
 70
0
 10
-13.215651
 20
88.973715
 30
0.0
 10
-12.915451
 20
89.064814
 30
0.0
 10
-12.638851
 20
89.212614
 30
0.0
 10
-12.396450
 20
89.411614
 30
0.0
 10
-12.197453
 20
89.654114
 30
0.0
 10
-12.049551
 20
89.930714
 30
0.0
 10
-11.958551
 20
90.230815
 30
0.0
 10
-11.927753
 20
90.543015
 30
0.0
 10
-11.958551
 20
90.855116
 30
0.0
 10
-12.049551
 20
91.155316
 30
0.0
 10
-12.197453
 20
91.431916
 30
0.0
 10
-12.396450
 20
91.674415
 30
0.0
 10
-12.638851
 20
91.873314
 30
0.0
 10
-12.915451
 20
92.021216
 30
0.0
 10
-13.215651
 20
92.112215
 30
0.0
 10
-13.527752
 20
92.143014
 30
0.0
 10
-13.839952
 20
92.112215
 30
0.0
 10
-14.140050
 20
92.021216
 30
0.0
 10
-14.416651
 20
91.873314
 30
0.0
 10
-14.659153
 20
91.674415
 30
0.0
 10
-14.858151
 20
91.431916
 30
0.0
 10
-15.005950
 20
91.155316
 30
0.0
 10
-15.097052
 20
90.855116
 30
0.0
 10
-15.127752
 20
90.543015
 30
0.0
 10
-15.097052
 20
90.230815
 30
0.0
 10
-15.005950
 20
89.930714
 30
0.0
 10
-14.858151
 20
89.654114
 30
0.0
 10
-14.659153
 20
89.411614
 30
0.0
 10
-14.416651
 20
89.212614
 30
0.0
 10
-14.140050
 20
89.064814
 30
0.0
 10
-13.839952
 20
88.973715
 30
0.0
 10
-13.527752
 20
88.943015
 30
0.0
 10
-13.215651
 20
88.973715
 30
0.0
  0
LWPOLYLINE
  5
132
100
AcDbEntity
  8
Layer_1
 62
7
100
AcDbPolyline
 90
33
 70
0
 10
35.044349
 20
87.703715
 30
0.0
 10
35.344549
 20
87.794814
 30
0.0
 10
35.621149
 20
87.942614
 30
0.0
 10
35.863649
 20
88.141614
 30
0.0
 10
36.062547
 20
88.384114
 30
0.0
 10
36.210449
 20
88.660714
 30
0.0
 10
36.301449
 20
88.960815
 30
0.0
 10
36.332247
 20
89.273015
 30
0.0
 10
36.301449
 20
89.585116
 30
0.0
 10
36.210449
 20
89.885316
 30
0.0
 10
36.062547
 20
90.161916
 30
0.0
 10
35.863649
 20
90.404415
 30
0.0
 10
35.621149
 20
90.603314
 30
0.0
 10
35.344549
 20
90.751216
 30
0.0
 10
35.044349
 20
90.842215
 30
0.0
 10
34.732248
 20
90.873014
 30
0.0
 10
34.420048
 20
90.842215
 30
0.0
 10
34.119950
 20
90.751216
 30
0.0
 10
33.843349
 20
90.603314
 30
0.0
 10
33.600847
 20
90.404415
 30
0.0
 10
33.401849
 20
90.161916
 30
0.0
 10
33.254050
 20
89.885316
 30
0.0
 10
33.162948
 20
89.585116
 30
0.0
 10
33.132248
 20
89.273015
 30
0.0
 10
33.162948
 20
88.960815
 30
0.0
 10
33.254050
 20
88.660714
 30
0.0
 10
33.401849
 20
88.384114
 30
0.0
 10
33.600847
 20
88.141614
 30
0.0
 10
33.843349
 20
87.942614
 30
0.0
 10
34.119950
 20
87.794814
 30
0.0
 10
34.420048
 20
87.703715
 30
0.0
 10
34.732248
 20
87.673015
 30
0.0
 10
35.044349
 20
87.703715
 30
0.0
  0
LWPOLYLINE
  5
133
100
AcDbEntity
  8
Layer_1
 62
7
100
AcDbPolyline
 90
32
 70
0
 10
-7.835451
 20
36.994814
 30
0.0
 10
-7.558851
 20
37.142614
 30
0.0
 10
-7.316450
 20
37.341614
 30
0.0
 10
-7.117453
 20
37.584114
 30
0.0
 10
-6.969551
 20
37.860714
 30
0.0
 10
-6.878551
 20
38.160815
 30
0.0
 10
-6.847753
 20
38.473015
 30
0.0
 10
-6.878551
 20
38.785116
 30
0.0
 10
-6.969551
 20
39.085316
 30
0.0
 10
-7.117453
 20
39.361916
 30
0.0
 10
-7.316450
 20
39.604415
 30
0.0
 10
-7.558851
 20
39.803314
 30
0.0
 10
-7.835451
 20
39.951216
 30
0.0
 10
-8.135651
 20
40.042215
 30
0.0
 10
-8.447752
 20
40.073014
 30
0.0
 10
-8.759952
 20
40.042215
 30
0.0
 10
-9.060050
 20
39.951216
 30
0.0
 10
-9.336651
 20
39.803314
 30
0.0
 10
-9.579153
 20
39.604415
 30
0.0
 10
-9.778151
 20
39.361916
 30
0.0
 10
-9.925950
 20
39.085316
 30
0.0
 10
-10.017052
 20
38.785116
 30
0.0
 10
-10.047752
 20
38.473015
 30
0.0
 10
-10.017052
 20
38.160815
 30
0.0
 10
-9.925950
 20
37.860714
 30
0.0
 10
-9.778151
 20
37.584114
 30
0.0
 10
-9.579153
 20
37.341614
 30
0.0
 10
-9.336651
 20
37.142614
 30
0.0
 10
-9.060050
 20
36.994814
 30
0.0
 10
-8.856351
 20
36.933016
 30
0.0
 10
-8.039151
 20
36.933016
 30
0.0
 10
-7.835451
 20
36.994814
 30
0.0
  0
LWPOLYLINE
  5
134
100
AcDbEntity
  8
Layer_1
 62
7
100
AcDbPolyline
 90
32
 70
0
 10
20.104549
 20
36.994814
 30
0.0
 10
20.381149
 20
37.142614
 30
0.0
 10
20.623550
 20
37.341614
 30
0.0
 10
20.822547
 20
37.584114
 30
0.0
 10
20.970449
 20
37.860714
 30
0.0
 10
21.061449
 20
38.160815
 30
0.0
 10
21.092247
 20
38.473015
 30
0.0
 10
21.061449
 20
38.785116
 30
0.0
 10
20.970449
 20
39.085316
 30
0.0
 10
20.822547
 20
39.361916
 30
0.0
 10
20.623550
 20
39.604415
 30
0.0
 10
20.381149
 20
39.803314
 30
0.0
 10
20.104549
 20
39.951216
 30
0.0
 10
19.804349
 20
40.042215
 30
0.0
 10
19.492248
 20
40.073014
 30
0.0
 10
19.180048
 20
40.042215
 30
0.0
 10
18.879950
 20
39.951216
 30
0.0
 10
18.603349
 20
39.803314
 30
0.0
 10
18.360847
 20
39.604415
 30
0.0
 10
18.161849
 20
39.361916
 30
0.0
 10
18.014050
 20
39.085316
 30
0.0
 10
17.922948
 20
38.785116
 30
0.0
 10
17.892248
 20
38.473015
 30
0.0
 10
17.922948
 20
38.160815
 30
0.0
 10
18.014050
 20
37.860714
 30
0.0
 10
18.161849
 20
37.584114
 30
0.0
 10
18.360847
 20
37.341614
 30
0.0
 10
18.603349
 20
37.142614
 30
0.0
 10
18.879950
 20
36.994814
 30
0.0
 10
19.083649
 20
36.933016
 30
0.0
 10
19.900849
 20
36.933016
 30
0.0
 10
20.104549
 20
36.994814
 30
0.0
  0
LWPOLYLINE
  5
135
100
AcDbEntity
  8
Layer_1
 62
7
100
AcDbPolyline
 90
5
 70
0
 10
47.272248
 20
25.933009
 30
0.0
 10
47.272248
 20
101.933015
 30
0.0
 10
98.272250
 20
101.933015
 30
0.0
 10
98.272250
 20
25.933009
 30
0.0
 10
47.272248
 20
25.933009
 30
0.0
  0
LWPOLYLINE
  5
136
100
AcDbEntity
  8
Layer_1
 62
7
100
AcDbPolyline
 90
51
 70
0
 10
96.473250
 20
54.345616
 30
0.0
 10
96.670249
 20
54.383213
 30
0.0
 10
96.861249
 20
54.445314
 30
0.0
 10
97.043248
 20
54.530914
 30
0.0
 10
97.212249
 20
54.638613
 30
0.0
 10
97.367248
 20
54.766615
 30
0.0
 10
97.505249
 20
54.913114
 30
0.0
 10
97.623249
 20
55.075713
 30
0.0
 10
97.720249
 20
55.251716
 30
0.0
 10
97.794247
 20
55.438615
 30
0.0
 10
97.844249
 20
55.633215
 30
0.0
 10
97.869254
 20
55.832515
 30
0.0
 10
97.869248
 20
56.033514
 30
0.0
 10
97.844243
 20
56.232813
 30
0.0
 10
97.794247
 20
56.427414
 30
0.0
 10
97.720249
 20
56.614214
 30
0.0
 10
97.623249
 20
56.790315
 30
0.0
 10
97.505249
 20
56.952915
 30
0.0
 10
97.367248
 20
57.099315
 30
0.0
 10
97.212249
 20
57.227415
 30
0.0
 10
97.043248
 20
57.335114
 30
0.0
 10
96.861249
 20
57.420613
 30
0.0
 10
96.670249
 20
57.482713
 30
0.0
 10
96.473250
 20
57.520415
 30
0.0
 10
96.272248
 20
57.533003
 30
0.0
 10
96.071250
 20
57.520427
 30
0.0
 10
95.874250
 20
57.482713
 30
0.0
 10
95.683248
 20
57.420613
 30
0.0
 10
95.501248
 20
57.335114
 30
0.0
 10
95.332248
 20
57.227415
 30
0.0
 10
95.177249
 20
57.099315
 30
0.0
 10
95.039248
 20
56.952915
 30
0.0
 10
94.921248
 20
56.790315
 30
0.0
 10
94.824248
 20
56.614214
 30
0.0
 10
94.750249
 20
56.427414
 30
0.0
 10
94.700248
 20
56.232813
 30
0.0
 10
94.675243
 20
56.033514
 30
0.0
 10
94.675249
 20
55.832515
 30
0.0
 10
94.700254
 20
55.633215
 30
0.0
 10
94.750249
 20
55.438615
 30
0.0
 10
94.824248
 20
55.251716
 30
0.0
 10
94.921248
 20
55.075713
 30
0.0
 10
95.039248
 20
54.913114
 30
0.0
 10
95.177249
 20
54.766615
 30
0.0
 10
95.332248
 20
54.638613
 30
0.0
 10
95.501248
 20
54.530914
 30
0.0
 10
95.683248
 20
54.445314
 30
0.0
 10
95.874250
 20
54.383213
 30
0.0
 10
96.071250
 20
54.345616
 30
0.0
 10
96.272248
 20
54.333001
 30
0.0
 10
96.473250
 20
54.345630
 30
0.0
  0
LWPOLYLINE
  5
137
100
AcDbEntity
  8
Layer_1
 62
7
100
AcDbPolyline
 90
51
 70
0
 10
51.772749
 20
53.845614
 30
0.0
 10
51.970150
 20
53.883214
 30
0.0
 10
52.161248
 20
53.945315
 30
0.0
 10
52.343047
 20
54.030915
 30
0.0
 10
52.512649
 20
54.138614
 30
0.0
 10
52.667549
 20
54.266613
 30
0.0
 10
52.805048
 20
54.413115
 30
0.0
 10
52.923149
 20
54.575714
 30
0.0
 10
53.019949
 20
54.751714
 30
0.0
 10
53.093947
 20
54.938616
 30
0.0
 10
53.143949
 20
55.133213
 30
0.0
 10
53.169038
 20
55.332516
 30
0.0
 10
53.169050
 20
55.533515
 30
0.0
 10
53.143960
 20
55.732814
 30
0.0
 10
53.093947
 20
55.927415
 30
0.0
 10
53.019949
 20
56.114215
 30
0.0
 10
52.923149
 20
56.290313
 30
0.0
 10
52.805048
 20
56.452916
 30
0.0
 10
52.667549
 20
56.599316
 30
0.0
 10
52.512649
 20
56.727413
 30
0.0
 10
52.343047
 20
56.835115
 30
0.0
 10
52.161248
 20
56.920614
 30
0.0
 10
51.970150
 20
56.982714
 30
0.0
 10
51.772749
 20
57.020414
 30
0.0
 10
51.572247
 20
57.033029
 30
0.0
 10
51.371748
 20
57.020400
 30
0.0
 10
51.174348
 20
56.982714
 30
0.0
 10
50.983250
 20
56.920614
 30
0.0
 10
50.801448
 20
56.835115
 30
0.0
 10
50.631748
 20
56.727413
 30
0.0
 10
50.476949
 20
56.599316
 30
0.0
 10
50.339447
 20
56.452916
 30
0.0
 10
50.221348
 20
56.290313
 30
0.0
 10
50.124549
 20
56.114215
 30
0.0
 10
50.050548
 20
55.927415
 30
0.0
 10
50.000549
 20
55.732814
 30
0.0
 10
49.975460
 20
55.533515
 30
0.0
 10
49.975448
 20
55.332516
 30
0.0
 10
50.000538
 20
55.133213
 30
0.0
 10
50.050548
 20
54.938616
 30
0.0
 10
50.124549
 20
54.751714
 30
0.0
 10
50.221348
 20
54.575714
 30
0.0
 10
50.339447
 20
54.413115
 30
0.0
 10
50.476949
 20
54.266613
 30
0.0
 10
50.631748
 20
54.138614
 30
0.0
 10
50.801448
 20
54.030915
 30
0.0
 10
50.983250
 20
53.945315
 30
0.0
 10
51.174348
 20
53.883214
 30
0.0
 10
51.371748
 20
53.845614
 30
0.0
 10
51.572247
 20
53.833027
 30
0.0
 10
51.772749
 20
53.845603
 30
0.0
  0
LWPOLYLINE
  5
138
100
AcDbEntity
  8
Layer_1
 62
7
100
AcDbPolyline
 90
51
 70
0
 10
94.973250
 20
28.345614
 30
0.0
 10
95.170250
 20
28.383215
 30
0.0
 10
95.361249
 20
28.445315
 30
0.0
 10
95.543249
 20
28.530916
 30
0.0
 10
95.712249
 20
28.638615
 30
0.0
 10
95.867248
 20
28.766614
 30
0.0
 10
96.005249
 20
28.913115
 30
0.0
 10
96.123249
 20
29.075715
 30
0.0
 10
96.220249
 20
29.251714
 30
0.0
 10
96.294248
 20
29.438616
 30
0.0
 10
96.344249
 20
29.633214
 30
0.0
 10
96.369254
 20
29.832513
 30
0.0
 10
96.369248
 20
30.033515
 30
0.0
 10
96.344243
 20
30.232814
 30
0.0
 10
96.294248
 20
30.427415
 30
0.0
 10
96.220249
 20
30.614215
 30
0.0
 10
96.123249
 20
30.790313
 30
0.0
 10
96.005249
 20
30.952916
 30
0.0
 10
95.867248
 20
31.099316
 30
0.0
 10
95.712249
 20
31.227414
 30
0.0
 10
95.543249
 20
31.335115
 30
0.0
 10
95.361249
 20
31.420614
 30
0.0
 10
95.170250
 20
31.482715
 30
0.0
 10
94.973250
 20
31.520414
 30
0.0
 10
94.772249
 20
31.533029
 30
0.0
 10
94.571247
 20
31.520400
 30
0.0
 10
94.374248
 20
31.482715
 30
0.0
 10
94.183248
 20
31.420614
 30
0.0
 10
94.001249
 20
31.335115
 30
0.0
 10
93.832248
 20
31.227414
 30
0.0
 10
93.677249
 20
31.099316
 30
0.0
 10
93.539248
 20
30.952916
 30
0.0
 10
93.421248
 20
30.790313
 30
0.0
 10
93.324248
 20
30.614215
 30
0.0
 10
93.250250
 20
30.427415
 30
0.0
 10
93.200248
 20
30.232814
 30
0.0
 10
93.175243
 20
30.033515
 30
0.0
 10
93.175249
 20
29.832513
 30
0.0
 10
93.200254
 20
29.633214
 30
0.0
 10
93.250250
 20
29.438616
 30
0.0
 10
93.324248
 20
29.251714
 30
0.0
 10
93.421248
 20
29.075715
 30
0.0
 10
93.539248
 20
28.913115
 30
0.0
 10
93.677249
 20
28.766614
 30
0.0
 10
93.832248
 20
28.638615
 30
0.0
 10
94.001249
 20
28.530916
 30
0.0
 10
94.183248
 20
28.445315
 30
0.0
 10
94.374248
 20
28.383215
 30
0.0
 10
94.571247
 20
28.345614
 30
0.0
 10
94.772249
 20
28.332999
 30
0.0
 10
94.973250
 20
28.345628
 30
0.0
  0
LWPOLYLINE
  5
139
100
AcDbEntity
  8
Layer_1
 62
7
100
AcDbPolyline
 90
51
 70
0
 10
51.972749
 20
28.345614
 30
0.0
 10
52.170149
 20
28.383215
 30
0.0
 10
52.361248
 20
28.445315
 30
0.0
 10
52.543050
 20
28.530916
 30
0.0
 10
52.712648
 20
28.638615
 30
0.0
 10
52.867549
 20
28.766614
 30
0.0
 10
53.005047
 20
28.913115
 30
0.0
 10
53.123149
 20
29.075715
 30
0.0
 10
53.219948
 20
29.251714
 30
0.0
 10
53.293950
 20
29.438616
 30
0.0
 10
53.343948
 20
29.633214
 30
0.0
 10
53.369038
 20
29.832513
 30
0.0
 10
53.369049
 20
30.033515
 30
0.0
 10
53.343960
 20
30.232814
 30
0.0
 10
53.293950
 20
30.427415
 30
0.0
 10
53.219948
 20
30.614215
 30
0.0
 10
53.123149
 20
30.790313
 30
0.0
 10
53.005047
 20
30.952916
 30
0.0
 10
52.867549
 20
31.099316
 30
0.0
 10
52.712648
 20
31.227414
 30
0.0
 10
52.543050
 20
31.335115
 30
0.0
 10
52.361248
 20
31.420614
 30
0.0
 10
52.170149
 20
31.482715
 30
0.0
 10
51.972749
 20
31.520414
 30
0.0
 10
51.772250
 20
31.533029
 30
0.0
 10
51.571748
 20
31.520400
 30
0.0
 10
51.374348
 20
31.482715
 30
0.0
 10
51.183249
 20
31.420614
 30
0.0
 10
51.001447
 20
31.335115
 30
0.0
 10
50.831747
 20
31.227414
 30
0.0
 10
50.676948
 20
31.099316
 30
0.0
 10
50.539450
 20
30.952916
 30
0.0
 10
50.421348
 20
30.790313
 30
0.0
 10
50.324549
 20
30.614215
 30
0.0
 10
50.250547
 20
30.427415
 30
0.0
 10
50.200549
 20
30.232814
 30
0.0
 10
50.175459
 20
30.033515
 30
0.0
 10
50.175448
 20
29.832513
 30
0.0
 10
50.200537
 20
29.633214
 30
0.0
 10
50.250547
 20
29.438616
 30
0.0
 10
50.324549
 20
29.251714
 30
0.0
 10
50.421348
 20
29.075715
 30
0.0
 10
50.539450
 20
28.913115
 30
0.0
 10
50.676948
 20
28.766614
 30
0.0
 10
50.831747
 20
28.638615
 30
0.0
 10
51.001447
 20
28.530916
 30
0.0
 10
51.183249
 20
28.445315
 30
0.0
 10
51.374348
 20
28.383215
 30
0.0
 10
51.571748
 20
28.345614
 30
0.0
 10
51.772250
 20
28.332999
 30
0.0
 10
51.972749
 20
28.345628
 30
0.0
  0
LWPOLYLINE
  5
13a
100
AcDbEntity
  8
Layer_1
 62
7
100
AcDbPolyline
 90
51
 70
0
 10
111.600248
 20
86.068813
 30
0.0
 10
111.430249
 20
86.101215
 30
0.0
 10
111.266249
 20
86.154516
 30
0.0
 10
111.110248
 20
86.228114
 30
0.0
 10
110.964249
 20
86.320615
 30
0.0
 10
110.831249
 20
86.430715
 30
0.0
 10
110.713249
 20
86.556516
 30
0.0
 10
110.611248
 20
86.696216
 30
0.0
 10
110.528250
 20
86.847515
 30
0.0
 10
110.464247
 20
87.008114
 30
0.0
 10
110.421248
 20
87.175313
 30
0.0
 10
110.400251
 20
87.346614
 30
0.0
 10
110.400248
 20
87.519314
 30
0.0
 10
110.421245
 20
87.690614
 30
0.0
 10
110.464247
 20
87.857916
 30
0.0
 10
110.528250
 20
88.018416
 30
0.0
 10
110.611248
 20
88.169715
 30
0.0
 10
110.713249
 20
88.309415
 30
0.0
 10
110.831249
 20
88.435314
 30
0.0
 10
110.964249
 20
88.545415
 30
0.0
 10
111.110248
 20
88.637916
 30
0.0
 10
111.266249
 20
88.711415
 30
0.0
 10
111.430249
 20
88.764814
 30
0.0
 10
111.600248
 20
88.797115
 30
0.0
 10
111.772248
 20
88.808008
 30
0.0
 10
111.944249
 20
88.797120
 30
0.0
 10
112.114248
 20
88.764814
 30
0.0
 10
112.278247
 20
88.711415
 30
0.0
 10
112.434249
 20
88.637916
 30
0.0
 10
112.580248
 20
88.545415
 30
0.0
 10
112.713248
 20
88.435314
 30
0.0
 10
112.831248
 20
88.309415
 30
0.0
 10
112.933249
 20
88.169715
 30
0.0
 10
113.016250
 20
88.018416
 30
0.0
 10
113.080250
 20
87.857916
 30
0.0
 10
113.123249
 20
87.690614
 30
0.0
 10
113.144246
 20
87.519314
 30
0.0
 10
113.144249
 20
87.346614
 30
0.0
 10
113.123252
 20
87.175313
 30
0.0
 10
113.080250
 20
87.008114
 30
0.0
 10
113.016250
 20
86.847515
 30
0.0
 10
112.933249
 20
86.696216
 30
0.0
 10
112.831248
 20
86.556516
 30
0.0
 10
112.713248
 20
86.430715
 30
0.0
 10
112.580248
 20
86.320615
 30
0.0
 10
112.434249
 20
86.228114
 30
0.0
 10
112.278247
 20
86.154516
 30
0.0
 10
112.114248
 20
86.101215
 30
0.0
 10
111.944249
 20
86.068813
 30
0.0
 10
111.772248
 20
86.058004
 30
0.0
 10
111.600248
 20
86.068824
 30
0.0
  0
LWPOLYLINE
  5
13b
100
AcDbEntity
  8
Layer_1
 62
7
100
AcDbPolyline
 90
51
 70
0
 10
160.600249
 20
86.068813
 30
0.0
 10
160.430250
 20
86.101215
 30
0.0
 10
160.266247
 20
86.154516
 30
0.0
 10
160.110249
 20
86.228114
 30
0.0
 10
159.964250
 20
86.320615
 30
0.0
 10
159.831250
 20
86.430715
 30
0.0
 10
159.713250
 20
86.556516
 30
0.0
 10
159.611249
 20
86.696216
 30
0.0
 10
159.528248
 20
86.847515
 30
0.0
 10
159.464248
 20
87.008114
 30
0.0
 10
159.421249
 20
87.175313
 30
0.0
 10
159.400251
 20
87.346614
 30
0.0
 10
159.400248
 20
87.519314
 30
0.0
 10
159.421246
 20
87.690614
 30
0.0
 10
159.464248
 20
87.857916
 30
0.0
 10
159.528248
 20
88.018416
 30
0.0
 10
159.611249
 20
88.169715
 30
0.0
 10
159.713250
 20
88.309415
 30
0.0
 10
159.831250
 20
88.435314
 30
0.0
 10
159.964250
 20
88.545415
 30
0.0
 10
160.110249
 20
88.637916
 30
0.0
 10
160.266247
 20
88.711415
 30
0.0
 10
160.430250
 20
88.764814
 30
0.0
 10
160.600249
 20
88.797115
 30
0.0
 10
160.772249
 20
88.808008
 30
0.0
 10
160.944250
 20
88.797120
 30
0.0
 10
161.114249
 20
88.764814
 30
0.0
 10
161.278248
 20
88.711415
 30
0.0
 10
161.434249
 20
88.637916
 30
0.0
 10
161.580249
 20
88.545415
 30
0.0
 10
161.713249
 20
88.435314
 30
0.0
 10
161.831249
 20
88.309415
 30
0.0
 10
161.933249
 20
88.169715
 30
0.0
 10
162.016248
 20
88.018416
 30
0.0
 10
162.080248
 20
87.857916
 30
0.0
 10
162.123250
 20
87.690614
 30
0.0
 10
162.144247
 20
87.519314
 30
0.0
 10
162.144247
 20
87.346614
 30
0.0
 10
162.123250
 20
87.175313
 30
0.0
 10
162.080248
 20
87.008114
 30
0.0
 10
162.016248
 20
86.847515
 30
0.0
 10
161.933249
 20
86.696216
 30
0.0
 10
161.831249
 20
86.556516
 30
0.0
 10
161.713249
 20
86.430715
 30
0.0
 10
161.580249
 20
86.320615
 30
0.0
 10
161.434249
 20
86.228114
 30
0.0
 10
161.278248
 20
86.154516
 30
0.0
 10
161.114249
 20
86.101215
 30
0.0
 10
160.944250
 20
86.068813
 30
0.0
 10
160.772249
 20
86.058004
 30
0.0
 10
160.600249
 20
86.068824
 30
0.0
  0
LWPOLYLINE
  5
13c
100
AcDbEntity
  8
Layer_1
 62
7
100
AcDbPolyline
 90
5
 70
0
 10
-34.947751
 20
66.404415
 30
0.0
 10
-34.947751
 20
79.261613
 30
0.0
 10
-31.847751
 20
79.261613
 30
0.0
 10
-31.847751
 20
66.404415
 30
0.0
 10
-34.947751
 20
66.404415
 30
0.0
  0
LWPOLYLINE
  5
13d
100
AcDbEntity
  8
Layer_1
 62
7
100
AcDbPolyline
 90
5
 70
0
 10
205.052250
 20
66.404415
 30
0.0
 10
205.052250
 20
79.261613
 30
0.0
 10
208.152249
 20
79.261613
 30
0.0
 10
208.152249
 20
66.404415
 30
0.0
 10
205.052250
 20
66.404415
 30
0.0
  0
LWPOLYLINE
  5
13e
100
AcDbEntity
  8
Layer_1
 62
7
100
AcDbPolyline
 90
5
 70
0
 10
174.272248
 20
42.599614
 30
0.0
 10
174.272248
 20
77.599615
 30
0.0
 10
192.272248
 20
77.599615
 30
0.0
 10
192.272248
 20
42.599614
 30
0.0
 10
174.272248
 20
42.599614
 30
0.0
  0
LWPOLYLINE
  5
13f
100
AcDbEntity
  8
Layer_1
 62
7
100
AcDbPolyline
 90
5
 70
0
 10
193.822249
 20
64.383016
 30
0.0
 10
193.822249
 20
67.483015
 30
0.0
 10
196.922249
 20
67.483015
 30
0.0
 10
196.922249
 20
64.383016
 30
0.0
 10
193.822249
 20
64.383016
 30
0.0
  0
LWPOLYLINE
  5
140
100
AcDbEntity
  8
Layer_1
 62
7
100
AcDbPolyline
 90
5
 70
0
 10
169.622250
 20
64.383016
 30
0.0
 10
169.622250
 20
67.483015
 30
0.0
 10
172.722249
 20
67.483015
 30
0.0
 10
172.722249
 20
64.383016
 30
0.0
 10
169.622250
 20
64.383016
 30
0.0
  0
LWPOLYLINE
  5
141
100
AcDbEntity
  8
Layer_1
 62
7
100
AcDbPolyline
 90
5
 70
0
 10
193.822249
 20
52.716316
 30
0.0
 10
193.822249
 20
55.816315
 30
0.0
 10
196.922249
 20
55.816315
 30
0.0
 10
196.922249
 20
52.716316
 30
0.0
 10
193.822249
 20
52.716316
 30
0.0
  0
LWPOLYLINE
  5
142
100
AcDbEntity
  8
Layer_1
 62
7
100
AcDbPolyline
 90
5
 70
0
 10
169.622250
 20
52.716316
 30
0.0
 10
169.622250
 20
55.816315
 30
0.0
 10
172.722249
 20
55.816315
 30
0.0
 10
172.722249
 20
52.716316
 30
0.0
 10
169.622250
 20
52.716316
 30
0.0
  0
LWPOLYLINE
  5
143
100
AcDbEntity
  8
Layer_1
 62
7
100
AcDbPolyline
 90
5
 70
0
 10
205.052250
 20
40.690116
 30
0.0
 10
205.052250
 20
53.547314
 30
0.0
 10
208.152249
 20
53.547314
 30
0.0
 10
208.152249
 20
40.690116
 30
0.0
 10
205.052250
 20
40.690116
 30
0.0
  0
LWPOLYLINE
  5
144
100
AcDbEntity
  8
Layer_1
 62
7
100
AcDbPolyline
 90
5
 70
0
 10
-34.947751
 20
40.690116
 30
0.0
 10
-34.947751
 20
53.547314
 30
0.0
 10
-31.847751
 20
53.547314
 30
0.0
 10
-31.847751
 20
40.690116
 30
0.0
 10
-34.947751
 20
40.690116
 30
0.0
  0
LWPOLYLINE
  5
145
100
AcDbEntity
  8
Layer_1
 62
7
100
AcDbPolyline
 90
51
 70
0
 10
-23.498251
 20
31.236213
 30
0.0
 10
-23.697551
 20
31.261303
 30
0.0
 10
-23.892151
 20
31.311315
 30
0.0
 10
-24.079051
 20
31.385314
 30
0.0
 10
-24.255051
 20
31.482113
 30
0.0
 10
-24.417651
 20
31.600215
 30
0.0
 10
-24.564151
 20
31.737714
 30
0.0
 10
-24.692151
 20
31.892515
 30
0.0
 10
-24.799851
 20
32.062216
 30
0.0
 10
-24.885451
 20
32.244015
 30
0.0
 10
-24.947451
 20
32.435116
 30
0.0
 10
-24.985151
 20
32.632513
 30
0.0
 10
-24.997753
 20
32.833015
 30
0.0
 10
-24.985150
 20
33.033514
 30
0.0
 10
-24.947451
 20
33.230915
 30
0.0
 10
-24.885451
 20
33.422016
 30
0.0
 10
-24.799851
 20
33.603815
 30
0.0
 10
-24.692151
 20
33.773414
 30
0.0
 10
-24.564151
 20
33.928314
 30
0.0
 10
-24.417651
 20
34.065816
 30
0.0
 10
-24.255051
 20
34.183914
 30
0.0
 10
-24.079051
 20
34.280714
 30
0.0
 10
-23.892151
 20
34.354715
 30
0.0
 10
-23.697551
 20
34.404714
 30
0.0
 10
-23.498251
 20
34.429803
 30
0.0
 10
-23.297251
 20
34.429815
 30
0.0
 10
-23.097951
 20
34.404725
 30
0.0
 10
-22.903351
 20
34.354715
 30
0.0
 10
-22.716551
 20
34.280714
 30
0.0
 10
-22.540451
 20
34.183914
 30
0.0
 10
-22.377851
 20
34.065816
 30
0.0
 10
-22.231451
 20
33.928314
 30
0.0
 10
-22.103351
 20
33.773414
 30
0.0
 10
-21.995651
 20
33.603815
 30
0.0
 10
-21.910151
 20
33.422016
 30
0.0
 10
-21.848051
 20
33.230915
 30
0.0
 10
-21.810351
 20
33.033514
 30
0.0
 10
-21.797750
 20
32.833015
 30
0.0
 10
-21.810353
 20
32.632513
 30
0.0
 10
-21.848051
 20
32.435116
 30
0.0
 10
-21.910151
 20
32.244015
 30
0.0
 10
-21.995651
 20
32.062216
 30
0.0
 10
-22.103351
 20
31.892515
 30
0.0
 10
-22.231451
 20
31.737714
 30
0.0
 10
-22.377851
 20
31.600215
 30
0.0
 10
-22.540451
 20
31.482113
 30
0.0
 10
-22.716551
 20
31.385314
 30
0.0
 10
-22.903351
 20
31.311315
 30
0.0
 10
-23.097951
 20
31.261314
 30
0.0
 10
-23.297251
 20
31.236225
 30
0.0
 10
-23.498251
 20
31.236213
 30
0.0
  0
LWPOLYLINE
  5
146
100
AcDbEntity
  8
Layer_1
 62
7
100
AcDbPolyline
 90
51
 70
0
 10
196.502249
 20
31.236213
 30
0.0
 10
196.302249
 20
31.261303
 30
0.0
 10
196.108249
 20
31.311315
 30
0.0
 10
195.921249
 20
31.385314
 30
0.0
 10
195.745250
 20
31.482113
 30
0.0
 10
195.582249
 20
31.600215
 30
0.0
 10
195.436247
 20
31.737714
 30
0.0
 10
195.308248
 20
31.892515
 30
0.0
 10
195.200247
 20
32.062216
 30
0.0
 10
195.114249
 20
32.244015
 30
0.0
 10
195.052247
 20
32.435116
 30
0.0
 10
195.015248
 20
32.632513
 30
0.0
 10
195.002237
 20
32.833015
 30
0.0
 10
195.015259
 20
33.033514
 30
0.0
 10
195.052247
 20
33.230915
 30
0.0
 10
195.114249
 20
33.422016
 30
0.0
 10
195.200247
 20
33.603815
 30
0.0
 10
195.308248
 20
33.773414
 30
0.0
 10
195.436247
 20
33.928314
 30
0.0
 10
195.582249
 20
34.065816
 30
0.0
 10
195.745250
 20
34.183914
 30
0.0
 10
195.921249
 20
34.280714
 30
0.0
 10
196.108249
 20
34.354715
 30
0.0
 10
196.302249
 20
34.404714
 30
0.0
 10
196.502249
 20
34.429803
 30
0.0
 10
196.702248
 20
34.429815
 30
0.0
 10
196.902248
 20
34.404725
 30
0.0
 10
197.096247
 20
34.354715
 30
0.0
 10
197.283248
 20
34.280714
 30
0.0
 10
197.459247
 20
34.183914
 30
0.0
 10
197.622247
 20
34.065816
 30
0.0
 10
197.768250
 20
33.928314
 30
0.0
 10
197.896249
 20
33.773414
 30
0.0
 10
198.004249
 20
33.603815
 30
0.0
 10
198.090248
 20
33.422016
 30
0.0
 10
198.152250
 20
33.230915
 30
0.0
 10
198.189249
 20
33.033514
 30
0.0
 10
198.202259
 20
32.833015
 30
0.0
 10
198.189238
 20
32.632513
 30
0.0
 10
198.152250
 20
32.435116
 30
0.0
 10
198.090248
 20
32.244015
 30
0.0
 10
198.004249
 20
32.062216
 30
0.0
 10
197.896249
 20
31.892515
 30
0.0
 10
197.768250
 20
31.737714
 30
0.0
 10
197.622247
 20
31.600215
 30
0.0
 10
197.459247
 20
31.482113
 30
0.0
 10
197.283248
 20
31.385314
 30
0.0
 10
197.096247
 20
31.311315
 30
0.0
 10
196.902248
 20
31.261314
 30
0.0
 10
196.702248
 20
31.236225
 30
0.0
 10
196.502249
 20
31.236213
 30
0.0
  0
LWPOLYLINE
  5
147
100
AcDbEntity
  8
Layer_1
 62
7
100
AcDbPolyline
 90
51
 70
0
 10
111.600248
 20
28.068813
 30
0.0
 10
111.430249
 20
28.101215
 30
0.0
 10
111.266249
 20
28.154513
 30
0.0
 10
111.110248
 20
28.228114
 30
0.0
 10
110.964249
 20
28.320615
 30
0.0
 10
110.831249
 20
28.430716
 30
0.0
 10
110.713249
 20
28.556513
 30
0.0
 10
110.611248
 20
28.696213
 30
0.0
 10
110.528250
 20
28.847515
 30
0.0
 10
110.464247
 20
29.008114
 30
0.0
 10
110.421248
 20
29.175314
 30
0.0
 10
110.400251
 20
29.346614
 30
0.0
 10
110.400248
 20
29.519314
 30
0.0
 10
110.421245
 20
29.690615
 30
0.0
 10
110.464247
 20
29.857913
 30
0.0
 10
110.528250
 20
30.018413
 30
0.0
 10
110.611248
 20
30.169715
 30
0.0
 10
110.713249
 20
30.309415
 30
0.0
 10
110.831249
 20
30.435315
 30
0.0
 10
110.964249
 20
30.545415
 30
0.0
 10
111.110248
 20
30.637913
 30
0.0
 10
111.266249
 20
30.711415
 30
0.0
 10
111.430249
 20
30.764815
 30
0.0
 10
111.600248
 20
30.797115
 30
0.0
 10
111.772248
 20
30.808009
 30
0.0
 10
111.944249
 20
30.797121
 30
0.0
 10
112.114248
 20
30.764815
 30
0.0
 10
112.278247
 20
30.711415
 30
0.0
 10
112.434249
 20
30.637913
 30
0.0
 10
112.580248
 20
30.545415
 30
0.0
 10
112.713248
 20
30.435315
 30
0.0
 10
112.831248
 20
30.309415
 30
0.0
 10
112.933249
 20
30.169715
 30
0.0
 10
113.016250
 20
30.018413
 30
0.0
 10
113.080250
 20
29.857913
 30
0.0
 10
113.123249
 20
29.690615
 30
0.0
 10
113.144246
 20
29.519314
 30
0.0
 10
113.144249
 20
29.346614
 30
0.0
 10
113.123252
 20
29.175314
 30
0.0
 10
113.080250
 20
29.008114
 30
0.0
 10
113.016250
 20
28.847515
 30
0.0
 10
112.933249
 20
28.696213
 30
0.0
 10
112.831248
 20
28.556513
 30
0.0
 10
112.713248
 20
28.430716
 30
0.0
 10
112.580248
 20
28.320615
 30
0.0
 10
112.434249
 20
28.228114
 30
0.0
 10
112.278247
 20
28.154513
 30
0.0
 10
112.114248
 20
28.101215
 30
0.0
 10
111.944249
 20
28.068813
 30
0.0
 10
111.772248
 20
28.058004
 30
0.0
 10
111.600248
 20
28.068825
 30
0.0
  0
LWPOLYLINE
  5
148
100
AcDbEntity
  8
Layer_1
 62
7
100
AcDbPolyline
 90
51
 70
0
 10
160.600249
 20
28.068813
 30
0.0
 10
160.430250
 20
28.101215
 30
0.0
 10
160.266247
 20
28.154513
 30
0.0
 10
160.110249
 20
28.228114
 30
0.0
 10
159.964250
 20
28.320615
 30
0.0
 10
159.831250
 20
28.430716
 30
0.0
 10
159.713250
 20
28.556513
 30
0.0
 10
159.611249
 20
28.696213
 30
0.0
 10
159.528248
 20
28.847515
 30
0.0
 10
159.464248
 20
29.008114
 30
0.0
 10
159.421249
 20
29.175314
 30
0.0
 10
159.400251
 20
29.346614
 30
0.0
 10
159.400248
 20
29.519314
 30
0.0
 10
159.421246
 20
29.690615
 30
0.0
 10
159.464248
 20
29.857913
 30
0.0
 10
159.528248
 20
30.018413
 30
0.0
 10
159.611249
 20
30.169715
 30
0.0
 10
159.713250
 20
30.309415
 30
0.0
 10
159.831250
 20
30.435315
 30
0.0
 10
159.964250
 20
30.545415
 30
0.0
 10
160.110249
 20
30.637913
 30
0.0
 10
160.266247
 20
30.711415
 30
0.0
 10
160.430250
 20
30.764815
 30
0.0
 10
160.600249
 20
30.797115
 30
0.0
 10
160.772249
 20
30.808009
 30
0.0
 10
160.944250
 20
30.797121
 30
0.0
 10
161.114249
 20
30.764815
 30
0.0
 10
161.278248
 20
30.711415
 30
0.0
 10
161.434249
 20
30.637913
 30
0.0
 10
161.580249
 20
30.545415
 30
0.0
 10
161.713249
 20
30.435315
 30
0.0
 10
161.831249
 20
30.309415
 30
0.0
 10
161.933249
 20
30.169715
 30
0.0
 10
162.016248
 20
30.018413
 30
0.0
 10
162.080248
 20
29.857913
 30
0.0
 10
162.123250
 20
29.690615
 30
0.0
 10
162.144247
 20
29.519314
 30
0.0
 10
162.144247
 20
29.346614
 30
0.0
 10
162.123250
 20
29.175314
 30
0.0
 10
162.080248
 20
29.008114
 30
0.0
 10
162.016248
 20
28.847515
 30
0.0
 10
161.933249
 20
28.696213
 30
0.0
 10
161.831249
 20
28.556513
 30
0.0
 10
161.713249
 20
28.430716
 30
0.0
 10
161.580249
 20
28.320615
 30
0.0
 10
161.434249
 20
28.228114
 30
0.0
 10
161.278248
 20
28.154513
 30
0.0
 10
161.114249
 20
28.101215
 30
0.0
 10
160.944250
 20
28.068813
 30
0.0
 10
160.772249
 20
28.058004
 30
0.0
 10
160.600249
 20
28.068825
 30
0.0
  0
LWPOLYLINE
  5
149
100
AcDbEntity
  8
Layer_1
 62
7
100
AcDbPolyline
 90
51
 70
0
 10
206.502248
 20
21.236154
 30
0.0
 10
206.302249
 20
21.261272
 30
0.0
 10
206.108249
 20
21.311310
 30
0.0
 10
205.921249
 20
21.385309
 30
0.0
 10
205.745249
 20
21.482083
 30
0.0
 10
205.582249
 20
21.600193
 30
0.0
 10
205.436250
 20
21.737748
 30
0.0
 10
205.308248
 20
21.892547
 30
0.0
 10
205.200247
 20
22.062219
 30
0.0
 10
205.114248
 20
22.244026
 30
0.0
 10
205.052250
 20
22.435091
 30
0.0
 10
205.015248
 20
22.632477
 30
0.0
 10
205.002237
 20
22.833024
 30
0.0
 10
205.015259
 20
23.033515
 30
0.0
 10
205.052250
 20
23.230901
 30
0.0
 10
205.114248
 20
23.422022
 30
0.0
 10
205.200247
 20
23.603801
 30
0.0
 10
205.308248
 20
23.773417
 30
0.0
 10
205.436250
 20
23.928328
 30
0.0
 10
205.582249
 20
24.065827
 30
0.0
 10
205.745249
 20
24.183909
 30
0.0
 10
205.921249
 20
24.280711
 30
0.0
 10
206.108249
 20
24.354710
 30
0.0
 10
206.302249
 20
24.404720
 30
0.0
 10
206.502248
 20
24.429837
 30
0.0
 10
206.702248
 20
24.429809
 30
0.0
 10
206.902248
 20
24.404691
 30
0.0
 10
207.096250
 20
24.354710
 30
0.0
 10
207.283248
 20
24.280711
 30
0.0
 10
207.459250
 20
24.183909
 30
0.0
 10
207.622250
 20
24.065827
 30
0.0
 10
207.768249
 20
23.928328
 30
0.0
 10
207.896248
 20
23.773417
 30
0.0
 10
208.004249
 20
23.603801
 30
0.0
 10
208.090248
 20
23.422022
 30
0.0
 10
208.152249
 20
23.230901
 30
0.0
 10
208.189249
 20
23.033515
 30
0.0
 10
208.202259
 20
22.833024
 30
0.0
 10
208.189237
 20
22.632477
 30
0.0
 10
208.152249
 20
22.435091
 30
0.0
 10
208.090248
 20
22.244026
 30
0.0
 10
208.004249
 20
22.062219
 30
0.0
 10
207.896248
 20
21.892547
 30
0.0
 10
207.768249
 20
21.737748
 30
0.0
 10
207.622250
 20
21.600193
 30
0.0
 10
207.459250
 20
21.482083
 30
0.0
 10
207.283248
 20
21.385309
 30
0.0
 10
207.096250
 20
21.311310
 30
0.0
 10
206.902248
 20
21.261357
 30
0.0
 10
206.702248
 20
21.236239
 30
0.0
 10
206.502248
 20
21.236154
 30
0.0
  0
LWPOLYLINE
  5
14a
100
AcDbEntity
  8
Layer_1
 62
7
100
AcDbPolyline
 90
51
 70
0
 10
-33.498231
 20
21.236154
 30
0.0
 10
-33.697571
 20
21.261272
 30
0.0
 10
-33.892181
 20
21.311310
 30
0.0
 10
-34.079012
 20
21.385309
 30
0.0
 10
-34.255081
 20
21.482083
 30
0.0
 10
-34.417631
 20
21.600193
 30
0.0
 10
-34.564101
 20
21.737748
 30
0.0
 10
-34.692181
 20
21.892547
 30
0.0
 10
-34.799851
 20
22.062219
 30
0.0
 10
-34.885411
 20
22.244026
 30
0.0
 10
-34.947491
 20
22.435091
 30
0.0
 10
-34.985141
 20
22.632477
 30
0.0
 10
-34.997762
 20
22.833024
 30
0.0
 10
-34.985140
 20
23.033515
 30
0.0
 10
-34.947491
 20
23.230901
 30
0.0
 10
-34.885411
 20
23.422022
 30
0.0
 10
-34.799851
 20
23.603801
 30
0.0
 10
-34.692181
 20
23.773417
 30
0.0
 10
-34.564101
 20
23.928328
 30
0.0
 10
-34.417631
 20
24.065827
 30
0.0
 10
-34.255081
 20
24.183909
 30
0.0
 10
-34.079012
 20
24.280711
 30
0.0
 10
-33.892181
 20
24.354710
 30
0.0
 10
-33.697571
 20
24.404720
 30
0.0
 10
-33.498231
 20
24.429837
 30
0.0
 10
-33.297251
 20
24.429809
 30
0.0
 10
-33.097951
 20
24.404691
 30
0.0
 10
-32.903351
 20
24.354710
 30
0.0
 10
-32.716551
 20
24.280711
 30
0.0
 10
-32.540451
 20
24.183909
 30
0.0
 10
-32.377851
 20
24.065827
 30
0.0
 10
-32.231451
 20
23.928328
 30
0.0
 10
-32.103351
 20
23.773417
 30
0.0
 10
-31.995651
 20
23.603801
 30
0.0
 10
-31.910152
 20
23.422022
 30
0.0
 10
-31.848051
 20
23.230901
 30
0.0
 10
-31.810351
 20
23.033515
 30
0.0
 10
-31.797750
 20
22.833024
 30
0.0
 10
-31.810353
 20
22.632477
 30
0.0
 10
-31.848051
 20
22.435091
 30
0.0
 10
-31.910152
 20
22.244026
 30
0.0
 10
-31.995651
 20
22.062219
 30
0.0
 10
-32.103351
 20
21.892547
 30
0.0
 10
-32.231451
 20
21.737748
 30
0.0
 10
-32.377851
 20
21.600193
 30
0.0
 10
-32.540451
 20
21.482083
 30
0.0
 10
-32.716551
 20
21.385309
 30
0.0
 10
-32.903351
 20
21.311310
 30
0.0
 10
-33.097951
 20
21.261357
 30
0.0
 10
-33.297251
 20
21.236239
 30
0.0
 10
-33.498231
 20
21.236154
 30
0.0
  0
LWPOLYLINE
  5
14b
100
AcDbEntity
  8
Layer_1
 62
7
100
AcDbPolyline
 90
5
 70
0
 10
-7.488651
 20
21.283003
 30
0.0
 10
-7.488651
 20
24.383017
 30
0.0
 10
13.420448
 20
24.383017
 30
0.0
 10
13.420448
 20
21.283003
 30
0.0
 10
-7.488651
 20
21.283003
 30
0.0
  0
LWPOLYLINE
  5
14c
100
AcDbEntity
  8
Layer_1
 62
7
100
AcDbPolyline
 90
5
 70
0
 10
34.329548
 20
21.283003
 30
0.0
 10
34.329548
 20
24.383017
 30
0.0
 10
55.238647
 20
24.383017
 30
0.0
 10
55.238647
 20
21.283003
 30
0.0
 10
34.329548
 20
21.283003
 30
0.0
  0
LWPOLYLINE
  5
14d
100
AcDbEntity
  8
Layer_1
 62
7
100
AcDbPolyline
 90
5
 70
0
 10
76.147250
 20
21.283003
 30
0.0
 10
76.147250
 20
24.383017
 30
0.0
 10
97.057250
 20
24.383017
 30
0.0
 10
97.057250
 20
21.283003
 30
0.0
 10
76.147250
 20
21.283003
 30
0.0
  0
LWPOLYLINE
  5
14e
100
AcDbEntity
  8
Layer_1
 62
7
100
AcDbPolyline
 90
5
 70
0
 10
117.966247
 20
21.283003
 30
0.0
 10
117.966247
 20
24.383017
 30
0.0
 10
138.875248
 20
24.383017
 30
0.0
 10
138.875248
 20
21.283003
 30
0.0
 10
117.966247
 20
21.283003
 30
0.0
  0
LWPOLYLINE
  5
14f
100
AcDbEntity
  8
Layer_1
 62
7
100
AcDbPolyline
 90
5
 70
0
 10
159.784248
 20
21.283003
 30
0.0
 10
159.784248
 20
24.383017
 30
0.0
 10
180.693249
 20
24.383017
 30
0.0
 10
180.693249
 20
21.283003
 30
0.0
 10
159.784248
 20
21.283003
 30
0.0
  0
LWPOLYLINE
  5
150
100
AcDbEntity
  8
Layer_1
 62
7
100
AcDbPolyline
 90
29
 70
0
 10
-53.397751
 20
40.690116
 30
0.0
 10
-50.297761
 20
40.690116
 30
0.0
 10
-50.297761
 20
53.547314
 30
0.0
 10
-53.397751
 20
53.547314
 30
0.0
 10
-53.397751
 20
66.404415
 30
0.0
 10
-50.297761
 20
66.404415
 30
0.0
 10
-50.297761
 20
79.261613
 30
0.0
 10
-53.397751
 20
79.261613
 30
0.0
 10
-53.397751
 20
92.118715
 30
0.0
 10
-50.297761
 20
92.118715
 30
0.0
 10
-50.297761
 20
104.975916
 30
0.0
 10
-53.397751
 20
104.975916
 30
0.0
 10
-53.397751
 20
117.833015
 30
0.0
 10
-107.397750
 20
117.833015
 30
0.0
 10
-107.397750
 20
104.975916
 30
0.0
 10
-110.497753
 20
104.975916
 30
0.0
 10
-110.497753
 20
92.118715
 30
0.0
 10
-107.397750
 20
92.118715
 30
0.0
 10
-107.397750
 20
79.261613
 30
0.0
 10
-110.497753
 20
79.261613
 30
0.0
 10
-110.497753
 20
66.404415
 30
0.0
 10
-107.397750
 20
66.404415
 30
0.0
 10
-107.397750
 20
53.547314
 30
0.0
 10
-110.497753
 20
53.547314
 30
0.0
 10
-110.497753
 20
40.690116
 30
0.0
 10
-107.397750
 20
40.690116
 30
0.0
 10
-107.397750
 20
27.833014
 30
0.0
 10
-53.397751
 20
27.833014
 30
0.0
 10
-53.397751
 20
40.690116
 30
0.0
  0
LWPOLYLINE
  5
151
100
AcDbEntity
  8
Layer_1
 62
7
100
AcDbPolyline
 90
41
 70
0
 10
-89.900052
 20
87.348815
 30
0.0
 10
-90.896750
 20
87.474714
 30
0.0
 10
-91.869850
 20
87.724614
 30
0.0
 10
-92.803952
 20
88.094415
 30
0.0
 10
-93.684352
 20
88.578415
 30
0.0
 10
-94.497152
 20
89.168914
 30
0.0
 10
-95.229451
 20
89.856614
 30
0.0
 10
-95.869850
 20
90.630715
 30
0.0
 10
-96.408251
 20
91.479013
 30
0.0
 10
-96.647751
 20
91.988114
 30
0.0
 10
-96.647751
 20
98.677915
 30
0.0
 10
-96.408251
 20
99.187016
 30
0.0
 10
-95.869850
 20
100.035314
 30
0.0
 10
-95.229451
 20
100.809415
 30
0.0
 10
-94.497152
 20
101.497115
 30
0.0
 10
-93.684352
 20
102.087614
 30
0.0
 10
-92.803952
 20
102.571614
 30
0.0
 10
-91.869850
 20
102.941415
 30
0.0
 10
-90.896750
 20
103.191314
 30
0.0
 10
-89.900052
 20
103.317214
 30
0.0
 10
-88.895451
 20
103.317214
 30
0.0
 10
-87.898752
 20
103.191314
 30
0.0
 10
-86.925652
 20
102.941415
 30
0.0
 10
-85.991550
 20
102.571614
 30
0.0
 10
-85.111153
 20
102.087614
 30
0.0
 10
-84.298353
 20
101.497115
 30
0.0
 10
-83.566051
 20
100.809415
 30
0.0
 10
-82.925652
 20
100.035314
 30
0.0
 10
-82.387251
 20
99.187016
 30
0.0
 10
-82.147751
 20
98.677915
 30
0.0
 10
-82.147751
 20
91.988114
 30
0.0
 10
-82.387251
 20
91.479013
 30
0.0
 10
-82.925652
 20
90.630715
 30
0.0
 10
-83.566051
 20
89.856614
 30
0.0
 10
-84.298353
 20
89.168914
 30
0.0
 10
-85.111153
 20
88.578415
 30
0.0
 10
-85.991550
 20
88.094415
 30
0.0
 10
-86.925652
 20
87.724614
 30
0.0
 10
-87.898752
 20
87.474714
 30
0.0
 10
-88.895451
 20
87.348815
 30
0.0
 10
-89.900052
 20
87.348815
 30
0.0
  0
LWPOLYLINE
  5
152
100
AcDbEntity
  8
Layer_1
 62
7
100
AcDbPolyline
 90
51
 70
0
 10
-71.645752
 20
91.390816
 30
0.0
 10
-72.137950
 20
91.453015
 30
0.0
 10
-72.618352
 20
91.576315
 30
0.0
 10
-73.079551
 20
91.758916
 30
0.0
 10
-73.514252
 20
91.997915
 30
0.0
 10
-73.915552
 20
92.289513
 30
0.0
 10
-74.277152
 20
92.629015
 30
0.0
 10
-74.593351
 20
93.011215
 30
0.0
 10
-74.859151
 20
93.430114
 30
0.0
 10
-75.070352
 20
93.878915
 30
0.0
 10
-75.223652
 20
94.350715
 30
0.0
 10
-75.316653
 20
94.837915
 30
0.0
 10
-75.347751
 20
95.333014
 30
0.0
 10
-75.316653
 20
95.828114
 30
0.0
 10
-75.223652
 20
96.315314
 30
0.0
 10
-75.070352
 20
96.787114
 30
0.0
 10
-74.859151
 20
97.235915
 30
0.0
 10
-74.593351
 20
97.654716
 30
0.0
 10
-74.277152
 20
98.036915
 30
0.0
 10
-73.915552
 20
98.376516
 30
0.0
 10
-73.514252
 20
98.668113
 30
0.0
 10
-73.079551
 20
98.907113
 30
0.0
 10
-72.618352
 20
99.089714
 30
0.0
 10
-72.137950
 20
99.213014
 30
0.0
 10
-71.645752
 20
99.275213
 30
0.0
 10
-71.149751
 20
99.275213
 30
0.0
 10
-70.657651
 20
99.213014
 30
0.0
 10
-70.177151
 20
99.089714
 30
0.0
 10
-69.715951
 20
98.907113
 30
0.0
 10
-69.281251
 20
98.668113
 30
0.0
 10
-68.879951
 20
98.376516
 30
0.0
 10
-68.518351
 20
98.036915
 30
0.0
 10
-68.202151
 20
97.654716
 30
0.0
 10
-67.936351
 20
97.235915
 30
0.0
 10
-67.725151
 20
96.787114
 30
0.0
 10
-67.571851
 20
96.315314
 30
0.0
 10
-67.478951
 20
95.828114
 30
0.0
 10
-67.447751
 20
95.333014
 30
0.0
 10
-67.478951
 20
94.837915
 30
0.0
 10
-67.571851
 20
94.350715
 30
0.0
 10
-67.725151
 20
93.878915
 30
0.0
 10
-67.936351
 20
93.430114
 30
0.0
 10
-68.202151
 20
93.011215
 30
0.0
 10
-68.518351
 20
92.629015
 30
0.0
 10
-68.879951
 20
92.289513
 30
0.0
 10
-69.281251
 20
91.997915
 30
0.0
 10
-69.715951
 20
91.758916
 30
0.0
 10
-70.177151
 20
91.576315
 30
0.0
 10
-70.657651
 20
91.453015
 30
0.0
 10
-71.149751
 20
91.390816
 30
0.0
 10
-71.645752
 20
91.390816
 30
0.0
  0
LWPOLYLINE
  5
153
100
AcDbEntity
  8
Layer_1
 62
7
100
AcDbPolyline
 90
41
 70
0
 10
-89.900052
 20
64.848815
 30
0.0
 10
-90.896750
 20
64.974714
 30
0.0
 10
-91.869850
 20
65.224614
 30
0.0
 10
-92.803952
 20
65.594415
 30
0.0
 10
-93.684352
 20
66.078415
 30
0.0
 10
-94.497152
 20
66.668914
 30
0.0
 10
-95.229451
 20
67.356613
 30
0.0
 10
-95.869850
 20
68.130715
 30
0.0
 10
-96.408251
 20
68.979016
 30
0.0
 10
-96.647751
 20
69.488114
 30
0.0
 10
-96.647751
 20
76.177915
 30
0.0
 10
-96.408251
 20
76.687016
 30
0.0
 10
-95.869850
 20
77.535313
 30
0.0
 10
-95.229451
 20
78.309415
 30
0.0
 10
-94.497152
 20
78.997115
 30
0.0
 10
-93.684352
 20
79.587614
 30
0.0
 10
-92.803952
 20
80.071614
 30
0.0
 10
-91.869850
 20
80.441415
 30
0.0
 10
-90.896750
 20
80.691314
 30
0.0
 10
-89.900052
 20
80.817214
 30
0.0
 10
-88.895451
 20
80.817214
 30
0.0
 10
-87.898752
 20
80.691314
 30
0.0
 10
-86.925652
 20
80.441415
 30
0.0
 10
-85.991550
 20
80.071614
 30
0.0
 10
-85.111153
 20
79.587614
 30
0.0
 10
-84.298353
 20
78.997115
 30
0.0
 10
-83.566051
 20
78.309415
 30
0.0
 10
-82.925652
 20
77.535313
 30
0.0
 10
-82.387251
 20
76.687016
 30
0.0
 10
-82.147751
 20
76.177915
 30
0.0
 10
-82.147751
 20
69.488114
 30
0.0
 10
-82.387251
 20
68.979016
 30
0.0
 10
-82.925652
 20
68.130715
 30
0.0
 10
-83.566051
 20
67.356613
 30
0.0
 10
-84.298353
 20
66.668914
 30
0.0
 10
-85.111153
 20
66.078415
 30
0.0
 10
-85.991550
 20
65.594415
 30
0.0
 10
-86.925652
 20
65.224614
 30
0.0
 10
-87.898752
 20
64.974714
 30
0.0
 10
-88.895451
 20
64.848815
 30
0.0
 10
-89.900052
 20
64.848815
 30
0.0
  0
LWPOLYLINE
  5
154
100
AcDbEntity
  8
Layer_1
 62
7
100
AcDbPolyline
 90
51
 70
0
 10
-71.645752
 20
68.890813
 30
0.0
 10
-72.137950
 20
68.953015
 30
0.0
 10
-72.618352
 20
69.076315
 30
0.0
 10
-73.079551
 20
69.258915
 30
0.0
 10
-73.514252
 20
69.497915
 30
0.0
 10
-73.915552
 20
69.789516
 30
0.0
 10
-74.277152
 20
70.129015
 30
0.0
 10
-74.593351
 20
70.511214
 30
0.0
 10
-74.859151
 20
70.930114
 30
0.0
 10
-75.070352
 20
71.378915
 30
0.0
 10
-75.223652
 20
71.850714
 30
0.0
 10
-75.316653
 20
72.337915
 30
0.0
 10
-75.347751
 20
72.833014
 30
0.0
 10
-75.316653
 20
73.328114
 30
0.0
 10
-75.223652
 20
73.815314
 30
0.0
 10
-75.070352
 20
74.287114
 30
0.0
 10
-74.859151
 20
74.735915
 30
0.0
 10
-74.593351
 20
75.154715
 30
0.0
 10
-74.277152
 20
75.536915
 30
0.0
 10
-73.915552
 20
75.876516
 30
0.0
 10
-73.514252
 20
76.168113
 30
0.0
 10
-73.079551
 20
76.407113
 30
0.0
 10
-72.618352
 20
76.589714
 30
0.0
 10
-72.137950
 20
76.713014
 30
0.0
 10
-71.645752
 20
76.775216
 30
0.0
 10
-71.149751
 20
76.775216
 30
0.0
 10
-70.657651
 20
76.713014
 30
0.0
 10
-70.177151
 20
76.589714
 30
0.0
 10
-69.715951
 20
76.407113
 30
0.0
 10
-69.281251
 20
76.168113
 30
0.0
 10
-68.879951
 20
75.876516
 30
0.0
 10
-68.518351
 20
75.536915
 30
0.0
 10
-68.202151
 20
75.154715
 30
0.0
 10
-67.936351
 20
74.735915
 30
0.0
 10
-67.725151
 20
74.287114
 30
0.0
 10
-67.571851
 20
73.815314
 30
0.0
 10
-67.478951
 20
73.328114
 30
0.0
 10
-67.447751
 20
72.833014
 30
0.0
 10
-67.478951
 20
72.337915
 30
0.0
 10
-67.571851
 20
71.850714
 30
0.0
 10
-67.725151
 20
71.378915
 30
0.0
 10
-67.936351
 20
70.930114
 30
0.0
 10
-68.202151
 20
70.511214
 30
0.0
 10
-68.518351
 20
70.129015
 30
0.0
 10
-68.879951
 20
69.789516
 30
0.0
 10
-69.281251
 20
69.497915
 30
0.0
 10
-69.715951
 20
69.258915
 30
0.0
 10
-70.177151
 20
69.076315
 30
0.0
 10
-70.657651
 20
68.953015
 30
0.0
 10
-71.149751
 20
68.890813
 30
0.0
 10
-71.645752
 20
68.890813
 30
0.0
  0
LWPOLYLINE
  5
155
100
AcDbEntity
  8
Layer_1
 62
7
100
AcDbPolyline
 90
41
 70
0
 10
-89.900052
 20
42.348815
 30
0.0
 10
-90.896750
 20
42.474714
 30
0.0
 10
-91.869850
 20
42.724613
 30
0.0
 10
-92.803952
 20
43.094415
 30
0.0
 10
-93.684352
 20
43.578415
 30
0.0
 10
-94.497152
 20
44.168914
 30
0.0
 10
-95.229451
 20
44.856613
 30
0.0
 10
-95.869850
 20
45.630715
 30
0.0
 10
-96.408251
 20
46.479016
 30
0.0
 10
-96.647751
 20
46.988114
 30
0.0
 10
-96.647751
 20
53.677915
 30
0.0
 10
-96.408251
 20
54.187015
 30
0.0
 10
-95.869850
 20
55.035313
 30
0.0
 10
-95.229451
 20
55.809415
 30
0.0
 10
-94.497152
 20
56.497114
 30
0.0
 10
-93.684352
 20
57.087614
 30
0.0
 10
-92.803952
 20
57.571613
 30
0.0
 10
-91.869850
 20
57.941415
 30
0.0
 10
-90.896750
 20
58.191314
 30
0.0
 10
-89.900052
 20
58.317213
 30
0.0
 10
-88.895451
 20
58.317213
 30
0.0
 10
-87.898752
 20
58.191314
 30
0.0
 10
-86.925652
 20
57.941415
 30
0.0
 10
-85.991550
 20
57.571613
 30
0.0
 10
-85.111153
 20
57.087614
 30
0.0
 10
-84.298353
 20
56.497114
 30
0.0
 10
-83.566051
 20
55.809415
 30
0.0
 10
-82.925652
 20
55.035313
 30
0.0
 10
-82.387251
 20
54.187015
 30
0.0
 10
-82.147751
 20
53.677915
 30
0.0
 10
-82.147751
 20
46.988114
 30
0.0
 10
-82.387251
 20
46.479016
 30
0.0
 10
-82.925652
 20
45.630715
 30
0.0
 10
-83.566051
 20
44.856613
 30
0.0
 10
-84.298353
 20
44.168914
 30
0.0
 10
-85.111153
 20
43.578415
 30
0.0
 10
-85.991550
 20
43.094415
 30
0.0
 10
-86.925652
 20
42.724613
 30
0.0
 10
-87.898752
 20
42.474714
 30
0.0
 10
-88.895451
 20
42.348815
 30
0.0
 10
-89.900052
 20
42.348815
 30
0.0
  0
LWPOLYLINE
  5
156
100
AcDbEntity
  8
Layer_1
 62
7
100
AcDbPolyline
 90
51
 70
0
 10
-71.645752
 20
46.390816
 30
0.0
 10
-72.137950
 20
46.453015
 30
0.0
 10
-72.618352
 20
46.576315
 30
0.0
 10
-73.079551
 20
46.758915
 30
0.0
 10
-73.514252
 20
46.997915
 30
0.0
 10
-73.915552
 20
47.289516
 30
0.0
 10
-74.277152
 20
47.629015
 30
0.0
 10
-74.593351
 20
48.011214
 30
0.0
 10
-74.859151
 20
48.430114
 30
0.0
 10
-75.070352
 20
48.878915
 30
0.0
 10
-75.223652
 20
49.350714
 30
0.0
 10
-75.316653
 20
49.837915
 30
0.0
 10
-75.347751
 20
50.333014
 30
0.0
 10
-75.316653
 20
50.828114
 30
0.0
 10
-75.223652
 20
51.315314
 30
0.0
 10
-75.070352
 20
51.787113
 30
0.0
 10
-74.859151
 20
52.235914
 30
0.0
 10
-74.593351
 20
52.654715
 30
0.0
 10
-74.277152
 20
53.036915
 30
0.0
 10
-73.915552
 20
53.376516
 30
0.0
 10
-73.514252
 20
53.668113
 30
0.0
 10
-73.079551
 20
53.907113
 30
0.0
 10
-72.618352
 20
54.089714
 30
0.0
 10
-72.137950
 20
54.213014
 30
0.0
 10
-71.645752
 20
54.275216
 30
0.0
 10
-71.149751
 20
54.275216
 30
0.0
 10
-70.657651
 20
54.213014
 30
0.0
 10
-70.177151
 20
54.089714
 30
0.0
 10
-69.715951
 20
53.907113
 30
0.0
 10
-69.281251
 20
53.668113
 30
0.0
 10
-68.879951
 20
53.376516
 30
0.0
 10
-68.518351
 20
53.036915
 30
0.0
 10
-68.202151
 20
52.654715
 30
0.0
 10
-67.936351
 20
52.235914
 30
0.0
 10
-67.725151
 20
51.787113
 30
0.0
 10
-67.571851
 20
51.315314
 30
0.0
 10
-67.478951
 20
50.828114
 30
0.0
 10
-67.447751
 20
50.333014
 30
0.0
 10
-67.478951
 20
49.837915
 30
0.0
 10
-67.571851
 20
49.350714
 30
0.0
 10
-67.725151
 20
48.878915
 30
0.0
 10
-67.936351
 20
48.430114
 30
0.0
 10
-68.202151
 20
48.011214
 30
0.0
 10
-68.518351
 20
47.629015
 30
0.0
 10
-68.879951
 20
47.289516
 30
0.0
 10
-69.281251
 20
46.997915
 30
0.0
 10
-69.715951
 20
46.758915
 30
0.0
 10
-70.177151
 20
46.576315
 30
0.0
 10
-70.657651
 20
46.453015
 30
0.0
 10
-71.149751
 20
46.390816
 30
0.0
 10
-71.645752
 20
46.390816
 30
0.0
  0
LWPOLYLINE
  5
157
100
AcDbEntity
  8
Layer_1
 62
7
100
AcDbPolyline
 90
29
 70
0
 10
280.602250
 20
40.690116
 30
0.0
 10
283.702235
 20
40.690116
 30
0.0
 10
283.702235
 20
53.547314
 30
0.0
 10
280.602250
 20
53.547314
 30
0.0
 10
280.602250
 20
66.404415
 30
0.0
 10
283.702235
 20
66.404415
 30
0.0
 10
283.702235
 20
79.261613
 30
0.0
 10
280.602250
 20
79.261613
 30
0.0
 10
280.602250
 20
92.118715
 30
0.0
 10
283.702235
 20
92.118715
 30
0.0
 10
283.702235
 20
104.975916
 30
0.0
 10
280.602250
 20
104.975916
 30
0.0
 10
280.602250
 20
117.833015
 30
0.0
 10
226.602248
 20
117.833015
 30
0.0
 10
226.602248
 20
104.975916
 30
0.0
 10
223.502248
 20
104.975916
 30
0.0
 10
223.502248
 20
92.118715
 30
0.0
 10
226.602248
 20
92.118715
 30
0.0
 10
226.602248
 20
79.261613
 30
0.0
 10
223.502248
 20
79.261613
 30
0.0
 10
223.502248
 20
66.404415
 30
0.0
 10
226.602248
 20
66.404415
 30
0.0
 10
226.602248
 20
53.547314
 30
0.0
 10
223.502248
 20
53.547314
 30
0.0
 10
223.502248
 20
40.690116
 30
0.0
 10
226.602248
 20
40.690116
 30
0.0
 10
226.602248
 20
27.833014
 30
0.0
 10
280.602250
 20
27.833014
 30
0.0
 10
280.602250
 20
40.690116
 30
0.0
  0
LWPOLYLINE
  5
158
100
AcDbEntity
  8
Layer_1
 62
7
100
AcDbPolyline
 90
41
 70
0
 10
239.600243
 20
87.348815
 30
0.0
 10
238.603248
 20
87.474714
 30
0.0
 10
237.630248
 20
87.724614
 30
0.0
 10
236.696250
 20
88.094415
 30
0.0
 10
235.815248
 20
88.578415
 30
0.0
 10
235.003250
 20
89.168914
 30
0.0
 10
234.270248
 20
89.856614
 30
0.0
 10
233.630250
 20
90.630715
 30
0.0
 10
233.092250
 20
91.479013
 30
0.0
 10
232.852248
 20
91.988114
 30
0.0
 10
232.852248
 20
98.677915
 30
0.0
 10
233.092250
 20
99.187016
 30
0.0
 10
233.630250
 20
100.035314
 30
0.0
 10
234.270248
 20
100.809415
 30
0.0
 10
235.003250
 20
101.497115
 30
0.0
 10
235.815248
 20
102.087614
 30
0.0
 10
236.696250
 20
102.571614
 30
0.0
 10
237.630248
 20
102.941415
 30
0.0
 10
238.603248
 20
103.191314
 30
0.0
 10
239.600243
 20
103.317214
 30
0.0
 10
240.604249
 20
103.317214
 30
0.0
 10
241.601255
 20
103.191314
 30
0.0
 10
242.574245
 20
102.941415
 30
0.0
 10
243.508259
 20
102.571614
 30
0.0
 10
244.389244
 20
102.087614
 30
0.0
 10
245.201254
 20
101.497115
 30
0.0
 10
245.934241
 20
100.809415
 30
0.0
 10
246.574237
 20
100.035314
 30
0.0
 10
247.112237
 20
99.187016
 30
0.0
 10
247.352239
 20
98.677915
 30
0.0
 10
247.352239
 20
91.988114
 30
0.0
 10
247.112237
 20
91.479013
 30
0.0
 10
246.574237
 20
90.630715
 30
0.0
 10
245.934241
 20
89.856614
 30
0.0
 10
245.201254
 20
89.168914
 30
0.0
 10
244.389244
 20
88.578415
 30
0.0
 10
243.508259
 20
88.094415
 30
0.0
 10
242.574245
 20
87.724614
 30
0.0
 10
241.601255
 20
87.474714
 30
0.0
 10
240.604249
 20
87.348815
 30
0.0
 10
239.600243
 20
87.348815
 30
0.0
  0
LWPOLYLINE
  5
159
100
AcDbEntity
  8
Layer_1
 62
7
100
AcDbPolyline
 90
12
 70
0
 10
257.652249
 20
99.015114
 30
0.0
 10
257.652249
 20
100.201015
 30
0.0
 10
257.858243
 20
100.201015
 30
0.0
 10
257.858243
 20
99.719016
 30
0.0
 10
259.341236
 20
99.719016
 30
0.0
 10
259.060256
 20
100.146015
 30
0.0
 10
259.289251
 20
100.146015
 30
0.0
 10
259.572235
 20
99.699015
 30
0.0
 10
259.572235
 20
99.476116
 30
0.0
 10
257.858243
 20
99.476116
 30
0.0
 10
257.858243
 20
99.015114
 30
0.0
 10
257.652249
 20
99.015114
 30
0.0
  0
LWPOLYLINE
  5
15a
100
AcDbEntity
  8
Layer_1
 62
7
100
AcDbPolyline
 90
51
 70
0
 10
266.854246
 20
91.390816
 30
0.0
 10
266.362248
 20
91.453015
 30
0.0
 10
265.881256
 20
91.576315
 30
0.0
 10
265.420246
 20
91.758916
 30
0.0
 10
264.985257
 20
91.997915
 30
0.0
 10
264.584248
 20
92.289513
 30
0.0
 10
264.223257
 20
92.629015
 30
0.0
 10
263.906237
 20
93.011215
 30
0.0
 10
263.641259
 20
93.430114
 30
0.0
 10
263.429253
 20
93.878915
 30
0.0
 10
263.276261
 20
94.350715
 30
0.0
 10
263.183240
 20
94.837915
 30
0.0
 10
263.152252
 20
95.333014
 30
0.0
 10
263.183240
 20
95.828114
 30
0.0
 10
263.276261
 20
96.315314
 30
0.0
 10
263.429253
 20
96.787114
 30
0.0
 10
263.641259
 20
97.235915
 30
0.0
 10
263.906237
 20
97.654716
 30
0.0
 10
264.223257
 20
98.036915
 30
0.0
 10
264.584248
 20
98.376516
 30
0.0
 10
264.985257
 20
98.668113
 30
0.0
 10
265.420246
 20
98.907113
 30
0.0
 10
265.881256
 20
99.089714
 30
0.0
 10
266.362248
 20
99.213014
 30
0.0
 10
266.854246
 20
99.275213
 30
0.0
 10
267.350251
 20
99.275213
 30
0.0
 10
267.842249
 20
99.213014
 30
0.0
 10
268.323241
 20
99.089714
 30
0.0
 10
268.784251
 20
98.907113
 30
0.0
 10
269.219240
 20
98.668113
 30
0.0
 10
269.620249
 20
98.376516
 30
0.0
 10
269.981240
 20
98.036915
 30
0.0
 10
270.298260
 20
97.654716
 30
0.0
 10
270.563238
 20
97.235915
 30
0.0
 10
270.775244
 20
96.787114
 30
0.0
 10
270.928236
 20
96.315314
 30
0.0
 10
271.021257
 20
95.828114
 30
0.0
 10
271.052245
 20
95.333014
 30
0.0
 10
271.021257
 20
94.837915
 30
0.0
 10
270.928236
 20
94.350715
 30
0.0
 10
270.775244
 20
93.878915
 30
0.0
 10
270.563238
 20
93.430114
 30
0.0
 10
270.298260
 20
93.011215
 30
0.0
 10
269.981240
 20
92.629015
 30
0.0
 10
269.620249
 20
92.289513
 30
0.0
 10
269.219240
 20
91.997915
 30
0.0
 10
268.784251
 20
91.758916
 30
0.0
 10
268.323241
 20
91.576315
 30
0.0
 10
267.842249
 20
91.453015
 30
0.0
 10
267.350251
 20
91.390816
 30
0.0
 10
266.854246
 20
91.390816
 30
0.0
  0
LWPOLYLINE
  5
15b
100
AcDbEntity
  8
Layer_1
 62
7
100
AcDbPolyline
 90
12
 70
0
 10
251.574255
 20
96.763715
 30
0.0
 10
251.574255
 20
97.165715
 30
0.0
 10
250.902256
 20
97.165715
 30
0.0
 10
250.902256
 20
97.511714
 30
0.0
 10
251.574255
 20
97.511714
 30
0.0
 10
251.574255
 20
98.852715
 30
0.0
 10
251.858255
 20
98.852715
 30
0.0
 10
253.782249
 20
97.547714
 30
0.0
 10
253.782249
 20
97.165715
 30
0.0
 10
251.862263
 20
97.165715
 30
0.0
 10
251.862263
 20
96.763715
 30
0.0
 10
251.574255
 20
96.763715
 30
0.0
  0
LWPOLYLINE
  5
15c
100
AcDbEntity
  8
Layer_1
 62
7
100
AcDbPolyline
 90
7
 70
0
 10
253.156252
 20
97.629815
 30
0.0
 10
252.052255
 20
98.373713
 30
0.0
 10
251.902254
 20
98.482713
 30
0.0
 10
251.862263
 20
98.514714
 30
0.0
 10
251.862263
 20
97.511714
 30
0.0
 10
253.370261
 20
97.511714
 30
0.0
 10
253.156252
 20
97.629815
 30
0.0
  0
LWPOLYLINE
  5
15d
100
AcDbEntity
  8
Layer_1
 62
7
100
AcDbPolyline
 90
17
 70
0
 10
257.652249
 20
97.521916
 30
0.0
 10
257.652249
 20
98.779913
 30
0.0
 10
257.823248
 20
98.779913
 30
0.0
 10
257.867246
 20
98.759621
 30
0.0
 10
257.951235
 20
98.715315
 30
0.0
 10
258.028254
 20
98.666115
 30
0.0
 10
258.100249
 20
98.611915
 30
0.0
 10
258.199252
 20
98.525213
 30
0.0
 10
258.289253
 20
98.434913
 30
0.0
 10
258.372254
 20
98.341814
 30
0.0
 10
258.546244
 20
98.128014
 30
0.0
 10
258.641240
 20
98.018915
 30
0.0
 10
258.713235
 20
97.947515
 30
0.0
 10
258.762257
 20
97.906415
 30
0.0
 10
258.813255
 20
97.870816
 30
0.0
 10
258.866256
 20
97.840615
 30
0.0
 10
258.893350
 20
97.828508
 30
0.0
  0
LWPOLYLINE
  5
15e
100
AcDbEntity
  8
Layer_1
 62
7
100
AcDbPolyline
 90
14
 70
0
 10
258.893237
 20
97.828514
 30
0.0
 10
258.922249
 20
97.818608
 30
0.0
 10
258.952249
 20
97.810824
 30
0.0
 10
258.982250
 20
97.805312
 30
0.0
 10
259.014254
 20
97.802013
 30
0.0
 10
259.046258
 20
97.800887
 30
0.0
 10
259.089240
 20
97.802891
 30
0.0
 10
259.129259
 20
97.808403
 30
0.0
 10
259.166258
 20
97.817812
 30
0.0
 10
259.201254
 20
97.831023
 30
0.0
 10
259.232242
 20
97.847919
 30
0.0
 10
259.261254
 20
97.868516
 30
0.0
 10
259.287219
 20
97.892928
 30
0.0
 10
259.310107
 20
97.920713
 30
0.0
  0
LWPOLYLINE
  5
15f
100
AcDbEntity
  8
Layer_1
 62
7
100
AcDbPolyline
 90
4
 70
0
 10
259.310248
 20
97.920716
 30
0.0
 10
259.329157
 20
97.951314
 30
0.0
 10
259.345328
 20
97.984814
 30
0.0
 10
259.357379
 20
98.021314
 30
0.0
  0
LWPOLYLINE
  5
160
100
AcDbEntity
  8
Layer_1
 62
7
100
AcDbPolyline
 90
4
 70
0
 10
259.357238
 20
98.021314
 30
0.0
 10
259.366269
 20
98.060613
 30
0.0
 10
259.371321
 20
98.102814
 30
0.0
 10
259.374059
 20
98.147913
 30
0.0
  0
LWPOLYLINE
  5
161
100
AcDbEntity
  8
Layer_1
 62
7
100
AcDbPolyline
 90
2
 70
0
 10
259.373240
 20
98.147913
 30
0.0
 10
259.370418
 20
98.191116
 30
0.0
  0
LWPOLYLINE
  5
162
100
AcDbEntity
  8
Layer_1
 62
7
100
AcDbPolyline
 90
4
 70
0
 10
259.371236
 20
98.191116
 30
0.0
 10
259.366156
 20
98.232114
 30
0.0
 10
259.358339
 20
98.270914
 30
0.0
 10
259.346119
 20
98.307414
 30
0.0
  0
LWPOLYLINE
  5
163
100
AcDbEntity
  8
Layer_1
 62
7
100
AcDbPolyline
 90
3
 70
0
 10
259.346260
 20
98.307414
 30
0.0
 10
259.330173
 20
98.341814
 30
0.0
 10
259.311349
 20
98.374015
 30
0.0
  0
LWPOLYLINE
  5
164
100
AcDbEntity
  8
Layer_1
 62
7
100
AcDbPolyline
 90
3
 70
0
 10
259.311236
 20
98.374015
 30
0.0
 10
259.289223
 20
98.403914
 30
0.0
 10
259.264133
 20
98.430810
 30
0.0
  0
LWPOLYLINE
  5
165
100
AcDbEntity
  8
Layer_1
 62
7
100
AcDbPolyline
 90
8
 70
0
 10
259.264246
 20
98.430815
 30
0.0
 10
259.235262
 20
98.454409
 30
0.0
 10
259.204246
 20
98.474622
 30
0.0
 10
259.171254
 20
98.491406
 30
0.0
 10
259.134254
 20
98.505014
 30
0.0
 10
259.095251
 20
98.515118
 30
0.0
 10
259.053257
 20
98.521917
 30
0.0
 10
259.076399
 20
98.768915
 30
0.0
  0
LWPOLYLINE
  5
166
100
AcDbEntity
  8
Layer_1
 62
7
100
AcDbPolyline
 90
11
 70
0
 10
259.076258
 20
98.768915
 30
0.0
 10
259.139250
 20
98.758416
 30
0.0
 10
259.198262
 20
98.742129
 30
0.0
 10
259.253239
 20
98.720299
 30
0.0
 10
259.305253
 20
98.692712
 30
0.0
 10
259.353259
 20
98.659415
 30
0.0
 10
259.397257
 20
98.620514
 30
0.0
 10
259.437248
 20
98.575914
 30
0.0
 10
259.473260
 20
98.526314
 30
0.0
 10
259.503260
 20
98.472816
 30
0.0
 10
259.528096
 20
98.415513
 30
0.0
  0
LWPOLYLINE
  5
167
100
AcDbEntity
  8
Layer_1
 62
7
100
AcDbPolyline
 90
2
 70
0
 10
259.528237
 20
98.415513
 30
0.0
 10
259.547146
 20
98.354415
 30
0.0
  0
LWPOLYLINE
  5
168
100
AcDbEntity
  8
Layer_1
 62
7
100
AcDbPolyline
 90
2
 70
0
 10
259.547258
 20
98.354415
 30
0.0
 10
259.561370
 20
98.289414
 30
0.0
  0
LWPOLYLINE
  5
169
100
AcDbEntity
  8
Layer_1
 62
7
100
AcDbPolyline
 90
3
 70
0
 10
259.561257
 20
98.289414
 30
0.0
 10
259.569159
 20
98.220613
 30
0.0
 10
259.572348
 20
98.147913
 30
0.0
  0
LWPOLYLINE
  5
16a
100
AcDbEntity
  8
Layer_1
 62
7
100
AcDbPolyline
 90
2
 70
0
 10
259.572235
 20
98.147913
 30
0.0
 10
259.569131
 20
98.068614
 30
0.0
  0
LWPOLYLINE
  5
16b
100
AcDbEntity
  8
Layer_1
 62
7
100
AcDbPolyline
 90
3
 70
0
 10
259.569244
 20
98.068614
 30
0.0
 10
259.561341
 20
97.994816
 30
0.0
 10
259.547146
 20
97.926414
 30
0.0
  0
LWPOLYLINE
  5
16c
100
AcDbEntity
  8
Layer_1
 62
7
100
AcDbPolyline
 90
2
 70
0
 10
259.547258
 20
97.926414
 30
0.0
 10
259.528350
 20
97.863413
 30
0.0
  0
LWPOLYLINE
  5
16d
100
AcDbEntity
  8
Layer_1
 62
7
100
AcDbPolyline
 90
2
 70
0
 10
259.528237
 20
97.863413
 30
0.0
 10
259.503401
 20
97.805815
 30
0.0
  0
LWPOLYLINE
  5
16e
100
AcDbEntity
  8
Layer_1
 62
7
100
AcDbPolyline
 90
31
 70
0
 10
259.503260
 20
97.805815
 30
0.0
 10
259.473260
 20
97.753615
 30
0.0
 10
259.437248
 20
97.706915
 30
0.0
 10
259.396241
 20
97.665815
 30
0.0
 10
259.351255
 20
97.631015
 30
0.0
 10
259.301245
 20
97.602516
 30
0.0
 10
259.246240
 20
97.580418
 30
0.0
 10
259.186240
 20
97.564610
 30
0.0
 10
259.123248
 20
97.555102
 30
0.0
 10
259.054244
 20
97.551925
 30
0.0
 10
259.023256
 20
97.553042
 30
0.0
 10
258.991252
 20
97.556118
 30
0.0
 10
258.960236
 20
97.561308
 30
0.0
 10
258.929248
 20
97.568624
 30
0.0
 10
258.897244
 20
97.577900
 30
0.0
 10
258.835240
 20
97.602919
 30
0.0
 10
258.773236
 20
97.635615
 30
0.0
 10
258.710244
 20
97.676416
 30
0.0
 10
258.648240
 20
97.725415
 30
0.0
 10
258.584260
 20
97.785215
 30
0.0
 10
258.502246
 20
97.872114
 30
0.0
 10
258.401239
 20
97.988616
 30
0.0
 10
258.245254
 20
98.177913
 30
0.0
 10
258.145235
 20
98.291513
 30
0.0
 10
258.083259
 20
98.354415
 30
0.0
 10
258.024246
 20
98.407216
 30
0.0
 10
257.968253
 20
98.451214
 30
0.0
 10
257.912260
 20
98.486814
 30
0.0
 10
257.858243
 20
98.513907
 30
0.0
 10
257.858243
 20
97.521916
 30
0.0
 10
257.652249
 20
97.521916
 30
0.0
  0
LWPOLYLINE
  5
16f
100
AcDbEntity
  8
Layer_1
 62
7
100
AcDbPolyline
 90
5
 70
0
 10
258.269243
 20
95.900716
 30
0.0
 10
258.269243
 20
96.556713
 30
0.0
 10
258.484240
 20
96.556713
 30
0.0
 10
258.484240
 20
95.900716
 30
0.0
 10
258.269243
 20
95.900716
 30
0.0
  0
LWPOLYLINE
  5
170
100
AcDbEntity
  8
Layer_1
 62
7
100
AcDbPolyline
 90
12
 70
0
 10
251.588253
 20
94.569115
 30
0.0
 10
251.483238
 20
94.584524
 30
0.0
 10
251.384263
 20
94.610111
 30
0.0
 10
251.293246
 20
94.645913
 30
0.0
 10
251.210245
 20
94.692113
 30
0.0
 10
251.134242
 20
94.748414
 30
0.0
 10
251.065239
 20
94.815015
 30
0.0
 10
251.005238
 20
94.891215
 30
0.0
 10
250.954241
 20
94.976215
 30
0.0
 10
250.912246
 20
95.070215
 30
0.0
 10
250.880242
 20
95.173014
 30
0.0
 10
250.857100
 20
95.284814
 30
0.0
  0
LWPOLYLINE
  5
171
100
AcDbEntity
  8
Layer_1
 62
7
100
AcDbPolyline
 90
2
 70
0
 10
250.857241
 20
95.284814
 30
0.0
 10
250.843130
 20
95.405416
 30
0.0
  0
LWPOLYLINE
  5
172
100
AcDbEntity
  8
Layer_1
 62
7
100
AcDbPolyline
 90
5
 70
0
 10
250.843243
 20
95.405416
 30
0.0
 10
250.838163
 20
95.535015
 30
0.0
 10
250.843328
 20
95.661515
 30
0.0
 10
250.856225
 20
95.779913
 30
0.0
 10
250.879396
 20
95.890115
 30
0.0
  0
LWPOLYLINE
  5
173
100
AcDbEntity
  8
Layer_1
 62
7
100
AcDbPolyline
 90
27
 70
0
 10
250.879254
 20
95.890115
 30
0.0
 10
250.911258
 20
95.992314
 30
0.0
 10
250.952237
 20
96.086314
 30
0.0
 10
251.002247
 20
96.172214
 30
0.0
 10
251.061260
 20
96.250014
 30
0.0
 10
251.129247
 20
96.318416
 30
0.0
 10
251.204262
 20
96.376314
 30
0.0
 10
251.288251
 20
96.423716
 30
0.0
 10
251.378252
 20
96.460614
 30
0.0
 10
251.477255
 20
96.486917
 30
0.0
 10
251.583258
 20
96.502718
 30
0.0
 10
251.697247
 20
96.508021
 30
0.0
 10
251.777257
 20
96.504714
 30
0.0
 10
251.854248
 20
96.495005
 30
0.0
 10
251.927258
 20
96.478814
 30
0.0
 10
251.996262
 20
96.456011
 30
0.0
 10
252.061258
 20
96.426913
 30
0.0
 10
252.123262
 20
96.391215
 30
0.0
 10
252.181258
 20
96.349014
 30
0.0
 10
252.234260
 20
96.301415
 30
0.0
 10
252.281250
 20
96.250316
 30
0.0
 10
252.321241
 20
96.195514
 30
0.0
 10
252.356236
 20
96.137114
 30
0.0
 10
252.383330
 20
96.075013
 30
0.0
 10
252.405258
 20
96.009315
 30
0.0
 10
252.420216
 20
95.940015
 30
0.0
 10
252.428146
 20
95.940015
 30
0.0
  0
LWPOLYLINE
  5
174
100
AcDbEntity
  8
Layer_1
 62
7
100
AcDbPolyline
 90
27
 70
0
 10
252.428259
 20
95.940015
 30
0.0
 10
252.447168
 20
96.004314
 30
0.0
 10
252.471242
 20
96.064613
 30
0.0
 10
252.500254
 20
96.121016
 30
0.0
 10
252.534262
 20
96.173416
 30
0.0
 10
252.574253
 20
96.221916
 30
0.0
 10
252.619239
 20
96.266414
 30
0.0
 10
252.669249
 20
96.307014
 30
0.0
 10
252.723238
 20
96.342515
 30
0.0
 10
252.780247
 20
96.372614
 30
0.0
 10
252.839260
 20
96.397224
 30
0.0
 10
252.901236
 20
96.416406
 30
0.0
 10
252.966260
 20
96.430018
 30
0.0
 10
253.033259
 20
96.438228
 30
0.0
 10
253.103250
 20
96.441036
 30
0.0
 10
253.195255
 20
96.436018
 30
0.0
 10
253.282236
 20
96.421114
 30
0.0
 10
253.364249
 20
96.396306
 30
0.0
 10
253.440252
 20
96.361616
 30
0.0
 10
253.512247
 20
96.317013
 30
0.0
 10
253.579246
 20
96.262415
 30
0.0
 10
253.640263
 20
96.198014
 30
0.0
 10
253.695240
 20
96.124916
 30
0.0
 10
253.741242
 20
96.044914
 30
0.0
 10
253.779257
 20
95.958216
 30
0.0
 10
253.808241
 20
95.864614
 30
0.0
 10
253.829126
 20
95.764213
 30
0.0
  0
LWPOLYLINE
  5
175
100
AcDbEntity
  8
Layer_1
 62
7
100
AcDbPolyline
 90
47
 70
0
 10
253.829239
 20
95.764213
 30
0.0
 10
253.842221
 20
95.657014
 30
0.0
 10
253.846200
 20
95.543013
 30
0.0
 10
253.842306
 20
95.426314
 30
0.0
 10
253.829267
 20
95.316914
 30
0.0
 10
253.809201
 20
95.214814
 30
0.0
 10
253.780245
 20
95.120016
 30
0.0
 10
253.743246
 20
95.032414
 30
0.0
 10
253.698259
 20
94.952014
 30
0.0
 10
253.644242
 20
94.879015
 30
0.0
 10
253.584242
 20
94.814214
 30
0.0
 10
253.517242
 20
94.759514
 30
0.0
 10
253.445247
 20
94.714714
 30
0.0
 10
253.368257
 20
94.679814
 30
0.0
 10
253.284239
 20
94.654922
 30
0.0
 10
253.194239
 20
94.640012
 30
0.0
 10
253.099243
 20
94.635020
 30
0.0
 10
253.029252
 20
94.637836
 30
0.0
 10
252.962252
 20
94.646111
 30
0.0
 10
252.897256
 20
94.659999
 30
0.0
 10
252.835252
 20
94.679402
 30
0.0
 10
252.775252
 20
94.704418
 30
0.0
 10
252.718243
 20
94.734915
 30
0.0
 10
252.664254
 20
94.771014
 30
0.0
 10
252.614244
 20
94.811615
 30
0.0
 10
252.570245
 20
94.856313
 30
0.0
 10
252.531242
 20
94.905115
 30
0.0
 10
252.498250
 20
94.957913
 30
0.0
 10
252.470310
 20
95.014913
 30
0.0
 10
252.448241
 20
95.075916
 30
0.0
 10
252.432154
 20
95.141013
 30
0.0
 10
252.424336
 20
95.141013
 30
0.0
 10
252.408165
 20
95.065513
 30
0.0
 10
252.386236
 20
94.994915
 30
0.0
 10
252.357252
 20
94.929214
 30
0.0
 10
252.323244
 20
94.868513
 30
0.0
 10
252.283254
 20
94.812715
 30
0.0
 10
252.236235
 20
94.761915
 30
0.0
 10
252.184250
 20
94.716015
 30
0.0
 10
252.127241
 20
94.675713
 30
0.0
 10
252.066253
 20
94.641514
 30
0.0
 10
252.001257
 20
94.613602
 30
0.0
 10
251.932254
 20
94.591910
 30
0.0
 10
251.859243
 20
94.576422
 30
0.0
 10
251.782253
 20
94.567100
 30
0.0
 10
251.701255
 20
94.564010
 30
0.0
 10
251.588253
 20
94.569124
 30
0.0
  0
LWPOLYLINE
  5
176
100
AcDbEntity
  8
Layer_1
 62
7
100
AcDbPolyline
 90
18
 70
0
 10
251.811237
 20
94.947214
 30
0.0
 10
251.882244
 20
94.956922
 30
0.0
 10
251.947240
 20
94.973029
 30
0.0
 10
252.006252
 20
94.995621
 30
0.0
 10
252.060242
 20
95.024613
 30
0.0
 10
252.108248
 20
95.060114
 30
0.0
 10
252.151258
 20
95.102016
 30
0.0
 10
252.188258
 20
95.149415
 30
0.0
 10
252.220262
 20
95.202114
 30
0.0
 10
252.246226
 20
95.259913
 30
0.0
 10
252.266292
 20
95.322914
 30
0.0
 10
252.280347
 20
95.391116
 30
0.0
 10
252.289293
 20
95.464414
 30
0.0
 10
252.292341
 20
95.543013
 30
0.0
 10
252.289152
 20
95.619414
 30
0.0
 10
252.280206
 20
95.690915
 30
0.0
 10
252.264175
 20
95.757513
 30
0.0
 10
252.243376
 20
95.819216
 30
0.0
  0
LWPOLYLINE
  5
177
100
AcDbEntity
  8
Layer_1
 62
7
100
AcDbPolyline
 90
19
 70
0
 10
252.243263
 20
95.819216
 30
0.0
 10
252.215323
 20
95.876016
 30
0.0
 10
252.181258
 20
95.928015
 30
0.0
 10
252.141239
 20
95.975014
 30
0.0
 10
252.096253
 20
96.016114
 30
0.0
 10
252.045256
 20
96.050914
 30
0.0
 10
251.991238
 20
96.079413
 30
0.0
 10
251.932254
 20
96.101511
 30
0.0
 10
251.868246
 20
96.117318
 30
0.0
 10
251.799242
 20
96.126827
 30
0.0
 10
251.726260
 20
96.130004
 30
0.0
 10
251.563248
 20
96.117711
 30
0.0
 10
251.425242
 20
96.081115
 30
0.0
 10
251.312240
 20
96.020014
 30
0.0
 10
251.225259
 20
95.934416
 30
0.0
 10
251.162239
 20
95.824414
 30
0.0
 10
251.125239
 20
95.689916
 30
0.0
 10
251.112257
 20
95.531013
 30
0.0
 10
251.115362
 20
95.449214
 30
0.0
  0
LWPOLYLINE
  5
178
100
AcDbEntity
  8
Layer_1
 62
7
100
AcDbPolyline
 90
15
 70
0
 10
251.115249
 20
95.449214
 30
0.0
 10
251.124280
 20
95.373714
 30
0.0
 10
251.139209
 20
95.304315
 30
0.0
 10
251.161251
 20
95.241213
 30
0.0
 10
251.188344
 20
95.184314
 30
0.0
 10
251.221251
 20
95.133514
 30
0.0
 10
251.261242
 20
95.089014
 30
0.0
 10
251.307244
 20
95.050516
 30
0.0
 10
251.360246
 20
95.018015
 30
0.0
 10
251.421262
 20
94.991317
 30
0.0
 10
251.489250
 20
94.970599
 30
0.0
 10
251.564236
 20
94.955824
 30
0.0
 10
251.646250
 20
94.947008
 30
0.0
 10
251.735263
 20
94.944022
 30
0.0
 10
251.811237
 20
94.947203
 30
0.0
  0
LWPOLYLINE
  5
179
100
AcDbEntity
  8
Layer_1
 62
7
100
AcDbPolyline
 90
7
 70
0
 10
253.210241
 20
95.025816
 30
0.0
 10
253.321239
 20
95.058116
 30
0.0
 10
253.412255
 20
95.112015
 30
0.0
 10
253.483262
 20
95.187413
 30
0.0
 10
253.534260
 20
95.284413
 30
0.0
 10
253.564260
 20
95.402915
 30
0.0
 10
253.574138
 20
95.543013
 30
0.0
  0
LWPOLYLINE
  5
17a
100
AcDbEntity
  8
Layer_1
 62
7
100
AcDbPolyline
 90
2
 70
0
 10
253.574251
 20
95.543013
 30
0.0
 10
253.571146
 20
95.613614
 30
0.0
  0
LWPOLYLINE
  5
17b
100
AcDbEntity
  8
Layer_1
 62
7
100
AcDbPolyline
 90
29
 70
0
 10
253.571259
 20
95.613614
 30
0.0
 10
253.564204
 20
95.679315
 30
0.0
 10
253.551278
 20
95.740016
 30
0.0
 10
253.533188
 20
95.795715
 30
0.0
 10
253.511231
 20
95.846413
 30
0.0
 10
253.483319
 20
95.892215
 30
0.0
 10
253.450242
 20
95.933013
 30
0.0
 10
253.412255
 20
95.968514
 30
0.0
 10
253.369245
 20
95.998616
 30
0.0
 10
253.321239
 20
96.023226
 30
0.0
 10
253.268237
 20
96.042405
 30
0.0
 10
253.210241
 20
96.056017
 30
0.0
 10
253.147249
 20
96.064227
 30
0.0
 10
253.079261
 20
96.067038
 30
0.0
 10
253.010258
 20
96.064193
 30
0.0
 10
252.946250
 20
96.055721
 30
0.0
 10
252.886250
 20
96.041604
 30
0.0
 10
252.832260
 20
96.021916
 30
0.0
 10
252.782251
 20
95.996626
 30
0.0
 10
252.737236
 20
95.965616
 30
0.0
 10
252.697245
 20
95.929014
 30
0.0
 10
252.662250
 20
95.887214
 30
0.0
 10
252.633237
 20
95.840814
 30
0.0
 10
252.609248
 20
95.789715
 30
0.0
 10
252.590340
 20
95.734016
 30
0.0
 10
252.577273
 20
95.673713
 30
0.0
 10
252.569342
 20
95.608715
 30
0.0
 10
252.566153
 20
95.539014
 30
0.0
 10
252.569060
 20
95.468315
 30
0.0
  0
LWPOLYLINE
  5
17c
100
AcDbEntity
  8
Layer_1
 62
7
100
AcDbPolyline
 90
2
 70
0
 10
252.568242
 20
95.468315
 30
0.0
 10
252.576144
 20
95.402613
 30
0.0
  0
LWPOLYLINE
  5
17d
100
AcDbEntity
  8
Layer_1
 62
7
100
AcDbPolyline
 90
2
 70
0
 10
252.576257
 20
95.402613
 30
0.0
 10
252.588392
 20
95.342015
 30
0.0
  0
LWPOLYLINE
  5
17e
100
AcDbEntity
  8
Layer_1
 62
7
100
AcDbPolyline
 90
3
 70
0
 10
252.588251
 20
95.342015
 30
0.0
 10
252.605184
 20
95.286214
 30
0.0
 10
252.628383
 20
95.235515
 30
0.0
  0
LWPOLYLINE
  5
17f
100
AcDbEntity
  8
Layer_1
 62
7
100
AcDbPolyline
 90
10
 70
0
 10
252.628242
 20
95.235515
 30
0.0
 10
252.655335
 20
95.189815
 30
0.0
 10
252.687255
 20
95.149014
 30
0.0
 10
252.725242
 20
95.113415
 30
0.0
 10
252.768252
 20
95.083414
 30
0.0
 10
252.818262
 20
95.058720
 30
0.0
 10
252.874255
 20
95.039608
 30
0.0
 10
252.936259
 20
95.025926
 30
0.0
 10
253.005263
 20
95.017730
 30
0.0
 10
253.079261
 20
95.014894
 30
0.0
  0
LWPOLYLINE
  5
180
100
AcDbEntity
  8
Layer_1
 62
7
100
AcDbPolyline
 90
2
 70
0
 10
253.079261
 20
95.015015
 30
0.0
 10
253.210241
 20
95.025824
 30
0.0
  0
LWPOLYLINE
  5
181
100
AcDbEntity
  8
Layer_1
 62
7
100
AcDbPolyline
 90
17
 70
0
 10
257.652249
 20
93.638214
 30
0.0
 10
257.652249
 20
94.896213
 30
0.0
 10
257.823248
 20
94.896213
 30
0.0
 10
257.867246
 20
94.875809
 30
0.0
 10
257.951235
 20
94.831514
 30
0.0
 10
258.028254
 20
94.782314
 30
0.0
 10
258.100249
 20
94.728215
 30
0.0
 10
258.199252
 20
94.641514
 30
0.0
 10
258.289253
 20
94.551115
 30
0.0
 10
258.372254
 20
94.458016
 30
0.0
 10
258.546244
 20
94.244215
 30
0.0
 10
258.641240
 20
94.135215
 30
0.0
 10
258.713235
 20
94.063714
 30
0.0
 10
258.762257
 20
94.022713
 30
0.0
 10
258.813255
 20
93.987015
 30
0.0
 10
258.866256
 20
93.956814
 30
0.0
 10
258.893350
 20
93.944707
 30
0.0
  0
LWPOLYLINE
  5
182
100
AcDbEntity
  8
Layer_1
 62
7
100
AcDbPolyline
 90
7
 70
0
 10
258.893237
 20
93.944715
 30
0.0
 10
258.922249
 20
93.934809
 30
0.0
 10
258.952249
 20
93.927110
 30
0.0
 10
258.982250
 20
93.921610
 30
0.0
 10
259.014254
 20
93.918313
 30
0.0
 10
259.046258
 20
93.917185
 30
0.0
 10
259.089240
 20
93.918909
 30
0.0
  0
LWPOLYLINE
  5
183
100
AcDbEntity
  8
Layer_1
 62
7
100
AcDbPolyline
 90
8
 70
0
 10
259.089240
 20
93.919013
 30
0.0
 10
259.129259
 20
93.924714
 30
0.0
 10
259.166258
 20
93.934112
 30
0.0
 10
259.201254
 20
93.947210
 30
0.0
 10
259.232242
 20
93.964118
 30
0.0
 10
259.261254
 20
93.984718
 30
0.0
 10
259.287219
 20
94.009212
 30
0.0
 10
259.310107
 20
94.036929
 30
0.0
  0
LWPOLYLINE
  5
184
100
AcDbEntity
  8
Layer_1
 62
7
100
AcDbPolyline
 90
4
 70
0
 10
259.310248
 20
94.036915
 30
0.0
 10
259.329157
 20
94.067516
 30
0.0
 10
259.345328
 20
94.101114
 30
0.0
 10
259.357379
 20
94.137515
 30
0.0
  0
LWPOLYLINE
  5
185
100
AcDbEntity
  8
Layer_1
 62
7
100
AcDbPolyline
 90
4
 70
0
 10
259.357238
 20
94.137515
 30
0.0
 10
259.366269
 20
94.176815
 30
0.0
 10
259.371321
 20
94.219016
 30
0.0
 10
259.374059
 20
94.264214
 30
0.0
  0
LWPOLYLINE
  5
186
100
AcDbEntity
  8
Layer_1
 62
7
100
AcDbPolyline
 90
2
 70
0
 10
259.373240
 20
94.264214
 30
0.0
 10
259.370418
 20
94.307314
 30
0.0
  0
LWPOLYLINE
  5
187
100
AcDbEntity
  8
Layer_1
 62
7
100
AcDbPolyline
 90
4
 70
0
 10
259.371236
 20
94.307314
 30
0.0
 10
259.366156
 20
94.348316
 30
0.0
 10
259.358339
 20
94.387116
 30
0.0
 10
259.346119
 20
94.423714
 30
0.0
  0
LWPOLYLINE
  5
188
100
AcDbEntity
  8
Layer_1
 62
7
100
AcDbPolyline
 90
3
 70
0
 10
259.346260
 20
94.423714
 30
0.0
 10
259.330173
 20
94.458016
 30
0.0
 10
259.311349
 20
94.490214
 30
0.0
  0
LWPOLYLINE
  5
189
100
AcDbEntity
  8
Layer_1
 62
7
100
AcDbPolyline
 90
3
 70
0
 10
259.311236
 20
94.490214
 30
0.0
 10
259.289223
 20
94.520116
 30
0.0
 10
259.264133
 20
94.547124
 30
0.0
  0
LWPOLYLINE
  5
18a
100
AcDbEntity
  8
Layer_1
 62
7
100
AcDbPolyline
 90
8
 70
0
 10
259.264246
 20
94.547113
 30
0.0
 10
259.235262
 20
94.570622
 30
0.0
 10
259.204246
 20
94.590821
 30
0.0
 10
259.171254
 20
94.607720
 30
0.0
 10
259.134254
 20
94.621205
 30
0.0
 10
259.095251
 20
94.631317
 30
0.0
 10
259.053257
 20
94.638229
 30
0.0
 10
259.076399
 20
94.885215
 30
0.0
  0
LWPOLYLINE
  5
18b
100
AcDbEntity
  8
Layer_1
 62
7
100
AcDbPolyline
 90
11
 70
0
 10
259.076258
 20
94.885215
 30
0.0
 10
259.139250
 20
94.874604
 30
0.0
 10
259.198262
 20
94.858415
 30
0.0
 10
259.253239
 20
94.836515
 30
0.0
 10
259.305253
 20
94.808914
 30
0.0
 10
259.353259
 20
94.775716
 30
0.0
 10
259.397257
 20
94.736716
 30
0.0
 10
259.437248
 20
94.692215
 30
0.0
 10
259.473260
 20
94.642515
 30
0.0
 10
259.503260
 20
94.589113
 30
0.0
 10
259.528096
 20
94.531715
 30
0.0
  0
LWPOLYLINE
  5
18c
100
AcDbEntity
  8
Layer_1
 62
7
100
AcDbPolyline
 90
2
 70
0
 10
259.528237
 20
94.531715
 30
0.0
 10
259.547146
 20
94.470614
 30
0.0
  0
LWPOLYLINE
  5
18d
100
AcDbEntity
  8
Layer_1
 62
7
100
AcDbPolyline
 90
2
 70
0
 10
259.547258
 20
94.470614
 30
0.0
 10
259.561370
 20
94.405615
 30
0.0
  0
LWPOLYLINE
  5
18e
100
AcDbEntity
  8
Layer_1
 62
7
100
AcDbPolyline
 90
3
 70
0
 10
259.561257
 20
94.405615
 30
0.0
 10
259.569159
 20
94.336815
 30
0.0
 10
259.572348
 20
94.264214
 30
0.0
  0
LWPOLYLINE
  5
18f
100
AcDbEntity
  8
Layer_1
 62
7
100
AcDbPolyline
 90
2
 70
0
 10
259.572235
 20
94.264214
 30
0.0
 10
259.569131
 20
94.184915
 30
0.0
  0
LWPOLYLINE
  5
190
100
AcDbEntity
  8
Layer_1
 62
7
100
AcDbPolyline
 90
3
 70
0
 10
259.569244
 20
94.184915
 30
0.0
 10
259.561341
 20
94.111015
 30
0.0
 10
259.547146
 20
94.042615
 30
0.0
  0
LWPOLYLINE
  5
191
100
AcDbEntity
  8
Layer_1
 62
7
100
AcDbPolyline
 90
2
 70
0
 10
259.547258
 20
94.042615
 30
0.0
 10
259.528350
 20
93.979615
 30
0.0
  0
LWPOLYLINE
  5
192
100
AcDbEntity
  8
Layer_1
 62
7
100
AcDbPolyline
 90
2
 70
0
 10
259.528237
 20
93.979615
 30
0.0
 10
259.503401
 20
93.922013
 30
0.0
  0
LWPOLYLINE
  5
193
100
AcDbEntity
  8
Layer_1
 62
7
100
AcDbPolyline
 90
11
 70
0
 10
259.503260
 20
93.922013
 30
0.0
 10
259.473260
 20
93.869915
 30
0.0
 10
259.437248
 20
93.823216
 30
0.0
 10
259.396241
 20
93.782014
 30
0.0
 10
259.351255
 20
93.747213
 30
0.0
 10
259.301245
 20
93.718813
 30
0.0
 10
259.246240
 20
93.696603
 30
0.0
 10
259.186240
 20
93.680809
 30
0.0
 10
259.123248
 20
93.671304
 30
0.0
 10
259.054244
 20
93.668211
 30
0.0
 10
259.023256
 20
93.669343
 30
0.0
  0
LWPOLYLINE
  5
194
100
AcDbEntity
  8
Layer_1
 62
7
100
AcDbPolyline
 90
21
 70
0
 10
259.023256
 20
93.669216
 30
0.0
 10
258.991252
 20
93.672320
 30
0.0
 10
258.960236
 20
93.677507
 30
0.0
 10
258.929248
 20
93.684825
 30
0.0
 10
258.897244
 20
93.694212
 30
0.0
 10
258.835240
 20
93.719220
 30
0.0
 10
258.773236
 20
93.751814
 30
0.0
 10
258.710244
 20
93.792615
 30
0.0
 10
258.648240
 20
93.841614
 30
0.0
 10
258.584260
 20
93.901414
 30
0.0
 10
258.502246
 20
93.988316
 30
0.0
 10
258.401239
 20
94.104913
 30
0.0
 10
258.245254
 20
94.294214
 30
0.0
 10
258.145235
 20
94.407715
 30
0.0
 10
258.083259
 20
94.470614
 30
0.0
 10
258.024246
 20
94.523415
 30
0.0
 10
257.968253
 20
94.567515
 30
0.0
 10
257.912260
 20
94.603114
 30
0.0
 10
257.858243
 20
94.630123
 30
0.0
 10
257.858243
 20
93.638214
 30
0.0
 10
257.652249
 20
93.638214
 30
0.0
  0
LWPOLYLINE
  5
195
100
AcDbEntity
  8
Layer_1
 62
7
100
AcDbPolyline
 90
10
 70
0
 10
250.902256
 20
92.851214
 30
0.0
 10
250.902256
 20
93.253214
 30
0.0
 10
253.782249
 20
94.410216
 30
0.0
 10
253.782249
 20
94.001213
 30
0.0
 10
251.752252
 20
93.219215
 30
0.0
 10
251.243236
 20
93.050215
 30
0.0
 10
251.752252
 20
92.881215
 30
0.0
 10
253.782249
 20
92.102213
 30
0.0
 10
253.782249
 20
91.694213
 30
0.0
 10
250.902256
 20
92.851214
 30
0.0
  0
LWPOLYLINE
  5
196
100
AcDbEntity
  8
Layer_1
 62
7
100
AcDbPolyline
 90
12
 70
0
 10
258.101236
 20
92.086014
 30
0.0
 10
258.101236
 20
92.352014
 30
0.0
 10
257.652249
 20
92.352014
 30
0.0
 10
257.652249
 20
92.581015
 30
0.0
 10
258.101236
 20
92.581015
 30
0.0
 10
258.101236
 20
93.477014
 30
0.0
 10
258.290241
 20
93.477014
 30
0.0
 10
259.572235
 20
92.607013
 30
0.0
 10
259.572235
 20
92.352014
 30
0.0
 10
258.292244
 20
92.352014
 30
0.0
 10
258.292244
 20
92.086014
 30
0.0
 10
258.101236
 20
92.086014
 30
0.0
  0
LWPOLYLINE
  5
197
100
AcDbEntity
  8
Layer_1
 62
7
100
AcDbPolyline
 90
7
 70
0
 10
259.181244
 20
92.645915
 30
0.0
 10
258.419244
 20
93.159014
 30
0.0
 10
258.319253
 20
93.232014
 30
0.0
 10
258.292160
 20
93.254027
 30
0.0
 10
258.292244
 20
92.581015
 30
0.0
 10
259.300258
 20
92.581015
 30
0.0
 10
259.181244
 20
92.645915
 30
0.0
  0
LWPOLYLINE
  5
198
100
AcDbEntity
  8
Layer_1
 62
7
100
AcDbPolyline
 90
10
 70
0
 10
257.652249
 20
90.983914
 30
0.0
 10
257.652249
 20
91.249914
 30
0.0
 10
259.572235
 20
92.032914
 30
0.0
 10
259.572235
 20
91.762915
 30
0.0
 10
258.218246
 20
91.230914
 30
0.0
 10
257.878253
 20
91.115915
 30
0.0
 10
258.218246
 20
91.000915
 30
0.0
 10
259.572235
 20
90.470915
 30
0.0
 10
259.572235
 20
90.200913
 30
0.0
 10
257.652249
 20
90.983914
 30
0.0
  0
LWPOLYLINE
  5
199
100
AcDbEntity
  8
Layer_1
 62
7
100
AcDbPolyline
 90
5
 70
0
 10
233.602248
 20
37.833014
 30
0.0
 10
233.602248
 20
77.833016
 30
0.0
 10
273.602236
 20
77.833016
 30
0.0
 10
273.602236
 20
37.833014
 30
0.0
 10
233.602248
 20
37.833014
 30
0.0
  0
LWPOLYLINE
  5
19a
100
AcDbEntity
  8
Layer_1
 62
7
100
AcDbPolyline
 90
61
 70
0
 10
269.879245
 20
71.197514
 30
0.0
 10
270.153254
 20
71.240914
 30
0.0
 10
270.421252
 20
71.312714
 30
0.0
 10
270.680248
 20
71.412116
 30
0.0
 10
270.927249
 20
71.538015
 30
0.0
 10
271.160251
 20
71.689114
 30
0.0
 10
271.375248
 20
71.863714
 30
0.0
 10
271.571252
 20
72.059816
 30
0.0
 10
271.746258
 20
72.275414
 30
0.0
 10
271.897246
 20
72.508016
 30
0.0
 10
272.023259
 20
72.755115
 30
0.0
 10
272.122262
 20
73.014113
 30
0.0
 10
272.194257
 20
73.282016
 30
0.0
 10
272.237240
 20
73.556014
 30
0.0
 10
272.252197
 20
73.833015
 30
0.0
 10
272.237296
 20
74.110013
 30
0.0
 10
272.194257
 20
74.384015
 30
0.0
 10
272.122262
 20
74.651914
 30
0.0
 10
272.023259
 20
74.910915
 30
0.0
 10
271.897246
 20
75.158015
 30
0.0
 10
271.746258
 20
75.390614
 30
0.0
 10
271.571252
 20
75.606215
 30
0.0
 10
271.375248
 20
75.802314
 30
0.0
 10
271.160251
 20
75.976913
 30
0.0
 10
270.927249
 20
76.128015
 30
0.0
 10
270.680248
 20
76.253915
 30
0.0
 10
270.421252
 20
76.353313
 30
0.0
 10
270.153254
 20
76.425113
 30
0.0
 10
269.879245
 20
76.468513
 30
0.0
 10
269.602244
 20
76.483020
 30
0.0
 10
269.325242
 20
76.468508
 30
0.0
 10
269.051261
 20
76.425113
 30
0.0
 10
268.783263
 20
76.353313
 30
0.0
 10
268.524239
 20
76.253915
 30
0.0
 10
268.277238
 20
76.128015
 30
0.0
 10
268.044236
 20
75.976913
 30
0.0
 10
267.829239
 20
75.802314
 30
0.0
 10
267.633236
 20
75.606215
 30
0.0
 10
267.458258
 20
75.390614
 30
0.0
 10
267.307241
 20
75.158015
 30
0.0
 10
267.181257
 20
74.910915
 30
0.0
 10
267.082253
 20
74.651914
 30
0.0
 10
267.010258
 20
74.384015
 30
0.0
 10
266.967248
 20
74.110013
 30
0.0
 10
266.952290
 20
73.833015
 30
0.0
 10
266.967219
 20
73.556014
 30
0.0
 10
267.010258
 20
73.282016
 30
0.0
 10
267.082253
 20
73.014113
 30
0.0
 10
267.181257
 20
72.755115
 30
0.0
 10
267.307241
 20
72.508016
 30
0.0
 10
267.458258
 20
72.275414
 30
0.0
 10
267.633236
 20
72.059816
 30
0.0
 10
267.829239
 20
71.863714
 30
0.0
 10
268.044236
 20
71.689114
 30
0.0
 10
268.277238
 20
71.538015
 30
0.0
 10
268.524239
 20
71.412116
 30
0.0
 10
268.783263
 20
71.312714
 30
0.0
 10
269.051261
 20
71.240914
 30
0.0
 10
269.325242
 20
71.197514
 30
0.0
 10
269.602244
 20
71.183008
 30
0.0
 10
269.879245
 20
71.197520
 30
0.0
  0
LWPOLYLINE
  5
19b
100
AcDbEntity
  8
Layer_1
 62
7
100
AcDbPolyline
 90
61
 70
0
 10
237.879249
 20
71.197514
 30
0.0
 10
238.153248
 20
71.240914
 30
0.0
 10
238.421249
 20
71.312714
 30
0.0
 10
238.680250
 20
71.412116
 30
0.0
 10
238.927256
 20
71.538015
 30
0.0
 10
239.160259
 20
71.689114
 30
0.0
 10
239.375256
 20
71.863714
 30
0.0
 10
239.571259
 20
72.059816
 30
0.0
 10
239.746237
 20
72.275414
 30
0.0
 10
239.897254
 20
72.508016
 30
0.0
 10
240.023238
 20
72.755115
 30
0.0
 10
240.122242
 20
73.014113
 30
0.0
 10
240.194236
 20
73.282016
 30
0.0
 10
240.237247
 20
73.556014
 30
0.0
 10
240.252205
 20
73.833015
 30
0.0
 10
240.237304
 20
74.110013
 30
0.0
 10
240.194236
 20
74.384015
 30
0.0
 10
240.122242
 20
74.651914
 30
0.0
 10
240.023238
 20
74.910915
 30
0.0
 10
239.897254
 20
75.158015
 30
0.0
 10
239.746237
 20
75.390614
 30
0.0
 10
239.571259
 20
75.606215
 30
0.0
 10
239.375256
 20
75.802314
 30
0.0
 10
239.160259
 20
75.976913
 30
0.0
 10
238.927256
 20
76.128015
 30
0.0
 10
238.680250
 20
76.253915
 30
0.0
 10
238.421249
 20
76.353313
 30
0.0
 10
238.153248
 20
76.425113
 30
0.0
 10
237.879249
 20
76.468513
 30
0.0
 10
237.602248
 20
76.483020
 30
0.0
 10
237.325250
 20
76.468508
 30
0.0
 10
237.051249
 20
76.425113
 30
0.0
 10
236.783248
 20
76.353313
 30
0.0
 10
236.524250
 20
76.253915
 30
0.0
 10
236.277249
 20
76.128015
 30
0.0
 10
236.044249
 20
75.976913
 30
0.0
 10
235.829249
 20
75.802314
 30
0.0
 10
235.633249
 20
75.606215
 30
0.0
 10
235.458248
 20
75.390614
 30
0.0
 10
235.307248
 20
75.158015
 30
0.0
 10
235.181250
 20
74.910915
 30
0.0
 10
235.082249
 20
74.651914
 30
0.0
 10
235.010249
 20
74.384015
 30
0.0
 10
234.967249
 20
74.110013
 30
0.0
 10
234.952263
 20
73.833015
 30
0.0
 10
234.967235
 20
73.556014
 30
0.0
 10
235.010249
 20
73.282016
 30
0.0
 10
235.082249
 20
73.014113
 30
0.0
 10
235.181250
 20
72.755115
 30
0.0
 10
235.307248
 20
72.508016
 30
0.0
 10
235.458248
 20
72.275414
 30
0.0
 10
235.633249
 20
72.059816
 30
0.0
 10
235.829249
 20
71.863714
 30
0.0
 10
236.044249
 20
71.689114
 30
0.0
 10
236.277249
 20
71.538015
 30
0.0
 10
236.524250
 20
71.412116
 30
0.0
 10
236.783248
 20
71.312714
 30
0.0
 10
237.051249
 20
71.240914
 30
0.0
 10
237.325250
 20
71.197514
 30
0.0
 10
237.602248
 20
71.183008
 30
0.0
 10
237.879249
 20
71.197520
 30
0.0
  0
LWPOLYLINE
  5
19c
100
AcDbEntity
  8
Layer_1
 62
7
100
AcDbPolyline
 90
61
 70
0
 10
255.484246
 20
39.931615
 30
0.0
 10
257.344260
 20
40.226413
 30
0.0
 10
259.164255
 20
40.714014
 30
0.0
 10
260.923261
 20
41.389214
 30
0.0
 10
262.602258
 20
42.244514
 30
0.0
 10
264.182250
 20
43.270713
 30
0.0
 10
265.646250
 20
44.456414
 30
0.0
 10
266.979242
 20
45.788714
 30
0.0
 10
268.164237
 20
47.252914
 30
0.0
 10
269.190256
 20
48.833014
 30
0.0
 10
270.046236
 20
50.511714
 30
0.0
 10
270.721255
 20
52.270715
 30
0.0
 10
271.209245
 20
54.090614
 30
0.0
 10
271.503236
 20
55.951514
 30
0.0
 10
271.602240
 20
57.833013
 30
0.0
 10
271.503236
 20
59.714515
 30
0.0
 10
271.209245
 20
61.575415
 30
0.0
 10
270.721255
 20
63.395314
 30
0.0
 10
270.046236
 20
65.154315
 30
0.0
 10
269.190256
 20
66.833015
 30
0.0
 10
268.164237
 20
68.413115
 30
0.0
 10
266.979242
 20
69.877315
 30
0.0
 10
265.646250
 20
71.209616
 30
0.0
 10
264.182250
 20
72.395313
 30
0.0
 10
262.602258
 20
73.421515
 30
0.0
 10
260.923261
 20
74.276815
 30
0.0
 10
259.164255
 20
74.952015
 30
0.0
 10
257.344260
 20
75.439616
 30
0.0
 10
255.484246
 20
75.734414
 30
0.0
 10
253.602247
 20
75.833014
 30
0.0
 10
251.720248
 20
75.734414
 30
0.0
 10
249.860263
 20
75.439616
 30
0.0
 10
248.040240
 20
74.952015
 30
0.0
 10
246.281262
 20
74.276815
 30
0.0
 10
244.602237
 20
73.421515
 30
0.0
 10
243.022244
 20
72.395313
 30
0.0
 10
241.558245
 20
71.209616
 30
0.0
 10
240.225253
 20
69.877315
 30
0.0
 10
239.040258
 20
68.413115
 30
0.0
 10
238.014248
 20
66.833015
 30
0.0
 10
237.158248
 20
65.154315
 30
0.0
 10
236.483248
 20
63.395314
 30
0.0
 10
235.995250
 20
61.575415
 30
0.0
 10
235.701247
 20
59.714515
 30
0.0
 10
235.602249
 20
57.833013
 30
0.0
 10
235.701247
 20
55.951514
 30
0.0
 10
235.995250
 20
54.090614
 30
0.0
 10
236.483248
 20
52.270715
 30
0.0
 10
237.158248
 20
50.511714
 30
0.0
 10
238.014248
 20
48.833014
 30
0.0
 10
239.040258
 20
47.252914
 30
0.0
 10
240.225253
 20
45.788714
 30
0.0
 10
241.558245
 20
44.456414
 30
0.0
 10
243.022244
 20
43.270713
 30
0.0
 10
244.602237
 20
42.244514
 30
0.0
 10
246.281262
 20
41.389214
 30
0.0
 10
248.040240
 20
40.714014
 30
0.0
 10
249.860263
 20
40.226413
 30
0.0
 10
251.720248
 20
39.931615
 30
0.0
 10
253.602247
 20
39.833015
 30
0.0
 10
255.484246
 20
39.931615
 30
0.0
  0
LWPOLYLINE
  5
19d
100
AcDbEntity
  8
Layer_1
 62
7
100
AcDbPolyline
 90
61
 70
0
 10
237.879249
 20
39.197513
 30
0.0
 10
238.153248
 20
39.240913
 30
0.0
 10
238.421249
 20
39.312713
 30
0.0
 10
238.680250
 20
39.412115
 30
0.0
 10
238.927256
 20
39.538014
 30
0.0
 10
239.160259
 20
39.689113
 30
0.0
 10
239.375256
 20
39.863716
 30
0.0
 10
239.571259
 20
40.059815
 30
0.0
 10
239.746237
 20
40.275416
 30
0.0
 10
239.897254
 20
40.508015
 30
0.0
 10
240.023238
 20
40.755114
 30
0.0
 10
240.122242
 20
41.014115
 30
0.0
 10
240.194236
 20
41.282015
 30
0.0
 10
240.237247
 20
41.556013
 30
0.0
 10
240.252205
 20
41.833014
 30
0.0
 10
240.237304
 20
42.110015
 30
0.0
 10
240.194236
 20
42.384014
 30
0.0
 10
240.122242
 20
42.651913
 30
0.0
 10
240.023238
 20
42.910914
 30
0.0
 10
239.897254
 20
43.158014
 30
0.0
 10
239.746237
 20
43.390616
 30
0.0
 10
239.571259
 20
43.606214
 30
0.0
 10
239.375256
 20
43.802316
 30
0.0
 10
239.160259
 20
43.976915
 30
0.0
 10
238.927256
 20
44.128014
 30
0.0
 10
238.680250
 20
44.253914
 30
0.0
 10
238.421249
 20
44.353315
 30
0.0
 10
238.153248
 20
44.425115
 30
0.0
 10
237.879249
 20
44.468515
 30
0.0
 10
237.602248
 20
44.483022
 30
0.0
 10
237.325250
 20
44.468507
 30
0.0
 10
237.051249
 20
44.425115
 30
0.0
 10
236.783248
 20
44.353315
 30
0.0
 10
236.524250
 20
44.253914
 30
0.0
 10
236.277249
 20
44.128014
 30
0.0
 10
236.044249
 20
43.976915
 30
0.0
 10
235.829249
 20
43.802316
 30
0.0
 10
235.633249
 20
43.606214
 30
0.0
 10
235.458248
 20
43.390616
 30
0.0
 10
235.307248
 20
43.158014
 30
0.0
 10
235.181250
 20
42.910914
 30
0.0
 10
235.082249
 20
42.651913
 30
0.0
 10
235.010249
 20
42.384014
 30
0.0
 10
234.967249
 20
42.110015
 30
0.0
 10
234.952263
 20
41.833014
 30
0.0
 10
234.967235
 20
41.556013
 30
0.0
 10
235.010249
 20
41.282015
 30
0.0
 10
235.082249
 20
41.014115
 30
0.0
 10
235.181250
 20
40.755114
 30
0.0
 10
235.307248
 20
40.508015
 30
0.0
 10
235.458248
 20
40.275416
 30
0.0
 10
235.633249
 20
40.059815
 30
0.0
 10
235.829249
 20
39.863716
 30
0.0
 10
236.044249
 20
39.689113
 30
0.0
 10
236.277249
 20
39.538014
 30
0.0
 10
236.524250
 20
39.412115
 30
0.0
 10
236.783248
 20
39.312713
 30
0.0
 10
237.051249
 20
39.240913
 30
0.0
 10
237.325250
 20
39.197513
 30
0.0
 10
237.602248
 20
39.183007
 30
0.0
 10
237.879249
 20
39.197522
 30
0.0
  0
LWPOLYLINE
  5
19e
100
AcDbEntity
  8
Layer_1
 62
7
100
AcDbPolyline
 90
61
 70
0
 10
269.879245
 20
39.197513
 30
0.0
 10
270.153254
 20
39.240913
 30
0.0
 10
270.421252
 20
39.312713
 30
0.0
 10
270.680248
 20
39.412115
 30
0.0
 10
270.927249
 20
39.538014
 30
0.0
 10
271.160251
 20
39.689113
 30
0.0
 10
271.375248
 20
39.863716
 30
0.0
 10
271.571252
 20
40.059815
 30
0.0
 10
271.746258
 20
40.275416
 30
0.0
 10
271.897246
 20
40.508015
 30
0.0
 10
272.023259
 20
40.755114
 30
0.0
 10
272.122262
 20
41.014115
 30
0.0
 10
272.194257
 20
41.282015
 30
0.0
 10
272.237240
 20
41.556013
 30
0.0
 10
272.252197
 20
41.833014
 30
0.0
 10
272.237296
 20
42.110015
 30
0.0
 10
272.194257
 20
42.384014
 30
0.0
 10
272.122262
 20
42.651913
 30
0.0
 10
272.023259
 20
42.910914
 30
0.0
 10
271.897246
 20
43.158014
 30
0.0
 10
271.746258
 20
43.390616
 30
0.0
 10
271.571252
 20
43.606214
 30
0.0
 10
271.375248
 20
43.802316
 30
0.0
 10
271.160251
 20
43.976915
 30
0.0
 10
270.927249
 20
44.128014
 30
0.0
 10
270.680248
 20
44.253914
 30
0.0
 10
270.421252
 20
44.353315
 30
0.0
 10
270.153254
 20
44.425115
 30
0.0
 10
269.879245
 20
44.468515
 30
0.0
 10
269.602244
 20
44.483022
 30
0.0
 10
269.325242
 20
44.468507
 30
0.0
 10
269.051261
 20
44.425115
 30
0.0
 10
268.783263
 20
44.353315
 30
0.0
 10
268.524239
 20
44.253914
 30
0.0
 10
268.277238
 20
44.128014
 30
0.0
 10
268.044236
 20
43.976915
 30
0.0
 10
267.829239
 20
43.802316
 30
0.0
 10
267.633236
 20
43.606214
 30
0.0
 10
267.458258
 20
43.390616
 30
0.0
 10
267.307241
 20
43.158014
 30
0.0
 10
267.181257
 20
42.910914
 30
0.0
 10
267.082253
 20
42.651913
 30
0.0
 10
267.010258
 20
42.384014
 30
0.0
 10
266.967248
 20
42.110015
 30
0.0
 10
266.952290
 20
41.833014
 30
0.0
 10
266.967219
 20
41.556013
 30
0.0
 10
267.010258
 20
41.282015
 30
0.0
 10
267.082253
 20
41.014115
 30
0.0
 10
267.181257
 20
40.755114
 30
0.0
 10
267.307241
 20
40.508015
 30
0.0
 10
267.458258
 20
40.275416
 30
0.0
 10
267.633236
 20
40.059815
 30
0.0
 10
267.829239
 20
39.863716
 30
0.0
 10
268.044236
 20
39.689113
 30
0.0
 10
268.277238
 20
39.538014
 30
0.0
 10
268.524239
 20
39.412115
 30
0.0
 10
268.783263
 20
39.312713
 30
0.0
 10
269.051261
 20
39.240913
 30
0.0
 10
269.325242
 20
39.197513
 30
0.0
 10
269.602244
 20
39.183007
 30
0.0
 10
269.879245
 20
39.197522
 30
0.0
  0
LWPOLYLINE
  5
19f
100
AcDbEntity
  8
Layer_1
 62
7
100
AcDbPolyline
 90
45
 70
0
 10
13.420448
 20
-51.166997
 30
0.0
 10
34.329548
 20
-51.166997
 30
0.0
 10
34.329548
 20
-54.266983
 30
0.0
 10
55.238647
 20
-54.266983
 30
0.0
 10
55.238647
 20
-51.166997
 30
0.0
 10
76.147250
 20
-51.166997
 30
0.0
 10
76.147250
 20
-54.266983
 30
0.0
 10
97.057250
 20
-54.266983
 30
0.0
 10
97.057250
 20
-51.166997
 30
0.0
 10
117.966247
 20
-51.166997
 30
0.0
 10
117.966247
 20
-54.266983
 30
0.0
 10
138.875248
 20
-54.266983
 30
0.0
 10
138.875248
 20
-51.166997
 30
0.0
 10
159.784248
 20
-51.166997
 30
0.0
 10
159.784248
 20
-54.266983
 30
0.0
 10
180.693249
 20
-54.266983
 30
0.0
 10
180.693249
 20
-51.166997
 30
0.0
 10
201.602250
 20
-51.166997
 30
0.0
 10
201.602250
 20
2.833008
 30
0.0
 10
180.693249
 20
2.833008
 30
0.0
 10
180.693249
 20
5.932993
 30
0.0
 10
159.784248
 20
5.932993
 30
0.0
 10
159.784248
 20
2.833008
 30
0.0
 10
138.875248
 20
2.833008
 30
0.0
 10
138.875248
 20
5.932993
 30
0.0
 10
117.966247
 20
5.932993
 30
0.0
 10
117.966247
 20
2.833008
 30
0.0
 10
97.057250
 20
2.833008
 30
0.0
 10
97.057250
 20
5.932993
 30
0.0
 10
76.147250
 20
5.932993
 30
0.0
 10
76.147250
 20
2.833008
 30
0.0
 10
55.238647
 20
2.833008
 30
0.0
 10
55.238647
 20
5.932993
 30
0.0
 10
34.329548
 20
5.932993
 30
0.0
 10
34.329548
 20
2.833008
 30
0.0
 10
13.420448
 20
2.833008
 30
0.0
 10
13.420448
 20
5.932993
 30
0.0
 10
-7.488651
 20
5.932993
 30
0.0
 10
-7.488651
 20
2.833008
 30
0.0
 10
-28.397751
 20
2.833008
 30
0.0
 10
-28.397751
 20
-51.166997
 30
0.0
 10
-7.488651
 20
-51.166997
 30
0.0
 10
-7.488651
 20
-54.266983
 30
0.0
 10
13.420448
 20
-54.266983
 30
0.0
 10
13.420448
 20
-51.166997
 30
0.0
  0
LWPOLYLINE
  5
1a0
100
AcDbEntity
  8
Layer_1
 62
7
100
AcDbPolyline
 90
51
 70
0
 10
-8.315551
 20
-10.159092
 30
0.0
 10
-8.813952
 20
-10.096185
 30
0.0
 10
-9.300450
 20
-9.971189
 30
0.0
 10
-9.767550
 20
-9.786277
 30
0.0
 10
-10.207752
 20
-9.544300
 30
0.0
 10
-10.614152
 20
-9.249095
 30
0.0
 10
-10.980352
 20
-8.905179
 30
0.0
 10
-11.300452
 20
-8.518196
 30
0.0
 10
-11.569652
 20
-8.093988
 30
0.0
 10
-11.783551
 20
-7.639497
 30
0.0
 10
-11.938751
 20
-7.161780
 30
0.0
 10
-12.032852
 20
-6.668286
 30
0.0
 10
-12.064452
 20
-6.166974
 30
0.0
 10
-12.032852
 20
-5.665691
 30
0.0
 10
-11.938751
 20
-5.172198
 30
0.0
 10
-11.783551
 20
-4.694480
 30
0.0
 10
-11.569652
 20
-4.239989
 30
0.0
 10
-11.300452
 20
-3.815894
 30
0.0
 10
-10.980352
 20
-3.428798
 30
0.0
 10
-10.614152
 20
-3.084995
 30
0.0
 10
-10.207752
 20
-2.789678
 30
0.0
 10
-9.767550
 20
-2.547672
 30
0.0
 10
-9.300450
 20
-2.362788
 30
0.0
 10
-8.813952
 20
-2.237877
 30
0.0
 10
-8.315551
 20
-2.174885
 30
0.0
 10
-7.813252
 20
-2.174885
 30
0.0
 10
-7.314952
 20
-2.237877
 30
0.0
 10
-6.828353
 20
-2.362788
 30
0.0
 10
-6.361351
 20
-2.547672
 30
0.0
 10
-5.921152
 20
-2.789678
 30
0.0
 10
-5.514752
 20
-3.084995
 30
0.0
 10
-5.148552
 20
-3.428798
 30
0.0
 10
-4.828351
 20
-3.815894
 30
0.0
 10
-4.559252
 20
-4.239989
 30
0.0
 10
-4.345350
 20
-4.694480
 30
0.0
 10
-4.190052
 20
-5.172198
 30
0.0
 10
-4.095950
 20
-5.665691
 30
0.0
 10
-4.064452
 20
-6.166974
 30
0.0
 10
-4.095950
 20
-6.668286
 30
0.0
 10
-4.190052
 20
-7.161780
 30
0.0
 10
-4.345350
 20
-7.639497
 30
0.0
 10
-4.559252
 20
-8.093988
 30
0.0
 10
-4.828351
 20
-8.518196
 30
0.0
 10
-5.148552
 20
-8.905179
 30
0.0
 10
-5.514752
 20
-9.249095
 30
0.0
 10
-5.921152
 20
-9.544300
 30
0.0
 10
-6.361351
 20
-9.786277
 30
0.0
 10
-6.828353
 20
-9.971189
 30
0.0
 10
-7.314952
 20
-10.096185
 30
0.0
 10
-7.813252
 20
-10.159092
 30
0.0
 10
-8.315551
 20
-10.159092
 30
0.0
  0
LWPOLYLINE
  5
1a1
100
AcDbEntity
  8
Layer_1
 62
7
100
AcDbPolyline
 90
51
 70
0
 10
-20.315551
 20
-10.159092
 30
0.0
 10
-20.813951
 20
-10.096185
 30
0.0
 10
-21.300451
 20
-9.971189
 30
0.0
 10
-21.767551
 20
-9.786277
 30
0.0
 10
-22.207751
 20
-9.544300
 30
0.0
 10
-22.614151
 20
-9.249095
 30
0.0
 10
-22.980252
 20
-8.905179
 30
0.0
 10
-23.300451
 20
-8.518196
 30
0.0
 10
-23.569651
 20
-8.093988
 30
0.0
 10
-23.783551
 20
-7.639497
 30
0.0
 10
-23.938751
 20
-7.161780
 30
0.0
 10
-24.032851
 20
-6.668286
 30
0.0
 10
-24.064451
 20
-6.166974
 30
0.0
 10
-24.032851
 20
-5.665691
 30
0.0
 10
-23.938751
 20
-5.172198
 30
0.0
 10
-23.783551
 20
-4.694480
 30
0.0
 10
-23.569651
 20
-4.239989
 30
0.0
 10
-23.300451
 20
-3.815894
 30
0.0
 10
-22.980252
 20
-3.428798
 30
0.0
 10
-22.614151
 20
-3.084995
 30
0.0
 10
-22.207751
 20
-2.789678
 30
0.0
 10
-21.767551
 20
-2.547672
 30
0.0
 10
-21.300451
 20
-2.362788
 30
0.0
 10
-20.813951
 20
-2.237877
 30
0.0
 10
-20.315551
 20
-2.174885
 30
0.0
 10
-19.813251
 20
-2.174885
 30
0.0
 10
-19.314951
 20
-2.237877
 30
0.0
 10
-18.828351
 20
-2.362788
 30
0.0
 10
-18.361351
 20
-2.547672
 30
0.0
 10
-17.921151
 20
-2.789678
 30
0.0
 10
-17.514751
 20
-3.084995
 30
0.0
 10
-17.148551
 20
-3.428798
 30
0.0
 10
-16.828351
 20
-3.815894
 30
0.0
 10
-16.559251
 20
-4.239989
 30
0.0
 10
-16.345351
 20
-4.694480
 30
0.0
 10
-16.190051
 20
-5.172198
 30
0.0
 10
-16.095951
 20
-5.665691
 30
0.0
 10
-16.064451
 20
-6.166974
 30
0.0
 10
-16.095951
 20
-6.668286
 30
0.0
 10
-16.190051
 20
-7.161780
 30
0.0
 10
-16.345351
 20
-7.639497
 30
0.0
 10
-16.559251
 20
-8.093988
 30
0.0
 10
-16.828351
 20
-8.518196
 30
0.0
 10
-17.148551
 20
-8.905179
 30
0.0
 10
-17.514751
 20
-9.249095
 30
0.0
 10
-17.921151
 20
-9.544300
 30
0.0
 10
-18.361351
 20
-9.786277
 30
0.0
 10
-18.828351
 20
-9.971189
 30
0.0
 10
-19.314951
 20
-10.096185
 30
0.0
 10
-19.813251
 20
-10.159092
 30
0.0
 10
-20.315551
 20
-10.159092
 30
0.0
  0
LWPOLYLINE
  5
1a2
100
AcDbEntity
  8
Layer_1
 62
7
100
AcDbPolyline
 90
51
 70
0
 10
3.684448
 20
-10.159092
 30
0.0
 10
3.186049
 20
-10.096185
 30
0.0
 10
2.699549
 20
-9.971189
 30
0.0
 10
2.232448
 20
-9.786277
 30
0.0
 10
1.792249
 20
-9.544300
 30
0.0
 10
1.385849
 20
-9.249095
 30
0.0
 10
1.019649
 20
-8.905179
 30
0.0
 10
0.699550
 20
-8.518196
 30
0.0
 10
0.430349
 20
-8.093988
 30
0.0
 10
0.216448
 20
-7.639497
 30
0.0
 10
0.061248
 20
-7.161780
 30
0.0
 10
-0.032851
 20
-6.668286
 30
0.0
 10
-0.064451
 20
-6.166974
 30
0.0
 10
-0.032851
 20
-5.665691
 30
0.0
 10
0.061248
 20
-5.172198
 30
0.0
 10
0.216448
 20
-4.694480
 30
0.0
 10
0.430349
 20
-4.239989
 30
0.0
 10
0.699550
 20
-3.815894
 30
0.0
 10
1.019649
 20
-3.428798
 30
0.0
 10
1.385849
 20
-3.084995
 30
0.0
 10
1.792249
 20
-2.789678
 30
0.0
 10
2.232448
 20
-2.547672
 30
0.0
 10
2.699549
 20
-2.362788
 30
0.0
 10
3.186049
 20
-2.237877
 30
0.0
 10
3.684448
 20
-2.174885
 30
0.0
 10
4.186750
 20
-2.174885
 30
0.0
 10
4.685050
 20
-2.237877
 30
0.0
 10
5.171649
 20
-2.362788
 30
0.0
 10
5.638648
 20
-2.547672
 30
0.0
 10
6.078849
 20
-2.789678
 30
0.0
 10
6.485249
 20
-3.084995
 30
0.0
 10
6.851450
 20
-3.428798
 30
0.0
 10
7.171648
 20
-3.815894
 30
0.0
 10
7.440749
 20
-4.239989
 30
0.0
 10
7.654648
 20
-4.694480
 30
0.0
 10
7.809950
 20
-5.172198
 30
0.0
 10
7.904048
 20
-5.665691
 30
0.0
 10
7.935550
 20
-6.166974
 30
0.0
 10
7.904048
 20
-6.668286
 30
0.0
 10
7.809950
 20
-7.161780
 30
0.0
 10
7.654648
 20
-7.639497
 30
0.0
 10
7.440749
 20
-8.093988
 30
0.0
 10
7.171648
 20
-8.518196
 30
0.0
 10
6.851450
 20
-8.905179
 30
0.0
 10
6.485249
 20
-9.249095
 30
0.0
 10
6.078849
 20
-9.544300
 30
0.0
 10
5.638648
 20
-9.786277
 30
0.0
 10
5.171649
 20
-9.971189
 30
0.0
 10
4.685050
 20
-10.096185
 30
0.0
 10
4.186750
 20
-10.159092
 30
0.0
 10
3.684448
 20
-10.159092
 30
0.0
  0
LWPOLYLINE
  5
1a3
100
AcDbEntity
  8
Layer_1
 62
7
100
AcDbPolyline
 90
51
 70
0
 10
15.684449
 20
-10.159092
 30
0.0
 10
15.186048
 20
-10.096185
 30
0.0
 10
14.699547
 20
-9.971189
 30
0.0
 10
14.232450
 20
-9.786277
 30
0.0
 10
13.792248
 20
-9.544300
 30
0.0
 10
13.385848
 20
-9.249095
 30
0.0
 10
13.019648
 20
-8.905179
 30
0.0
 10
12.699548
 20
-8.518196
 30
0.0
 10
12.430348
 20
-8.093988
 30
0.0
 10
12.216449
 20
-7.639497
 30
0.0
 10
12.061249
 20
-7.161780
 30
0.0
 10
11.967148
 20
-6.668286
 30
0.0
 10
11.935547
 20
-6.166974
 30
0.0
 10
11.967148
 20
-5.665691
 30
0.0
 10
12.061249
 20
-5.172198
 30
0.0
 10
12.216449
 20
-4.694480
 30
0.0
 10
12.430348
 20
-4.239989
 30
0.0
 10
12.699548
 20
-3.815894
 30
0.0
 10
13.019648
 20
-3.428798
 30
0.0
 10
13.385848
 20
-3.084995
 30
0.0
 10
13.792248
 20
-2.789678
 30
0.0
 10
14.232450
 20
-2.547672
 30
0.0
 10
14.699547
 20
-2.362788
 30
0.0
 10
15.186048
 20
-2.237877
 30
0.0
 10
15.684449
 20
-2.174885
 30
0.0
 10
16.186748
 20
-2.174885
 30
0.0
 10
16.685048
 20
-2.237877
 30
0.0
 10
17.171647
 20
-2.362788
 30
0.0
 10
17.638649
 20
-2.547672
 30
0.0
 10
18.078848
 20
-2.789678
 30
0.0
 10
18.485248
 20
-3.084995
 30
0.0
 10
18.851448
 20
-3.428798
 30
0.0
 10
19.171649
 20
-3.815894
 30
0.0
 10
19.440748
 20
-4.239989
 30
0.0
 10
19.654650
 20
-4.694480
 30
0.0
 10
19.809948
 20
-5.172198
 30
0.0
 10
19.904050
 20
-5.665691
 30
0.0
 10
19.935548
 20
-6.166974
 30
0.0
 10
19.904050
 20
-6.668286
 30
0.0
 10
19.809948
 20
-7.161780
 30
0.0
 10
19.654650
 20
-7.639497
 30
0.0
 10
19.440748
 20
-8.093988
 30
0.0
 10
19.171649
 20
-8.518196
 30
0.0
 10
18.851448
 20
-8.905179
 30
0.0
 10
18.485248
 20
-9.249095
 30
0.0
 10
18.078848
 20
-9.544300
 30
0.0
 10
17.638649
 20
-9.786277
 30
0.0
 10
17.171647
 20
-9.971189
 30
0.0
 10
16.685048
 20
-10.096185
 30
0.0
 10
16.186748
 20
-10.159092
 30
0.0
 10
15.684449
 20
-10.159092
 30
0.0
  0
LWPOLYLINE
  5
1a4
100
AcDbEntity
  8
Layer_1
 62
7
100
AcDbPolyline
 90
51
 70
0
 10
27.684448
 20
-10.159092
 30
0.0
 10
27.186049
 20
-10.096185
 30
0.0
 10
26.699549
 20
-9.971189
 30
0.0
 10
26.232448
 20
-9.786277
 30
0.0
 10
25.792249
 20
-9.544300
 30
0.0
 10
25.385849
 20
-9.249095
 30
0.0
 10
25.019649
 20
-8.905179
 30
0.0
 10
24.699550
 20
-8.518196
 30
0.0
 10
24.430349
 20
-8.093988
 30
0.0
 10
24.216447
 20
-7.639497
 30
0.0
 10
24.061248
 20
-7.161780
 30
0.0
 10
23.967149
 20
-6.668286
 30
0.0
 10
23.935549
 20
-6.166974
 30
0.0
 10
23.967149
 20
-5.665691
 30
0.0
 10
24.061248
 20
-5.172198
 30
0.0
 10
24.216447
 20
-4.694480
 30
0.0
 10
24.430349
 20
-4.239989
 30
0.0
 10
24.699550
 20
-3.815894
 30
0.0
 10
25.019649
 20
-3.428798
 30
0.0
 10
25.385849
 20
-3.084995
 30
0.0
 10
25.792249
 20
-2.789678
 30
0.0
 10
26.232448
 20
-2.547672
 30
0.0
 10
26.699549
 20
-2.362788
 30
0.0
 10
27.186049
 20
-2.237877
 30
0.0
 10
27.684448
 20
-2.174885
 30
0.0
 10
28.186750
 20
-2.174885
 30
0.0
 10
28.685050
 20
-2.237877
 30
0.0
 10
29.171649
 20
-2.362788
 30
0.0
 10
29.638648
 20
-2.547672
 30
0.0
 10
30.078849
 20
-2.789678
 30
0.0
 10
30.485249
 20
-3.084995
 30
0.0
 10
30.851450
 20
-3.428798
 30
0.0
 10
31.171648
 20
-3.815894
 30
0.0
 10
31.440749
 20
-4.239989
 30
0.0
 10
31.654648
 20
-4.694480
 30
0.0
 10
31.809950
 20
-5.172198
 30
0.0
 10
31.904048
 20
-5.665691
 30
0.0
 10
31.935550
 20
-6.166974
 30
0.0
 10
31.904048
 20
-6.668286
 30
0.0
 10
31.809950
 20
-7.161780
 30
0.0
 10
31.654648
 20
-7.639497
 30
0.0
 10
31.440749
 20
-8.093988
 30
0.0
 10
31.171648
 20
-8.518196
 30
0.0
 10
30.851450
 20
-8.905179
 30
0.0
 10
30.485249
 20
-9.249095
 30
0.0
 10
30.078849
 20
-9.544300
 30
0.0
 10
29.638648
 20
-9.786277
 30
0.0
 10
29.171649
 20
-9.971189
 30
0.0
 10
28.685050
 20
-10.096185
 30
0.0
 10
28.186750
 20
-10.159092
 30
0.0
 10
27.684448
 20
-10.159092
 30
0.0
  0
LWPOLYLINE
  5
1a5
100
AcDbEntity
  8
Layer_1
 62
7
100
AcDbPolyline
 90
51
 70
0
 10
39.684449
 20
-10.159092
 30
0.0
 10
39.186048
 20
-10.096185
 30
0.0
 10
38.699547
 20
-9.971189
 30
0.0
 10
38.232450
 20
-9.786277
 30
0.0
 10
37.792248
 20
-9.544300
 30
0.0
 10
37.385848
 20
-9.249095
 30
0.0
 10
37.019648
 20
-8.905179
 30
0.0
 10
36.699548
 20
-8.518196
 30
0.0
 10
36.430348
 20
-8.093988
 30
0.0
 10
36.216449
 20
-7.639497
 30
0.0
 10
36.061249
 20
-7.161780
 30
0.0
 10
35.967148
 20
-6.668286
 30
0.0
 10
35.935547
 20
-6.166974
 30
0.0
 10
35.967148
 20
-5.665691
 30
0.0
 10
36.061249
 20
-5.172198
 30
0.0
 10
36.216449
 20
-4.694480
 30
0.0
 10
36.430348
 20
-4.239989
 30
0.0
 10
36.699548
 20
-3.815894
 30
0.0
 10
37.019648
 20
-3.428798
 30
0.0
 10
37.385848
 20
-3.084995
 30
0.0
 10
37.792248
 20
-2.789678
 30
0.0
 10
38.232450
 20
-2.547672
 30
0.0
 10
38.699547
 20
-2.362788
 30
0.0
 10
39.186048
 20
-2.237877
 30
0.0
 10
39.684449
 20
-2.174885
 30
0.0
 10
40.186748
 20
-2.174885
 30
0.0
 10
40.685048
 20
-2.237877
 30
0.0
 10
41.171647
 20
-2.362788
 30
0.0
 10
41.638649
 20
-2.547672
 30
0.0
 10
42.078848
 20
-2.789678
 30
0.0
 10
42.485248
 20
-3.084995
 30
0.0
 10
42.851448
 20
-3.428798
 30
0.0
 10
43.171649
 20
-3.815894
 30
0.0
 10
43.440748
 20
-4.239989
 30
0.0
 10
43.654650
 20
-4.694480
 30
0.0
 10
43.809948
 20
-5.172198
 30
0.0
 10
43.904050
 20
-5.665691
 30
0.0
 10
43.935548
 20
-6.166974
 30
0.0
 10
43.904050
 20
-6.668286
 30
0.0
 10
43.809948
 20
-7.161780
 30
0.0
 10
43.654650
 20
-7.639497
 30
0.0
 10
43.440748
 20
-8.093988
 30
0.0
 10
43.171649
 20
-8.518196
 30
0.0
 10
42.851448
 20
-8.905179
 30
0.0
 10
42.485248
 20
-9.249095
 30
0.0
 10
42.078848
 20
-9.544300
 30
0.0
 10
41.638649
 20
-9.786277
 30
0.0
 10
41.171647
 20
-9.971189
 30
0.0
 10
40.685048
 20
-10.096185
 30
0.0
 10
40.186748
 20
-10.159092
 30
0.0
 10
39.684449
 20
-10.159092
 30
0.0
  0
LWPOLYLINE
  5
1a6
100
AcDbEntity
  8
Layer_1
 62
7
100
AcDbPolyline
 90
51
 70
0
 10
39.684449
 20
-22.159097
 30
0.0
 10
39.186048
 20
-22.096189
 30
0.0
 10
38.699547
 20
-21.971193
 30
0.0
 10
38.232450
 20
-21.786281
 30
0.0
 10
37.792248
 20
-21.544276
 30
0.0
 10
37.385848
 20
-21.249099
 30
0.0
 10
37.019648
 20
-20.905183
 30
0.0
 10
36.699548
 20
-20.518172
 30
0.0
 10
36.430348
 20
-20.093992
 30
0.0
 10
36.216449
 20
-19.639473
 30
0.0
 10
36.061249
 20
-19.161784
 30
0.0
 10
35.967148
 20
-18.668290
 30
0.0
 10
35.935547
 20
-18.166979
 30
0.0
 10
35.967148
 20
-17.665696
 30
0.0
 10
36.061249
 20
-17.172174
 30
0.0
 10
36.216449
 20
-16.694484
 30
0.0
 10
36.430348
 20
-16.239994
 30
0.0
 10
36.699548
 20
-15.815898
 30
0.0
 10
37.019648
 20
-15.428774
 30
0.0
 10
37.385848
 20
-15.084999
 30
0.0
 10
37.792248
 20
-14.789682
 30
0.0
 10
38.232450
 20
-14.547676
 30
0.0
 10
38.699547
 20
-14.362792
 30
0.0
 10
39.186048
 20
-14.237881
 30
0.0
 10
39.684449
 20
-14.174889
 30
0.0
 10
40.186748
 20
-14.174889
 30
0.0
 10
40.685048
 20
-14.237881
 30
0.0
 10
41.171647
 20
-14.362792
 30
0.0
 10
41.638649
 20
-14.547676
 30
0.0
 10
42.078848
 20
-14.789682
 30
0.0
 10
42.485248
 20
-15.084999
 30
0.0
 10
42.851448
 20
-15.428774
 30
0.0
 10
43.171649
 20
-15.815898
 30
0.0
 10
43.440748
 20
-16.239994
 30
0.0
 10
43.654650
 20
-16.694484
 30
0.0
 10
43.809948
 20
-17.172174
 30
0.0
 10
43.904050
 20
-17.665696
 30
0.0
 10
43.935548
 20
-18.166979
 30
0.0
 10
43.904050
 20
-18.668290
 30
0.0
 10
43.809948
 20
-19.161784
 30
0.0
 10
43.654650
 20
-19.639473
 30
0.0
 10
43.440748
 20
-20.093992
 30
0.0
 10
43.171649
 20
-20.518172
 30
0.0
 10
42.851448
 20
-20.905183
 30
0.0
 10
42.485248
 20
-21.249099
 30
0.0
 10
42.078848
 20
-21.544276
 30
0.0
 10
41.638649
 20
-21.786281
 30
0.0
 10
41.171647
 20
-21.971193
 30
0.0
 10
40.685048
 20
-22.096189
 30
0.0
 10
40.186748
 20
-22.159097
 30
0.0
 10
39.684449
 20
-22.159097
 30
0.0
  0
LWPOLYLINE
  5
1a7
100
AcDbEntity
  8
Layer_1
 62
7
100
AcDbPolyline
 90
51
 70
0
 10
27.684448
 20
-22.159097
 30
0.0
 10
27.186049
 20
-22.096189
 30
0.0
 10
26.699549
 20
-21.971193
 30
0.0
 10
26.232448
 20
-21.786281
 30
0.0
 10
25.792249
 20
-21.544276
 30
0.0
 10
25.385849
 20
-21.249099
 30
0.0
 10
25.019649
 20
-20.905183
 30
0.0
 10
24.699550
 20
-20.518172
 30
0.0
 10
24.430349
 20
-20.093992
 30
0.0
 10
24.216447
 20
-19.639473
 30
0.0
 10
24.061248
 20
-19.161784
 30
0.0
 10
23.967149
 20
-18.668290
 30
0.0
 10
23.935549
 20
-18.166979
 30
0.0
 10
23.967149
 20
-17.665696
 30
0.0
 10
24.061248
 20
-17.172174
 30
0.0
 10
24.216447
 20
-16.694484
 30
0.0
 10
24.430349
 20
-16.239994
 30
0.0
 10
24.699550
 20
-15.815898
 30
0.0
 10
25.019649
 20
-15.428774
 30
0.0
 10
25.385849
 20
-15.084999
 30
0.0
 10
25.792249
 20
-14.789682
 30
0.0
 10
26.232448
 20
-14.547676
 30
0.0
 10
26.699549
 20
-14.362792
 30
0.0
 10
27.186049
 20
-14.237881
 30
0.0
 10
27.684448
 20
-14.174889
 30
0.0
 10
28.186750
 20
-14.174889
 30
0.0
 10
28.685050
 20
-14.237881
 30
0.0
 10
29.171649
 20
-14.362792
 30
0.0
 10
29.638648
 20
-14.547676
 30
0.0
 10
30.078849
 20
-14.789682
 30
0.0
 10
30.485249
 20
-15.084999
 30
0.0
 10
30.851450
 20
-15.428774
 30
0.0
 10
31.171648
 20
-15.815898
 30
0.0
 10
31.440749
 20
-16.239994
 30
0.0
 10
31.654648
 20
-16.694484
 30
0.0
 10
31.809950
 20
-17.172174
 30
0.0
 10
31.904048
 20
-17.665696
 30
0.0
 10
31.935550
 20
-18.166979
 30
0.0
 10
31.904048
 20
-18.668290
 30
0.0
 10
31.809950
 20
-19.161784
 30
0.0
 10
31.654648
 20
-19.639473
 30
0.0
 10
31.440749
 20
-20.093992
 30
0.0
 10
31.171648
 20
-20.518172
 30
0.0
 10
30.851450
 20
-20.905183
 30
0.0
 10
30.485249
 20
-21.249099
 30
0.0
 10
30.078849
 20
-21.544276
 30
0.0
 10
29.638648
 20
-21.786281
 30
0.0
 10
29.171649
 20
-21.971193
 30
0.0
 10
28.685050
 20
-22.096189
 30
0.0
 10
28.186750
 20
-22.159097
 30
0.0
 10
27.684448
 20
-22.159097
 30
0.0
  0
LWPOLYLINE
  5
1a8
100
AcDbEntity
  8
Layer_1
 62
7
100
AcDbPolyline
 90
51
 70
0
 10
15.684449
 20
-22.159097
 30
0.0
 10
15.186048
 20
-22.096189
 30
0.0
 10
14.699547
 20
-21.971193
 30
0.0
 10
14.232450
 20
-21.786281
 30
0.0
 10
13.792248
 20
-21.544276
 30
0.0
 10
13.385848
 20
-21.249099
 30
0.0
 10
13.019648
 20
-20.905183
 30
0.0
 10
12.699548
 20
-20.518172
 30
0.0
 10
12.430348
 20
-20.093992
 30
0.0
 10
12.216449
 20
-19.639473
 30
0.0
 10
12.061249
 20
-19.161784
 30
0.0
 10
11.967148
 20
-18.668290
 30
0.0
 10
11.935547
 20
-18.166979
 30
0.0
 10
11.967148
 20
-17.665696
 30
0.0
 10
12.061249
 20
-17.172174
 30
0.0
 10
12.216449
 20
-16.694484
 30
0.0
 10
12.430348
 20
-16.239994
 30
0.0
 10
12.699548
 20
-15.815898
 30
0.0
 10
13.019648
 20
-15.428774
 30
0.0
 10
13.385848
 20
-15.084999
 30
0.0
 10
13.792248
 20
-14.789682
 30
0.0
 10
14.232450
 20
-14.547676
 30
0.0
 10
14.699547
 20
-14.362792
 30
0.0
 10
15.186048
 20
-14.237881
 30
0.0
 10
15.684449
 20
-14.174889
 30
0.0
 10
16.186748
 20
-14.174889
 30
0.0
 10
16.685048
 20
-14.237881
 30
0.0
 10
17.171647
 20
-14.362792
 30
0.0
 10
17.638649
 20
-14.547676
 30
0.0
 10
18.078848
 20
-14.789682
 30
0.0
 10
18.485248
 20
-15.084999
 30
0.0
 10
18.851448
 20
-15.428774
 30
0.0
 10
19.171649
 20
-15.815898
 30
0.0
 10
19.440748
 20
-16.239994
 30
0.0
 10
19.654650
 20
-16.694484
 30
0.0
 10
19.809948
 20
-17.172174
 30
0.0
 10
19.904050
 20
-17.665696
 30
0.0
 10
19.935548
 20
-18.166979
 30
0.0
 10
19.904050
 20
-18.668290
 30
0.0
 10
19.809948
 20
-19.161784
 30
0.0
 10
19.654650
 20
-19.639473
 30
0.0
 10
19.440748
 20
-20.093992
 30
0.0
 10
19.171649
 20
-20.518172
 30
0.0
 10
18.851448
 20
-20.905183
 30
0.0
 10
18.485248
 20
-21.249099
 30
0.0
 10
18.078848
 20
-21.544276
 30
0.0
 10
17.638649
 20
-21.786281
 30
0.0
 10
17.171647
 20
-21.971193
 30
0.0
 10
16.685048
 20
-22.096189
 30
0.0
 10
16.186748
 20
-22.159097
 30
0.0
 10
15.684449
 20
-22.159097
 30
0.0
  0
LWPOLYLINE
  5
1a9
100
AcDbEntity
  8
Layer_1
 62
7
100
AcDbPolyline
 90
51
 70
0
 10
3.684448
 20
-22.159097
 30
0.0
 10
3.186049
 20
-22.096189
 30
0.0
 10
2.699549
 20
-21.971193
 30
0.0
 10
2.232448
 20
-21.786281
 30
0.0
 10
1.792249
 20
-21.544276
 30
0.0
 10
1.385849
 20
-21.249099
 30
0.0
 10
1.019649
 20
-20.905183
 30
0.0
 10
0.699550
 20
-20.518172
 30
0.0
 10
0.430349
 20
-20.093992
 30
0.0
 10
0.216448
 20
-19.639473
 30
0.0
 10
0.061248
 20
-19.161784
 30
0.0
 10
-0.032851
 20
-18.668290
 30
0.0
 10
-0.064451
 20
-18.166979
 30
0.0
 10
-0.032851
 20
-17.665696
 30
0.0
 10
0.061248
 20
-17.172174
 30
0.0
 10
0.216448
 20
-16.694484
 30
0.0
 10
0.430349
 20
-16.239994
 30
0.0
 10
0.699550
 20
-15.815898
 30
0.0
 10
1.019649
 20
-15.428774
 30
0.0
 10
1.385849
 20
-15.084999
 30
0.0
 10
1.792249
 20
-14.789682
 30
0.0
 10
2.232448
 20
-14.547676
 30
0.0
 10
2.699549
 20
-14.362792
 30
0.0
 10
3.186049
 20
-14.237881
 30
0.0
 10
3.684448
 20
-14.174889
 30
0.0
 10
4.186750
 20
-14.174889
 30
0.0
 10
4.685050
 20
-14.237881
 30
0.0
 10
5.171649
 20
-14.362792
 30
0.0
 10
5.638648
 20
-14.547676
 30
0.0
 10
6.078849
 20
-14.789682
 30
0.0
 10
6.485249
 20
-15.084999
 30
0.0
 10
6.851450
 20
-15.428774
 30
0.0
 10
7.171648
 20
-15.815898
 30
0.0
 10
7.440749
 20
-16.239994
 30
0.0
 10
7.654648
 20
-16.694484
 30
0.0
 10
7.809950
 20
-17.172174
 30
0.0
 10
7.904048
 20
-17.665696
 30
0.0
 10
7.935550
 20
-18.166979
 30
0.0
 10
7.904048
 20
-18.668290
 30
0.0
 10
7.809950
 20
-19.161784
 30
0.0
 10
7.654648
 20
-19.639473
 30
0.0
 10
7.440749
 20
-20.093992
 30
0.0
 10
7.171648
 20
-20.518172
 30
0.0
 10
6.851450
 20
-20.905183
 30
0.0
 10
6.485249
 20
-21.249099
 30
0.0
 10
6.078849
 20
-21.544276
 30
0.0
 10
5.638648
 20
-21.786281
 30
0.0
 10
5.171649
 20
-21.971193
 30
0.0
 10
4.685050
 20
-22.096189
 30
0.0
 10
4.186750
 20
-22.159097
 30
0.0
 10
3.684448
 20
-22.159097
 30
0.0
  0
LWPOLYLINE
  5
1aa
100
AcDbEntity
  8
Layer_1
 62
7
100
AcDbPolyline
 90
51
 70
0
 10
-20.315551
 20
-22.159097
 30
0.0
 10
-20.813951
 20
-22.096189
 30
0.0
 10
-21.300451
 20
-21.971193
 30
0.0
 10
-21.767551
 20
-21.786281
 30
0.0
 10
-22.207751
 20
-21.544276
 30
0.0
 10
-22.614151
 20
-21.249099
 30
0.0
 10
-22.980252
 20
-20.905183
 30
0.0
 10
-23.300451
 20
-20.518172
 30
0.0
 10
-23.569651
 20
-20.093992
 30
0.0
 10
-23.783551
 20
-19.639473
 30
0.0
 10
-23.938751
 20
-19.161784
 30
0.0
 10
-24.032851
 20
-18.668290
 30
0.0
 10
-24.064451
 20
-18.166979
 30
0.0
 10
-24.032851
 20
-17.665696
 30
0.0
 10
-23.938751
 20
-17.172174
 30
0.0
 10
-23.783551
 20
-16.694484
 30
0.0
 10
-23.569651
 20
-16.239994
 30
0.0
 10
-23.300451
 20
-15.815898
 30
0.0
 10
-22.980252
 20
-15.428774
 30
0.0
 10
-22.614151
 20
-15.084999
 30
0.0
 10
-22.207751
 20
-14.789682
 30
0.0
 10
-21.767551
 20
-14.547676
 30
0.0
 10
-21.300451
 20
-14.362792
 30
0.0
 10
-20.813951
 20
-14.237881
 30
0.0
 10
-20.315551
 20
-14.174889
 30
0.0
 10
-19.813251
 20
-14.174889
 30
0.0
 10
-19.314951
 20
-14.237881
 30
0.0
 10
-18.828351
 20
-14.362792
 30
0.0
 10
-18.361351
 20
-14.547676
 30
0.0
 10
-17.921151
 20
-14.789682
 30
0.0
 10
-17.514751
 20
-15.084999
 30
0.0
 10
-17.148551
 20
-15.428774
 30
0.0
 10
-16.828351
 20
-15.815898
 30
0.0
 10
-16.559251
 20
-16.239994
 30
0.0
 10
-16.345351
 20
-16.694484
 30
0.0
 10
-16.190051
 20
-17.172174
 30
0.0
 10
-16.095951
 20
-17.665696
 30
0.0
 10
-16.064451
 20
-18.166979
 30
0.0
 10
-16.095951
 20
-18.668290
 30
0.0
 10
-16.190051
 20
-19.161784
 30
0.0
 10
-16.345351
 20
-19.639473
 30
0.0
 10
-16.559251
 20
-20.093992
 30
0.0
 10
-16.828351
 20
-20.518172
 30
0.0
 10
-17.148551
 20
-20.905183
 30
0.0
 10
-17.514751
 20
-21.249099
 30
0.0
 10
-17.921151
 20
-21.544276
 30
0.0
 10
-18.361351
 20
-21.786281
 30
0.0
 10
-18.828351
 20
-21.971193
 30
0.0
 10
-19.314951
 20
-22.096189
 30
0.0
 10
-19.813251
 20
-22.159097
 30
0.0
 10
-20.315551
 20
-22.159097
 30
0.0
  0
LWPOLYLINE
  5
1ab
100
AcDbEntity
  8
Layer_1
 62
7
100
AcDbPolyline
 90
51
 70
0
 10
-8.315551
 20
-22.159097
 30
0.0
 10
-8.813952
 20
-22.096189
 30
0.0
 10
-9.300450
 20
-21.971193
 30
0.0
 10
-9.767550
 20
-21.786281
 30
0.0
 10
-10.207752
 20
-21.544276
 30
0.0
 10
-10.614152
 20
-21.249099
 30
0.0
 10
-10.980352
 20
-20.905183
 30
0.0
 10
-11.300452
 20
-20.518172
 30
0.0
 10
-11.569652
 20
-20.093992
 30
0.0
 10
-11.783551
 20
-19.639473
 30
0.0
 10
-11.938751
 20
-19.161784
 30
0.0
 10
-12.032852
 20
-18.668290
 30
0.0
 10
-12.064452
 20
-18.166979
 30
0.0
 10
-12.032852
 20
-17.665696
 30
0.0
 10
-11.938751
 20
-17.172174
 30
0.0
 10
-11.783551
 20
-16.694484
 30
0.0
 10
-11.569652
 20
-16.239994
 30
0.0
 10
-11.300452
 20
-15.815898
 30
0.0
 10
-10.980352
 20
-15.428774
 30
0.0
 10
-10.614152
 20
-15.084999
 30
0.0
 10
-10.207752
 20
-14.789682
 30
0.0
 10
-9.767550
 20
-14.547676
 30
0.0
 10
-9.300450
 20
-14.362792
 30
0.0
 10
-8.813952
 20
-14.237881
 30
0.0
 10
-8.315551
 20
-14.174889
 30
0.0
 10
-7.813252
 20
-14.174889
 30
0.0
 10
-7.314952
 20
-14.237881
 30
0.0
 10
-6.828353
 20
-14.362792
 30
0.0
 10
-6.361351
 20
-14.547676
 30
0.0
 10
-5.921152
 20
-14.789682
 30
0.0
 10
-5.514752
 20
-15.084999
 30
0.0
 10
-5.148552
 20
-15.428774
 30
0.0
 10
-4.828351
 20
-15.815898
 30
0.0
 10
-4.559252
 20
-16.239994
 30
0.0
 10
-4.345350
 20
-16.694484
 30
0.0
 10
-4.190052
 20
-17.172174
 30
0.0
 10
-4.095950
 20
-17.665696
 30
0.0
 10
-4.064452
 20
-18.166979
 30
0.0
 10
-4.095950
 20
-18.668290
 30
0.0
 10
-4.190052
 20
-19.161784
 30
0.0
 10
-4.345350
 20
-19.639473
 30
0.0
 10
-4.559252
 20
-20.093992
 30
0.0
 10
-4.828351
 20
-20.518172
 30
0.0
 10
-5.148552
 20
-20.905183
 30
0.0
 10
-5.514752
 20
-21.249099
 30
0.0
 10
-5.921152
 20
-21.544276
 30
0.0
 10
-6.361351
 20
-21.786281
 30
0.0
 10
-6.828353
 20
-21.971193
 30
0.0
 10
-7.314952
 20
-22.096189
 30
0.0
 10
-7.813252
 20
-22.159097
 30
0.0
 10
-8.315551
 20
-22.159097
 30
0.0
  0
LWPOLYLINE
  5
1ac
100
AcDbEntity
  8
Layer_1
 62
7
100
AcDbPolyline
 90
51
 70
0
 10
3.684448
 20
-34.159073
 30
0.0
 10
3.186049
 20
-34.096194
 30
0.0
 10
2.699549
 20
-33.971197
 30
0.0
 10
2.232448
 20
-33.786285
 30
0.0
 10
1.792249
 20
-33.544280
 30
0.0
 10
1.385849
 20
-33.249075
 30
0.0
 10
1.019649
 20
-32.905188
 30
0.0
 10
0.699550
 20
-32.518176
 30
0.0
 10
0.430349
 20
-32.093996
 30
0.0
 10
0.216448
 20
-31.639477
 30
0.0
 10
0.061248
 20
-31.161788
 30
0.0
 10
-0.032851
 20
-30.668294
 30
0.0
 10
-0.064451
 20
-30.166983
 30
0.0
 10
-0.032851
 20
-29.665700
 30
0.0
 10
0.061248
 20
-29.172178
 30
0.0
 10
0.216448
 20
-28.694488
 30
0.0
 10
0.430349
 20
-28.239998
 30
0.0
 10
0.699550
 20
-27.815874
 30
0.0
 10
1.019649
 20
-27.428778
 30
0.0
 10
1.385849
 20
-27.084975
 30
0.0
 10
1.792249
 20
-26.789686
 30
0.0
 10
2.232448
 20
-26.547680
 30
0.0
 10
2.699549
 20
-26.362797
 30
0.0
 10
3.186049
 20
-26.237885
 30
0.0
 10
3.684448
 20
-26.174893
 30
0.0
 10
4.186750
 20
-26.174893
 30
0.0
 10
4.685050
 20
-26.237885
 30
0.0
 10
5.171649
 20
-26.362797
 30
0.0
 10
5.638648
 20
-26.547680
 30
0.0
 10
6.078849
 20
-26.789686
 30
0.0
 10
6.485249
 20
-27.084975
 30
0.0
 10
6.851450
 20
-27.428778
 30
0.0
 10
7.171648
 20
-27.815874
 30
0.0
 10
7.440749
 20
-28.239998
 30
0.0
 10
7.654648
 20
-28.694488
 30
0.0
 10
7.809950
 20
-29.172178
 30
0.0
 10
7.904048
 20
-29.665700
 30
0.0
 10
7.935550
 20
-30.166983
 30
0.0
 10
7.904048
 20
-30.668294
 30
0.0
 10
7.809950
 20
-31.161788
 30
0.0
 10
7.654648
 20
-31.639477
 30
0.0
 10
7.440749
 20
-32.093996
 30
0.0
 10
7.171648
 20
-32.518176
 30
0.0
 10
6.851450
 20
-32.905188
 30
0.0
 10
6.485249
 20
-33.249075
 30
0.0
 10
6.078849
 20
-33.544280
 30
0.0
 10
5.638648
 20
-33.786285
 30
0.0
 10
5.171649
 20
-33.971197
 30
0.0
 10
4.685050
 20
-34.096194
 30
0.0
 10
4.186750
 20
-34.159073
 30
0.0
 10
3.684448
 20
-34.159073
 30
0.0
  0
LWPOLYLINE
  5
1ad
100
AcDbEntity
  8
Layer_1
 62
7
100
AcDbPolyline
 90
51
 70
0
 10
-8.315551
 20
-34.159073
 30
0.0
 10
-8.813952
 20
-34.096194
 30
0.0
 10
-9.300450
 20
-33.971197
 30
0.0
 10
-9.767550
 20
-33.786285
 30
0.0
 10
-10.207752
 20
-33.544280
 30
0.0
 10
-10.614152
 20
-33.249075
 30
0.0
 10
-10.980352
 20
-32.905188
 30
0.0
 10
-11.300452
 20
-32.518176
 30
0.0
 10
-11.569652
 20
-32.093996
 30
0.0
 10
-11.783551
 20
-31.639477
 30
0.0
 10
-11.938751
 20
-31.161788
 30
0.0
 10
-12.032852
 20
-30.668294
 30
0.0
 10
-12.064452
 20
-30.166983
 30
0.0
 10
-12.032852
 20
-29.665700
 30
0.0
 10
-11.938751
 20
-29.172178
 30
0.0
 10
-11.783551
 20
-28.694488
 30
0.0
 10
-11.569652
 20
-28.239998
 30
0.0
 10
-11.300452
 20
-27.815874
 30
0.0
 10
-10.980352
 20
-27.428778
 30
0.0
 10
-10.614152
 20
-27.084975
 30
0.0
 10
-10.207752
 20
-26.789686
 30
0.0
 10
-9.767550
 20
-26.547680
 30
0.0
 10
-9.300450
 20
-26.362797
 30
0.0
 10
-8.813952
 20
-26.237885
 30
0.0
 10
-8.315551
 20
-26.174893
 30
0.0
 10
-7.813252
 20
-26.174893
 30
0.0
 10
-7.314952
 20
-26.237885
 30
0.0
 10
-6.828353
 20
-26.362797
 30
0.0
 10
-6.361351
 20
-26.547680
 30
0.0
 10
-5.921152
 20
-26.789686
 30
0.0
 10
-5.514752
 20
-27.084975
 30
0.0
 10
-5.148552
 20
-27.428778
 30
0.0
 10
-4.828351
 20
-27.815874
 30
0.0
 10
-4.559252
 20
-28.239998
 30
0.0
 10
-4.345350
 20
-28.694488
 30
0.0
 10
-4.190052
 20
-29.172178
 30
0.0
 10
-4.095950
 20
-29.665700
 30
0.0
 10
-4.064452
 20
-30.166983
 30
0.0
 10
-4.095950
 20
-30.668294
 30
0.0
 10
-4.190052
 20
-31.161788
 30
0.0
 10
-4.345350
 20
-31.639477
 30
0.0
 10
-4.559252
 20
-32.093996
 30
0.0
 10
-4.828351
 20
-32.518176
 30
0.0
 10
-5.148552
 20
-32.905188
 30
0.0
 10
-5.514752
 20
-33.249075
 30
0.0
 10
-5.921152
 20
-33.544280
 30
0.0
 10
-6.361351
 20
-33.786285
 30
0.0
 10
-6.828353
 20
-33.971197
 30
0.0
 10
-7.314952
 20
-34.096194
 30
0.0
 10
-7.813252
 20
-34.159073
 30
0.0
 10
-8.315551
 20
-34.159073
 30
0.0
  0
LWPOLYLINE
  5
1ae
100
AcDbEntity
  8
Layer_1
 62
7
100
AcDbPolyline
 90
51
 70
0
 10
-20.315551
 20
-34.159073
 30
0.0
 10
-20.813951
 20
-34.096194
 30
0.0
 10
-21.300451
 20
-33.971197
 30
0.0
 10
-21.767551
 20
-33.786285
 30
0.0
 10
-22.207751
 20
-33.544280
 30
0.0
 10
-22.614151
 20
-33.249075
 30
0.0
 10
-22.980252
 20
-32.905188
 30
0.0
 10
-23.300451
 20
-32.518176
 30
0.0
 10
-23.569651
 20
-32.093996
 30
0.0
 10
-23.783551
 20
-31.639477
 30
0.0
 10
-23.938751
 20
-31.161788
 30
0.0
 10
-24.032851
 20
-30.668294
 30
0.0
 10
-24.064451
 20
-30.166983
 30
0.0
 10
-24.032851
 20
-29.665700
 30
0.0
 10
-23.938751
 20
-29.172178
 30
0.0
 10
-23.783551
 20
-28.694488
 30
0.0
 10
-23.569651
 20
-28.239998
 30
0.0
 10
-23.300451
 20
-27.815874
 30
0.0
 10
-22.980252
 20
-27.428778
 30
0.0
 10
-22.614151
 20
-27.084975
 30
0.0
 10
-22.207751
 20
-26.789686
 30
0.0
 10
-21.767551
 20
-26.547680
 30
0.0
 10
-21.300451
 20
-26.362797
 30
0.0
 10
-20.813951
 20
-26.237885
 30
0.0
 10
-20.315551
 20
-26.174893
 30
0.0
 10
-19.813251
 20
-26.174893
 30
0.0
 10
-19.314951
 20
-26.237885
 30
0.0
 10
-18.828351
 20
-26.362797
 30
0.0
 10
-18.361351
 20
-26.547680
 30
0.0
 10
-17.921151
 20
-26.789686
 30
0.0
 10
-17.514751
 20
-27.084975
 30
0.0
 10
-17.148551
 20
-27.428778
 30
0.0
 10
-16.828351
 20
-27.815874
 30
0.0
 10
-16.559251
 20
-28.239998
 30
0.0
 10
-16.345351
 20
-28.694488
 30
0.0
 10
-16.190051
 20
-29.172178
 30
0.0
 10
-16.095951
 20
-29.665700
 30
0.0
 10
-16.064451
 20
-30.166983
 30
0.0
 10
-16.095951
 20
-30.668294
 30
0.0
 10
-16.190051
 20
-31.161788
 30
0.0
 10
-16.345351
 20
-31.639477
 30
0.0
 10
-16.559251
 20
-32.093996
 30
0.0
 10
-16.828351
 20
-32.518176
 30
0.0
 10
-17.148551
 20
-32.905188
 30
0.0
 10
-17.514751
 20
-33.249075
 30
0.0
 10
-17.921151
 20
-33.544280
 30
0.0
 10
-18.361351
 20
-33.786285
 30
0.0
 10
-18.828351
 20
-33.971197
 30
0.0
 10
-19.314951
 20
-34.096194
 30
0.0
 10
-19.813251
 20
-34.159073
 30
0.0
 10
-20.315551
 20
-34.159073
 30
0.0
  0
LWPOLYLINE
  5
1af
100
AcDbEntity
  8
Layer_1
 62
7
100
AcDbPolyline
 90
51
 70
0
 10
15.684449
 20
-34.159073
 30
0.0
 10
15.186048
 20
-34.096194
 30
0.0
 10
14.699547
 20
-33.971197
 30
0.0
 10
14.232450
 20
-33.786285
 30
0.0
 10
13.792248
 20
-33.544280
 30
0.0
 10
13.385848
 20
-33.249075
 30
0.0
 10
13.019648
 20
-32.905188
 30
0.0
 10
12.699548
 20
-32.518176
 30
0.0
 10
12.430348
 20
-32.093996
 30
0.0
 10
12.216449
 20
-31.639477
 30
0.0
 10
12.061249
 20
-31.161788
 30
0.0
 10
11.967148
 20
-30.668294
 30
0.0
 10
11.935547
 20
-30.166983
 30
0.0
 10
11.967148
 20
-29.665700
 30
0.0
 10
12.061249
 20
-29.172178
 30
0.0
 10
12.216449
 20
-28.694488
 30
0.0
 10
12.430348
 20
-28.239998
 30
0.0
 10
12.699548
 20
-27.815874
 30
0.0
 10
13.019648
 20
-27.428778
 30
0.0
 10
13.385848
 20
-27.084975
 30
0.0
 10
13.792248
 20
-26.789686
 30
0.0
 10
14.232450
 20
-26.547680
 30
0.0
 10
14.699547
 20
-26.362797
 30
0.0
 10
15.186048
 20
-26.237885
 30
0.0
 10
15.684449
 20
-26.174893
 30
0.0
 10
16.186748
 20
-26.174893
 30
0.0
 10
16.685048
 20
-26.237885
 30
0.0
 10
17.171647
 20
-26.362797
 30
0.0
 10
17.638649
 20
-26.547680
 30
0.0
 10
18.078848
 20
-26.789686
 30
0.0
 10
18.485248
 20
-27.084975
 30
0.0
 10
18.851448
 20
-27.428778
 30
0.0
 10
19.171649
 20
-27.815874
 30
0.0
 10
19.440748
 20
-28.239998
 30
0.0
 10
19.654650
 20
-28.694488
 30
0.0
 10
19.809948
 20
-29.172178
 30
0.0
 10
19.904050
 20
-29.665700
 30
0.0
 10
19.935548
 20
-30.166983
 30
0.0
 10
19.904050
 20
-30.668294
 30
0.0
 10
19.809948
 20
-31.161788
 30
0.0
 10
19.654650
 20
-31.639477
 30
0.0
 10
19.440748
 20
-32.093996
 30
0.0
 10
19.171649
 20
-32.518176
 30
0.0
 10
18.851448
 20
-32.905188
 30
0.0
 10
18.485248
 20
-33.249075
 30
0.0
 10
18.078848
 20
-33.544280
 30
0.0
 10
17.638649
 20
-33.786285
 30
0.0
 10
17.171647
 20
-33.971197
 30
0.0
 10
16.685048
 20
-34.096194
 30
0.0
 10
16.186748
 20
-34.159073
 30
0.0
 10
15.684449
 20
-34.159073
 30
0.0
  0
LWPOLYLINE
  5
1b0
100
AcDbEntity
  8
Layer_1
 62
7
100
AcDbPolyline
 90
51
 70
0
 10
27.684448
 20
-34.159073
 30
0.0
 10
27.186049
 20
-34.096194
 30
0.0
 10
26.699549
 20
-33.971197
 30
0.0
 10
26.232448
 20
-33.786285
 30
0.0
 10
25.792249
 20
-33.544280
 30
0.0
 10
25.385849
 20
-33.249075
 30
0.0
 10
25.019649
 20
-32.905188
 30
0.0
 10
24.699550
 20
-32.518176
 30
0.0
 10
24.430349
 20
-32.093996
 30
0.0
 10
24.216447
 20
-31.639477
 30
0.0
 10
24.061248
 20
-31.161788
 30
0.0
 10
23.967149
 20
-30.668294
 30
0.0
 10
23.935549
 20
-30.166983
 30
0.0
 10
23.967149
 20
-29.665700
 30
0.0
 10
24.061248
 20
-29.172178
 30
0.0
 10
24.216447
 20
-28.694488
 30
0.0
 10
24.430349
 20
-28.239998
 30
0.0
 10
24.699550
 20
-27.815874
 30
0.0
 10
25.019649
 20
-27.428778
 30
0.0
 10
25.385849
 20
-27.084975
 30
0.0
 10
25.792249
 20
-26.789686
 30
0.0
 10
26.232448
 20
-26.547680
 30
0.0
 10
26.699549
 20
-26.362797
 30
0.0
 10
27.186049
 20
-26.237885
 30
0.0
 10
27.684448
 20
-26.174893
 30
0.0
 10
28.186750
 20
-26.174893
 30
0.0
 10
28.685050
 20
-26.237885
 30
0.0
 10
29.171649
 20
-26.362797
 30
0.0
 10
29.638648
 20
-26.547680
 30
0.0
 10
30.078849
 20
-26.789686
 30
0.0
 10
30.485249
 20
-27.084975
 30
0.0
 10
30.851450
 20
-27.428778
 30
0.0
 10
31.171648
 20
-27.815874
 30
0.0
 10
31.440749
 20
-28.239998
 30
0.0
 10
31.654648
 20
-28.694488
 30
0.0
 10
31.809950
 20
-29.172178
 30
0.0
 10
31.904048
 20
-29.665700
 30
0.0
 10
31.935550
 20
-30.166983
 30
0.0
 10
31.904048
 20
-30.668294
 30
0.0
 10
31.809950
 20
-31.161788
 30
0.0
 10
31.654648
 20
-31.639477
 30
0.0
 10
31.440749
 20
-32.093996
 30
0.0
 10
31.171648
 20
-32.518176
 30
0.0
 10
30.851450
 20
-32.905188
 30
0.0
 10
30.485249
 20
-33.249075
 30
0.0
 10
30.078849
 20
-33.544280
 30
0.0
 10
29.638648
 20
-33.786285
 30
0.0
 10
29.171649
 20
-33.971197
 30
0.0
 10
28.685050
 20
-34.096194
 30
0.0
 10
28.186750
 20
-34.159073
 30
0.0
 10
27.684448
 20
-34.159073
 30
0.0
  0
LWPOLYLINE
  5
1b1
100
AcDbEntity
  8
Layer_1
 62
7
100
AcDbPolyline
 90
51
 70
0
 10
39.684449
 20
-34.159073
 30
0.0
 10
39.186048
 20
-34.096194
 30
0.0
 10
38.699547
 20
-33.971197
 30
0.0
 10
38.232450
 20
-33.786285
 30
0.0
 10
37.792248
 20
-33.544280
 30
0.0
 10
37.385848
 20
-33.249075
 30
0.0
 10
37.019648
 20
-32.905188
 30
0.0
 10
36.699548
 20
-32.518176
 30
0.0
 10
36.430348
 20
-32.093996
 30
0.0
 10
36.216449
 20
-31.639477
 30
0.0
 10
36.061249
 20
-31.161788
 30
0.0
 10
35.967148
 20
-30.668294
 30
0.0
 10
35.935547
 20
-30.166983
 30
0.0
 10
35.967148
 20
-29.665700
 30
0.0
 10
36.061249
 20
-29.172178
 30
0.0
 10
36.216449
 20
-28.694488
 30
0.0
 10
36.430348
 20
-28.239998
 30
0.0
 10
36.699548
 20
-27.815874
 30
0.0
 10
37.019648
 20
-27.428778
 30
0.0
 10
37.385848
 20
-27.084975
 30
0.0
 10
37.792248
 20
-26.789686
 30
0.0
 10
38.232450
 20
-26.547680
 30
0.0
 10
38.699547
 20
-26.362797
 30
0.0
 10
39.186048
 20
-26.237885
 30
0.0
 10
39.684449
 20
-26.174893
 30
0.0
 10
40.186748
 20
-26.174893
 30
0.0
 10
40.685048
 20
-26.237885
 30
0.0
 10
41.171647
 20
-26.362797
 30
0.0
 10
41.638649
 20
-26.547680
 30
0.0
 10
42.078848
 20
-26.789686
 30
0.0
 10
42.485248
 20
-27.084975
 30
0.0
 10
42.851448
 20
-27.428778
 30
0.0
 10
43.171649
 20
-27.815874
 30
0.0
 10
43.440748
 20
-28.239998
 30
0.0
 10
43.654650
 20
-28.694488
 30
0.0
 10
43.809948
 20
-29.172178
 30
0.0
 10
43.904050
 20
-29.665700
 30
0.0
 10
43.935548
 20
-30.166983
 30
0.0
 10
43.904050
 20
-30.668294
 30
0.0
 10
43.809948
 20
-31.161788
 30
0.0
 10
43.654650
 20
-31.639477
 30
0.0
 10
43.440748
 20
-32.093996
 30
0.0
 10
43.171649
 20
-32.518176
 30
0.0
 10
42.851448
 20
-32.905188
 30
0.0
 10
42.485248
 20
-33.249075
 30
0.0
 10
42.078848
 20
-33.544280
 30
0.0
 10
41.638649
 20
-33.786285
 30
0.0
 10
41.171647
 20
-33.971197
 30
0.0
 10
40.685048
 20
-34.096194
 30
0.0
 10
40.186748
 20
-34.159073
 30
0.0
 10
39.684449
 20
-34.159073
 30
0.0
  0
LWPOLYLINE
  5
1b2
100
AcDbEntity
  8
Layer_1
 62
7
100
AcDbPolyline
 90
51
 70
0
 10
-8.315551
 20
-46.159077
 30
0.0
 10
-8.813952
 20
-46.096085
 30
0.0
 10
-9.300450
 20
-45.971173
 30
0.0
 10
-9.767550
 20
-45.786290
 30
0.0
 10
-10.207752
 20
-45.544284
 30
0.0
 10
-10.614152
 20
-45.248995
 30
0.0
 10
-10.980352
 20
-44.905192
 30
0.0
 10
-11.300452
 20
-44.518096
 30
0.0
 10
-11.569652
 20
-44.093972
 30
0.0
 10
-11.783551
 20
-43.639482
 30
0.0
 10
-11.938751
 20
-43.161792
 30
0.0
 10
-12.032852
 20
-42.668298
 30
0.0
 10
-12.064452
 20
-42.166987
 30
0.0
 10
-12.032852
 20
-41.665676
 30
0.0
 10
-11.938751
 20
-41.172182
 30
0.0
 10
-11.783551
 20
-40.694493
 30
0.0
 10
-11.569652
 20
-40.239974
 30
0.0
 10
-11.300452
 20
-39.815878
 30
0.0
 10
-10.980352
 20
-39.428782
 30
0.0
 10
-10.614152
 20
-39.084979
 30
0.0
 10
-10.207752
 20
-38.789690
 30
0.0
 10
-9.767550
 20
-38.547685
 30
0.0
 10
-9.300450
 20
-38.362773
 30
0.0
 10
-8.813952
 20
-38.237889
 30
0.0
 10
-8.315551
 20
-38.174897
 30
0.0
 10
-7.813252
 20
-38.174897
 30
0.0
 10
-7.314952
 20
-38.237889
 30
0.0
 10
-6.828353
 20
-38.362773
 30
0.0
 10
-6.361351
 20
-38.547685
 30
0.0
 10
-5.921152
 20
-38.789690
 30
0.0
 10
-5.514752
 20
-39.084979
 30
0.0
 10
-5.148552
 20
-39.428782
 30
0.0
 10
-4.828351
 20
-39.815878
 30
0.0
 10
-4.559252
 20
-40.239974
 30
0.0
 10
-4.345350
 20
-40.694493
 30
0.0
 10
-4.190052
 20
-41.172182
 30
0.0
 10
-4.095950
 20
-41.665676
 30
0.0
 10
-4.064452
 20
-42.166987
 30
0.0
 10
-4.095950
 20
-42.668298
 30
0.0
 10
-4.190052
 20
-43.161792
 30
0.0
 10
-4.345350
 20
-43.639482
 30
0.0
 10
-4.559252
 20
-44.093972
 30
0.0
 10
-4.828351
 20
-44.518096
 30
0.0
 10
-5.148552
 20
-44.905192
 30
0.0
 10
-5.514752
 20
-45.248995
 30
0.0
 10
-5.921152
 20
-45.544284
 30
0.0
 10
-6.361351
 20
-45.786290
 30
0.0
 10
-6.828353
 20
-45.971173
 30
0.0
 10
-7.314952
 20
-46.096085
 30
0.0
 10
-7.813252
 20
-46.159077
 30
0.0
 10
-8.315551
 20
-46.159077
 30
0.0
  0
LWPOLYLINE
  5
1b3
100
AcDbEntity
  8
Layer_1
 62
7
100
AcDbPolyline
 90
51
 70
0
 10
-20.315551
 20
-46.159077
 30
0.0
 10
-20.813951
 20
-46.096085
 30
0.0
 10
-21.300451
 20
-45.971173
 30
0.0
 10
-21.767551
 20
-45.786290
 30
0.0
 10
-22.207751
 20
-45.544284
 30
0.0
 10
-22.614151
 20
-45.248995
 30
0.0
 10
-22.980252
 20
-44.905192
 30
0.0
 10
-23.300451
 20
-44.518096
 30
0.0
 10
-23.569651
 20
-44.093972
 30
0.0
 10
-23.783551
 20
-43.639482
 30
0.0
 10
-23.938751
 20
-43.161792
 30
0.0
 10
-24.032851
 20
-42.668298
 30
0.0
 10
-24.064451
 20
-42.166987
 30
0.0
 10
-24.032851
 20
-41.665676
 30
0.0
 10
-23.938751
 20
-41.172182
 30
0.0
 10
-23.783551
 20
-40.694493
 30
0.0
 10
-23.569651
 20
-40.239974
 30
0.0
 10
-23.300451
 20
-39.815878
 30
0.0
 10
-22.980252
 20
-39.428782
 30
0.0
 10
-22.614151
 20
-39.084979
 30
0.0
 10
-22.207751
 20
-38.789690
 30
0.0
 10
-21.767551
 20
-38.547685
 30
0.0
 10
-21.300451
 20
-38.362773
 30
0.0
 10
-20.813951
 20
-38.237889
 30
0.0
 10
-20.315551
 20
-38.174897
 30
0.0
 10
-19.813251
 20
-38.174897
 30
0.0
 10
-19.314951
 20
-38.237889
 30
0.0
 10
-18.828351
 20
-38.362773
 30
0.0
 10
-18.361351
 20
-38.547685
 30
0.0
 10
-17.921151
 20
-38.789690
 30
0.0
 10
-17.514751
 20
-39.084979
 30
0.0
 10
-17.148551
 20
-39.428782
 30
0.0
 10
-16.828351
 20
-39.815878
 30
0.0
 10
-16.559251
 20
-40.239974
 30
0.0
 10
-16.345351
 20
-40.694493
 30
0.0
 10
-16.190051
 20
-41.172182
 30
0.0
 10
-16.095951
 20
-41.665676
 30
0.0
 10
-16.064451
 20
-42.166987
 30
0.0
 10
-16.095951
 20
-42.668298
 30
0.0
 10
-16.190051
 20
-43.161792
 30
0.0
 10
-16.345351
 20
-43.639482
 30
0.0
 10
-16.559251
 20
-44.093972
 30
0.0
 10
-16.828351
 20
-44.518096
 30
0.0
 10
-17.148551
 20
-44.905192
 30
0.0
 10
-17.514751
 20
-45.248995
 30
0.0
 10
-17.921151
 20
-45.544284
 30
0.0
 10
-18.361351
 20
-45.786290
 30
0.0
 10
-18.828351
 20
-45.971173
 30
0.0
 10
-19.314951
 20
-46.096085
 30
0.0
 10
-19.813251
 20
-46.159077
 30
0.0
 10
-20.315551
 20
-46.159077
 30
0.0
  0
LWPOLYLINE
  5
1b4
100
AcDbEntity
  8
Layer_1
 62
7
100
AcDbPolyline
 90
51
 70
0
 10
3.684448
 20
-46.159077
 30
0.0
 10
3.186049
 20
-46.096085
 30
0.0
 10
2.699549
 20
-45.971173
 30
0.0
 10
2.232448
 20
-45.786290
 30
0.0
 10
1.792249
 20
-45.544284
 30
0.0
 10
1.385849
 20
-45.248995
 30
0.0
 10
1.019649
 20
-44.905192
 30
0.0
 10
0.699550
 20
-44.518096
 30
0.0
 10
0.430349
 20
-44.093972
 30
0.0
 10
0.216448
 20
-43.639482
 30
0.0
 10
0.061248
 20
-43.161792
 30
0.0
 10
-0.032851
 20
-42.668298
 30
0.0
 10
-0.064451
 20
-42.166987
 30
0.0
 10
-0.032851
 20
-41.665676
 30
0.0
 10
0.061248
 20
-41.172182
 30
0.0
 10
0.216448
 20
-40.694493
 30
0.0
 10
0.430349
 20
-40.239974
 30
0.0
 10
0.699550
 20
-39.815878
 30
0.0
 10
1.019649
 20
-39.428782
 30
0.0
 10
1.385849
 20
-39.084979
 30
0.0
 10
1.792249
 20
-38.789690
 30
0.0
 10
2.232448
 20
-38.547685
 30
0.0
 10
2.699549
 20
-38.362773
 30
0.0
 10
3.186049
 20
-38.237889
 30
0.0
 10
3.684448
 20
-38.174897
 30
0.0
 10
4.186750
 20
-38.174897
 30
0.0
 10
4.685050
 20
-38.237889
 30
0.0
 10
5.171649
 20
-38.362773
 30
0.0
 10
5.638648
 20
-38.547685
 30
0.0
 10
6.078849
 20
-38.789690
 30
0.0
 10
6.485249
 20
-39.084979
 30
0.0
 10
6.851450
 20
-39.428782
 30
0.0
 10
7.171648
 20
-39.815878
 30
0.0
 10
7.440749
 20
-40.239974
 30
0.0
 10
7.654648
 20
-40.694493
 30
0.0
 10
7.809950
 20
-41.172182
 30
0.0
 10
7.904048
 20
-41.665676
 30
0.0
 10
7.935550
 20
-42.166987
 30
0.0
 10
7.904048
 20
-42.668298
 30
0.0
 10
7.809950
 20
-43.161792
 30
0.0
 10
7.654648
 20
-43.639482
 30
0.0
 10
7.440749
 20
-44.093972
 30
0.0
 10
7.171648
 20
-44.518096
 30
0.0
 10
6.851450
 20
-44.905192
 30
0.0
 10
6.485249
 20
-45.248995
 30
0.0
 10
6.078849
 20
-45.544284
 30
0.0
 10
5.638648
 20
-45.786290
 30
0.0
 10
5.171649
 20
-45.971173
 30
0.0
 10
4.685050
 20
-46.096085
 30
0.0
 10
4.186750
 20
-46.159077
 30
0.0
 10
3.684448
 20
-46.159077
 30
0.0
  0
LWPOLYLINE
  5
1b5
100
AcDbEntity
  8
Layer_1
 62
7
100
AcDbPolyline
 90
51
 70
0
 10
15.684449
 20
-46.159077
 30
0.0
 10
15.186048
 20
-46.096085
 30
0.0
 10
14.699547
 20
-45.971173
 30
0.0
 10
14.232450
 20
-45.786290
 30
0.0
 10
13.792248
 20
-45.544284
 30
0.0
 10
13.385848
 20
-45.248995
 30
0.0
 10
13.019648
 20
-44.905192
 30
0.0
 10
12.699548
 20
-44.518096
 30
0.0
 10
12.430348
 20
-44.093972
 30
0.0
 10
12.216449
 20
-43.639482
 30
0.0
 10
12.061249
 20
-43.161792
 30
0.0
 10
11.967148
 20
-42.668298
 30
0.0
 10
11.935547
 20
-42.166987
 30
0.0
 10
11.967148
 20
-41.665676
 30
0.0
 10
12.061249
 20
-41.172182
 30
0.0
 10
12.216449
 20
-40.694493
 30
0.0
 10
12.430348
 20
-40.239974
 30
0.0
 10
12.699548
 20
-39.815878
 30
0.0
 10
13.019648
 20
-39.428782
 30
0.0
 10
13.385848
 20
-39.084979
 30
0.0
 10
13.792248
 20
-38.789690
 30
0.0
 10
14.232450
 20
-38.547685
 30
0.0
 10
14.699547
 20
-38.362773
 30
0.0
 10
15.186048
 20
-38.237889
 30
0.0
 10
15.684449
 20
-38.174897
 30
0.0
 10
16.186748
 20
-38.174897
 30
0.0
 10
16.685048
 20
-38.237889
 30
0.0
 10
17.171647
 20
-38.362773
 30
0.0
 10
17.638649
 20
-38.547685
 30
0.0
 10
18.078848
 20
-38.789690
 30
0.0
 10
18.485248
 20
-39.084979
 30
0.0
 10
18.851448
 20
-39.428782
 30
0.0
 10
19.171649
 20
-39.815878
 30
0.0
 10
19.440748
 20
-40.239974
 30
0.0
 10
19.654650
 20
-40.694493
 30
0.0
 10
19.809948
 20
-41.172182
 30
0.0
 10
19.904050
 20
-41.665676
 30
0.0
 10
19.935548
 20
-42.166987
 30
0.0
 10
19.904050
 20
-42.668298
 30
0.0
 10
19.809948
 20
-43.161792
 30
0.0
 10
19.654650
 20
-43.639482
 30
0.0
 10
19.440748
 20
-44.093972
 30
0.0
 10
19.171649
 20
-44.518096
 30
0.0
 10
18.851448
 20
-44.905192
 30
0.0
 10
18.485248
 20
-45.248995
 30
0.0
 10
18.078848
 20
-45.544284
 30
0.0
 10
17.638649
 20
-45.786290
 30
0.0
 10
17.171647
 20
-45.971173
 30
0.0
 10
16.685048
 20
-46.096085
 30
0.0
 10
16.186748
 20
-46.159077
 30
0.0
 10
15.684449
 20
-46.159077
 30
0.0
  0
LWPOLYLINE
  5
1b6
100
AcDbEntity
  8
Layer_1
 62
7
100
AcDbPolyline
 90
51
 70
0
 10
27.684448
 20
-46.159077
 30
0.0
 10
27.186049
 20
-46.096085
 30
0.0
 10
26.699549
 20
-45.971173
 30
0.0
 10
26.232448
 20
-45.786290
 30
0.0
 10
25.792249
 20
-45.544284
 30
0.0
 10
25.385849
 20
-45.248995
 30
0.0
 10
25.019649
 20
-44.905192
 30
0.0
 10
24.699550
 20
-44.518096
 30
0.0
 10
24.430349
 20
-44.093972
 30
0.0
 10
24.216447
 20
-43.639482
 30
0.0
 10
24.061248
 20
-43.161792
 30
0.0
 10
23.967149
 20
-42.668298
 30
0.0
 10
23.935549
 20
-42.166987
 30
0.0
 10
23.967149
 20
-41.665676
 30
0.0
 10
24.061248
 20
-41.172182
 30
0.0
 10
24.216447
 20
-40.694493
 30
0.0
 10
24.430349
 20
-40.239974
 30
0.0
 10
24.699550
 20
-39.815878
 30
0.0
 10
25.019649
 20
-39.428782
 30
0.0
 10
25.385849
 20
-39.084979
 30
0.0
 10
25.792249
 20
-38.789690
 30
0.0
 10
26.232448
 20
-38.547685
 30
0.0
 10
26.699549
 20
-38.362773
 30
0.0
 10
27.186049
 20
-38.237889
 30
0.0
 10
27.684448
 20
-38.174897
 30
0.0
 10
28.186750
 20
-38.174897
 30
0.0
 10
28.685050
 20
-38.237889
 30
0.0
 10
29.171649
 20
-38.362773
 30
0.0
 10
29.638648
 20
-38.547685
 30
0.0
 10
30.078849
 20
-38.789690
 30
0.0
 10
30.485249
 20
-39.084979
 30
0.0
 10
30.851450
 20
-39.428782
 30
0.0
 10
31.171648
 20
-39.815878
 30
0.0
 10
31.440749
 20
-40.239974
 30
0.0
 10
31.654648
 20
-40.694493
 30
0.0
 10
31.809950
 20
-41.172182
 30
0.0
 10
31.904048
 20
-41.665676
 30
0.0
 10
31.935550
 20
-42.166987
 30
0.0
 10
31.904048
 20
-42.668298
 30
0.0
 10
31.809950
 20
-43.161792
 30
0.0
 10
31.654648
 20
-43.639482
 30
0.0
 10
31.440749
 20
-44.093972
 30
0.0
 10
31.171648
 20
-44.518096
 30
0.0
 10
30.851450
 20
-44.905192
 30
0.0
 10
30.485249
 20
-45.248995
 30
0.0
 10
30.078849
 20
-45.544284
 30
0.0
 10
29.638648
 20
-45.786290
 30
0.0
 10
29.171649
 20
-45.971173
 30
0.0
 10
28.685050
 20
-46.096085
 30
0.0
 10
28.186750
 20
-46.159077
 30
0.0
 10
27.684448
 20
-46.159077
 30
0.0
  0
LWPOLYLINE
  5
1b7
100
AcDbEntity
  8
Layer_1
 62
7
100
AcDbPolyline
 90
51
 70
0
 10
39.684449
 20
-46.159077
 30
0.0
 10
39.186048
 20
-46.096085
 30
0.0
 10
38.699547
 20
-45.971173
 30
0.0
 10
38.232450
 20
-45.786290
 30
0.0
 10
37.792248
 20
-45.544284
 30
0.0
 10
37.385848
 20
-45.248995
 30
0.0
 10
37.019648
 20
-44.905192
 30
0.0
 10
36.699548
 20
-44.518096
 30
0.0
 10
36.430348
 20
-44.093972
 30
0.0
 10
36.216449
 20
-43.639482
 30
0.0
 10
36.061249
 20
-43.161792
 30
0.0
 10
35.967148
 20
-42.668298
 30
0.0
 10
35.935547
 20
-42.166987
 30
0.0
 10
35.967148
 20
-41.665676
 30
0.0
 10
36.061249
 20
-41.172182
 30
0.0
 10
36.216449
 20
-40.694493
 30
0.0
 10
36.430348
 20
-40.239974
 30
0.0
 10
36.699548
 20
-39.815878
 30
0.0
 10
37.019648
 20
-39.428782
 30
0.0
 10
37.385848
 20
-39.084979
 30
0.0
 10
37.792248
 20
-38.789690
 30
0.0
 10
38.232450
 20
-38.547685
 30
0.0
 10
38.699547
 20
-38.362773
 30
0.0
 10
39.186048
 20
-38.237889
 30
0.0
 10
39.684449
 20
-38.174897
 30
0.0
 10
40.186748
 20
-38.174897
 30
0.0
 10
40.685048
 20
-38.237889
 30
0.0
 10
41.171647
 20
-38.362773
 30
0.0
 10
41.638649
 20
-38.547685
 30
0.0
 10
42.078848
 20
-38.789690
 30
0.0
 10
42.485248
 20
-39.084979
 30
0.0
 10
42.851448
 20
-39.428782
 30
0.0
 10
43.171649
 20
-39.815878
 30
0.0
 10
43.440748
 20
-40.239974
 30
0.0
 10
43.654650
 20
-40.694493
 30
0.0
 10
43.809948
 20
-41.172182
 30
0.0
 10
43.904050
 20
-41.665676
 30
0.0
 10
43.935548
 20
-42.166987
 30
0.0
 10
43.904050
 20
-42.668298
 30
0.0
 10
43.809948
 20
-43.161792
 30
0.0
 10
43.654650
 20
-43.639482
 30
0.0
 10
43.440748
 20
-44.093972
 30
0.0
 10
43.171649
 20
-44.518096
 30
0.0
 10
42.851448
 20
-44.905192
 30
0.0
 10
42.485248
 20
-45.248995
 30
0.0
 10
42.078848
 20
-45.544284
 30
0.0
 10
41.638649
 20
-45.786290
 30
0.0
 10
41.171647
 20
-45.971173
 30
0.0
 10
40.685048
 20
-46.096085
 30
0.0
 10
40.186748
 20
-46.159077
 30
0.0
 10
39.684449
 20
-46.159077
 30
0.0
  0
LWPOLYLINE
  5
1b8
100
AcDbEntity
  8
Layer_1
 62
7
100
AcDbPolyline
 90
9
 70
0
 10
-46.097761
 20
-7.066981
 30
0.0
 10
-49.197751
 20
-7.066981
 30
0.0
 10
-49.197751
 20
-14.066995
 30
0.0
 10
-70.297751
 20
-14.066995
 30
0.0
 10
-70.297751
 20
-7.066981
 30
0.0
 10
-73.397751
 20
-7.066981
 30
0.0
 10
-73.397751
 20
-17.166981
 30
0.0
 10
-46.097761
 20
-17.166981
 30
0.0
 10
-46.097761
 20
-7.066981
 30
0.0
  0
LWPOLYLINE
  5
1b9
100
AcDbEntity
  8
Layer_1
 62
7
100
AcDbPolyline
 90
54
 70
0
 10
-101.523952
 20
-26.989894
 30
0.0
 10
-100.307552
 20
-26.677587
 30
0.0
 10
-99.139951
 20
-26.215279
 30
0.0
 10
-98.039451
 20
-25.610279
 30
0.0
 10
-97.023552
 20
-24.872099
 30
0.0
 10
-96.108052
 20
-24.012478
 30
0.0
 10
-95.307551
 20
-23.044795
 30
0.0
 10
-94.634651
 20
-21.984486
 30
0.0
 10
-94.099950
 20
-20.848174
 30
0.0
 10
-93.711951
 20
-19.653895
 30
0.0
 10
-93.533251
 20
-18.716973
 30
0.0
 10
-98.397751
 20
-18.716973
 30
0.0
 10
-98.397751
 20
-15.616988
 30
0.0
 10
-93.533251
 20
-15.616988
 30
0.0
 10
-93.711951
 20
-14.680095
 30
0.0
 10
-94.099950
 20
-13.485787
 30
0.0
 10
-94.634651
 20
-12.349476
 30
0.0
 10
-95.307551
 20
-11.289195
 30
0.0
 10
-96.108052
 20
-10.321483
 30
0.0
 10
-97.023552
 20
-9.461891
 30
0.0
 10
-98.039451
 20
-8.723682
 30
0.0
 10
-99.139951
 20
-8.118682
 30
0.0
 10
-100.307552
 20
-7.656374
 30
0.0
 10
-101.523952
 20
-7.344095
 30
0.0
 10
-101.847752
 20
-7.303173
 30
0.0
 10
-101.847752
 20
-12.166991
 30
0.0
 10
-104.947751
 20
-12.166991
 30
0.0
 10
-104.947751
 20
-7.303173
 30
0.0
 10
-105.271550
 20
-7.344095
 30
0.0
 10
-106.487951
 20
-7.656374
 30
0.0
 10
-107.655552
 20
-8.118682
 30
0.0
 10
-108.756052
 20
-8.723682
 30
0.0
 10
-109.771950
 20
-9.461891
 30
0.0
 10
-110.687451
 20
-10.321483
 30
0.0
 10
-111.487952
 20
-11.289195
 30
0.0
 10
-112.160852
 20
-12.349476
 30
0.0
 10
-112.695553
 20
-13.485787
 30
0.0
 10
-113.083552
 20
-14.680095
 30
0.0
 10
-113.318852
 20
-15.913688
 30
0.0
 10
-113.397752
 20
-17.166981
 30
0.0
 10
-113.318852
 20
-18.420273
 30
0.0
 10
-113.083552
 20
-19.653895
 30
0.0
 10
-112.695553
 20
-20.848174
 30
0.0
 10
-112.160852
 20
-21.984486
 30
0.0
 10
-111.487952
 20
-23.044795
 30
0.0
 10
-110.687451
 20
-24.012478
 30
0.0
 10
-109.771950
 20
-24.872099
 30
0.0
 10
-108.756052
 20
-25.610279
 30
0.0
 10
-107.655552
 20
-26.215279
 30
0.0
 10
-106.487951
 20
-26.677587
 30
0.0
 10
-105.271550
 20
-26.989894
 30
0.0
 10
-104.025652
 20
-27.147290
 30
0.0
 10
-102.769851
 20
-27.147290
 30
0.0
 10
-101.523952
 20
-26.989894
 30
0.0
  0
LWPOLYLINE
  5
1ba
100
AcDbEntity
  8
Layer_1
 62
7
100
AcDbPolyline
 90
51
 70
0
 10
-103.498252
 20
-18.763794
 30
0.0
 10
-103.697552
 20
-18.738676
 30
0.0
 10
-103.892152
 20
-18.688695
 30
0.0
 10
-104.078953
 20
-18.614696
 30
0.0
 10
-104.255051
 20
-18.517894
 30
0.0
 10
-104.417650
 20
-18.399784
 30
0.0
 10
-104.564050
 20
-18.262285
 30
0.0
 10
-104.692151
 20
-18.107373
 30
0.0
 10
-104.799852
 20
-17.937786
 30
0.0
 10
-104.885352
 20
-17.755978
 30
0.0
 10
-104.947452
 20
-17.564886
 30
0.0
 10
-104.985151
 20
-17.367500
 30
0.0
 10
-104.997738
 20
-17.166981
 30
0.0
 10
-104.985165
 20
-16.966490
 30
0.0
 10
-104.947452
 20
-16.769076
 30
0.0
 10
-104.885352
 20
-16.577983
 30
0.0
 10
-104.799852
 20
-16.396175
 30
0.0
 10
-104.692151
 20
-16.226588
 30
0.0
 10
-104.564050
 20
-16.071676
 30
0.0
 10
-104.417650
 20
-15.934178
 30
0.0
 10
-104.255051
 20
-15.816096
 30
0.0
 10
-104.078953
 20
-15.719294
 30
0.0
 10
-103.892152
 20
-15.645295
 30
0.0
 10
-103.697552
 20
-15.595285
 30
0.0
 10
-103.498252
 20
-15.570167
 30
0.0
 10
-103.297251
 20
-15.570196
 30
0.0
 10
-103.097951
 20
-15.595313
 30
0.0
 10
-102.903350
 20
-15.645295
 30
0.0
 10
-102.716550
 20
-15.719294
 30
0.0
 10
-102.540452
 20
-15.816096
 30
0.0
 10
-102.377852
 20
-15.934178
 30
0.0
 10
-102.231452
 20
-16.071676
 30
0.0
 10
-102.103352
 20
-16.226588
 30
0.0
 10
-101.995650
 20
-16.396175
 30
0.0
 10
-101.910151
 20
-16.577983
 30
0.0
 10
-101.848051
 20
-16.769076
 30
0.0
 10
-101.810352
 20
-16.966490
 30
0.0
 10
-101.797736
 20
-17.166981
 30
0.0
 10
-101.810366
 20
-17.367500
 30
0.0
 10
-101.848051
 20
-17.564886
 30
0.0
 10
-101.910151
 20
-17.755978
 30
0.0
 10
-101.995650
 20
-17.937786
 30
0.0
 10
-102.103352
 20
-18.107373
 30
0.0
 10
-102.231452
 20
-18.262285
 30
0.0
 10
-102.377852
 20
-18.399784
 30
0.0
 10
-102.540452
 20
-18.517894
 30
0.0
 10
-102.716550
 20
-18.614696
 30
0.0
 10
-102.903350
 20
-18.688695
 30
0.0
 10
-103.097951
 20
-18.738676
 30
0.0
 10
-103.297251
 20
-18.763794
 30
0.0
 10
-103.498252
 20
-18.763794
 30
0.0
  0
LWPOLYLINE
  5
1bb
100
AcDbEntity
  8
Layer_1
 62
7
100
AcDbPolyline
 90
54
 70
0
 10
-131.523952
 20
-26.989894
 30
0.0
 10
-130.307551
 20
-26.677587
 30
0.0
 10
-129.139950
 20
-26.215279
 30
0.0
 10
-128.039453
 20
-25.610279
 30
0.0
 10
-127.023551
 20
-24.872099
 30
0.0
 10
-126.108051
 20
-24.012478
 30
0.0
 10
-125.307553
 20
-23.044795
 30
0.0
 10
-124.634650
 20
-21.984486
 30
0.0
 10
-124.099952
 20
-20.848174
 30
0.0
 10
-123.711950
 20
-19.653895
 30
0.0
 10
-123.533250
 20
-18.716973
 30
0.0
 10
-128.397751
 20
-18.716973
 30
0.0
 10
-128.397751
 20
-15.616988
 30
0.0
 10
-123.533250
 20
-15.616988
 30
0.0
 10
-123.711950
 20
-14.680095
 30
0.0
 10
-124.099952
 20
-13.485787
 30
0.0
 10
-124.634650
 20
-12.349476
 30
0.0
 10
-125.307553
 20
-11.289195
 30
0.0
 10
-126.108051
 20
-10.321483
 30
0.0
 10
-127.023551
 20
-9.461891
 30
0.0
 10
-128.039453
 20
-8.723682
 30
0.0
 10
-129.139950
 20
-8.118682
 30
0.0
 10
-130.307551
 20
-7.656374
 30
0.0
 10
-131.523952
 20
-7.344095
 30
0.0
 10
-131.847751
 20
-7.303173
 30
0.0
 10
-131.847751
 20
-12.166991
 30
0.0
 10
-134.947750
 20
-12.166991
 30
0.0
 10
-134.947750
 20
-7.303173
 30
0.0
 10
-135.271552
 20
-7.344095
 30
0.0
 10
-136.487953
 20
-7.656374
 30
0.0
 10
-137.655551
 20
-8.118682
 30
0.0
 10
-138.756051
 20
-8.723682
 30
0.0
 10
-139.771953
 20
-9.461891
 30
0.0
 10
-140.687450
 20
-10.321483
 30
0.0
 10
-141.487951
 20
-11.289195
 30
0.0
 10
-142.160851
 20
-12.349476
 30
0.0
 10
-142.695552
 20
-13.485787
 30
0.0
 10
-143.083551
 20
-14.680095
 30
0.0
 10
-143.318851
 20
-15.913688
 30
0.0
 10
-143.397752
 20
-17.166981
 30
0.0
 10
-143.318851
 20
-18.420273
 30
0.0
 10
-143.083551
 20
-19.653895
 30
0.0
 10
-142.695552
 20
-20.848174
 30
0.0
 10
-142.160851
 20
-21.984486
 30
0.0
 10
-141.487951
 20
-23.044795
 30
0.0
 10
-140.687450
 20
-24.012478
 30
0.0
 10
-139.771953
 20
-24.872099
 30
0.0
 10
-138.756051
 20
-25.610279
 30
0.0
 10
-137.655551
 20
-26.215279
 30
0.0
 10
-136.487953
 20
-26.677587
 30
0.0
 10
-135.271552
 20
-26.989894
 30
0.0
 10
-134.025651
 20
-27.147290
 30
0.0
 10
-132.769850
 20
-27.147290
 30
0.0
 10
-131.523952
 20
-26.989894
 30
0.0
  0
LWPOLYLINE
  5
1bc
100
AcDbEntity
  8
Layer_1
 62
7
100
AcDbPolyline
 90
7
 70
0
 10
-134.747751
 20
-19.505276
 30
0.0
 10
-136.097752
 20
-17.166981
 30
0.0
 10
-134.747751
 20
-14.828685
 30
0.0
 10
-132.047750
 20
-14.828685
 30
0.0
 10
-130.697752
 20
-17.166981
 30
0.0
 10
-132.047750
 20
-19.505276
 30
0.0
 10
-134.747751
 20
-19.505276
 30
0.0
  0
LWPOLYLINE
  5
1bd
100
AcDbEntity
  8
Layer_1
 62
7
100
AcDbPolyline
 90
51
 70
0
 10
-72.835651
 20
-35.113887
 30
0.0
 10
-72.470752
 20
-35.020189
 30
0.0
 10
-72.120452
 20
-34.881477
 30
0.0
 10
-71.790252
 20
-34.699980
 30
0.0
 10
-71.485451
 20
-34.478492
 30
0.0
 10
-71.210851
 20
-34.220597
 30
0.0
 10
-70.970751
 20
-33.930388
 30
0.0
 10
-70.768851
 20
-33.612295
 30
0.0
 10
-70.608451
 20
-33.271399
 30
0.0
 10
-70.492051
 20
-32.913090
 30
0.0
 10
-70.421451
 20
-32.542984
 30
0.0
 10
-70.397750
 20
-32.166979
 30
0.0
 10
-70.421452
 20
-31.790974
 30
0.0
 10
-70.492051
 20
-31.420896
 30
0.0
 10
-70.608451
 20
-31.062587
 30
0.0
 10
-70.768851
 20
-30.721691
 30
0.0
 10
-70.970751
 20
-30.403598
 30
0.0
 10
-71.210851
 20
-30.113389
 30
0.0
 10
-71.485451
 20
-29.855494
 30
0.0
 10
-71.790252
 20
-29.633978
 30
0.0
 10
-72.120452
 20
-29.452481
 30
0.0
 10
-72.470752
 20
-29.313797
 30
0.0
 10
-72.835651
 20
-29.220099
 30
0.0
 10
-73.209350
 20
-29.172883
 30
0.0
 10
-73.586151
 20
-29.172883
 30
0.0
 10
-73.959853
 20
-29.220099
 30
0.0
 10
-74.324752
 20
-29.313797
 30
0.0
 10
-74.675052
 20
-29.452481
 30
0.0
 10
-75.005252
 20
-29.633978
 30
0.0
 10
-75.310052
 20
-29.855494
 30
0.0
 10
-75.584651
 20
-30.113389
 30
0.0
 10
-75.824752
 20
-30.403598
 30
0.0
 10
-76.026651
 20
-30.721691
 30
0.0
 10
-76.187052
 20
-31.062587
 30
0.0
 10
-76.303451
 20
-31.420896
 30
0.0
 10
-76.374052
 20
-31.790974
 30
0.0
 10
-76.397759
 20
-32.166979
 30
0.0
 10
-76.374044
 20
-32.542984
 30
0.0
 10
-76.303451
 20
-32.913090
 30
0.0
 10
-76.187052
 20
-33.271399
 30
0.0
 10
-76.026651
 20
-33.612295
 30
0.0
 10
-75.824752
 20
-33.930388
 30
0.0
 10
-75.584651
 20
-34.220597
 30
0.0
 10
-75.310052
 20
-34.478492
 30
0.0
 10
-75.005252
 20
-34.699980
 30
0.0
 10
-74.675052
 20
-34.881477
 30
0.0
 10
-74.324752
 20
-35.020189
 30
0.0
 10
-73.959853
 20
-35.113887
 30
0.0
 10
-73.586151
 20
-35.161074
 30
0.0
 10
-73.209350
 20
-35.161074
 30
0.0
 10
-72.835651
 20
-35.113887
 30
0.0
  0
LWPOLYLINE
  5
1be
100
AcDbEntity
  8
Layer_1
 62
7
100
AcDbPolyline
 90
51
 70
0
 10
-73.484051
 20
-33.539284
 30
0.0
 10
-73.655352
 20
-33.517553
 30
0.0
 10
-73.822650
 20
-33.474684
 30
0.0
 10
-73.983150
 20
-33.411099
 30
0.0
 10
-74.134551
 20
-33.327872
 30
0.0
 10
-74.274152
 20
-33.226385
 30
0.0
 10
-74.400052
 20
-33.108190
 30
0.0
 10
-74.510152
 20
-32.975179
 30
0.0
 10
-74.602650
 20
-32.829383
 30
0.0
 10
-74.676152
 20
-32.673173
 30
0.0
 10
-74.729552
 20
-32.508891
 30
0.0
 10
-74.761951
 20
-32.339276
 30
0.0
 10
-74.772760
 20
-32.166979
 30
0.0
 10
-74.761942
 20
-31.994682
 30
0.0
 10
-74.729552
 20
-31.825095
 30
0.0
 10
-74.676152
 20
-31.660785
 30
0.0
 10
-74.602650
 20
-31.504575
 30
0.0
 10
-74.510152
 20
-31.358779
 30
0.0
 10
-74.400052
 20
-31.225796
 30
0.0
 10
-74.274152
 20
-31.107573
 30
0.0
 10
-74.134551
 20
-31.006086
 30
0.0
 10
-73.983150
 20
-30.922887
 30
0.0
 10
-73.822650
 20
-30.859274
 30
0.0
 10
-73.655352
 20
-30.816376
 30
0.0
 10
-73.484051
 20
-30.794645
 30
0.0
 10
-73.311453
 20
-30.794673
 30
0.0
 10
-73.140152
 20
-30.816404
 30
0.0
 10
-72.972851
 20
-30.859274
 30
0.0
 10
-72.812351
 20
-30.922887
 30
0.0
 10
-72.660950
 20
-31.006086
 30
0.0
 10
-72.521352
 20
-31.107573
 30
0.0
 10
-72.395453
 20
-31.225796
 30
0.0
 10
-72.285352
 20
-31.358779
 30
0.0
 10
-72.192851
 20
-31.504575
 30
0.0
 10
-72.119352
 20
-31.660785
 30
0.0
 10
-72.065952
 20
-31.825095
 30
0.0
 10
-72.033551
 20
-31.994682
 30
0.0
 10
-72.022741
 20
-32.166979
 30
0.0
 10
-72.033562
 20
-32.339276
 30
0.0
 10
-72.065952
 20
-32.508891
 30
0.0
 10
-72.119352
 20
-32.673173
 30
0.0
 10
-72.192851
 20
-32.829383
 30
0.0
 10
-72.285352
 20
-32.975179
 30
0.0
 10
-72.395453
 20
-33.108190
 30
0.0
 10
-72.521352
 20
-33.226385
 30
0.0
 10
-72.660950
 20
-33.327872
 30
0.0
 10
-72.812351
 20
-33.411099
 30
0.0
 10
-72.972851
 20
-33.474684
 30
0.0
 10
-73.140152
 20
-33.517582
 30
0.0
 10
-73.311453
 20
-33.539313
 30
0.0
 10
-73.484051
 20
-33.539284
 30
0.0
  0
LWPOLYLINE
  5
1bf
100
AcDbEntity
  8
Layer_1
 62
7
100
AcDbPolyline
 90
13
 70
0
 10
-51.397751
 20
-40.067000
 30
0.0
 10
-61.797751
 20
-40.067000
 30
0.0
 10
-61.797751
 20
-43.166985
 30
0.0
 10
-72.197750
 20
-43.166985
 30
0.0
 10
-72.197750
 20
-40.067000
 30
0.0
 10
-82.597752
 20
-40.067000
 30
0.0
 10
-82.597752
 20
-43.166985
 30
0.0
 10
-92.997751
 20
-43.166985
 30
0.0
 10
-92.997751
 20
-40.067000
 30
0.0
 10
-103.397750
 20
-40.067000
 30
0.0
 10
-103.397750
 20
-47.166977
 30
0.0
 10
-51.397751
 20
-47.166977
 30
0.0
 10
-51.397751
 20
-40.067000
 30
0.0
  0
ENDSEC
  0
SECTION
  2
OBJECTS
  0
DICTIONARY
  5
C
330
0
100
AcDbDictionary
  3
ACAD_GROUP
350
D
  3
ACAD_MLINESTYLE
350
17
  0
DICTIONARY
  5
D
330
C
100
AcDbDictionary
  0
DICTIONARY
  5
1A
330
C
100
AcDbDictionary
  0
DICTIONARY
  5
17
330
C
100
AcDbDictionary
  3
STANDARD
350
18
  0
DICTIONARY
  5
19
330
C
100
AcDbDictionary
  0
ENDSEC
  0
EOF
