  0
SECTION
  2
BLOCKS
  0
ENDSEC
  0
SECTION
  2
ENTITIES
  0
LINE
  8
0
 10
253.09
 20
194.489
 11
256.691
 21
196.569
  0
LINE
  8
0
 10
256.691
 20
196.569
 11
259.135
 21
199.933
  0
LINE
  8
0
 10
259.135
 20
199.933
 11
260
 21
204
  0
LINE
  8
0
 10
260
 20
204
 11
260
 21
304
  0
LINE
  8
0
 10
260
 20
304
 11
259.135
 21
308.067
  0
LINE
  8
0
 10
259.135
 20
308.067
 11
256.691
 21
311.431
  0
LINE
  8
0
 10
256.691
 20
311.431
 11
253.09
 21
313.511
  0
LINE
  8
0
 10
253.09
 20
313.511
 11
248.955
 21
313.945
  0
LINE
  8
0
 10
248.955
 20
313.945
 11
8.95471
 21
313.945
  0
LINE
  8
0
 10
8.95471
 20
313.945
 11
5
 21
312.66
  0
LINE
  8
0
 10
5
 20
312.66
 11
1.90982
 21
309.878
  0
LINE
  8
0
 10
1.90982
 20
309.878
 11
0.218521
 21
306.079
  0
LINE
  8
0
 10
0.218521
 20
306.079
 11
0.218521
 21
201.921
  0
LINE
  8
0
 10
0.218521
 20
201.921
 11
1.90982
 21
198.122
  0
LINE
  8
0
 10
1.90982
 20
198.122
 11
4.99998
 21
195.34
  0
LINE
  8
0
 10
4.99998
 20
195.34
 11
8.95471
 21
194.055
  0
LINE
  8
0
 10
8.95471
 20
194.055
 11
248.955
 21
194.055
  0
LINE
  8
0
 10
248.955
 20
194.055
 11
253.09
 21
194.489
  0
LINE
  8
0
 10
249.2
 20
302.614
 11
248.706
 21
303.06
  0
LINE
  8
0
 10
248.706
 20
303.06
 11
248.435
 21
303.667
  0
LINE
  8
0
 10
248.435
 20
303.667
 11
248.435
 21
304.333
  0
LINE
  8
0
 10
248.435
 20
304.333
 11
248.706
 21
304.94
  0
LINE
  8
0
 10
248.706
 20
304.94
 11
249.2
 21
305.386
  0
LINE
  8
0
 10
249.2
 20
305.386
 11
249.833
 21
305.591
  0
LINE
  8
0
 10
249.833
 20
305.591
 11
250.494
 21
305.522
  0
LINE
  8
0
 10
250.494
 20
305.522
 11
251.071
 21
305.189
  0
LINE
  8
0
 10
251.071
 20
305.189
 11
251.462
 21
304.651
  0
LINE
  8
0
 10
251.462
 20
304.651
 11
251.6
 21
304
  0
LINE
  8
0
 10
251.6
 20
304
 11
251.462
 21
303.349
  0
LINE
  8
0
 10
251.462
 20
303.349
 11
251.071
 21
302.811
  0
LINE
  8
0
 10
251.071
 20
302.811
 11
250.494
 21
302.478
  0
LINE
  8
0
 10
250.494
 20
302.478
 11
249.833
 21
302.409
  0
LINE
  8
0
 10
249.833
 20
302.409
 11
249.2
 21
302.614
  0
LINE
  8
0
 10
9.2
 20
302.614
 11
8.70557
 21
303.06
  0
LINE
  8
0
 10
8.70557
 20
303.06
 11
8.43495
 21
303.667
  0
LINE
  8
0
 10
8.43495
 20
303.667
 11
8.43495
 21
304.333
  0
LINE
  8
0
 10
8.43495
 20
304.333
 11
8.70557
 21
304.94
  0
LINE
  8
0
 10
8.70557
 20
304.94
 11
9.2
 21
305.386
  0
LINE
  8
0
 10
9.2
 20
305.386
 11
9.83275
 21
305.591
  0
LINE
  8
0
 10
9.83275
 20
305.591
 11
10.4944
 21
305.522
  0
LINE
  8
0
 10
10.4944
 20
305.522
 11
11.0706
 21
305.189
  0
LINE
  8
0
 10
11.0706
 20
305.189
 11
11.4617
 21
304.651
  0
LINE
  8
0
 10
11.4617
 20
304.651
 11
11.6
 21
304
  0
LINE
  8
0
 10
11.6
 20
304
 11
11.4617
 21
303.349
  0
LINE
  8
0
 10
11.4617
 20
303.349
 11
11.0706
 21
302.811
  0
LINE
  8
0
 10
11.0706
 20
302.811
 11
10.4944
 21
302.478
  0
LINE
  8
0
 10
10.4944
 20
302.478
 11
9.83275
 21
302.409
  0
LINE
  8
0
 10
9.83275
 20
302.409
 11
9.2
 21
302.614
  0
LINE
  8
0
 10
140.455
 20
302.5
 11
140.455
 21
305.5
  0
LINE
  8
0
 10
140.455
 20
305.5
 11
161.364
 21
305.5
  0
LINE
  8
0
 10
161.364
 20
305.5
 11
161.364
 21
302.5
  0
LINE
  8
0
 10
161.364
 20
302.5
 11
140.455
 21
302.5
  0
LINE
  8
0
 10
182.273
 20
302.5
 11
182.273
 21
305.5
  0
LINE
  8
0
 10
182.273
 20
305.5
 11
203.182
 21
305.5
  0
LINE
  8
0
 10
203.182
 20
305.5
 11
203.182
 21
302.5
  0
LINE
  8
0
 10
203.182
 20
302.5
 11
182.273
 21
302.5
  0
LINE
  8
0
 10
224.091
 20
302.5
 11
224.091
 21
305.5
  0
LINE
  8
0
 10
224.091
 20
305.5
 11
245
 21
305.5
  0
LINE
  8
0
 10
245
 20
305.5
 11
245
 21
302.5
  0
LINE
  8
0
 10
245
 20
302.5
 11
224.091
 21
302.5
  0
LINE
  8
0
 10
98.6364
 20
302.5
 11
98.6364
 21
305.5
  0
LINE
  8
0
 10
98.6364
 20
305.5
 11
119.545
 21
305.5
  0
LINE
  8
0
 10
119.545
 20
305.5
 11
119.545
 21
302.5
  0
LINE
  8
0
 10
119.545
 20
302.5
 11
98.6364
 21
302.5
  0
LINE
  8
0
 10
56.8182
 20
302.5
 11
56.8182
 21
305.5
  0
LINE
  8
0
 10
56.8182
 20
305.5
 11
77.7273
 21
305.5
  0
LINE
  8
0
 10
77.7273
 20
305.5
 11
77.7273
 21
302.5
  0
LINE
  8
0
 10
77.7273
 20
302.5
 11
56.8182
 21
302.5
  0
LINE
  8
0
 10
15
 20
302.5
 11
15
 21
305.5
  0
LINE
  8
0
 10
15
 20
305.5
 11
35.9091
 21
305.5
  0
LINE
  8
0
 10
35.9091
 20
305.5
 11
35.9091
 21
302.5
  0
LINE
  8
0
 10
35.9091
 20
302.5
 11
15
 21
302.5
  0
LINE
  8
0
 10
8.5
 20
286.143
 11
8.5
 21
299
  0
LINE
  8
0
 10
8.5
 20
299
 11
11.5
 21
299
  0
LINE
  8
0
 10
11.5
 20
299
 11
11.5
 21
286.143
  0
LINE
  8
0
 10
11.5
 20
286.143
 11
8.5
 21
286.143
  0
LINE
  8
0
 10
248.5
 20
286.143
 11
248.5
 21
299
  0
LINE
  8
0
 10
248.5
 20
299
 11
251.5
 21
299
  0
LINE
  8
0
 10
251.5
 20
299
 11
251.5
 21
286.143
  0
LINE
  8
0
 10
251.5
 20
286.143
 11
248.5
 21
286.143
  0
LINE
  8
0
 10
8.5
 20
260.429
 11
8.5
 21
273.286
  0
LINE
  8
0
 10
8.5
 20
273.286
 11
11.5
 21
273.286
  0
LINE
  8
0
 10
11.5
 20
273.286
 11
11.5
 21
260.429
  0
LINE
  8
0
 10
11.5
 20
260.429
 11
8.5
 21
260.429
  0
LINE
  8
0
 10
248.5
 20
260.429
 11
248.5
 21
273.286
  0
LINE
  8
0
 10
248.5
 20
273.286
 11
251.5
 21
273.286
  0
LINE
  8
0
 10
251.5
 20
273.286
 11
251.5
 21
260.429
  0
LINE
  8
0
 10
251.5
 20
260.429
 11
248.5
 21
260.429
  0
LINE
  8
0
 10
124.17
 20
242.742
 11
120.153
 21
246.359
  0
LINE
  8
0
 10
120.153
 20
246.359
 11
117.954
 21
251.297
  0
LINE
  8
0
 10
117.954
 20
251.297
 11
117.954
 21
256.703
  0
LINE
  8
0
 10
117.954
 20
256.703
 11
120.153
 21
261.641
  0
LINE
  8
0
 10
120.153
 20
261.641
 11
124.17
 21
265.258
  0
LINE
  8
0
 10
124.17
 20
265.258
 11
129.311
 21
266.929
  0
LINE
  8
0
 10
129.311
 20
266.929
 11
134.687
 21
266.364
  0
LINE
  8
0
 10
134.687
 20
266.364
 11
139.369
 21
263.661
  0
LINE
  8
0
 10
139.369
 20
263.661
 11
142.546
 21
259.288
  0
LINE
  8
0
 10
142.546
 20
259.288
 11
143.67
 21
254
  0
LINE
  8
0
 10
143.67
 20
254
 11
142.546
 21
248.712
  0
LINE
  8
0
 10
142.546
 20
248.712
 11
139.369
 21
244.339
  0
LINE
  8
0
 10
139.369
 20
244.339
 11
134.687
 21
241.636
  0
LINE
  8
0
 10
134.687
 20
241.636
 11
129.311
 21
241.071
  0
LINE
  8
0
 10
129.311
 20
241.071
 11
124.17
 21
242.742
  0
LINE
  8
0
 10
248.5
 20
234.714
 11
248.5
 21
247.571
  0
LINE
  8
0
 10
248.5
 20
247.571
 11
251.5
 21
247.571
  0
LINE
  8
0
 10
251.5
 20
247.571
 11
251.5
 21
234.714
  0
LINE
  8
0
 10
251.5
 20
234.714
 11
248.5
 21
234.714
  0
LINE
  8
0
 10
8.5
 20
234.714
 11
8.5
 21
247.571
  0
LINE
  8
0
 10
8.5
 20
247.571
 11
11.5
 21
247.571
  0
LINE
  8
0
 10
11.5
 20
247.571
 11
11.5
 21
234.714
  0
LINE
  8
0
 10
11.5
 20
234.714
 11
8.5
 21
234.714
  0
LINE
  8
0
 10
248.5
 20
209
 11
248.5
 21
221.857
  0
LINE
  8
0
 10
248.5
 20
221.857
 11
251.5
 21
221.857
  0
LINE
  8
0
 10
251.5
 20
221.857
 11
251.5
 21
209
  0
LINE
  8
0
 10
251.5
 20
209
 11
248.5
 21
209
  0
LINE
  8
0
 10
8.5
 20
209
 11
8.5
 21
221.857
  0
LINE
  8
0
 10
8.5
 20
221.857
 11
11.5
 21
221.857
  0
LINE
  8
0
 10
11.5
 20
221.857
 11
11.5
 21
209
  0
LINE
  8
0
 10
11.5
 20
209
 11
8.5
 21
209
  0
LINE
  8
0
 10
249.2
 20
202.614
 11
248.706
 21
203.06
  0
LINE
  8
0
 10
248.706
 20
203.06
 11
248.435
 21
203.667
  0
LINE
  8
0
 10
248.435
 20
203.667
 11
248.435
 21
204.333
  0
LINE
  8
0
 10
248.435
 20
204.333
 11
248.706
 21
204.94
  0
LINE
  8
0
 10
248.706
 20
204.94
 11
249.2
 21
205.386
  0
LINE
  8
0
 10
249.2
 20
205.386
 11
249.833
 21
205.591
  0
LINE
  8
0
 10
249.833
 20
205.591
 11
250.494
 21
205.522
  0
LINE
  8
0
 10
250.494
 20
205.522
 11
251.071
 21
205.189
  0
LINE
  8
0
 10
251.071
 20
205.189
 11
251.462
 21
204.651
  0
LINE
  8
0
 10
251.462
 20
204.651
 11
251.6
 21
204
  0
LINE
  8
0
 10
251.6
 20
204
 11
251.462
 21
203.349
  0
LINE
  8
0
 10
251.462
 20
203.349
 11
251.071
 21
202.811
  0
LINE
  8
0
 10
251.071
 20
202.811
 11
250.494
 21
202.478
  0
LINE
  8
0
 10
250.494
 20
202.478
 11
249.833
 21
202.409
  0
LINE
  8
0
 10
249.833
 20
202.409
 11
249.2
 21
202.614
  0
LINE
  8
0
 10
9.2
 20
202.614
 11
8.70557
 21
203.06
  0
LINE
  8
0
 10
8.70557
 20
203.06
 11
8.43495
 21
203.667
  0
LINE
  8
0
 10
8.43495
 20
203.667
 11
8.43495
 21
204.333
  0
LINE
  8
0
 10
8.43495
 20
204.333
 11
8.70557
 21
204.94
  0
LINE
  8
0
 10
8.70557
 20
204.94
 11
9.2
 21
205.386
  0
LINE
  8
0
 10
9.2
 20
205.386
 11
9.83275
 21
205.591
  0
LINE
  8
0
 10
9.83275
 20
205.591
 11
10.4944
 21
205.522
  0
LINE
  8
0
 10
10.4944
 20
205.522
 11
11.0706
 21
205.189
  0
LINE
  8
0
 10
11.0706
 20
205.189
 11
11.4617
 21
204.651
  0
LINE
  8
0
 10
11.4617
 20
204.651
 11
11.6
 21
204
  0
LINE
  8
0
 10
11.6
 20
204
 11
11.4617
 21
203.349
  0
LINE
  8
0
 10
11.4617
 20
203.349
 11
11.0706
 21
202.811
  0
LINE
  8
0
 10
11.0706
 20
202.811
 11
10.4944
 21
202.478
  0
LINE
  8
0
 10
10.4944
 20
202.478
 11
9.83275
 21
202.409
  0
LINE
  8
0
 10
9.83275
 20
202.409
 11
9.2
 21
202.614
  0
LINE
  8
0
 10
224.091
 20
202.5
 11
224.091
 21
205.5
  0
LINE
  8
0
 10
224.091
 20
205.5
 11
245
 21
205.5
  0
LINE
  8
0
 10
245
 20
205.5
 11
245
 21
202.5
  0
LINE
  8
0
 10
245
 20
202.5
 11
224.091
 21
202.5
  0
LINE
  8
0
 10
182.273
 20
202.5
 11
182.273
 21
205.5
  0
LINE
  8
0
 10
182.273
 20
205.5
 11
203.182
 21
205.5
  0
LINE
  8
0
 10
203.182
 20
205.5
 11
203.182
 21
202.5
  0
LINE
  8
0
 10
203.182
 20
202.5
 11
182.273
 21
202.5
  0
LINE
  8
0
 10
140.455
 20
202.5
 11
140.455
 21
205.5
  0
LINE
  8
0
 10
140.455
 20
205.5
 11
161.364
 21
205.5
  0
LINE
  8
0
 10
161.364
 20
205.5
 11
161.364
 21
202.5
  0
LINE
  8
0
 10
161.364
 20
202.5
 11
140.455
 21
202.5
  0
LINE
  8
0
 10
98.6364
 20
202.5
 11
98.6364
 21
205.5
  0
LINE
  8
0
 10
98.6364
 20
205.5
 11
119.545
 21
205.5
  0
LINE
  8
0
 10
119.545
 20
205.5
 11
119.545
 21
202.5
  0
LINE
  8
0
 10
119.545
 20
202.5
 11
98.6364
 21
202.5
  0
LINE
  8
0
 10
56.8182
 20
202.5
 11
56.8182
 21
205.5
  0
LINE
  8
0
 10
56.8182
 20
205.5
 11
77.7273
 21
205.5
  0
LINE
  8
0
 10
77.7273
 20
205.5
 11
77.7273
 21
202.5
  0
LINE
  8
0
 10
77.7273
 20
202.5
 11
56.8182
 21
202.5
  0
LINE
  8
0
 10
15
 20
202.5
 11
15
 21
205.5
  0
LINE
  8
0
 10
15
 20
205.5
 11
35.9091
 21
205.5
  0
LINE
  8
0
 10
35.9091
 20
205.5
 11
35.9091
 21
202.5
  0
LINE
  8
0
 10
35.9091
 20
202.5
 11
15
 21
202.5
  0
LINE
  8
0
 10
35.9091
 20
130
 11
56.8182
 21
130
  0
LINE
  8
0
 10
56.8182
 20
130
 11
56.8182
 21
127
  0
LINE
  8
0
 10
56.8182
 20
127
 11
77.7273
 21
127
  0
LINE
  8
0
 10
77.7273
 20
127
 11
77.7273
 21
130
  0
LINE
  8
0
 10
77.7273
 20
130
 11
98.6364
 21
130
  0
LINE
  8
0
 10
98.6364
 20
130
 11
98.6364
 21
127
  0
LINE
  8
0
 10
98.6364
 20
127
 11
119.545
 21
127
  0
LINE
  8
0
 10
119.545
 20
127
 11
119.545
 21
130
  0
LINE
  8
0
 10
119.545
 20
130
 11
140.455
 21
130
  0
LINE
  8
0
 10
140.455
 20
130
 11
140.455
 21
127
  0
LINE
  8
0
 10
140.455
 20
127
 11
161.364
 21
127
  0
LINE
  8
0
 10
161.364
 20
127
 11
161.364
 21
130
  0
LINE
  8
0
 10
161.364
 20
130
 11
182.273
 21
130
  0
LINE
  8
0
 10
182.273
 20
130
 11
182.273
 21
127
  0
LINE
  8
0
 10
182.273
 20
127
 11
203.182
 21
127
  0
LINE
  8
0
 10
203.182
 20
127
 11
203.182
 21
130
  0
LINE
  8
0
 10
203.182
 20
130
 11
224.091
 21
130
  0
LINE
  8
0
 10
224.091
 20
130
 11
224.091
 21
127
  0
LINE
  8
0
 10
224.091
 20
127
 11
245
 21
127
  0
LINE
  8
0
 10
245
 20
127
 11
245
 21
187
  0
LINE
  8
0
 10
245
 20
187
 11
224.091
 21
187
  0
LINE
  8
0
 10
224.091
 20
187
 11
224.091
 21
184
  0
LINE
  8
0
 10
224.091
 20
184
 11
203.182
 21
184
  0
LINE
  8
0
 10
203.182
 20
184
 11
203.182
 21
187
  0
LINE
  8
0
 10
203.182
 20
187
 11
182.273
 21
187
  0
LINE
  8
0
 10
182.273
 20
187
 11
182.273
 21
184
  0
LINE
  8
0
 10
182.273
 20
184
 11
161.364
 21
184
  0
LINE
  8
0
 10
161.364
 20
184
 11
161.364
 21
187
  0
LINE
  8
0
 10
161.364
 20
187
 11
140.455
 21
187
  0
LINE
  8
0
 10
140.455
 20
187
 11
140.455
 21
184
  0
LINE
  8
0
 10
140.455
 20
184
 11
119.545
 21
184
  0
LINE
  8
0
 10
119.545
 20
184
 11
119.545
 21
187
  0
LINE
  8
0
 10
119.545
 20
187
 11
98.6364
 21
187
  0
LINE
  8
0
 10
98.6364
 20
187
 11
98.6364
 21
184
  0
LINE
  8
0
 10
98.6364
 20
184
 11
77.7273
 21
184
  0
LINE
  8
0
 10
77.7273
 20
184
 11
77.7273
 21
187
  0
LINE
  8
0
 10
77.7273
 20
187
 11
56.8182
 21
187
  0
LINE
  8
0
 10
56.8182
 20
187
 11
56.8182
 21
184
  0
LINE
  8
0
 10
56.8182
 20
184
 11
35.9091
 21
184
  0
LINE
  8
0
 10
35.9091
 20
184
 11
35.9091
 21
187
  0
LINE
  8
0
 10
35.9091
 20
187
 11
15
 21
187
  0
LINE
  8
0
 10
15
 20
187
 11
15
 21
127
  0
LINE
  8
0
 10
15
 20
127
 11
35.9091
 21
127
  0
LINE
  8
0
 10
35.9091
 20
127
 11
35.9091
 21
130
  0
LINE
  8
0
 10
31.075
 20
150.202
 11
28.6492
 21
152.386
  0
LINE
  8
0
 10
28.6492
 20
152.386
 11
27.75
 21
154.406
  0
LINE
  8
0
 10
27.75
 20
154.406
 11
27.75
 21
159.594
  0
LINE
  8
0
 10
27.75
 20
159.594
 11
28.6492
 21
161.614
  0
LINE
  8
0
 10
28.6492
 20
161.614
 11
31.075
 21
163.798
  0
LINE
  8
0
 10
31.075
 20
163.798
 11
34.1795
 21
164.807
  0
LINE
  8
0
 10
34.1795
 20
164.807
 11
37.4258
 21
164.466
  0
LINE
  8
0
 10
37.4258
 20
164.466
 11
40.2527
 21
162.834
  0
LINE
  8
0
 10
40.2527
 20
162.834
 11
42.1713
 21
160.193
  0
LINE
  8
0
 10
42.1713
 20
160.193
 11
42.25
 21
159.823
  0
LINE
  8
0
 10
42.25
 20
159.823
 11
42.25
 21
154.177
  0
LINE
  8
0
 10
42.25
 20
154.177
 11
42.1713
 21
153.807
  0
LINE
  8
0
 10
42.1713
 20
153.807
 11
40.2527
 21
151.166
  0
LINE
  8
0
 10
40.2527
 20
151.166
 11
37.4258
 21
149.534
  0
LINE
  8
0
 10
37.4258
 20
149.534
 11
34.1795
 21
149.193
  0
LINE
  8
0
 10
34.1795
 20
149.193
 11
31.075
 21
150.202
  0
LINE
  8
0
 10
253.09
 20
0.489426
 11
256.691
 21
2.56854
  0
LINE
  8
0
 10
256.691
 20
2.56854
 11
259.135
 21
5.93263
  0
LINE
  8
0
 10
259.135
 20
5.93263
 11
260
 21
10
  0
LINE
  8
0
 10
260
 20
10
 11
260
 21
110
  0
LINE
  8
0
 10
260
 20
110
 11
259.135
 21
114.067
  0
LINE
  8
0
 10
259.135
 20
114.067
 11
256.691
 21
117.431
  0
LINE
  8
0
 10
256.691
 20
117.431
 11
253.09
 21
119.511
  0
LINE
  8
0
 10
253.09
 20
119.511
 11
248.955
 21
119.945
  0
LINE
  8
0
 10
248.955
 20
119.945
 11
8.95471
 21
119.945
  0
LINE
  8
0
 10
8.95471
 20
119.945
 11
5
 21
118.66
  0
LINE
  8
0
 10
5
 20
118.66
 11
1.90982
 21
115.878
  0
LINE
  8
0
 10
1.90982
 20
115.878
 11
0.218521
 21
112.079
  0
LINE
  8
0
 10
0.218521
 20
112.079
 11
0.218521
 21
7.92087
  0
LINE
  8
0
 10
0.218521
 20
7.92087
 11
1.90982
 21
4.12215
  0
LINE
  8
0
 10
1.90982
 20
4.12215
 11
4.99998
 21
1.33974
  0
LINE
  8
0
 10
4.99998
 20
1.33974
 11
8.95471
 21
0.0547791
  0
LINE
  8
0
 10
8.95471
 20
0.0547791
 11
248.955
 21
0.0547791
  0
LINE
  8
0
 10
248.955
 20
0.0547791
 11
253.09
 21
0.489426
  0
LINE
  8
0
 10
9.2
 20
108.614
 11
8.70557
 21
109.06
  0
LINE
  8
0
 10
8.70557
 20
109.06
 11
8.43495
 21
109.667
  0
LINE
  8
0
 10
8.43495
 20
109.667
 11
8.43495
 21
110.333
  0
LINE
  8
0
 10
8.43495
 20
110.333
 11
8.70557
 21
110.94
  0
LINE
  8
0
 10
8.70557
 20
110.94
 11
9.2
 21
111.386
  0
LINE
  8
0
 10
9.2
 20
111.386
 11
9.83275
 21
111.591
  0
LINE
  8
0
 10
9.83275
 20
111.591
 11
10.4944
 21
111.522
  0
LINE
  8
0
 10
10.4944
 20
111.522
 11
11.0706
 21
111.189
  0
LINE
  8
0
 10
11.0706
 20
111.189
 11
11.4617
 21
110.651
  0
LINE
  8
0
 10
11.4617
 20
110.651
 11
11.6
 21
110
  0
LINE
  8
0
 10
11.6
 20
110
 11
11.4617
 21
109.349
  0
LINE
  8
0
 10
11.4617
 20
109.349
 11
11.0706
 21
108.811
  0
LINE
  8
0
 10
11.0706
 20
108.811
 11
10.4944
 21
108.478
  0
LINE
  8
0
 10
10.4944
 20
108.478
 11
9.83275
 21
108.409
  0
LINE
  8
0
 10
9.83275
 20
108.409
 11
9.2
 21
108.614
  0
LINE
  8
0
 10
249.2
 20
108.614
 11
248.706
 21
109.06
  0
LINE
  8
0
 10
248.706
 20
109.06
 11
248.435
 21
109.667
  0
LINE
  8
0
 10
248.435
 20
109.667
 11
248.435
 21
110.333
  0
LINE
  8
0
 10
248.435
 20
110.333
 11
248.706
 21
110.94
  0
LINE
  8
0
 10
248.706
 20
110.94
 11
249.2
 21
111.386
  0
LINE
  8
0
 10
249.2
 20
111.386
 11
249.833
 21
111.591
  0
LINE
  8
0
 10
249.833
 20
111.591
 11
250.494
 21
111.522
  0
LINE
  8
0
 10
250.494
 20
111.522
 11
251.071
 21
111.189
  0
LINE
  8
0
 10
251.071
 20
111.189
 11
251.462
 21
110.651
  0
LINE
  8
0
 10
251.462
 20
110.651
 11
251.6
 21
110
  0
LINE
  8
0
 10
251.6
 20
110
 11
251.462
 21
109.349
  0
LINE
  8
0
 10
251.462
 20
109.349
 11
251.071
 21
108.811
  0
LINE
  8
0
 10
251.071
 20
108.811
 11
250.494
 21
108.478
  0
LINE
  8
0
 10
250.494
 20
108.478
 11
249.833
 21
108.409
  0
LINE
  8
0
 10
249.833
 20
108.409
 11
249.2
 21
108.614
  0
LINE
  8
0
 10
15
 20
108.5
 11
15
 21
111.5
  0
LINE
  8
0
 10
15
 20
111.5
 11
35.9091
 21
111.5
  0
LINE
  8
0
 10
35.9091
 20
111.5
 11
35.9091
 21
108.5
  0
LINE
  8
0
 10
35.9091
 20
108.5
 11
15
 21
108.5
  0
LINE
  8
0
 10
56.8182
 20
108.5
 11
56.8182
 21
111.5
  0
LINE
  8
0
 10
56.8182
 20
111.5
 11
77.7273
 21
111.5
  0
LINE
  8
0
 10
77.7273
 20
111.5
 11
77.7273
 21
108.5
  0
LINE
  8
0
 10
77.7273
 20
108.5
 11
56.8182
 21
108.5
  0
LINE
  8
0
 10
98.6364
 20
108.5
 11
98.6364
 21
111.5
  0
LINE
  8
0
 10
98.6364
 20
111.5
 11
119.545
 21
111.5
  0
LINE
  8
0
 10
119.545
 20
111.5
 11
119.545
 21
108.5
  0
LINE
  8
0
 10
119.545
 20
108.5
 11
98.6364
 21
108.5
  0
LINE
  8
0
 10
140.455
 20
108.5
 11
140.455
 21
111.5
  0
LINE
  8
0
 10
140.455
 20
111.5
 11
161.364
 21
111.5
  0
LINE
  8
0
 10
161.364
 20
111.5
 11
161.364
 21
108.5
  0
LINE
  8
0
 10
161.364
 20
108.5
 11
140.455
 21
108.5
  0
LINE
  8
0
 10
182.273
 20
108.5
 11
182.273
 21
111.5
  0
LINE
  8
0
 10
182.273
 20
111.5
 11
203.182
 21
111.5
  0
LINE
  8
0
 10
203.182
 20
111.5
 11
203.182
 21
108.5
  0
LINE
  8
0
 10
203.182
 20
108.5
 11
182.273
 21
108.5
  0
LINE
  8
0
 10
224.091
 20
108.5
 11
224.091
 21
111.5
  0
LINE
  8
0
 10
224.091
 20
111.5
 11
245
 21
111.5
  0
LINE
  8
0
 10
245
 20
111.5
 11
245
 21
108.5
  0
LINE
  8
0
 10
245
 20
108.5
 11
224.091
 21
108.5
  0
LINE
  8
0
 10
248.5
 20
92.1429
 11
248.5
 21
105
  0
LINE
  8
0
 10
248.5
 20
105
 11
251.5
 21
105
  0
LINE
  8
0
 10
251.5
 20
105
 11
251.5
 21
92.1429
  0
LINE
  8
0
 10
251.5
 20
92.1429
 11
248.5
 21
92.1429
  0
LINE
  8
0
 10
8.5
 20
92.1429
 11
8.5
 21
105
  0
LINE
  8
0
 10
8.5
 20
105
 11
11.5
 21
105
  0
LINE
  8
0
 10
11.5
 20
105
 11
11.5
 21
92.1429
  0
LINE
  8
0
 10
11.5
 20
92.1429
 11
8.5
 21
92.1429
  0
LINE
  8
0
 10
154.046
 20
15.0656
 11
152.907
 21
15.5729
  0
LINE
  8
0
 10
152.907
 20
15.5729
 11
152.072
 21
16.5
  0
LINE
  8
0
 10
152.072
 20
16.5
 11
151.686
 21
17.6864
  0
LINE
  8
0
 10
151.686
 20
17.6864
 11
151.686
 21
96.6864
  0
LINE
  8
0
 10
151.686
 20
96.6864
 11
151.817
 21
97.927
  0
LINE
  8
0
 10
151.817
 20
97.927
 11
152.441
 21
99.0074
  0
LINE
  8
0
 10
152.441
 20
99.0074
 11
153.45
 21
99.7406
  0
LINE
  8
0
 10
153.45
 20
99.7406
 11
154.67
 21
100
  0
LINE
  8
0
 10
154.67
 20
100
 11
204.67
 21
100
  0
LINE
  8
0
 10
204.67
 20
100
 11
205.89
 21
99.7406
  0
LINE
  8
0
 10
205.89
 20
99.7406
 11
206.899
 21
99.0074
  0
LINE
  8
0
 10
206.899
 20
99.0074
 11
207.523
 21
97.927
  0
LINE
  8
0
 10
207.523
 20
97.927
 11
207.654
 21
96.6864
  0
LINE
  8
0
 10
207.654
 20
96.6864
 11
207.654
 21
17.6864
  0
LINE
  8
0
 10
207.654
 20
17.6864
 11
207.268
 21
16.5
  0
LINE
  8
0
 10
207.268
 20
16.5
 11
206.433
 21
15.5729
  0
LINE
  8
0
 10
206.433
 20
15.5729
 11
205.294
 21
15.0656
  0
LINE
  8
0
 10
205.294
 20
15.0656
 11
154.046
 21
15.0656
  0
LINE
  8
0
 10
204.978
 20
75.3876
 11
205.361
 21
75.8125
  0
LINE
  8
0
 10
205.361
 20
75.8125
 11
205.537
 21
76.3563
  0
LINE
  8
0
 10
205.537
 20
76.3563
 11
205.478
 21
76.9249
  0
LINE
  8
0
 10
205.478
 20
76.9249
 11
205.192
 21
77.42
  0
LINE
  8
0
 10
205.192
 20
77.42
 11
204.729
 21
77.7561
  0
LINE
  8
0
 10
204.729
 20
77.7561
 11
204.17
 21
77.875
  0
LINE
  8
0
 10
204.17
 20
77.875
 11
203.611
 21
77.7561
  0
LINE
  8
0
 10
203.611
 20
77.7561
 11
203.148
 21
77.42
  0
LINE
  8
0
 10
203.148
 20
77.42
 11
202.862
 21
76.9249
  0
LINE
  8
0
 10
202.862
 20
76.9249
 11
202.803
 21
76.3563
  0
LINE
  8
0
 10
202.803
 20
76.3563
 11
202.979
 21
75.8125
  0
LINE
  8
0
 10
202.979
 20
75.8125
 11
203.362
 21
75.3876
  0
LINE
  8
0
 10
203.362
 20
75.3876
 11
203.884
 21
75.155
  0
LINE
  8
0
 10
203.884
 20
75.155
 11
204.456
 21
75.155
  0
LINE
  8
0
 10
204.456
 20
75.155
 11
204.978
 21
75.3876
  0
LINE
  8
0
 10
155.978
 20
75.3876
 11
156.361
 21
75.8125
  0
LINE
  8
0
 10
156.361
 20
75.8125
 11
156.537
 21
76.3563
  0
LINE
  8
0
 10
156.537
 20
76.3563
 11
156.478
 21
76.9249
  0
LINE
  8
0
 10
156.478
 20
76.9249
 11
156.192
 21
77.42
  0
LINE
  8
0
 10
156.192
 20
77.42
 11
155.729
 21
77.7561
  0
LINE
  8
0
 10
155.729
 20
77.7561
 11
155.17
 21
77.875
  0
LINE
  8
0
 10
155.17
 20
77.875
 11
154.611
 21
77.7561
  0
LINE
  8
0
 10
154.611
 20
77.7561
 11
154.148
 21
77.42
  0
LINE
  8
0
 10
154.148
 20
77.42
 11
153.862
 21
76.9249
  0
LINE
  8
0
 10
153.862
 20
76.9249
 11
153.803
 21
76.3563
  0
LINE
  8
0
 10
153.803
 20
76.3563
 11
153.979
 21
75.8125
  0
LINE
  8
0
 10
153.979
 20
75.8125
 11
154.362
 21
75.3876
  0
LINE
  8
0
 10
154.362
 20
75.3876
 11
154.884
 21
75.155
  0
LINE
  8
0
 10
154.884
 20
75.155
 11
155.456
 21
75.155
  0
LINE
  8
0
 10
155.456
 20
75.155
 11
155.978
 21
75.3876
  0
LINE
  8
0
 10
155.978
 20
17.3876
 11
156.361
 21
17.8125
  0
LINE
  8
0
 10
156.361
 20
17.8125
 11
156.537
 21
18.3563
  0
LINE
  8
0
 10
156.537
 20
18.3563
 11
156.478
 21
18.9249
  0
LINE
  8
0
 10
156.478
 20
18.9249
 11
156.192
 21
19.42
  0
LINE
  8
0
 10
156.192
 20
19.42
 11
155.729
 21
19.7561
  0
LINE
  8
0
 10
155.729
 20
19.7561
 11
155.17
 21
19.875
  0
LINE
  8
0
 10
155.17
 20
19.875
 11
154.611
 21
19.7561
  0
LINE
  8
0
 10
154.611
 20
19.7561
 11
154.148
 21
19.42
  0
LINE
  8
0
 10
154.148
 20
19.42
 11
153.862
 21
18.9249
  0
LINE
  8
0
 10
153.862
 20
18.9249
 11
153.803
 21
18.3563
  0
LINE
  8
0
 10
153.803
 20
18.3563
 11
153.979
 21
17.8125
  0
LINE
  8
0
 10
153.979
 20
17.8125
 11
154.362
 21
17.3876
  0
LINE
  8
0
 10
154.362
 20
17.3876
 11
154.884
 21
17.155
  0
LINE
  8
0
 10
154.884
 20
17.155
 11
155.456
 21
17.155
  0
LINE
  8
0
 10
155.456
 20
17.155
 11
155.978
 21
17.3876
  0
LINE
  8
0
 10
204.978
 20
17.3876
 11
205.361
 21
17.8125
  0
LINE
  8
0
 10
205.361
 20
17.8125
 11
205.537
 21
18.3563
  0
LINE
  8
0
 10
205.537
 20
18.3563
 11
205.478
 21
18.9249
  0
LINE
  8
0
 10
205.478
 20
18.9249
 11
205.192
 21
19.42
  0
LINE
  8
0
 10
205.192
 20
19.42
 11
204.729
 21
19.7561
  0
LINE
  8
0
 10
204.729
 20
19.7561
 11
204.17
 21
19.875
  0
LINE
  8
0
 10
204.17
 20
19.875
 11
203.611
 21
19.7561
  0
LINE
  8
0
 10
203.611
 20
19.7561
 11
203.148
 21
19.42
  0
LINE
  8
0
 10
203.148
 20
19.42
 11
202.862
 21
18.9249
  0
LINE
  8
0
 10
202.862
 20
18.9249
 11
202.803
 21
18.3563
  0
LINE
  8
0
 10
202.803
 20
18.3563
 11
202.979
 21
17.8125
  0
LINE
  8
0
 10
202.979
 20
17.8125
 11
203.362
 21
17.3876
  0
LINE
  8
0
 10
203.362
 20
17.3876
 11
203.884
 21
17.155
  0
LINE
  8
0
 10
203.884
 20
17.155
 11
204.456
 21
17.155
  0
LINE
  8
0
 10
204.456
 20
17.155
 11
204.978
 21
17.3876
  0
LINE
  8
0
 10
90.67
 20
15
 11
90.67
 21
91
  0
LINE
  8
0
 10
90.67
 20
91
 11
141.67
 21
91
  0
LINE
  8
0
 10
141.67
 20
91
 11
141.67
 21
15
  0
LINE
  8
0
 10
141.67
 20
15
 11
90.67
 21
15
  0
LINE
  8
0
 10
140.61
 20
43.7056
 11
141.056
 21
44.2
  0
LINE
  8
0
 10
141.056
 20
44.2
 11
141.261
 21
44.8327
  0
LINE
  8
0
 10
141.261
 20
44.8327
 11
141.192
 21
45.4944
  0
LINE
  8
0
 10
141.192
 20
45.4944
 11
140.859
 21
46.0706
  0
LINE
  8
0
 10
140.859
 20
46.0706
 11
140.321
 21
46.4617
  0
LINE
  8
0
 10
140.321
 20
46.4617
 11
139.67
 21
46.6
  0
LINE
  8
0
 10
139.67
 20
46.6
 11
139.019
 21
46.4617
  0
LINE
  8
0
 10
139.019
 20
46.4617
 11
138.481
 21
46.0706
  0
LINE
  8
0
 10
138.481
 20
46.0706
 11
138.148
 21
45.4944
  0
LINE
  8
0
 10
138.148
 20
45.4944
 11
138.079
 21
44.8327
  0
LINE
  8
0
 10
138.079
 20
44.8327
 11
138.284
 21
44.2
  0
LINE
  8
0
 10
138.284
 20
44.2
 11
138.73
 21
43.7056
  0
LINE
  8
0
 10
138.73
 20
43.7056
 11
139.337
 21
43.435
  0
LINE
  8
0
 10
139.337
 20
43.435
 11
140.003
 21
43.435
  0
LINE
  8
0
 10
140.003
 20
43.435
 11
140.61
 21
43.7056
  0
LINE
  8
0
 10
95.9104
 20
43.2056
 11
96.3556
 21
43.7
  0
LINE
  8
0
 10
96.3556
 20
43.7
 11
96.5612
 21
44.3327
  0
LINE
  8
0
 10
96.5612
 20
44.3327
 11
96.4917
 21
44.9944
  0
LINE
  8
0
 10
96.4917
 20
44.9944
 11
96.159
 21
45.5706
  0
LINE
  8
0
 10
96.159
 20
45.5706
 11
95.6208
 21
45.9617
  0
LINE
  8
0
 10
95.6208
 20
45.9617
 11
94.97
 21
46.1
  0
LINE
  8
0
 10
94.97
 20
46.1
 11
94.3192
 21
45.9617
  0
LINE
  8
0
 10
94.3192
 20
45.9617
 11
93.781
 21
45.5706
  0
LINE
  8
0
 10
93.781
 20
45.5706
 11
93.4483
 21
44.9944
  0
LINE
  8
0
 10
93.4483
 20
44.9944
 11
93.3788
 21
44.3327
  0
LINE
  8
0
 10
93.3788
 20
44.3327
 11
93.5844
 21
43.7
  0
LINE
  8
0
 10
93.5844
 20
43.7
 11
94.0295
 21
43.2056
  0
LINE
  8
0
 10
94.0295
 20
43.2056
 11
94.6373
 21
42.935
  0
LINE
  8
0
 10
94.6373
 20
42.935
 11
95.3026
 21
42.935
  0
LINE
  8
0
 10
95.3026
 20
42.935
 11
95.9104
 21
43.2056
  0
LINE
  8
0
 10
96.1104
 20
17.7056
 11
96.5556
 21
18.2
  0
LINE
  8
0
 10
96.5556
 20
18.2
 11
96.7612
 21
18.8327
  0
LINE
  8
0
 10
96.7612
 20
18.8327
 11
96.6917
 21
19.4944
  0
LINE
  8
0
 10
96.6917
 20
19.4944
 11
96.359
 21
20.0706
  0
LINE
  8
0
 10
96.359
 20
20.0706
 11
95.8208
 21
20.4617
  0
LINE
  8
0
 10
95.8208
 20
20.4617
 11
95.17
 21
20.6
  0
LINE
  8
0
 10
95.17
 20
20.6
 11
94.5192
 21
20.4617
  0
LINE
  8
0
 10
94.5192
 20
20.4617
 11
93.981
 21
20.0706
  0
LINE
  8
0
 10
93.981
 20
20.0706
 11
93.6483
 21
19.4944
  0
LINE
  8
0
 10
93.6483
 20
19.4944
 11
93.5788
 21
18.8327
  0
LINE
  8
0
 10
93.5788
 20
18.8327
 11
93.7843
 21
18.2
  0
LINE
  8
0
 10
93.7843
 20
18.2
 11
94.2295
 21
17.7056
  0
LINE
  8
0
 10
94.2295
 20
17.7056
 11
94.8373
 21
17.435
  0
LINE
  8
0
 10
94.8373
 20
17.435
 11
95.5027
 21
17.435
  0
LINE
  8
0
 10
95.5027
 20
17.435
 11
96.1104
 21
17.7056
  0
LINE
  8
0
 10
139.11
 20
17.7056
 11
139.556
 21
18.2
  0
LINE
  8
0
 10
139.556
 20
18.2
 11
139.761
 21
18.8327
  0
LINE
  8
0
 10
139.761
 20
18.8327
 11
139.692
 21
19.4944
  0
LINE
  8
0
 10
139.692
 20
19.4944
 11
139.359
 21
20.0706
  0
LINE
  8
0
 10
139.359
 20
20.0706
 11
138.821
 21
20.4617
  0
LINE
  8
0
 10
138.821
 20
20.4617
 11
138.17
 21
20.6
  0
LINE
  8
0
 10
138.17
 20
20.6
 11
137.519
 21
20.4617
  0
LINE
  8
0
 10
137.519
 20
20.4617
 11
136.981
 21
20.0706
  0
LINE
  8
0
 10
136.981
 20
20.0706
 11
136.648
 21
19.4944
  0
LINE
  8
0
 10
136.648
 20
19.4944
 11
136.579
 21
18.8327
  0
LINE
  8
0
 10
136.579
 20
18.8327
 11
136.784
 21
18.2
  0
LINE
  8
0
 10
136.784
 20
18.2
 11
137.23
 21
17.7056
  0
LINE
  8
0
 10
137.23
 20
17.7056
 11
137.837
 21
17.435
  0
LINE
  8
0
 10
137.837
 20
17.435
 11
138.503
 21
17.435
  0
LINE
  8
0
 10
138.503
 20
17.435
 11
139.11
 21
17.7056
  0
LINE
  8
0
 10
27.33
 20
12.42
 11
27.33
 21
22.42
  0
LINE
  8
0
 10
27.33
 20
22.42
 11
32.41
 21
22.42
  0
LINE
  8
0
 10
32.41
 20
22.42
 11
29.87
 21
24.96
  0
LINE
  8
0
 10
29.87
 20
24.96
 11
27.33
 21
24.96
  0
LINE
  8
0
 10
27.33
 20
24.96
 11
27.33
 21
91
  0
LINE
  8
0
 10
27.33
 20
91
 11
80.67
 21
91
  0
LINE
  8
0
 10
80.67
 20
91
 11
80.67
 21
26.23
  0
LINE
  8
0
 10
80.67
 20
26.23
 11
79.4
 21
24.96
  0
LINE
  8
0
 10
79.4
 20
24.96
 11
67.97
 21
24.96
  0
LINE
  8
0
 10
67.97
 20
24.96
 11
65.43
 21
22.42
  0
LINE
  8
0
 10
65.43
 20
22.42
 11
80.67
 21
22.42
  0
LINE
  8
0
 10
80.67
 20
22.42
 11
80.67
 21
12.42
  0
LINE
  8
0
 10
80.67
 20
12.42
 11
27.33
 21
12.42
  0
LINE
  8
0
 10
30.1821
 20
75.4607
 11
30.4823
 21
75.5518
  0
LINE
  8
0
 10
30.4823
 20
75.5518
 11
30.7589
 21
75.6996
  0
LINE
  8
0
 10
30.7589
 20
75.6996
 11
31.0013
 21
75.8986
  0
LINE
  8
0
 10
31.0013
 20
75.8986
 11
31.2003
 21
76.1411
  0
LINE
  8
0
 10
31.2003
 20
76.1411
 11
31.3482
 21
76.4177
  0
LINE
  8
0
 10
31.3482
 20
76.4177
 11
31.4392
 21
76.7178
  0
LINE
  8
0
 10
31.4392
 20
76.7178
 11
31.47
 21
77.03
  0
LINE
  8
0
 10
31.47
 20
77.03
 11
31.4392
 21
77.3421
  0
LINE
  8
0
 10
31.4392
 20
77.3421
 11
31.3482
 21
77.6423
  0
LINE
  8
0
 10
31.3482
 20
77.6423
 11
31.2003
 21
77.9189
  0
LINE
  8
0
 10
31.2003
 20
77.9189
 11
31.0013
 21
78.1614
  0
LINE
  8
0
 10
31.0013
 20
78.1614
 11
30.7589
 21
78.3603
  0
LINE
  8
0
 10
30.7589
 20
78.3603
 11
30.4823
 21
78.5082
  0
LINE
  8
0
 10
30.4823
 20
78.5082
 11
30.1821
 21
78.5992
  0
LINE
  8
0
 10
30.1821
 20
78.5992
 11
29.87
 21
78.63
  0
LINE
  8
0
 10
29.87
 20
78.63
 11
29.5578
 21
78.5992
  0
LINE
  8
0
 10
29.5578
 20
78.5992
 11
29.2577
 21
78.5082
  0
LINE
  8
0
 10
29.2577
 20
78.5082
 11
28.9811
 21
78.3603
  0
LINE
  8
0
 10
28.9811
 20
78.3603
 11
28.7386
 21
78.1614
  0
LINE
  8
0
 10
28.7386
 20
78.1614
 11
28.5396
 21
77.9189
  0
LINE
  8
0
 10
28.5396
 20
77.9189
 11
28.3918
 21
77.6423
  0
LINE
  8
0
 10
28.3918
 20
77.6423
 11
28.3007
 21
77.3421
  0
LINE
  8
0
 10
28.3007
 20
77.3421
 11
28.27
 21
77.03
  0
LINE
  8
0
 10
28.27
 20
77.03
 11
28.3007
 21
76.7178
  0
LINE
  8
0
 10
28.3007
 20
76.7178
 11
28.3918
 21
76.4177
  0
LINE
  8
0
 10
28.3918
 20
76.4177
 11
28.5396
 21
76.1411
  0
LINE
  8
0
 10
28.5396
 20
76.1411
 11
28.7386
 21
75.8986
  0
LINE
  8
0
 10
28.7386
 20
75.8986
 11
28.9811
 21
75.6996
  0
LINE
  8
0
 10
28.9811
 20
75.6996
 11
29.2577
 21
75.5518
  0
LINE
  8
0
 10
29.2577
 20
75.5518
 11
29.5578
 21
75.4607
  0
LINE
  8
0
 10
29.5578
 20
75.4607
 11
29.87
 21
75.43
  0
LINE
  8
0
 10
29.87
 20
75.43
 11
30.1821
 21
75.4607
  0
LINE
  8
0
 10
78.4421
 20
74.1907
 11
78.7423
 21
74.2818
  0
LINE
  8
0
 10
78.7423
 20
74.2818
 11
79.0189
 21
74.4296
  0
LINE
  8
0
 10
79.0189
 20
74.4296
 11
79.2614
 21
74.6286
  0
LINE
  8
0
 10
79.2614
 20
74.6286
 11
79.4603
 21
74.8711
  0
LINE
  8
0
 10
79.4603
 20
74.8711
 11
79.6082
 21
75.1477
  0
LINE
  8
0
 10
79.6082
 20
75.1477
 11
79.6992
 21
75.4478
  0
LINE
  8
0
 10
79.6992
 20
75.4478
 11
79.73
 21
75.76
  0
LINE
  8
0
 10
79.73
 20
75.76
 11
79.6992
 21
76.0721
  0
LINE
  8
0
 10
79.6992
 20
76.0721
 11
79.6082
 21
76.3723
  0
LINE
  8
0
 10
79.6082
 20
76.3723
 11
79.4603
 21
76.6489
  0
LINE
  8
0
 10
79.4603
 20
76.6489
 11
79.2614
 21
76.8914
  0
LINE
  8
0
 10
79.2614
 20
76.8914
 11
79.0189
 21
77.0903
  0
LINE
  8
0
 10
79.0189
 20
77.0903
 11
78.7423
 21
77.2382
  0
LINE
  8
0
 10
78.7423
 20
77.2382
 11
78.4421
 21
77.3293
  0
LINE
  8
0
 10
78.4421
 20
77.3293
 11
78.13
 21
77.36
  0
LINE
  8
0
 10
78.13
 20
77.36
 11
77.8178
 21
77.3293
  0
LINE
  8
0
 10
77.8178
 20
77.3293
 11
77.5177
 21
77.2382
  0
LINE
  8
0
 10
77.5177
 20
77.2382
 11
77.2411
 21
77.0903
  0
LINE
  8
0
 10
77.2411
 20
77.0903
 11
76.9986
 21
76.8914
  0
LINE
  8
0
 10
76.9986
 20
76.8914
 11
76.7996
 21
76.6489
  0
LINE
  8
0
 10
76.7996
 20
76.6489
 11
76.6518
 21
76.3723
  0
LINE
  8
0
 10
76.6518
 20
76.3723
 11
76.5607
 21
76.0721
  0
LINE
  8
0
 10
76.5607
 20
76.0721
 11
76.53
 21
75.76
  0
LINE
  8
0
 10
76.53
 20
75.76
 11
76.5607
 21
75.4478
  0
LINE
  8
0
 10
76.5607
 20
75.4478
 11
76.6518
 21
75.1477
  0
LINE
  8
0
 10
76.6518
 20
75.1477
 11
76.7996
 21
74.8711
  0
LINE
  8
0
 10
76.7996
 20
74.8711
 11
76.9986
 21
74.6286
  0
LINE
  8
0
 10
76.9986
 20
74.6286
 11
77.2411
 21
74.4296
  0
LINE
  8
0
 10
77.2411
 20
74.4296
 11
77.5177
 21
74.2818
  0
LINE
  8
0
 10
77.5177
 20
74.2818
 11
77.8178
 21
74.1907
  0
LINE
  8
0
 10
77.8178
 20
74.1907
 11
78.13
 21
74.16
  0
LINE
  8
0
 10
78.13
 20
74.16
 11
78.4421
 21
74.1907
  0
LINE
  8
0
 10
35.2621
 20
23.3907
 11
35.5623
 21
23.4818
  0
LINE
  8
0
 10
35.5623
 20
23.4818
 11
35.8389
 21
23.6296
  0
LINE
  8
0
 10
35.8389
 20
23.6296
 11
36.0813
 21
23.8286
  0
LINE
  8
0
 10
36.0813
 20
23.8286
 11
36.2803
 21
24.0711
  0
LINE
  8
0
 10
36.2803
 20
24.0711
 11
36.4282
 21
24.3477
  0
LINE
  8
0
 10
36.4282
 20
24.3477
 11
36.5192
 21
24.6478
  0
LINE
  8
0
 10
36.5192
 20
24.6478
 11
36.55
 21
24.96
  0
LINE
  8
0
 10
36.55
 20
24.96
 11
36.5192
 21
25.2721
  0
LINE
  8
0
 10
36.5192
 20
25.2721
 11
36.4282
 21
25.5723
  0
LINE
  8
0
 10
36.4282
 20
25.5723
 11
36.2803
 21
25.8489
  0
LINE
  8
0
 10
36.2803
 20
25.8489
 11
36.0813
 21
26.0914
  0
LINE
  8
0
 10
36.0813
 20
26.0914
 11
35.8389
 21
26.2903
  0
LINE
  8
0
 10
35.8389
 20
26.2903
 11
35.5623
 21
26.4382
  0
LINE
  8
0
 10
35.5623
 20
26.4382
 11
35.2621
 21
26.5293
  0
LINE
  8
0
 10
35.2621
 20
26.5293
 11
34.95
 21
26.56
  0
LINE
  8
0
 10
34.95
 20
26.56
 11
34.6378
 21
26.5293
  0
LINE
  8
0
 10
34.6378
 20
26.5293
 11
34.3377
 21
26.4382
  0
LINE
  8
0
 10
34.3377
 20
26.4382
 11
34.0611
 21
26.2903
  0
LINE
  8
0
 10
34.0611
 20
26.2903
 11
33.8186
 21
26.0914
  0
LINE
  8
0
 10
33.8186
 20
26.0914
 11
33.6196
 21
25.8489
  0
LINE
  8
0
 10
33.6196
 20
25.8489
 11
33.4718
 21
25.5723
  0
LINE
  8
0
 10
33.4718
 20
25.5723
 11
33.3807
 21
25.2721
  0
LINE
  8
0
 10
33.3807
 20
25.2721
 11
33.35
 21
24.96
  0
LINE
  8
0
 10
33.35
 20
24.96
 11
33.3807
 21
24.6478
  0
LINE
  8
0
 10
33.3807
 20
24.6478
 11
33.4718
 21
24.3477
  0
LINE
  8
0
 10
33.4718
 20
24.3477
 11
33.6196
 21
24.0711
  0
LINE
  8
0
 10
33.6196
 20
24.0711
 11
33.8186
 21
23.8286
  0
LINE
  8
0
 10
33.8186
 20
23.8286
 11
34.0611
 21
23.6296
  0
LINE
  8
0
 10
34.0611
 20
23.6296
 11
34.3377
 21
23.4818
  0
LINE
  8
0
 10
34.3377
 20
23.4818
 11
34.6378
 21
23.3907
  0
LINE
  8
0
 10
34.6378
 20
23.3907
 11
34.95
 21
23.36
  0
LINE
  8
0
 10
34.95
 20
23.36
 11
35.2621
 21
23.3907
  0
LINE
  8
0
 10
63.2021
 20
23.3907
 11
63.5023
 21
23.4818
  0
LINE
  8
0
 10
63.5023
 20
23.4818
 11
63.7789
 21
23.6296
  0
LINE
  8
0
 10
63.7789
 20
23.6296
 11
64.0213
 21
23.8286
  0
LINE
  8
0
 10
64.0213
 20
23.8286
 11
64.2203
 21
24.0711
  0
LINE
  8
0
 10
64.2203
 20
24.0711
 11
64.3682
 21
24.3477
  0
LINE
  8
0
 10
64.3682
 20
24.3477
 11
64.4592
 21
24.6478
  0
LINE
  8
0
 10
64.4592
 20
24.6478
 11
64.49
 21
24.96
  0
LINE
  8
0
 10
64.49
 20
24.96
 11
64.4592
 21
25.2721
  0
LINE
  8
0
 10
64.4592
 20
25.2721
 11
64.3682
 21
25.5723
  0
LINE
  8
0
 10
64.3682
 20
25.5723
 11
64.2203
 21
25.8489
  0
LINE
  8
0
 10
64.2203
 20
25.8489
 11
64.0213
 21
26.0914
  0
LINE
  8
0
 10
64.0213
 20
26.0914
 11
63.7789
 21
26.2903
  0
LINE
  8
0
 10
63.7789
 20
26.2903
 11
63.5023
 21
26.4382
  0
LINE
  8
0
 10
63.5023
 20
26.4382
 11
63.2021
 21
26.5293
  0
LINE
  8
0
 10
63.2021
 20
26.5293
 11
62.89
 21
26.56
  0
LINE
  8
0
 10
62.89
 20
26.56
 11
62.5778
 21
26.5293
  0
LINE
  8
0
 10
62.5778
 20
26.5293
 11
62.2777
 21
26.4382
  0
LINE
  8
0
 10
62.2777
 20
26.4382
 11
62.0011
 21
26.2903
  0
LINE
  8
0
 10
62.0011
 20
26.2903
 11
61.7586
 21
26.0914
  0
LINE
  8
0
 10
61.7586
 20
26.0914
 11
61.5596
 21
25.8489
  0
LINE
  8
0
 10
61.5596
 20
25.8489
 11
61.4118
 21
25.5723
  0
LINE
  8
0
 10
61.4118
 20
25.5723
 11
61.3207
 21
25.2721
  0
LINE
  8
0
 10
61.3207
 20
25.2721
 11
61.29
 21
24.96
  0
LINE
  8
0
 10
61.29
 20
24.96
 11
61.3207
 21
24.6478
  0
LINE
  8
0
 10
61.3207
 20
24.6478
 11
61.4118
 21
24.3477
  0
LINE
  8
0
 10
61.4118
 20
24.3477
 11
61.5596
 21
24.0711
  0
LINE
  8
0
 10
61.5596
 20
24.0711
 11
61.7586
 21
23.8286
  0
LINE
  8
0
 10
61.7586
 20
23.8286
 11
62.0011
 21
23.6296
  0
LINE
  8
0
 10
62.0011
 20
23.6296
 11
62.2777
 21
23.4818
  0
LINE
  8
0
 10
62.2777
 20
23.4818
 11
62.5778
 21
23.3907
  0
LINE
  8
0
 10
62.5778
 20
23.3907
 11
62.89
 21
23.36
  0
LINE
  8
0
 10
62.89
 20
23.36
 11
63.2021
 21
23.3907
  0
LINE
  8
0
 10
248.5
 20
66.4286
 11
248.5
 21
79.2857
  0
LINE
  8
0
 10
248.5
 20
79.2857
 11
251.5
 21
79.2857
  0
LINE
  8
0
 10
251.5
 20
79.2857
 11
251.5
 21
66.4286
  0
LINE
  8
0
 10
251.5
 20
66.4286
 11
248.5
 21
66.4286
  0
LINE
  8
0
 10
8.5
 20
66.4286
 11
8.5
 21
79.2857
  0
LINE
  8
0
 10
8.5
 20
79.2857
 11
11.5
 21
79.2857
  0
LINE
  8
0
 10
11.5
 20
79.2857
 11
11.5
 21
66.4286
  0
LINE
  8
0
 10
11.5
 20
66.4286
 11
8.5
 21
66.4286
  0
LINE
  8
0
 10
217.67
 20
31.6667
 11
217.67
 21
66.6667
  0
LINE
  8
0
 10
217.67
 20
66.6667
 11
235.67
 21
66.6667
  0
LINE
  8
0
 10
235.67
 20
66.6667
 11
235.67
 21
31.6667
  0
LINE
  8
0
 10
235.67
 20
31.6667
 11
217.67
 21
31.6667
  0
LINE
  8
0
 10
213.17
 20
53.5
 11
213.17
 21
56.5
  0
LINE
  8
0
 10
213.17
 20
56.5
 11
216.17
 21
56.5
  0
LINE
  8
0
 10
216.17
 20
56.5
 11
216.17
 21
53.5
  0
LINE
  8
0
 10
216.17
 20
53.5
 11
213.17
 21
53.5
  0
LINE
  8
0
 10
237.17
 20
53.5
 11
237.17
 21
56.5
  0
LINE
  8
0
 10
237.17
 20
56.5
 11
240.17
 21
56.5
  0
LINE
  8
0
 10
240.17
 20
56.5
 11
240.17
 21
53.5
  0
LINE
  8
0
 10
240.17
 20
53.5
 11
237.17
 21
53.5
  0
LINE
  8
0
 10
248.5
 20
40.7143
 11
248.5
 21
53.5714
  0
LINE
  8
0
 10
248.5
 20
53.5714
 11
251.5
 21
53.5714
  0
LINE
  8
0
 10
251.5
 20
53.5714
 11
251.5
 21
40.7143
  0
LINE
  8
0
 10
251.5
 20
40.7143
 11
248.5
 21
40.7143
  0
LINE
  8
0
 10
8.5
 20
40.7143
 11
8.5
 21
53.5714
  0
LINE
  8
0
 10
8.5
 20
53.5714
 11
11.5
 21
53.5714
  0
LINE
  8
0
 10
11.5
 20
53.5714
 11
11.5
 21
40.7143
  0
LINE
  8
0
 10
11.5
 20
40.7143
 11
8.5
 21
40.7143
  0
LINE
  8
0
 10
213.17
 20
41.8333
 11
213.17
 21
44.8333
  0
LINE
  8
0
 10
213.17
 20
44.8333
 11
216.17
 21
44.8333
  0
LINE
  8
0
 10
216.17
 20
44.8333
 11
216.17
 21
41.8333
  0
LINE
  8
0
 10
216.17
 20
41.8333
 11
213.17
 21
41.8333
  0
LINE
  8
0
 10
237.17
 20
41.8333
 11
237.17
 21
44.8333
  0
LINE
  8
0
 10
237.17
 20
44.8333
 11
240.17
 21
44.8333
  0
LINE
  8
0
 10
240.17
 20
44.8333
 11
240.17
 21
41.8333
  0
LINE
  8
0
 10
240.17
 20
41.8333
 11
237.17
 21
41.8333
  0
LINE
  8
0
 10
8.5
 20
15
 11
8.5
 21
27.8571
  0
LINE
  8
0
 10
8.5
 20
27.8571
 11
11.5
 21
27.8571
  0
LINE
  8
0
 10
11.5
 20
27.8571
 11
11.5
 21
15
  0
LINE
  8
0
 10
11.5
 20
15
 11
8.5
 21
15
  0
LINE
  8
0
 10
248.5
 20
15
 11
248.5
 21
27.8571
  0
LINE
  8
0
 10
248.5
 20
27.8571
 11
251.5
 21
27.8571
  0
LINE
  8
0
 10
251.5
 20
27.8571
 11
251.5
 21
15
  0
LINE
  8
0
 10
251.5
 20
15
 11
248.5
 21
15
  0
LINE
  8
0
 10
9.2
 20
8.61435
 11
8.70557
 21
9.05954
  0
LINE
  8
0
 10
8.70557
 20
9.05954
 11
8.43495
 21
9.66733
  0
LINE
  8
0
 10
8.43495
 20
9.66733
 11
8.43495
 21
10.3327
  0
LINE
  8
0
 10
8.43495
 20
10.3327
 11
8.70557
 21
10.9404
  0
LINE
  8
0
 10
8.70557
 20
10.9404
 11
9.2
 21
11.3856
  0
LINE
  8
0
 10
9.2
 20
11.3856
 11
9.83275
 21
11.5912
  0
LINE
  8
0
 10
9.83275
 20
11.5912
 11
10.4944
 21
11.5217
  0
LINE
  8
0
 10
10.4944
 20
11.5217
 11
11.0706
 21
11.189
  0
LINE
  8
0
 10
11.0706
 20
11.189
 11
11.4617
 21
10.6508
  0
LINE
  8
0
 10
11.4617
 20
10.6508
 11
11.6
 21
10
  0
LINE
  8
0
 10
11.6
 20
10
 11
11.4617
 21
9.34921
  0
LINE
  8
0
 10
11.4617
 20
9.34921
 11
11.0706
 21
8.81096
  0
LINE
  8
0
 10
11.0706
 20
8.81096
 11
10.4944
 21
8.4783
  0
LINE
  8
0
 10
10.4944
 20
8.4783
 11
9.83275
 21
8.40875
  0
LINE
  8
0
 10
9.83275
 20
8.40875
 11
9.2
 21
8.61435
  0
LINE
  8
0
 10
249.2
 20
8.61435
 11
248.706
 21
9.05954
  0
LINE
  8
0
 10
248.706
 20
9.05954
 11
248.435
 21
9.66733
  0
LINE
  8
0
 10
248.435
 20
9.66733
 11
248.435
 21
10.3327
  0
LINE
  8
0
 10
248.435
 20
10.3327
 11
248.706
 21
10.9404
  0
LINE
  8
0
 10
248.706
 20
10.9404
 11
249.2
 21
11.3856
  0
LINE
  8
0
 10
249.2
 20
11.3856
 11
249.833
 21
11.5912
  0
LINE
  8
0
 10
249.833
 20
11.5912
 11
250.494
 21
11.5217
  0
LINE
  8
0
 10
250.494
 20
11.5217
 11
251.071
 21
11.189
  0
LINE
  8
0
 10
251.071
 20
11.189
 11
251.462
 21
10.6508
  0
LINE
  8
0
 10
251.462
 20
10.6508
 11
251.6
 21
10
  0
LINE
  8
0
 10
251.6
 20
10
 11
251.462
 21
9.34921
  0
LINE
  8
0
 10
251.462
 20
9.34921
 11
251.071
 21
8.81096
  0
LINE
  8
0
 10
251.071
 20
8.81096
 11
250.494
 21
8.4783
  0
LINE
  8
0
 10
250.494
 20
8.4783
 11
249.833
 21
8.40875
  0
LINE
  8
0
 10
249.833
 20
8.40875
 11
249.2
 21
8.61435
  0
LINE
  8
0
 10
15
 20
8.5
 11
15
 21
11.5
  0
LINE
  8
0
 10
15
 20
11.5
 11
35.9091
 21
11.5
  0
LINE
  8
0
 10
35.9091
 20
11.5
 11
35.9091
 21
8.5
  0
LINE
  8
0
 10
35.9091
 20
8.5
 11
15
 21
8.5
  0
LINE
  8
0
 10
56.8182
 20
8.5
 11
56.8182
 21
11.5
  0
LINE
  8
0
 10
56.8182
 20
11.5
 11
77.7273
 21
11.5
  0
LINE
  8
0
 10
77.7273
 20
11.5
 11
77.7273
 21
8.5
  0
LINE
  8
0
 10
77.7273
 20
8.5
 11
56.8182
 21
8.5
  0
LINE
  8
0
 10
98.6364
 20
8.5
 11
98.6364
 21
11.5
  0
LINE
  8
0
 10
98.6364
 20
11.5
 11
119.545
 21
11.5
  0
LINE
  8
0
 10
119.545
 20
11.5
 11
119.545
 21
8.5
  0
LINE
  8
0
 10
119.545
 20
8.5
 11
98.6364
 21
8.5
  0
LINE
  8
0
 10
140.455
 20
8.5
 11
140.455
 21
11.5
  0
LINE
  8
0
 10
140.455
 20
11.5
 11
161.364
 21
11.5
  0
LINE
  8
0
 10
161.364
 20
11.5
 11
161.364
 21
8.5
  0
LINE
  8
0
 10
161.364
 20
8.5
 11
140.455
 21
8.5
  0
LINE
  8
0
 10
182.273
 20
8.5
 11
182.273
 21
11.5
  0
LINE
  8
0
 10
182.273
 20
11.5
 11
203.182
 21
11.5
  0
LINE
  8
0
 10
203.182
 20
11.5
 11
203.182
 21
8.5
  0
LINE
  8
0
 10
203.182
 20
8.5
 11
182.273
 21
8.5
  0
LINE
  8
0
 10
224.091
 20
8.5
 11
224.091
 21
11.5
  0
LINE
  8
0
 10
224.091
 20
11.5
 11
245
 21
11.5
  0
LINE
  8
0
 10
245
 20
11.5
 11
245
 21
8.5
  0
LINE
  8
0
 10
245
 20
8.5
 11
224.091
 21
8.5
  0
LINE
  8
0
 10
327
 20
27.8571
 11
324
 21
27.8571
  0
LINE
  8
0
 10
324
 20
27.8571
 11
324
 21
40.7143
  0
LINE
  8
0
 10
324
 20
40.7143
 11
327
 21
40.7143
  0
LINE
  8
0
 10
327
 20
40.7143
 11
327
 21
53.5714
  0
LINE
  8
0
 10
327
 20
53.5714
 11
324
 21
53.5714
  0
LINE
  8
0
 10
324
 20
53.5714
 11
324
 21
66.4286
  0
LINE
  8
0
 10
324
 20
66.4286
 11
327
 21
66.4286
  0
LINE
  8
0
 10
327
 20
66.4286
 11
327
 21
79.2857
  0
LINE
  8
0
 10
327
 20
79.2857
 11
324
 21
79.2857
  0
LINE
  8
0
 10
324
 20
79.2857
 11
324
 21
92.1429
  0
LINE
  8
0
 10
324
 20
92.1429
 11
327
 21
92.1429
  0
LINE
  8
0
 10
327
 20
92.1429
 11
327
 21
105
  0
LINE
  8
0
 10
327
 20
105
 11
267
 21
105
  0
LINE
  8
0
 10
267
 20
105
 11
267
 21
92.1429
  0
LINE
  8
0
 10
267
 20
92.1429
 11
270
 21
92.1429
  0
LINE
  8
0
 10
270
 20
92.1429
 11
270
 21
79.2857
  0
LINE
  8
0
 10
270
 20
79.2857
 11
267
 21
79.2857
  0
LINE
  8
0
 10
267
 20
79.2857
 11
267
 21
66.4286
  0
LINE
  8
0
 10
267
 20
66.4286
 11
270
 21
66.4286
  0
LINE
  8
0
 10
270
 20
66.4286
 11
270
 21
53.5714
  0
LINE
  8
0
 10
270
 20
53.5714
 11
267
 21
53.5714
  0
LINE
  8
0
 10
267
 20
53.5714
 11
267
 21
40.7143
  0
LINE
  8
0
 10
267
 20
40.7143
 11
270
 21
40.7143
  0
LINE
  8
0
 10
270
 20
40.7143
 11
270
 21
27.8571
  0
LINE
  8
0
 10
270
 20
27.8571
 11
267
 21
27.8571
  0
LINE
  8
0
 10
267
 20
27.8571
 11
267
 21
15
  0
LINE
  8
0
 10
267
 20
15
 11
327
 21
15
  0
LINE
  8
0
 10
327
 20
15
 11
327
 21
27.8571
  0
LINE
  8
0
 10
306.575
 20
75.7017
 11
304.149
 21
77.8859
  0
LINE
  8
0
 10
304.149
 20
77.8859
 11
303.25
 21
79.9056
  0
LINE
  8
0
 10
303.25
 20
79.9056
 11
303.25
 21
85.0944
  0
LINE
  8
0
 10
303.25
 20
85.0944
 11
304.149
 21
87.1141
  0
LINE
  8
0
 10
304.149
 20
87.1141
 11
306.575
 21
89.2983
  0
LINE
  8
0
 10
306.575
 20
89.2983
 11
309.679
 21
90.307
  0
LINE
  8
0
 10
309.679
 20
90.307
 11
312.926
 21
89.9658
  0
LINE
  8
0
 10
312.926
 20
89.9658
 11
315.753
 21
88.3337
  0
LINE
  8
0
 10
315.753
 20
88.3337
 11
317.671
 21
85.6929
  0
LINE
  8
0
 10
317.671
 20
85.6929
 11
317.75
 21
85.3227
  0
LINE
  8
0
 10
317.75
 20
85.3227
 11
317.75
 21
79.6773
  0
LINE
  8
0
 10
317.75
 20
79.6773
 11
317.671
 21
79.3071
  0
LINE
  8
0
 10
317.671
 20
79.3071
 11
315.753
 21
76.6663
  0
LINE
  8
0
 10
315.753
 20
76.6663
 11
312.926
 21
75.0342
  0
LINE
  8
0
 10
312.926
 20
75.0342
 11
309.679
 21
74.693
  0
LINE
  8
0
 10
309.679
 20
74.693
 11
306.575
 21
75.7017
  0
LINE
  8
0
 10
290.25
 20
86.1821
 11
290.25
 21
87.368
  0
LINE
  8
0
 10
290.25
 20
87.368
 11
290.456
 21
87.368
  0
LINE
  8
0
 10
290.456
 20
87.368
 11
290.456
 21
86.886
  0
LINE
  8
0
 10
290.456
 20
86.886
 11
291.939
 21
86.886
  0
LINE
  8
0
 10
291.939
 20
86.886
 11
291.658
 21
87.313
  0
LINE
  8
0
 10
291.658
 20
87.313
 11
291.887
 21
87.313
  0
LINE
  8
0
 10
291.887
 20
87.313
 11
292.17
 21
86.866
  0
LINE
  8
0
 10
292.17
 20
86.866
 11
292.17
 21
86.6431
  0
LINE
  8
0
 10
292.17
 20
86.6431
 11
290.456
 21
86.6431
  0
LINE
  8
0
 10
290.456
 20
86.6431
 11
290.456
 21
86.1821
  0
LINE
  8
0
 10
290.456
 20
86.1821
 11
290.25
 21
86.1821
  0
LINE
  8
0
 10
281.525
 20
79.0792
 11
280.304
 21
80.1782
  0
LINE
  8
0
 10
280.304
 20
80.1782
 11
279.636
 21
81.6787
  0
LINE
  8
0
 10
279.636
 20
81.6787
 11
279.636
 21
83.3212
  0
LINE
  8
0
 10
279.636
 20
83.3212
 11
280.304
 21
84.8217
  0
LINE
  8
0
 10
280.304
 20
84.8217
 11
281.525
 21
85.9208
  0
LINE
  8
0
 10
281.525
 20
85.9208
 11
283.087
 21
86.4284
  0
LINE
  8
0
 10
283.087
 20
86.4284
 11
284.721
 21
86.2567
  0
LINE
  8
0
 10
284.721
 20
86.2567
 11
286.143
 21
85.4354
  0
LINE
  8
0
 10
286.143
 20
85.4354
 11
287.108
 21
84.1066
  0
LINE
  8
0
 10
287.108
 20
84.1066
 11
287.45
 21
82.5
  0
LINE
  8
0
 10
287.45
 20
82.5
 11
287.108
 21
80.8934
  0
LINE
  8
0
 10
287.108
 20
80.8934
 11
286.143
 21
79.5646
  0
LINE
  8
0
 10
286.143
 20
79.5646
 11
284.721
 21
78.7433
  0
LINE
  8
0
 10
284.721
 20
78.7433
 11
283.087
 21
78.5716
  0
LINE
  8
0
 10
283.087
 20
78.5716
 11
281.525
 21
79.0792
  0
LINE
  8
0
 10
290.25
 20
84.6889
 11
290.25
 21
85.9469
  0
LINE
  8
0
 10
290.25
 20
85.9469
 11
290.421
 21
85.9469
  0
LINE
  8
0
 10
290.421
 20
85.9469
 11
290.569
 21
85.8704
  0
LINE
  8
0
 10
290.569
 20
85.8704
 11
290.698
 21
85.7789
  0
LINE
  8
0
 10
290.698
 20
85.7789
 11
290.812
 21
85.6774
  0
LINE
  8
0
 10
290.812
 20
85.6774
 11
290.915
 21
85.5709
  0
LINE
  8
0
 10
290.915
 20
85.5709
 11
291.009
 21
85.4624
  0
LINE
  8
0
 10
291.009
 20
85.4624
 11
291.18
 21
85.2524
  0
LINE
  8
0
 10
291.18
 20
85.2524
 11
291.263
 21
85.1609
  0
LINE
  8
0
 10
291.263
 20
85.1609
 11
291.348
 21
85.0832
  0
LINE
  8
0
 10
291.348
 20
85.0832
 11
291.437
 21
85.0219
  0
LINE
  8
0
 10
291.437
 20
85.0219
 11
291.535
 21
84.9814
  0
LINE
  8
0
 10
291.535
 20
84.9814
 11
291.644
 21
84.9679
  0
LINE
  8
0
 10
291.644
 20
84.9679
 11
291.782
 21
84.9909
  0
LINE
  8
0
 10
291.782
 20
84.9909
 11
291.885
 21
85.0599
  0
LINE
  8
0
 10
291.885
 20
85.0599
 11
291.949
 21
85.1697
  0
LINE
  8
0
 10
291.949
 20
85.1697
 11
291.971
 21
85.3149
  0
LINE
  8
0
 10
291.971
 20
85.3149
 11
291.95
 21
85.4564
  0
LINE
  8
0
 10
291.95
 20
85.4564
 11
291.887
 21
85.5709
  0
LINE
  8
0
 10
291.887
 20
85.5709
 11
291.786
 21
85.6504
  0
LINE
  8
0
 10
291.786
 20
85.6504
 11
291.651
 21
85.6889
  0
LINE
  8
0
 10
291.651
 20
85.6889
 11
291.674
 21
85.9359
  0
LINE
  8
0
 10
291.674
 20
85.9359
 11
291.878
 21
85.8742
  0
LINE
  8
0
 10
291.878
 20
85.8742
 11
292.035
 21
85.7429
  0
LINE
  8
0
 10
292.035
 20
85.7429
 11
292.136
 21
85.5524
  0
LINE
  8
0
 10
292.136
 20
85.5524
 11
292.17
 21
85.3149
  0
LINE
  8
0
 10
292.17
 20
85.3149
 11
292.136
 21
85.0612
  0
LINE
  8
0
 10
292.136
 20
85.0612
 11
292.035
 21
84.8739
  0
LINE
  8
0
 10
292.035
 20
84.8739
 11
291.872
 21
84.7577
  0
LINE
  8
0
 10
291.872
 20
84.7577
 11
291.652
 21
84.7189
  0
LINE
  8
0
 10
291.652
 20
84.7189
 11
291.542
 21
84.7317
  0
LINE
  8
0
 10
291.542
 20
84.7317
 11
291.433
 21
84.7699
  0
LINE
  8
0
 10
291.433
 20
84.7699
 11
291.324
 21
84.8324
  0
LINE
  8
0
 10
291.324
 20
84.8324
 11
291.215
 21
84.9199
  0
LINE
  8
0
 10
291.215
 20
84.9199
 11
291.077
 21
85.0654
  0
LINE
  8
0
 10
291.077
 20
85.0654
 11
290.879
 21
85.3019
  0
LINE
  8
0
 10
290.879
 20
85.3019
 11
290.759
 21
85.4412
  0
LINE
  8
0
 10
290.759
 20
85.4412
 11
290.651
 21
85.5489
  0
LINE
  8
0
 10
290.651
 20
85.5489
 11
290.552
 21
85.6279
  0
LINE
  8
0
 10
290.552
 20
85.6279
 11
290.456
 21
85.6809
  0
LINE
  8
0
 10
290.456
 20
85.6809
 11
290.456
 21
84.6889
  0
LINE
  8
0
 10
290.456
 20
84.6889
 11
290.25
 21
84.6889
  0
LINE
  8
0
 10
297.449
 20
83.4376
 11
297.449
 21
83.7036
  0
LINE
  8
0
 10
297.449
 20
83.7036
 11
297
 21
83.7036
  0
LINE
  8
0
 10
297
 20
83.7036
 11
297
 21
83.9326
  0
LINE
  8
0
 10
297
 20
83.9326
 11
297.449
 21
83.9326
  0
LINE
  8
0
 10
297.449
 20
83.9326
 11
297.449
 21
84.8286
  0
LINE
  8
0
 10
297.449
 20
84.8286
 11
297.638
 21
84.8286
  0
LINE
  8
0
 10
297.638
 20
84.8286
 11
298.92
 21
83.9586
  0
LINE
  8
0
 10
298.92
 20
83.9586
 11
298.92
 21
83.7036
  0
LINE
  8
0
 10
298.92
 20
83.7036
 11
297.64
 21
83.7036
  0
LINE
  8
0
 10
297.64
 20
83.7036
 11
297.64
 21
83.4376
  0
LINE
  8
0
 10
297.64
 20
83.4376
 11
297.449
 21
83.4376
  0
LINE
  8
0
 10
298.522
 20
84.0013
 11
298.487
 21
84.0236
  0
LINE
  8
0
 10
298.487
 20
84.0236
 11
297.767
 21
84.5106
  0
LINE
  8
0
 10
297.767
 20
84.5106
 11
297.667
 21
84.5836
  0
LINE
  8
0
 10
297.667
 20
84.5836
 11
297.64
 21
84.6056
  0
LINE
  8
0
 10
297.64
 20
84.6056
 11
297.64
 21
83.9326
  0
LINE
  8
0
 10
297.64
 20
83.9326
 11
298.648
 21
83.9326
  0
LINE
  8
0
 10
298.648
 20
83.9326
 11
298.522
 21
84.0013
  0
LINE
  8
0
 10
290.867
 20
83.0677
 11
290.867
 21
83.7237
  0
LINE
  8
0
 10
290.867
 20
83.7237
 11
291.082
 21
83.7237
  0
LINE
  8
0
 10
291.082
 20
83.7237
 11
291.082
 21
83.0677
  0
LINE
  8
0
 10
291.082
 20
83.0677
 11
290.867
 21
83.0677
  0
LINE
  8
0
 10
297.314
 20
82.0222
 11
297.143
 21
82.1475
  0
LINE
  8
0
 10
297.143
 20
82.1475
 11
297.036
 21
82.351
  0
LINE
  8
0
 10
297.036
 20
82.351
 11
297
 21
82.6275
  0
LINE
  8
0
 10
297
 20
82.6275
 11
297.035
 21
82.8992
  0
LINE
  8
0
 10
297.035
 20
82.8992
 11
297.14
 21
83.1045
  0
LINE
  8
0
 10
297.14
 20
83.1045
 11
297.309
 21
83.2335
  0
LINE
  8
0
 10
297.309
 20
83.2335
 11
297.538
 21
83.2765
  0
LINE
  8
0
 10
297.538
 20
83.2765
 11
297.704
 21
83.25
  0
LINE
  8
0
 10
297.704
 20
83.25
 11
297.842
 21
83.1705
  0
LINE
  8
0
 10
297.842
 20
83.1705
 11
297.941
 21
83.0487
  0
LINE
  8
0
 10
297.941
 20
83.0487
 11
297.991
 21
82.8975
  0
LINE
  8
0
 10
297.991
 20
82.8975
 11
297.996
 21
82.8975
  0
LINE
  8
0
 10
297.996
 20
82.8975
 11
298.054
 21
83.0362
  0
LINE
  8
0
 10
298.054
 20
83.0362
 11
298.153
 21
83.1425
  0
LINE
  8
0
 10
298.153
 20
83.1425
 11
298.284
 21
83.2092
  0
LINE
  8
0
 10
298.284
 20
83.2092
 11
298.436
 21
83.2315
  0
LINE
  8
0
 10
298.436
 20
83.2315
 11
298.631
 21
83.191
  0
LINE
  8
0
 10
298.631
 20
83.191
 11
298.786
 21
83.0695
  0
LINE
  8
0
 10
298.786
 20
83.0695
 11
298.886
 21
82.8787
  0
LINE
  8
0
 10
298.886
 20
82.8787
 11
298.92
 21
82.6325
  0
LINE
  8
0
 10
298.92
 20
82.6325
 11
298.887
 21
82.382
  0
LINE
  8
0
 10
298.887
 20
82.382
 11
298.789
 21
82.1905
  0
LINE
  8
0
 10
298.789
 20
82.1905
 11
298.635
 21
82.0682
  0
LINE
  8
0
 10
298.635
 20
82.0682
 11
298.434
 21
82.0275
  0
LINE
  8
0
 10
298.434
 20
82.0275
 11
298.282
 21
82.0502
  0
LINE
  8
0
 10
298.282
 20
82.0502
 11
298.151
 21
82.1185
  0
LINE
  8
0
 10
298.151
 20
82.1185
 11
298.053
 21
82.225
  0
LINE
  8
0
 10
298.053
 20
82.225
 11
298
 21
82.3645
  0
LINE
  8
0
 10
298
 20
82.3645
 11
297.995
 21
82.3645
  0
LINE
  8
0
 10
297.995
 20
82.3645
 11
297.943
 21
82.2027
  0
LINE
  8
0
 10
297.943
 20
82.2027
 11
297.844
 21
82.0815
  0
LINE
  8
0
 10
297.844
 20
82.0815
 11
297.708
 21
82.0057
  0
LINE
  8
0
 10
297.708
 20
82.0057
 11
297.541
 21
81.9805
  0
LINE
  8
0
 10
297.541
 20
81.9805
 11
297.314
 21
82.0222
  0
LINE
  8
0
 10
297.713
 20
82.258
 11
297.82
 21
82.3375
  0
LINE
  8
0
 10
297.82
 20
82.3375
 11
297.885
 21
82.464
  0
LINE
  8
0
 10
297.885
 20
82.464
 11
297.907
 21
82.6335
  0
LINE
  8
0
 10
297.907
 20
82.6335
 11
297.884
 21
82.7982
  0
LINE
  8
0
 10
297.884
 20
82.7982
 11
297.814
 21
82.9225
  0
LINE
  8
0
 10
297.814
 20
82.9225
 11
297.704
 21
83.0005
  0
LINE
  8
0
 10
297.704
 20
83.0005
 11
297.559
 21
83.0265
  0
LINE
  8
0
 10
297.559
 20
83.0265
 11
297.275
 21
82.926
  0
LINE
  8
0
 10
297.275
 20
82.926
 11
297.181
 21
82.6245
  0
LINE
  8
0
 10
297.181
 20
82.6245
 11
297.204
 21
82.4517
  0
LINE
  8
0
 10
297.204
 20
82.4517
 11
297.272
 21
82.3295
  0
LINE
  8
0
 10
297.272
 20
82.3295
 11
297.391
 21
82.256
  0
LINE
  8
0
 10
297.391
 20
82.256
 11
297.564
 21
82.2315
  0
LINE
  8
0
 10
297.564
 20
82.2315
 11
297.713
 21
82.258
  0
LINE
  8
0
 10
298.66
 20
82.367
 11
298.74
 21
82.6325
  0
LINE
  8
0
 10
298.74
 20
82.6325
 11
298.72
 21
82.784
  0
LINE
  8
0
 10
298.72
 20
82.784
 11
298.659
 21
82.8945
  0
LINE
  8
0
 10
298.659
 20
82.8945
 11
298.559
 21
82.962
  0
LINE
  8
0
 10
298.559
 20
82.962
 11
298.42
 21
82.9845
  0
LINE
  8
0
 10
298.42
 20
82.9845
 11
298.277
 21
82.9615
  0
LINE
  8
0
 10
298.277
 20
82.9615
 11
298.173
 21
82.8925
  0
LINE
  8
0
 10
298.173
 20
82.8925
 11
298.109
 21
82.7805
  0
LINE
  8
0
 10
298.109
 20
82.7805
 11
298.088
 21
82.6305
  0
LINE
  8
0
 10
298.088
 20
82.6305
 11
298.107
 21
82.479
  0
LINE
  8
0
 10
298.107
 20
82.479
 11
298.166
 21
82.3685
  0
LINE
  8
0
 10
298.166
 20
82.3685
 11
298.269
 21
82.301
  0
LINE
  8
0
 10
298.269
 20
82.301
 11
298.42
 21
82.2785
  0
LINE
  8
0
 10
298.42
 20
82.2785
 11
298.66
 21
82.367
  0
LINE
  8
0
 10
290.25
 20
80.8052
 11
290.25
 21
82.0632
  0
LINE
  8
0
 10
290.25
 20
82.0632
 11
290.421
 21
82.0632
  0
LINE
  8
0
 10
290.421
 20
82.0632
 11
290.569
 21
81.9866
  0
LINE
  8
0
 10
290.569
 20
81.9866
 11
290.698
 21
81.8952
  0
LINE
  8
0
 10
290.698
 20
81.8952
 11
290.812
 21
81.7937
  0
LINE
  8
0
 10
290.812
 20
81.7937
 11
290.915
 21
81.6871
  0
LINE
  8
0
 10
290.915
 20
81.6871
 11
291.009
 21
81.5787
  0
LINE
  8
0
 10
291.009
 20
81.5787
 11
291.18
 21
81.3687
  0
LINE
  8
0
 10
291.18
 20
81.3687
 11
291.263
 21
81.2772
  0
LINE
  8
0
 10
291.263
 20
81.2772
 11
291.348
 21
81.1994
  0
LINE
  8
0
 10
291.348
 20
81.1994
 11
291.437
 21
81.1382
  0
LINE
  8
0
 10
291.437
 20
81.1382
 11
291.535
 21
81.0977
  0
LINE
  8
0
 10
291.535
 20
81.0977
 11
291.644
 21
81.0842
  0
LINE
  8
0
 10
291.644
 20
81.0842
 11
291.782
 21
81.1072
  0
LINE
  8
0
 10
291.782
 20
81.1072
 11
291.885
 21
81.1762
  0
LINE
  8
0
 10
291.885
 20
81.1762
 11
291.949
 21
81.2859
  0
LINE
  8
0
 10
291.949
 20
81.2859
 11
291.971
 21
81.4312
  0
LINE
  8
0
 10
291.971
 20
81.4312
 11
291.95
 21
81.5727
  0
LINE
  8
0
 10
291.95
 20
81.5727
 11
291.887
 21
81.6871
  0
LINE
  8
0
 10
291.887
 20
81.6871
 11
291.786
 21
81.7667
  0
LINE
  8
0
 10
291.786
 20
81.7667
 11
291.651
 21
81.8052
  0
LINE
  8
0
 10
291.651
 20
81.8052
 11
291.674
 21
82.0522
  0
LINE
  8
0
 10
291.674
 20
82.0522
 11
291.878
 21
81.9904
  0
LINE
  8
0
 10
291.878
 20
81.9904
 11
292.035
 21
81.8592
  0
LINE
  8
0
 10
292.035
 20
81.8592
 11
292.136
 21
81.6687
  0
LINE
  8
0
 10
292.136
 20
81.6687
 11
292.17
 21
81.4312
  0
LINE
  8
0
 10
292.17
 20
81.4312
 11
292.136
 21
81.1774
  0
LINE
  8
0
 10
292.136
 20
81.1774
 11
292.035
 21
80.9902
  0
LINE
  8
0
 10
292.035
 20
80.9902
 11
291.872
 21
80.8739
  0
LINE
  8
0
 10
291.872
 20
80.8739
 11
291.652
 21
80.8352
  0
LINE
  8
0
 10
291.652
 20
80.8352
 11
291.542
 21
80.8479
  0
LINE
  8
0
 10
291.542
 20
80.8479
 11
291.433
 21
80.8862
  0
LINE
  8
0
 10
291.433
 20
80.8862
 11
291.324
 21
80.9487
  0
LINE
  8
0
 10
291.324
 20
80.9487
 11
291.215
 21
81.0362
  0
LINE
  8
0
 10
291.215
 20
81.0362
 11
291.077
 21
81.1817
  0
LINE
  8
0
 10
291.077
 20
81.1817
 11
290.879
 21
81.4182
  0
LINE
  8
0
 10
290.879
 20
81.4182
 11
290.759
 21
81.5574
  0
LINE
  8
0
 10
290.759
 20
81.5574
 11
290.651
 21
81.6652
  0
LINE
  8
0
 10
290.651
 20
81.6652
 11
290.552
 21
81.7442
  0
LINE
  8
0
 10
290.552
 20
81.7442
 11
290.456
 21
81.7971
  0
LINE
  8
0
 10
290.456
 20
81.7971
 11
290.456
 21
80.8052
  0
LINE
  8
0
 10
290.456
 20
80.8052
 11
290.25
 21
80.8052
  0
LINE
  8
0
 10
297
 20
80.8404
 11
297
 21
81.1064
  0
LINE
  8
0
 10
297
 20
81.1064
 11
298.92
 21
81.8894
  0
LINE
  8
0
 10
298.92
 20
81.8894
 11
298.92
 21
81.6194
  0
LINE
  8
0
 10
298.92
 20
81.6194
 11
297.566
 21
81.0874
  0
LINE
  8
0
 10
297.566
 20
81.0874
 11
297.226
 21
80.9724
  0
LINE
  8
0
 10
297.226
 20
80.9724
 11
297.566
 21
80.8574
  0
LINE
  8
0
 10
297.566
 20
80.8574
 11
298.92
 21
80.3274
  0
LINE
  8
0
 10
298.92
 20
80.3274
 11
298.92
 21
80.0574
  0
LINE
  8
0
 10
298.92
 20
80.0574
 11
297
 21
80.8404
  0
LINE
  8
0
 10
290.699
 20
79.253
 11
290.699
 21
79.519
  0
LINE
  8
0
 10
290.699
 20
79.519
 11
290.25
 21
79.519
  0
LINE
  8
0
 10
290.25
 20
79.519
 11
290.25
 21
79.748
  0
LINE
  8
0
 10
290.25
 20
79.748
 11
290.699
 21
79.748
  0
LINE
  8
0
 10
290.699
 20
79.748
 11
290.699
 21
80.644
  0
LINE
  8
0
 10
290.699
 20
80.644
 11
290.888
 21
80.644
  0
LINE
  8
0
 10
290.888
 20
80.644
 11
292.17
 21
79.774
  0
LINE
  8
0
 10
292.17
 20
79.774
 11
292.17
 21
79.519
  0
LINE
  8
0
 10
292.17
 20
79.519
 11
290.89
 21
79.519
  0
LINE
  8
0
 10
290.89
 20
79.519
 11
290.89
 21
79.253
  0
LINE
  8
0
 10
290.89
 20
79.253
 11
290.699
 21
79.253
  0
LINE
  8
0
 10
291.772
 20
79.8168
 11
291.737
 21
79.839
  0
LINE
  8
0
 10
291.737
 20
79.839
 11
291.017
 21
80.326
  0
LINE
  8
0
 10
291.017
 20
80.326
 11
290.917
 21
80.399
  0
LINE
  8
0
 10
290.917
 20
80.399
 11
290.89
 21
80.421
  0
LINE
  8
0
 10
290.89
 20
80.421
 11
290.89
 21
79.748
  0
LINE
  8
0
 10
290.89
 20
79.748
 11
291.898
 21
79.748
  0
LINE
  8
0
 10
291.898
 20
79.748
 11
291.772
 21
79.8168
  0
LINE
  8
0
 10
290.25
 20
78.1509
 11
290.25
 21
78.4169
  0
LINE
  8
0
 10
290.25
 20
78.4169
 11
292.17
 21
79.1999
  0
LINE
  8
0
 10
292.17
 20
79.1999
 11
292.17
 21
78.9299
  0
LINE
  8
0
 10
292.17
 20
78.9299
 11
290.816
 21
78.3979
  0
LINE
  8
0
 10
290.816
 20
78.3979
 11
290.476
 21
78.2829
  0
LINE
  8
0
 10
290.476
 20
78.2829
 11
290.816
 21
78.1679
  0
LINE
  8
0
 10
290.816
 20
78.1679
 11
292.17
 21
77.6379
  0
LINE
  8
0
 10
292.17
 20
77.6379
 11
292.17
 21
77.3679
  0
LINE
  8
0
 10
292.17
 20
77.3679
 11
290.25
 21
78.1509
  0
LINE
  8
0
 10
277
 20
25
 11
277
 21
65
  0
LINE
  8
0
 10
277
 20
65
 11
317
 21
65
  0
LINE
  8
0
 10
317
 20
65
 11
317
 21
25
  0
LINE
  8
0
 10
317
 20
25
 11
277
 21
25
  0
LINE
  8
0
 10
313.277
 20
58.3645
 11
313.551
 21
58.4079
  0
LINE
  8
0
 10
313.551
 20
58.4079
 11
313.819
 21
58.4797
  0
LINE
  8
0
 10
313.819
 20
58.4797
 11
314.078
 21
58.5791
  0
LINE
  8
0
 10
314.078
 20
58.5791
 11
314.325
 21
58.705
  0
LINE
  8
0
 10
314.325
 20
58.705
 11
314.558
 21
58.8561
  0
LINE
  8
0
 10
314.558
 20
58.8561
 11
314.773
 21
59.0307
  0
LINE
  8
0
 10
314.773
 20
59.0307
 11
314.969
 21
59.2268
  0
LINE
  8
0
 10
314.969
 20
59.2268
 11
315.144
 21
59.4424
  0
LINE
  8
0
 10
315.144
 20
59.4424
 11
315.295
 21
59.675
  0
LINE
  8
0
 10
315.295
 20
59.675
 11
315.421
 21
59.9221
  0
LINE
  8
0
 10
315.421
 20
59.9221
 11
315.52
 21
60.1811
  0
LINE
  8
0
 10
315.52
 20
60.1811
 11
315.592
 21
60.449
  0
LINE
  8
0
 10
315.592
 20
60.449
 11
315.635
 21
60.723
  0
LINE
  8
0
 10
315.635
 20
60.723
 11
315.65
 21
61
  0
LINE
  8
0
 10
315.65
 20
61
 11
315.635
 21
61.277
  0
LINE
  8
0
 10
315.635
 20
61.277
 11
315.592
 21
61.551
  0
LINE
  8
0
 10
315.592
 20
61.551
 11
315.52
 21
61.8189
  0
LINE
  8
0
 10
315.52
 20
61.8189
 11
315.421
 21
62.0779
  0
LINE
  8
0
 10
315.421
 20
62.0779
 11
315.295
 21
62.325
  0
LINE
  8
0
 10
315.295
 20
62.325
 11
315.144
 21
62.5576
  0
LINE
  8
0
 10
315.144
 20
62.5576
 11
314.969
 21
62.7732
  0
LINE
  8
0
 10
314.969
 20
62.7732
 11
314.773
 21
62.9693
  0
LINE
  8
0
 10
314.773
 20
62.9693
 11
314.558
 21
63.1439
  0
LINE
  8
0
 10
314.558
 20
63.1439
 11
314.325
 21
63.295
  0
LINE
  8
0
 10
314.325
 20
63.295
 11
314.078
 21
63.4209
  0
LINE
  8
0
 10
314.078
 20
63.4209
 11
313.819
 21
63.5203
  0
LINE
  8
0
 10
313.819
 20
63.5203
 11
313.551
 21
63.5921
  0
LINE
  8
0
 10
313.551
 20
63.5921
 11
313.277
 21
63.6355
  0
LINE
  8
0
 10
313.277
 20
63.6355
 11
313
 21
63.65
  0
LINE
  8
0
 10
313
 20
63.65
 11
312.723
 21
63.6355
  0
LINE
  8
0
 10
312.723
 20
63.6355
 11
312.449
 21
63.5921
  0
LINE
  8
0
 10
312.449
 20
63.5921
 11
312.181
 21
63.5203
  0
LINE
  8
0
 10
312.181
 20
63.5203
 11
311.922
 21
63.4209
  0
LINE
  8
0
 10
311.922
 20
63.4209
 11
311.675
 21
63.295
  0
LINE
  8
0
 10
311.675
 20
63.295
 11
311.442
 21
63.1439
  0
LINE
  8
0
 10
311.442
 20
63.1439
 11
311.227
 21
62.9693
  0
LINE
  8
0
 10
311.227
 20
62.9693
 11
311.031
 21
62.7732
  0
LINE
  8
0
 10
311.031
 20
62.7732
 11
310.856
 21
62.5576
  0
LINE
  8
0
 10
310.856
 20
62.5576
 11
310.705
 21
62.325
  0
LINE
  8
0
 10
310.705
 20
62.325
 11
310.579
 21
62.0779
  0
LINE
  8
0
 10
310.579
 20
62.0779
 11
310.48
 21
61.8189
  0
LINE
  8
0
 10
310.48
 20
61.8189
 11
310.408
 21
61.551
  0
LINE
  8
0
 10
310.408
 20
61.551
 11
310.365
 21
61.277
  0
LINE
  8
0
 10
310.365
 20
61.277
 11
310.35
 21
61
  0
LINE
  8
0
 10
310.35
 20
61
 11
310.365
 21
60.723
  0
LINE
  8
0
 10
310.365
 20
60.723
 11
310.408
 21
60.449
  0
LINE
  8
0
 10
310.408
 20
60.449
 11
310.48
 21
60.1811
  0
LINE
  8
0
 10
310.48
 20
60.1811
 11
310.579
 21
59.9221
  0
LINE
  8
0
 10
310.579
 20
59.9221
 11
310.705
 21
59.675
  0
LINE
  8
0
 10
310.705
 20
59.675
 11
310.856
 21
59.4424
  0
LINE
  8
0
 10
310.856
 20
59.4424
 11
311.031
 21
59.2268
  0
LINE
  8
0
 10
311.031
 20
59.2268
 11
311.227
 21
59.0307
  0
LINE
  8
0
 10
311.227
 20
59.0307
 11
311.442
 21
58.8561
  0
LINE
  8
0
 10
311.442
 20
58.8561
 11
311.675
 21
58.705
  0
LINE
  8
0
 10
311.675
 20
58.705
 11
311.922
 21
58.5791
  0
LINE
  8
0
 10
311.922
 20
58.5791
 11
312.181
 21
58.4797
  0
LINE
  8
0
 10
312.181
 20
58.4797
 11
312.449
 21
58.4079
  0
LINE
  8
0
 10
312.449
 20
58.4079
 11
312.723
 21
58.3645
  0
LINE
  8
0
 10
312.723
 20
58.3645
 11
313
 21
58.35
  0
LINE
  8
0
 10
313
 20
58.35
 11
313.277
 21
58.3645
  0
LINE
  8
0
 10
281.277
 20
58.3645
 11
281.551
 21
58.4079
  0
LINE
  8
0
 10
281.551
 20
58.4079
 11
281.819
 21
58.4797
  0
LINE
  8
0
 10
281.819
 20
58.4797
 11
282.078
 21
58.5791
  0
LINE
  8
0
 10
282.078
 20
58.5791
 11
282.325
 21
58.705
  0
LINE
  8
0
 10
282.325
 20
58.705
 11
282.558
 21
58.8561
  0
LINE
  8
0
 10
282.558
 20
58.8561
 11
282.773
 21
59.0307
  0
LINE
  8
0
 10
282.773
 20
59.0307
 11
282.969
 21
59.2268
  0
LINE
  8
0
 10
282.969
 20
59.2268
 11
283.144
 21
59.4424
  0
LINE
  8
0
 10
283.144
 20
59.4424
 11
283.295
 21
59.675
  0
LINE
  8
0
 10
283.295
 20
59.675
 11
283.421
 21
59.9221
  0
LINE
  8
0
 10
283.421
 20
59.9221
 11
283.52
 21
60.1811
  0
LINE
  8
0
 10
283.52
 20
60.1811
 11
283.592
 21
60.449
  0
LINE
  8
0
 10
283.592
 20
60.449
 11
283.635
 21
60.723
  0
LINE
  8
0
 10
283.635
 20
60.723
 11
283.65
 21
61
  0
LINE
  8
0
 10
283.65
 20
61
 11
283.635
 21
61.277
  0
LINE
  8
0
 10
283.635
 20
61.277
 11
283.592
 21
61.551
  0
LINE
  8
0
 10
283.592
 20
61.551
 11
283.52
 21
61.8189
  0
LINE
  8
0
 10
283.52
 20
61.8189
 11
283.421
 21
62.0779
  0
LINE
  8
0
 10
283.421
 20
62.0779
 11
283.295
 21
62.325
  0
LINE
  8
0
 10
283.295
 20
62.325
 11
283.144
 21
62.5576
  0
LINE
  8
0
 10
283.144
 20
62.5576
 11
282.969
 21
62.7732
  0
LINE
  8
0
 10
282.969
 20
62.7732
 11
282.773
 21
62.9693
  0
LINE
  8
0
 10
282.773
 20
62.9693
 11
282.558
 21
63.1439
  0
LINE
  8
0
 10
282.558
 20
63.1439
 11
282.325
 21
63.295
  0
LINE
  8
0
 10
282.325
 20
63.295
 11
282.078
 21
63.4209
  0
LINE
  8
0
 10
282.078
 20
63.4209
 11
281.819
 21
63.5203
  0
LINE
  8
0
 10
281.819
 20
63.5203
 11
281.551
 21
63.5921
  0
LINE
  8
0
 10
281.551
 20
63.5921
 11
281.277
 21
63.6355
  0
LINE
  8
0
 10
281.277
 20
63.6355
 11
281
 21
63.65
  0
LINE
  8
0
 10
281
 20
63.65
 11
280.723
 21
63.6355
  0
LINE
  8
0
 10
280.723
 20
63.6355
 11
280.449
 21
63.5921
  0
LINE
  8
0
 10
280.449
 20
63.5921
 11
280.181
 21
63.5203
  0
LINE
  8
0
 10
280.181
 20
63.5203
 11
279.922
 21
63.4209
  0
LINE
  8
0
 10
279.922
 20
63.4209
 11
279.675
 21
63.295
  0
LINE
  8
0
 10
279.675
 20
63.295
 11
279.442
 21
63.1439
  0
LINE
  8
0
 10
279.442
 20
63.1439
 11
279.227
 21
62.9693
  0
LINE
  8
0
 10
279.227
 20
62.9693
 11
279.031
 21
62.7732
  0
LINE
  8
0
 10
279.031
 20
62.7732
 11
278.856
 21
62.5576
  0
LINE
  8
0
 10
278.856
 20
62.5576
 11
278.705
 21
62.325
  0
LINE
  8
0
 10
278.705
 20
62.325
 11
278.579
 21
62.0779
  0
LINE
  8
0
 10
278.579
 20
62.0779
 11
278.48
 21
61.8189
  0
LINE
  8
0
 10
278.48
 20
61.8189
 11
278.408
 21
61.551
  0
LINE
  8
0
 10
278.408
 20
61.551
 11
278.365
 21
61.277
  0
LINE
  8
0
 10
278.365
 20
61.277
 11
278.35
 21
61
  0
LINE
  8
0
 10
278.35
 20
61
 11
278.365
 21
60.723
  0
LINE
  8
0
 10
278.365
 20
60.723
 11
278.408
 21
60.449
  0
LINE
  8
0
 10
278.408
 20
60.449
 11
278.48
 21
60.1811
  0
LINE
  8
0
 10
278.48
 20
60.1811
 11
278.579
 21
59.9221
  0
LINE
  8
0
 10
278.579
 20
59.9221
 11
278.705
 21
59.675
  0
LINE
  8
0
 10
278.705
 20
59.675
 11
278.856
 21
59.4424
  0
LINE
  8
0
 10
278.856
 20
59.4424
 11
279.031
 21
59.2268
  0
LINE
  8
0
 10
279.031
 20
59.2268
 11
279.227
 21
59.0307
  0
LINE
  8
0
 10
279.227
 20
59.0307
 11
279.442
 21
58.8561
  0
LINE
  8
0
 10
279.442
 20
58.8561
 11
279.675
 21
58.705
  0
LINE
  8
0
 10
279.675
 20
58.705
 11
279.922
 21
58.5791
  0
LINE
  8
0
 10
279.922
 20
58.5791
 11
280.181
 21
58.4797
  0
LINE
  8
0
 10
280.181
 20
58.4797
 11
280.449
 21
58.4079
  0
LINE
  8
0
 10
280.449
 20
58.4079
 11
280.723
 21
58.3645
  0
LINE
  8
0
 10
280.723
 20
58.3645
 11
281
 21
58.35
  0
LINE
  8
0
 10
281
 20
58.35
 11
281.277
 21
58.3645
  0
LINE
  8
0
 10
298.882
 20
27.0986
 11
300.742
 21
27.3934
  0
LINE
  8
0
 10
300.742
 20
27.3934
 11
302.562
 21
27.881
  0
LINE
  8
0
 10
302.562
 20
27.881
 11
304.321
 21
28.5562
  0
LINE
  8
0
 10
304.321
 20
28.5562
 11
306
 21
29.4115
  0
LINE
  8
0
 10
306
 20
29.4115
 11
307.58
 21
30.4377
  0
LINE
  8
0
 10
307.58
 20
30.4377
 11
309.044
 21
31.6234
  0
LINE
  8
0
 10
309.044
 20
31.6234
 11
310.377
 21
32.9557
  0
LINE
  8
0
 10
310.377
 20
32.9557
 11
311.562
 21
34.4199
  0
LINE
  8
0
 10
311.562
 20
34.4199
 11
312.588
 21
36
  0
LINE
  8
0
 10
312.588
 20
36
 11
313.444
 21
37.6787
  0
LINE
  8
0
 10
313.444
 20
37.6787
 11
314.119
 21
39.4377
  0
LINE
  8
0
 10
314.119
 20
39.4377
 11
314.607
 21
41.2576
  0
LINE
  8
0
 10
314.607
 20
41.2576
 11
314.901
 21
43.1185
  0
LINE
  8
0
 10
314.901
 20
43.1185
 11
315
 21
45
  0
LINE
  8
0
 10
315
 20
45
 11
314.901
 21
46.8815
  0
LINE
  8
0
 10
314.901
 20
46.8815
 11
314.607
 21
48.7424
  0
LINE
  8
0
 10
314.607
 20
48.7424
 11
314.119
 21
50.5623
  0
LINE
  8
0
 10
314.119
 20
50.5623
 11
313.444
 21
52.3213
  0
LINE
  8
0
 10
313.444
 20
52.3213
 11
312.588
 21
54
  0
LINE
  8
0
 10
312.588
 20
54
 11
311.562
 21
55.5801
  0
LINE
  8
0
 10
311.562
 20
55.5801
 11
310.377
 21
57.0443
  0
LINE
  8
0
 10
310.377
 20
57.0443
 11
309.044
 21
58.3766
  0
LINE
  8
0
 10
309.044
 20
58.3766
 11
307.58
 21
59.5623
  0
LINE
  8
0
 10
307.58
 20
59.5623
 11
306
 21
60.5885
  0
LINE
  8
0
 10
306
 20
60.5885
 11
304.321
 21
61.4438
  0
LINE
  8
0
 10
304.321
 20
61.4438
 11
302.562
 21
62.119
  0
LINE
  8
0
 10
302.562
 20
62.119
 11
300.742
 21
62.6066
  0
LINE
  8
0
 10
300.742
 20
62.6066
 11
298.882
 21
62.9014
  0
LINE
  8
0
 10
298.882
 20
62.9014
 11
297
 21
63
  0
LINE
  8
0
 10
297
 20
63
 11
295.118
 21
62.9014
  0
LINE
  8
0
 10
295.118
 20
62.9014
 11
293.258
 21
62.6066
  0
LINE
  8
0
 10
293.258
 20
62.6066
 11
291.438
 21
62.119
  0
LINE
  8
0
 10
291.438
 20
62.119
 11
289.679
 21
61.4438
  0
LINE
  8
0
 10
289.679
 20
61.4438
 11
288
 21
60.5885
  0
LINE
  8
0
 10
288
 20
60.5885
 11
286.42
 21
59.5623
  0
LINE
  8
0
 10
286.42
 20
59.5623
 11
284.956
 21
58.3766
  0
LINE
  8
0
 10
284.956
 20
58.3766
 11
283.623
 21
57.0443
  0
LINE
  8
0
 10
283.623
 20
57.0443
 11
282.438
 21
55.5801
  0
LINE
  8
0
 10
282.438
 20
55.5801
 11
281.412
 21
54
  0
LINE
  8
0
 10
281.412
 20
54
 11
280.556
 21
52.3213
  0
LINE
  8
0
 10
280.556
 20
52.3213
 11
279.881
 21
50.5623
  0
LINE
  8
0
 10
279.881
 20
50.5623
 11
279.393
 21
48.7424
  0
LINE
  8
0
 10
279.393
 20
48.7424
 11
279.099
 21
46.8815
  0
LINE
  8
0
 10
279.099
 20
46.8815
 11
279
 21
45
  0
LINE
  8
0
 10
279
 20
45
 11
279.099
 21
43.1185
  0
LINE
  8
0
 10
279.099
 20
43.1185
 11
279.393
 21
41.2576
  0
LINE
  8
0
 10
279.393
 20
41.2576
 11
279.881
 21
39.4377
  0
LINE
  8
0
 10
279.881
 20
39.4377
 11
280.556
 21
37.6787
  0
LINE
  8
0
 10
280.556
 20
37.6787
 11
281.412
 21
36
  0
LINE
  8
0
 10
281.412
 20
36
 11
282.438
 21
34.4199
  0
LINE
  8
0
 10
282.438
 20
34.4199
 11
283.623
 21
32.9557
  0
LINE
  8
0
 10
283.623
 20
32.9557
 11
284.956
 21
31.6234
  0
LINE
  8
0
 10
284.956
 20
31.6234
 11
286.42
 21
30.4377
  0
LINE
  8
0
 10
286.42
 20
30.4377
 11
288
 21
29.4115
  0
LINE
  8
0
 10
288
 20
29.4115
 11
289.679
 21
28.5562
  0
LINE
  8
0
 10
289.679
 20
28.5562
 11
291.438
 21
27.881
  0
LINE
  8
0
 10
291.438
 20
27.881
 11
293.258
 21
27.3934
  0
LINE
  8
0
 10
293.258
 20
27.3934
 11
295.118
 21
27.0986
  0
LINE
  8
0
 10
295.118
 20
27.0986
 11
297
 21
27
  0
LINE
  8
0
 10
297
 20
27
 11
298.882
 21
27.0986
  0
LINE
  8
0
 10
313.277
 20
26.3645
 11
313.551
 21
26.4079
  0
LINE
  8
0
 10
313.551
 20
26.4079
 11
313.819
 21
26.4797
  0
LINE
  8
0
 10
313.819
 20
26.4797
 11
314.078
 21
26.5791
  0
LINE
  8
0
 10
314.078
 20
26.5791
 11
314.325
 21
26.705
  0
LINE
  8
0
 10
314.325
 20
26.705
 11
314.558
 21
26.8561
  0
LINE
  8
0
 10
314.558
 20
26.8561
 11
314.773
 21
27.0307
  0
LINE
  8
0
 10
314.773
 20
27.0307
 11
314.969
 21
27.2268
  0
LINE
  8
0
 10
314.969
 20
27.2268
 11
315.144
 21
27.4424
  0
LINE
  8
0
 10
315.144
 20
27.4424
 11
315.295
 21
27.675
  0
LINE
  8
0
 10
315.295
 20
27.675
 11
315.421
 21
27.9221
  0
LINE
  8
0
 10
315.421
 20
27.9221
 11
315.52
 21
28.1811
  0
LINE
  8
0
 10
315.52
 20
28.1811
 11
315.592
 21
28.449
  0
LINE
  8
0
 10
315.592
 20
28.449
 11
315.635
 21
28.723
  0
LINE
  8
0
 10
315.635
 20
28.723
 11
315.65
 21
29
  0
LINE
  8
0
 10
315.65
 20
29
 11
315.635
 21
29.277
  0
LINE
  8
0
 10
315.635
 20
29.277
 11
315.592
 21
29.551
  0
LINE
  8
0
 10
315.592
 20
29.551
 11
315.52
 21
29.8189
  0
LINE
  8
0
 10
315.52
 20
29.8189
 11
315.421
 21
30.0779
  0
LINE
  8
0
 10
315.421
 20
30.0779
 11
315.295
 21
30.325
  0
LINE
  8
0
 10
315.295
 20
30.325
 11
315.144
 21
30.5576
  0
LINE
  8
0
 10
315.144
 20
30.5576
 11
314.969
 21
30.7732
  0
LINE
  8
0
 10
314.969
 20
30.7732
 11
314.773
 21
30.9693
  0
LINE
  8
0
 10
314.773
 20
30.9693
 11
314.558
 21
31.1439
  0
LINE
  8
0
 10
314.558
 20
31.1439
 11
314.325
 21
31.295
  0
LINE
  8
0
 10
314.325
 20
31.295
 11
314.078
 21
31.4209
  0
LINE
  8
0
 10
314.078
 20
31.4209
 11
313.819
 21
31.5203
  0
LINE
  8
0
 10
313.819
 20
31.5203
 11
313.551
 21
31.5921
  0
LINE
  8
0
 10
313.551
 20
31.5921
 11
313.277
 21
31.6355
  0
LINE
  8
0
 10
313.277
 20
31.6355
 11
313
 21
31.65
  0
LINE
  8
0
 10
313
 20
31.65
 11
312.723
 21
31.6355
  0
LINE
  8
0
 10
312.723
 20
31.6355
 11
312.449
 21
31.5921
  0
LINE
  8
0
 10
312.449
 20
31.5921
 11
312.181
 21
31.5203
  0
LINE
  8
0
 10
312.181
 20
31.5203
 11
311.922
 21
31.4209
  0
LINE
  8
0
 10
311.922
 20
31.4209
 11
311.675
 21
31.295
  0
LINE
  8
0
 10
311.675
 20
31.295
 11
311.442
 21
31.1439
  0
LINE
  8
0
 10
311.442
 20
31.1439
 11
311.227
 21
30.9693
  0
LINE
  8
0
 10
311.227
 20
30.9693
 11
311.031
 21
30.7732
  0
LINE
  8
0
 10
311.031
 20
30.7732
 11
310.856
 21
30.5576
  0
LINE
  8
0
 10
310.856
 20
30.5576
 11
310.705
 21
30.325
  0
LINE
  8
0
 10
310.705
 20
30.325
 11
310.579
 21
30.0779
  0
LINE
  8
0
 10
310.579
 20
30.0779
 11
310.48
 21
29.8189
  0
LINE
  8
0
 10
310.48
 20
29.8189
 11
310.408
 21
29.551
  0
LINE
  8
0
 10
310.408
 20
29.551
 11
310.365
 21
29.277
  0
LINE
  8
0
 10
310.365
 20
29.277
 11
310.35
 21
29
  0
LINE
  8
0
 10
310.35
 20
29
 11
310.365
 21
28.723
  0
LINE
  8
0
 10
310.365
 20
28.723
 11
310.408
 21
28.449
  0
LINE
  8
0
 10
310.408
 20
28.449
 11
310.48
 21
28.1811
  0
LINE
  8
0
 10
310.48
 20
28.1811
 11
310.579
 21
27.9221
  0
LINE
  8
0
 10
310.579
 20
27.9221
 11
310.705
 21
27.675
  0
LINE
  8
0
 10
310.705
 20
27.675
 11
310.856
 21
27.4424
  0
LINE
  8
0
 10
310.856
 20
27.4424
 11
311.031
 21
27.2268
  0
LINE
  8
0
 10
311.031
 20
27.2268
 11
311.227
 21
27.0307
  0
LINE
  8
0
 10
311.227
 20
27.0307
 11
311.442
 21
26.8561
  0
LINE
  8
0
 10
311.442
 20
26.8561
 11
311.675
 21
26.705
  0
LINE
  8
0
 10
311.675
 20
26.705
 11
311.922
 21
26.5791
  0
LINE
  8
0
 10
311.922
 20
26.5791
 11
312.181
 21
26.4797
  0
LINE
  8
0
 10
312.181
 20
26.4797
 11
312.449
 21
26.4079
  0
LINE
  8
0
 10
312.449
 20
26.4079
 11
312.723
 21
26.3645
  0
LINE
  8
0
 10
312.723
 20
26.3645
 11
313
 21
26.35
  0
LINE
  8
0
 10
313
 20
26.35
 11
313.277
 21
26.3645
  0
LINE
  8
0
 10
281.277
 20
26.3645
 11
281.551
 21
26.4079
  0
LINE
  8
0
 10
281.551
 20
26.4079
 11
281.819
 21
26.4797
  0
LINE
  8
0
 10
281.819
 20
26.4797
 11
282.078
 21
26.5791
  0
LINE
  8
0
 10
282.078
 20
26.5791
 11
282.325
 21
26.705
  0
LINE
  8
0
 10
282.325
 20
26.705
 11
282.558
 21
26.8561
  0
LINE
  8
0
 10
282.558
 20
26.8561
 11
282.773
 21
27.0307
  0
LINE
  8
0
 10
282.773
 20
27.0307
 11
282.969
 21
27.2268
  0
LINE
  8
0
 10
282.969
 20
27.2268
 11
283.144
 21
27.4424
  0
LINE
  8
0
 10
283.144
 20
27.4424
 11
283.295
 21
27.675
  0
LINE
  8
0
 10
283.295
 20
27.675
 11
283.421
 21
27.9221
  0
LINE
  8
0
 10
283.421
 20
27.9221
 11
283.52
 21
28.1811
  0
LINE
  8
0
 10
283.52
 20
28.1811
 11
283.592
 21
28.449
  0
LINE
  8
0
 10
283.592
 20
28.449
 11
283.635
 21
28.723
  0
LINE
  8
0
 10
283.635
 20
28.723
 11
283.65
 21
29
  0
LINE
  8
0
 10
283.65
 20
29
 11
283.635
 21
29.277
  0
LINE
  8
0
 10
283.635
 20
29.277
 11
283.592
 21
29.551
  0
LINE
  8
0
 10
283.592
 20
29.551
 11
283.52
 21
29.8189
  0
LINE
  8
0
 10
283.52
 20
29.8189
 11
283.421
 21
30.0779
  0
LINE
  8
0
 10
283.421
 20
30.0779
 11
283.295
 21
30.325
  0
LINE
  8
0
 10
283.295
 20
30.325
 11
283.144
 21
30.5576
  0
LINE
  8
0
 10
283.144
 20
30.5576
 11
282.969
 21
30.7732
  0
LINE
  8
0
 10
282.969
 20
30.7732
 11
282.773
 21
30.9693
  0
LINE
  8
0
 10
282.773
 20
30.9693
 11
282.558
 21
31.1439
  0
LINE
  8
0
 10
282.558
 20
31.1439
 11
282.325
 21
31.295
  0
LINE
  8
0
 10
282.325
 20
31.295
 11
282.078
 21
31.4209
  0
LINE
  8
0
 10
282.078
 20
31.4209
 11
281.819
 21
31.5203
  0
LINE
  8
0
 10
281.819
 20
31.5203
 11
281.551
 21
31.5921
  0
LINE
  8
0
 10
281.551
 20
31.5921
 11
281.277
 21
31.6355
  0
LINE
  8
0
 10
281.277
 20
31.6355
 11
281
 21
31.65
  0
LINE
  8
0
 10
281
 20
31.65
 11
280.723
 21
31.6355
  0
LINE
  8
0
 10
280.723
 20
31.6355
 11
280.449
 21
31.5921
  0
LINE
  8
0
 10
280.449
 20
31.5921
 11
280.181
 21
31.5203
  0
LINE
  8
0
 10
280.181
 20
31.5203
 11
279.922
 21
31.4209
  0
LINE
  8
0
 10
279.922
 20
31.4209
 11
279.675
 21
31.295
  0
LINE
  8
0
 10
279.675
 20
31.295
 11
279.442
 21
31.1439
  0
LINE
  8
0
 10
279.442
 20
31.1439
 11
279.227
 21
30.9693
  0
LINE
  8
0
 10
279.227
 20
30.9693
 11
279.031
 21
30.7732
  0
LINE
  8
0
 10
279.031
 20
30.7732
 11
278.856
 21
30.5576
  0
LINE
  8
0
 10
278.856
 20
30.5576
 11
278.705
 21
30.325
  0
LINE
  8
0
 10
278.705
 20
30.325
 11
278.579
 21
30.0779
  0
LINE
  8
0
 10
278.579
 20
30.0779
 11
278.48
 21
29.8189
  0
LINE
  8
0
 10
278.48
 20
29.8189
 11
278.408
 21
29.551
  0
LINE
  8
0
 10
278.408
 20
29.551
 11
278.365
 21
29.277
  0
LINE
  8
0
 10
278.365
 20
29.277
 11
278.35
 21
29
  0
LINE
  8
0
 10
278.35
 20
29
 11
278.365
 21
28.723
  0
LINE
  8
0
 10
278.365
 20
28.723
 11
278.408
 21
28.449
  0
LINE
  8
0
 10
278.408
 20
28.449
 11
278.48
 21
28.1811
  0
LINE
  8
0
 10
278.48
 20
28.1811
 11
278.579
 21
27.9221
  0
LINE
  8
0
 10
278.579
 20
27.9221
 11
278.705
 21
27.675
  0
LINE
  8
0
 10
278.705
 20
27.675
 11
278.856
 21
27.4424
  0
LINE
  8
0
 10
278.856
 20
27.4424
 11
279.031
 21
27.2268
  0
LINE
  8
0
 10
279.031
 20
27.2268
 11
279.227
 21
27.0307
  0
LINE
  8
0
 10
279.227
 20
27.0307
 11
279.442
 21
26.8561
  0
LINE
  8
0
 10
279.442
 20
26.8561
 11
279.675
 21
26.705
  0
LINE
  8
0
 10
279.675
 20
26.705
 11
279.922
 21
26.5791
  0
LINE
  8
0
 10
279.922
 20
26.5791
 11
280.181
 21
26.4797
  0
LINE
  8
0
 10
280.181
 20
26.4797
 11
280.449
 21
26.4079
  0
LINE
  8
0
 10
280.449
 20
26.4079
 11
280.723
 21
26.3645
  0
LINE
  8
0
 10
280.723
 20
26.3645
 11
281
 21
26.35
  0
LINE
  8
0
 10
281
 20
26.35
 11
281.277
 21
26.3645
  0
LINE
  8
0
 10
-7
 20
27.8571
 11
-10
 21
27.8571
  0
LINE
  8
0
 10
-10
 20
27.8571
 11
-10
 21
40.7143
  0
LINE
  8
0
 10
-10
 20
40.7143
 11
-7
 21
40.7143
  0
LINE
  8
0
 10
-7
 20
40.7143
 11
-7
 21
53.5714
  0
LINE
  8
0
 10
-7
 20
53.5714
 11
-10
 21
53.5714
  0
LINE
  8
0
 10
-10
 20
53.5714
 11
-10
 21
66.4286
  0
LINE
  8
0
 10
-10
 20
66.4286
 11
-7
 21
66.4286
  0
LINE
  8
0
 10
-7
 20
66.4286
 11
-7
 21
79.2857
  0
LINE
  8
0
 10
-7
 20
79.2857
 11
-10
 21
79.2857
  0
LINE
  8
0
 10
-10
 20
79.2857
 11
-10
 21
92.1429
  0
LINE
  8
0
 10
-10
 20
92.1429
 11
-7
 21
92.1429
  0
LINE
  8
0
 10
-7
 20
92.1429
 11
-7
 21
105
  0
LINE
  8
0
 10
-7
 20
105
 11
-67
 21
105
  0
LINE
  8
0
 10
-67
 20
105
 11
-67
 21
92.1429
  0
LINE
  8
0
 10
-67
 20
92.1429
 11
-64
 21
92.1429
  0
LINE
  8
0
 10
-64
 20
92.1429
 11
-64
 21
79.2857
  0
LINE
  8
0
 10
-64
 20
79.2857
 11
-67
 21
79.2857
  0
LINE
  8
0
 10
-67
 20
79.2857
 11
-67
 21
66.4286
  0
LINE
  8
0
 10
-67
 20
66.4286
 11
-64
 21
66.4286
  0
LINE
  8
0
 10
-64
 20
66.4286
 11
-64
 21
53.5714
  0
LINE
  8
0
 10
-64
 20
53.5714
 11
-67
 21
53.5714
  0
LINE
  8
0
 10
-67
 20
53.5714
 11
-67
 21
40.7143
  0
LINE
  8
0
 10
-67
 20
40.7143
 11
-64
 21
40.7143
  0
LINE
  8
0
 10
-64
 20
40.7143
 11
-64
 21
27.8571
  0
LINE
  8
0
 10
-64
 20
27.8571
 11
-67
 21
27.8571
  0
LINE
  8
0
 10
-67
 20
27.8571
 11
-67
 21
15
  0
LINE
  8
0
 10
-67
 20
15
 11
-7
 21
15
  0
LINE
  8
0
 10
-7
 20
15
 11
-7
 21
27.8571
  0
LINE
  8
0
 10
-49.925
 20
75.7017
 11
-52.3508
 21
77.8859
  0
LINE
  8
0
 10
-52.3508
 20
77.8859
 11
-53.25
 21
79.9056
  0
LINE
  8
0
 10
-53.25
 20
79.9056
 11
-53.25
 21
85.0944
  0
LINE
  8
0
 10
-53.25
 20
85.0944
 11
-52.3508
 21
87.1141
  0
LINE
  8
0
 10
-52.3508
 20
87.1141
 11
-49.925
 21
89.2983
  0
LINE
  8
0
 10
-49.925
 20
89.2983
 11
-46.8205
 21
90.307
  0
LINE
  8
0
 10
-46.8205
 20
90.307
 11
-43.5742
 21
89.9658
  0
LINE
  8
0
 10
-43.5742
 20
89.9658
 11
-40.7473
 21
88.3337
  0
LINE
  8
0
 10
-40.7473
 20
88.3337
 11
-38.8287
 21
85.6929
  0
LINE
  8
0
 10
-38.8287
 20
85.6929
 11
-38.75
 21
85.3227
  0
LINE
  8
0
 10
-38.75
 20
85.3227
 11
-38.75
 21
79.6773
  0
LINE
  8
0
 10
-38.75
 20
79.6773
 11
-38.8287
 21
79.3071
  0
LINE
  8
0
 10
-38.8287
 20
79.3071
 11
-40.7473
 21
76.6663
  0
LINE
  8
0
 10
-40.7473
 20
76.6663
 11
-43.5742
 21
75.0342
  0
LINE
  8
0
 10
-43.5742
 20
75.0342
 11
-46.8205
 21
74.693
  0
LINE
  8
0
 10
-46.8205
 20
74.693
 11
-49.925
 21
75.7017
  0
LINE
  8
0
 10
-29.975
 20
79.0792
 11
-31.1956
 21
80.1782
  0
LINE
  8
0
 10
-31.1956
 20
80.1782
 11
-31.8637
 21
81.6787
  0
LINE
  8
0
 10
-31.8637
 20
81.6787
 11
-31.8637
 21
83.3212
  0
LINE
  8
0
 10
-31.8637
 20
83.3212
 11
-31.1956
 21
84.8217
  0
LINE
  8
0
 10
-31.1956
 20
84.8217
 11
-29.975
 21
85.9208
  0
LINE
  8
0
 10
-29.975
 20
85.9208
 11
-28.4129
 21
86.4284
  0
LINE
  8
0
 10
-28.4129
 20
86.4284
 11
-26.7794
 21
86.2567
  0
LINE
  8
0
 10
-26.7794
 20
86.2567
 11
-25.3569
 21
85.4354
  0
LINE
  8
0
 10
-25.3569
 20
85.4354
 11
-24.3915
 21
84.1066
  0
LINE
  8
0
 10
-24.3915
 20
84.1066
 11
-24.05
 21
82.5
  0
LINE
  8
0
 10
-24.05
 20
82.5
 11
-24.3915
 21
80.8934
  0
LINE
  8
0
 10
-24.3915
 20
80.8934
 11
-25.3569
 21
79.5646
  0
LINE
  8
0
 10
-25.3569
 20
79.5646
 11
-26.7794
 21
78.7433
  0
LINE
  8
0
 10
-26.7794
 20
78.7433
 11
-28.4129
 21
78.5716
  0
LINE
  8
0
 10
-28.4129
 20
78.5716
 11
-29.975
 21
79.0792
  0
LINE
  8
0
 10
-49.925
 20
53.2017
 11
-52.3508
 21
55.3859
  0
LINE
  8
0
 10
-52.3508
 20
55.3859
 11
-53.25
 21
57.4056
  0
LINE
  8
0
 10
-53.25
 20
57.4056
 11
-53.25
 21
62.5944
  0
LINE
  8
0
 10
-53.25
 20
62.5944
 11
-52.3508
 21
64.6141
  0
LINE
  8
0
 10
-52.3508
 20
64.6141
 11
-49.925
 21
66.7983
  0
LINE
  8
0
 10
-49.925
 20
66.7983
 11
-46.8205
 21
67.807
  0
LINE
  8
0
 10
-46.8205
 20
67.807
 11
-43.5742
 21
67.4658
  0
LINE
  8
0
 10
-43.5742
 20
67.4658
 11
-40.7473
 21
65.8337
  0
LINE
  8
0
 10
-40.7473
 20
65.8337
 11
-38.8287
 21
63.1929
  0
LINE
  8
0
 10
-38.8287
 20
63.1929
 11
-38.75
 21
62.8227
  0
LINE
  8
0
 10
-38.75
 20
62.8227
 11
-38.75
 21
57.1773
  0
LINE
  8
0
 10
-38.75
 20
57.1773
 11
-38.8287
 21
56.8071
  0
LINE
  8
0
 10
-38.8287
 20
56.8071
 11
-40.7473
 21
54.1663
  0
LINE
  8
0
 10
-40.7473
 20
54.1663
 11
-43.5742
 21
52.5342
  0
LINE
  8
0
 10
-43.5742
 20
52.5342
 11
-46.8205
 21
52.193
  0
LINE
  8
0
 10
-46.8205
 20
52.193
 11
-49.925
 21
53.2017
  0
LINE
  8
0
 10
-29.975
 20
56.5792
 11
-31.1956
 21
57.6782
  0
LINE
  8
0
 10
-31.1956
 20
57.6782
 11
-31.8637
 21
59.1787
  0
LINE
  8
0
 10
-31.8637
 20
59.1787
 11
-31.8637
 21
60.8212
  0
LINE
  8
0
 10
-31.8637
 20
60.8212
 11
-31.1956
 21
62.3217
  0
LINE
  8
0
 10
-31.1956
 20
62.3217
 11
-29.975
 21
63.4208
  0
LINE
  8
0
 10
-29.975
 20
63.4208
 11
-28.4129
 21
63.9284
  0
LINE
  8
0
 10
-28.4129
 20
63.9284
 11
-26.7794
 21
63.7567
  0
LINE
  8
0
 10
-26.7794
 20
63.7567
 11
-25.3569
 21
62.9354
  0
LINE
  8
0
 10
-25.3569
 20
62.9354
 11
-24.3915
 21
61.6066
  0
LINE
  8
0
 10
-24.3915
 20
61.6066
 11
-24.05
 21
60
  0
LINE
  8
0
 10
-24.05
 20
60
 11
-24.3915
 21
58.3934
  0
LINE
  8
0
 10
-24.3915
 20
58.3934
 11
-25.3569
 21
57.0646
  0
LINE
  8
0
 10
-25.3569
 20
57.0646
 11
-26.7794
 21
56.2433
  0
LINE
  8
0
 10
-26.7794
 20
56.2433
 11
-28.4129
 21
56.0716
  0
LINE
  8
0
 10
-28.4129
 20
56.0716
 11
-29.975
 21
56.5792
  0
LINE
  8
0
 10
-49.925
 20
30.7017
 11
-52.3508
 21
32.8859
  0
LINE
  8
0
 10
-52.3508
 20
32.8859
 11
-53.25
 21
34.9056
  0
LINE
  8
0
 10
-53.25
 20
34.9056
 11
-53.25
 21
40.0944
  0
LINE
  8
0
 10
-53.25
 20
40.0944
 11
-52.3508
 21
42.1141
  0
LINE
  8
0
 10
-52.3508
 20
42.1141
 11
-49.925
 21
44.2983
  0
LINE
  8
0
 10
-49.925
 20
44.2983
 11
-46.8205
 21
45.307
  0
LINE
  8
0
 10
-46.8205
 20
45.307
 11
-43.5742
 21
44.9658
  0
LINE
  8
0
 10
-43.5742
 20
44.9658
 11
-40.7473
 21
43.3337
  0
LINE
  8
0
 10
-40.7473
 20
43.3337
 11
-38.8287
 21
40.6929
  0
LINE
  8
0
 10
-38.8287
 20
40.6929
 11
-38.75
 21
40.3227
  0
LINE
  8
0
 10
-38.75
 20
40.3227
 11
-38.75
 21
34.6773
  0
LINE
  8
0
 10
-38.75
 20
34.6773
 11
-38.8287
 21
34.3071
  0
LINE
  8
0
 10
-38.8287
 20
34.3071
 11
-40.7473
 21
31.6663
  0
LINE
  8
0
 10
-40.7473
 20
31.6663
 11
-43.5742
 21
30.0342
  0
LINE
  8
0
 10
-43.5742
 20
30.0342
 11
-46.8205
 21
29.693
  0
LINE
  8
0
 10
-46.8205
 20
29.693
 11
-49.925
 21
30.7017
  0
LINE
  8
0
 10
-29.975
 20
34.0792
 11
-31.1956
 21
35.1782
  0
LINE
  8
0
 10
-31.1956
 20
35.1782
 11
-31.8637
 21
36.6787
  0
LINE
  8
0
 10
-31.8637
 20
36.6787
 11
-31.8637
 21
38.3212
  0
LINE
  8
0
 10
-31.8637
 20
38.3212
 11
-31.1956
 21
39.8217
  0
LINE
  8
0
 10
-31.1956
 20
39.8217
 11
-29.975
 21
40.9208
  0
LINE
  8
0
 10
-29.975
 20
40.9208
 11
-28.4129
 21
41.4284
  0
LINE
  8
0
 10
-28.4129
 20
41.4284
 11
-26.7794
 21
41.2567
  0
LINE
  8
0
 10
-26.7794
 20
41.2567
 11
-25.3569
 21
40.4354
  0
LINE
  8
0
 10
-25.3569
 20
40.4354
 11
-24.3915
 21
39.1066
  0
LINE
  8
0
 10
-24.3915
 20
39.1066
 11
-24.05
 21
37.5
  0
LINE
  8
0
 10
-24.05
 20
37.5
 11
-24.3915
 21
35.8934
  0
LINE
  8
0
 10
-24.3915
 20
35.8934
 11
-25.3569
 21
34.5646
  0
LINE
  8
0
 10
-25.3569
 20
34.5646
 11
-26.7794
 21
33.7433
  0
LINE
  8
0
 10
-26.7794
 20
33.7433
 11
-28.4129
 21
33.5716
  0
LINE
  8
0
 10
-28.4129
 20
33.5716
 11
-29.975
 21
34.0792
  0
LINE
  8
0
 10
35.9091
 20
-64
 11
56.8182
 21
-64
  0
LINE
  8
0
 10
56.8182
 20
-64
 11
56.8182
 21
-67
  0
LINE
  8
0
 10
56.8182
 20
-67
 11
77.7273
 21
-67
  0
LINE
  8
0
 10
77.7273
 20
-67
 11
77.7273
 21
-64
  0
LINE
  8
0
 10
77.7273
 20
-64
 11
98.6364
 21
-64
  0
LINE
  8
0
 10
98.6364
 20
-64
 11
98.6364
 21
-67
  0
LINE
  8
0
 10
98.6364
 20
-67
 11
119.545
 21
-67
  0
LINE
  8
0
 10
119.545
 20
-67
 11
119.545
 21
-64
  0
LINE
  8
0
 10
119.545
 20
-64
 11
140.455
 21
-64
  0
LINE
  8
0
 10
140.455
 20
-64
 11
140.455
 21
-67
  0
LINE
  8
0
 10
140.455
 20
-67
 11
161.364
 21
-67
  0
LINE
  8
0
 10
161.364
 20
-67
 11
161.364
 21
-64
  0
LINE
  8
0
 10
161.364
 20
-64
 11
182.273
 21
-64
  0
LINE
  8
0
 10
182.273
 20
-64
 11
182.273
 21
-67
  0
LINE
  8
0
 10
182.273
 20
-67
 11
203.182
 21
-67
  0
LINE
  8
0
 10
203.182
 20
-67
 11
203.182
 21
-64
  0
LINE
  8
0
 10
203.182
 20
-64
 11
224.091
 21
-64
  0
LINE
  8
0
 10
224.091
 20
-64
 11
224.091
 21
-67
  0
LINE
  8
0
 10
224.091
 20
-67
 11
245
 21
-67
  0
LINE
  8
0
 10
245
 20
-67
 11
245
 21
-7
  0
LINE
  8
0
 10
245
 20
-7
 11
224.091
 21
-7
  0
LINE
  8
0
 10
224.091
 20
-7
 11
224.091
 21
-10
  0
LINE
  8
0
 10
224.091
 20
-10
 11
203.182
 21
-10
  0
LINE
  8
0
 10
203.182
 20
-10
 11
203.182
 21
-7
  0
LINE
  8
0
 10
203.182
 20
-7
 11
182.273
 21
-7
  0
LINE
  8
0
 10
182.273
 20
-7
 11
182.273
 21
-10
  0
LINE
  8
0
 10
182.273
 20
-10
 11
161.364
 21
-10
  0
LINE
  8
0
 10
161.364
 20
-10
 11
161.364
 21
-7
  0
LINE
  8
0
 10
161.364
 20
-7
 11
140.455
 21
-7
  0
LINE
  8
0
 10
140.455
 20
-7
 11
140.455
 21
-10
  0
LINE
  8
0
 10
140.455
 20
-10
 11
119.545
 21
-10
  0
LINE
  8
0
 10
119.545
 20
-10
 11
119.545
 21
-7
  0
LINE
  8
0
 10
119.545
 20
-7
 11
98.6364
 21
-7
  0
LINE
  8
0
 10
98.6364
 20
-7
 11
98.6364
 21
-10
  0
LINE
  8
0
 10
98.6364
 20
-10
 11
77.7273
 21
-10
  0
LINE
  8
0
 10
77.7273
 20
-10
 11
77.7273
 21
-7
  0
LINE
  8
0
 10
77.7273
 20
-7
 11
56.8182
 21
-7
  0
LINE
  8
0
 10
56.8182
 20
-7
 11
56.8182
 21
-10
  0
LINE
  8
0
 10
56.8182
 20
-10
 11
35.9091
 21
-10
  0
LINE
  8
0
 10
35.9091
 20
-10
 11
35.9091
 21
-7
  0
LINE
  8
0
 10
35.9091
 20
-7
 11
15
 21
-7
  0
LINE
  8
0
 10
15
 20
-7
 11
15
 21
-67
  0
LINE
  8
0
 10
15
 20
-67
 11
35.9091
 21
-67
  0
LINE
  8
0
 10
35.9091
 20
-67
 11
35.9091
 21
-64
  0
LINE
  8
0
 10
56.3333
 20
-17.0981
 11
55.4063
 21
-16.2634
  0
LINE
  8
0
 10
55.4063
 20
-16.2634
 11
54.8989
 21
-15.1237
  0
LINE
  8
0
 10
54.8989
 20
-15.1237
 11
54.8989
 21
-13.8763
  0
LINE
  8
0
 10
54.8989
 20
-13.8763
 11
55.4063
 21
-12.7366
  0
LINE
  8
0
 10
55.4063
 20
-12.7366
 11
56.3333
 21
-11.9019
  0
LINE
  8
0
 10
56.3333
 20
-11.9019
 11
57.5197
 21
-11.5164
  0
LINE
  8
0
 10
57.5197
 20
-11.5164
 11
58.7604
 21
-11.6468
  0
LINE
  8
0
 10
58.7604
 20
-11.6468
 11
59.8407
 21
-12.2706
  0
LINE
  8
0
 10
59.8407
 20
-12.2706
 11
60.574
 21
-13.2798
  0
LINE
  8
0
 10
60.574
 20
-13.2798
 11
60.8333
 21
-14.5
  0
LINE
  8
0
 10
60.8333
 20
-14.5
 11
60.574
 21
-15.7202
  0
LINE
  8
0
 10
60.574
 20
-15.7202
 11
59.8407
 21
-16.7294
  0
LINE
  8
0
 10
59.8407
 20
-16.7294
 11
58.7604
 21
-17.3532
  0
LINE
  8
0
 10
58.7604
 20
-17.3532
 11
57.5197
 21
-17.4836
  0
LINE
  8
0
 10
57.5197
 20
-17.4836
 11
56.3333
 21
-17.0981
  0
LINE
  8
0
 10
47.3333
 20
-17.0981
 11
46.4063
 21
-16.2634
  0
LINE
  8
0
 10
46.4063
 20
-16.2634
 11
45.8989
 21
-15.1237
  0
LINE
  8
0
 10
45.8989
 20
-15.1237
 11
45.8989
 21
-13.8763
  0
LINE
  8
0
 10
45.8989
 20
-13.8763
 11
46.4063
 21
-12.7366
  0
LINE
  8
0
 10
46.4063
 20
-12.7366
 11
47.3333
 21
-11.9019
  0
LINE
  8
0
 10
47.3333
 20
-11.9019
 11
48.5197
 21
-11.5164
  0
LINE
  8
0
 10
48.5197
 20
-11.5164
 11
49.7604
 21
-11.6468
  0
LINE
  8
0
 10
49.7604
 20
-11.6468
 11
50.8407
 21
-12.2706
  0
LINE
  8
0
 10
50.8407
 20
-12.2706
 11
51.574
 21
-13.2798
  0
LINE
  8
0
 10
51.574
 20
-13.2798
 11
51.8333
 21
-14.5
  0
LINE
  8
0
 10
51.8333
 20
-14.5
 11
51.574
 21
-15.7202
  0
LINE
  8
0
 10
51.574
 20
-15.7202
 11
50.8407
 21
-16.7294
  0
LINE
  8
0
 10
50.8407
 20
-16.7294
 11
49.7604
 21
-17.3532
  0
LINE
  8
0
 10
49.7604
 20
-17.3532
 11
48.5197
 21
-17.4836
  0
LINE
  8
0
 10
48.5197
 20
-17.4836
 11
47.3333
 21
-17.0981
  0
LINE
  8
0
 10
38.3333
 20
-17.0981
 11
37.4063
 21
-16.2634
  0
LINE
  8
0
 10
37.4063
 20
-16.2634
 11
36.8989
 21
-15.1237
  0
LINE
  8
0
 10
36.8989
 20
-15.1237
 11
36.8989
 21
-13.8763
  0
LINE
  8
0
 10
36.8989
 20
-13.8763
 11
37.4063
 21
-12.7366
  0
LINE
  8
0
 10
37.4063
 20
-12.7366
 11
38.3333
 21
-11.9019
  0
LINE
  8
0
 10
38.3333
 20
-11.9019
 11
39.5197
 21
-11.5164
  0
LINE
  8
0
 10
39.5197
 20
-11.5164
 11
40.7604
 21
-11.6468
  0
LINE
  8
0
 10
40.7604
 20
-11.6468
 11
41.8407
 21
-12.2706
  0
LINE
  8
0
 10
41.8407
 20
-12.2706
 11
42.574
 21
-13.2798
  0
LINE
  8
0
 10
42.574
 20
-13.2798
 11
42.8333
 21
-14.5
  0
LINE
  8
0
 10
42.8333
 20
-14.5
 11
42.574
 21
-15.7202
  0
LINE
  8
0
 10
42.574
 20
-15.7202
 11
41.8407
 21
-16.7294
  0
LINE
  8
0
 10
41.8407
 20
-16.7294
 11
40.7604
 21
-17.3532
  0
LINE
  8
0
 10
40.7604
 20
-17.3532
 11
39.5197
 21
-17.4836
  0
LINE
  8
0
 10
39.5197
 20
-17.4836
 11
38.3333
 21
-17.0981
  0
LINE
  8
0
 10
29.3333
 20
-17.0981
 11
28.4063
 21
-16.2634
  0
LINE
  8
0
 10
28.4063
 20
-16.2634
 11
27.8989
 21
-15.1237
  0
LINE
  8
0
 10
27.8989
 20
-15.1237
 11
27.8989
 21
-13.8763
  0
LINE
  8
0
 10
27.8989
 20
-13.8763
 11
28.4063
 21
-12.7366
  0
LINE
  8
0
 10
28.4063
 20
-12.7366
 11
29.3333
 21
-11.9019
  0
LINE
  8
0
 10
29.3333
 20
-11.9019
 11
30.5197
 21
-11.5164
  0
LINE
  8
0
 10
30.5197
 20
-11.5164
 11
31.7604
 21
-11.6468
  0
LINE
  8
0
 10
31.7604
 20
-11.6468
 11
32.8407
 21
-12.2706
  0
LINE
  8
0
 10
32.8407
 20
-12.2706
 11
33.574
 21
-13.2798
  0
LINE
  8
0
 10
33.574
 20
-13.2798
 11
33.8333
 21
-14.5
  0
LINE
  8
0
 10
33.8333
 20
-14.5
 11
33.574
 21
-15.7202
  0
LINE
  8
0
 10
33.574
 20
-15.7202
 11
32.8407
 21
-16.7294
  0
LINE
  8
0
 10
32.8407
 20
-16.7294
 11
31.7604
 21
-17.3532
  0
LINE
  8
0
 10
31.7604
 20
-17.3532
 11
30.5197
 21
-17.4836
  0
LINE
  8
0
 10
30.5197
 20
-17.4836
 11
29.3333
 21
-17.0981
  0
LINE
  8
0
 10
20.3333
 20
-17.0981
 11
19.4063
 21
-16.2634
  0
LINE
  8
0
 10
19.4063
 20
-16.2634
 11
18.8989
 21
-15.1237
  0
LINE
  8
0
 10
18.8989
 20
-15.1237
 11
18.8989
 21
-13.8763
  0
LINE
  8
0
 10
18.8989
 20
-13.8763
 11
19.4063
 21
-12.7366
  0
LINE
  8
0
 10
19.4063
 20
-12.7366
 11
20.3333
 21
-11.9019
  0
LINE
  8
0
 10
20.3333
 20
-11.9019
 11
21.5197
 21
-11.5164
  0
LINE
  8
0
 10
21.5197
 20
-11.5164
 11
22.7604
 21
-11.6468
  0
LINE
  8
0
 10
22.7604
 20
-11.6468
 11
23.8407
 21
-12.2706
  0
LINE
  8
0
 10
23.8407
 20
-12.2706
 11
24.574
 21
-13.2798
  0
LINE
  8
0
 10
24.574
 20
-13.2798
 11
24.8333
 21
-14.5
  0
LINE
  8
0
 10
24.8333
 20
-14.5
 11
24.574
 21
-15.7202
  0
LINE
  8
0
 10
24.574
 20
-15.7202
 11
23.8407
 21
-16.7294
  0
LINE
  8
0
 10
23.8407
 20
-16.7294
 11
22.7604
 21
-17.3532
  0
LINE
  8
0
 10
22.7604
 20
-17.3532
 11
21.5197
 21
-17.4836
  0
LINE
  8
0
 10
21.5197
 20
-17.4836
 11
20.3333
 21
-17.0981
  0
LINE
  8
0
 10
83.3333
 20
-17.0981
 11
82.4063
 21
-16.2634
  0
LINE
  8
0
 10
82.4063
 20
-16.2634
 11
81.8989
 21
-15.1237
  0
LINE
  8
0
 10
81.8989
 20
-15.1237
 11
81.8989
 21
-13.8763
  0
LINE
  8
0
 10
81.8989
 20
-13.8763
 11
82.4063
 21
-12.7366
  0
LINE
  8
0
 10
82.4063
 20
-12.7366
 11
83.3333
 21
-11.9019
  0
LINE
  8
0
 10
83.3333
 20
-11.9019
 11
84.5197
 21
-11.5164
  0
LINE
  8
0
 10
84.5197
 20
-11.5164
 11
85.7604
 21
-11.6468
  0
LINE
  8
0
 10
85.7604
 20
-11.6468
 11
86.8407
 21
-12.2706
  0
LINE
  8
0
 10
86.8407
 20
-12.2706
 11
87.574
 21
-13.2798
  0
LINE
  8
0
 10
87.574
 20
-13.2798
 11
87.8333
 21
-14.5
  0
LINE
  8
0
 10
87.8333
 20
-14.5
 11
87.574
 21
-15.7202
  0
LINE
  8
0
 10
87.574
 20
-15.7202
 11
86.8407
 21
-16.7294
  0
LINE
  8
0
 10
86.8407
 20
-16.7294
 11
85.7604
 21
-17.3532
  0
LINE
  8
0
 10
85.7604
 20
-17.3532
 11
84.5197
 21
-17.4836
  0
LINE
  8
0
 10
84.5197
 20
-17.4836
 11
83.3333
 21
-17.0981
  0
LINE
  8
0
 10
74.3333
 20
-17.0981
 11
73.4063
 21
-16.2634
  0
LINE
  8
0
 10
73.4063
 20
-16.2634
 11
72.8989
 21
-15.1237
  0
LINE
  8
0
 10
72.8989
 20
-15.1237
 11
72.8989
 21
-13.8763
  0
LINE
  8
0
 10
72.8989
 20
-13.8763
 11
73.4063
 21
-12.7366
  0
LINE
  8
0
 10
73.4063
 20
-12.7366
 11
74.3333
 21
-11.9019
  0
LINE
  8
0
 10
74.3333
 20
-11.9019
 11
75.5197
 21
-11.5164
  0
LINE
  8
0
 10
75.5197
 20
-11.5164
 11
76.7604
 21
-11.6468
  0
LINE
  8
0
 10
76.7604
 20
-11.6468
 11
77.8407
 21
-12.2706
  0
LINE
  8
0
 10
77.8407
 20
-12.2706
 11
78.574
 21
-13.2798
  0
LINE
  8
0
 10
78.574
 20
-13.2798
 11
78.8333
 21
-14.5
  0
LINE
  8
0
 10
78.8333
 20
-14.5
 11
78.574
 21
-15.7202
  0
LINE
  8
0
 10
78.574
 20
-15.7202
 11
77.8407
 21
-16.7294
  0
LINE
  8
0
 10
77.8407
 20
-16.7294
 11
76.7604
 21
-17.3532
  0
LINE
  8
0
 10
76.7604
 20
-17.3532
 11
75.5197
 21
-17.4836
  0
LINE
  8
0
 10
75.5197
 20
-17.4836
 11
74.3333
 21
-17.0981
  0
LINE
  8
0
 10
65.3333
 20
-17.0981
 11
64.4063
 21
-16.2634
  0
LINE
  8
0
 10
64.4063
 20
-16.2634
 11
63.8989
 21
-15.1237
  0
LINE
  8
0
 10
63.8989
 20
-15.1237
 11
63.8989
 21
-13.8763
  0
LINE
  8
0
 10
63.8989
 20
-13.8763
 11
64.4063
 21
-12.7366
  0
LINE
  8
0
 10
64.4063
 20
-12.7366
 11
65.3333
 21
-11.9019
  0
LINE
  8
0
 10
65.3333
 20
-11.9019
 11
66.5197
 21
-11.5164
  0
LINE
  8
0
 10
66.5197
 20
-11.5164
 11
67.7604
 21
-11.6468
  0
LINE
  8
0
 10
67.7604
 20
-11.6468
 11
68.8407
 21
-12.2706
  0
LINE
  8
0
 10
68.8407
 20
-12.2706
 11
69.574
 21
-13.2798
  0
LINE
  8
0
 10
69.574
 20
-13.2798
 11
69.8333
 21
-14.5
  0
LINE
  8
0
 10
69.8333
 20
-14.5
 11
69.574
 21
-15.7202
  0
LINE
  8
0
 10
69.574
 20
-15.7202
 11
68.8407
 21
-16.7294
  0
LINE
  8
0
 10
68.8407
 20
-16.7294
 11
67.7604
 21
-17.3532
  0
LINE
  8
0
 10
67.7604
 20
-17.3532
 11
66.5197
 21
-17.4836
  0
LINE
  8
0
 10
66.5197
 20
-17.4836
 11
65.3333
 21
-17.0981
  0
LINE
  8
0
 10
20.3333
 20
-26.0981
 11
19.4063
 21
-25.2634
  0
LINE
  8
0
 10
19.4063
 20
-25.2634
 11
18.8989
 21
-24.1237
  0
LINE
  8
0
 10
18.8989
 20
-24.1237
 11
18.8989
 21
-22.8763
  0
LINE
  8
0
 10
18.8989
 20
-22.8763
 11
19.4063
 21
-21.7366
  0
LINE
  8
0
 10
19.4063
 20
-21.7366
 11
20.3333
 21
-20.9019
  0
LINE
  8
0
 10
20.3333
 20
-20.9019
 11
21.5197
 21
-20.5164
  0
LINE
  8
0
 10
21.5197
 20
-20.5164
 11
22.7604
 21
-20.6468
  0
LINE
  8
0
 10
22.7604
 20
-20.6468
 11
23.8407
 21
-21.2706
  0
LINE
  8
0
 10
23.8407
 20
-21.2706
 11
24.574
 21
-22.2798
  0
LINE
  8
0
 10
24.574
 20
-22.2798
 11
24.8333
 21
-23.5
  0
LINE
  8
0
 10
24.8333
 20
-23.5
 11
24.574
 21
-24.7202
  0
LINE
  8
0
 10
24.574
 20
-24.7202
 11
23.8407
 21
-25.7294
  0
LINE
  8
0
 10
23.8407
 20
-25.7294
 11
22.7604
 21
-26.3532
  0
LINE
  8
0
 10
22.7604
 20
-26.3532
 11
21.5197
 21
-26.4836
  0
LINE
  8
0
 10
21.5197
 20
-26.4836
 11
20.3333
 21
-26.0981
  0
LINE
  8
0
 10
29.3333
 20
-26.0981
 11
28.4063
 21
-25.2634
  0
LINE
  8
0
 10
28.4063
 20
-25.2634
 11
27.8989
 21
-24.1237
  0
LINE
  8
0
 10
27.8989
 20
-24.1237
 11
27.8989
 21
-22.8763
  0
LINE
  8
0
 10
27.8989
 20
-22.8763
 11
28.4063
 21
-21.7366
  0
LINE
  8
0
 10
28.4063
 20
-21.7366
 11
29.3333
 21
-20.9019
  0
LINE
  8
0
 10
29.3333
 20
-20.9019
 11
30.5197
 21
-20.5164
  0
LINE
  8
0
 10
30.5197
 20
-20.5164
 11
31.7604
 21
-20.6468
  0
LINE
  8
0
 10
31.7604
 20
-20.6468
 11
32.8407
 21
-21.2706
  0
LINE
  8
0
 10
32.8407
 20
-21.2706
 11
33.574
 21
-22.2798
  0
LINE
  8
0
 10
33.574
 20
-22.2798
 11
33.8333
 21
-23.5
  0
LINE
  8
0
 10
33.8333
 20
-23.5
 11
33.574
 21
-24.7202
  0
LINE
  8
0
 10
33.574
 20
-24.7202
 11
32.8407
 21
-25.7294
  0
LINE
  8
0
 10
32.8407
 20
-25.7294
 11
31.7604
 21
-26.3532
  0
LINE
  8
0
 10
31.7604
 20
-26.3532
 11
30.5197
 21
-26.4836
  0
LINE
  8
0
 10
30.5197
 20
-26.4836
 11
29.3333
 21
-26.0981
  0
LINE
  8
0
 10
38.3333
 20
-26.0981
 11
37.4063
 21
-25.2634
  0
LINE
  8
0
 10
37.4063
 20
-25.2634
 11
36.8989
 21
-24.1237
  0
LINE
  8
0
 10
36.8989
 20
-24.1237
 11
36.8989
 21
-22.8763
  0
LINE
  8
0
 10
36.8989
 20
-22.8763
 11
37.4063
 21
-21.7366
  0
LINE
  8
0
 10
37.4063
 20
-21.7366
 11
38.3333
 21
-20.9019
  0
LINE
  8
0
 10
38.3333
 20
-20.9019
 11
39.5197
 21
-20.5164
  0
LINE
  8
0
 10
39.5197
 20
-20.5164
 11
40.7604
 21
-20.6468
  0
LINE
  8
0
 10
40.7604
 20
-20.6468
 11
41.8407
 21
-21.2706
  0
LINE
  8
0
 10
41.8407
 20
-21.2706
 11
42.574
 21
-22.2798
  0
LINE
  8
0
 10
42.574
 20
-22.2798
 11
42.8333
 21
-23.5
  0
LINE
  8
0
 10
42.8333
 20
-23.5
 11
42.574
 21
-24.7202
  0
LINE
  8
0
 10
42.574
 20
-24.7202
 11
41.8407
 21
-25.7294
  0
LINE
  8
0
 10
41.8407
 20
-25.7294
 11
40.7604
 21
-26.3532
  0
LINE
  8
0
 10
40.7604
 20
-26.3532
 11
39.5197
 21
-26.4836
  0
LINE
  8
0
 10
39.5197
 20
-26.4836
 11
38.3333
 21
-26.0981
  0
LINE
  8
0
 10
47.3333
 20
-26.0981
 11
46.4063
 21
-25.2634
  0
LINE
  8
0
 10
46.4063
 20
-25.2634
 11
45.8989
 21
-24.1237
  0
LINE
  8
0
 10
45.8989
 20
-24.1237
 11
45.8989
 21
-22.8763
  0
LINE
  8
0
 10
45.8989
 20
-22.8763
 11
46.4063
 21
-21.7366
  0
LINE
  8
0
 10
46.4063
 20
-21.7366
 11
47.3333
 21
-20.9019
  0
LINE
  8
0
 10
47.3333
 20
-20.9019
 11
48.5197
 21
-20.5164
  0
LINE
  8
0
 10
48.5197
 20
-20.5164
 11
49.7604
 21
-20.6468
  0
LINE
  8
0
 10
49.7604
 20
-20.6468
 11
50.8407
 21
-21.2706
  0
LINE
  8
0
 10
50.8407
 20
-21.2706
 11
51.574
 21
-22.2798
  0
LINE
  8
0
 10
51.574
 20
-22.2798
 11
51.8333
 21
-23.5
  0
LINE
  8
0
 10
51.8333
 20
-23.5
 11
51.574
 21
-24.7202
  0
LINE
  8
0
 10
51.574
 20
-24.7202
 11
50.8407
 21
-25.7294
  0
LINE
  8
0
 10
50.8407
 20
-25.7294
 11
49.7604
 21
-26.3532
  0
LINE
  8
0
 10
49.7604
 20
-26.3532
 11
48.5197
 21
-26.4836
  0
LINE
  8
0
 10
48.5197
 20
-26.4836
 11
47.3333
 21
-26.0981
  0
LINE
  8
0
 10
56.3333
 20
-26.0981
 11
55.4063
 21
-25.2634
  0
LINE
  8
0
 10
55.4063
 20
-25.2634
 11
54.8989
 21
-24.1237
  0
LINE
  8
0
 10
54.8989
 20
-24.1237
 11
54.8989
 21
-22.8763
  0
LINE
  8
0
 10
54.8989
 20
-22.8763
 11
55.4063
 21
-21.7366
  0
LINE
  8
0
 10
55.4063
 20
-21.7366
 11
56.3333
 21
-20.9019
  0
LINE
  8
0
 10
56.3333
 20
-20.9019
 11
57.5197
 21
-20.5164
  0
LINE
  8
0
 10
57.5197
 20
-20.5164
 11
58.7604
 21
-20.6468
  0
LINE
  8
0
 10
58.7604
 20
-20.6468
 11
59.8407
 21
-21.2706
  0
LINE
  8
0
 10
59.8407
 20
-21.2706
 11
60.574
 21
-22.2798
  0
LINE
  8
0
 10
60.574
 20
-22.2798
 11
60.8333
 21
-23.5
  0
LINE
  8
0
 10
60.8333
 20
-23.5
 11
60.574
 21
-24.7202
  0
LINE
  8
0
 10
60.574
 20
-24.7202
 11
59.8407
 21
-25.7294
  0
LINE
  8
0
 10
59.8407
 20
-25.7294
 11
58.7604
 21
-26.3532
  0
LINE
  8
0
 10
58.7604
 20
-26.3532
 11
57.5197
 21
-26.4836
  0
LINE
  8
0
 10
57.5197
 20
-26.4836
 11
56.3333
 21
-26.0981
  0
LINE
  8
0
 10
65.3333
 20
-26.0981
 11
64.4063
 21
-25.2634
  0
LINE
  8
0
 10
64.4063
 20
-25.2634
 11
63.8989
 21
-24.1237
  0
LINE
  8
0
 10
63.8989
 20
-24.1237
 11
63.8989
 21
-22.8763
  0
LINE
  8
0
 10
63.8989
 20
-22.8763
 11
64.4063
 21
-21.7366
  0
LINE
  8
0
 10
64.4063
 20
-21.7366
 11
65.3333
 21
-20.9019
  0
LINE
  8
0
 10
65.3333
 20
-20.9019
 11
66.5197
 21
-20.5164
  0
LINE
  8
0
 10
66.5197
 20
-20.5164
 11
67.7604
 21
-20.6468
  0
LINE
  8
0
 10
67.7604
 20
-20.6468
 11
68.8407
 21
-21.2706
  0
LINE
  8
0
 10
68.8407
 20
-21.2706
 11
69.574
 21
-22.2798
  0
LINE
  8
0
 10
69.574
 20
-22.2798
 11
69.8333
 21
-23.5
  0
LINE
  8
0
 10
69.8333
 20
-23.5
 11
69.574
 21
-24.7202
  0
LINE
  8
0
 10
69.574
 20
-24.7202
 11
68.8407
 21
-25.7294
  0
LINE
  8
0
 10
68.8407
 20
-25.7294
 11
67.7604
 21
-26.3532
  0
LINE
  8
0
 10
67.7604
 20
-26.3532
 11
66.5197
 21
-26.4836
  0
LINE
  8
0
 10
66.5197
 20
-26.4836
 11
65.3333
 21
-26.0981
  0
LINE
  8
0
 10
74.3333
 20
-26.0981
 11
73.4063
 21
-25.2634
  0
LINE
  8
0
 10
73.4063
 20
-25.2634
 11
72.8989
 21
-24.1237
  0
LINE
  8
0
 10
72.8989
 20
-24.1237
 11
72.8989
 21
-22.8763
  0
LINE
  8
0
 10
72.8989
 20
-22.8763
 11
73.4063
 21
-21.7366
  0
LINE
  8
0
 10
73.4063
 20
-21.7366
 11
74.3333
 21
-20.9019
  0
LINE
  8
0
 10
74.3333
 20
-20.9019
 11
75.5197
 21
-20.5164
  0
LINE
  8
0
 10
75.5197
 20
-20.5164
 11
76.7604
 21
-20.6468
  0
LINE
  8
0
 10
76.7604
 20
-20.6468
 11
77.8407
 21
-21.2706
  0
LINE
  8
0
 10
77.8407
 20
-21.2706
 11
78.574
 21
-22.2798
  0
LINE
  8
0
 10
78.574
 20
-22.2798
 11
78.8333
 21
-23.5
  0
LINE
  8
0
 10
78.8333
 20
-23.5
 11
78.574
 21
-24.7202
  0
LINE
  8
0
 10
78.574
 20
-24.7202
 11
77.8407
 21
-25.7294
  0
LINE
  8
0
 10
77.8407
 20
-25.7294
 11
76.7604
 21
-26.3532
  0
LINE
  8
0
 10
76.7604
 20
-26.3532
 11
75.5197
 21
-26.4836
  0
LINE
  8
0
 10
75.5197
 20
-26.4836
 11
74.3333
 21
-26.0981
  0
LINE
  8
0
 10
83.3333
 20
-26.0981
 11
82.4063
 21
-25.2634
  0
LINE
  8
0
 10
82.4063
 20
-25.2634
 11
81.8989
 21
-24.1237
  0
LINE
  8
0
 10
81.8989
 20
-24.1237
 11
81.8989
 21
-22.8763
  0
LINE
  8
0
 10
81.8989
 20
-22.8763
 11
82.4063
 21
-21.7366
  0
LINE
  8
0
 10
82.4063
 20
-21.7366
 11
83.3333
 21
-20.9019
  0
LINE
  8
0
 10
83.3333
 20
-20.9019
 11
84.5197
 21
-20.5164
  0
LINE
  8
0
 10
84.5197
 20
-20.5164
 11
85.7604
 21
-20.6468
  0
LINE
  8
0
 10
85.7604
 20
-20.6468
 11
86.8407
 21
-21.2706
  0
LINE
  8
0
 10
86.8407
 20
-21.2706
 11
87.574
 21
-22.2798
  0
LINE
  8
0
 10
87.574
 20
-22.2798
 11
87.8333
 21
-23.5
  0
LINE
  8
0
 10
87.8333
 20
-23.5
 11
87.574
 21
-24.7202
  0
LINE
  8
0
 10
87.574
 20
-24.7202
 11
86.8407
 21
-25.7294
  0
LINE
  8
0
 10
86.8407
 20
-25.7294
 11
85.7604
 21
-26.3532
  0
LINE
  8
0
 10
85.7604
 20
-26.3532
 11
84.5197
 21
-26.4836
  0
LINE
  8
0
 10
84.5197
 20
-26.4836
 11
83.3333
 21
-26.0981
  0
LINE
  8
0
 10
20.3333
 20
-35.0981
 11
19.4063
 21
-34.2634
  0
LINE
  8
0
 10
19.4063
 20
-34.2634
 11
18.8989
 21
-33.1237
  0
LINE
  8
0
 10
18.8989
 20
-33.1237
 11
18.8989
 21
-31.8763
  0
LINE
  8
0
 10
18.8989
 20
-31.8763
 11
19.4063
 21
-30.7366
  0
LINE
  8
0
 10
19.4063
 20
-30.7366
 11
20.3333
 21
-29.9019
  0
LINE
  8
0
 10
20.3333
 20
-29.9019
 11
21.5197
 21
-29.5164
  0
LINE
  8
0
 10
21.5197
 20
-29.5164
 11
22.7604
 21
-29.6468
  0
LINE
  8
0
 10
22.7604
 20
-29.6468
 11
23.8407
 21
-30.2706
  0
LINE
  8
0
 10
23.8407
 20
-30.2706
 11
24.574
 21
-31.2798
  0
LINE
  8
0
 10
24.574
 20
-31.2798
 11
24.8333
 21
-32.5
  0
LINE
  8
0
 10
24.8333
 20
-32.5
 11
24.574
 21
-33.7202
  0
LINE
  8
0
 10
24.574
 20
-33.7202
 11
23.8407
 21
-34.7294
  0
LINE
  8
0
 10
23.8407
 20
-34.7294
 11
22.7604
 21
-35.3532
  0
LINE
  8
0
 10
22.7604
 20
-35.3532
 11
21.5197
 21
-35.4836
  0
LINE
  8
0
 10
21.5197
 20
-35.4836
 11
20.3333
 21
-35.0981
  0
LINE
  8
0
 10
29.3333
 20
-35.0981
 11
28.4063
 21
-34.2634
  0
LINE
  8
0
 10
28.4063
 20
-34.2634
 11
27.8989
 21
-33.1237
  0
LINE
  8
0
 10
27.8989
 20
-33.1237
 11
27.8989
 21
-31.8763
  0
LINE
  8
0
 10
27.8989
 20
-31.8763
 11
28.4063
 21
-30.7366
  0
LINE
  8
0
 10
28.4063
 20
-30.7366
 11
29.3333
 21
-29.9019
  0
LINE
  8
0
 10
29.3333
 20
-29.9019
 11
30.5197
 21
-29.5164
  0
LINE
  8
0
 10
30.5197
 20
-29.5164
 11
31.7604
 21
-29.6468
  0
LINE
  8
0
 10
31.7604
 20
-29.6468
 11
32.8407
 21
-30.2706
  0
LINE
  8
0
 10
32.8407
 20
-30.2706
 11
33.574
 21
-31.2798
  0
LINE
  8
0
 10
33.574
 20
-31.2798
 11
33.8333
 21
-32.5
  0
LINE
  8
0
 10
33.8333
 20
-32.5
 11
33.574
 21
-33.7202
  0
LINE
  8
0
 10
33.574
 20
-33.7202
 11
32.8407
 21
-34.7294
  0
LINE
  8
0
 10
32.8407
 20
-34.7294
 11
31.7604
 21
-35.3532
  0
LINE
  8
0
 10
31.7604
 20
-35.3532
 11
30.5197
 21
-35.4836
  0
LINE
  8
0
 10
30.5197
 20
-35.4836
 11
29.3333
 21
-35.0981
  0
LINE
  8
0
 10
38.3333
 20
-35.0981
 11
37.4063
 21
-34.2634
  0
LINE
  8
0
 10
37.4063
 20
-34.2634
 11
36.8989
 21
-33.1237
  0
LINE
  8
0
 10
36.8989
 20
-33.1237
 11
36.8989
 21
-31.8763
  0
LINE
  8
0
 10
36.8989
 20
-31.8763
 11
37.4063
 21
-30.7366
  0
LINE
  8
0
 10
37.4063
 20
-30.7366
 11
38.3333
 21
-29.9019
  0
LINE
  8
0
 10
38.3333
 20
-29.9019
 11
39.5197
 21
-29.5164
  0
LINE
  8
0
 10
39.5197
 20
-29.5164
 11
40.7604
 21
-29.6468
  0
LINE
  8
0
 10
40.7604
 20
-29.6468
 11
41.8407
 21
-30.2706
  0
LINE
  8
0
 10
41.8407
 20
-30.2706
 11
42.574
 21
-31.2798
  0
LINE
  8
0
 10
42.574
 20
-31.2798
 11
42.8333
 21
-32.5
  0
LINE
  8
0
 10
42.8333
 20
-32.5
 11
42.574
 21
-33.7202
  0
LINE
  8
0
 10
42.574
 20
-33.7202
 11
41.8407
 21
-34.7294
  0
LINE
  8
0
 10
41.8407
 20
-34.7294
 11
40.7604
 21
-35.3532
  0
LINE
  8
0
 10
40.7604
 20
-35.3532
 11
39.5197
 21
-35.4836
  0
LINE
  8
0
 10
39.5197
 20
-35.4836
 11
38.3333
 21
-35.0981
  0
LINE
  8
0
 10
47.3333
 20
-35.0981
 11
46.4063
 21
-34.2634
  0
LINE
  8
0
 10
46.4063
 20
-34.2634
 11
45.8989
 21
-33.1237
  0
LINE
  8
0
 10
45.8989
 20
-33.1237
 11
45.8989
 21
-31.8763
  0
LINE
  8
0
 10
45.8989
 20
-31.8763
 11
46.4063
 21
-30.7366
  0
LINE
  8
0
 10
46.4063
 20
-30.7366
 11
47.3333
 21
-29.9019
  0
LINE
  8
0
 10
47.3333
 20
-29.9019
 11
48.5197
 21
-29.5164
  0
LINE
  8
0
 10
48.5197
 20
-29.5164
 11
49.7604
 21
-29.6468
  0
LINE
  8
0
 10
49.7604
 20
-29.6468
 11
50.8407
 21
-30.2706
  0
LINE
  8
0
 10
50.8407
 20
-30.2706
 11
51.574
 21
-31.2798
  0
LINE
  8
0
 10
51.574
 20
-31.2798
 11
51.8333
 21
-32.5
  0
LINE
  8
0
 10
51.8333
 20
-32.5
 11
51.574
 21
-33.7202
  0
LINE
  8
0
 10
51.574
 20
-33.7202
 11
50.8407
 21
-34.7294
  0
LINE
  8
0
 10
50.8407
 20
-34.7294
 11
49.7604
 21
-35.3532
  0
LINE
  8
0
 10
49.7604
 20
-35.3532
 11
48.5197
 21
-35.4836
  0
LINE
  8
0
 10
48.5197
 20
-35.4836
 11
47.3333
 21
-35.0981
  0
LINE
  8
0
 10
56.3333
 20
-35.0981
 11
55.4063
 21
-34.2634
  0
LINE
  8
0
 10
55.4063
 20
-34.2634
 11
54.8989
 21
-33.1237
  0
LINE
  8
0
 10
54.8989
 20
-33.1237
 11
54.8989
 21
-31.8763
  0
LINE
  8
0
 10
54.8989
 20
-31.8763
 11
55.4063
 21
-30.7366
  0
LINE
  8
0
 10
55.4063
 20
-30.7366
 11
56.3333
 21
-29.9019
  0
LINE
  8
0
 10
56.3333
 20
-29.9019
 11
57.5197
 21
-29.5164
  0
LINE
  8
0
 10
57.5197
 20
-29.5164
 11
58.7604
 21
-29.6468
  0
LINE
  8
0
 10
58.7604
 20
-29.6468
 11
59.8407
 21
-30.2706
  0
LINE
  8
0
 10
59.8407
 20
-30.2706
 11
60.574
 21
-31.2798
  0
LINE
  8
0
 10
60.574
 20
-31.2798
 11
60.8333
 21
-32.5
  0
LINE
  8
0
 10
60.8333
 20
-32.5
 11
60.574
 21
-33.7202
  0
LINE
  8
0
 10
60.574
 20
-33.7202
 11
59.8407
 21
-34.7294
  0
LINE
  8
0
 10
59.8407
 20
-34.7294
 11
58.7604
 21
-35.3532
  0
LINE
  8
0
 10
58.7604
 20
-35.3532
 11
57.5197
 21
-35.4836
  0
LINE
  8
0
 10
57.5197
 20
-35.4836
 11
56.3333
 21
-35.0981
  0
LINE
  8
0
 10
83.3333
 20
-35.0981
 11
82.4063
 21
-34.2634
  0
LINE
  8
0
 10
82.4063
 20
-34.2634
 11
81.8989
 21
-33.1237
  0
LINE
  8
0
 10
81.8989
 20
-33.1237
 11
81.8989
 21
-31.8763
  0
LINE
  8
0
 10
81.8989
 20
-31.8763
 11
82.4063
 21
-30.7366
  0
LINE
  8
0
 10
82.4063
 20
-30.7366
 11
83.3333
 21
-29.9019
  0
LINE
  8
0
 10
83.3333
 20
-29.9019
 11
84.5197
 21
-29.5164
  0
LINE
  8
0
 10
84.5197
 20
-29.5164
 11
85.7604
 21
-29.6468
  0
LINE
  8
0
 10
85.7604
 20
-29.6468
 11
86.8407
 21
-30.2706
  0
LINE
  8
0
 10
86.8407
 20
-30.2706
 11
87.574
 21
-31.2798
  0
LINE
  8
0
 10
87.574
 20
-31.2798
 11
87.8333
 21
-32.5
  0
LINE
  8
0
 10
87.8333
 20
-32.5
 11
87.574
 21
-33.7202
  0
LINE
  8
0
 10
87.574
 20
-33.7202
 11
86.8407
 21
-34.7294
  0
LINE
  8
0
 10
86.8407
 20
-34.7294
 11
85.7604
 21
-35.3532
  0
LINE
  8
0
 10
85.7604
 20
-35.3532
 11
84.5197
 21
-35.4836
  0
LINE
  8
0
 10
84.5197
 20
-35.4836
 11
83.3333
 21
-35.0981
  0
LINE
  8
0
 10
74.3333
 20
-35.0981
 11
73.4063
 21
-34.2634
  0
LINE
  8
0
 10
73.4063
 20
-34.2634
 11
72.8989
 21
-33.1237
  0
LINE
  8
0
 10
72.8989
 20
-33.1237
 11
72.8989
 21
-31.8763
  0
LINE
  8
0
 10
72.8989
 20
-31.8763
 11
73.4063
 21
-30.7366
  0
LINE
  8
0
 10
73.4063
 20
-30.7366
 11
74.3333
 21
-29.9019
  0
LINE
  8
0
 10
74.3333
 20
-29.9019
 11
75.5197
 21
-29.5164
  0
LINE
  8
0
 10
75.5197
 20
-29.5164
 11
76.7604
 21
-29.6468
  0
LINE
  8
0
 10
76.7604
 20
-29.6468
 11
77.8407
 21
-30.2706
  0
LINE
  8
0
 10
77.8407
 20
-30.2706
 11
78.574
 21
-31.2798
  0
LINE
  8
0
 10
78.574
 20
-31.2798
 11
78.8333
 21
-32.5
  0
LINE
  8
0
 10
78.8333
 20
-32.5
 11
78.574
 21
-33.7202
  0
LINE
  8
0
 10
78.574
 20
-33.7202
 11
77.8407
 21
-34.7294
  0
LINE
  8
0
 10
77.8407
 20
-34.7294
 11
76.7604
 21
-35.3532
  0
LINE
  8
0
 10
76.7604
 20
-35.3532
 11
75.5197
 21
-35.4836
  0
LINE
  8
0
 10
75.5197
 20
-35.4836
 11
74.3333
 21
-35.0981
  0
LINE
  8
0
 10
65.3333
 20
-35.0981
 11
64.4063
 21
-34.2634
  0
LINE
  8
0
 10
64.4063
 20
-34.2634
 11
63.8989
 21
-33.1237
  0
LINE
  8
0
 10
63.8989
 20
-33.1237
 11
63.8989
 21
-31.8763
  0
LINE
  8
0
 10
63.8989
 20
-31.8763
 11
64.4063
 21
-30.7366
  0
LINE
  8
0
 10
64.4063
 20
-30.7366
 11
65.3333
 21
-29.9019
  0
LINE
  8
0
 10
65.3333
 20
-29.9019
 11
66.5197
 21
-29.5164
  0
LINE
  8
0
 10
66.5197
 20
-29.5164
 11
67.7604
 21
-29.6468
  0
LINE
  8
0
 10
67.7604
 20
-29.6468
 11
68.8407
 21
-30.2706
  0
LINE
  8
0
 10
68.8407
 20
-30.2706
 11
69.574
 21
-31.2798
  0
LINE
  8
0
 10
69.574
 20
-31.2798
 11
69.8333
 21
-32.5
  0
LINE
  8
0
 10
69.8333
 20
-32.5
 11
69.574
 21
-33.7202
  0
LINE
  8
0
 10
69.574
 20
-33.7202
 11
68.8407
 21
-34.7294
  0
LINE
  8
0
 10
68.8407
 20
-34.7294
 11
67.7604
 21
-35.3532
  0
LINE
  8
0
 10
67.7604
 20
-35.3532
 11
66.5197
 21
-35.4836
  0
LINE
  8
0
 10
66.5197
 20
-35.4836
 11
65.3333
 21
-35.0981
  0
LINE
  8
0
 10
20.3333
 20
-44.0981
 11
19.4063
 21
-43.2634
  0
LINE
  8
0
 10
19.4063
 20
-43.2634
 11
18.8989
 21
-42.1237
  0
LINE
  8
0
 10
18.8989
 20
-42.1237
 11
18.8989
 21
-40.8763
  0
LINE
  8
0
 10
18.8989
 20
-40.8763
 11
19.4063
 21
-39.7366
  0
LINE
  8
0
 10
19.4063
 20
-39.7366
 11
20.3333
 21
-38.9019
  0
LINE
  8
0
 10
20.3333
 20
-38.9019
 11
21.5197
 21
-38.5164
  0
LINE
  8
0
 10
21.5197
 20
-38.5164
 11
22.7604
 21
-38.6468
  0
LINE
  8
0
 10
22.7604
 20
-38.6468
 11
23.8407
 21
-39.2706
  0
LINE
  8
0
 10
23.8407
 20
-39.2706
 11
24.574
 21
-40.2798
  0
LINE
  8
0
 10
24.574
 20
-40.2798
 11
24.8333
 21
-41.5
  0
LINE
  8
0
 10
24.8333
 20
-41.5
 11
24.574
 21
-42.7202
  0
LINE
  8
0
 10
24.574
 20
-42.7202
 11
23.8407
 21
-43.7294
  0
LINE
  8
0
 10
23.8407
 20
-43.7294
 11
22.7604
 21
-44.3532
  0
LINE
  8
0
 10
22.7604
 20
-44.3532
 11
21.5197
 21
-44.4836
  0
LINE
  8
0
 10
21.5197
 20
-44.4836
 11
20.3333
 21
-44.0981
  0
LINE
  8
0
 10
29.3333
 20
-44.0981
 11
28.4063
 21
-43.2634
  0
LINE
  8
0
 10
28.4063
 20
-43.2634
 11
27.8989
 21
-42.1237
  0
LINE
  8
0
 10
27.8989
 20
-42.1237
 11
27.8989
 21
-40.8763
  0
LINE
  8
0
 10
27.8989
 20
-40.8763
 11
28.4063
 21
-39.7366
  0
LINE
  8
0
 10
28.4063
 20
-39.7366
 11
29.3333
 21
-38.9019
  0
LINE
  8
0
 10
29.3333
 20
-38.9019
 11
30.5197
 21
-38.5164
  0
LINE
  8
0
 10
30.5197
 20
-38.5164
 11
31.7604
 21
-38.6468
  0
LINE
  8
0
 10
31.7604
 20
-38.6468
 11
32.8407
 21
-39.2706
  0
LINE
  8
0
 10
32.8407
 20
-39.2706
 11
33.574
 21
-40.2798
  0
LINE
  8
0
 10
33.574
 20
-40.2798
 11
33.8333
 21
-41.5
  0
LINE
  8
0
 10
33.8333
 20
-41.5
 11
33.574
 21
-42.7202
  0
LINE
  8
0
 10
33.574
 20
-42.7202
 11
32.8407
 21
-43.7294
  0
LINE
  8
0
 10
32.8407
 20
-43.7294
 11
31.7604
 21
-44.3532
  0
LINE
  8
0
 10
31.7604
 20
-44.3532
 11
30.5197
 21
-44.4836
  0
LINE
  8
0
 10
30.5197
 20
-44.4836
 11
29.3333
 21
-44.0981
  0
LINE
  8
0
 10
83.3333
 20
-44.0981
 11
82.4063
 21
-43.2634
  0
LINE
  8
0
 10
82.4063
 20
-43.2634
 11
81.8989
 21
-42.1237
  0
LINE
  8
0
 10
81.8989
 20
-42.1237
 11
81.8989
 21
-40.8763
  0
LINE
  8
0
 10
81.8989
 20
-40.8763
 11
82.4063
 21
-39.7366
  0
LINE
  8
0
 10
82.4063
 20
-39.7366
 11
83.3333
 21
-38.9019
  0
LINE
  8
0
 10
83.3333
 20
-38.9019
 11
84.5197
 21
-38.5164
  0
LINE
  8
0
 10
84.5197
 20
-38.5164
 11
85.7604
 21
-38.6468
  0
LINE
  8
0
 10
85.7604
 20
-38.6468
 11
86.8407
 21
-39.2706
  0
LINE
  8
0
 10
86.8407
 20
-39.2706
 11
87.574
 21
-40.2798
  0
LINE
  8
0
 10
87.574
 20
-40.2798
 11
87.8333
 21
-41.5
  0
LINE
  8
0
 10
87.8333
 20
-41.5
 11
87.574
 21
-42.7202
  0
LINE
  8
0
 10
87.574
 20
-42.7202
 11
86.8407
 21
-43.7294
  0
LINE
  8
0
 10
86.8407
 20
-43.7294
 11
85.7604
 21
-44.3532
  0
LINE
  8
0
 10
85.7604
 20
-44.3532
 11
84.5197
 21
-44.4836
  0
LINE
  8
0
 10
84.5197
 20
-44.4836
 11
83.3333
 21
-44.0981
  0
LINE
  8
0
 10
74.3333
 20
-44.0981
 11
73.4063
 21
-43.2634
  0
LINE
  8
0
 10
73.4063
 20
-43.2634
 11
72.8989
 21
-42.1237
  0
LINE
  8
0
 10
72.8989
 20
-42.1237
 11
72.8989
 21
-40.8763
  0
LINE
  8
0
 10
72.8989
 20
-40.8763
 11
73.4063
 21
-39.7366
  0
LINE
  8
0
 10
73.4063
 20
-39.7366
 11
74.3333
 21
-38.9019
  0
LINE
  8
0
 10
74.3333
 20
-38.9019
 11
75.5197
 21
-38.5164
  0
LINE
  8
0
 10
75.5197
 20
-38.5164
 11
76.7604
 21
-38.6468
  0
LINE
  8
0
 10
76.7604
 20
-38.6468
 11
77.8407
 21
-39.2706
  0
LINE
  8
0
 10
77.8407
 20
-39.2706
 11
78.574
 21
-40.2798
  0
LINE
  8
0
 10
78.574
 20
-40.2798
 11
78.8333
 21
-41.5
  0
LINE
  8
0
 10
78.8333
 20
-41.5
 11
78.574
 21
-42.7202
  0
LINE
  8
0
 10
78.574
 20
-42.7202
 11
77.8407
 21
-43.7294
  0
LINE
  8
0
 10
77.8407
 20
-43.7294
 11
76.7604
 21
-44.3532
  0
LINE
  8
0
 10
76.7604
 20
-44.3532
 11
75.5197
 21
-44.4836
  0
LINE
  8
0
 10
75.5197
 20
-44.4836
 11
74.3333
 21
-44.0981
  0
LINE
  8
0
 10
65.3333
 20
-44.0981
 11
64.4063
 21
-43.2634
  0
LINE
  8
0
 10
64.4063
 20
-43.2634
 11
63.8989
 21
-42.1237
  0
LINE
  8
0
 10
63.8989
 20
-42.1237
 11
63.8989
 21
-40.8763
  0
LINE
  8
0
 10
63.8989
 20
-40.8763
 11
64.4063
 21
-39.7366
  0
LINE
  8
0
 10
64.4063
 20
-39.7366
 11
65.3333
 21
-38.9019
  0
LINE
  8
0
 10
65.3333
 20
-38.9019
 11
66.5197
 21
-38.5164
  0
LINE
  8
0
 10
66.5197
 20
-38.5164
 11
67.7604
 21
-38.6468
  0
LINE
  8
0
 10
67.7604
 20
-38.6468
 11
68.8407
 21
-39.2706
  0
LINE
  8
0
 10
68.8407
 20
-39.2706
 11
69.574
 21
-40.2798
  0
LINE
  8
0
 10
69.574
 20
-40.2798
 11
69.8333
 21
-41.5
  0
LINE
  8
0
 10
69.8333
 20
-41.5
 11
69.574
 21
-42.7202
  0
LINE
  8
0
 10
69.574
 20
-42.7202
 11
68.8407
 21
-43.7294
  0
LINE
  8
0
 10
68.8407
 20
-43.7294
 11
67.7604
 21
-44.3532
  0
LINE
  8
0
 10
67.7604
 20
-44.3532
 11
66.5197
 21
-44.4836
  0
LINE
  8
0
 10
66.5197
 20
-44.4836
 11
65.3333
 21
-44.0981
  0
LINE
  8
0
 10
56.3333
 20
-44.0981
 11
55.4063
 21
-43.2634
  0
LINE
  8
0
 10
55.4063
 20
-43.2634
 11
54.8989
 21
-42.1237
  0
LINE
  8
0
 10
54.8989
 20
-42.1237
 11
54.8989
 21
-40.8763
  0
LINE
  8
0
 10
54.8989
 20
-40.8763
 11
55.4063
 21
-39.7366
  0
LINE
  8
0
 10
55.4063
 20
-39.7366
 11
56.3333
 21
-38.9019
  0
LINE
  8
0
 10
56.3333
 20
-38.9019
 11
57.5197
 21
-38.5164
  0
LINE
  8
0
 10
57.5197
 20
-38.5164
 11
58.7604
 21
-38.6468
  0
LINE
  8
0
 10
58.7604
 20
-38.6468
 11
59.8407
 21
-39.2706
  0
LINE
  8
0
 10
59.8407
 20
-39.2706
 11
60.574
 21
-40.2798
  0
LINE
  8
0
 10
60.574
 20
-40.2798
 11
60.8333
 21
-41.5
  0
LINE
  8
0
 10
60.8333
 20
-41.5
 11
60.574
 21
-42.7202
  0
LINE
  8
0
 10
60.574
 20
-42.7202
 11
59.8407
 21
-43.7294
  0
LINE
  8
0
 10
59.8407
 20
-43.7294
 11
58.7604
 21
-44.3532
  0
LINE
  8
0
 10
58.7604
 20
-44.3532
 11
57.5197
 21
-44.4836
  0
LINE
  8
0
 10
57.5197
 20
-44.4836
 11
56.3333
 21
-44.0981
  0
LINE
  8
0
 10
47.3333
 20
-44.0981
 11
46.4063
 21
-43.2634
  0
LINE
  8
0
 10
46.4063
 20
-43.2634
 11
45.8989
 21
-42.1237
  0
LINE
  8
0
 10
45.8989
 20
-42.1237
 11
45.8989
 21
-40.8763
  0
LINE
  8
0
 10
45.8989
 20
-40.8763
 11
46.4063
 21
-39.7366
  0
LINE
  8
0
 10
46.4063
 20
-39.7366
 11
47.3333
 21
-38.9019
  0
LINE
  8
0
 10
47.3333
 20
-38.9019
 11
48.5197
 21
-38.5164
  0
LINE
  8
0
 10
48.5197
 20
-38.5164
 11
49.7604
 21
-38.6468
  0
LINE
  8
0
 10
49.7604
 20
-38.6468
 11
50.8407
 21
-39.2706
  0
LINE
  8
0
 10
50.8407
 20
-39.2706
 11
51.574
 21
-40.2798
  0
LINE
  8
0
 10
51.574
 20
-40.2798
 11
51.8333
 21
-41.5
  0
LINE
  8
0
 10
51.8333
 20
-41.5
 11
51.574
 21
-42.7202
  0
LINE
  8
0
 10
51.574
 20
-42.7202
 11
50.8407
 21
-43.7294
  0
LINE
  8
0
 10
50.8407
 20
-43.7294
 11
49.7604
 21
-44.3532
  0
LINE
  8
0
 10
49.7604
 20
-44.3532
 11
48.5197
 21
-44.4836
  0
LINE
  8
0
 10
48.5197
 20
-44.4836
 11
47.3333
 21
-44.0981
  0
LINE
  8
0
 10
38.3333
 20
-44.0981
 11
37.4063
 21
-43.2634
  0
LINE
  8
0
 10
37.4063
 20
-43.2634
 11
36.8989
 21
-42.1237
  0
LINE
  8
0
 10
36.8989
 20
-42.1237
 11
36.8989
 21
-40.8763
  0
LINE
  8
0
 10
36.8989
 20
-40.8763
 11
37.4063
 21
-39.7366
  0
LINE
  8
0
 10
37.4063
 20
-39.7366
 11
38.3333
 21
-38.9019
  0
LINE
  8
0
 10
38.3333
 20
-38.9019
 11
39.5197
 21
-38.5164
  0
LINE
  8
0
 10
39.5197
 20
-38.5164
 11
40.7604
 21
-38.6468
  0
LINE
  8
0
 10
40.7604
 20
-38.6468
 11
41.8407
 21
-39.2706
  0
LINE
  8
0
 10
41.8407
 20
-39.2706
 11
42.574
 21
-40.2798
  0
LINE
  8
0
 10
42.574
 20
-40.2798
 11
42.8333
 21
-41.5
  0
LINE
  8
0
 10
42.8333
 20
-41.5
 11
42.574
 21
-42.7202
  0
LINE
  8
0
 10
42.574
 20
-42.7202
 11
41.8407
 21
-43.7294
  0
LINE
  8
0
 10
41.8407
 20
-43.7294
 11
40.7604
 21
-44.3532
  0
LINE
  8
0
 10
40.7604
 20
-44.3532
 11
39.5197
 21
-44.4836
  0
LINE
  8
0
 10
39.5197
 20
-44.4836
 11
38.3333
 21
-44.0981
  0
LINE
  8
0
 10
20.3333
 20
-53.0981
 11
19.4063
 21
-52.2634
  0
LINE
  8
0
 10
19.4063
 20
-52.2634
 11
18.8989
 21
-51.1237
  0
LINE
  8
0
 10
18.8989
 20
-51.1237
 11
18.8989
 21
-49.8763
  0
LINE
  8
0
 10
18.8989
 20
-49.8763
 11
19.4063
 21
-48.7366
  0
LINE
  8
0
 10
19.4063
 20
-48.7366
 11
20.3333
 21
-47.9019
  0
LINE
  8
0
 10
20.3333
 20
-47.9019
 11
21.5197
 21
-47.5164
  0
LINE
  8
0
 10
21.5197
 20
-47.5164
 11
22.7604
 21
-47.6468
  0
LINE
  8
0
 10
22.7604
 20
-47.6468
 11
23.8407
 21
-48.2706
  0
LINE
  8
0
 10
23.8407
 20
-48.2706
 11
24.574
 21
-49.2798
  0
LINE
  8
0
 10
24.574
 20
-49.2798
 11
24.8333
 21
-50.5
  0
LINE
  8
0
 10
24.8333
 20
-50.5
 11
24.574
 21
-51.7202
  0
LINE
  8
0
 10
24.574
 20
-51.7202
 11
23.8407
 21
-52.7294
  0
LINE
  8
0
 10
23.8407
 20
-52.7294
 11
22.7604
 21
-53.3532
  0
LINE
  8
0
 10
22.7604
 20
-53.3532
 11
21.5197
 21
-53.4836
  0
LINE
  8
0
 10
21.5197
 20
-53.4836
 11
20.3333
 21
-53.0981
  0
LINE
  8
0
 10
29.3333
 20
-53.0981
 11
28.4063
 21
-52.2634
  0
LINE
  8
0
 10
28.4063
 20
-52.2634
 11
27.8989
 21
-51.1237
  0
LINE
  8
0
 10
27.8989
 20
-51.1237
 11
27.8989
 21
-49.8763
  0
LINE
  8
0
 10
27.8989
 20
-49.8763
 11
28.4063
 21
-48.7366
  0
LINE
  8
0
 10
28.4063
 20
-48.7366
 11
29.3333
 21
-47.9019
  0
LINE
  8
0
 10
29.3333
 20
-47.9019
 11
30.5197
 21
-47.5164
  0
LINE
  8
0
 10
30.5197
 20
-47.5164
 11
31.7604
 21
-47.6468
  0
LINE
  8
0
 10
31.7604
 20
-47.6468
 11
32.8407
 21
-48.2706
  0
LINE
  8
0
 10
32.8407
 20
-48.2706
 11
33.574
 21
-49.2798
  0
LINE
  8
0
 10
33.574
 20
-49.2798
 11
33.8333
 21
-50.5
  0
LINE
  8
0
 10
33.8333
 20
-50.5
 11
33.574
 21
-51.7202
  0
LINE
  8
0
 10
33.574
 20
-51.7202
 11
32.8407
 21
-52.7294
  0
LINE
  8
0
 10
32.8407
 20
-52.7294
 11
31.7604
 21
-53.3532
  0
LINE
  8
0
 10
31.7604
 20
-53.3532
 11
30.5197
 21
-53.4836
  0
LINE
  8
0
 10
30.5197
 20
-53.4836
 11
29.3333
 21
-53.0981
  0
LINE
  8
0
 10
38.3333
 20
-53.0981
 11
37.4063
 21
-52.2634
  0
LINE
  8
0
 10
37.4063
 20
-52.2634
 11
36.8989
 21
-51.1237
  0
LINE
  8
0
 10
36.8989
 20
-51.1237
 11
36.8989
 21
-49.8763
  0
LINE
  8
0
 10
36.8989
 20
-49.8763
 11
37.4063
 21
-48.7366
  0
LINE
  8
0
 10
37.4063
 20
-48.7366
 11
38.3333
 21
-47.9019
  0
LINE
  8
0
 10
38.3333
 20
-47.9019
 11
39.5197
 21
-47.5164
  0
LINE
  8
0
 10
39.5197
 20
-47.5164
 11
40.7604
 21
-47.6468
  0
LINE
  8
0
 10
40.7604
 20
-47.6468
 11
41.8407
 21
-48.2706
  0
LINE
  8
0
 10
41.8407
 20
-48.2706
 11
42.574
 21
-49.2798
  0
LINE
  8
0
 10
42.574
 20
-49.2798
 11
42.8333
 21
-50.5
  0
LINE
  8
0
 10
42.8333
 20
-50.5
 11
42.574
 21
-51.7202
  0
LINE
  8
0
 10
42.574
 20
-51.7202
 11
41.8407
 21
-52.7294
  0
LINE
  8
0
 10
41.8407
 20
-52.7294
 11
40.7604
 21
-53.3532
  0
LINE
  8
0
 10
40.7604
 20
-53.3532
 11
39.5197
 21
-53.4836
  0
LINE
  8
0
 10
39.5197
 20
-53.4836
 11
38.3333
 21
-53.0981
  0
LINE
  8
0
 10
47.3333
 20
-53.0981
 11
46.4063
 21
-52.2634
  0
LINE
  8
0
 10
46.4063
 20
-52.2634
 11
45.8989
 21
-51.1237
  0
LINE
  8
0
 10
45.8989
 20
-51.1237
 11
45.8989
 21
-49.8763
  0
LINE
  8
0
 10
45.8989
 20
-49.8763
 11
46.4063
 21
-48.7366
  0
LINE
  8
0
 10
46.4063
 20
-48.7366
 11
47.3333
 21
-47.9019
  0
LINE
  8
0
 10
47.3333
 20
-47.9019
 11
48.5197
 21
-47.5164
  0
LINE
  8
0
 10
48.5197
 20
-47.5164
 11
49.7604
 21
-47.6468
  0
LINE
  8
0
 10
49.7604
 20
-47.6468
 11
50.8407
 21
-48.2706
  0
LINE
  8
0
 10
50.8407
 20
-48.2706
 11
51.574
 21
-49.2798
  0
LINE
  8
0
 10
51.574
 20
-49.2798
 11
51.8333
 21
-50.5
  0
LINE
  8
0
 10
51.8333
 20
-50.5
 11
51.574
 21
-51.7202
  0
LINE
  8
0
 10
51.574
 20
-51.7202
 11
50.8407
 21
-52.7294
  0
LINE
  8
0
 10
50.8407
 20
-52.7294
 11
49.7604
 21
-53.3532
  0
LINE
  8
0
 10
49.7604
 20
-53.3532
 11
48.5197
 21
-53.4836
  0
LINE
  8
0
 10
48.5197
 20
-53.4836
 11
47.3333
 21
-53.0981
  0
LINE
  8
0
 10
56.3333
 20
-53.0981
 11
55.4063
 21
-52.2634
  0
LINE
  8
0
 10
55.4063
 20
-52.2634
 11
54.8989
 21
-51.1237
  0
LINE
  8
0
 10
54.8989
 20
-51.1237
 11
54.8989
 21
-49.8763
  0
LINE
  8
0
 10
54.8989
 20
-49.8763
 11
55.4063
 21
-48.7366
  0
LINE
  8
0
 10
55.4063
 20
-48.7366
 11
56.3333
 21
-47.9019
  0
LINE
  8
0
 10
56.3333
 20
-47.9019
 11
57.5197
 21
-47.5164
  0
LINE
  8
0
 10
57.5197
 20
-47.5164
 11
58.7604
 21
-47.6468
  0
LINE
  8
0
 10
58.7604
 20
-47.6468
 11
59.8407
 21
-48.2706
  0
LINE
  8
0
 10
59.8407
 20
-48.2706
 11
60.574
 21
-49.2798
  0
LINE
  8
0
 10
60.574
 20
-49.2798
 11
60.8333
 21
-50.5
  0
LINE
  8
0
 10
60.8333
 20
-50.5
 11
60.574
 21
-51.7202
  0
LINE
  8
0
 10
60.574
 20
-51.7202
 11
59.8407
 21
-52.7294
  0
LINE
  8
0
 10
59.8407
 20
-52.7294
 11
58.7604
 21
-53.3532
  0
LINE
  8
0
 10
58.7604
 20
-53.3532
 11
57.5197
 21
-53.4836
  0
LINE
  8
0
 10
57.5197
 20
-53.4836
 11
56.3333
 21
-53.0981
  0
LINE
  8
0
 10
65.3333
 20
-53.0981
 11
64.4063
 21
-52.2634
  0
LINE
  8
0
 10
64.4063
 20
-52.2634
 11
63.8989
 21
-51.1237
  0
LINE
  8
0
 10
63.8989
 20
-51.1237
 11
63.8989
 21
-49.8763
  0
LINE
  8
0
 10
63.8989
 20
-49.8763
 11
64.4063
 21
-48.7366
  0
LINE
  8
0
 10
64.4063
 20
-48.7366
 11
65.3333
 21
-47.9019
  0
LINE
  8
0
 10
65.3333
 20
-47.9019
 11
66.5197
 21
-47.5164
  0
LINE
  8
0
 10
66.5197
 20
-47.5164
 11
67.7604
 21
-47.6468
  0
LINE
  8
0
 10
67.7604
 20
-47.6468
 11
68.8407
 21
-48.2706
  0
LINE
  8
0
 10
68.8407
 20
-48.2706
 11
69.574
 21
-49.2798
  0
LINE
  8
0
 10
69.574
 20
-49.2798
 11
69.8333
 21
-50.5
  0
LINE
  8
0
 10
69.8333
 20
-50.5
 11
69.574
 21
-51.7202
  0
LINE
  8
0
 10
69.574
 20
-51.7202
 11
68.8407
 21
-52.7294
  0
LINE
  8
0
 10
68.8407
 20
-52.7294
 11
67.7604
 21
-53.3532
  0
LINE
  8
0
 10
67.7604
 20
-53.3532
 11
66.5197
 21
-53.4836
  0
LINE
  8
0
 10
66.5197
 20
-53.4836
 11
65.3333
 21
-53.0981
  0
LINE
  8
0
 10
74.3333
 20
-53.0981
 11
73.4063
 21
-52.2634
  0
LINE
  8
0
 10
73.4063
 20
-52.2634
 11
72.8989
 21
-51.1237
  0
LINE
  8
0
 10
72.8989
 20
-51.1237
 11
72.8989
 21
-49.8763
  0
LINE
  8
0
 10
72.8989
 20
-49.8763
 11
73.4063
 21
-48.7366
  0
LINE
  8
0
 10
73.4063
 20
-48.7366
 11
74.3333
 21
-47.9019
  0
LINE
  8
0
 10
74.3333
 20
-47.9019
 11
75.5197
 21
-47.5164
  0
LINE
  8
0
 10
75.5197
 20
-47.5164
 11
76.7604
 21
-47.6468
  0
LINE
  8
0
 10
76.7604
 20
-47.6468
 11
77.8407
 21
-48.2706
  0
LINE
  8
0
 10
77.8407
 20
-48.2706
 11
78.574
 21
-49.2798
  0
LINE
  8
0
 10
78.574
 20
-49.2798
 11
78.8333
 21
-50.5
  0
LINE
  8
0
 10
78.8333
 20
-50.5
 11
78.574
 21
-51.7202
  0
LINE
  8
0
 10
78.574
 20
-51.7202
 11
77.8407
 21
-52.7294
  0
LINE
  8
0
 10
77.8407
 20
-52.7294
 11
76.7604
 21
-53.3532
  0
LINE
  8
0
 10
76.7604
 20
-53.3532
 11
75.5197
 21
-53.4836
  0
LINE
  8
0
 10
75.5197
 20
-53.4836
 11
74.3333
 21
-53.0981
  0
LINE
  8
0
 10
83.3333
 20
-53.0981
 11
82.4063
 21
-52.2634
  0
LINE
  8
0
 10
82.4063
 20
-52.2634
 11
81.8989
 21
-51.1237
  0
LINE
  8
0
 10
81.8989
 20
-51.1237
 11
81.8989
 21
-49.8763
  0
LINE
  8
0
 10
81.8989
 20
-49.8763
 11
82.4063
 21
-48.7366
  0
LINE
  8
0
 10
82.4063
 20
-48.7366
 11
83.3333
 21
-47.9019
  0
LINE
  8
0
 10
83.3333
 20
-47.9019
 11
84.5197
 21
-47.5164
  0
LINE
  8
0
 10
84.5197
 20
-47.5164
 11
85.7604
 21
-47.6468
  0
LINE
  8
0
 10
85.7604
 20
-47.6468
 11
86.8407
 21
-48.2706
  0
LINE
  8
0
 10
86.8407
 20
-48.2706
 11
87.574
 21
-49.2798
  0
LINE
  8
0
 10
87.574
 20
-49.2798
 11
87.8333
 21
-50.5
  0
LINE
  8
0
 10
87.8333
 20
-50.5
 11
87.574
 21
-51.7202
  0
LINE
  8
0
 10
87.574
 20
-51.7202
 11
86.8407
 21
-52.7294
  0
LINE
  8
0
 10
86.8407
 20
-52.7294
 11
85.7604
 21
-53.3532
  0
LINE
  8
0
 10
85.7604
 20
-53.3532
 11
84.5197
 21
-53.4836
  0
LINE
  8
0
 10
84.5197
 20
-53.4836
 11
83.3333
 21
-53.0981
  0
LINE
  8
0
 10
20.3333
 20
-62.0981
 11
19.4063
 21
-61.2634
  0
LINE
  8
0
 10
19.4063
 20
-61.2634
 11
18.8989
 21
-60.1237
  0
LINE
  8
0
 10
18.8989
 20
-60.1237
 11
18.8989
 21
-58.8763
  0
LINE
  8
0
 10
18.8989
 20
-58.8763
 11
19.4063
 21
-57.7366
  0
LINE
  8
0
 10
19.4063
 20
-57.7366
 11
20.3333
 21
-56.9019
  0
LINE
  8
0
 10
20.3333
 20
-56.9019
 11
21.5197
 21
-56.5164
  0
LINE
  8
0
 10
21.5197
 20
-56.5164
 11
22.7604
 21
-56.6468
  0
LINE
  8
0
 10
22.7604
 20
-56.6468
 11
23.8407
 21
-57.2706
  0
LINE
  8
0
 10
23.8407
 20
-57.2706
 11
24.574
 21
-58.2798
  0
LINE
  8
0
 10
24.574
 20
-58.2798
 11
24.8333
 21
-59.5
  0
LINE
  8
0
 10
24.8333
 20
-59.5
 11
24.574
 21
-60.7202
  0
LINE
  8
0
 10
24.574
 20
-60.7202
 11
23.8407
 21
-61.7294
  0
LINE
  8
0
 10
23.8407
 20
-61.7294
 11
22.7604
 21
-62.3532
  0
LINE
  8
0
 10
22.7604
 20
-62.3532
 11
21.5197
 21
-62.4836
  0
LINE
  8
0
 10
21.5197
 20
-62.4836
 11
20.3333
 21
-62.0981
  0
LINE
  8
0
 10
29.3333
 20
-62.0981
 11
28.4063
 21
-61.2634
  0
LINE
  8
0
 10
28.4063
 20
-61.2634
 11
27.8989
 21
-60.1237
  0
LINE
  8
0
 10
27.8989
 20
-60.1237
 11
27.8989
 21
-58.8763
  0
LINE
  8
0
 10
27.8989
 20
-58.8763
 11
28.4063
 21
-57.7366
  0
LINE
  8
0
 10
28.4063
 20
-57.7366
 11
29.3333
 21
-56.9019
  0
LINE
  8
0
 10
29.3333
 20
-56.9019
 11
30.5197
 21
-56.5164
  0
LINE
  8
0
 10
30.5197
 20
-56.5164
 11
31.7604
 21
-56.6468
  0
LINE
  8
0
 10
31.7604
 20
-56.6468
 11
32.8407
 21
-57.2706
  0
LINE
  8
0
 10
32.8407
 20
-57.2706
 11
33.574
 21
-58.2798
  0
LINE
  8
0
 10
33.574
 20
-58.2798
 11
33.8333
 21
-59.5
  0
LINE
  8
0
 10
33.8333
 20
-59.5
 11
33.574
 21
-60.7202
  0
LINE
  8
0
 10
33.574
 20
-60.7202
 11
32.8407
 21
-61.7294
  0
LINE
  8
0
 10
32.8407
 20
-61.7294
 11
31.7604
 21
-62.3532
  0
LINE
  8
0
 10
31.7604
 20
-62.3532
 11
30.5197
 21
-62.4836
  0
LINE
  8
0
 10
30.5197
 20
-62.4836
 11
29.3333
 21
-62.0981
  0
LINE
  8
0
 10
38.3333
 20
-62.0981
 11
37.4063
 21
-61.2634
  0
LINE
  8
0
 10
37.4063
 20
-61.2634
 11
36.8989
 21
-60.1237
  0
LINE
  8
0
 10
36.8989
 20
-60.1237
 11
36.8989
 21
-58.8763
  0
LINE
  8
0
 10
36.8989
 20
-58.8763
 11
37.4063
 21
-57.7366
  0
LINE
  8
0
 10
37.4063
 20
-57.7366
 11
38.3333
 21
-56.9019
  0
LINE
  8
0
 10
38.3333
 20
-56.9019
 11
39.5197
 21
-56.5164
  0
LINE
  8
0
 10
39.5197
 20
-56.5164
 11
40.7604
 21
-56.6468
  0
LINE
  8
0
 10
40.7604
 20
-56.6468
 11
41.8407
 21
-57.2706
  0
LINE
  8
0
 10
41.8407
 20
-57.2706
 11
42.574
 21
-58.2798
  0
LINE
  8
0
 10
42.574
 20
-58.2798
 11
42.8333
 21
-59.5
  0
LINE
  8
0
 10
42.8333
 20
-59.5
 11
42.574
 21
-60.7202
  0
LINE
  8
0
 10
42.574
 20
-60.7202
 11
41.8407
 21
-61.7294
  0
LINE
  8
0
 10
41.8407
 20
-61.7294
 11
40.7604
 21
-62.3532
  0
LINE
  8
0
 10
40.7604
 20
-62.3532
 11
39.5197
 21
-62.4836
  0
LINE
  8
0
 10
39.5197
 20
-62.4836
 11
38.3333
 21
-62.0981
  0
LINE
  8
0
 10
47.3333
 20
-62.0981
 11
46.4063
 21
-61.2634
  0
LINE
  8
0
 10
46.4063
 20
-61.2634
 11
45.8989
 21
-60.1237
  0
LINE
  8
0
 10
45.8989
 20
-60.1237
 11
45.8989
 21
-58.8763
  0
LINE
  8
0
 10
45.8989
 20
-58.8763
 11
46.4063
 21
-57.7366
  0
LINE
  8
0
 10
46.4063
 20
-57.7366
 11
47.3333
 21
-56.9019
  0
LINE
  8
0
 10
47.3333
 20
-56.9019
 11
48.5197
 21
-56.5164
  0
LINE
  8
0
 10
48.5197
 20
-56.5164
 11
49.7604
 21
-56.6468
  0
LINE
  8
0
 10
49.7604
 20
-56.6468
 11
50.8407
 21
-57.2706
  0
LINE
  8
0
 10
50.8407
 20
-57.2706
 11
51.574
 21
-58.2798
  0
LINE
  8
0
 10
51.574
 20
-58.2798
 11
51.8333
 21
-59.5
  0
LINE
  8
0
 10
51.8333
 20
-59.5
 11
51.574
 21
-60.7202
  0
LINE
  8
0
 10
51.574
 20
-60.7202
 11
50.8407
 21
-61.7294
  0
LINE
  8
0
 10
50.8407
 20
-61.7294
 11
49.7604
 21
-62.3532
  0
LINE
  8
0
 10
49.7604
 20
-62.3532
 11
48.5197
 21
-62.4836
  0
LINE
  8
0
 10
48.5197
 20
-62.4836
 11
47.3333
 21
-62.0981
  0
LINE
  8
0
 10
56.3333
 20
-62.0981
 11
55.4063
 21
-61.2634
  0
LINE
  8
0
 10
55.4063
 20
-61.2634
 11
54.8989
 21
-60.1237
  0
LINE
  8
0
 10
54.8989
 20
-60.1237
 11
54.8989
 21
-58.8763
  0
LINE
  8
0
 10
54.8989
 20
-58.8763
 11
55.4063
 21
-57.7366
  0
LINE
  8
0
 10
55.4063
 20
-57.7366
 11
56.3333
 21
-56.9019
  0
LINE
  8
0
 10
56.3333
 20
-56.9019
 11
57.5197
 21
-56.5164
  0
LINE
  8
0
 10
57.5197
 20
-56.5164
 11
58.7604
 21
-56.6468
  0
LINE
  8
0
 10
58.7604
 20
-56.6468
 11
59.8407
 21
-57.2706
  0
LINE
  8
0
 10
59.8407
 20
-57.2706
 11
60.574
 21
-58.2798
  0
LINE
  8
0
 10
60.574
 20
-58.2798
 11
60.8333
 21
-59.5
  0
LINE
  8
0
 10
60.8333
 20
-59.5
 11
60.574
 21
-60.7202
  0
LINE
  8
0
 10
60.574
 20
-60.7202
 11
59.8407
 21
-61.7294
  0
LINE
  8
0
 10
59.8407
 20
-61.7294
 11
58.7604
 21
-62.3532
  0
LINE
  8
0
 10
58.7604
 20
-62.3532
 11
57.5197
 21
-62.4836
  0
LINE
  8
0
 10
57.5197
 20
-62.4836
 11
56.3333
 21
-62.0981
  0
LINE
  8
0
 10
83.3333
 20
-62.0981
 11
82.4063
 21
-61.2634
  0
LINE
  8
0
 10
82.4063
 20
-61.2634
 11
81.8989
 21
-60.1237
  0
LINE
  8
0
 10
81.8989
 20
-60.1237
 11
81.8989
 21
-58.8763
  0
LINE
  8
0
 10
81.8989
 20
-58.8763
 11
82.4063
 21
-57.7366
  0
LINE
  8
0
 10
82.4063
 20
-57.7366
 11
83.3333
 21
-56.9019
  0
LINE
  8
0
 10
83.3333
 20
-56.9019
 11
84.5197
 21
-56.5164
  0
LINE
  8
0
 10
84.5197
 20
-56.5164
 11
85.7604
 21
-56.6468
  0
LINE
  8
0
 10
85.7604
 20
-56.6468
 11
86.8407
 21
-57.2706
  0
LINE
  8
0
 10
86.8407
 20
-57.2706
 11
87.574
 21
-58.2798
  0
LINE
  8
0
 10
87.574
 20
-58.2798
 11
87.8333
 21
-59.5
  0
LINE
  8
0
 10
87.8333
 20
-59.5
 11
87.574
 21
-60.7202
  0
LINE
  8
0
 10
87.574
 20
-60.7202
 11
86.8407
 21
-61.7294
  0
LINE
  8
0
 10
86.8407
 20
-61.7294
 11
85.7604
 21
-62.3532
  0
LINE
  8
0
 10
85.7604
 20
-62.3532
 11
84.5197
 21
-62.4836
  0
LINE
  8
0
 10
84.5197
 20
-62.4836
 11
83.3333
 21
-62.0981
  0
LINE
  8
0
 10
74.3333
 20
-62.0981
 11
73.4063
 21
-61.2634
  0
LINE
  8
0
 10
73.4063
 20
-61.2634
 11
72.8989
 21
-60.1237
  0
LINE
  8
0
 10
72.8989
 20
-60.1237
 11
72.8989
 21
-58.8763
  0
LINE
  8
0
 10
72.8989
 20
-58.8763
 11
73.4063
 21
-57.7366
  0
LINE
  8
0
 10
73.4063
 20
-57.7366
 11
74.3333
 21
-56.9019
  0
LINE
  8
0
 10
74.3333
 20
-56.9019
 11
75.5197
 21
-56.5164
  0
LINE
  8
0
 10
75.5197
 20
-56.5164
 11
76.7604
 21
-56.6468
  0
LINE
  8
0
 10
76.7604
 20
-56.6468
 11
77.8407
 21
-57.2706
  0
LINE
  8
0
 10
77.8407
 20
-57.2706
 11
78.574
 21
-58.2798
  0
LINE
  8
0
 10
78.574
 20
-58.2798
 11
78.8333
 21
-59.5
  0
LINE
  8
0
 10
78.8333
 20
-59.5
 11
78.574
 21
-60.7202
  0
LINE
  8
0
 10
78.574
 20
-60.7202
 11
77.8407
 21
-61.7294
  0
LINE
  8
0
 10
77.8407
 20
-61.7294
 11
76.7604
 21
-62.3532
  0
LINE
  8
0
 10
76.7604
 20
-62.3532
 11
75.5197
 21
-62.4836
  0
LINE
  8
0
 10
75.5197
 20
-62.4836
 11
74.3333
 21
-62.0981
  0
LINE
  8
0
 10
65.3333
 20
-62.0981
 11
64.4063
 21
-61.2634
  0
LINE
  8
0
 10
64.4063
 20
-61.2634
 11
63.8989
 21
-60.1237
  0
LINE
  8
0
 10
63.8989
 20
-60.1237
 11
63.8989
 21
-58.8763
  0
LINE
  8
0
 10
63.8989
 20
-58.8763
 11
64.4063
 21
-57.7366
  0
LINE
  8
0
 10
64.4063
 20
-57.7366
 11
65.3333
 21
-56.9019
  0
LINE
  8
0
 10
65.3333
 20
-56.9019
 11
66.5197
 21
-56.5164
  0
LINE
  8
0
 10
66.5197
 20
-56.5164
 11
67.7604
 21
-56.6468
  0
LINE
  8
0
 10
67.7604
 20
-56.6468
 11
68.8407
 21
-57.2706
  0
LINE
  8
0
 10
68.8407
 20
-57.2706
 11
69.574
 21
-58.2798
  0
LINE
  8
0
 10
69.574
 20
-58.2798
 11
69.8333
 21
-59.5
  0
LINE
  8
0
 10
69.8333
 20
-59.5
 11
69.574
 21
-60.7202
  0
LINE
  8
0
 10
69.574
 20
-60.7202
 11
68.8407
 21
-61.7294
  0
LINE
  8
0
 10
68.8407
 20
-61.7294
 11
67.7604
 21
-62.3532
  0
LINE
  8
0
 10
67.7604
 20
-62.3532
 11
66.5197
 21
-62.4836
  0
LINE
  8
0
 10
66.5197
 20
-62.4836
 11
65.3333
 21
-62.0981
  0
ENDSEC
  0
SECTION
  2
OBJECTS
  0
DICTIONARY
  0
ENDSEC
  0
EOF
