  0
SECTION
  2
HEADER
  9
$ACADVER
  1
AC1014
  9
$HANDSEED
  5
FFFF
  9
$MEASUREMENT
 70
     1
  0
ENDSEC
  0
SECTION
  2
TABLES
  0
TABLE
  2
VPORT
  5
8
330
0
100
AcDbSymbolTable
 70
     4
  0
VPORT
  5
2E
330
8
100
AcDbSymbolTableRecord
100
AcDbViewportTableRecord
  2
*ACTIVE
 70
     0
 10
0.0
 20
0.0
 11
1.0
 21
1.0
 12
210.0
 22
148.5
 13
0.0
 23
0.0
 14
10.0
 24
10.0
 15
10.0
 25
10.0
 16
0.0
 26
0.0
 36
1.0
 17
0.0
 27
0.0
 37
0.0
 40
341.0
 41
1.24
 42
50.0
 43
0.0
 44
0.0
 50
0.0
 51
0.0
 71
     0
 72
   100
 73
     1
 74
     3
 75
     0
 76
     0
 77
     0
 78
     0
  0
ENDTAB
  0
TABLE
  2
LTYPE
  5
5
330
0
100
AcDbSymbolTable
 70
     1
  0
LTYPE
  5
14
330
5
100
AcDbSymbolTableRecord
100
AcDbLinetypeTableRecord
  2
BYBLOCK
 70
     0
  3

 72
    65
 73
     0
 40
0.0
  0
LTYPE
  5
15
330
5
100
AcDbSymbolTableRecord
100
AcDbLinetypeTableRecord
  2
BYLAYER
 70
     0
  3

 72
    65
 73
     0
 40
0.0
  0
LTYPE
  5
16
330
5
100
AcDbSymbolTableRecord
100
AcDbLinetypeTableRecord
  2
CONTINUOUS
 70
     0
  3
Solid line
 72
    65
 73
     0
 40
0.0
  0
ENDTAB
  0
TABLE
  2
LAYER
  5
2
100
AcDbSymbolTable
 70
2
  0
LAYER
  5
50
100
AcDbSymbolTableRecord
100
AcDbLayerTableRecord
  2
0
 70
0
  6
CONTINUOUS
  0
LAYER
  5
51
100
AcDbSymbolTableRecord
100
AcDbLayerTableRecord
  2
Layer_1
 70
0
  6
CONTINUOUS
  0
ENDTAB
  0
TABLE
  2
STYLE
  5
3
330
0
100
AcDbSymbolTable
 70
     1
  0
STYLE
  5
11
330
3
100
AcDbSymbolTableRecord
100
AcDbTextStyleTableRecord
  2
STANDARD
 70
     0
 40
0.0
 41
1.0
 50
0.0
 71
     0
 42
2.5
  3
txt
  4

  0
ENDTAB
  0
TABLE
  2
VIEW
  5
6
330
0
100
AcDbSymbolTable
 70
     0
  0
ENDTAB
  0
TABLE
  2
UCS
  5
7
330
0
100
AcDbSymbolTable
 70
     0
  0
ENDTAB
  0
TABLE
  2
APPID
  5
9
330
0
100
AcDbSymbolTable
 70
     2
  0
APPID
  5
12
330
9
100
AcDbSymbolTableRecord
100
AcDbRegAppTableRecord
  2
ACAD
 70
     0
  0
ENDTAB
  0
TABLE
  2
DIMSTYLE
  5
A
330
0
100
AcDbSymbolTable
 70
     1
  0
DIMSTYLE
105
27
330
A
100
AcDbSymbolTableRecord
100
AcDbDimStyleTableRecord
  2
ISO-25
 70
     0
  3

  4

  5

  6

  7

 40
1.0
 41
2.5
 42
0.625
 43
3.75
 44
1.25
 45
0.0
 46
0.0
 47
0.0
 48
0.0
140
2.5
141
2.5
142
0.0
143
0.03937007874016
144
1.0
145
0.0
146
1.0
147
0.625
 71
     0
 72
     0
 73
     0
 74
     0
 75
     0
 76
     0
 77
     1
 78
     8
170
     0
171
     3
172
     1
173
     0
174
     0
175
     0
176
     0
177
     0
178
     0
270
     2
271
     2
272
     2
273
     2
274
     3
340
11
275
     0
280
     0
281
     0
282
     0
283
     0
284
     8
285
     0
286
     0
287
     3
288
     0
  0
ENDTAB
  0
TABLE
  2
BLOCK_RECORD
  5
1
330
0
100
AcDbSymbolTable
 70
     1
  0
BLOCK_RECORD
  5
1F
330
1
100
AcDbSymbolTableRecord
100
AcDbBlockTableRecord
  2
*MODEL_SPACE
  0
BLOCK_RECORD
  5
1B
330
1
100
AcDbSymbolTableRecord
100
AcDbBlockTableRecord
  2
*PAPER_SPACE
  0
ENDTAB
  0
ENDSEC
  0
SECTION
  2
BLOCKS
  0
BLOCK
  5
20
330
1F
100
AcDbEntity
  8
0
100
AcDbBlockBegin
  2
*MODEL_SPACE
 70
     0
 10
0.0
 20
0.0
 30
0.0
  3
*MODEL_SPACE
  1

  0
ENDBLK
  5
21
330
1F
100
AcDbEntity
  8
0
100
AcDbBlockEnd
  0
BLOCK
  5
1C
330
1B
100
AcDbEntity
 67
     1
  8
0
100
AcDbBlockBegin
  2
*PAPER_SPACE
  1

  0
ENDBLK
  5
1D
330
1B
100
AcDbEntity
 67
     1
  8
0
100
AcDbBlockEnd
  0
ENDSEC
  0
SECTION
  2
ENTITIES
  0
LWPOLYLINE
  5
100
100
AcDbEntity
  8
Layer_1
 62
7
100
AcDbPolyline
 90
53
 70
0
 10
238.311169
 20
211.041761
 30
0.0
 10
239.527168
 20
211.353761
 30
0.0
 10
240.695168
 20
211.816761
 30
0.0
 10
241.795168
 20
212.421760
 30
0.0
 10
242.811168
 20
213.159760
 30
0.0
 10
243.727168
 20
214.019759
 30
0.0
 10
244.527170
 20
214.986760
 30
0.0
 10
245.200168
 20
216.046761
 30
0.0
 10
245.735168
 20
217.183761
 30
0.0
 10
246.123167
 20
218.377761
 30
0.0
 10
246.358168
 20
219.611761
 30
0.0
 10
246.437168
 20
220.864760
 30
0.0
 10
246.437168
 20
320.864760
 30
0.0
 10
246.358168
 20
322.117760
 30
0.0
 10
246.123167
 20
323.351760
 30
0.0
 10
245.735168
 20
324.545760
 30
0.0
 10
245.200168
 20
325.682760
 30
0.0
 10
244.527170
 20
326.742760
 30
0.0
 10
243.727168
 20
327.709760
 30
0.0
 10
242.811168
 20
328.569760
 30
0.0
 10
241.795168
 20
329.307760
 30
0.0
 10
240.695168
 20
329.912760
 30
0.0
 10
239.527168
 20
330.375760
 30
0.0
 10
238.311169
 20
330.687760
 30
0.0
 10
237.065169
 20
330.844760
 30
0.0
 10
-4.190741
 20
330.844760
 30
0.0
 10
-5.436661
 20
330.687760
 30
0.0
 10
-6.653012
 20
330.375760
 30
0.0
 10
-7.820631
 20
329.912760
 30
0.0
 10
-8.921112
 20
329.307760
 30
0.0
 10
-9.937081
 20
328.569760
 30
0.0
 10
-10.852521
 20
327.709760
 30
0.0
 10
-11.653011
 20
326.742760
 30
0.0
 10
-12.325912
 20
325.682760
 30
0.0
 10
-12.860606
 20
324.545760
 30
0.0
 10
-13.248669
 20
323.351760
 30
0.0
 10
-13.483989
 20
322.117760
 30
0.0
 10
-13.562832
 20
320.864760
 30
0.0
 10
-13.562832
 20
220.864760
 30
0.0
 10
-13.483989
 20
219.611761
 30
0.0
 10
-13.248669
 20
218.377761
 30
0.0
 10
-12.860606
 20
217.183761
 30
0.0
 10
-12.325912
 20
216.046761
 30
0.0
 10
-11.653011
 20
214.986760
 30
0.0
 10
-10.852521
 20
214.019759
 30
0.0
 10
-9.937081
 20
213.159760
 30
0.0
 10
-8.921112
 20
212.421760
 30
0.0
 10
-7.820631
 20
211.816761
 30
0.0
 10
-6.653012
 20
211.353761
 30
0.0
 10
-5.436661
 20
211.041761
 30
0.0
 10
-4.190741
 20
210.884761
 30
0.0
 10
237.065169
 20
210.884761
 30
0.0
 10
238.311169
 20
211.041761
 30
0.0
  0
LWPOLYLINE
  5
101
100
AcDbEntity
  8
Layer_1
 62
7
100
AcDbPolyline
 90
51
 70
0
 10
236.337168
 20
319.267760
 30
0.0
 10
236.137169
 20
319.292759
 30
0.0
 10
235.943169
 20
319.342760
 30
0.0
 10
235.756169
 20
319.416760
 30
0.0
 10
235.580169
 20
319.513760
 30
0.0
 10
235.417169
 20
319.631760
 30
0.0
 10
235.271170
 20
319.769760
 30
0.0
 10
235.143168
 20
319.924760
 30
0.0
 10
235.035167
 20
320.093760
 30
0.0
 10
234.949168
 20
320.275760
 30
0.0
 10
234.887170
 20
320.466760
 30
0.0
 10
234.850168
 20
320.663760
 30
0.0
 10
234.837157
 20
320.864760
 30
0.0
 10
234.850179
 20
321.065760
 30
0.0
 10
234.887170
 20
321.262760
 30
0.0
 10
234.949168
 20
321.453760
 30
0.0
 10
235.035167
 20
321.635760
 30
0.0
 10
235.143168
 20
321.804760
 30
0.0
 10
235.271170
 20
321.959760
 30
0.0
 10
235.417169
 20
322.097760
 30
0.0
 10
235.580169
 20
322.215760
 30
0.0
 10
235.756169
 20
322.312760
 30
0.0
 10
235.943169
 20
322.386760
 30
0.0
 10
236.137169
 20
322.436760
 30
0.0
 10
236.337168
 20
322.461759
 30
0.0
 10
236.537168
 20
322.461760
 30
0.0
 10
236.737167
 20
322.436761
 30
0.0
 10
236.931170
 20
322.386760
 30
0.0
 10
237.118167
 20
322.312760
 30
0.0
 10
237.294170
 20
322.215760
 30
0.0
 10
237.457170
 20
322.097760
 30
0.0
 10
237.603169
 20
321.959760
 30
0.0
 10
237.731168
 20
321.804760
 30
0.0
 10
237.839169
 20
321.635760
 30
0.0
 10
237.925168
 20
321.453760
 30
0.0
 10
237.987169
 20
321.262760
 30
0.0
 10
238.024168
 20
321.065760
 30
0.0
 10
238.037179
 20
320.864760
 30
0.0
 10
238.024157
 20
320.663760
 30
0.0
 10
237.987169
 20
320.466760
 30
0.0
 10
237.925168
 20
320.275760
 30
0.0
 10
237.839169
 20
320.093760
 30
0.0
 10
237.731168
 20
319.924760
 30
0.0
 10
237.603169
 20
319.769760
 30
0.0
 10
237.457170
 20
319.631760
 30
0.0
 10
237.294170
 20
319.513760
 30
0.0
 10
237.118167
 20
319.416760
 30
0.0
 10
236.931170
 20
319.342760
 30
0.0
 10
236.737167
 20
319.292760
 30
0.0
 10
236.537168
 20
319.267761
 30
0.0
 10
236.337168
 20
319.267760
 30
0.0
  0
LWPOLYLINE
  5
102
100
AcDbEntity
  8
Layer_1
 62
7
100
AcDbPolyline
 90
51
 70
0
 10
-3.663312
 20
319.267760
 30
0.0
 10
-3.862651
 20
319.292759
 30
0.0
 10
-4.057261
 20
319.342760
 30
0.0
 10
-4.244092
 20
319.416760
 30
0.0
 10
-4.420162
 20
319.513760
 30
0.0
 10
-4.582711
 20
319.631760
 30
0.0
 10
-4.729181
 20
319.769760
 30
0.0
 10
-4.857261
 20
319.924760
 30
0.0
 10
-4.964932
 20
320.093760
 30
0.0
 10
-5.050491
 20
320.275760
 30
0.0
 10
-5.112572
 20
320.466760
 30
0.0
 10
-5.150221
 20
320.663760
 30
0.0
 10
-5.162842
 20
320.864760
 30
0.0
 10
-5.150221
 20
321.065760
 30
0.0
 10
-5.112572
 20
321.262760
 30
0.0
 10
-5.050491
 20
321.453760
 30
0.0
 10
-4.964932
 20
321.635760
 30
0.0
 10
-4.857261
 20
321.804760
 30
0.0
 10
-4.729181
 20
321.959760
 30
0.0
 10
-4.582711
 20
322.097760
 30
0.0
 10
-4.420162
 20
322.215760
 30
0.0
 10
-4.244092
 20
322.312760
 30
0.0
 10
-4.057261
 20
322.386760
 30
0.0
 10
-3.862651
 20
322.436760
 30
0.0
 10
-3.663312
 20
322.461759
 30
0.0
 10
-3.462332
 20
322.461760
 30
0.0
 10
-3.263032
 20
322.436761
 30
0.0
 10
-3.068431
 20
322.386760
 30
0.0
 10
-2.881631
 20
322.312760
 30
0.0
 10
-2.705532
 20
322.215760
 30
0.0
 10
-2.542931
 20
322.097760
 30
0.0
 10
-2.396531
 20
321.959760
 30
0.0
 10
-2.268431
 20
321.804760
 30
0.0
 10
-2.160731
 20
321.635760
 30
0.0
 10
-2.075232
 20
321.453760
 30
0.0
 10
-2.013131
 20
321.262760
 30
0.0
 10
-1.975431
 20
321.065760
 30
0.0
 10
-1.962830
 20
320.864760
 30
0.0
 10
-1.975433
 20
320.663760
 30
0.0
 10
-2.013131
 20
320.466760
 30
0.0
 10
-2.075232
 20
320.275760
 30
0.0
 10
-2.160731
 20
320.093760
 30
0.0
 10
-2.268431
 20
319.924760
 30
0.0
 10
-2.396531
 20
319.769760
 30
0.0
 10
-2.542931
 20
319.631760
 30
0.0
 10
-2.705532
 20
319.513760
 30
0.0
 10
-2.881631
 20
319.416760
 30
0.0
 10
-3.068431
 20
319.342760
 30
0.0
 10
-3.263032
 20
319.292760
 30
0.0
 10
-3.462332
 20
319.267761
 30
0.0
 10
-3.663312
 20
319.267760
 30
0.0
  0
LWPOLYLINE
  5
103
100
AcDbEntity
  8
Layer_1
 62
7
100
AcDbPolyline
 90
5
 70
0
 10
85.073567
 20
319.314760
 30
0.0
 10
85.073567
 20
322.414760
 30
0.0
 10
105.982170
 20
322.414760
 30
0.0
 10
105.982170
 20
319.314760
 30
0.0
 10
85.073567
 20
319.314760
 30
0.0
  0
LWPOLYLINE
  5
104
100
AcDbEntity
  8
Layer_1
 62
7
100
AcDbPolyline
 90
5
 70
0
 10
43.255368
 20
319.314760
 30
0.0
 10
43.255368
 20
322.414760
 30
0.0
 10
64.164468
 20
322.414760
 30
0.0
 10
64.164468
 20
319.314760
 30
0.0
 10
43.255368
 20
319.314760
 30
0.0
  0
LWPOLYLINE
  5
105
100
AcDbEntity
  8
Layer_1
 62
7
100
AcDbPolyline
 90
5
 70
0
 10
1.437168
 20
319.314760
 30
0.0
 10
1.437168
 20
322.414760
 30
0.0
 10
22.346269
 20
322.414760
 30
0.0
 10
22.346269
 20
319.314760
 30
0.0
 10
1.437168
 20
319.314760
 30
0.0
  0
LWPOLYLINE
  5
106
100
AcDbEntity
  8
Layer_1
 62
7
100
AcDbPolyline
 90
5
 70
0
 10
210.528169
 20
319.314760
 30
0.0
 10
210.528169
 20
322.414760
 30
0.0
 10
231.437170
 20
322.414760
 30
0.0
 10
231.437170
 20
319.314760
 30
0.0
 10
210.528169
 20
319.314760
 30
0.0
  0
LWPOLYLINE
  5
107
100
AcDbEntity
  8
Layer_1
 62
7
100
AcDbPolyline
 90
5
 70
0
 10
168.710168
 20
319.314760
 30
0.0
 10
168.710168
 20
322.414760
 30
0.0
 10
189.619168
 20
322.414760
 30
0.0
 10
189.619168
 20
319.314760
 30
0.0
 10
168.710168
 20
319.314760
 30
0.0
  0
LWPOLYLINE
  5
108
100
AcDbEntity
  8
Layer_1
 62
7
100
AcDbPolyline
 90
5
 70
0
 10
126.892169
 20
319.314760
 30
0.0
 10
126.892169
 20
322.414760
 30
0.0
 10
147.801167
 20
322.414760
 30
0.0
 10
147.801167
 20
319.314760
 30
0.0
 10
126.892169
 20
319.314760
 30
0.0
  0
LWPOLYLINE
  5
109
100
AcDbEntity
  8
Layer_1
 62
7
100
AcDbPolyline
 90
5
 70
0
 10
234.887170
 20
303.007760
 30
0.0
 10
234.887170
 20
315.864760
 30
0.0
 10
237.987169
 20
315.864760
 30
0.0
 10
237.987169
 20
303.007760
 30
0.0
 10
234.887170
 20
303.007760
 30
0.0
  0
LWPOLYLINE
  5
10a
100
AcDbEntity
  8
Layer_1
 62
7
100
AcDbPolyline
 90
5
 70
0
 10
-5.112831
 20
303.007760
 30
0.0
 10
-5.112831
 20
315.864760
 30
0.0
 10
-2.012831
 20
315.864760
 30
0.0
 10
-2.012831
 20
303.007760
 30
0.0
 10
-5.112831
 20
303.007760
 30
0.0
  0
LWPOLYLINE
  5
10b
100
AcDbEntity
  8
Layer_1
 62
7
100
AcDbPolyline
 90
78
 70
0
 10
116.712168
 20
298.906760
 30
0.0
 10
116.513168
 20
298.924760
 30
0.0
 10
116.322168
 20
298.955760
 30
0.0
 10
116.139170
 20
298.998760
 30
0.0
 10
115.965168
 20
299.053760
 30
0.0
 10
115.799168
 20
299.120760
 30
0.0
 10
115.641169
 20
299.199760
 30
0.0
 10
115.492170
 20
299.290760
 30
0.0
 10
115.354169
 20
299.392760
 30
0.0
 10
115.226170
 20
299.504760
 30
0.0
 10
115.109169
 20
299.628760
 30
0.0
 10
115.002170
 20
299.762760
 30
0.0
 10
114.905167
 20
299.908760
 30
0.0
 10
114.819168
 20
300.064760
 30
0.0
 10
114.744168
 20
300.230760
 30
0.0
 10
114.680168
 20
300.403760
 30
0.0
 10
114.628169
 20
300.584760
 30
0.0
 10
114.588169
 20
300.772760
 30
0.0
 10
114.559168
 20
300.968760
 30
0.0
 10
114.541163
 20
301.172760
 30
0.0
 10
114.536173
 20
301.384760
 30
0.0
 10
114.549178
 20
301.702760
 30
0.0
 10
114.587168
 20
302.000760
 30
0.0
 10
114.652169
 20
302.277760
 30
0.0
 10
114.742170
 20
302.533760
 30
0.0
 10
114.858169
 20
302.769760
 30
0.0
 10
115.000169
 20
302.985760
 30
0.0
 10
115.168167
 20
303.180760
 30
0.0
 10
115.358168
 20
303.352760
 30
0.0
 10
115.569168
 20
303.497760
 30
0.0
 10
115.800167
 20
303.616760
 30
0.0
 10
116.051167
 20
303.709760
 30
0.0
 10
116.323167
 20
303.775760
 30
0.0
 10
116.614169
 20
303.815760
 30
0.0
 10
116.926169
 20
303.828759
 30
0.0
 10
117.132169
 20
303.822760
 30
0.0
 10
117.330167
 20
303.804760
 30
0.0
 10
117.520168
 20
303.775760
 30
0.0
 10
117.702170
 20
303.733760
 30
0.0
 10
117.876168
 20
303.680760
 30
0.0
 10
118.042169
 20
303.614760
 30
0.0
 10
118.200168
 20
303.537760
 30
0.0
 10
118.349167
 20
303.449760
 30
0.0
 10
118.487168
 20
303.350760
 30
0.0
 10
118.616169
 20
303.240760
 30
0.0
 10
118.734169
 20
303.119760
 30
0.0
 10
118.841168
 20
302.988760
 30
0.0
 10
118.938168
 20
302.846760
 30
0.0
 10
119.025168
 20
302.693760
 30
0.0
 10
119.100169
 20
302.531760
 30
0.0
 10
119.164169
 20
302.360760
 30
0.0
 10
119.217170
 20
302.181760
 30
0.0
 10
119.257169
 20
301.994760
 30
0.0
 10
119.286168
 20
301.799760
 30
0.0
 10
119.304173
 20
301.596760
 30
0.0
 10
119.310179
 20
301.384760
 30
0.0
 10
119.304156
 20
301.173760
 30
0.0
 10
119.286162
 20
300.970760
 30
0.0
 10
119.257169
 20
300.775760
 30
0.0
 10
119.215169
 20
300.587760
 30
0.0
 10
119.162168
 20
300.407760
 30
0.0
 10
119.097169
 20
300.234760
 30
0.0
 10
119.021169
 20
300.069760
 30
0.0
 10
118.933170
 20
299.913760
 30
0.0
 10
118.835168
 20
299.768760
 30
0.0
 10
118.727167
 20
299.634760
 30
0.0
 10
118.609167
 20
299.510760
 30
0.0
 10
118.481168
 20
299.396760
 30
0.0
 10
118.342168
 20
299.294760
 30
0.0
 10
118.193169
 20
299.202760
 30
0.0
 10
118.035170
 20
299.122760
 30
0.0
 10
117.869169
 20
299.054760
 30
0.0
 10
117.695168
 20
298.999760
 30
0.0
 10
117.513169
 20
298.955760
 30
0.0
 10
117.323168
 20
298.925760
 30
0.0
 10
117.125169
 20
298.906761
 30
0.0
 10
116.920169
 20
298.900760
 30
0.0
 10
116.712168
 20
298.906760
 30
0.0
  0
LWPOLYLINE
  5
10c
100
AcDbEntity
  8
Layer_1
 62
7
100
AcDbPolyline
 90
57
 70
0
 10
117.150169
 20
299.438760
 30
0.0
 10
117.365168
 20
299.470760
 30
0.0
 10
117.563167
 20
299.522760
 30
0.0
 10
117.746168
 20
299.595760
 30
0.0
 10
117.913168
 20
299.689760
 30
0.0
 10
118.064168
 20
299.803760
 30
0.0
 10
118.200168
 20
299.939760
 30
0.0
 10
118.318168
 20
300.094760
 30
0.0
 10
118.418168
 20
300.266760
 30
0.0
 10
118.500167
 20
300.455760
 30
0.0
 10
118.564167
 20
300.661760
 30
0.0
 10
118.609167
 20
300.885760
 30
0.0
 10
118.637164
 20
301.126760
 30
0.0
 10
118.646172
 20
301.385760
 30
0.0
 10
118.636179
 20
301.632760
 30
0.0
 10
118.609159
 20
301.864760
 30
0.0
 10
118.563168
 20
302.080760
 30
0.0
 10
118.499168
 20
302.280760
 30
0.0
 10
118.416170
 20
302.465760
 30
0.0
 10
118.315168
 20
302.634760
 30
0.0
 10
118.196169
 20
302.787760
 30
0.0
 10
118.060169
 20
302.922760
 30
0.0
 10
117.909169
 20
303.037760
 30
0.0
 10
117.743168
 20
303.130760
 30
0.0
 10
117.561169
 20
303.203760
 30
0.0
 10
117.365168
 20
303.255760
 30
0.0
 10
117.153169
 20
303.287760
 30
0.0
 10
116.927168
 20
303.297759
 30
0.0
 10
116.698167
 20
303.287761
 30
0.0
 10
116.484169
 20
303.256760
 30
0.0
 10
116.286168
 20
303.205760
 30
0.0
 10
116.103169
 20
303.133760
 30
0.0
 10
115.936167
 20
303.040760
 30
0.0
 10
115.784168
 20
302.927760
 30
0.0
 10
115.648168
 20
302.794760
 30
0.0
 10
115.528170
 20
302.642760
 30
0.0
 10
115.427168
 20
302.474760
 30
0.0
 10
115.344169
 20
302.289760
 30
0.0
 10
115.279168
 20
302.088760
 30
0.0
 10
115.233169
 20
301.870760
 30
0.0
 10
115.206160
 20
301.636760
 30
0.0
 10
115.197166
 20
301.385760
 30
0.0
 10
115.206171
 20
301.135760
 30
0.0
 10
115.234165
 20
300.901760
 30
0.0
 10
115.280167
 20
300.681760
 30
0.0
 10
115.346168
 20
300.477760
 30
0.0
 10
115.429169
 20
300.288760
 30
0.0
 10
115.532169
 20
300.114760
 30
0.0
 10
115.653169
 20
299.956760
 30
0.0
 10
115.790168
 20
299.816760
 30
0.0
 10
115.943169
 20
299.697760
 30
0.0
 10
116.109169
 20
299.600760
 30
0.0
 10
116.290167
 20
299.525760
 30
0.0
 10
116.486168
 20
299.471760
 30
0.0
 10
116.695167
 20
299.439760
 30
0.0
 10
116.920169
 20
299.428759
 30
0.0
 10
117.150169
 20
299.438759
 30
0.0
  0
LWPOLYLINE
  5
10d
100
AcDbEntity
  8
Layer_1
 62
7
100
AcDbPolyline
 90
34
 70
0
 10
120.078168
 20
298.964760
 30
0.0
 10
120.078168
 20
303.764760
 30
0.0
 10
122.106169
 20
303.764760
 30
0.0
 10
122.331168
 20
303.756759
 30
0.0
 10
122.540167
 20
303.733759
 30
0.0
 10
122.734170
 20
303.694760
 30
0.0
 10
122.914168
 20
303.640760
 30
0.0
 10
123.078167
 20
303.570760
 30
0.0
 10
123.227170
 20
303.485760
 30
0.0
 10
123.361169
 20
303.384760
 30
0.0
 10
123.480168
 20
303.269760
 30
0.0
 10
123.579168
 20
303.141760
 30
0.0
 10
123.661168
 20
303.001760
 30
0.0
 10
123.725168
 20
302.848760
 30
0.0
 10
123.770168
 20
302.682760
 30
0.0
 10
123.797177
 20
302.503760
 30
0.0
 10
123.806171
 20
302.312760
 30
0.0
 10
123.797165
 20
302.122760
 30
0.0
 10
123.770159
 20
301.943760
 30
0.0
 10
123.724168
 20
301.776760
 30
0.0
 10
123.661168
 20
301.620760
 30
0.0
 10
123.578169
 20
301.476760
 30
0.0
 10
123.478169
 20
301.343760
 30
0.0
 10
123.359168
 20
301.222760
 30
0.0
 10
123.225169
 20
301.115760
 30
0.0
 10
123.078167
 20
301.024760
 30
0.0
 10
122.918167
 20
300.950760
 30
0.0
 10
122.745168
 20
300.892760
 30
0.0
 10
122.559169
 20
300.851760
 30
0.0
 10
122.359170
 20
300.826761
 30
0.0
 10
122.146168
 20
300.818759
 30
0.0
 10
120.729170
 20
300.818760
 30
0.0
 10
120.729170
 20
298.964760
 30
0.0
 10
120.078168
 20
298.964760
 30
0.0
  0
LWPOLYLINE
  5
10e
100
AcDbEntity
  8
Layer_1
 62
7
100
AcDbPolyline
 90
18
 70
0
 10
122.347170
 20
301.352760
 30
0.0
 10
122.593169
 20
301.411760
 30
0.0
 10
122.794167
 20
301.511760
 30
0.0
 10
122.951167
 20
301.650760
 30
0.0
 10
123.063167
 20
301.828760
 30
0.0
 10
123.130170
 20
302.047760
 30
0.0
 10
123.152155
 20
302.305760
 30
0.0
 10
123.130184
 20
302.554760
 30
0.0
 10
123.061169
 20
302.764760
 30
0.0
 10
122.946169
 20
302.937760
 30
0.0
 10
122.785167
 20
303.071760
 30
0.0
 10
122.579168
 20
303.166760
 30
0.0
 10
122.327168
 20
303.224760
 30
0.0
 10
122.028168
 20
303.243759
 30
0.0
 10
120.729170
 20
303.243760
 30
0.0
 10
120.729170
 20
301.332760
 30
0.0
 10
122.055168
 20
301.332760
 30
0.0
 10
122.347170
 20
301.352761
 30
0.0
  0
LWPOLYLINE
  5
10f
100
AcDbEntity
  8
Layer_1
 62
7
100
AcDbPolyline
 90
9
 70
0
 10
111.984170
 20
298.964760
 30
0.0
 10
111.984170
 20
303.233760
 30
0.0
 10
110.325169
 20
303.233760
 30
0.0
 10
110.325169
 20
303.764760
 30
0.0
 10
114.294167
 20
303.764760
 30
0.0
 10
114.294167
 20
303.233760
 30
0.0
 10
112.632169
 20
303.233760
 30
0.0
 10
112.632169
 20
298.964760
 30
0.0
 10
111.984170
 20
298.964760
 30
0.0
  0
LWPOLYLINE
  5
110
100
AcDbEntity
  8
Layer_1
 62
7
100
AcDbPolyline
 90
5
 70
0
 10
116.857168
 20
285.964760
 30
0.0
 10
116.857168
 20
295.964760
 30
0.0
 10
117.357167
 20
295.964760
 30
0.0
 10
117.357167
 20
285.964760
 30
0.0
 10
116.857168
 20
285.964760
 30
0.0
  0
LWPOLYLINE
  5
111
100
AcDbEntity
  8
Layer_1
 62
7
100
AcDbPolyline
 90
5
 70
0
 10
-5.112831
 20
277.293761
 30
0.0
 10
-5.112831
 20
290.150760
 30
0.0
 10
-2.012831
 20
290.150760
 30
0.0
 10
-2.012831
 20
277.293761
 30
0.0
 10
-5.112831
 20
277.293761
 30
0.0
  0
LWPOLYLINE
  5
112
100
AcDbEntity
  8
Layer_1
 62
7
100
AcDbPolyline
 90
5
 70
0
 10
234.887170
 20
277.293761
 30
0.0
 10
234.887170
 20
290.150760
 30
0.0
 10
237.987169
 20
290.150760
 30
0.0
 10
237.987169
 20
277.293761
 30
0.0
 10
234.887170
 20
277.293761
 30
0.0
  0
LWPOLYLINE
  5
113
100
AcDbEntity
  8
Layer_1
 62
7
100
AcDbPolyline
 90
51
 70
0
 10
116.165168
 20
253.994762
 30
0.0
 10
114.296168
 20
254.230759
 30
0.0
 10
112.472169
 20
254.698759
 30
0.0
 10
110.720167
 20
255.392761
 30
0.0
 10
109.070169
 20
256.299761
 30
0.0
 10
107.546169
 20
257.406761
 30
0.0
 10
106.172167
 20
258.696759
 30
0.0
 10
104.972170
 20
260.147759
 30
0.0
 10
103.962167
 20
261.738762
 30
0.0
 10
103.160168
 20
263.442760
 30
0.0
 10
102.578169
 20
265.234761
 30
0.0
 10
102.225168
 20
267.084759
 30
0.0
 10
102.107168
 20
268.964760
 30
0.0
 10
102.225168
 20
270.844760
 30
0.0
 10
102.578169
 20
272.694761
 30
0.0
 10
103.160168
 20
274.486759
 30
0.0
 10
103.962167
 20
276.190760
 30
0.0
 10
104.972170
 20
277.781760
 30
0.0
 10
106.172167
 20
279.232760
 30
0.0
 10
107.546169
 20
280.522759
 30
0.0
 10
109.070169
 20
281.629761
 30
0.0
 10
110.720167
 20
282.536761
 30
0.0
 10
112.472169
 20
283.230760
 30
0.0
 10
114.296168
 20
283.698761
 30
0.0
 10
116.165168
 20
283.934760
 30
0.0
 10
118.049168
 20
283.934760
 30
0.0
 10
119.918168
 20
283.698761
 30
0.0
 10
121.742167
 20
283.230760
 30
0.0
 10
123.494169
 20
282.536761
 30
0.0
 10
125.144170
 20
281.629761
 30
0.0
 10
126.668170
 20
280.522759
 30
0.0
 10
128.042168
 20
279.232760
 30
0.0
 10
129.242169
 20
277.781760
 30
0.0
 10
130.252169
 20
276.190760
 30
0.0
 10
131.054168
 20
274.486759
 30
0.0
 10
131.636170
 20
272.694761
 30
0.0
 10
131.989168
 20
270.844760
 30
0.0
 10
132.107168
 20
268.964760
 30
0.0
 10
131.989168
 20
267.084759
 30
0.0
 10
131.636170
 20
265.234761
 30
0.0
 10
131.054168
 20
263.442760
 30
0.0
 10
130.252169
 20
261.738762
 30
0.0
 10
129.242169
 20
260.147759
 30
0.0
 10
128.042168
 20
258.696759
 30
0.0
 10
126.668170
 20
257.406761
 30
0.0
 10
125.144170
 20
256.299761
 30
0.0
 10
123.494169
 20
255.392761
 30
0.0
 10
121.742167
 20
254.698759
 30
0.0
 10
119.918168
 20
254.230759
 30
0.0
 10
118.049168
 20
253.994762
 30
0.0
 10
116.165168
 20
253.994762
 30
0.0
  0
LWPOLYLINE
  5
114
100
AcDbEntity
  8
Layer_1
 62
7
100
AcDbPolyline
 90
5
 70
0
 10
134.107169
 20
268.714762
 30
0.0
 10
134.107169
 20
269.214761
 30
0.0
 10
144.107169
 20
269.214761
 30
0.0
 10
144.107169
 20
268.714762
 30
0.0
 10
134.107169
 20
268.714762
 30
0.0
  0
LWPOLYLINE
  5
115
100
AcDbEntity
  8
Layer_1
 62
7
100
AcDbPolyline
 90
5
 70
0
 10
90.107170
 20
268.714762
 30
0.0
 10
90.107170
 20
269.214761
 30
0.0
 10
100.107169
 20
269.214761
 30
0.0
 10
100.107169
 20
268.714762
 30
0.0
 10
90.107170
 20
268.714762
 30
0.0
  0
LWPOLYLINE
  5
116
100
AcDbEntity
  8
Layer_1
 62
7
100
AcDbPolyline
 90
5
 70
0
 10
-5.112831
 20
251.578762
 30
0.0
 10
-5.112831
 20
264.435759
 30
0.0
 10
-2.012831
 20
264.435759
 30
0.0
 10
-2.012831
 20
251.578762
 30
0.0
 10
-5.112831
 20
251.578762
 30
0.0
  0
LWPOLYLINE
  5
117
100
AcDbEntity
  8
Layer_1
 62
7
100
AcDbPolyline
 90
5
 70
0
 10
234.887170
 20
251.578762
 30
0.0
 10
234.887170
 20
264.435759
 30
0.0
 10
237.987169
 20
264.435759
 30
0.0
 10
237.987169
 20
251.578762
 30
0.0
 10
234.887170
 20
251.578762
 30
0.0
  0
LWPOLYLINE
  5
118
100
AcDbEntity
  8
Layer_1
 62
7
100
AcDbPolyline
 90
5
 70
0
 10
116.857168
 20
241.964760
 30
0.0
 10
116.857168
 20
251.964760
 30
0.0
 10
117.357167
 20
251.964760
 30
0.0
 10
117.357167
 20
241.964760
 30
0.0
 10
116.857168
 20
241.964760
 30
0.0
  0
LWPOLYLINE
  5
119
100
AcDbEntity
  8
Layer_1
 62
7
100
AcDbPolyline
 90
5
 70
0
 10
234.887170
 20
225.864761
 30
0.0
 10
234.887170
 20
238.721761
 30
0.0
 10
237.987169
 20
238.721761
 30
0.0
 10
237.987169
 20
225.864761
 30
0.0
 10
234.887170
 20
225.864761
 30
0.0
  0
LWPOLYLINE
  5
11a
100
AcDbEntity
  8
Layer_1
 62
7
100
AcDbPolyline
 90
5
 70
0
 10
-5.112831
 20
225.864761
 30
0.0
 10
-5.112831
 20
238.721761
 30
0.0
 10
-2.012831
 20
238.721761
 30
0.0
 10
-2.012831
 20
225.864761
 30
0.0
 10
-5.112831
 20
225.864761
 30
0.0
  0
LWPOLYLINE
  5
11b
100
AcDbEntity
  8
Layer_1
 62
7
100
AcDbPolyline
 90
51
 70
0
 10
236.337168
 20
219.267760
 30
0.0
 10
236.137169
 20
219.292765
 30
0.0
 10
235.943169
 20
219.342761
 30
0.0
 10
235.756169
 20
219.416759
 30
0.0
 10
235.580169
 20
219.513759
 30
0.0
 10
235.417169
 20
219.631759
 30
0.0
 10
235.271170
 20
219.769760
 30
0.0
 10
235.143168
 20
219.924759
 30
0.0
 10
235.035167
 20
220.093760
 30
0.0
 10
234.949168
 20
220.275759
 30
0.0
 10
234.887170
 20
220.466762
 30
0.0
 10
234.850168
 20
220.663761
 30
0.0
 10
234.837157
 20
220.864760
 30
0.0
 10
234.850179
 20
221.065761
 30
0.0
 10
234.887170
 20
221.262761
 30
0.0
 10
234.949168
 20
221.453760
 30
0.0
 10
235.035167
 20
221.635760
 30
0.0
 10
235.143168
 20
221.804760
 30
0.0
 10
235.271170
 20
221.959759
 30
0.0
 10
235.417169
 20
222.097761
 30
0.0
 10
235.580169
 20
222.215760
 30
0.0
 10
235.756169
 20
222.312760
 30
0.0
 10
235.943169
 20
222.386759
 30
0.0
 10
236.137169
 20
222.436760
 30
0.0
 10
236.337168
 20
222.461765
 30
0.0
 10
236.537168
 20
222.461759
 30
0.0
 10
236.737167
 20
222.436755
 30
0.0
 10
236.931170
 20
222.386759
 30
0.0
 10
237.118167
 20
222.312760
 30
0.0
 10
237.294170
 20
222.215760
 30
0.0
 10
237.457170
 20
222.097761
 30
0.0
 10
237.603169
 20
221.959759
 30
0.0
 10
237.731168
 20
221.804760
 30
0.0
 10
237.839169
 20
221.635760
 30
0.0
 10
237.925168
 20
221.453760
 30
0.0
 10
237.987169
 20
221.262761
 30
0.0
 10
238.024168
 20
221.065761
 30
0.0
 10
238.037179
 20
220.864760
 30
0.0
 10
238.024157
 20
220.663761
 30
0.0
 10
237.987169
 20
220.466762
 30
0.0
 10
237.925168
 20
220.275759
 30
0.0
 10
237.839169
 20
220.093760
 30
0.0
 10
237.731168
 20
219.924759
 30
0.0
 10
237.603169
 20
219.769760
 30
0.0
 10
237.457170
 20
219.631759
 30
0.0
 10
237.294170
 20
219.513759
 30
0.0
 10
237.118167
 20
219.416759
 30
0.0
 10
236.931170
 20
219.342761
 30
0.0
 10
236.737167
 20
219.292759
 30
0.0
 10
236.537168
 20
219.267755
 30
0.0
 10
236.337168
 20
219.267760
 30
0.0
  0
LWPOLYLINE
  5
11c
100
AcDbEntity
  8
Layer_1
 62
7
100
AcDbPolyline
 90
51
 70
0
 10
-3.663312
 20
219.267760
 30
0.0
 10
-3.862651
 20
219.292765
 30
0.0
 10
-4.057261
 20
219.342761
 30
0.0
 10
-4.244092
 20
219.416759
 30
0.0
 10
-4.420162
 20
219.513759
 30
0.0
 10
-4.582711
 20
219.631759
 30
0.0
 10
-4.729181
 20
219.769760
 30
0.0
 10
-4.857261
 20
219.924759
 30
0.0
 10
-4.964932
 20
220.093760
 30
0.0
 10
-5.050491
 20
220.275759
 30
0.0
 10
-5.112572
 20
220.466762
 30
0.0
 10
-5.150221
 20
220.663761
 30
0.0
 10
-5.162842
 20
220.864760
 30
0.0
 10
-5.150221
 20
221.065761
 30
0.0
 10
-5.112572
 20
221.262761
 30
0.0
 10
-5.050491
 20
221.453760
 30
0.0
 10
-4.964932
 20
221.635760
 30
0.0
 10
-4.857261
 20
221.804760
 30
0.0
 10
-4.729181
 20
221.959759
 30
0.0
 10
-4.582711
 20
222.097761
 30
0.0
 10
-4.420162
 20
222.215760
 30
0.0
 10
-4.244092
 20
222.312760
 30
0.0
 10
-4.057261
 20
222.386759
 30
0.0
 10
-3.862651
 20
222.436760
 30
0.0
 10
-3.663312
 20
222.461765
 30
0.0
 10
-3.462332
 20
222.461759
 30
0.0
 10
-3.263032
 20
222.436755
 30
0.0
 10
-3.068431
 20
222.386759
 30
0.0
 10
-2.881631
 20
222.312760
 30
0.0
 10
-2.705532
 20
222.215760
 30
0.0
 10
-2.542931
 20
222.097761
 30
0.0
 10
-2.396531
 20
221.959759
 30
0.0
 10
-2.268431
 20
221.804760
 30
0.0
 10
-2.160731
 20
221.635760
 30
0.0
 10
-2.075232
 20
221.453760
 30
0.0
 10
-2.013131
 20
221.262761
 30
0.0
 10
-1.975431
 20
221.065761
 30
0.0
 10
-1.962830
 20
220.864760
 30
0.0
 10
-1.975433
 20
220.663761
 30
0.0
 10
-2.013131
 20
220.466762
 30
0.0
 10
-2.075232
 20
220.275759
 30
0.0
 10
-2.160731
 20
220.093760
 30
0.0
 10
-2.268431
 20
219.924759
 30
0.0
 10
-2.396531
 20
219.769760
 30
0.0
 10
-2.542931
 20
219.631759
 30
0.0
 10
-2.705532
 20
219.513759
 30
0.0
 10
-2.881631
 20
219.416759
 30
0.0
 10
-3.068431
 20
219.342761
 30
0.0
 10
-3.263032
 20
219.292759
 30
0.0
 10
-3.462332
 20
219.267755
 30
0.0
 10
-3.663312
 20
219.267760
 30
0.0
  0
LWPOLYLINE
  5
11d
100
AcDbEntity
  8
Layer_1
 62
7
100
AcDbPolyline
 90
5
 70
0
 10
1.437168
 20
219.314762
 30
0.0
 10
1.437168
 20
222.414761
 30
0.0
 10
22.346269
 20
222.414761
 30
0.0
 10
22.346269
 20
219.314762
 30
0.0
 10
1.437168
 20
219.314762
 30
0.0
  0
LWPOLYLINE
  5
11e
100
AcDbEntity
  8
Layer_1
 62
7
100
AcDbPolyline
 90
5
 70
0
 10
43.255368
 20
219.314762
 30
0.0
 10
43.255368
 20
222.414761
 30
0.0
 10
64.164468
 20
222.414761
 30
0.0
 10
64.164468
 20
219.314762
 30
0.0
 10
43.255368
 20
219.314762
 30
0.0
  0
LWPOLYLINE
  5
11f
100
AcDbEntity
  8
Layer_1
 62
7
100
AcDbPolyline
 90
5
 70
0
 10
85.073567
 20
219.314762
 30
0.0
 10
85.073567
 20
222.414761
 30
0.0
 10
105.982170
 20
222.414761
 30
0.0
 10
105.982170
 20
219.314762
 30
0.0
 10
85.073567
 20
219.314762
 30
0.0
  0
LWPOLYLINE
  5
120
100
AcDbEntity
  8
Layer_1
 62
7
100
AcDbPolyline
 90
5
 70
0
 10
126.892169
 20
219.314762
 30
0.0
 10
126.892169
 20
222.414761
 30
0.0
 10
147.801167
 20
222.414761
 30
0.0
 10
147.801167
 20
219.314762
 30
0.0
 10
126.892169
 20
219.314762
 30
0.0
  0
LWPOLYLINE
  5
121
100
AcDbEntity
  8
Layer_1
 62
7
100
AcDbPolyline
 90
5
 70
0
 10
168.710168
 20
219.314762
 30
0.0
 10
168.710168
 20
222.414761
 30
0.0
 10
189.619168
 20
222.414761
 30
0.0
 10
189.619168
 20
219.314762
 30
0.0
 10
168.710168
 20
219.314762
 30
0.0
  0
LWPOLYLINE
  5
122
100
AcDbEntity
  8
Layer_1
 62
7
100
AcDbPolyline
 90
5
 70
0
 10
210.528169
 20
219.314762
 30
0.0
 10
210.528169
 20
222.414761
 30
0.0
 10
231.437170
 20
222.414761
 30
0.0
 10
231.437170
 20
219.314762
 30
0.0
 10
210.528169
 20
219.314762
 30
0.0
  0
LWPOLYLINE
  5
123
100
AcDbEntity
  8
Layer_1
 62
7
100
AcDbPolyline
 90
45
 70
0
 10
43.255368
 20
146.864761
 30
0.0
 10
64.164468
 20
146.864761
 30
0.0
 10
64.164468
 20
143.764759
 30
0.0
 10
85.073567
 20
143.764759
 30
0.0
 10
85.073567
 20
146.864761
 30
0.0
 10
105.982170
 20
146.864761
 30
0.0
 10
105.982170
 20
143.764759
 30
0.0
 10
126.892169
 20
143.764759
 30
0.0
 10
126.892169
 20
146.864761
 30
0.0
 10
147.801167
 20
146.864761
 30
0.0
 10
147.801167
 20
143.764759
 30
0.0
 10
168.710168
 20
143.764759
 30
0.0
 10
168.710168
 20
146.864761
 30
0.0
 10
189.619168
 20
146.864761
 30
0.0
 10
189.619168
 20
143.764759
 30
0.0
 10
210.528169
 20
143.764759
 30
0.0
 10
210.528169
 20
146.864761
 30
0.0
 10
231.437170
 20
146.864761
 30
0.0
 10
231.437170
 20
200.864760
 30
0.0
 10
210.528169
 20
200.864760
 30
0.0
 10
210.528169
 20
203.964760
 30
0.0
 10
189.619168
 20
203.964760
 30
0.0
 10
189.619168
 20
200.864760
 30
0.0
 10
168.710168
 20
200.864760
 30
0.0
 10
168.710168
 20
203.964760
 30
0.0
 10
147.801167
 20
203.964760
 30
0.0
 10
147.801167
 20
200.864760
 30
0.0
 10
126.892169
 20
200.864760
 30
0.0
 10
126.892169
 20
203.964760
 30
0.0
 10
105.982170
 20
203.964760
 30
0.0
 10
105.982170
 20
200.864760
 30
0.0
 10
85.073567
 20
200.864760
 30
0.0
 10
85.073567
 20
203.964760
 30
0.0
 10
64.164468
 20
203.964760
 30
0.0
 10
64.164468
 20
200.864760
 30
0.0
 10
43.255368
 20
200.864760
 30
0.0
 10
43.255368
 20
203.964760
 30
0.0
 10
22.346269
 20
203.964760
 30
0.0
 10
22.346269
 20
200.864760
 30
0.0
 10
1.437168
 20
200.864760
 30
0.0
 10
1.437168
 20
146.864761
 30
0.0
 10
22.346269
 20
146.864761
 30
0.0
 10
22.346269
 20
143.764759
 30
0.0
 10
43.255368
 20
143.764759
 30
0.0
 10
43.255368
 20
146.864761
 30
0.0
  0
LWPOLYLINE
  5
124
100
AcDbEntity
  8
Layer_1
 62
7
100
AcDbPolyline
 90
41
 70
0
 10
20.934870
 20
165.880759
 30
0.0
 10
19.938168
 20
166.006760
 30
0.0
 10
18.965069
 20
166.256761
 30
0.0
 10
18.030967
 20
166.625761
 30
0.0
 10
17.150569
 20
167.109761
 30
0.0
 10
16.337769
 20
167.700759
 30
0.0
 10
15.605467
 20
168.388761
 30
0.0
 10
14.965068
 20
169.162761
 30
0.0
 10
14.426669
 20
170.010759
 30
0.0
 10
14.187169
 20
170.519761
 30
0.0
 10
14.187169
 20
177.209760
 30
0.0
 10
14.426669
 20
177.718759
 30
0.0
 10
14.965068
 20
178.566761
 30
0.0
 10
15.605467
 20
179.340761
 30
0.0
 10
16.337769
 20
180.028759
 30
0.0
 10
17.150569
 20
180.619761
 30
0.0
 10
18.030967
 20
181.103761
 30
0.0
 10
18.965069
 20
181.472761
 30
0.0
 10
19.938168
 20
181.722759
 30
0.0
 10
20.934870
 20
181.848760
 30
0.0
 10
21.939468
 20
181.848760
 30
0.0
 10
22.936167
 20
181.722759
 30
0.0
 10
23.909269
 20
181.472761
 30
0.0
 10
24.843368
 20
181.103761
 30
0.0
 10
25.723769
 20
180.619761
 30
0.0
 10
26.536569
 20
180.028759
 30
0.0
 10
27.268868
 20
179.340761
 30
0.0
 10
27.909270
 20
178.566761
 30
0.0
 10
28.447668
 20
177.718759
 30
0.0
 10
28.687167
 20
177.209760
 30
0.0
 10
28.687167
 20
170.519761
 30
0.0
 10
28.447668
 20
170.010759
 30
0.0
 10
27.909270
 20
169.162761
 30
0.0
 10
27.268868
 20
168.388761
 30
0.0
 10
26.536569
 20
167.700759
 30
0.0
 10
25.723769
 20
167.109761
 30
0.0
 10
24.843368
 20
166.625761
 30
0.0
 10
23.909269
 20
166.256761
 30
0.0
 10
22.936167
 20
166.006760
 30
0.0
 10
21.939468
 20
165.880759
 30
0.0
 10
20.934870
 20
165.880759
 30
0.0
  0
LWPOLYLINE
  5
125
100
AcDbEntity
  8
Layer_1
 62
7
100
AcDbPolyline
 90
53
 70
0
 10
238.311169
 20
17.041884
 30
0.0
 10
239.527168
 20
17.354191
 30
0.0
 10
240.695168
 20
17.816471
 30
0.0
 10
241.795168
 20
18.421471
 30
0.0
 10
242.811168
 20
19.159623
 30
0.0
 10
243.727168
 20
20.019300
 30
0.0
 10
244.527170
 20
20.986899
 30
0.0
 10
245.200168
 20
22.047208
 30
0.0
 10
245.735168
 20
23.183491
 30
0.0
 10
246.123167
 20
24.377856
 30
0.0
 10
246.358168
 20
25.611421
 30
0.0
 10
246.437168
 20
26.864770
 30
0.0
 10
246.437168
 20
126.864759
 30
0.0
 10
246.358168
 20
128.117761
 30
0.0
 10
246.123167
 20
129.351760
 30
0.0
 10
245.735168
 20
130.545761
 30
0.0
 10
245.200168
 20
131.682761
 30
0.0
 10
244.527170
 20
132.742759
 30
0.0
 10
243.727168
 20
133.709760
 30
0.0
 10
242.811168
 20
134.569761
 30
0.0
 10
241.795168
 20
135.307761
 30
0.0
 10
240.695168
 20
135.912761
 30
0.0
 10
239.527168
 20
136.375761
 30
0.0
 10
238.311169
 20
136.687760
 30
0.0
 10
237.065169
 20
136.844760
 30
0.0
 10
-4.190741
 20
136.844760
 30
0.0
 10
-5.436661
 20
136.687760
 30
0.0
 10
-6.653012
 20
136.375761
 30
0.0
 10
-7.820631
 20
135.912761
 30
0.0
 10
-8.921112
 20
135.307761
 30
0.0
 10
-9.937081
 20
134.569761
 30
0.0
 10
-10.852521
 20
133.709760
 30
0.0
 10
-11.653011
 20
132.742759
 30
0.0
 10
-12.325912
 20
131.682761
 30
0.0
 10
-12.860606
 20
130.545761
 30
0.0
 10
-13.248669
 20
129.351760
 30
0.0
 10
-13.483989
 20
128.117761
 30
0.0
 10
-13.562832
 20
126.864759
 30
0.0
 10
-13.562832
 20
26.864770
 30
0.0
 10
-13.483989
 20
25.611421
 30
0.0
 10
-13.248669
 20
24.377856
 30
0.0
 10
-12.860606
 20
23.183491
 30
0.0
 10
-12.325912
 20
22.047208
 30
0.0
 10
-11.653011
 20
20.986899
 30
0.0
 10
-10.852521
 20
20.019300
 30
0.0
 10
-9.937081
 20
19.159623
 30
0.0
 10
-8.921112
 20
18.421471
 30
0.0
 10
-7.820631
 20
17.816471
 30
0.0
 10
-6.653012
 20
17.354191
 30
0.0
 10
-5.436661
 20
17.041884
 30
0.0
 10
-4.190741
 20
16.884489
 30
0.0
 10
237.065169
 20
16.884489
 30
0.0
 10
238.311169
 20
17.041884
 30
0.0
  0
LWPOLYLINE
  5
126
100
AcDbEntity
  8
Layer_1
 62
7
100
AcDbPolyline
 90
51
 70
0
 10
-3.663312
 20
125.267759
 30
0.0
 10
-3.862651
 20
125.292764
 30
0.0
 10
-4.057261
 20
125.342760
 30
0.0
 10
-4.244092
 20
125.416761
 30
0.0
 10
-4.420162
 20
125.513761
 30
0.0
 10
-4.582711
 20
125.631761
 30
0.0
 10
-4.729181
 20
125.769759
 30
0.0
 10
-4.857261
 20
125.924761
 30
0.0
 10
-4.964932
 20
126.093759
 30
0.0
 10
-5.050491
 20
126.275761
 30
0.0
 10
-5.112572
 20
126.466761
 30
0.0
 10
-5.150221
 20
126.663760
 30
0.0
 10
-5.162842
 20
126.864759
 30
0.0
 10
-5.150221
 20
127.065760
 30
0.0
 10
-5.112572
 20
127.262760
 30
0.0
 10
-5.050491
 20
127.453759
 30
0.0
 10
-4.964932
 20
127.635762
 30
0.0
 10
-4.857261
 20
127.804759
 30
0.0
 10
-4.729181
 20
127.959761
 30
0.0
 10
-4.582711
 20
128.097759
 30
0.0
 10
-4.420162
 20
128.215759
 30
0.0
 10
-4.244092
 20
128.312759
 30
0.0
 10
-4.057261
 20
128.386761
 30
0.0
 10
-3.862651
 20
128.436759
 30
0.0
 10
-3.663312
 20
128.461764
 30
0.0
 10
-3.462332
 20
128.461761
 30
0.0
 10
-3.263032
 20
128.436756
 30
0.0
 10
-3.068431
 20
128.386761
 30
0.0
 10
-2.881631
 20
128.312759
 30
0.0
 10
-2.705532
 20
128.215759
 30
0.0
 10
-2.542931
 20
128.097759
 30
0.0
 10
-2.396531
 20
127.959761
 30
0.0
 10
-2.268431
 20
127.804759
 30
0.0
 10
-2.160731
 20
127.635762
 30
0.0
 10
-2.075232
 20
127.453759
 30
0.0
 10
-2.013131
 20
127.262760
 30
0.0
 10
-1.975431
 20
127.065760
 30
0.0
 10
-1.962830
 20
126.864759
 30
0.0
 10
-1.975433
 20
126.663760
 30
0.0
 10
-2.013131
 20
126.466761
 30
0.0
 10
-2.075232
 20
126.275761
 30
0.0
 10
-2.160731
 20
126.093759
 30
0.0
 10
-2.268431
 20
125.924761
 30
0.0
 10
-2.396531
 20
125.769759
 30
0.0
 10
-2.542931
 20
125.631761
 30
0.0
 10
-2.705532
 20
125.513761
 30
0.0
 10
-2.881631
 20
125.416761
 30
0.0
 10
-3.068431
 20
125.342760
 30
0.0
 10
-3.263032
 20
125.292761
 30
0.0
 10
-3.462332
 20
125.267756
 30
0.0
 10
-3.663312
 20
125.267759
 30
0.0
  0
LWPOLYLINE
  5
127
100
AcDbEntity
  8
Layer_1
 62
7
100
AcDbPolyline
 90
51
 70
0
 10
236.337168
 20
125.267759
 30
0.0
 10
236.137169
 20
125.292764
 30
0.0
 10
235.943169
 20
125.342760
 30
0.0
 10
235.756169
 20
125.416761
 30
0.0
 10
235.580169
 20
125.513761
 30
0.0
 10
235.417169
 20
125.631761
 30
0.0
 10
235.271170
 20
125.769759
 30
0.0
 10
235.143168
 20
125.924761
 30
0.0
 10
235.035167
 20
126.093759
 30
0.0
 10
234.949168
 20
126.275761
 30
0.0
 10
234.887170
 20
126.466761
 30
0.0
 10
234.850168
 20
126.663760
 30
0.0
 10
234.837157
 20
126.864759
 30
0.0
 10
234.850179
 20
127.065760
 30
0.0
 10
234.887170
 20
127.262760
 30
0.0
 10
234.949168
 20
127.453759
 30
0.0
 10
235.035167
 20
127.635762
 30
0.0
 10
235.143168
 20
127.804759
 30
0.0
 10
235.271170
 20
127.959761
 30
0.0
 10
235.417169
 20
128.097759
 30
0.0
 10
235.580169
 20
128.215759
 30
0.0
 10
235.756169
 20
128.312759
 30
0.0
 10
235.943169
 20
128.386761
 30
0.0
 10
236.137169
 20
128.436759
 30
0.0
 10
236.337168
 20
128.461764
 30
0.0
 10
236.537168
 20
128.461761
 30
0.0
 10
236.737167
 20
128.436756
 30
0.0
 10
236.931170
 20
128.386761
 30
0.0
 10
237.118167
 20
128.312759
 30
0.0
 10
237.294170
 20
128.215759
 30
0.0
 10
237.457170
 20
128.097759
 30
0.0
 10
237.603169
 20
127.959761
 30
0.0
 10
237.731168
 20
127.804759
 30
0.0
 10
237.839169
 20
127.635762
 30
0.0
 10
237.925168
 20
127.453759
 30
0.0
 10
237.987169
 20
127.262760
 30
0.0
 10
238.024168
 20
127.065760
 30
0.0
 10
238.037179
 20
126.864759
 30
0.0
 10
238.024157
 20
126.663760
 30
0.0
 10
237.987169
 20
126.466761
 30
0.0
 10
237.925168
 20
126.275761
 30
0.0
 10
237.839169
 20
126.093759
 30
0.0
 10
237.731168
 20
125.924761
 30
0.0
 10
237.603169
 20
125.769759
 30
0.0
 10
237.457170
 20
125.631761
 30
0.0
 10
237.294170
 20
125.513761
 30
0.0
 10
237.118167
 20
125.416761
 30
0.0
 10
236.931170
 20
125.342760
 30
0.0
 10
236.737167
 20
125.292761
 30
0.0
 10
236.537168
 20
125.267756
 30
0.0
 10
236.337168
 20
125.267759
 30
0.0
  0
LWPOLYLINE
  5
128
100
AcDbEntity
  8
Layer_1
 62
7
100
AcDbPolyline
 90
5
 70
0
 10
189.619168
 20
125.314760
 30
0.0
 10
189.619168
 20
128.414760
 30
0.0
 10
210.528169
 20
128.414760
 30
0.0
 10
210.528169
 20
125.314760
 30
0.0
 10
189.619168
 20
125.314760
 30
0.0
  0
LWPOLYLINE
  5
129
100
AcDbEntity
  8
Layer_1
 62
7
100
AcDbPolyline
 90
5
 70
0
 10
147.801167
 20
125.314760
 30
0.0
 10
147.801167
 20
128.414760
 30
0.0
 10
168.710168
 20
128.414760
 30
0.0
 10
168.710168
 20
125.314760
 30
0.0
 10
147.801167
 20
125.314760
 30
0.0
  0
LWPOLYLINE
  5
12a
100
AcDbEntity
  8
Layer_1
 62
7
100
AcDbPolyline
 90
5
 70
0
 10
105.982170
 20
125.314760
 30
0.0
 10
105.982170
 20
128.414760
 30
0.0
 10
126.892169
 20
128.414760
 30
0.0
 10
126.892169
 20
125.314760
 30
0.0
 10
105.982170
 20
125.314760
 30
0.0
  0
LWPOLYLINE
  5
12b
100
AcDbEntity
  8
Layer_1
 62
7
100
AcDbPolyline
 90
5
 70
0
 10
64.164468
 20
125.314760
 30
0.0
 10
64.164468
 20
128.414760
 30
0.0
 10
85.073567
 20
128.414760
 30
0.0
 10
85.073567
 20
125.314760
 30
0.0
 10
64.164468
 20
125.314760
 30
0.0
  0
LWPOLYLINE
  5
12c
100
AcDbEntity
  8
Layer_1
 62
7
100
AcDbPolyline
 90
5
 70
0
 10
22.346269
 20
125.314760
 30
0.0
 10
22.346269
 20
128.414760
 30
0.0
 10
43.255368
 20
128.414760
 30
0.0
 10
43.255368
 20
125.314760
 30
0.0
 10
22.346269
 20
125.314760
 30
0.0
  0
LWPOLYLINE
  5
12d
100
AcDbEntity
  8
Layer_1
 62
7
100
AcDbPolyline
 90
51
 70
0
 10
226.337168
 20
115.267960
 30
0.0
 10
226.137169
 20
115.293049
 30
0.0
 10
225.943169
 20
115.343059
 30
0.0
 10
225.756169
 20
115.417061
 30
0.0
 10
225.580169
 20
115.513860
 30
0.0
 10
225.417169
 20
115.631962
 30
0.0
 10
225.271167
 20
115.769460
 30
0.0
 10
225.143168
 20
115.924259
 30
0.0
 10
225.035167
 20
116.093959
 30
0.0
 10
224.949169
 20
116.275761
 30
0.0
 10
224.887167
 20
116.466860
 30
0.0
 10
224.850168
 20
116.664260
 30
0.0
 10
224.837157
 20
116.864759
 30
0.0
 10
224.850179
 20
117.065760
 30
0.0
 10
224.887167
 20
117.262760
 30
0.0
 10
224.949169
 20
117.453760
 30
0.0
 10
225.035167
 20
117.635759
 30
0.0
 10
225.143168
 20
117.804759
 30
0.0
 10
225.271167
 20
117.959761
 30
0.0
 10
225.417169
 20
118.097760
 30
0.0
 10
225.580169
 20
118.215760
 30
0.0
 10
225.756169
 20
118.312759
 30
0.0
 10
225.943169
 20
118.386761
 30
0.0
 10
226.137169
 20
118.436759
 30
0.0
 10
226.337168
 20
118.461764
 30
0.0
 10
226.537168
 20
118.461761
 30
0.0
 10
226.737168
 20
118.436757
 30
0.0
 10
226.931167
 20
118.386761
 30
0.0
 10
227.118168
 20
118.312759
 30
0.0
 10
227.294167
 20
118.215760
 30
0.0
 10
227.457167
 20
118.097760
 30
0.0
 10
227.603169
 20
117.959761
 30
0.0
 10
227.731168
 20
117.804759
 30
0.0
 10
227.839169
 20
117.635759
 30
0.0
 10
227.925168
 20
117.453760
 30
0.0
 10
227.987169
 20
117.262760
 30
0.0
 10
228.024169
 20
117.065760
 30
0.0
 10
228.037179
 20
116.864759
 30
0.0
 10
228.024157
 20
116.664260
 30
0.0
 10
227.987169
 20
116.466860
 30
0.0
 10
227.925168
 20
116.275761
 30
0.0
 10
227.839169
 20
116.093959
 30
0.0
 10
227.731168
 20
115.924259
 30
0.0
 10
227.603169
 20
115.769460
 30
0.0
 10
227.457167
 20
115.631962
 30
0.0
 10
227.294167
 20
115.513860
 30
0.0
 10
227.118168
 20
115.417061
 30
0.0
 10
226.931167
 20
115.343059
 30
0.0
 10
226.737168
 20
115.293061
 30
0.0
 10
226.537168
 20
115.267971
 30
0.0
 10
226.337168
 20
115.267960
 30
0.0
  0
LWPOLYLINE
  5
12e
100
AcDbEntity
  8
Layer_1
 62
7
100
AcDbPolyline
 90
51
 70
0
 10
6.336668
 20
115.267960
 30
0.0
 10
6.137368
 20
115.293049
 30
0.0
 10
5.942769
 20
115.343059
 30
0.0
 10
5.755869
 20
115.417061
 30
0.0
 10
5.579869
 20
115.513860
 30
0.0
 10
5.417269
 20
115.631962
 30
0.0
 10
5.270768
 20
115.769460
 30
0.0
 10
5.142768
 20
115.924259
 30
0.0
 10
5.035069
 20
116.093959
 30
0.0
 10
4.949469
 20
116.275761
 30
0.0
 10
4.887469
 20
116.466860
 30
0.0
 10
4.849768
 20
116.664260
 30
0.0
 10
4.837168
 20
116.864759
 30
0.0
 10
4.849770
 20
117.065760
 30
0.0
 10
4.887469
 20
117.262760
 30
0.0
 10
4.949469
 20
117.453760
 30
0.0
 10
5.035069
 20
117.635759
 30
0.0
 10
5.142768
 20
117.804759
 30
0.0
 10
5.270768
 20
117.959761
 30
0.0
 10
5.417269
 20
118.097760
 30
0.0
 10
5.579869
 20
118.215760
 30
0.0
 10
5.755869
 20
118.312759
 30
0.0
 10
5.942769
 20
118.386761
 30
0.0
 10
6.137368
 20
118.436759
 30
0.0
 10
6.336668
 20
118.461764
 30
0.0
 10
6.537668
 20
118.461761
 30
0.0
 10
6.736968
 20
118.436757
 30
0.0
 10
6.931569
 20
118.386761
 30
0.0
 10
7.118369
 20
118.312759
 30
0.0
 10
7.294469
 20
118.215760
 30
0.0
 10
7.457069
 20
118.097760
 30
0.0
 10
7.603469
 20
117.959761
 30
0.0
 10
7.731568
 20
117.804759
 30
0.0
 10
7.839269
 20
117.635759
 30
0.0
 10
7.924768
 20
117.453760
 30
0.0
 10
7.986869
 20
117.262760
 30
0.0
 10
8.024568
 20
117.065760
 30
0.0
 10
8.037170
 20
116.864759
 30
0.0
 10
8.024567
 20
116.664260
 30
0.0
 10
7.986869
 20
116.466860
 30
0.0
 10
7.924768
 20
116.275761
 30
0.0
 10
7.839269
 20
116.093959
 30
0.0
 10
7.731568
 20
115.924259
 30
0.0
 10
7.603469
 20
115.769460
 30
0.0
 10
7.457069
 20
115.631962
 30
0.0
 10
7.294469
 20
115.513860
 30
0.0
 10
7.118369
 20
115.417061
 30
0.0
 10
6.931569
 20
115.343059
 30
0.0
 10
6.736968
 20
115.293061
 30
0.0
 10
6.537668
 20
115.267971
 30
0.0
 10
6.336668
 20
115.267960
 30
0.0
  0
LWPOLYLINE
  5
12f
100
AcDbEntity
  8
Layer_1
 62
7
100
AcDbPolyline
 90
5
 70
0
 10
140.107168
 20
111.864761
 30
0.0
 10
140.107168
 20
114.964760
 30
0.0
 10
150.507167
 20
114.964760
 30
0.0
 10
150.507167
 20
111.864761
 30
0.0
 10
140.107168
 20
111.864761
 30
0.0
  0
LWPOLYLINE
  5
130
100
AcDbEntity
  8
Layer_1
 62
7
100
AcDbPolyline
 90
5
 70
0
 10
160.907169
 20
111.864761
 30
0.0
 10
160.907169
 20
114.964760
 30
0.0
 10
171.307168
 20
114.964760
 30
0.0
 10
171.307168
 20
111.864761
 30
0.0
 10
160.907169
 20
111.864761
 30
0.0
  0
LWPOLYLINE
  5
131
100
AcDbEntity
  8
Layer_1
 62
7
100
AcDbPolyline
 90
5
 70
0
 10
181.707167
 20
111.864761
 30
0.0
 10
181.707167
 20
114.964760
 30
0.0
 10
192.107169
 20
114.964760
 30
0.0
 10
192.107169
 20
111.864761
 30
0.0
 10
181.707167
 20
111.864761
 30
0.0
  0
LWPOLYLINE
  5
132
100
AcDbEntity
  8
Layer_1
 62
7
100
AcDbPolyline
 90
5
 70
0
 10
234.887170
 20
96.150461
 30
0.0
 10
234.887170
 20
109.007661
 30
0.0
 10
237.987169
 20
109.007661
 30
0.0
 10
237.987169
 20
96.150461
 30
0.0
 10
234.887170
 20
96.150461
 30
0.0
  0
LWPOLYLINE
  5
133
100
AcDbEntity
  8
Layer_1
 62
7
100
AcDbPolyline
 90
5
 70
0
 10
-5.112831
 20
96.150461
 30
0.0
 10
-5.112831
 20
109.007661
 30
0.0
 10
-2.012831
 20
109.007661
 30
0.0
 10
-2.012831
 20
96.150461
 30
0.0
 10
-5.112831
 20
96.150461
 30
0.0
  0
LWPOLYLINE
  5
134
100
AcDbEntity
  8
Layer_1
 62
7
100
AcDbPolyline
 90
14
 70
0
 10
13.767169
 20
29.964755
 30
0.0
 10
13.767169
 20
40.964761
 30
0.0
 10
17.847170
 20
40.964761
 30
0.0
 10
16.307168
 20
42.504760
 30
0.0
 10
13.767169
 20
42.504760
 30
0.0
 10
13.767169
 20
108.544760
 30
0.0
 10
67.107168
 20
108.544760
 30
0.0
 10
67.107168
 20
43.774760
 30
0.0
 10
65.837168
 20
42.504760
 30
0.0
 10
54.407168
 20
42.504760
 30
0.0
 10
52.867169
 20
40.964761
 30
0.0
 10
62.107169
 20
40.964761
 30
0.0
 10
62.107169
 20
29.964755
 30
0.0
 10
13.767169
 20
29.964755
 30
0.0
  0
LWPOLYLINE
  5
135
100
AcDbEntity
  8
Layer_1
 62
7
100
AcDbPolyline
 90
33
 70
0
 10
16.619269
 20
93.005461
 30
0.0
 10
16.919469
 20
93.096559
 30
0.0
 10
17.196069
 20
93.244359
 30
0.0
 10
17.438470
 20
93.443360
 30
0.0
 10
17.637467
 20
93.685859
 30
0.0
 10
17.785369
 20
93.962460
 30
0.0
 10
17.876368
 20
94.262561
 30
0.0
 10
17.907167
 20
94.574760
 30
0.0
 10
17.876368
 20
94.886861
 30
0.0
 10
17.785369
 20
95.187061
 30
0.0
 10
17.637467
 20
95.463662
 30
0.0
 10
17.438470
 20
95.706161
 30
0.0
 10
17.196069
 20
95.905060
 30
0.0
 10
16.919469
 20
96.052961
 30
0.0
 10
16.619269
 20
96.143961
 30
0.0
 10
16.307168
 20
96.174760
 30
0.0
 10
15.994968
 20
96.143961
 30
0.0
 10
15.694870
 20
96.052961
 30
0.0
 10
15.418269
 20
95.905060
 30
0.0
 10
15.175767
 20
95.706161
 30
0.0
 10
14.976769
 20
95.463662
 30
0.0
 10
14.828970
 20
95.187061
 30
0.0
 10
14.737868
 20
94.886861
 30
0.0
 10
14.707168
 20
94.574760
 30
0.0
 10
14.737868
 20
94.262561
 30
0.0
 10
14.828970
 20
93.962460
 30
0.0
 10
14.976769
 20
93.685859
 30
0.0
 10
15.175767
 20
93.443360
 30
0.0
 10
15.418269
 20
93.244359
 30
0.0
 10
15.694870
 20
93.096559
 30
0.0
 10
15.994968
 20
93.005461
 30
0.0
 10
16.307168
 20
92.974761
 30
0.0
 10
16.619269
 20
93.005461
 30
0.0
  0
LWPOLYLINE
  5
136
100
AcDbEntity
  8
Layer_1
 62
7
100
AcDbPolyline
 90
33
 70
0
 10
64.879269
 20
91.735461
 30
0.0
 10
65.179469
 20
91.826559
 30
0.0
 10
65.456069
 20
91.974359
 30
0.0
 10
65.698568
 20
92.173360
 30
0.0
 10
65.897467
 20
92.415859
 30
0.0
 10
66.045369
 20
92.692460
 30
0.0
 10
66.136368
 20
92.992561
 30
0.0
 10
66.167167
 20
93.304760
 30
0.0
 10
66.136368
 20
93.616861
 30
0.0
 10
66.045369
 20
93.917061
 30
0.0
 10
65.897467
 20
94.193662
 30
0.0
 10
65.698568
 20
94.436161
 30
0.0
 10
65.456069
 20
94.635060
 30
0.0
 10
65.179469
 20
94.782961
 30
0.0
 10
64.879269
 20
94.873961
 30
0.0
 10
64.567168
 20
94.904760
 30
0.0
 10
64.254968
 20
94.873961
 30
0.0
 10
63.954870
 20
94.782961
 30
0.0
 10
63.678269
 20
94.635060
 30
0.0
 10
63.435767
 20
94.436161
 30
0.0
 10
63.236769
 20
94.193662
 30
0.0
 10
63.088970
 20
93.917061
 30
0.0
 10
62.997868
 20
93.616861
 30
0.0
 10
62.967168
 20
93.304760
 30
0.0
 10
62.997868
 20
92.992561
 30
0.0
 10
63.088970
 20
92.692460
 30
0.0
 10
63.236769
 20
92.415859
 30
0.0
 10
63.435767
 20
92.173360
 30
0.0
 10
63.678269
 20
91.974359
 30
0.0
 10
63.954870
 20
91.826559
 30
0.0
 10
64.254968
 20
91.735461
 30
0.0
 10
64.567168
 20
91.704761
 30
0.0
 10
64.879269
 20
91.735461
 30
0.0
  0
LWPOLYLINE
  5
137
100
AcDbEntity
  8
Layer_1
 62
7
100
AcDbPolyline
 90
32
 70
0
 10
21.999469
 20
41.026559
 30
0.0
 10
22.276069
 20
41.174359
 30
0.0
 10
22.518470
 20
41.373360
 30
0.0
 10
22.717467
 20
41.615859
 30
0.0
 10
22.865369
 20
41.892460
 30
0.0
 10
22.956368
 20
42.192561
 30
0.0
 10
22.987167
 20
42.504760
 30
0.0
 10
22.956368
 20
42.816861
 30
0.0
 10
22.865369
 20
43.117061
 30
0.0
 10
22.717467
 20
43.393662
 30
0.0
 10
22.518470
 20
43.636161
 30
0.0
 10
22.276069
 20
43.835060
 30
0.0
 10
21.999469
 20
43.982961
 30
0.0
 10
21.699269
 20
44.073961
 30
0.0
 10
21.387168
 20
44.104760
 30
0.0
 10
21.074968
 20
44.073961
 30
0.0
 10
20.774870
 20
43.982961
 30
0.0
 10
20.498269
 20
43.835060
 30
0.0
 10
20.255767
 20
43.636161
 30
0.0
 10
20.056769
 20
43.393662
 30
0.0
 10
19.908970
 20
43.117061
 30
0.0
 10
19.817868
 20
42.816861
 30
0.0
 10
19.787168
 20
42.504760
 30
0.0
 10
19.817868
 20
42.192561
 30
0.0
 10
19.908970
 20
41.892460
 30
0.0
 10
20.056769
 20
41.615859
 30
0.0
 10
20.255767
 20
41.373360
 30
0.0
 10
20.498269
 20
41.174359
 30
0.0
 10
20.774870
 20
41.026559
 30
0.0
 10
20.978569
 20
40.964761
 30
0.0
 10
21.795769
 20
40.964761
 30
0.0
 10
21.999469
 20
41.026559
 30
0.0
  0
LWPOLYLINE
  5
138
100
AcDbEntity
  8
Layer_1
 62
7
100
AcDbPolyline
 90
32
 70
0
 10
49.939469
 20
41.026559
 30
0.0
 10
50.216069
 20
41.174359
 30
0.0
 10
50.458470
 20
41.373360
 30
0.0
 10
50.657467
 20
41.615859
 30
0.0
 10
50.805369
 20
41.892460
 30
0.0
 10
50.896368
 20
42.192561
 30
0.0
 10
50.927167
 20
42.504760
 30
0.0
 10
50.896368
 20
42.816861
 30
0.0
 10
50.805369
 20
43.117061
 30
0.0
 10
50.657467
 20
43.393662
 30
0.0
 10
50.458470
 20
43.636161
 30
0.0
 10
50.216069
 20
43.835060
 30
0.0
 10
49.939469
 20
43.982961
 30
0.0
 10
49.639269
 20
44.073961
 30
0.0
 10
49.327168
 20
44.104760
 30
0.0
 10
49.014968
 20
44.073961
 30
0.0
 10
48.714870
 20
43.982961
 30
0.0
 10
48.438269
 20
43.835060
 30
0.0
 10
48.195767
 20
43.636161
 30
0.0
 10
47.996769
 20
43.393662
 30
0.0
 10
47.848970
 20
43.117061
 30
0.0
 10
47.757868
 20
42.816861
 30
0.0
 10
47.727168
 20
42.504760
 30
0.0
 10
47.757868
 20
42.192561
 30
0.0
 10
47.848970
 20
41.892460
 30
0.0
 10
47.996769
 20
41.615859
 30
0.0
 10
48.195767
 20
41.373360
 30
0.0
 10
48.438269
 20
41.174359
 30
0.0
 10
48.714870
 20
41.026559
 30
0.0
 10
48.918569
 20
40.964761
 30
0.0
 10
49.735769
 20
40.964761
 30
0.0
 10
49.939469
 20
41.026559
 30
0.0
  0
LWPOLYLINE
  5
139
100
AcDbEntity
  8
Layer_1
 62
7
100
AcDbPolyline
 90
5
 70
0
 10
77.107167
 20
29.964755
 30
0.0
 10
77.107167
 20
105.964761
 30
0.0
 10
128.107170
 20
105.964761
 30
0.0
 10
128.107170
 20
29.964755
 30
0.0
 10
77.107167
 20
29.964755
 30
0.0
  0
LWPOLYLINE
  5
13a
100
AcDbEntity
  8
Layer_1
 62
7
100
AcDbPolyline
 90
51
 70
0
 10
126.308170
 20
58.377362
 30
0.0
 10
126.505169
 20
58.414959
 30
0.0
 10
126.696169
 20
58.477059
 30
0.0
 10
126.878168
 20
58.562660
 30
0.0
 10
127.047169
 20
58.670359
 30
0.0
 10
127.202168
 20
58.798361
 30
0.0
 10
127.340169
 20
58.944860
 30
0.0
 10
127.458169
 20
59.107459
 30
0.0
 10
127.555169
 20
59.283461
 30
0.0
 10
127.629167
 20
59.470360
 30
0.0
 10
127.679169
 20
59.664961
 30
0.0
 10
127.704174
 20
59.864261
 30
0.0
 10
127.704168
 20
60.065259
 30
0.0
 10
127.679163
 20
60.264559
 30
0.0
 10
127.629167
 20
60.459160
 30
0.0
 10
127.555169
 20
60.645960
 30
0.0
 10
127.458169
 20
60.822061
 30
0.0
 10
127.340169
 20
60.984660
 30
0.0
 10
127.202168
 20
61.131060
 30
0.0
 10
127.047169
 20
61.259161
 30
0.0
 10
126.878168
 20
61.366860
 30
0.0
 10
126.696169
 20
61.452359
 30
0.0
 10
126.505169
 20
61.514459
 30
0.0
 10
126.308170
 20
61.552161
 30
0.0
 10
126.107168
 20
61.564748
 30
0.0
 10
125.906170
 20
61.552172
 30
0.0
 10
125.709170
 20
61.514459
 30
0.0
 10
125.518168
 20
61.452359
 30
0.0
 10
125.336168
 20
61.366860
 30
0.0
 10
125.167168
 20
61.259161
 30
0.0
 10
125.012169
 20
61.131060
 30
0.0
 10
124.874168
 20
60.984660
 30
0.0
 10
124.756168
 20
60.822061
 30
0.0
 10
124.659168
 20
60.645960
 30
0.0
 10
124.585169
 20
60.459160
 30
0.0
 10
124.535168
 20
60.264559
 30
0.0
 10
124.510163
 20
60.065259
 30
0.0
 10
124.510169
 20
59.864261
 30
0.0
 10
124.535174
 20
59.664961
 30
0.0
 10
124.585169
 20
59.470360
 30
0.0
 10
124.659168
 20
59.283461
 30
0.0
 10
124.756168
 20
59.107459
 30
0.0
 10
124.874168
 20
58.944860
 30
0.0
 10
125.012169
 20
58.798361
 30
0.0
 10
125.167168
 20
58.670359
 30
0.0
 10
125.336168
 20
58.562660
 30
0.0
 10
125.518168
 20
58.477059
 30
0.0
 10
125.709170
 20
58.414959
 30
0.0
 10
125.906170
 20
58.377362
 30
0.0
 10
126.107168
 20
58.364746
 30
0.0
 10
126.308170
 20
58.377376
 30
0.0
  0
LWPOLYLINE
  5
13b
100
AcDbEntity
  8
Layer_1
 62
7
100
AcDbPolyline
 90
51
 70
0
 10
81.607669
 20
57.877360
 30
0.0
 10
81.805070
 20
57.914960
 30
0.0
 10
81.996168
 20
57.977060
 30
0.0
 10
82.177967
 20
58.062661
 30
0.0
 10
82.347568
 20
58.170360
 30
0.0
 10
82.502469
 20
58.298359
 30
0.0
 10
82.639968
 20
58.444861
 30
0.0
 10
82.758069
 20
58.607460
 30
0.0
 10
82.854869
 20
58.783460
 30
0.0
 10
82.928867
 20
58.970361
 30
0.0
 10
82.978869
 20
59.164959
 30
0.0
 10
83.003958
 20
59.364262
 30
0.0
 10
83.003969
 20
59.565260
 30
0.0
 10
82.978880
 20
59.764560
 30
0.0
 10
82.928867
 20
59.959161
 30
0.0
 10
82.854869
 20
60.145961
 30
0.0
 10
82.758069
 20
60.322059
 30
0.0
 10
82.639968
 20
60.484661
 30
0.0
 10
82.502469
 20
60.631061
 30
0.0
 10
82.347568
 20
60.759159
 30
0.0
 10
82.177967
 20
60.866861
 30
0.0
 10
81.996168
 20
60.952360
 30
0.0
 10
81.805070
 20
61.014460
 30
0.0
 10
81.607669
 20
61.052159
 30
0.0
 10
81.407167
 20
61.064775
 30
0.0
 10
81.206668
 20
61.052145
 30
0.0
 10
81.009268
 20
61.014460
 30
0.0
 10
80.818170
 20
60.952360
 30
0.0
 10
80.636368
 20
60.866861
 30
0.0
 10
80.466667
 20
60.759159
 30
0.0
 10
80.311869
 20
60.631061
 30
0.0
 10
80.174367
 20
60.484661
 30
0.0
 10
80.056268
 20
60.322059
 30
0.0
 10
79.959469
 20
60.145961
 30
0.0
 10
79.885467
 20
59.959161
 30
0.0
 10
79.835469
 20
59.764560
 30
0.0
 10
79.810379
 20
59.565260
 30
0.0
 10
79.810368
 20
59.364262
 30
0.0
 10
79.835458
 20
59.164959
 30
0.0
 10
79.885467
 20
58.970361
 30
0.0
 10
79.959469
 20
58.783460
 30
0.0
 10
80.056268
 20
58.607460
 30
0.0
 10
80.174367
 20
58.444861
 30
0.0
 10
80.311869
 20
58.298359
 30
0.0
 10
80.466667
 20
58.170360
 30
0.0
 10
80.636368
 20
58.062661
 30
0.0
 10
80.818170
 20
57.977060
 30
0.0
 10
81.009268
 20
57.914960
 30
0.0
 10
81.206668
 20
57.877360
 30
0.0
 10
81.407167
 20
57.864773
 30
0.0
 10
81.607669
 20
57.877348
 30
0.0
  0
LWPOLYLINE
  5
13c
100
AcDbEntity
  8
Layer_1
 62
7
100
AcDbPolyline
 90
51
 70
0
 10
124.808170
 20
32.377360
 30
0.0
 10
125.005170
 20
32.414960
 30
0.0
 10
125.196169
 20
32.477061
 30
0.0
 10
125.378169
 20
32.562661
 30
0.0
 10
125.547169
 20
32.670360
 30
0.0
 10
125.702168
 20
32.798359
 30
0.0
 10
125.840169
 20
32.944861
 30
0.0
 10
125.958169
 20
33.107460
 30
0.0
 10
126.055169
 20
33.283460
 30
0.0
 10
126.129167
 20
33.470361
 30
0.0
 10
126.179169
 20
33.664959
 30
0.0
 10
126.204174
 20
33.864259
 30
0.0
 10
126.204168
 20
34.065260
 30
0.0
 10
126.179163
 20
34.264560
 30
0.0
 10
126.129167
 20
34.459161
 30
0.0
 10
126.055169
 20
34.645961
 30
0.0
 10
125.958169
 20
34.822059
 30
0.0
 10
125.840169
 20
34.984661
 30
0.0
 10
125.702168
 20
35.131061
 30
0.0
 10
125.547169
 20
35.259159
 30
0.0
 10
125.378169
 20
35.366861
 30
0.0
 10
125.196169
 20
35.452360
 30
0.0
 10
125.005170
 20
35.514460
 30
0.0
 10
124.808170
 20
35.552160
 30
0.0
 10
124.607168
 20
35.564775
 30
0.0
 10
124.406167
 20
35.552145
 30
0.0
 10
124.209167
 20
35.514460
 30
0.0
 10
124.018168
 20
35.452360
 30
0.0
 10
123.836168
 20
35.366861
 30
0.0
 10
123.667168
 20
35.259159
 30
0.0
 10
123.512169
 20
35.131061
 30
0.0
 10
123.374168
 20
34.984661
 30
0.0
 10
123.256168
 20
34.822059
 30
0.0
 10
123.159168
 20
34.645961
 30
0.0
 10
123.085169
 20
34.459161
 30
0.0
 10
123.035168
 20
34.264560
 30
0.0
 10
123.010163
 20
34.065260
 30
0.0
 10
123.010169
 20
33.864259
 30
0.0
 10
123.035174
 20
33.664959
 30
0.0
 10
123.085169
 20
33.470361
 30
0.0
 10
123.159168
 20
33.283460
 30
0.0
 10
123.256168
 20
33.107460
 30
0.0
 10
123.374168
 20
32.944861
 30
0.0
 10
123.512169
 20
32.798359
 30
0.0
 10
123.667168
 20
32.670360
 30
0.0
 10
123.836168
 20
32.562661
 30
0.0
 10
124.018168
 20
32.477061
 30
0.0
 10
124.209167
 20
32.414960
 30
0.0
 10
124.406167
 20
32.377360
 30
0.0
 10
124.607168
 20
32.364745
 30
0.0
 10
124.808170
 20
32.377374
 30
0.0
  0
LWPOLYLINE
  5
13d
100
AcDbEntity
  8
Layer_1
 62
7
100
AcDbPolyline
 90
51
 70
0
 10
81.807669
 20
32.377360
 30
0.0
 10
82.005069
 20
32.414960
 30
0.0
 10
82.196168
 20
32.477061
 30
0.0
 10
82.377969
 20
32.562661
 30
0.0
 10
82.547568
 20
32.670360
 30
0.0
 10
82.702469
 20
32.798359
 30
0.0
 10
82.839967
 20
32.944861
 30
0.0
 10
82.958069
 20
33.107460
 30
0.0
 10
83.054868
 20
33.283460
 30
0.0
 10
83.128870
 20
33.470361
 30
0.0
 10
83.178868
 20
33.664959
 30
0.0
 10
83.203958
 20
33.864259
 30
0.0
 10
83.203969
 20
34.065260
 30
0.0
 10
83.178879
 20
34.264560
 30
0.0
 10
83.128870
 20
34.459161
 30
0.0
 10
83.054868
 20
34.645961
 30
0.0
 10
82.958069
 20
34.822059
 30
0.0
 10
82.839967
 20
34.984661
 30
0.0
 10
82.702469
 20
35.131061
 30
0.0
 10
82.547568
 20
35.259159
 30
0.0
 10
82.377969
 20
35.366861
 30
0.0
 10
82.196168
 20
35.452360
 30
0.0
 10
82.005069
 20
35.514460
 30
0.0
 10
81.807669
 20
35.552160
 30
0.0
 10
81.607170
 20
35.564775
 30
0.0
 10
81.406668
 20
35.552145
 30
0.0
 10
81.209267
 20
35.514460
 30
0.0
 10
81.018169
 20
35.452360
 30
0.0
 10
80.836367
 20
35.366861
 30
0.0
 10
80.666667
 20
35.259159
 30
0.0
 10
80.511868
 20
35.131061
 30
0.0
 10
80.374369
 20
34.984661
 30
0.0
 10
80.256268
 20
34.822059
 30
0.0
 10
80.159469
 20
34.645961
 30
0.0
 10
80.085467
 20
34.459161
 30
0.0
 10
80.035469
 20
34.264560
 30
0.0
 10
80.010379
 20
34.065260
 30
0.0
 10
80.010368
 20
33.864259
 30
0.0
 10
80.035457
 20
33.664959
 30
0.0
 10
80.085467
 20
33.470361
 30
0.0
 10
80.159469
 20
33.283460
 30
0.0
 10
80.256268
 20
33.107460
 30
0.0
 10
80.374369
 20
32.944861
 30
0.0
 10
80.511868
 20
32.798359
 30
0.0
 10
80.666667
 20
32.670360
 30
0.0
 10
80.836367
 20
32.562661
 30
0.0
 10
81.018169
 20
32.477061
 30
0.0
 10
81.209267
 20
32.414960
 30
0.0
 10
81.406668
 20
32.377360
 30
0.0
 10
81.607170
 20
32.364745
 30
0.0
 10
81.807669
 20
32.377374
 30
0.0
  0
LWPOLYLINE
  5
13e
100
AcDbEntity
  8
Layer_1
 62
7
100
AcDbPolyline
 90
51
 70
0
 10
141.435168
 20
90.100559
 30
0.0
 10
141.265169
 20
90.132961
 30
0.0
 10
141.101169
 20
90.186261
 30
0.0
 10
140.945168
 20
90.259859
 30
0.0
 10
140.799169
 20
90.352360
 30
0.0
 10
140.666169
 20
90.462461
 30
0.0
 10
140.548169
 20
90.588261
 30
0.0
 10
140.446168
 20
90.727961
 30
0.0
 10
140.363169
 20
90.879261
 30
0.0
 10
140.299167
 20
91.039859
 30
0.0
 10
140.256168
 20
91.207059
 30
0.0
 10
140.235170
 20
91.378359
 30
0.0
 10
140.235168
 20
91.551060
 30
0.0
 10
140.256165
 20
91.722360
 30
0.0
 10
140.299167
 20
91.889661
 30
0.0
 10
140.363169
 20
92.050161
 30
0.0
 10
140.446168
 20
92.201461
 30
0.0
 10
140.548169
 20
92.341161
 30
0.0
 10
140.666169
 20
92.467060
 30
0.0
 10
140.799169
 20
92.577160
 30
0.0
 10
140.945168
 20
92.669662
 30
0.0
 10
141.101169
 20
92.743161
 30
0.0
 10
141.265169
 20
92.796560
 30
0.0
 10
141.435168
 20
92.828860
 30
0.0
 10
141.607168
 20
92.839754
 30
0.0
 10
141.779169
 20
92.828866
 30
0.0
 10
141.949168
 20
92.796560
 30
0.0
 10
142.113167
 20
92.743161
 30
0.0
 10
142.269169
 20
92.669662
 30
0.0
 10
142.415168
 20
92.577160
 30
0.0
 10
142.548168
 20
92.467060
 30
0.0
 10
142.666168
 20
92.341161
 30
0.0
 10
142.768168
 20
92.201461
 30
0.0
 10
142.851170
 20
92.050161
 30
0.0
 10
142.915170
 20
91.889661
 30
0.0
 10
142.958169
 20
91.722360
 30
0.0
 10
142.979166
 20
91.551060
 30
0.0
 10
142.979169
 20
91.378359
 30
0.0
 10
142.958172
 20
91.207059
 30
0.0
 10
142.915170
 20
91.039859
 30
0.0
 10
142.851170
 20
90.879261
 30
0.0
 10
142.768168
 20
90.727961
 30
0.0
 10
142.666168
 20
90.588261
 30
0.0
 10
142.548168
 20
90.462461
 30
0.0
 10
142.415168
 20
90.352360
 30
0.0
 10
142.269169
 20
90.259859
 30
0.0
 10
142.113167
 20
90.186261
 30
0.0
 10
141.949168
 20
90.132961
 30
0.0
 10
141.779169
 20
90.100559
 30
0.0
 10
141.607168
 20
90.089750
 30
0.0
 10
141.435168
 20
90.100570
 30
0.0
  0
LWPOLYLINE
  5
13f
100
AcDbEntity
  8
Layer_1
 62
7
100
AcDbPolyline
 90
51
 70
0
 10
190.435169
 20
90.100559
 30
0.0
 10
190.265169
 20
90.132961
 30
0.0
 10
190.101167
 20
90.186261
 30
0.0
 10
189.945169
 20
90.259859
 30
0.0
 10
189.799170
 20
90.352360
 30
0.0
 10
189.666170
 20
90.462461
 30
0.0
 10
189.548170
 20
90.588261
 30
0.0
 10
189.446169
 20
90.727961
 30
0.0
 10
189.363167
 20
90.879261
 30
0.0
 10
189.299168
 20
91.039859
 30
0.0
 10
189.256168
 20
91.207059
 30
0.0
 10
189.235171
 20
91.378359
 30
0.0
 10
189.235168
 20
91.551060
 30
0.0
 10
189.256166
 20
91.722360
 30
0.0
 10
189.299168
 20
91.889661
 30
0.0
 10
189.363167
 20
92.050161
 30
0.0
 10
189.446169
 20
92.201461
 30
0.0
 10
189.548170
 20
92.341161
 30
0.0
 10
189.666170
 20
92.467060
 30
0.0
 10
189.799170
 20
92.577160
 30
0.0
 10
189.945169
 20
92.669662
 30
0.0
 10
190.101167
 20
92.743161
 30
0.0
 10
190.265169
 20
92.796560
 30
0.0
 10
190.435169
 20
92.828860
 30
0.0
 10
190.607169
 20
92.839754
 30
0.0
 10
190.779169
 20
92.828866
 30
0.0
 10
190.949169
 20
92.796560
 30
0.0
 10
191.113168
 20
92.743161
 30
0.0
 10
191.269169
 20
92.669662
 30
0.0
 10
191.415168
 20
92.577160
 30
0.0
 10
191.548169
 20
92.467060
 30
0.0
 10
191.666168
 20
92.341161
 30
0.0
 10
191.768169
 20
92.201461
 30
0.0
 10
191.851168
 20
92.050161
 30
0.0
 10
191.915167
 20
91.889661
 30
0.0
 10
191.958170
 20
91.722360
 30
0.0
 10
191.979167
 20
91.551060
 30
0.0
 10
191.979167
 20
91.378359
 30
0.0
 10
191.958170
 20
91.207059
 30
0.0
 10
191.915167
 20
91.039859
 30
0.0
 10
191.851168
 20
90.879261
 30
0.0
 10
191.768169
 20
90.727961
 30
0.0
 10
191.666168
 20
90.588261
 30
0.0
 10
191.548169
 20
90.462461
 30
0.0
 10
191.415168
 20
90.352360
 30
0.0
 10
191.269169
 20
90.259859
 30
0.0
 10
191.113168
 20
90.186261
 30
0.0
 10
190.949169
 20
90.132961
 30
0.0
 10
190.779169
 20
90.100559
 30
0.0
 10
190.607169
 20
90.089750
 30
0.0
 10
190.435169
 20
90.100570
 30
0.0
  0
LWPOLYLINE
  5
140
100
AcDbEntity
  8
Layer_1
 62
7
100
AcDbPolyline
 90
5
 70
0
 10
234.887170
 20
70.436161
 30
0.0
 10
234.887170
 20
83.293359
 30
0.0
 10
237.987169
 20
83.293359
 30
0.0
 10
237.987169
 20
70.436161
 30
0.0
 10
234.887170
 20
70.436161
 30
0.0
  0
LWPOLYLINE
  5
141
100
AcDbEntity
  8
Layer_1
 62
7
100
AcDbPolyline
 90
5
 70
0
 10
-5.112831
 20
70.436161
 30
0.0
 10
-5.112831
 20
83.293359
 30
0.0
 10
-2.012831
 20
83.293359
 30
0.0
 10
-2.012831
 20
70.436161
 30
0.0
 10
-5.112831
 20
70.436161
 30
0.0
  0
LWPOLYLINE
  5
142
100
AcDbEntity
  8
Layer_1
 62
7
100
AcDbPolyline
 90
5
 70
0
 10
204.107167
 20
46.631360
 30
0.0
 10
204.107167
 20
81.631361
 30
0.0
 10
222.107168
 20
81.631361
 30
0.0
 10
222.107168
 20
46.631360
 30
0.0
 10
204.107167
 20
46.631360
 30
0.0
  0
LWPOLYLINE
  5
143
100
AcDbEntity
  8
Layer_1
 62
7
100
AcDbPolyline
 90
5
 70
0
 10
199.457170
 20
68.414761
 30
0.0
 10
199.457170
 20
71.514761
 30
0.0
 10
202.557169
 20
71.514761
 30
0.0
 10
202.557169
 20
68.414761
 30
0.0
 10
199.457170
 20
68.414761
 30
0.0
  0
LWPOLYLINE
  5
144
100
AcDbEntity
  8
Layer_1
 62
7
100
AcDbPolyline
 90
5
 70
0
 10
223.657169
 20
68.414761
 30
0.0
 10
223.657169
 20
71.514761
 30
0.0
 10
226.757169
 20
71.514761
 30
0.0
 10
226.757169
 20
68.414761
 30
0.0
 10
223.657169
 20
68.414761
 30
0.0
  0
LWPOLYLINE
  5
145
100
AcDbEntity
  8
Layer_1
 62
7
100
AcDbPolyline
 90
5
 70
0
 10
223.657169
 20
56.748062
 30
0.0
 10
223.657169
 20
59.848061
 30
0.0
 10
226.757169
 20
59.848061
 30
0.0
 10
226.757169
 20
56.748062
 30
0.0
 10
223.657169
 20
56.748062
 30
0.0
  0
LWPOLYLINE
  5
146
100
AcDbEntity
  8
Layer_1
 62
7
100
AcDbPolyline
 90
5
 70
0
 10
199.457170
 20
56.748062
 30
0.0
 10
199.457170
 20
59.848061
 30
0.0
 10
202.557169
 20
59.848061
 30
0.0
 10
202.557169
 20
56.748062
 30
0.0
 10
199.457170
 20
56.748062
 30
0.0
  0
LWPOLYLINE
  5
147
100
AcDbEntity
  8
Layer_1
 62
7
100
AcDbPolyline
 90
5
 70
0
 10
234.887170
 20
44.721861
 30
0.0
 10
234.887170
 20
57.579059
 30
0.0
 10
237.987169
 20
57.579059
 30
0.0
 10
237.987169
 20
44.721861
 30
0.0
 10
234.887170
 20
44.721861
 30
0.0
  0
LWPOLYLINE
  5
148
100
AcDbEntity
  8
Layer_1
 62
7
100
AcDbPolyline
 90
5
 70
0
 10
-5.112831
 20
44.721861
 30
0.0
 10
-5.112831
 20
57.579059
 30
0.0
 10
-2.012831
 20
57.579059
 30
0.0
 10
-2.012831
 20
44.721861
 30
0.0
 10
-5.112831
 20
44.721861
 30
0.0
  0
LWPOLYLINE
  5
149
100
AcDbEntity
  8
Layer_1
 62
7
100
AcDbPolyline
 90
51
 70
0
 10
226.337168
 20
35.267959
 30
0.0
 10
226.137169
 20
35.293048
 30
0.0
 10
225.943169
 20
35.343061
 30
0.0
 10
225.756169
 20
35.417060
 30
0.0
 10
225.580169
 20
35.513859
 30
0.0
 10
225.417169
 20
35.631961
 30
0.0
 10
225.271167
 20
35.769459
 30
0.0
 10
225.143168
 20
35.924261
 30
0.0
 10
225.035167
 20
36.093961
 30
0.0
 10
224.949169
 20
36.275760
 30
0.0
 10
224.887167
 20
36.466861
 30
0.0
 10
224.850168
 20
36.664259
 30
0.0
 10
224.837157
 20
36.864761
 30
0.0
 10
224.850179
 20
37.065260
 30
0.0
 10
224.887167
 20
37.262660
 30
0.0
 10
224.949169
 20
37.453762
 30
0.0
 10
225.035167
 20
37.635561
 30
0.0
 10
225.143168
 20
37.805159
 30
0.0
 10
225.271167
 20
37.960060
 30
0.0
 10
225.417169
 20
38.097561
 30
0.0
 10
225.580169
 20
38.215660
 30
0.0
 10
225.756169
 20
38.312459
 30
0.0
 10
225.943169
 20
38.386461
 30
0.0
 10
226.137169
 20
38.436459
 30
0.0
 10
226.337168
 20
38.461549
 30
0.0
 10
226.537168
 20
38.461560
 30
0.0
 10
226.737168
 20
38.436471
 30
0.0
 10
226.931167
 20
38.386461
 30
0.0
 10
227.118168
 20
38.312459
 30
0.0
 10
227.294167
 20
38.215660
 30
0.0
 10
227.457167
 20
38.097561
 30
0.0
 10
227.603169
 20
37.960060
 30
0.0
 10
227.731168
 20
37.805159
 30
0.0
 10
227.839169
 20
37.635561
 30
0.0
 10
227.925168
 20
37.453762
 30
0.0
 10
227.987169
 20
37.262660
 30
0.0
 10
228.024169
 20
37.065260
 30
0.0
 10
228.037179
 20
36.864761
 30
0.0
 10
228.024157
 20
36.664259
 30
0.0
 10
227.987169
 20
36.466861
 30
0.0
 10
227.925168
 20
36.275760
 30
0.0
 10
227.839169
 20
36.093961
 30
0.0
 10
227.731168
 20
35.924261
 30
0.0
 10
227.603169
 20
35.769459
 30
0.0
 10
227.457167
 20
35.631961
 30
0.0
 10
227.294167
 20
35.513859
 30
0.0
 10
227.118168
 20
35.417060
 30
0.0
 10
226.931167
 20
35.343061
 30
0.0
 10
226.737168
 20
35.293060
 30
0.0
 10
226.537168
 20
35.267970
 30
0.0
 10
226.337168
 20
35.267959
 30
0.0
  0
LWPOLYLINE
  5
14a
100
AcDbEntity
  8
Layer_1
 62
7
100
AcDbPolyline
 90
51
 70
0
 10
6.336668
 20
35.267959
 30
0.0
 10
6.137368
 20
35.293048
 30
0.0
 10
5.942769
 20
35.343061
 30
0.0
 10
5.755869
 20
35.417060
 30
0.0
 10
5.579869
 20
35.513859
 30
0.0
 10
5.417269
 20
35.631961
 30
0.0
 10
5.270768
 20
35.769459
 30
0.0
 10
5.142768
 20
35.924261
 30
0.0
 10
5.035069
 20
36.093961
 30
0.0
 10
4.949469
 20
36.275760
 30
0.0
 10
4.887469
 20
36.466861
 30
0.0
 10
4.849768
 20
36.664259
 30
0.0
 10
4.837167
 20
36.864761
 30
0.0
 10
4.849770
 20
37.065260
 30
0.0
 10
4.887469
 20
37.262660
 30
0.0
 10
4.949469
 20
37.453762
 30
0.0
 10
5.035069
 20
37.635561
 30
0.0
 10
5.142768
 20
37.805159
 30
0.0
 10
5.270768
 20
37.960060
 30
0.0
 10
5.417269
 20
38.097561
 30
0.0
 10
5.579869
 20
38.215660
 30
0.0
 10
5.755869
 20
38.312459
 30
0.0
 10
5.942769
 20
38.386461
 30
0.0
 10
6.137368
 20
38.436459
 30
0.0
 10
6.336668
 20
38.461549
 30
0.0
 10
6.537668
 20
38.461560
 30
0.0
 10
6.736968
 20
38.436471
 30
0.0
 10
6.931569
 20
38.386461
 30
0.0
 10
7.118369
 20
38.312459
 30
0.0
 10
7.294469
 20
38.215660
 30
0.0
 10
7.457069
 20
38.097561
 30
0.0
 10
7.603469
 20
37.960060
 30
0.0
 10
7.731568
 20
37.805159
 30
0.0
 10
7.839269
 20
37.635561
 30
0.0
 10
7.924768
 20
37.453762
 30
0.0
 10
7.986869
 20
37.262660
 30
0.0
 10
8.024568
 20
37.065260
 30
0.0
 10
8.037170
 20
36.864761
 30
0.0
 10
8.024567
 20
36.664259
 30
0.0
 10
7.986869
 20
36.466861
 30
0.0
 10
7.924768
 20
36.275760
 30
0.0
 10
7.839269
 20
36.093961
 30
0.0
 10
7.731568
 20
35.924261
 30
0.0
 10
7.603469
 20
35.769459
 30
0.0
 10
7.457069
 20
35.631961
 30
0.0
 10
7.294469
 20
35.513859
 30
0.0
 10
7.118369
 20
35.417060
 30
0.0
 10
6.931569
 20
35.343061
 30
0.0
 10
6.736968
 20
35.293060
 30
0.0
 10
6.537668
 20
35.267970
 30
0.0
 10
6.336668
 20
35.267959
 30
0.0
  0
LWPOLYLINE
  5
14b
100
AcDbEntity
  8
Layer_1
 62
7
100
AcDbPolyline
 90
51
 70
0
 10
190.435169
 20
32.100559
 30
0.0
 10
190.265169
 20
32.132961
 30
0.0
 10
190.101167
 20
32.186259
 30
0.0
 10
189.945169
 20
32.259859
 30
0.0
 10
189.799170
 20
32.352361
 30
0.0
 10
189.666170
 20
32.462461
 30
0.0
 10
189.548170
 20
32.588259
 30
0.0
 10
189.446169
 20
32.727959
 30
0.0
 10
189.363167
 20
32.879261
 30
0.0
 10
189.299168
 20
33.039860
 30
0.0
 10
189.256168
 20
33.207059
 30
0.0
 10
189.235171
 20
33.378360
 30
0.0
 10
189.235168
 20
33.551060
 30
0.0
 10
189.256166
 20
33.722360
 30
0.0
 10
189.299168
 20
33.889659
 30
0.0
 10
189.363167
 20
34.050159
 30
0.0
 10
189.446169
 20
34.201461
 30
0.0
 10
189.548170
 20
34.341161
 30
0.0
 10
189.666170
 20
34.467060
 30
0.0
 10
189.799170
 20
34.577161
 30
0.0
 10
189.945169
 20
34.669659
 30
0.0
 10
190.101167
 20
34.743161
 30
0.0
 10
190.265169
 20
34.796560
 30
0.0
 10
190.435169
 20
34.828861
 30
0.0
 10
190.607169
 20
34.839754
 30
0.0
 10
190.779169
 20
34.828866
 30
0.0
 10
190.949169
 20
34.796560
 30
0.0
 10
191.113168
 20
34.743161
 30
0.0
 10
191.269169
 20
34.669659
 30
0.0
 10
191.415168
 20
34.577161
 30
0.0
 10
191.548169
 20
34.467060
 30
0.0
 10
191.666168
 20
34.341161
 30
0.0
 10
191.768169
 20
34.201461
 30
0.0
 10
191.851168
 20
34.050159
 30
0.0
 10
191.915167
 20
33.889659
 30
0.0
 10
191.958170
 20
33.722360
 30
0.0
 10
191.979167
 20
33.551060
 30
0.0
 10
191.979167
 20
33.378360
 30
0.0
 10
191.958170
 20
33.207059
 30
0.0
 10
191.915167
 20
33.039860
 30
0.0
 10
191.851168
 20
32.879261
 30
0.0
 10
191.768169
 20
32.727959
 30
0.0
 10
191.666168
 20
32.588259
 30
0.0
 10
191.548169
 20
32.462461
 30
0.0
 10
191.415168
 20
32.352361
 30
0.0
 10
191.269169
 20
32.259859
 30
0.0
 10
191.113168
 20
32.186259
 30
0.0
 10
190.949169
 20
32.132961
 30
0.0
 10
190.779169
 20
32.100559
 30
0.0
 10
190.607169
 20
32.089750
 30
0.0
 10
190.435169
 20
32.100570
 30
0.0
  0
LWPOLYLINE
  5
14c
100
AcDbEntity
  8
Layer_1
 62
7
100
AcDbPolyline
 90
51
 70
0
 10
141.435168
 20
32.100559
 30
0.0
 10
141.265169
 20
32.132961
 30
0.0
 10
141.101169
 20
32.186259
 30
0.0
 10
140.945168
 20
32.259859
 30
0.0
 10
140.799169
 20
32.352361
 30
0.0
 10
140.666169
 20
32.462461
 30
0.0
 10
140.548169
 20
32.588259
 30
0.0
 10
140.446168
 20
32.727959
 30
0.0
 10
140.363169
 20
32.879261
 30
0.0
 10
140.299167
 20
33.039860
 30
0.0
 10
140.256168
 20
33.207059
 30
0.0
 10
140.235170
 20
33.378360
 30
0.0
 10
140.235168
 20
33.551060
 30
0.0
 10
140.256165
 20
33.722360
 30
0.0
 10
140.299167
 20
33.889659
 30
0.0
 10
140.363169
 20
34.050159
 30
0.0
 10
140.446168
 20
34.201461
 30
0.0
 10
140.548169
 20
34.341161
 30
0.0
 10
140.666169
 20
34.467060
 30
0.0
 10
140.799169
 20
34.577161
 30
0.0
 10
140.945168
 20
34.669659
 30
0.0
 10
141.101169
 20
34.743161
 30
0.0
 10
141.265169
 20
34.796560
 30
0.0
 10
141.435168
 20
34.828861
 30
0.0
 10
141.607168
 20
34.839754
 30
0.0
 10
141.779169
 20
34.828866
 30
0.0
 10
141.949168
 20
34.796560
 30
0.0
 10
142.113167
 20
34.743161
 30
0.0
 10
142.269169
 20
34.669659
 30
0.0
 10
142.415168
 20
34.577161
 30
0.0
 10
142.548168
 20
34.467060
 30
0.0
 10
142.666168
 20
34.341161
 30
0.0
 10
142.768168
 20
34.201461
 30
0.0
 10
142.851170
 20
34.050159
 30
0.0
 10
142.915170
 20
33.889659
 30
0.0
 10
142.958169
 20
33.722360
 30
0.0
 10
142.979166
 20
33.551060
 30
0.0
 10
142.979169
 20
33.378360
 30
0.0
 10
142.958172
 20
33.207059
 30
0.0
 10
142.915170
 20
33.039860
 30
0.0
 10
142.851170
 20
32.879261
 30
0.0
 10
142.768168
 20
32.727959
 30
0.0
 10
142.666168
 20
32.588259
 30
0.0
 10
142.548168
 20
32.462461
 30
0.0
 10
142.415168
 20
32.352361
 30
0.0
 10
142.269169
 20
32.259859
 30
0.0
 10
142.113167
 20
32.186259
 30
0.0
 10
141.949168
 20
32.132961
 30
0.0
 10
141.779169
 20
32.100559
 30
0.0
 10
141.607168
 20
32.089750
 30
0.0
 10
141.435168
 20
32.100570
 30
0.0
  0
LWPOLYLINE
  5
14d
100
AcDbEntity
  8
Layer_1
 62
7
100
AcDbPolyline
 90
51
 70
0
 10
-3.663312
 20
25.267900
 30
0.0
 10
-3.862651
 20
25.293018
 30
0.0
 10
-4.057261
 20
25.343056
 30
0.0
 10
-4.244092
 20
25.417054
 30
0.0
 10
-4.420162
 20
25.513828
 30
0.0
 10
-4.582711
 20
25.631938
 30
0.0
 10
-4.729181
 20
25.769493
 30
0.0
 10
-4.857261
 20
25.924292
 30
0.0
 10
-4.964932
 20
26.093964
 30
0.0
 10
-5.050491
 20
26.275772
 30
0.0
 10
-5.112572
 20
26.466836
 30
0.0
 10
-5.150221
 20
26.664223
 30
0.0
 10
-5.162842
 20
26.864770
 30
0.0
 10
-5.150221
 20
27.065260
 30
0.0
 10
-5.112572
 20
27.262647
 30
0.0
 10
-5.050491
 20
27.453767
 30
0.0
 10
-4.964932
 20
27.635547
 30
0.0
 10
-4.857261
 20
27.805162
 30
0.0
 10
-4.729181
 20
27.960074
 30
0.0
 10
-4.582711
 20
28.097573
 30
0.0
 10
-4.420162
 20
28.215655
 30
0.0
 10
-4.244092
 20
28.312457
 30
0.0
 10
-4.057261
 20
28.386455
 30
0.0
 10
-3.862651
 20
28.436465
 30
0.0
 10
-3.663312
 20
28.461583
 30
0.0
 10
-3.462332
 20
28.461555
 30
0.0
 10
-3.263032
 20
28.436437
 30
0.0
 10
-3.068431
 20
28.386455
 30
0.0
 10
-2.881631
 20
28.312457
 30
0.0
 10
-2.705532
 20
28.215655
 30
0.0
 10
-2.542931
 20
28.097573
 30
0.0
 10
-2.396531
 20
27.960074
 30
0.0
 10
-2.268431
 20
27.805162
 30
0.0
 10
-2.160731
 20
27.635547
 30
0.0
 10
-2.075232
 20
27.453767
 30
0.0
 10
-2.013131
 20
27.262647
 30
0.0
 10
-1.975431
 20
27.065260
 30
0.0
 10
-1.962830
 20
26.864770
 30
0.0
 10
-1.975433
 20
26.664223
 30
0.0
 10
-2.013131
 20
26.466836
 30
0.0
 10
-2.075232
 20
26.275772
 30
0.0
 10
-2.160731
 20
26.093964
 30
0.0
 10
-2.268431
 20
25.924292
 30
0.0
 10
-2.396531
 20
25.769493
 30
0.0
 10
-2.542931
 20
25.631938
 30
0.0
 10
-2.705532
 20
25.513828
 30
0.0
 10
-2.881631
 20
25.417054
 30
0.0
 10
-3.068431
 20
25.343056
 30
0.0
 10
-3.263032
 20
25.293102
 30
0.0
 10
-3.462332
 20
25.267985
 30
0.0
 10
-3.663312
 20
25.267900
 30
0.0
  0
LWPOLYLINE
  5
14e
100
AcDbEntity
  8
Layer_1
 62
7
100
AcDbPolyline
 90
51
 70
0
 10
236.337168
 20
25.267900
 30
0.0
 10
236.137169
 20
25.293018
 30
0.0
 10
235.943169
 20
25.343056
 30
0.0
 10
235.756169
 20
25.417054
 30
0.0
 10
235.580169
 20
25.513828
 30
0.0
 10
235.417169
 20
25.631938
 30
0.0
 10
235.271170
 20
25.769493
 30
0.0
 10
235.143168
 20
25.924292
 30
0.0
 10
235.035167
 20
26.093964
 30
0.0
 10
234.949168
 20
26.275772
 30
0.0
 10
234.887170
 20
26.466836
 30
0.0
 10
234.850168
 20
26.664223
 30
0.0
 10
234.837157
 20
26.864770
 30
0.0
 10
234.850179
 20
27.065260
 30
0.0
 10
234.887170
 20
27.262647
 30
0.0
 10
234.949168
 20
27.453767
 30
0.0
 10
235.035167
 20
27.635547
 30
0.0
 10
235.143168
 20
27.805162
 30
0.0
 10
235.271170
 20
27.960074
 30
0.0
 10
235.417169
 20
28.097573
 30
0.0
 10
235.580169
 20
28.215655
 30
0.0
 10
235.756169
 20
28.312457
 30
0.0
 10
235.943169
 20
28.386455
 30
0.0
 10
236.137169
 20
28.436465
 30
0.0
 10
236.337168
 20
28.461583
 30
0.0
 10
236.537168
 20
28.461555
 30
0.0
 10
236.737167
 20
28.436437
 30
0.0
 10
236.931170
 20
28.386455
 30
0.0
 10
237.118167
 20
28.312457
 30
0.0
 10
237.294170
 20
28.215655
 30
0.0
 10
237.457170
 20
28.097573
 30
0.0
 10
237.603169
 20
27.960074
 30
0.0
 10
237.731168
 20
27.805162
 30
0.0
 10
237.839169
 20
27.635547
 30
0.0
 10
237.925168
 20
27.453767
 30
0.0
 10
237.987169
 20
27.262647
 30
0.0
 10
238.024168
 20
27.065260
 30
0.0
 10
238.037179
 20
26.864770
 30
0.0
 10
238.024157
 20
26.664223
 30
0.0
 10
237.987169
 20
26.466836
 30
0.0
 10
237.925168
 20
26.275772
 30
0.0
 10
237.839169
 20
26.093964
 30
0.0
 10
237.731168
 20
25.924292
 30
0.0
 10
237.603169
 20
25.769493
 30
0.0
 10
237.457170
 20
25.631938
 30
0.0
 10
237.294170
 20
25.513828
 30
0.0
 10
237.118167
 20
25.417054
 30
0.0
 10
236.931170
 20
25.343056
 30
0.0
 10
236.737167
 20
25.293102
 30
0.0
 10
236.537168
 20
25.267985
 30
0.0
 10
236.337168
 20
25.267900
 30
0.0
  0
LWPOLYLINE
  5
14f
100
AcDbEntity
  8
Layer_1
 62
7
100
AcDbPolyline
 90
5
 70
0
 10
189.619168
 20
25.314749
 30
0.0
 10
189.619168
 20
28.414762
 30
0.0
 10
210.528169
 20
28.414762
 30
0.0
 10
210.528169
 20
25.314749
 30
0.0
 10
189.619168
 20
25.314749
 30
0.0
  0
LWPOLYLINE
  5
150
100
AcDbEntity
  8
Layer_1
 62
7
100
AcDbPolyline
 90
5
 70
0
 10
147.801167
 20
25.314749
 30
0.0
 10
147.801167
 20
28.414762
 30
0.0
 10
168.710168
 20
28.414762
 30
0.0
 10
168.710168
 20
25.314749
 30
0.0
 10
147.801167
 20
25.314749
 30
0.0
  0
LWPOLYLINE
  5
151
100
AcDbEntity
  8
Layer_1
 62
7
100
AcDbPolyline
 90
5
 70
0
 10
105.982170
 20
25.314749
 30
0.0
 10
105.982170
 20
28.414762
 30
0.0
 10
126.892169
 20
28.414762
 30
0.0
 10
126.892169
 20
25.314749
 30
0.0
 10
105.982170
 20
25.314749
 30
0.0
  0
LWPOLYLINE
  5
152
100
AcDbEntity
  8
Layer_1
 62
7
100
AcDbPolyline
 90
5
 70
0
 10
22.346269
 20
25.314749
 30
0.0
 10
22.346269
 20
28.414762
 30
0.0
 10
43.255368
 20
28.414762
 30
0.0
 10
43.255368
 20
25.314749
 30
0.0
 10
22.346269
 20
25.314749
 30
0.0
  0
LWPOLYLINE
  5
153
100
AcDbEntity
  8
Layer_1
 62
7
100
AcDbPolyline
 90
5
 70
0
 10
64.164468
 20
25.314749
 30
0.0
 10
64.164468
 20
28.414762
 30
0.0
 10
85.073567
 20
28.414762
 30
0.0
 10
85.073567
 20
25.314749
 30
0.0
 10
64.164468
 20
25.314749
 30
0.0
  0
LWPOLYLINE
  5
154
100
AcDbEntity
  8
Layer_1
 62
7
100
AcDbPolyline
 90
29
 70
0
 10
-23.562832
 20
44.721861
 30
0.0
 10
-20.462841
 20
44.721861
 30
0.0
 10
-20.462841
 20
57.579059
 30
0.0
 10
-23.562832
 20
57.579059
 30
0.0
 10
-23.562832
 20
70.436161
 30
0.0
 10
-20.462841
 20
70.436161
 30
0.0
 10
-20.462841
 20
83.293359
 30
0.0
 10
-23.562832
 20
83.293359
 30
0.0
 10
-23.562832
 20
96.150461
 30
0.0
 10
-20.462841
 20
96.150461
 30
0.0
 10
-20.462841
 20
109.007661
 30
0.0
 10
-23.562832
 20
109.007661
 30
0.0
 10
-23.562832
 20
121.864760
 30
0.0
 10
-77.562831
 20
121.864760
 30
0.0
 10
-77.562831
 20
109.007661
 30
0.0
 10
-80.662833
 20
109.007661
 30
0.0
 10
-80.662833
 20
96.150461
 30
0.0
 10
-77.562831
 20
96.150461
 30
0.0
 10
-77.562831
 20
83.293359
 30
0.0
 10
-80.662833
 20
83.293359
 30
0.0
 10
-80.662833
 20
70.436161
 30
0.0
 10
-77.562831
 20
70.436161
 30
0.0
 10
-77.562831
 20
57.579059
 30
0.0
 10
-80.662833
 20
57.579059
 30
0.0
 10
-80.662833
 20
44.721861
 30
0.0
 10
-77.562831
 20
44.721861
 30
0.0
 10
-77.562831
 20
31.864760
 30
0.0
 10
-23.562832
 20
31.864760
 30
0.0
 10
-23.562832
 20
44.721861
 30
0.0
  0
LWPOLYLINE
  5
155
100
AcDbEntity
  8
Layer_1
 62
7
100
AcDbPolyline
 90
41
 70
0
 10
-60.065132
 20
91.380561
 30
0.0
 10
-61.061831
 20
91.506460
 30
0.0
 10
-62.034930
 20
91.756359
 30
0.0
 10
-62.969032
 20
92.126161
 30
0.0
 10
-63.849433
 20
92.610161
 30
0.0
 10
-64.662233
 20
93.200660
 30
0.0
 10
-65.394532
 20
93.888359
 30
0.0
 10
-66.034930
 20
94.662461
 30
0.0
 10
-66.573331
 20
95.510759
 30
0.0
 10
-66.812831
 20
96.019860
 30
0.0
 10
-66.812831
 20
102.709661
 30
0.0
 10
-66.573331
 20
103.218761
 30
0.0
 10
-66.034930
 20
104.067059
 30
0.0
 10
-65.394532
 20
104.841161
 30
0.0
 10
-64.662233
 20
105.528860
 30
0.0
 10
-63.849433
 20
106.119360
 30
0.0
 10
-62.969032
 20
106.603359
 30
0.0
 10
-62.034930
 20
106.973161
 30
0.0
 10
-61.061831
 20
107.223060
 30
0.0
 10
-60.065132
 20
107.348959
 30
0.0
 10
-59.060531
 20
107.348959
 30
0.0
 10
-58.063832
 20
107.223060
 30
0.0
 10
-57.090732
 20
106.973161
 30
0.0
 10
-56.156631
 20
106.603359
 30
0.0
 10
-55.276233
 20
106.119360
 30
0.0
 10
-54.463433
 20
105.528860
 30
0.0
 10
-53.731131
 20
104.841161
 30
0.0
 10
-53.090732
 20
104.067059
 30
0.0
 10
-52.552331
 20
103.218761
 30
0.0
 10
-52.312832
 20
102.709661
 30
0.0
 10
-52.312832
 20
96.019860
 30
0.0
 10
-52.552331
 20
95.510759
 30
0.0
 10
-53.090732
 20
94.662461
 30
0.0
 10
-53.731131
 20
93.888359
 30
0.0
 10
-54.463433
 20
93.200660
 30
0.0
 10
-55.276233
 20
92.610161
 30
0.0
 10
-56.156631
 20
92.126161
 30
0.0
 10
-57.090732
 20
91.756359
 30
0.0
 10
-58.063832
 20
91.506460
 30
0.0
 10
-59.060531
 20
91.380561
 30
0.0
 10
-60.065132
 20
91.380561
 30
0.0
  0
LWPOLYLINE
  5
156
100
AcDbEntity
  8
Layer_1
 62
7
100
AcDbPolyline
 90
51
 70
0
 10
-41.810832
 20
95.422562
 30
0.0
 10
-42.303030
 20
95.484761
 30
0.0
 10
-42.783432
 20
95.608061
 30
0.0
 10
-43.244631
 20
95.790661
 30
0.0
 10
-43.679332
 20
96.029661
 30
0.0
 10
-44.080632
 20
96.321259
 30
0.0
 10
-44.442232
 20
96.660761
 30
0.0
 10
-44.758431
 20
97.042960
 30
0.0
 10
-45.024231
 20
97.461860
 30
0.0
 10
-45.235432
 20
97.910661
 30
0.0
 10
-45.388732
 20
98.382460
 30
0.0
 10
-45.481733
 20
98.869661
 30
0.0
 10
-45.512831
 20
99.364760
 30
0.0
 10
-45.481733
 20
99.859860
 30
0.0
 10
-45.388732
 20
100.347060
 30
0.0
 10
-45.235432
 20
100.818859
 30
0.0
 10
-45.024231
 20
101.267660
 30
0.0
 10
-44.758431
 20
101.686461
 30
0.0
 10
-44.442232
 20
102.068661
 30
0.0
 10
-44.080632
 20
102.408262
 30
0.0
 10
-43.679332
 20
102.699859
 30
0.0
 10
-43.244631
 20
102.938859
 30
0.0
 10
-42.783432
 20
103.121460
 30
0.0
 10
-42.303030
 20
103.244760
 30
0.0
 10
-41.810832
 20
103.306959
 30
0.0
 10
-41.314831
 20
103.306959
 30
0.0
 10
-40.822732
 20
103.244760
 30
0.0
 10
-40.342232
 20
103.121460
 30
0.0
 10
-39.881032
 20
102.938859
 30
0.0
 10
-39.446332
 20
102.699859
 30
0.0
 10
-39.045032
 20
102.408262
 30
0.0
 10
-38.683432
 20
102.068661
 30
0.0
 10
-38.367231
 20
101.686461
 30
0.0
 10
-38.101431
 20
101.267660
 30
0.0
 10
-37.890232
 20
100.818859
 30
0.0
 10
-37.736932
 20
100.347060
 30
0.0
 10
-37.644032
 20
99.859860
 30
0.0
 10
-37.612831
 20
99.364760
 30
0.0
 10
-37.644032
 20
98.869661
 30
0.0
 10
-37.736932
 20
98.382460
 30
0.0
 10
-37.890232
 20
97.910661
 30
0.0
 10
-38.101431
 20
97.461860
 30
0.0
 10
-38.367231
 20
97.042960
 30
0.0
 10
-38.683432
 20
96.660761
 30
0.0
 10
-39.045032
 20
96.321259
 30
0.0
 10
-39.446332
 20
96.029661
 30
0.0
 10
-39.881032
 20
95.790661
 30
0.0
 10
-40.342232
 20
95.608061
 30
0.0
 10
-40.822732
 20
95.484761
 30
0.0
 10
-41.314831
 20
95.422562
 30
0.0
 10
-41.810832
 20
95.422562
 30
0.0
  0
LWPOLYLINE
  5
157
100
AcDbEntity
  8
Layer_1
 62
7
100
AcDbPolyline
 90
41
 70
0
 10
-60.065132
 20
68.880561
 30
0.0
 10
-61.061831
 20
69.006460
 30
0.0
 10
-62.034930
 20
69.256359
 30
0.0
 10
-62.969032
 20
69.626161
 30
0.0
 10
-63.849433
 20
70.110161
 30
0.0
 10
-64.662233
 20
70.700660
 30
0.0
 10
-65.394532
 20
71.388359
 30
0.0
 10
-66.034930
 20
72.162461
 30
0.0
 10
-66.573331
 20
73.010762
 30
0.0
 10
-66.812831
 20
73.519859
 30
0.0
 10
-66.812831
 20
80.209661
 30
0.0
 10
-66.573331
 20
80.718761
 30
0.0
 10
-66.034930
 20
81.567059
 30
0.0
 10
-65.394532
 20
82.341161
 30
0.0
 10
-64.662233
 20
83.028860
 30
0.0
 10
-63.849433
 20
83.619359
 30
0.0
 10
-62.969032
 20
84.103359
 30
0.0
 10
-62.034930
 20
84.473161
 30
0.0
 10
-61.061831
 20
84.723060
 30
0.0
 10
-60.065132
 20
84.848959
 30
0.0
 10
-59.060531
 20
84.848959
 30
0.0
 10
-58.063832
 20
84.723060
 30
0.0
 10
-57.090732
 20
84.473161
 30
0.0
 10
-56.156631
 20
84.103359
 30
0.0
 10
-55.276233
 20
83.619359
 30
0.0
 10
-54.463433
 20
83.028860
 30
0.0
 10
-53.731131
 20
82.341161
 30
0.0
 10
-53.090732
 20
81.567059
 30
0.0
 10
-52.552331
 20
80.718761
 30
0.0
 10
-52.312832
 20
80.209661
 30
0.0
 10
-52.312832
 20
73.519859
 30
0.0
 10
-52.552331
 20
73.010762
 30
0.0
 10
-53.090732
 20
72.162461
 30
0.0
 10
-53.731131
 20
71.388359
 30
0.0
 10
-54.463433
 20
70.700660
 30
0.0
 10
-55.276233
 20
70.110161
 30
0.0
 10
-56.156631
 20
69.626161
 30
0.0
 10
-57.090732
 20
69.256359
 30
0.0
 10
-58.063832
 20
69.006460
 30
0.0
 10
-59.060531
 20
68.880561
 30
0.0
 10
-60.065132
 20
68.880561
 30
0.0
  0
LWPOLYLINE
  5
158
100
AcDbEntity
  8
Layer_1
 62
7
100
AcDbPolyline
 90
51
 70
0
 10
-41.810832
 20
72.922559
 30
0.0
 10
-42.303030
 20
72.984760
 30
0.0
 10
-42.783432
 20
73.108060
 30
0.0
 10
-43.244631
 20
73.290661
 30
0.0
 10
-43.679332
 20
73.529661
 30
0.0
 10
-44.080632
 20
73.821261
 30
0.0
 10
-44.442232
 20
74.160761
 30
0.0
 10
-44.758431
 20
74.542960
 30
0.0
 10
-45.024231
 20
74.961860
 30
0.0
 10
-45.235432
 20
75.410661
 30
0.0
 10
-45.388732
 20
75.882460
 30
0.0
 10
-45.481733
 20
76.369660
 30
0.0
 10
-45.512831
 20
76.864760
 30
0.0
 10
-45.481733
 20
77.359860
 30
0.0
 10
-45.388732
 20
77.847060
 30
0.0
 10
-45.235432
 20
78.318859
 30
0.0
 10
-45.024231
 20
78.767660
 30
0.0
 10
-44.758431
 20
79.186461
 30
0.0
 10
-44.442232
 20
79.568661
 30
0.0
 10
-44.080632
 20
79.908261
 30
0.0
 10
-43.679332
 20
80.199859
 30
0.0
 10
-43.244631
 20
80.438859
 30
0.0
 10
-42.783432
 20
80.621459
 30
0.0
 10
-42.303030
 20
80.744760
 30
0.0
 10
-41.810832
 20
80.806961
 30
0.0
 10
-41.314831
 20
80.806961
 30
0.0
 10
-40.822732
 20
80.744760
 30
0.0
 10
-40.342232
 20
80.621459
 30
0.0
 10
-39.881032
 20
80.438859
 30
0.0
 10
-39.446332
 20
80.199859
 30
0.0
 10
-39.045032
 20
79.908261
 30
0.0
 10
-38.683432
 20
79.568661
 30
0.0
 10
-38.367231
 20
79.186461
 30
0.0
 10
-38.101431
 20
78.767660
 30
0.0
 10
-37.890232
 20
78.318859
 30
0.0
 10
-37.736932
 20
77.847060
 30
0.0
 10
-37.644032
 20
77.359860
 30
0.0
 10
-37.612831
 20
76.864760
 30
0.0
 10
-37.644032
 20
76.369660
 30
0.0
 10
-37.736932
 20
75.882460
 30
0.0
 10
-37.890232
 20
75.410661
 30
0.0
 10
-38.101431
 20
74.961860
 30
0.0
 10
-38.367231
 20
74.542960
 30
0.0
 10
-38.683432
 20
74.160761
 30
0.0
 10
-39.045032
 20
73.821261
 30
0.0
 10
-39.446332
 20
73.529661
 30
0.0
 10
-39.881032
 20
73.290661
 30
0.0
 10
-40.342232
 20
73.108060
 30
0.0
 10
-40.822732
 20
72.984760
 30
0.0
 10
-41.314831
 20
72.922559
 30
0.0
 10
-41.810832
 20
72.922559
 30
0.0
  0
LWPOLYLINE
  5
159
100
AcDbEntity
  8
Layer_1
 62
7
100
AcDbPolyline
 90
41
 70
0
 10
-60.065132
 20
46.380561
 30
0.0
 10
-61.061831
 20
46.506460
 30
0.0
 10
-62.034930
 20
46.756359
 30
0.0
 10
-62.969032
 20
47.126161
 30
0.0
 10
-63.849433
 20
47.610160
 30
0.0
 10
-64.662233
 20
48.200660
 30
0.0
 10
-65.394532
 20
48.888359
 30
0.0
 10
-66.034930
 20
49.662461
 30
0.0
 10
-66.573331
 20
50.510761
 30
0.0
 10
-66.812831
 20
51.019859
 30
0.0
 10
-66.812831
 20
57.709660
 30
0.0
 10
-66.573331
 20
58.218761
 30
0.0
 10
-66.034930
 20
59.067059
 30
0.0
 10
-65.394532
 20
59.841161
 30
0.0
 10
-64.662233
 20
60.528860
 30
0.0
 10
-63.849433
 20
61.119359
 30
0.0
 10
-62.969032
 20
61.603359
 30
0.0
 10
-62.034930
 20
61.973160
 30
0.0
 10
-61.061831
 20
62.223060
 30
0.0
 10
-60.065132
 20
62.348959
 30
0.0
 10
-59.060531
 20
62.348959
 30
0.0
 10
-58.063832
 20
62.223060
 30
0.0
 10
-57.090732
 20
61.973160
 30
0.0
 10
-56.156631
 20
61.603359
 30
0.0
 10
-55.276233
 20
61.119359
 30
0.0
 10
-54.463433
 20
60.528860
 30
0.0
 10
-53.731131
 20
59.841161
 30
0.0
 10
-53.090732
 20
59.067059
 30
0.0
 10
-52.552331
 20
58.218761
 30
0.0
 10
-52.312832
 20
57.709660
 30
0.0
 10
-52.312832
 20
51.019859
 30
0.0
 10
-52.552331
 20
50.510761
 30
0.0
 10
-53.090732
 20
49.662461
 30
0.0
 10
-53.731131
 20
48.888359
 30
0.0
 10
-54.463433
 20
48.200660
 30
0.0
 10
-55.276233
 20
47.610160
 30
0.0
 10
-56.156631
 20
47.126161
 30
0.0
 10
-57.090732
 20
46.756359
 30
0.0
 10
-58.063832
 20
46.506460
 30
0.0
 10
-59.060531
 20
46.380561
 30
0.0
 10
-60.065132
 20
46.380561
 30
0.0
  0
LWPOLYLINE
  5
15a
100
AcDbEntity
  8
Layer_1
 62
7
100
AcDbPolyline
 90
51
 70
0
 10
-41.810832
 20
50.422561
 30
0.0
 10
-42.303030
 20
50.484760
 30
0.0
 10
-42.783432
 20
50.608060
 30
0.0
 10
-43.244631
 20
50.790661
 30
0.0
 10
-43.679332
 20
51.029661
 30
0.0
 10
-44.080632
 20
51.321261
 30
0.0
 10
-44.442232
 20
51.660760
 30
0.0
 10
-44.758431
 20
52.042960
 30
0.0
 10
-45.024231
 20
52.461860
 30
0.0
 10
-45.235432
 20
52.910661
 30
0.0
 10
-45.388732
 20
53.382460
 30
0.0
 10
-45.481733
 20
53.869660
 30
0.0
 10
-45.512831
 20
54.364760
 30
0.0
 10
-45.481733
 20
54.859859
 30
0.0
 10
-45.388732
 20
55.347060
 30
0.0
 10
-45.235432
 20
55.818859
 30
0.0
 10
-45.024231
 20
56.267660
 30
0.0
 10
-44.758431
 20
56.686461
 30
0.0
 10
-44.442232
 20
57.068660
 30
0.0
 10
-44.080632
 20
57.408261
 30
0.0
 10
-43.679332
 20
57.699859
 30
0.0
 10
-43.244631
 20
57.938859
 30
0.0
 10
-42.783432
 20
58.121459
 30
0.0
 10
-42.303030
 20
58.244759
 30
0.0
 10
-41.810832
 20
58.306961
 30
0.0
 10
-41.314831
 20
58.306961
 30
0.0
 10
-40.822732
 20
58.244759
 30
0.0
 10
-40.342232
 20
58.121459
 30
0.0
 10
-39.881032
 20
57.938859
 30
0.0
 10
-39.446332
 20
57.699859
 30
0.0
 10
-39.045032
 20
57.408261
 30
0.0
 10
-38.683432
 20
57.068660
 30
0.0
 10
-38.367231
 20
56.686461
 30
0.0
 10
-38.101431
 20
56.267660
 30
0.0
 10
-37.890232
 20
55.818859
 30
0.0
 10
-37.736932
 20
55.347060
 30
0.0
 10
-37.644032
 20
54.859859
 30
0.0
 10
-37.612831
 20
54.364760
 30
0.0
 10
-37.644032
 20
53.869660
 30
0.0
 10
-37.736932
 20
53.382460
 30
0.0
 10
-37.890232
 20
52.910661
 30
0.0
 10
-38.101431
 20
52.461860
 30
0.0
 10
-38.367231
 20
52.042960
 30
0.0
 10
-38.683432
 20
51.660760
 30
0.0
 10
-39.045032
 20
51.321261
 30
0.0
 10
-39.446332
 20
51.029661
 30
0.0
 10
-39.881032
 20
50.790661
 30
0.0
 10
-40.342232
 20
50.608060
 30
0.0
 10
-40.822732
 20
50.484760
 30
0.0
 10
-41.314831
 20
50.422561
 30
0.0
 10
-41.810832
 20
50.422561
 30
0.0
  0
LWPOLYLINE
  5
15b
100
AcDbEntity
  8
Layer_1
 62
7
100
AcDbPolyline
 90
29
 70
0
 10
310.437170
 20
44.721861
 30
0.0
 10
313.537155
 20
44.721861
 30
0.0
 10
313.537155
 20
57.579059
 30
0.0
 10
310.437170
 20
57.579059
 30
0.0
 10
310.437170
 20
70.436161
 30
0.0
 10
313.537155
 20
70.436161
 30
0.0
 10
313.537155
 20
83.293359
 30
0.0
 10
310.437170
 20
83.293359
 30
0.0
 10
310.437170
 20
96.150461
 30
0.0
 10
313.537155
 20
96.150461
 30
0.0
 10
313.537155
 20
109.007661
 30
0.0
 10
310.437170
 20
109.007661
 30
0.0
 10
310.437170
 20
121.864760
 30
0.0
 10
256.437168
 20
121.864760
 30
0.0
 10
256.437168
 20
109.007661
 30
0.0
 10
253.337168
 20
109.007661
 30
0.0
 10
253.337168
 20
96.150461
 30
0.0
 10
256.437168
 20
96.150461
 30
0.0
 10
256.437168
 20
83.293359
 30
0.0
 10
253.337168
 20
83.293359
 30
0.0
 10
253.337168
 20
70.436161
 30
0.0
 10
256.437168
 20
70.436161
 30
0.0
 10
256.437168
 20
57.579059
 30
0.0
 10
253.337168
 20
57.579059
 30
0.0
 10
253.337168
 20
44.721861
 30
0.0
 10
256.437168
 20
44.721861
 30
0.0
 10
256.437168
 20
31.864760
 30
0.0
 10
310.437170
 20
31.864760
 30
0.0
 10
310.437170
 20
44.721861
 30
0.0
  0
LWPOLYLINE
  5
15c
100
AcDbEntity
  8
Layer_1
 62
7
100
AcDbPolyline
 90
41
 70
0
 10
269.435163
 20
91.380561
 30
0.0
 10
268.438168
 20
91.506460
 30
0.0
 10
267.465167
 20
91.756359
 30
0.0
 10
266.531170
 20
92.126161
 30
0.0
 10
265.650168
 20
92.610161
 30
0.0
 10
264.838170
 20
93.200660
 30
0.0
 10
264.105168
 20
93.888359
 30
0.0
 10
263.465170
 20
94.662461
 30
0.0
 10
262.927170
 20
95.510759
 30
0.0
 10
262.687168
 20
96.019860
 30
0.0
 10
262.687168
 20
102.709661
 30
0.0
 10
262.927170
 20
103.218761
 30
0.0
 10
263.465170
 20
104.067059
 30
0.0
 10
264.105168
 20
104.841161
 30
0.0
 10
264.838170
 20
105.528860
 30
0.0
 10
265.650168
 20
106.119360
 30
0.0
 10
266.531170
 20
106.603359
 30
0.0
 10
267.465167
 20
106.973161
 30
0.0
 10
268.438168
 20
107.223060
 30
0.0
 10
269.435163
 20
107.348959
 30
0.0
 10
270.439169
 20
107.348959
 30
0.0
 10
271.436175
 20
107.223060
 30
0.0
 10
272.409164
 20
106.973161
 30
0.0
 10
273.343179
 20
106.603359
 30
0.0
 10
274.224164
 20
106.119360
 30
0.0
 10
275.036174
 20
105.528860
 30
0.0
 10
275.769161
 20
104.841161
 30
0.0
 10
276.409156
 20
104.067059
 30
0.0
 10
276.947157
 20
103.218761
 30
0.0
 10
277.187158
 20
102.709661
 30
0.0
 10
277.187158
 20
96.019860
 30
0.0
 10
276.947157
 20
95.510759
 30
0.0
 10
276.409156
 20
94.662461
 30
0.0
 10
275.769161
 20
93.888359
 30
0.0
 10
275.036174
 20
93.200660
 30
0.0
 10
274.224164
 20
92.610161
 30
0.0
 10
273.343179
 20
92.126161
 30
0.0
 10
272.409164
 20
91.756359
 30
0.0
 10
271.436175
 20
91.506460
 30
0.0
 10
270.439169
 20
91.380561
 30
0.0
 10
269.435163
 20
91.380561
 30
0.0
  0
LWPOLYLINE
  5
15d
100
AcDbEntity
  8
Layer_1
 62
7
100
AcDbPolyline
 90
12
 70
0
 10
287.487169
 20
103.046860
 30
0.0
 10
287.487169
 20
104.232760
 30
0.0
 10
287.693163
 20
104.232760
 30
0.0
 10
287.693163
 20
103.750762
 30
0.0
 10
289.176156
 20
103.750762
 30
0.0
 10
288.895176
 20
104.177761
 30
0.0
 10
289.124171
 20
104.177761
 30
0.0
 10
289.407155
 20
103.730760
 30
0.0
 10
289.407155
 20
103.507861
 30
0.0
 10
287.693163
 20
103.507861
 30
0.0
 10
287.693163
 20
103.046860
 30
0.0
 10
287.487169
 20
103.046860
 30
0.0
  0
LWPOLYLINE
  5
15e
100
AcDbEntity
  8
Layer_1
 62
7
100
AcDbPolyline
 90
51
 70
0
 10
296.689166
 20
95.422562
 30
0.0
 10
296.197168
 20
95.484761
 30
0.0
 10
295.716176
 20
95.608061
 30
0.0
 10
295.255166
 20
95.790661
 30
0.0
 10
294.820177
 20
96.029661
 30
0.0
 10
294.419168
 20
96.321259
 30
0.0
 10
294.058177
 20
96.660761
 30
0.0
 10
293.741157
 20
97.042960
 30
0.0
 10
293.476178
 20
97.461860
 30
0.0
 10
293.264173
 20
97.910661
 30
0.0
 10
293.111180
 20
98.382460
 30
0.0
 10
293.018160
 20
98.869661
 30
0.0
 10
292.987172
 20
99.364760
 30
0.0
 10
293.018160
 20
99.859860
 30
0.0
 10
293.111180
 20
100.347060
 30
0.0
 10
293.264173
 20
100.818859
 30
0.0
 10
293.476178
 20
101.267660
 30
0.0
 10
293.741157
 20
101.686461
 30
0.0
 10
294.058177
 20
102.068661
 30
0.0
 10
294.419168
 20
102.408262
 30
0.0
 10
294.820177
 20
102.699859
 30
0.0
 10
295.255166
 20
102.938859
 30
0.0
 10
295.716176
 20
103.121460
 30
0.0
 10
296.197168
 20
103.244760
 30
0.0
 10
296.689166
 20
103.306959
 30
0.0
 10
297.185171
 20
103.306959
 30
0.0
 10
297.677169
 20
103.244760
 30
0.0
 10
298.158160
 20
103.121460
 30
0.0
 10
298.619170
 20
102.938859
 30
0.0
 10
299.054160
 20
102.699859
 30
0.0
 10
299.455169
 20
102.408262
 30
0.0
 10
299.816160
 20
102.068661
 30
0.0
 10
300.133180
 20
101.686461
 30
0.0
 10
300.398158
 20
101.267660
 30
0.0
 10
300.610164
 20
100.818859
 30
0.0
 10
300.763156
 20
100.347060
 30
0.0
 10
300.856177
 20
99.859860
 30
0.0
 10
300.887165
 20
99.364760
 30
0.0
 10
300.856177
 20
98.869661
 30
0.0
 10
300.763156
 20
98.382460
 30
0.0
 10
300.610164
 20
97.910661
 30
0.0
 10
300.398158
 20
97.461860
 30
0.0
 10
300.133180
 20
97.042960
 30
0.0
 10
299.816160
 20
96.660761
 30
0.0
 10
299.455169
 20
96.321259
 30
0.0
 10
299.054160
 20
96.029661
 30
0.0
 10
298.619170
 20
95.790661
 30
0.0
 10
298.158160
 20
95.608061
 30
0.0
 10
297.677169
 20
95.484761
 30
0.0
 10
297.185171
 20
95.422562
 30
0.0
 10
296.689166
 20
95.422562
 30
0.0
  0
LWPOLYLINE
  5
15f
100
AcDbEntity
  8
Layer_1
 62
7
100
AcDbPolyline
 90
12
 70
0
 10
281.409175
 20
100.795460
 30
0.0
 10
281.409175
 20
101.197460
 30
0.0
 10
280.737175
 20
101.197460
 30
0.0
 10
280.737175
 20
101.543459
 30
0.0
 10
281.409175
 20
101.543459
 30
0.0
 10
281.409175
 20
102.884461
 30
0.0
 10
281.693175
 20
102.884461
 30
0.0
 10
283.617168
 20
101.579460
 30
0.0
 10
283.617168
 20
101.197460
 30
0.0
 10
281.697182
 20
101.197460
 30
0.0
 10
281.697182
 20
100.795460
 30
0.0
 10
281.409175
 20
100.795460
 30
0.0
  0
LWPOLYLINE
  5
160
100
AcDbEntity
  8
Layer_1
 62
7
100
AcDbPolyline
 90
7
 70
0
 10
282.991171
 20
101.661561
 30
0.0
 10
281.887174
 20
102.405459
 30
0.0
 10
281.737173
 20
102.514459
 30
0.0
 10
281.697182
 20
102.546460
 30
0.0
 10
281.697182
 20
101.543459
 30
0.0
 10
283.205180
 20
101.543459
 30
0.0
 10
282.991171
 20
101.661561
 30
0.0
  0
LWPOLYLINE
  5
161
100
AcDbEntity
  8
Layer_1
 62
7
100
AcDbPolyline
 90
17
 70
0
 10
287.487169
 20
101.553662
 30
0.0
 10
287.487169
 20
102.811659
 30
0.0
 10
287.658167
 20
102.811659
 30
0.0
 10
287.702166
 20
102.791367
 30
0.0
 10
287.786155
 20
102.747061
 30
0.0
 10
287.863174
 20
102.697861
 30
0.0
 10
287.935168
 20
102.643660
 30
0.0
 10
288.034172
 20
102.556959
 30
0.0
 10
288.124173
 20
102.466659
 30
0.0
 10
288.207174
 20
102.373559
 30
0.0
 10
288.381164
 20
102.159759
 30
0.0
 10
288.476160
 20
102.050661
 30
0.0
 10
288.548155
 20
101.979261
 30
0.0
 10
288.597177
 20
101.938161
 30
0.0
 10
288.648175
 20
101.902562
 30
0.0
 10
288.701176
 20
101.872361
 30
0.0
 10
288.728269
 20
101.860254
 30
0.0
  0
LWPOLYLINE
  5
162
100
AcDbEntity
  8
Layer_1
 62
7
100
AcDbPolyline
 90
14
 70
0
 10
288.728156
 20
101.860259
 30
0.0
 10
288.757169
 20
101.850353
 30
0.0
 10
288.787169
 20
101.842570
 30
0.0
 10
288.817169
 20
101.837058
 30
0.0
 10
288.849173
 20
101.833759
 30
0.0
 10
288.881177
 20
101.832633
 30
0.0
 10
288.924160
 20
101.834636
 30
0.0
 10
288.964179
 20
101.840148
 30
0.0
 10
289.001178
 20
101.849557
 30
0.0
 10
289.036174
 20
101.862768
 30
0.0
 10
289.067162
 20
101.879665
 30
0.0
 10
289.096174
 20
101.900262
 30
0.0
 10
289.122139
 20
101.924674
 30
0.0
 10
289.145027
 20
101.952459
 30
0.0
  0
LWPOLYLINE
  5
163
100
AcDbEntity
  8
Layer_1
 62
7
100
AcDbPolyline
 90
4
 70
0
 10
289.145168
 20
101.952461
 30
0.0
 10
289.164077
 20
101.983060
 30
0.0
 10
289.180248
 20
102.016560
 30
0.0
 10
289.192299
 20
102.053059
 30
0.0
  0
LWPOLYLINE
  5
164
100
AcDbEntity
  8
Layer_1
 62
7
100
AcDbPolyline
 90
4
 70
0
 10
289.192158
 20
102.053059
 30
0.0
 10
289.201189
 20
102.092359
 30
0.0
 10
289.206241
 20
102.134560
 30
0.0
 10
289.208978
 20
102.179659
 30
0.0
  0
LWPOLYLINE
  5
165
100
AcDbEntity
  8
Layer_1
 62
7
100
AcDbPolyline
 90
2
 70
0
 10
289.208160
 20
102.179659
 30
0.0
 10
289.205338
 20
102.222861
 30
0.0
  0
LWPOLYLINE
  5
166
100
AcDbEntity
  8
Layer_1
 62
7
100
AcDbPolyline
 90
4
 70
0
 10
289.206156
 20
102.222861
 30
0.0
 10
289.201076
 20
102.263860
 30
0.0
 10
289.193259
 20
102.302660
 30
0.0
 10
289.181038
 20
102.339159
 30
0.0
  0
LWPOLYLINE
  5
167
100
AcDbEntity
  8
Layer_1
 62
7
100
AcDbPolyline
 90
3
 70
0
 10
289.181180
 20
102.339159
 30
0.0
 10
289.165093
 20
102.373559
 30
0.0
 10
289.146269
 20
102.405761
 30
0.0
  0
LWPOLYLINE
  5
168
100
AcDbEntity
  8
Layer_1
 62
7
100
AcDbPolyline
 90
3
 70
0
 10
289.146156
 20
102.405761
 30
0.0
 10
289.124142
 20
102.435660
 30
0.0
 10
289.099053
 20
102.462555
 30
0.0
  0
LWPOLYLINE
  5
169
100
AcDbEntity
  8
Layer_1
 62
7
100
AcDbPolyline
 90
8
 70
0
 10
289.099166
 20
102.462561
 30
0.0
 10
289.070182
 20
102.486155
 30
0.0
 10
289.039165
 20
102.506368
 30
0.0
 10
289.006174
 20
102.523151
 30
0.0
 10
288.969174
 20
102.536760
 30
0.0
 10
288.930171
 20
102.546864
 30
0.0
 10
288.888176
 20
102.553662
 30
0.0
 10
288.911319
 20
102.800660
 30
0.0
  0
LWPOLYLINE
  5
16a
100
AcDbEntity
  8
Layer_1
 62
7
100
AcDbPolyline
 90
11
 70
0
 10
288.911178
 20
102.800660
 30
0.0
 10
288.974170
 20
102.790162
 30
0.0
 10
289.033182
 20
102.773875
 30
0.0
 10
289.088159
 20
102.752045
 30
0.0
 10
289.140173
 20
102.724458
 30
0.0
 10
289.188179
 20
102.691161
 30
0.0
 10
289.232177
 20
102.652260
 30
0.0
 10
289.272168
 20
102.607660
 30
0.0
 10
289.308180
 20
102.558059
 30
0.0
 10
289.338180
 20
102.504561
 30
0.0
 10
289.363015
 20
102.447259
 30
0.0
  0
LWPOLYLINE
  5
16b
100
AcDbEntity
  8
Layer_1
 62
7
100
AcDbPolyline
 90
2
 70
0
 10
289.363156
 20
102.447259
 30
0.0
 10
289.382065
 20
102.386161
 30
0.0
  0
LWPOLYLINE
  5
16c
100
AcDbEntity
  8
Layer_1
 62
7
100
AcDbPolyline
 90
2
 70
0
 10
289.382178
 20
102.386161
 30
0.0
 10
289.396289
 20
102.321159
 30
0.0
  0
LWPOLYLINE
  5
16d
100
AcDbEntity
  8
Layer_1
 62
7
100
AcDbPolyline
 90
3
 70
0
 10
289.396176
 20
102.321159
 30
0.0
 10
289.404079
 20
102.252359
 30
0.0
 10
289.407268
 20
102.179659
 30
0.0
  0
LWPOLYLINE
  5
16e
100
AcDbEntity
  8
Layer_1
 62
7
100
AcDbPolyline
 90
2
 70
0
 10
289.407155
 20
102.179659
 30
0.0
 10
289.404050
 20
102.100360
 30
0.0
  0
LWPOLYLINE
  5
16f
100
AcDbEntity
  8
Layer_1
 62
7
100
AcDbPolyline
 90
3
 70
0
 10
289.404163
 20
102.100360
 30
0.0
 10
289.396261
 20
102.026562
 30
0.0
 10
289.382065
 20
101.958159
 30
0.0
  0
LWPOLYLINE
  5
170
100
AcDbEntity
  8
Layer_1
 62
7
100
AcDbPolyline
 90
2
 70
0
 10
289.382178
 20
101.958159
 30
0.0
 10
289.363269
 20
101.895159
 30
0.0
  0
LWPOLYLINE
  5
171
100
AcDbEntity
  8
Layer_1
 62
7
100
AcDbPolyline
 90
2
 70
0
 10
289.363156
 20
101.895159
 30
0.0
 10
289.338321
 20
101.837560
 30
0.0
  0
LWPOLYLINE
  5
172
100
AcDbEntity
  8
Layer_1
 62
7
100
AcDbPolyline
 90
31
 70
0
 10
289.338180
 20
101.837560
 30
0.0
 10
289.308180
 20
101.785360
 30
0.0
 10
289.272168
 20
101.738661
 30
0.0
 10
289.231161
 20
101.697561
 30
0.0
 10
289.186175
 20
101.662760
 30
0.0
 10
289.136165
 20
101.634261
 30
0.0
 10
289.081160
 20
101.612163
 30
0.0
 10
289.021160
 20
101.596356
 30
0.0
 10
288.958168
 20
101.586848
 30
0.0
 10
288.889164
 20
101.583670
 30
0.0
 10
288.858176
 20
101.584788
 30
0.0
 10
288.826172
 20
101.587864
 30
0.0
 10
288.795156
 20
101.593054
 30
0.0
 10
288.764168
 20
101.600369
 30
0.0
 10
288.732164
 20
101.609646
 30
0.0
 10
288.670160
 20
101.634665
 30
0.0
 10
288.608156
 20
101.667360
 30
0.0
 10
288.545164
 20
101.708161
 30
0.0
 10
288.483159
 20
101.757161
 30
0.0
 10
288.419180
 20
101.816961
 30
0.0
 10
288.337166
 20
101.903860
 30
0.0
 10
288.236158
 20
102.020361
 30
0.0
 10
288.080174
 20
102.209659
 30
0.0
 10
287.980155
 20
102.323259
 30
0.0
 10
287.918179
 20
102.386161
 30
0.0
 10
287.859166
 20
102.438962
 30
0.0
 10
287.803173
 20
102.482960
 30
0.0
 10
287.747180
 20
102.518560
 30
0.0
 10
287.693163
 20
102.545653
 30
0.0
 10
287.693163
 20
101.553662
 30
0.0
 10
287.487169
 20
101.553662
 30
0.0
  0
LWPOLYLINE
  5
173
100
AcDbEntity
  8
Layer_1
 62
7
100
AcDbPolyline
 90
5
 70
0
 10
288.104163
 20
99.932461
 30
0.0
 10
288.104163
 20
100.588459
 30
0.0
 10
288.319160
 20
100.588459
 30
0.0
 10
288.319160
 20
99.932461
 30
0.0
 10
288.104163
 20
99.932461
 30
0.0
  0
LWPOLYLINE
  5
174
100
AcDbEntity
  8
Layer_1
 62
7
100
AcDbPolyline
 90
12
 70
0
 10
281.423173
 20
98.600861
 30
0.0
 10
281.318158
 20
98.616270
 30
0.0
 10
281.219183
 20
98.641856
 30
0.0
 10
281.128166
 20
98.677659
 30
0.0
 10
281.045164
 20
98.723859
 30
0.0
 10
280.969162
 20
98.780159
 30
0.0
 10
280.900159
 20
98.846761
 30
0.0
 10
280.840158
 20
98.922961
 30
0.0
 10
280.789161
 20
99.007961
 30
0.0
 10
280.747166
 20
99.101960
 30
0.0
 10
280.715162
 20
99.204760
 30
0.0
 10
280.692020
 20
99.316559
 30
0.0
  0
LWPOLYLINE
  5
175
100
AcDbEntity
  8
Layer_1
 62
7
100
AcDbPolyline
 90
2
 70
0
 10
280.692161
 20
99.316559
 30
0.0
 10
280.678050
 20
99.437161
 30
0.0
  0
LWPOLYLINE
  5
176
100
AcDbEntity
  8
Layer_1
 62
7
100
AcDbPolyline
 90
5
 70
0
 10
280.678163
 20
99.437161
 30
0.0
 10
280.673083
 20
99.566761
 30
0.0
 10
280.678247
 20
99.693261
 30
0.0
 10
280.691145
 20
99.811659
 30
0.0
 10
280.714315
 20
99.921861
 30
0.0
  0
LWPOLYLINE
  5
177
100
AcDbEntity
  8
Layer_1
 62
7
100
AcDbPolyline
 90
27
 70
0
 10
280.714174
 20
99.921861
 30
0.0
 10
280.746178
 20
100.024059
 30
0.0
 10
280.787157
 20
100.118059
 30
0.0
 10
280.837167
 20
100.203959
 30
0.0
 10
280.896179
 20
100.281759
 30
0.0
 10
280.964167
 20
100.350162
 30
0.0
 10
281.039181
 20
100.408059
 30
0.0
 10
281.123171
 20
100.455462
 30
0.0
 10
281.213171
 20
100.492359
 30
0.0
 10
281.312175
 20
100.518662
 30
0.0
 10
281.418178
 20
100.534464
 30
0.0
 10
281.532167
 20
100.539767
 30
0.0
 10
281.612177
 20
100.536459
 30
0.0
 10
281.689167
 20
100.526751
 30
0.0
 10
281.762178
 20
100.510560
 30
0.0
 10
281.831182
 20
100.487756
 30
0.0
 10
281.896177
 20
100.458659
 30
0.0
 10
281.958182
 20
100.422961
 30
0.0
 10
282.016178
 20
100.380760
 30
0.0
 10
282.069180
 20
100.333161
 30
0.0
 10
282.116170
 20
100.282061
 30
0.0
 10
282.156160
 20
100.227259
 30
0.0
 10
282.191156
 20
100.168859
 30
0.0
 10
282.218249
 20
100.106759
 30
0.0
 10
282.240178
 20
100.041061
 30
0.0
 10
282.255136
 20
99.971761
 30
0.0
 10
282.263066
 20
99.971761
 30
0.0
  0
LWPOLYLINE
  5
178
100
AcDbEntity
  8
Layer_1
 62
7
100
AcDbPolyline
 90
27
 70
0
 10
282.263179
 20
99.971761
 30
0.0
 10
282.282088
 20
100.036060
 30
0.0
 10
282.306162
 20
100.096359
 30
0.0
 10
282.335174
 20
100.152761
 30
0.0
 10
282.369182
 20
100.205161
 30
0.0
 10
282.409173
 20
100.253661
 30
0.0
 10
282.454159
 20
100.298159
 30
0.0
 10
282.504169
 20
100.338760
 30
0.0
 10
282.558158
 20
100.374261
 30
0.0
 10
282.615167
 20
100.404360
 30
0.0
 10
282.674179
 20
100.428969
 30
0.0
 10
282.736155
 20
100.448152
 30
0.0
 10
282.801179
 20
100.461764
 30
0.0
 10
282.868179
 20
100.469973
 30
0.0
 10
282.938170
 20
100.472782
 30
0.0
 10
283.030174
 20
100.467764
 30
0.0
 10
283.117155
 20
100.452859
 30
0.0
 10
283.199169
 20
100.428052
 30
0.0
 10
283.275172
 20
100.393361
 30
0.0
 10
283.347166
 20
100.348759
 30
0.0
 10
283.414166
 20
100.294160
 30
0.0
 10
283.475182
 20
100.229760
 30
0.0
 10
283.530159
 20
100.156662
 30
0.0
 10
283.576162
 20
100.076660
 30
0.0
 10
283.614177
 20
99.989961
 30
0.0
 10
283.643161
 20
99.896360
 30
0.0
 10
283.664046
 20
99.795959
 30
0.0
  0
LWPOLYLINE
  5
179
100
AcDbEntity
  8
Layer_1
 62
7
100
AcDbPolyline
 90
47
 70
0
 10
283.664158
 20
99.795959
 30
0.0
 10
283.677141
 20
99.688760
 30
0.0
 10
283.681120
 20
99.574759
 30
0.0
 10
283.677225
 20
99.458060
 30
0.0
 10
283.664187
 20
99.348659
 30
0.0
 10
283.644121
 20
99.246560
 30
0.0
 10
283.615165
 20
99.151761
 30
0.0
 10
283.578165
 20
99.064160
 30
0.0
 10
283.533179
 20
98.983760
 30
0.0
 10
283.479162
 20
98.910761
 30
0.0
 10
283.419161
 20
98.845959
 30
0.0
 10
283.352162
 20
98.791259
 30
0.0
 10
283.280167
 20
98.746459
 30
0.0
 10
283.203177
 20
98.711560
 30
0.0
 10
283.119159
 20
98.686668
 30
0.0
 10
283.029158
 20
98.671758
 30
0.0
 10
282.934162
 20
98.666765
 30
0.0
 10
282.864171
 20
98.669582
 30
0.0
 10
282.797172
 20
98.677857
 30
0.0
 10
282.732176
 20
98.691745
 30
0.0
 10
282.670172
 20
98.711148
 30
0.0
 10
282.610171
 20
98.736164
 30
0.0
 10
282.553162
 20
98.766661
 30
0.0
 10
282.499173
 20
98.802760
 30
0.0
 10
282.449164
 20
98.843360
 30
0.0
 10
282.405165
 20
98.888059
 30
0.0
 10
282.366162
 20
98.936860
 30
0.0
 10
282.333170
 20
98.989659
 30
0.0
 10
282.305230
 20
99.046659
 30
0.0
 10
282.283160
 20
99.107661
 30
0.0
 10
282.267074
 20
99.172759
 30
0.0
 10
282.259256
 20
99.172759
 30
0.0
 10
282.243085
 20
99.097259
 30
0.0
 10
282.221156
 20
99.026661
 30
0.0
 10
282.192172
 20
98.960959
 30
0.0
 10
282.158164
 20
98.900259
 30
0.0
 10
282.118173
 20
98.844461
 30
0.0
 10
282.071155
 20
98.793661
 30
0.0
 10
282.019170
 20
98.747760
 30
0.0
 10
281.962161
 20
98.707459
 30
0.0
 10
281.901173
 20
98.673259
 30
0.0
 10
281.836177
 20
98.645347
 30
0.0
 10
281.767174
 20
98.623656
 30
0.0
 10
281.694163
 20
98.608168
 30
0.0
 10
281.617172
 20
98.598846
 30
0.0
 10
281.536175
 20
98.595755
 30
0.0
 10
281.423173
 20
98.600869
 30
0.0
  0
LWPOLYLINE
  5
17a
100
AcDbEntity
  8
Layer_1
 62
7
100
AcDbPolyline
 90
18
 70
0
 10
281.646157
 20
98.978960
 30
0.0
 10
281.717164
 20
98.988668
 30
0.0
 10
281.782160
 20
99.004774
 30
0.0
 10
281.841172
 20
99.027366
 30
0.0
 10
281.895161
 20
99.056359
 30
0.0
 10
281.943167
 20
99.091860
 30
0.0
 10
281.986178
 20
99.133761
 30
0.0
 10
282.023177
 20
99.181160
 30
0.0
 10
282.055181
 20
99.233860
 30
0.0
 10
282.081146
 20
99.291659
 30
0.0
 10
282.101212
 20
99.354659
 30
0.0
 10
282.115266
 20
99.422861
 30
0.0
 10
282.124213
 20
99.496160
 30
0.0
 10
282.127261
 20
99.574759
 30
0.0
 10
282.124072
 20
99.651159
 30
0.0
 10
282.115125
 20
99.722660
 30
0.0
 10
282.099095
 20
99.789259
 30
0.0
 10
282.078295
 20
99.850961
 30
0.0
  0
LWPOLYLINE
  5
17b
100
AcDbEntity
  8
Layer_1
 62
7
100
AcDbPolyline
 90
19
 70
0
 10
282.078182
 20
99.850961
 30
0.0
 10
282.050242
 20
99.907761
 30
0.0
 10
282.016178
 20
99.959761
 30
0.0
 10
281.976159
 20
100.006759
 30
0.0
 10
281.931173
 20
100.047859
 30
0.0
 10
281.880175
 20
100.082660
 30
0.0
 10
281.826158
 20
100.111159
 30
0.0
 10
281.767174
 20
100.133257
 30
0.0
 10
281.703166
 20
100.149064
 30
0.0
 10
281.634162
 20
100.158572
 30
0.0
 10
281.561180
 20
100.161750
 30
0.0
 10
281.398168
 20
100.149456
 30
0.0
 10
281.260161
 20
100.112861
 30
0.0
 10
281.147160
 20
100.051760
 30
0.0
 10
281.060179
 20
99.966162
 30
0.0
 10
280.997158
 20
99.856160
 30
0.0
 10
280.960159
 20
99.721661
 30
0.0
 10
280.947177
 20
99.562759
 30
0.0
 10
280.950281
 20
99.480959
 30
0.0
  0
LWPOLYLINE
  5
17c
100
AcDbEntity
  8
Layer_1
 62
7
100
AcDbPolyline
 90
15
 70
0
 10
280.950168
 20
99.480959
 30
0.0
 10
280.959200
 20
99.405459
 30
0.0
 10
280.974129
 20
99.336061
 30
0.0
 10
280.996171
 20
99.272959
 30
0.0
 10
281.023264
 20
99.216060
 30
0.0
 10
281.056171
 20
99.165260
 30
0.0
 10
281.096162
 20
99.120759
 30
0.0
 10
281.142164
 20
99.082261
 30
0.0
 10
281.195166
 20
99.049761
 30
0.0
 10
281.256182
 20
99.023062
 30
0.0
 10
281.324169
 20
99.002344
 30
0.0
 10
281.399156
 20
98.987570
 30
0.0
 10
281.481170
 20
98.978754
 30
0.0
 10
281.570182
 20
98.975768
 30
0.0
 10
281.646157
 20
98.978948
 30
0.0
  0
LWPOLYLINE
  5
17d
100
AcDbEntity
  8
Layer_1
 62
7
100
AcDbPolyline
 90
7
 70
0
 10
283.045160
 20
99.057561
 30
0.0
 10
283.156158
 20
99.089862
 30
0.0
 10
283.247175
 20
99.143760
 30
0.0
 10
283.318182
 20
99.219159
 30
0.0
 10
283.369180
 20
99.316159
 30
0.0
 10
283.399180
 20
99.434661
 30
0.0
 10
283.409058
 20
99.574759
 30
0.0
  0
LWPOLYLINE
  5
17e
100
AcDbEntity
  8
Layer_1
 62
7
100
AcDbPolyline
 90
2
 70
0
 10
283.409171
 20
99.574759
 30
0.0
 10
283.406066
 20
99.645360
 30
0.0
  0
LWPOLYLINE
  5
17f
100
AcDbEntity
  8
Layer_1
 62
7
100
AcDbPolyline
 90
29
 70
0
 10
283.406179
 20
99.645360
 30
0.0
 10
283.399124
 20
99.711061
 30
0.0
 10
283.386198
 20
99.771761
 30
0.0
 10
283.368107
 20
99.827461
 30
0.0
 10
283.346150
 20
99.878159
 30
0.0
 10
283.318239
 20
99.923961
 30
0.0
 10
283.285162
 20
99.964759
 30
0.0
 10
283.247175
 20
100.000260
 30
0.0
 10
283.204164
 20
100.030361
 30
0.0
 10
283.156158
 20
100.054971
 30
0.0
 10
283.103157
 20
100.074151
 30
0.0
 10
283.045160
 20
100.087763
 30
0.0
 10
282.982168
 20
100.095973
 30
0.0
 10
282.914181
 20
100.098783
 30
0.0
 10
282.845178
 20
100.095939
 30
0.0
 10
282.781170
 20
100.087466
 30
0.0
 10
282.721169
 20
100.073350
 30
0.0
 10
282.667180
 20
100.053662
 30
0.0
 10
282.617170
 20
100.028372
 30
0.0
 10
282.572156
 20
99.997361
 30
0.0
 10
282.532165
 20
99.960760
 30
0.0
 10
282.497170
 20
99.918960
 30
0.0
 10
282.468157
 20
99.872560
 30
0.0
 10
282.444168
 20
99.821461
 30
0.0
 10
282.425259
 20
99.765761
 30
0.0
 10
282.412192
 20
99.705459
 30
0.0
 10
282.404262
 20
99.640460
 30
0.0
 10
282.401073
 20
99.570760
 30
0.0
 10
282.403980
 20
99.500060
 30
0.0
  0
LWPOLYLINE
  5
180
100
AcDbEntity
  8
Layer_1
 62
7
100
AcDbPolyline
 90
2
 70
0
 10
282.403161
 20
99.500060
 30
0.0
 10
282.411064
 20
99.434359
 30
0.0
  0
LWPOLYLINE
  5
181
100
AcDbEntity
  8
Layer_1
 62
7
100
AcDbPolyline
 90
2
 70
0
 10
282.411176
 20
99.434359
 30
0.0
 10
282.423312
 20
99.373760
 30
0.0
  0
LWPOLYLINE
  5
182
100
AcDbEntity
  8
Layer_1
 62
7
100
AcDbPolyline
 90
3
 70
0
 10
282.423171
 20
99.373760
 30
0.0
 10
282.440104
 20
99.317959
 30
0.0
 10
282.463303
 20
99.267261
 30
0.0
  0
LWPOLYLINE
  5
183
100
AcDbEntity
  8
Layer_1
 62
7
100
AcDbPolyline
 90
10
 70
0
 10
282.463162
 20
99.267261
 30
0.0
 10
282.490255
 20
99.221561
 30
0.0
 10
282.522174
 20
99.180760
 30
0.0
 10
282.560162
 20
99.145160
 30
0.0
 10
282.603172
 20
99.115160
 30
0.0
 10
282.653182
 20
99.090466
 30
0.0
 10
282.709175
 20
99.071353
 30
0.0
 10
282.771179
 20
99.057671
 30
0.0
 10
282.840182
 20
99.049476
 30
0.0
 10
282.914181
 20
99.046639
 30
0.0
  0
LWPOLYLINE
  5
184
100
AcDbEntity
  8
Layer_1
 62
7
100
AcDbPolyline
 90
2
 70
0
 10
282.914181
 20
99.046761
 30
0.0
 10
283.045160
 20
99.057570
 30
0.0
  0
LWPOLYLINE
  5
185
100
AcDbEntity
  8
Layer_1
 62
7
100
AcDbPolyline
 90
17
 70
0
 10
287.487169
 20
97.669959
 30
0.0
 10
287.487169
 20
98.927959
 30
0.0
 10
287.658167
 20
98.927959
 30
0.0
 10
287.702166
 20
98.907554
 30
0.0
 10
287.786155
 20
98.863260
 30
0.0
 10
287.863174
 20
98.814060
 30
0.0
 10
287.935168
 20
98.759961
 30
0.0
 10
288.034172
 20
98.673259
 30
0.0
 10
288.124173
 20
98.582861
 30
0.0
 10
288.207174
 20
98.489761
 30
0.0
 10
288.381164
 20
98.275961
 30
0.0
 10
288.476160
 20
98.166961
 30
0.0
 10
288.548155
 20
98.095460
 30
0.0
 10
288.597177
 20
98.054459
 30
0.0
 10
288.648175
 20
98.018761
 30
0.0
 10
288.701176
 20
97.988560
 30
0.0
 10
288.728269
 20
97.976453
 30
0.0
  0
LWPOLYLINE
  5
186
100
AcDbEntity
  8
Layer_1
 62
7
100
AcDbPolyline
 90
7
 70
0
 10
288.728156
 20
97.976461
 30
0.0
 10
288.757169
 20
97.966555
 30
0.0
 10
288.787169
 20
97.958856
 30
0.0
 10
288.817169
 20
97.953356
 30
0.0
 10
288.849173
 20
97.950059
 30
0.0
 10
288.881177
 20
97.948930
 30
0.0
 10
288.924160
 20
97.950655
 30
0.0
  0
LWPOLYLINE
  5
187
100
AcDbEntity
  8
Layer_1
 62
7
100
AcDbPolyline
 90
8
 70
0
 10
288.924160
 20
97.950759
 30
0.0
 10
288.964179
 20
97.956460
 30
0.0
 10
289.001178
 20
97.965858
 30
0.0
 10
289.036174
 20
97.978956
 30
0.0
 10
289.067162
 20
97.995864
 30
0.0
 10
289.096174
 20
98.016463
 30
0.0
 10
289.122139
 20
98.040957
 30
0.0
 10
289.145027
 20
98.068674
 30
0.0
  0
LWPOLYLINE
  5
188
100
AcDbEntity
  8
Layer_1
 62
7
100
AcDbPolyline
 90
4
 70
0
 10
289.145168
 20
98.068660
 30
0.0
 10
289.164077
 20
98.099262
 30
0.0
 10
289.180248
 20
98.132860
 30
0.0
 10
289.192299
 20
98.169261
 30
0.0
  0
LWPOLYLINE
  5
189
100
AcDbEntity
  8
Layer_1
 62
7
100
AcDbPolyline
 90
4
 70
0
 10
289.192158
 20
98.169261
 30
0.0
 10
289.201189
 20
98.208561
 30
0.0
 10
289.206241
 20
98.250761
 30
0.0
 10
289.208978
 20
98.295959
 30
0.0
  0
LWPOLYLINE
  5
18a
100
AcDbEntity
  8
Layer_1
 62
7
100
AcDbPolyline
 90
2
 70
0
 10
289.208160
 20
98.295959
 30
0.0
 10
289.205338
 20
98.339060
 30
0.0
  0
LWPOLYLINE
  5
18b
100
AcDbEntity
  8
Layer_1
 62
7
100
AcDbPolyline
 90
4
 70
0
 10
289.206156
 20
98.339060
 30
0.0
 10
289.201076
 20
98.380061
 30
0.0
 10
289.193259
 20
98.418861
 30
0.0
 10
289.181038
 20
98.455460
 30
0.0
  0
LWPOLYLINE
  5
18c
100
AcDbEntity
  8
Layer_1
 62
7
100
AcDbPolyline
 90
3
 70
0
 10
289.181180
 20
98.455460
 30
0.0
 10
289.165093
 20
98.489761
 30
0.0
 10
289.146269
 20
98.521960
 30
0.0
  0
LWPOLYLINE
  5
18d
100
AcDbEntity
  8
Layer_1
 62
7
100
AcDbPolyline
 90
3
 70
0
 10
289.146156
 20
98.521960
 30
0.0
 10
289.124142
 20
98.551861
 30
0.0
 10
289.099053
 20
98.578870
 30
0.0
  0
LWPOLYLINE
  5
18e
100
AcDbEntity
  8
Layer_1
 62
7
100
AcDbPolyline
 90
8
 70
0
 10
289.099166
 20
98.578859
 30
0.0
 10
289.070182
 20
98.602368
 30
0.0
 10
289.039165
 20
98.622566
 30
0.0
 10
289.006174
 20
98.639466
 30
0.0
 10
288.969174
 20
98.652951
 30
0.0
 10
288.930171
 20
98.663063
 30
0.0
 10
288.888176
 20
98.669974
 30
0.0
 10
288.911319
 20
98.916961
 30
0.0
  0
LWPOLYLINE
  5
18f
100
AcDbEntity
  8
Layer_1
 62
7
100
AcDbPolyline
 90
11
 70
0
 10
288.911178
 20
98.916961
 30
0.0
 10
288.974170
 20
98.906349
 30
0.0
 10
289.033182
 20
98.890161
 30
0.0
 10
289.088159
 20
98.868261
 30
0.0
 10
289.140173
 20
98.840659
 30
0.0
 10
289.188179
 20
98.807462
 30
0.0
 10
289.232177
 20
98.768461
 30
0.0
 10
289.272168
 20
98.723960
 30
0.0
 10
289.308180
 20
98.674261
 30
0.0
 10
289.338180
 20
98.620859
 30
0.0
 10
289.363015
 20
98.563461
 30
0.0
  0
LWPOLYLINE
  5
190
100
AcDbEntity
  8
Layer_1
 62
7
100
AcDbPolyline
 90
2
 70
0
 10
289.363156
 20
98.563461
 30
0.0
 10
289.382065
 20
98.502360
 30
0.0
  0
LWPOLYLINE
  5
191
100
AcDbEntity
  8
Layer_1
 62
7
100
AcDbPolyline
 90
2
 70
0
 10
289.382178
 20
98.502360
 30
0.0
 10
289.396289
 20
98.437361
 30
0.0
  0
LWPOLYLINE
  5
192
100
AcDbEntity
  8
Layer_1
 62
7
100
AcDbPolyline
 90
3
 70
0
 10
289.396176
 20
98.437361
 30
0.0
 10
289.404079
 20
98.368561
 30
0.0
 10
289.407268
 20
98.295959
 30
0.0
  0
LWPOLYLINE
  5
193
100
AcDbEntity
  8
Layer_1
 62
7
100
AcDbPolyline
 90
2
 70
0
 10
289.407155
 20
98.295959
 30
0.0
 10
289.404050
 20
98.216660
 30
0.0
  0
LWPOLYLINE
  5
194
100
AcDbEntity
  8
Layer_1
 62
7
100
AcDbPolyline
 90
3
 70
0
 10
289.404163
 20
98.216660
 30
0.0
 10
289.396261
 20
98.142760
 30
0.0
 10
289.382065
 20
98.074361
 30
0.0
  0
LWPOLYLINE
  5
195
100
AcDbEntity
  8
Layer_1
 62
7
100
AcDbPolyline
 90
2
 70
0
 10
289.382178
 20
98.074361
 30
0.0
 10
289.363269
 20
98.011361
 30
0.0
  0
LWPOLYLINE
  5
196
100
AcDbEntity
  8
Layer_1
 62
7
100
AcDbPolyline
 90
2
 70
0
 10
289.363156
 20
98.011361
 30
0.0
 10
289.338321
 20
97.953759
 30
0.0
  0
LWPOLYLINE
  5
197
100
AcDbEntity
  8
Layer_1
 62
7
100
AcDbPolyline
 90
11
 70
0
 10
289.338180
 20
97.953759
 30
0.0
 10
289.308180
 20
97.901661
 30
0.0
 10
289.272168
 20
97.854962
 30
0.0
 10
289.231161
 20
97.813760
 30
0.0
 10
289.186175
 20
97.778959
 30
0.0
 10
289.136165
 20
97.750559
 30
0.0
 10
289.081160
 20
97.728348
 30
0.0
 10
289.021160
 20
97.712555
 30
0.0
 10
288.958168
 20
97.703050
 30
0.0
 10
288.889164
 20
97.699957
 30
0.0
 10
288.858176
 20
97.701088
 30
0.0
  0
LWPOLYLINE
  5
198
100
AcDbEntity
  8
Layer_1
 62
7
100
AcDbPolyline
 90
21
 70
0
 10
288.858176
 20
97.700961
 30
0.0
 10
288.826172
 20
97.704066
 30
0.0
 10
288.795156
 20
97.709253
 30
0.0
 10
288.764168
 20
97.716571
 30
0.0
 10
288.732164
 20
97.725958
 30
0.0
 10
288.670160
 20
97.750965
 30
0.0
 10
288.608156
 20
97.783559
 30
0.0
 10
288.545164
 20
97.824360
 30
0.0
 10
288.483159
 20
97.873360
 30
0.0
 10
288.419180
 20
97.933160
 30
0.0
 10
288.337166
 20
98.020062
 30
0.0
 10
288.236158
 20
98.136659
 30
0.0
 10
288.080174
 20
98.325959
 30
0.0
 10
287.980155
 20
98.439461
 30
0.0
 10
287.918179
 20
98.502360
 30
0.0
 10
287.859166
 20
98.555161
 30
0.0
 10
287.803173
 20
98.599261
 30
0.0
 10
287.747180
 20
98.634860
 30
0.0
 10
287.693163
 20
98.661869
 30
0.0
 10
287.693163
 20
97.669959
 30
0.0
 10
287.487169
 20
97.669959
 30
0.0
  0
LWPOLYLINE
  5
199
100
AcDbEntity
  8
Layer_1
 62
7
100
AcDbPolyline
 90
10
 70
0
 10
280.737175
 20
96.882960
 30
0.0
 10
280.737175
 20
97.284960
 30
0.0
 10
283.617168
 20
98.441961
 30
0.0
 10
283.617168
 20
98.032959
 30
0.0
 10
281.587172
 20
97.250961
 30
0.0
 10
281.078156
 20
97.081961
 30
0.0
 10
281.587172
 20
96.912960
 30
0.0
 10
283.617168
 20
96.133959
 30
0.0
 10
283.617168
 20
95.725959
 30
0.0
 10
280.737175
 20
96.882960
 30
0.0
  0
LWPOLYLINE
  5
19a
100
AcDbEntity
  8
Layer_1
 62
7
100
AcDbPolyline
 90
12
 70
0
 10
287.936156
 20
96.117760
 30
0.0
 10
287.936156
 20
96.383760
 30
0.0
 10
287.487169
 20
96.383760
 30
0.0
 10
287.487169
 20
96.612760
 30
0.0
 10
287.936156
 20
96.612760
 30
0.0
 10
287.936156
 20
97.508760
 30
0.0
 10
288.125160
 20
97.508760
 30
0.0
 10
289.407155
 20
96.638759
 30
0.0
 10
289.407155
 20
96.383760
 30
0.0
 10
288.127164
 20
96.383760
 30
0.0
 10
288.127164
 20
96.117760
 30
0.0
 10
287.936156
 20
96.117760
 30
0.0
  0
LWPOLYLINE
  5
19b
100
AcDbEntity
  8
Layer_1
 62
7
100
AcDbPolyline
 90
7
 70
0
 10
289.016164
 20
96.677660
 30
0.0
 10
288.254164
 20
97.190760
 30
0.0
 10
288.154173
 20
97.263760
 30
0.0
 10
288.127080
 20
97.285773
 30
0.0
 10
288.127164
 20
96.612760
 30
0.0
 10
289.135177
 20
96.612760
 30
0.0
 10
289.016164
 20
96.677660
 30
0.0
  0
LWPOLYLINE
  5
19c
100
AcDbEntity
  8
Layer_1
 62
7
100
AcDbPolyline
 90
10
 70
0
 10
287.487169
 20
95.015659
 30
0.0
 10
287.487169
 20
95.281659
 30
0.0
 10
289.407155
 20
96.064659
 30
0.0
 10
289.407155
 20
95.794660
 30
0.0
 10
288.053166
 20
95.262660
 30
0.0
 10
287.713172
 20
95.147660
 30
0.0
 10
288.053166
 20
95.032660
 30
0.0
 10
289.407155
 20
94.502661
 30
0.0
 10
289.407155
 20
94.232659
 30
0.0
 10
287.487169
 20
95.015659
 30
0.0
  0
LWPOLYLINE
  5
19d
100
AcDbEntity
  8
Layer_1
 62
7
100
AcDbPolyline
 90
5
 70
0
 10
263.437168
 20
41.864759
 30
0.0
 10
263.437168
 20
81.864761
 30
0.0
 10
303.437155
 20
81.864761
 30
0.0
 10
303.437155
 20
41.864759
 30
0.0
 10
263.437168
 20
41.864759
 30
0.0
  0
LWPOLYLINE
  5
19e
100
AcDbEntity
  8
Layer_1
 62
7
100
AcDbPolyline
 90
61
 70
0
 10
299.714164
 20
75.229260
 30
0.0
 10
299.988174
 20
75.272660
 30
0.0
 10
300.256172
 20
75.344460
 30
0.0
 10
300.515168
 20
75.443861
 30
0.0
 10
300.762168
 20
75.569761
 30
0.0
 10
300.995171
 20
75.720860
 30
0.0
 10
301.210168
 20
75.895459
 30
0.0
 10
301.406171
 20
76.091561
 30
0.0
 10
301.581177
 20
76.307159
 30
0.0
 10
301.732166
 20
76.539761
 30
0.0
 10
301.858178
 20
76.786861
 30
0.0
 10
301.957182
 20
77.045859
 30
0.0
 10
302.029177
 20
77.313761
 30
0.0
 10
302.072159
 20
77.587760
 30
0.0
 10
302.087117
 20
77.864761
 30
0.0
 10
302.072216
 20
78.141759
 30
0.0
 10
302.029177
 20
78.415760
 30
0.0
 10
301.957182
 20
78.683660
 30
0.0
 10
301.858178
 20
78.942661
 30
0.0
 10
301.732166
 20
79.189760
 30
0.0
 10
301.581177
 20
79.422359
 30
0.0
 10
301.406171
 20
79.637960
 30
0.0
 10
301.210168
 20
79.834059
 30
0.0
 10
300.995171
 20
80.008659
 30
0.0
 10
300.762168
 20
80.159761
 30
0.0
 10
300.515168
 20
80.285660
 30
0.0
 10
300.256172
 20
80.385059
 30
0.0
 10
299.988174
 20
80.456859
 30
0.0
 10
299.714164
 20
80.500259
 30
0.0
 10
299.437163
 20
80.514765
 30
0.0
 10
299.160162
 20
80.500254
 30
0.0
 10
298.886181
 20
80.456859
 30
0.0
 10
298.618183
 20
80.385059
 30
0.0
 10
298.359159
 20
80.285660
 30
0.0
 10
298.112158
 20
80.159761
 30
0.0
 10
297.879156
 20
80.008659
 30
0.0
 10
297.664159
 20
79.834059
 30
0.0
 10
297.468155
 20
79.637960
 30
0.0
 10
297.293178
 20
79.422359
 30
0.0
 10
297.142160
 20
79.189760
 30
0.0
 10
297.016176
 20
78.942661
 30
0.0
 10
296.917173
 20
78.683660
 30
0.0
 10
296.845178
 20
78.415760
 30
0.0
 10
296.802167
 20
78.141759
 30
0.0
 10
296.787210
 20
77.864761
 30
0.0
 10
296.802139
 20
77.587760
 30
0.0
 10
296.845178
 20
77.313761
 30
0.0
 10
296.917173
 20
77.045859
 30
0.0
 10
297.016176
 20
76.786861
 30
0.0
 10
297.142160
 20
76.539761
 30
0.0
 10
297.293178
 20
76.307159
 30
0.0
 10
297.468155
 20
76.091561
 30
0.0
 10
297.664159
 20
75.895459
 30
0.0
 10
297.879156
 20
75.720860
 30
0.0
 10
298.112158
 20
75.569761
 30
0.0
 10
298.359159
 20
75.443861
 30
0.0
 10
298.618183
 20
75.344460
 30
0.0
 10
298.886181
 20
75.272660
 30
0.0
 10
299.160162
 20
75.229260
 30
0.0
 10
299.437163
 20
75.214753
 30
0.0
 10
299.714164
 20
75.229265
 30
0.0
  0
LWPOLYLINE
  5
19f
100
AcDbEntity
  8
Layer_1
 62
7
100
AcDbPolyline
 90
61
 70
0
 10
267.714169
 20
75.229260
 30
0.0
 10
267.988167
 20
75.272660
 30
0.0
 10
268.256169
 20
75.344460
 30
0.0
 10
268.515170
 20
75.443861
 30
0.0
 10
268.762176
 20
75.569761
 30
0.0
 10
268.995179
 20
75.720860
 30
0.0
 10
269.210176
 20
75.895459
 30
0.0
 10
269.406179
 20
76.091561
 30
0.0
 10
269.581157
 20
76.307159
 30
0.0
 10
269.732174
 20
76.539761
 30
0.0
 10
269.858158
 20
76.786861
 30
0.0
 10
269.957161
 20
77.045859
 30
0.0
 10
270.029156
 20
77.313761
 30
0.0
 10
270.072167
 20
77.587760
 30
0.0
 10
270.087125
 20
77.864761
 30
0.0
 10
270.072223
 20
78.141759
 30
0.0
 10
270.029156
 20
78.415760
 30
0.0
 10
269.957161
 20
78.683660
 30
0.0
 10
269.858158
 20
78.942661
 30
0.0
 10
269.732174
 20
79.189760
 30
0.0
 10
269.581157
 20
79.422359
 30
0.0
 10
269.406179
 20
79.637960
 30
0.0
 10
269.210176
 20
79.834059
 30
0.0
 10
268.995179
 20
80.008659
 30
0.0
 10
268.762176
 20
80.159761
 30
0.0
 10
268.515170
 20
80.285660
 30
0.0
 10
268.256169
 20
80.385059
 30
0.0
 10
267.988167
 20
80.456859
 30
0.0
 10
267.714169
 20
80.500259
 30
0.0
 10
267.437168
 20
80.514765
 30
0.0
 10
267.160170
 20
80.500254
 30
0.0
 10
266.886169
 20
80.456859
 30
0.0
 10
266.618168
 20
80.385059
 30
0.0
 10
266.359170
 20
80.285660
 30
0.0
 10
266.112169
 20
80.159761
 30
0.0
 10
265.879169
 20
80.008659
 30
0.0
 10
265.664169
 20
79.834059
 30
0.0
 10
265.468169
 20
79.637960
 30
0.0
 10
265.293168
 20
79.422359
 30
0.0
 10
265.142168
 20
79.189760
 30
0.0
 10
265.016170
 20
78.942661
 30
0.0
 10
264.917169
 20
78.683660
 30
0.0
 10
264.845169
 20
78.415760
 30
0.0
 10
264.802169
 20
78.141759
 30
0.0
 10
264.787183
 20
77.864761
 30
0.0
 10
264.802155
 20
77.587760
 30
0.0
 10
264.845169
 20
77.313761
 30
0.0
 10
264.917169
 20
77.045859
 30
0.0
 10
265.016170
 20
76.786861
 30
0.0
 10
265.142168
 20
76.539761
 30
0.0
 10
265.293168
 20
76.307159
 30
0.0
 10
265.468169
 20
76.091561
 30
0.0
 10
265.664169
 20
75.895459
 30
0.0
 10
265.879169
 20
75.720860
 30
0.0
 10
266.112169
 20
75.569761
 30
0.0
 10
266.359170
 20
75.443861
 30
0.0
 10
266.618168
 20
75.344460
 30
0.0
 10
266.886169
 20
75.272660
 30
0.0
 10
267.160170
 20
75.229260
 30
0.0
 10
267.437168
 20
75.214753
 30
0.0
 10
267.714169
 20
75.229265
 30
0.0
  0
LWPOLYLINE
  5
1a0
100
AcDbEntity
  8
Layer_1
 62
7
100
AcDbPolyline
 90
61
 70
0
 10
285.319166
 20
43.963361
 30
0.0
 10
287.179180
 20
44.258159
 30
0.0
 10
288.999174
 20
44.745760
 30
0.0
 10
290.758181
 20
45.420960
 30
0.0
 10
292.437177
 20
46.276260
 30
0.0
 10
294.017170
 20
47.302459
 30
0.0
 10
295.481170
 20
48.488159
 30
0.0
 10
296.814162
 20
49.820460
 30
0.0
 10
297.999156
 20
51.284660
 30
0.0
 10
299.025175
 20
52.864760
 30
0.0
 10
299.881155
 20
54.543460
 30
0.0
 10
300.556174
 20
56.302461
 30
0.0
 10
301.044165
 20
58.122360
 30
0.0
 10
301.338156
 20
59.983260
 30
0.0
 10
301.437159
 20
61.864759
 30
0.0
 10
301.338156
 20
63.746261
 30
0.0
 10
301.044165
 20
65.607161
 30
0.0
 10
300.556174
 20
67.427060
 30
0.0
 10
299.881155
 20
69.186061
 30
0.0
 10
299.025175
 20
70.864761
 30
0.0
 10
297.999156
 20
72.444861
 30
0.0
 10
296.814162
 20
73.909061
 30
0.0
 10
295.481170
 20
75.241361
 30
0.0
 10
294.017170
 20
76.427059
 30
0.0
 10
292.437177
 20
77.453261
 30
0.0
 10
290.758181
 20
78.308561
 30
0.0
 10
288.999174
 20
78.983761
 30
0.0
 10
287.179180
 20
79.471362
 30
0.0
 10
285.319166
 20
79.766160
 30
0.0
 10
283.437167
 20
79.864760
 30
0.0
 10
281.555168
 20
79.766160
 30
0.0
 10
279.695183
 20
79.471362
 30
0.0
 10
277.875160
 20
78.983761
 30
0.0
 10
276.116182
 20
78.308561
 30
0.0
 10
274.437157
 20
77.453261
 30
0.0
 10
272.857164
 20
76.427059
 30
0.0
 10
271.393164
 20
75.241361
 30
0.0
 10
270.060172
 20
73.909061
 30
0.0
 10
268.875178
 20
72.444861
 30
0.0
 10
267.849167
 20
70.864761
 30
0.0
 10
266.993168
 20
69.186061
 30
0.0
 10
266.318168
 20
67.427060
 30
0.0
 10
265.830169
 20
65.607161
 30
0.0
 10
265.536167
 20
63.746261
 30
0.0
 10
265.437169
 20
61.864759
 30
0.0
 10
265.536167
 20
59.983260
 30
0.0
 10
265.830169
 20
58.122360
 30
0.0
 10
266.318168
 20
56.302461
 30
0.0
 10
266.993168
 20
54.543460
 30
0.0
 10
267.849167
 20
52.864760
 30
0.0
 10
268.875178
 20
51.284660
 30
0.0
 10
270.060172
 20
49.820460
 30
0.0
 10
271.393164
 20
48.488159
 30
0.0
 10
272.857164
 20
47.302459
 30
0.0
 10
274.437157
 20
46.276260
 30
0.0
 10
276.116182
 20
45.420960
 30
0.0
 10
277.875160
 20
44.745760
 30
0.0
 10
279.695183
 20
44.258159
 30
0.0
 10
281.555168
 20
43.963361
 30
0.0
 10
283.437167
 20
43.864761
 30
0.0
 10
285.319166
 20
43.963361
 30
0.0
  0
LWPOLYLINE
  5
1a1
100
AcDbEntity
  8
Layer_1
 62
7
100
AcDbPolyline
 90
61
 70
0
 10
299.714164
 20
43.229259
 30
0.0
 10
299.988174
 20
43.272659
 30
0.0
 10
300.256172
 20
43.344459
 30
0.0
 10
300.515168
 20
43.443860
 30
0.0
 10
300.762168
 20
43.569760
 30
0.0
 10
300.995171
 20
43.720859
 30
0.0
 10
301.210168
 20
43.895461
 30
0.0
 10
301.406171
 20
44.091560
 30
0.0
 10
301.581177
 20
44.307161
 30
0.0
 10
301.732166
 20
44.539760
 30
0.0
 10
301.858178
 20
44.786860
 30
0.0
 10
301.957182
 20
45.045861
 30
0.0
 10
302.029177
 20
45.313761
 30
0.0
 10
302.072159
 20
45.587759
 30
0.0
 10
302.087117
 20
45.864760
 30
0.0
 10
302.072216
 20
46.141761
 30
0.0
 10
302.029177
 20
46.415759
 30
0.0
 10
301.957182
 20
46.683659
 30
0.0
 10
301.858178
 20
46.942660
 30
0.0
 10
301.732166
 20
47.189759
 30
0.0
 10
301.581177
 20
47.422361
 30
0.0
 10
301.406171
 20
47.637959
 30
0.0
 10
301.210168
 20
47.834061
 30
0.0
 10
300.995171
 20
48.008661
 30
0.0
 10
300.762168
 20
48.159760
 30
0.0
 10
300.515168
 20
48.285659
 30
0.0
 10
300.256172
 20
48.385061
 30
0.0
 10
299.988174
 20
48.456861
 30
0.0
 10
299.714164
 20
48.500261
 30
0.0
 10
299.437163
 20
48.514767
 30
0.0
 10
299.160162
 20
48.500253
 30
0.0
 10
298.886181
 20
48.456861
 30
0.0
 10
298.618183
 20
48.385061
 30
0.0
 10
298.359159
 20
48.285659
 30
0.0
 10
298.112158
 20
48.159760
 30
0.0
 10
297.879156
 20
48.008661
 30
0.0
 10
297.664159
 20
47.834061
 30
0.0
 10
297.468155
 20
47.637959
 30
0.0
 10
297.293178
 20
47.422361
 30
0.0
 10
297.142160
 20
47.189759
 30
0.0
 10
297.016176
 20
46.942660
 30
0.0
 10
296.917173
 20
46.683659
 30
0.0
 10
296.845178
 20
46.415759
 30
0.0
 10
296.802167
 20
46.141761
 30
0.0
 10
296.787210
 20
45.864760
 30
0.0
 10
296.802139
 20
45.587759
 30
0.0
 10
296.845178
 20
45.313761
 30
0.0
 10
296.917173
 20
45.045861
 30
0.0
 10
297.016176
 20
44.786860
 30
0.0
 10
297.142160
 20
44.539760
 30
0.0
 10
297.293178
 20
44.307161
 30
0.0
 10
297.468155
 20
44.091560
 30
0.0
 10
297.664159
 20
43.895461
 30
0.0
 10
297.879156
 20
43.720859
 30
0.0
 10
298.112158
 20
43.569760
 30
0.0
 10
298.359159
 20
43.443860
 30
0.0
 10
298.618183
 20
43.344459
 30
0.0
 10
298.886181
 20
43.272659
 30
0.0
 10
299.160162
 20
43.229259
 30
0.0
 10
299.437163
 20
43.214752
 30
0.0
 10
299.714164
 20
43.229267
 30
0.0
  0
LWPOLYLINE
  5
1a2
100
AcDbEntity
  8
Layer_1
 62
7
100
AcDbPolyline
 90
61
 70
0
 10
267.714169
 20
43.229259
 30
0.0
 10
267.988167
 20
43.272659
 30
0.0
 10
268.256169
 20
43.344459
 30
0.0
 10
268.515170
 20
43.443860
 30
0.0
 10
268.762176
 20
43.569760
 30
0.0
 10
268.995179
 20
43.720859
 30
0.0
 10
269.210176
 20
43.895461
 30
0.0
 10
269.406179
 20
44.091560
 30
0.0
 10
269.581157
 20
44.307161
 30
0.0
 10
269.732174
 20
44.539760
 30
0.0
 10
269.858158
 20
44.786860
 30
0.0
 10
269.957161
 20
45.045861
 30
0.0
 10
270.029156
 20
45.313761
 30
0.0
 10
270.072167
 20
45.587759
 30
0.0
 10
270.087125
 20
45.864760
 30
0.0
 10
270.072223
 20
46.141761
 30
0.0
 10
270.029156
 20
46.415759
 30
0.0
 10
269.957161
 20
46.683659
 30
0.0
 10
269.858158
 20
46.942660
 30
0.0
 10
269.732174
 20
47.189759
 30
0.0
 10
269.581157
 20
47.422361
 30
0.0
 10
269.406179
 20
47.637959
 30
0.0
 10
269.210176
 20
47.834061
 30
0.0
 10
268.995179
 20
48.008661
 30
0.0
 10
268.762176
 20
48.159760
 30
0.0
 10
268.515170
 20
48.285659
 30
0.0
 10
268.256169
 20
48.385061
 30
0.0
 10
267.988167
 20
48.456861
 30
0.0
 10
267.714169
 20
48.500261
 30
0.0
 10
267.437168
 20
48.514767
 30
0.0
 10
267.160170
 20
48.500253
 30
0.0
 10
266.886169
 20
48.456861
 30
0.0
 10
266.618168
 20
48.385061
 30
0.0
 10
266.359170
 20
48.285659
 30
0.0
 10
266.112169
 20
48.159760
 30
0.0
 10
265.879169
 20
48.008661
 30
0.0
 10
265.664169
 20
47.834061
 30
0.0
 10
265.468169
 20
47.637959
 30
0.0
 10
265.293168
 20
47.422361
 30
0.0
 10
265.142168
 20
47.189759
 30
0.0
 10
265.016170
 20
46.942660
 30
0.0
 10
264.917169
 20
46.683659
 30
0.0
 10
264.845169
 20
46.415759
 30
0.0
 10
264.802169
 20
46.141761
 30
0.0
 10
264.787183
 20
45.864760
 30
0.0
 10
264.802155
 20
45.587759
 30
0.0
 10
264.845169
 20
45.313761
 30
0.0
 10
264.917169
 20
45.045861
 30
0.0
 10
265.016170
 20
44.786860
 30
0.0
 10
265.142168
 20
44.539760
 30
0.0
 10
265.293168
 20
44.307161
 30
0.0
 10
265.468169
 20
44.091560
 30
0.0
 10
265.664169
 20
43.895461
 30
0.0
 10
265.879169
 20
43.720859
 30
0.0
 10
266.112169
 20
43.569760
 30
0.0
 10
266.359170
 20
43.443860
 30
0.0
 10
266.618168
 20
43.344459
 30
0.0
 10
266.886169
 20
43.272659
 30
0.0
 10
267.160170
 20
43.229259
 30
0.0
 10
267.437168
 20
43.214752
 30
0.0
 10
267.714169
 20
43.229267
 30
0.0
  0
LWPOLYLINE
  5
1a3
100
AcDbEntity
  8
Layer_1
 62
7
100
AcDbPolyline
 90
45
 70
0
 10
43.255368
 20
-47.135252
 30
0.0
 10
64.164468
 20
-47.135252
 30
0.0
 10
64.164468
 20
-50.235237
 30
0.0
 10
85.073567
 20
-50.235237
 30
0.0
 10
85.073567
 20
-47.135252
 30
0.0
 10
105.982170
 20
-47.135252
 30
0.0
 10
105.982170
 20
-50.235237
 30
0.0
 10
126.892169
 20
-50.235237
 30
0.0
 10
126.892169
 20
-47.135252
 30
0.0
 10
147.801167
 20
-47.135252
 30
0.0
 10
147.801167
 20
-50.235237
 30
0.0
 10
168.710168
 20
-50.235237
 30
0.0
 10
168.710168
 20
-47.135252
 30
0.0
 10
189.619168
 20
-47.135252
 30
0.0
 10
189.619168
 20
-50.235237
 30
0.0
 10
210.528169
 20
-50.235237
 30
0.0
 10
210.528169
 20
-47.135252
 30
0.0
 10
231.437170
 20
-47.135252
 30
0.0
 10
231.437170
 20
6.864753
 30
0.0
 10
210.528169
 20
6.864753
 30
0.0
 10
210.528169
 20
9.964739
 30
0.0
 10
189.619168
 20
9.964739
 30
0.0
 10
189.619168
 20
6.864753
 30
0.0
 10
168.710168
 20
6.864753
 30
0.0
 10
168.710168
 20
9.964739
 30
0.0
 10
147.801167
 20
9.964739
 30
0.0
 10
147.801167
 20
6.864753
 30
0.0
 10
126.892169
 20
6.864753
 30
0.0
 10
126.892169
 20
9.964739
 30
0.0
 10
105.982170
 20
9.964739
 30
0.0
 10
105.982170
 20
6.864753
 30
0.0
 10
85.073567
 20
6.864753
 30
0.0
 10
85.073567
 20
9.964739
 30
0.0
 10
64.164468
 20
9.964739
 30
0.0
 10
64.164468
 20
6.864753
 30
0.0
 10
43.255368
 20
6.864753
 30
0.0
 10
43.255368
 20
9.964739
 30
0.0
 10
22.346269
 20
9.964739
 30
0.0
 10
22.346269
 20
6.864753
 30
0.0
 10
1.437168
 20
6.864753
 30
0.0
 10
1.437168
 20
-47.135252
 30
0.0
 10
22.346269
 20
-47.135252
 30
0.0
 10
22.346269
 20
-50.235237
 30
0.0
 10
43.255368
 20
-50.235237
 30
0.0
 10
43.255368
 20
-47.135252
 30
0.0
  0
LWPOLYLINE
  5
1a4
100
AcDbEntity
  8
Layer_1
 62
7
100
AcDbPolyline
 90
51
 70
0
 10
21.519369
 20
-6.127347
 30
0.0
 10
21.020967
 20
-6.064439
 30
0.0
 10
20.534470
 20
-5.939443
 30
0.0
 10
20.067370
 20
-5.754531
 30
0.0
 10
19.627168
 20
-5.512554
 30
0.0
 10
19.220768
 20
-5.217349
 30
0.0
 10
18.854568
 20
-4.873433
 30
0.0
 10
18.534468
 20
-4.486450
 30
0.0
 10
18.265268
 20
-4.062242
 30
0.0
 10
18.051369
 20
-3.607751
 30
0.0
 10
17.896169
 20
-3.130034
 30
0.0
 10
17.802068
 20
-2.636540
 30
0.0
 10
17.770467
 20
-2.135229
 30
0.0
 10
17.802068
 20
-1.633946
 30
0.0
 10
17.896169
 20
-1.140452
 30
0.0
 10
18.051369
 20
-0.662734
 30
0.0
 10
18.265268
 20
-0.208244
 30
0.0
 10
18.534468
 20
0.215852
 30
0.0
 10
18.854568
 20
0.602948
 30
0.0
 10
19.220768
 20
0.946751
 30
0.0
 10
19.627168
 20
1.242068
 30
0.0
 10
20.067370
 20
1.484074
 30
0.0
 10
20.534470
 20
1.668957
 30
0.0
 10
21.020967
 20
1.793869
 30
0.0
 10
21.519369
 20
1.856861
 30
0.0
 10
22.021668
 20
1.856861
 30
0.0
 10
22.519968
 20
1.793869
 30
0.0
 10
23.006567
 20
1.668957
 30
0.0
 10
23.473569
 20
1.484074
 30
0.0
 10
23.913768
 20
1.242068
 30
0.0
 10
24.320168
 20
0.946751
 30
0.0
 10
24.686368
 20
0.602948
 30
0.0
 10
25.006569
 20
0.215852
 30
0.0
 10
25.275668
 20
-0.208244
 30
0.0
 10
25.489570
 20
-0.662734
 30
0.0
 10
25.644868
 20
-1.140452
 30
0.0
 10
25.738969
 20
-1.633946
 30
0.0
 10
25.770468
 20
-2.135229
 30
0.0
 10
25.738969
 20
-2.636540
 30
0.0
 10
25.644868
 20
-3.130034
 30
0.0
 10
25.489570
 20
-3.607751
 30
0.0
 10
25.275668
 20
-4.062242
 30
0.0
 10
25.006569
 20
-4.486450
 30
0.0
 10
24.686368
 20
-4.873433
 30
0.0
 10
24.320168
 20
-5.217349
 30
0.0
 10
23.913768
 20
-5.512554
 30
0.0
 10
23.473569
 20
-5.754531
 30
0.0
 10
23.006567
 20
-5.939443
 30
0.0
 10
22.519968
 20
-6.064439
 30
0.0
 10
22.021668
 20
-6.127347
 30
0.0
 10
21.519369
 20
-6.127347
 30
0.0
  0
LWPOLYLINE
  5
1a5
100
AcDbEntity
  8
Layer_1
 62
7
100
AcDbPolyline
 90
51
 70
0
 10
9.519369
 20
-6.127347
 30
0.0
 10
9.020969
 20
-6.064439
 30
0.0
 10
8.534469
 20
-5.939443
 30
0.0
 10
8.067369
 20
-5.754531
 30
0.0
 10
7.627168
 20
-5.512554
 30
0.0
 10
7.220768
 20
-5.217349
 30
0.0
 10
6.854668
 20
-4.873433
 30
0.0
 10
6.534469
 20
-4.486450
 30
0.0
 10
6.265268
 20
-4.062242
 30
0.0
 10
6.051369
 20
-3.607751
 30
0.0
 10
5.896169
 20
-3.130034
 30
0.0
 10
5.802068
 20
-2.636540
 30
0.0
 10
5.770469
 20
-2.135229
 30
0.0
 10
5.802068
 20
-1.633946
 30
0.0
 10
5.896169
 20
-1.140452
 30
0.0
 10
6.051369
 20
-0.662734
 30
0.0
 10
6.265268
 20
-0.208244
 30
0.0
 10
6.534469
 20
0.215852
 30
0.0
 10
6.854668
 20
0.602948
 30
0.0
 10
7.220768
 20
0.946751
 30
0.0
 10
7.627168
 20
1.242068
 30
0.0
 10
8.067369
 20
1.484074
 30
0.0
 10
8.534469
 20
1.668957
 30
0.0
 10
9.020969
 20
1.793869
 30
0.0
 10
9.519369
 20
1.856861
 30
0.0
 10
10.021668
 20
1.856861
 30
0.0
 10
10.519969
 20
1.793869
 30
0.0
 10
11.006568
 20
1.668957
 30
0.0
 10
11.473569
 20
1.484074
 30
0.0
 10
11.913768
 20
1.242068
 30
0.0
 10
12.320168
 20
0.946751
 30
0.0
 10
12.686368
 20
0.602948
 30
0.0
 10
13.006568
 20
0.215852
 30
0.0
 10
13.275668
 20
-0.208244
 30
0.0
 10
13.489569
 20
-0.662734
 30
0.0
 10
13.644868
 20
-1.140452
 30
0.0
 10
13.738968
 20
-1.633946
 30
0.0
 10
13.770469
 20
-2.135229
 30
0.0
 10
13.738968
 20
-2.636540
 30
0.0
 10
13.644868
 20
-3.130034
 30
0.0
 10
13.489569
 20
-3.607751
 30
0.0
 10
13.275668
 20
-4.062242
 30
0.0
 10
13.006568
 20
-4.486450
 30
0.0
 10
12.686368
 20
-4.873433
 30
0.0
 10
12.320168
 20
-5.217349
 30
0.0
 10
11.913768
 20
-5.512554
 30
0.0
 10
11.473569
 20
-5.754531
 30
0.0
 10
11.006568
 20
-5.939443
 30
0.0
 10
10.519969
 20
-6.064439
 30
0.0
 10
10.021668
 20
-6.127347
 30
0.0
 10
9.519369
 20
-6.127347
 30
0.0
  0
LWPOLYLINE
  5
1a6
100
AcDbEntity
  8
Layer_1
 62
7
100
AcDbPolyline
 90
51
 70
0
 10
33.519368
 20
-6.127347
 30
0.0
 10
33.020969
 20
-6.064439
 30
0.0
 10
32.534469
 20
-5.939443
 30
0.0
 10
32.067368
 20
-5.754531
 30
0.0
 10
31.627169
 20
-5.512554
 30
0.0
 10
31.220769
 20
-5.217349
 30
0.0
 10
30.854569
 20
-4.873433
 30
0.0
 10
30.534470
 20
-4.486450
 30
0.0
 10
30.265269
 20
-4.062242
 30
0.0
 10
30.051367
 20
-3.607751
 30
0.0
 10
29.896168
 20
-3.130034
 30
0.0
 10
29.802069
 20
-2.636540
 30
0.0
 10
29.770469
 20
-2.135229
 30
0.0
 10
29.802069
 20
-1.633946
 30
0.0
 10
29.896168
 20
-1.140452
 30
0.0
 10
30.051367
 20
-0.662734
 30
0.0
 10
30.265269
 20
-0.208244
 30
0.0
 10
30.534470
 20
0.215852
 30
0.0
 10
30.854569
 20
0.602948
 30
0.0
 10
31.220769
 20
0.946751
 30
0.0
 10
31.627169
 20
1.242068
 30
0.0
 10
32.067368
 20
1.484074
 30
0.0
 10
32.534469
 20
1.668957
 30
0.0
 10
33.020969
 20
1.793869
 30
0.0
 10
33.519368
 20
1.856861
 30
0.0
 10
34.021670
 20
1.856861
 30
0.0
 10
34.519970
 20
1.793869
 30
0.0
 10
35.006569
 20
1.668957
 30
0.0
 10
35.473567
 20
1.484074
 30
0.0
 10
35.913769
 20
1.242068
 30
0.0
 10
36.320169
 20
0.946751
 30
0.0
 10
36.686369
 20
0.602948
 30
0.0
 10
37.006568
 20
0.215852
 30
0.0
 10
37.275669
 20
-0.208244
 30
0.0
 10
37.489568
 20
-0.662734
 30
0.0
 10
37.644870
 20
-1.140452
 30
0.0
 10
37.738968
 20
-1.633946
 30
0.0
 10
37.770470
 20
-2.135229
 30
0.0
 10
37.738968
 20
-2.636540
 30
0.0
 10
37.644870
 20
-3.130034
 30
0.0
 10
37.489568
 20
-3.607751
 30
0.0
 10
37.275669
 20
-4.062242
 30
0.0
 10
37.006568
 20
-4.486450
 30
0.0
 10
36.686369
 20
-4.873433
 30
0.0
 10
36.320169
 20
-5.217349
 30
0.0
 10
35.913769
 20
-5.512554
 30
0.0
 10
35.473567
 20
-5.754531
 30
0.0
 10
35.006569
 20
-5.939443
 30
0.0
 10
34.519970
 20
-6.064439
 30
0.0
 10
34.021670
 20
-6.127347
 30
0.0
 10
33.519368
 20
-6.127347
 30
0.0
  0
LWPOLYLINE
  5
1a7
100
AcDbEntity
  8
Layer_1
 62
7
100
AcDbPolyline
 90
51
 70
0
 10
45.519369
 20
-6.127347
 30
0.0
 10
45.020967
 20
-6.064439
 30
0.0
 10
44.534467
 20
-5.939443
 30
0.0
 10
44.067370
 20
-5.754531
 30
0.0
 10
43.627168
 20
-5.512554
 30
0.0
 10
43.220768
 20
-5.217349
 30
0.0
 10
42.854568
 20
-4.873433
 30
0.0
 10
42.534468
 20
-4.486450
 30
0.0
 10
42.265268
 20
-4.062242
 30
0.0
 10
42.051369
 20
-3.607751
 30
0.0
 10
41.896169
 20
-3.130034
 30
0.0
 10
41.802068
 20
-2.636540
 30
0.0
 10
41.770467
 20
-2.135229
 30
0.0
 10
41.802068
 20
-1.633946
 30
0.0
 10
41.896169
 20
-1.140452
 30
0.0
 10
42.051369
 20
-0.662734
 30
0.0
 10
42.265268
 20
-0.208244
 30
0.0
 10
42.534468
 20
0.215852
 30
0.0
 10
42.854568
 20
0.602948
 30
0.0
 10
43.220768
 20
0.946751
 30
0.0
 10
43.627168
 20
1.242068
 30
0.0
 10
44.067370
 20
1.484074
 30
0.0
 10
44.534467
 20
1.668957
 30
0.0
 10
45.020967
 20
1.793869
 30
0.0
 10
45.519369
 20
1.856861
 30
0.0
 10
46.021668
 20
1.856861
 30
0.0
 10
46.519968
 20
1.793869
 30
0.0
 10
47.006567
 20
1.668957
 30
0.0
 10
47.473569
 20
1.484074
 30
0.0
 10
47.913768
 20
1.242068
 30
0.0
 10
48.320168
 20
0.946751
 30
0.0
 10
48.686368
 20
0.602948
 30
0.0
 10
49.006569
 20
0.215852
 30
0.0
 10
49.275668
 20
-0.208244
 30
0.0
 10
49.489570
 20
-0.662734
 30
0.0
 10
49.644868
 20
-1.140452
 30
0.0
 10
49.738969
 20
-1.633946
 30
0.0
 10
49.770468
 20
-2.135229
 30
0.0
 10
49.738969
 20
-2.636540
 30
0.0
 10
49.644868
 20
-3.130034
 30
0.0
 10
49.489570
 20
-3.607751
 30
0.0
 10
49.275668
 20
-4.062242
 30
0.0
 10
49.006569
 20
-4.486450
 30
0.0
 10
48.686368
 20
-4.873433
 30
0.0
 10
48.320168
 20
-5.217349
 30
0.0
 10
47.913768
 20
-5.512554
 30
0.0
 10
47.473569
 20
-5.754531
 30
0.0
 10
47.006567
 20
-5.939443
 30
0.0
 10
46.519968
 20
-6.064439
 30
0.0
 10
46.021668
 20
-6.127347
 30
0.0
 10
45.519369
 20
-6.127347
 30
0.0
  0
LWPOLYLINE
  5
1a8
100
AcDbEntity
  8
Layer_1
 62
7
100
AcDbPolyline
 90
51
 70
0
 10
57.519368
 20
-6.127347
 30
0.0
 10
57.020969
 20
-6.064439
 30
0.0
 10
56.534469
 20
-5.939443
 30
0.0
 10
56.067368
 20
-5.754531
 30
0.0
 10
55.627169
 20
-5.512554
 30
0.0
 10
55.220769
 20
-5.217349
 30
0.0
 10
54.854569
 20
-4.873433
 30
0.0
 10
54.534470
 20
-4.486450
 30
0.0
 10
54.265269
 20
-4.062242
 30
0.0
 10
54.051367
 20
-3.607751
 30
0.0
 10
53.896168
 20
-3.130034
 30
0.0
 10
53.802069
 20
-2.636540
 30
0.0
 10
53.770469
 20
-2.135229
 30
0.0
 10
53.802069
 20
-1.633946
 30
0.0
 10
53.896168
 20
-1.140452
 30
0.0
 10
54.051367
 20
-0.662734
 30
0.0
 10
54.265269
 20
-0.208244
 30
0.0
 10
54.534470
 20
0.215852
 30
0.0
 10
54.854569
 20
0.602948
 30
0.0
 10
55.220769
 20
0.946751
 30
0.0
 10
55.627169
 20
1.242068
 30
0.0
 10
56.067368
 20
1.484074
 30
0.0
 10
56.534469
 20
1.668957
 30
0.0
 10
57.020969
 20
1.793869
 30
0.0
 10
57.519368
 20
1.856861
 30
0.0
 10
58.021670
 20
1.856861
 30
0.0
 10
58.519970
 20
1.793869
 30
0.0
 10
59.006569
 20
1.668957
 30
0.0
 10
59.473567
 20
1.484074
 30
0.0
 10
59.913769
 20
1.242068
 30
0.0
 10
60.320169
 20
0.946751
 30
0.0
 10
60.686369
 20
0.602948
 30
0.0
 10
61.006568
 20
0.215852
 30
0.0
 10
61.275669
 20
-0.208244
 30
0.0
 10
61.489568
 20
-0.662734
 30
0.0
 10
61.644870
 20
-1.140452
 30
0.0
 10
61.738968
 20
-1.633946
 30
0.0
 10
61.770470
 20
-2.135229
 30
0.0
 10
61.738968
 20
-2.636540
 30
0.0
 10
61.644870
 20
-3.130034
 30
0.0
 10
61.489568
 20
-3.607751
 30
0.0
 10
61.275669
 20
-4.062242
 30
0.0
 10
61.006568
 20
-4.486450
 30
0.0
 10
60.686369
 20
-4.873433
 30
0.0
 10
60.320169
 20
-5.217349
 30
0.0
 10
59.913769
 20
-5.512554
 30
0.0
 10
59.473567
 20
-5.754531
 30
0.0
 10
59.006569
 20
-5.939443
 30
0.0
 10
58.519970
 20
-6.064439
 30
0.0
 10
58.021670
 20
-6.127347
 30
0.0
 10
57.519368
 20
-6.127347
 30
0.0
  0
LWPOLYLINE
  5
1a9
100
AcDbEntity
  8
Layer_1
 62
7
100
AcDbPolyline
 90
51
 70
0
 10
69.519369
 20
-6.127347
 30
0.0
 10
69.020967
 20
-6.064439
 30
0.0
 10
68.534467
 20
-5.939443
 30
0.0
 10
68.067370
 20
-5.754531
 30
0.0
 10
67.627168
 20
-5.512554
 30
0.0
 10
67.220768
 20
-5.217349
 30
0.0
 10
66.854568
 20
-4.873433
 30
0.0
 10
66.534468
 20
-4.486450
 30
0.0
 10
66.265268
 20
-4.062242
 30
0.0
 10
66.051369
 20
-3.607751
 30
0.0
 10
65.896169
 20
-3.130034
 30
0.0
 10
65.802068
 20
-2.636540
 30
0.0
 10
65.770467
 20
-2.135229
 30
0.0
 10
65.802068
 20
-1.633946
 30
0.0
 10
65.896169
 20
-1.140452
 30
0.0
 10
66.051369
 20
-0.662734
 30
0.0
 10
66.265268
 20
-0.208244
 30
0.0
 10
66.534468
 20
0.215852
 30
0.0
 10
66.854568
 20
0.602948
 30
0.0
 10
67.220768
 20
0.946751
 30
0.0
 10
67.627168
 20
1.242068
 30
0.0
 10
68.067370
 20
1.484074
 30
0.0
 10
68.534467
 20
1.668957
 30
0.0
 10
69.020967
 20
1.793869
 30
0.0
 10
69.519369
 20
1.856861
 30
0.0
 10
70.021668
 20
1.856861
 30
0.0
 10
70.519968
 20
1.793869
 30
0.0
 10
71.006567
 20
1.668957
 30
0.0
 10
71.473569
 20
1.484074
 30
0.0
 10
71.913768
 20
1.242068
 30
0.0
 10
72.320168
 20
0.946751
 30
0.0
 10
72.686368
 20
0.602948
 30
0.0
 10
73.006569
 20
0.215852
 30
0.0
 10
73.275668
 20
-0.208244
 30
0.0
 10
73.489570
 20
-0.662734
 30
0.0
 10
73.644868
 20
-1.140452
 30
0.0
 10
73.738969
 20
-1.633946
 30
0.0
 10
73.770468
 20
-2.135229
 30
0.0
 10
73.738969
 20
-2.636540
 30
0.0
 10
73.644868
 20
-3.130034
 30
0.0
 10
73.489570
 20
-3.607751
 30
0.0
 10
73.275668
 20
-4.062242
 30
0.0
 10
73.006569
 20
-4.486450
 30
0.0
 10
72.686368
 20
-4.873433
 30
0.0
 10
72.320168
 20
-5.217349
 30
0.0
 10
71.913768
 20
-5.512554
 30
0.0
 10
71.473569
 20
-5.754531
 30
0.0
 10
71.006567
 20
-5.939443
 30
0.0
 10
70.519968
 20
-6.064439
 30
0.0
 10
70.021668
 20
-6.127347
 30
0.0
 10
69.519369
 20
-6.127347
 30
0.0
  0
LWPOLYLINE
  5
1aa
100
AcDbEntity
  8
Layer_1
 62
7
100
AcDbPolyline
 90
51
 70
0
 10
69.519369
 20
-18.127351
 30
0.0
 10
69.020967
 20
-18.064444
 30
0.0
 10
68.534467
 20
-17.939447
 30
0.0
 10
68.067370
 20
-17.754535
 30
0.0
 10
67.627168
 20
-17.512530
 30
0.0
 10
67.220768
 20
-17.217354
 30
0.0
 10
66.854568
 20
-16.873438
 30
0.0
 10
66.534468
 20
-16.486426
 30
0.0
 10
66.265268
 20
-16.062246
 30
0.0
 10
66.051369
 20
-15.607727
 30
0.0
 10
65.896169
 20
-15.130038
 30
0.0
 10
65.802068
 20
-14.636544
 30
0.0
 10
65.770467
 20
-14.135233
 30
0.0
 10
65.802068
 20
-13.633950
 30
0.0
 10
65.896169
 20
-13.140428
 30
0.0
 10
66.051369
 20
-12.662739
 30
0.0
 10
66.265268
 20
-12.208248
 30
0.0
 10
66.534468
 20
-11.784153
 30
0.0
 10
66.854568
 20
-11.397028
 30
0.0
 10
67.220768
 20
-11.053253
 30
0.0
 10
67.627168
 20
-10.757936
 30
0.0
 10
68.067370
 20
-10.515931
 30
0.0
 10
68.534467
 20
-10.331047
 30
0.0
 10
69.020967
 20
-10.206135
 30
0.0
 10
69.519369
 20
-10.143143
 30
0.0
 10
70.021668
 20
-10.143143
 30
0.0
 10
70.519968
 20
-10.206135
 30
0.0
 10
71.006567
 20
-10.331047
 30
0.0
 10
71.473569
 20
-10.515931
 30
0.0
 10
71.913768
 20
-10.757936
 30
0.0
 10
72.320168
 20
-11.053253
 30
0.0
 10
72.686368
 20
-11.397028
 30
0.0
 10
73.006569
 20
-11.784153
 30
0.0
 10
73.275668
 20
-12.208248
 30
0.0
 10
73.489570
 20
-12.662739
 30
0.0
 10
73.644868
 20
-13.140428
 30
0.0
 10
73.738969
 20
-13.633950
 30
0.0
 10
73.770468
 20
-14.135233
 30
0.0
 10
73.738969
 20
-14.636544
 30
0.0
 10
73.644868
 20
-15.130038
 30
0.0
 10
73.489570
 20
-15.607727
 30
0.0
 10
73.275668
 20
-16.062246
 30
0.0
 10
73.006569
 20
-16.486426
 30
0.0
 10
72.686368
 20
-16.873438
 30
0.0
 10
72.320168
 20
-17.217354
 30
0.0
 10
71.913768
 20
-17.512530
 30
0.0
 10
71.473569
 20
-17.754535
 30
0.0
 10
71.006567
 20
-17.939447
 30
0.0
 10
70.519968
 20
-18.064444
 30
0.0
 10
70.021668
 20
-18.127351
 30
0.0
 10
69.519369
 20
-18.127351
 30
0.0
  0
LWPOLYLINE
  5
1ab
100
AcDbEntity
  8
Layer_1
 62
7
100
AcDbPolyline
 90
51
 70
0
 10
57.519368
 20
-18.127351
 30
0.0
 10
57.020969
 20
-18.064444
 30
0.0
 10
56.534469
 20
-17.939447
 30
0.0
 10
56.067368
 20
-17.754535
 30
0.0
 10
55.627169
 20
-17.512530
 30
0.0
 10
55.220769
 20
-17.217354
 30
0.0
 10
54.854569
 20
-16.873438
 30
0.0
 10
54.534470
 20
-16.486426
 30
0.0
 10
54.265269
 20
-16.062246
 30
0.0
 10
54.051367
 20
-15.607727
 30
0.0
 10
53.896168
 20
-15.130038
 30
0.0
 10
53.802069
 20
-14.636544
 30
0.0
 10
53.770469
 20
-14.135233
 30
0.0
 10
53.802069
 20
-13.633950
 30
0.0
 10
53.896168
 20
-13.140428
 30
0.0
 10
54.051367
 20
-12.662739
 30
0.0
 10
54.265269
 20
-12.208248
 30
0.0
 10
54.534470
 20
-11.784153
 30
0.0
 10
54.854569
 20
-11.397028
 30
0.0
 10
55.220769
 20
-11.053253
 30
0.0
 10
55.627169
 20
-10.757936
 30
0.0
 10
56.067368
 20
-10.515931
 30
0.0
 10
56.534469
 20
-10.331047
 30
0.0
 10
57.020969
 20
-10.206135
 30
0.0
 10
57.519368
 20
-10.143143
 30
0.0
 10
58.021670
 20
-10.143143
 30
0.0
 10
58.519970
 20
-10.206135
 30
0.0
 10
59.006569
 20
-10.331047
 30
0.0
 10
59.473567
 20
-10.515931
 30
0.0
 10
59.913769
 20
-10.757936
 30
0.0
 10
60.320169
 20
-11.053253
 30
0.0
 10
60.686369
 20
-11.397028
 30
0.0
 10
61.006568
 20
-11.784153
 30
0.0
 10
61.275669
 20
-12.208248
 30
0.0
 10
61.489568
 20
-12.662739
 30
0.0
 10
61.644870
 20
-13.140428
 30
0.0
 10
61.738968
 20
-13.633950
 30
0.0
 10
61.770470
 20
-14.135233
 30
0.0
 10
61.738968
 20
-14.636544
 30
0.0
 10
61.644870
 20
-15.130038
 30
0.0
 10
61.489568
 20
-15.607727
 30
0.0
 10
61.275669
 20
-16.062246
 30
0.0
 10
61.006568
 20
-16.486426
 30
0.0
 10
60.686369
 20
-16.873438
 30
0.0
 10
60.320169
 20
-17.217354
 30
0.0
 10
59.913769
 20
-17.512530
 30
0.0
 10
59.473567
 20
-17.754535
 30
0.0
 10
59.006569
 20
-17.939447
 30
0.0
 10
58.519970
 20
-18.064444
 30
0.0
 10
58.021670
 20
-18.127351
 30
0.0
 10
57.519368
 20
-18.127351
 30
0.0
  0
LWPOLYLINE
  5
1ac
100
AcDbEntity
  8
Layer_1
 62
7
100
AcDbPolyline
 90
51
 70
0
 10
45.519369
 20
-18.127351
 30
0.0
 10
45.020967
 20
-18.064444
 30
0.0
 10
44.534467
 20
-17.939447
 30
0.0
 10
44.067370
 20
-17.754535
 30
0.0
 10
43.627168
 20
-17.512530
 30
0.0
 10
43.220768
 20
-17.217354
 30
0.0
 10
42.854568
 20
-16.873438
 30
0.0
 10
42.534468
 20
-16.486426
 30
0.0
 10
42.265268
 20
-16.062246
 30
0.0
 10
42.051369
 20
-15.607727
 30
0.0
 10
41.896169
 20
-15.130038
 30
0.0
 10
41.802068
 20
-14.636544
 30
0.0
 10
41.770467
 20
-14.135233
 30
0.0
 10
41.802068
 20
-13.633950
 30
0.0
 10
41.896169
 20
-13.140428
 30
0.0
 10
42.051369
 20
-12.662739
 30
0.0
 10
42.265268
 20
-12.208248
 30
0.0
 10
42.534468
 20
-11.784153
 30
0.0
 10
42.854568
 20
-11.397028
 30
0.0
 10
43.220768
 20
-11.053253
 30
0.0
 10
43.627168
 20
-10.757936
 30
0.0
 10
44.067370
 20
-10.515931
 30
0.0
 10
44.534467
 20
-10.331047
 30
0.0
 10
45.020967
 20
-10.206135
 30
0.0
 10
45.519369
 20
-10.143143
 30
0.0
 10
46.021668
 20
-10.143143
 30
0.0
 10
46.519968
 20
-10.206135
 30
0.0
 10
47.006567
 20
-10.331047
 30
0.0
 10
47.473569
 20
-10.515931
 30
0.0
 10
47.913768
 20
-10.757936
 30
0.0
 10
48.320168
 20
-11.053253
 30
0.0
 10
48.686368
 20
-11.397028
 30
0.0
 10
49.006569
 20
-11.784153
 30
0.0
 10
49.275668
 20
-12.208248
 30
0.0
 10
49.489570
 20
-12.662739
 30
0.0
 10
49.644868
 20
-13.140428
 30
0.0
 10
49.738969
 20
-13.633950
 30
0.0
 10
49.770468
 20
-14.135233
 30
0.0
 10
49.738969
 20
-14.636544
 30
0.0
 10
49.644868
 20
-15.130038
 30
0.0
 10
49.489570
 20
-15.607727
 30
0.0
 10
49.275668
 20
-16.062246
 30
0.0
 10
49.006569
 20
-16.486426
 30
0.0
 10
48.686368
 20
-16.873438
 30
0.0
 10
48.320168
 20
-17.217354
 30
0.0
 10
47.913768
 20
-17.512530
 30
0.0
 10
47.473569
 20
-17.754535
 30
0.0
 10
47.006567
 20
-17.939447
 30
0.0
 10
46.519968
 20
-18.064444
 30
0.0
 10
46.021668
 20
-18.127351
 30
0.0
 10
45.519369
 20
-18.127351
 30
0.0
  0
LWPOLYLINE
  5
1ad
100
AcDbEntity
  8
Layer_1
 62
7
100
AcDbPolyline
 90
51
 70
0
 10
33.519368
 20
-18.127351
 30
0.0
 10
33.020969
 20
-18.064444
 30
0.0
 10
32.534469
 20
-17.939447
 30
0.0
 10
32.067368
 20
-17.754535
 30
0.0
 10
31.627169
 20
-17.512530
 30
0.0
 10
31.220769
 20
-17.217354
 30
0.0
 10
30.854569
 20
-16.873438
 30
0.0
 10
30.534470
 20
-16.486426
 30
0.0
 10
30.265269
 20
-16.062246
 30
0.0
 10
30.051367
 20
-15.607727
 30
0.0
 10
29.896168
 20
-15.130038
 30
0.0
 10
29.802069
 20
-14.636544
 30
0.0
 10
29.770469
 20
-14.135233
 30
0.0
 10
29.802069
 20
-13.633950
 30
0.0
 10
29.896168
 20
-13.140428
 30
0.0
 10
30.051367
 20
-12.662739
 30
0.0
 10
30.265269
 20
-12.208248
 30
0.0
 10
30.534470
 20
-11.784153
 30
0.0
 10
30.854569
 20
-11.397028
 30
0.0
 10
31.220769
 20
-11.053253
 30
0.0
 10
31.627169
 20
-10.757936
 30
0.0
 10
32.067368
 20
-10.515931
 30
0.0
 10
32.534469
 20
-10.331047
 30
0.0
 10
33.020969
 20
-10.206135
 30
0.0
 10
33.519368
 20
-10.143143
 30
0.0
 10
34.021670
 20
-10.143143
 30
0.0
 10
34.519970
 20
-10.206135
 30
0.0
 10
35.006569
 20
-10.331047
 30
0.0
 10
35.473567
 20
-10.515931
 30
0.0
 10
35.913769
 20
-10.757936
 30
0.0
 10
36.320169
 20
-11.053253
 30
0.0
 10
36.686369
 20
-11.397028
 30
0.0
 10
37.006568
 20
-11.784153
 30
0.0
 10
37.275669
 20
-12.208248
 30
0.0
 10
37.489568
 20
-12.662739
 30
0.0
 10
37.644870
 20
-13.140428
 30
0.0
 10
37.738968
 20
-13.633950
 30
0.0
 10
37.770470
 20
-14.135233
 30
0.0
 10
37.738968
 20
-14.636544
 30
0.0
 10
37.644870
 20
-15.130038
 30
0.0
 10
37.489568
 20
-15.607727
 30
0.0
 10
37.275669
 20
-16.062246
 30
0.0
 10
37.006568
 20
-16.486426
 30
0.0
 10
36.686369
 20
-16.873438
 30
0.0
 10
36.320169
 20
-17.217354
 30
0.0
 10
35.913769
 20
-17.512530
 30
0.0
 10
35.473567
 20
-17.754535
 30
0.0
 10
35.006569
 20
-17.939447
 30
0.0
 10
34.519970
 20
-18.064444
 30
0.0
 10
34.021670
 20
-18.127351
 30
0.0
 10
33.519368
 20
-18.127351
 30
0.0
  0
LWPOLYLINE
  5
1ae
100
AcDbEntity
  8
Layer_1
 62
7
100
AcDbPolyline
 90
51
 70
0
 10
21.519369
 20
-18.127351
 30
0.0
 10
21.020967
 20
-18.064444
 30
0.0
 10
20.534470
 20
-17.939447
 30
0.0
 10
20.067370
 20
-17.754535
 30
0.0
 10
19.627168
 20
-17.512530
 30
0.0
 10
19.220768
 20
-17.217354
 30
0.0
 10
18.854568
 20
-16.873438
 30
0.0
 10
18.534468
 20
-16.486426
 30
0.0
 10
18.265268
 20
-16.062246
 30
0.0
 10
18.051369
 20
-15.607727
 30
0.0
 10
17.896169
 20
-15.130038
 30
0.0
 10
17.802068
 20
-14.636544
 30
0.0
 10
17.770467
 20
-14.135233
 30
0.0
 10
17.802068
 20
-13.633950
 30
0.0
 10
17.896169
 20
-13.140428
 30
0.0
 10
18.051369
 20
-12.662739
 30
0.0
 10
18.265268
 20
-12.208248
 30
0.0
 10
18.534468
 20
-11.784153
 30
0.0
 10
18.854568
 20
-11.397028
 30
0.0
 10
19.220768
 20
-11.053253
 30
0.0
 10
19.627168
 20
-10.757936
 30
0.0
 10
20.067370
 20
-10.515931
 30
0.0
 10
20.534470
 20
-10.331047
 30
0.0
 10
21.020967
 20
-10.206135
 30
0.0
 10
21.519369
 20
-10.143143
 30
0.0
 10
22.021668
 20
-10.143143
 30
0.0
 10
22.519968
 20
-10.206135
 30
0.0
 10
23.006567
 20
-10.331047
 30
0.0
 10
23.473569
 20
-10.515931
 30
0.0
 10
23.913768
 20
-10.757936
 30
0.0
 10
24.320168
 20
-11.053253
 30
0.0
 10
24.686368
 20
-11.397028
 30
0.0
 10
25.006569
 20
-11.784153
 30
0.0
 10
25.275668
 20
-12.208248
 30
0.0
 10
25.489570
 20
-12.662739
 30
0.0
 10
25.644868
 20
-13.140428
 30
0.0
 10
25.738969
 20
-13.633950
 30
0.0
 10
25.770468
 20
-14.135233
 30
0.0
 10
25.738969
 20
-14.636544
 30
0.0
 10
25.644868
 20
-15.130038
 30
0.0
 10
25.489570
 20
-15.607727
 30
0.0
 10
25.275668
 20
-16.062246
 30
0.0
 10
25.006569
 20
-16.486426
 30
0.0
 10
24.686368
 20
-16.873438
 30
0.0
 10
24.320168
 20
-17.217354
 30
0.0
 10
23.913768
 20
-17.512530
 30
0.0
 10
23.473569
 20
-17.754535
 30
0.0
 10
23.006567
 20
-17.939447
 30
0.0
 10
22.519968
 20
-18.064444
 30
0.0
 10
22.021668
 20
-18.127351
 30
0.0
 10
21.519369
 20
-18.127351
 30
0.0
  0
LWPOLYLINE
  5
1af
100
AcDbEntity
  8
Layer_1
 62
7
100
AcDbPolyline
 90
51
 70
0
 10
9.519369
 20
-18.127351
 30
0.0
 10
9.020969
 20
-18.064444
 30
0.0
 10
8.534469
 20
-17.939447
 30
0.0
 10
8.067369
 20
-17.754535
 30
0.0
 10
7.627168
 20
-17.512530
 30
0.0
 10
7.220768
 20
-17.217354
 30
0.0
 10
6.854668
 20
-16.873438
 30
0.0
 10
6.534469
 20
-16.486426
 30
0.0
 10
6.265268
 20
-16.062246
 30
0.0
 10
6.051369
 20
-15.607727
 30
0.0
 10
5.896169
 20
-15.130038
 30
0.0
 10
5.802068
 20
-14.636544
 30
0.0
 10
5.770469
 20
-14.135233
 30
0.0
 10
5.802068
 20
-13.633950
 30
0.0
 10
5.896169
 20
-13.140428
 30
0.0
 10
6.051369
 20
-12.662739
 30
0.0
 10
6.265268
 20
-12.208248
 30
0.0
 10
6.534469
 20
-11.784153
 30
0.0
 10
6.854668
 20
-11.397028
 30
0.0
 10
7.220768
 20
-11.053253
 30
0.0
 10
7.627168
 20
-10.757936
 30
0.0
 10
8.067369
 20
-10.515931
 30
0.0
 10
8.534469
 20
-10.331047
 30
0.0
 10
9.020969
 20
-10.206135
 30
0.0
 10
9.519369
 20
-10.143143
 30
0.0
 10
10.021668
 20
-10.143143
 30
0.0
 10
10.519969
 20
-10.206135
 30
0.0
 10
11.006568
 20
-10.331047
 30
0.0
 10
11.473569
 20
-10.515931
 30
0.0
 10
11.913768
 20
-10.757936
 30
0.0
 10
12.320168
 20
-11.053253
 30
0.0
 10
12.686368
 20
-11.397028
 30
0.0
 10
13.006568
 20
-11.784153
 30
0.0
 10
13.275668
 20
-12.208248
 30
0.0
 10
13.489569
 20
-12.662739
 30
0.0
 10
13.644868
 20
-13.140428
 30
0.0
 10
13.738968
 20
-13.633950
 30
0.0
 10
13.770469
 20
-14.135233
 30
0.0
 10
13.738968
 20
-14.636544
 30
0.0
 10
13.644868
 20
-15.130038
 30
0.0
 10
13.489569
 20
-15.607727
 30
0.0
 10
13.275668
 20
-16.062246
 30
0.0
 10
13.006568
 20
-16.486426
 30
0.0
 10
12.686368
 20
-16.873438
 30
0.0
 10
12.320168
 20
-17.217354
 30
0.0
 10
11.913768
 20
-17.512530
 30
0.0
 10
11.473569
 20
-17.754535
 30
0.0
 10
11.006568
 20
-17.939447
 30
0.0
 10
10.519969
 20
-18.064444
 30
0.0
 10
10.021668
 20
-18.127351
 30
0.0
 10
9.519369
 20
-18.127351
 30
0.0
  0
LWPOLYLINE
  5
1b0
100
AcDbEntity
  8
Layer_1
 62
7
100
AcDbPolyline
 90
51
 70
0
 10
9.519369
 20
-30.127327
 30
0.0
 10
9.020969
 20
-30.064448
 30
0.0
 10
8.534469
 20
-29.939452
 30
0.0
 10
8.067369
 20
-29.754540
 30
0.0
 10
7.627168
 20
-29.512534
 30
0.0
 10
7.220768
 20
-29.217330
 30
0.0
 10
6.854668
 20
-28.873442
 30
0.0
 10
6.534469
 20
-28.486431
 30
0.0
 10
6.265268
 20
-28.062251
 30
0.0
 10
6.051369
 20
-27.607732
 30
0.0
 10
5.896169
 20
-27.130042
 30
0.0
 10
5.802068
 20
-26.636549
 30
0.0
 10
5.770469
 20
-26.135237
 30
0.0
 10
5.802068
 20
-25.633954
 30
0.0
 10
5.896169
 20
-25.140432
 30
0.0
 10
6.051369
 20
-24.662743
 30
0.0
 10
6.265268
 20
-24.208252
 30
0.0
 10
6.534469
 20
-23.784129
 30
0.0
 10
6.854668
 20
-23.397033
 30
0.0
 10
7.220768
 20
-23.053229
 30
0.0
 10
7.627168
 20
-22.757940
 30
0.0
 10
8.067369
 20
-22.515935
 30
0.0
 10
8.534469
 20
-22.331051
 30
0.0
 10
9.020969
 20
-22.206139
 30
0.0
 10
9.519369
 20
-22.143147
 30
0.0
 10
10.021668
 20
-22.143147
 30
0.0
 10
10.519969
 20
-22.206139
 30
0.0
 10
11.006568
 20
-22.331051
 30
0.0
 10
11.473569
 20
-22.515935
 30
0.0
 10
11.913768
 20
-22.757940
 30
0.0
 10
12.320168
 20
-23.053229
 30
0.0
 10
12.686368
 20
-23.397033
 30
0.0
 10
13.006568
 20
-23.784129
 30
0.0
 10
13.275668
 20
-24.208252
 30
0.0
 10
13.489569
 20
-24.662743
 30
0.0
 10
13.644868
 20
-25.140432
 30
0.0
 10
13.738968
 20
-25.633954
 30
0.0
 10
13.770469
 20
-26.135237
 30
0.0
 10
13.738968
 20
-26.636549
 30
0.0
 10
13.644868
 20
-27.130042
 30
0.0
 10
13.489569
 20
-27.607732
 30
0.0
 10
13.275668
 20
-28.062251
 30
0.0
 10
13.006568
 20
-28.486431
 30
0.0
 10
12.686368
 20
-28.873442
 30
0.0
 10
12.320168
 20
-29.217330
 30
0.0
 10
11.913768
 20
-29.512534
 30
0.0
 10
11.473569
 20
-29.754540
 30
0.0
 10
11.006568
 20
-29.939452
 30
0.0
 10
10.519969
 20
-30.064448
 30
0.0
 10
10.021668
 20
-30.127327
 30
0.0
 10
9.519369
 20
-30.127327
 30
0.0
  0
LWPOLYLINE
  5
1b1
100
AcDbEntity
  8
Layer_1
 62
7
100
AcDbPolyline
 90
51
 70
0
 10
21.519369
 20
-30.127327
 30
0.0
 10
21.020967
 20
-30.064448
 30
0.0
 10
20.534470
 20
-29.939452
 30
0.0
 10
20.067370
 20
-29.754540
 30
0.0
 10
19.627168
 20
-29.512534
 30
0.0
 10
19.220768
 20
-29.217330
 30
0.0
 10
18.854568
 20
-28.873442
 30
0.0
 10
18.534468
 20
-28.486431
 30
0.0
 10
18.265268
 20
-28.062251
 30
0.0
 10
18.051369
 20
-27.607732
 30
0.0
 10
17.896169
 20
-27.130042
 30
0.0
 10
17.802068
 20
-26.636549
 30
0.0
 10
17.770467
 20
-26.135237
 30
0.0
 10
17.802068
 20
-25.633954
 30
0.0
 10
17.896169
 20
-25.140432
 30
0.0
 10
18.051369
 20
-24.662743
 30
0.0
 10
18.265268
 20
-24.208252
 30
0.0
 10
18.534468
 20
-23.784129
 30
0.0
 10
18.854568
 20
-23.397033
 30
0.0
 10
19.220768
 20
-23.053229
 30
0.0
 10
19.627168
 20
-22.757940
 30
0.0
 10
20.067370
 20
-22.515935
 30
0.0
 10
20.534470
 20
-22.331051
 30
0.0
 10
21.020967
 20
-22.206139
 30
0.0
 10
21.519369
 20
-22.143147
 30
0.0
 10
22.021668
 20
-22.143147
 30
0.0
 10
22.519968
 20
-22.206139
 30
0.0
 10
23.006567
 20
-22.331051
 30
0.0
 10
23.473569
 20
-22.515935
 30
0.0
 10
23.913768
 20
-22.757940
 30
0.0
 10
24.320168
 20
-23.053229
 30
0.0
 10
24.686368
 20
-23.397033
 30
0.0
 10
25.006569
 20
-23.784129
 30
0.0
 10
25.275668
 20
-24.208252
 30
0.0
 10
25.489570
 20
-24.662743
 30
0.0
 10
25.644868
 20
-25.140432
 30
0.0
 10
25.738969
 20
-25.633954
 30
0.0
 10
25.770468
 20
-26.135237
 30
0.0
 10
25.738969
 20
-26.636549
 30
0.0
 10
25.644868
 20
-27.130042
 30
0.0
 10
25.489570
 20
-27.607732
 30
0.0
 10
25.275668
 20
-28.062251
 30
0.0
 10
25.006569
 20
-28.486431
 30
0.0
 10
24.686368
 20
-28.873442
 30
0.0
 10
24.320168
 20
-29.217330
 30
0.0
 10
23.913768
 20
-29.512534
 30
0.0
 10
23.473569
 20
-29.754540
 30
0.0
 10
23.006567
 20
-29.939452
 30
0.0
 10
22.519968
 20
-30.064448
 30
0.0
 10
22.021668
 20
-30.127327
 30
0.0
 10
21.519369
 20
-30.127327
 30
0.0
  0
LWPOLYLINE
  5
1b2
100
AcDbEntity
  8
Layer_1
 62
7
100
AcDbPolyline
 90
51
 70
0
 10
33.519368
 20
-30.127327
 30
0.0
 10
33.020969
 20
-30.064448
 30
0.0
 10
32.534469
 20
-29.939452
 30
0.0
 10
32.067368
 20
-29.754540
 30
0.0
 10
31.627169
 20
-29.512534
 30
0.0
 10
31.220769
 20
-29.217330
 30
0.0
 10
30.854569
 20
-28.873442
 30
0.0
 10
30.534470
 20
-28.486431
 30
0.0
 10
30.265269
 20
-28.062251
 30
0.0
 10
30.051367
 20
-27.607732
 30
0.0
 10
29.896168
 20
-27.130042
 30
0.0
 10
29.802069
 20
-26.636549
 30
0.0
 10
29.770469
 20
-26.135237
 30
0.0
 10
29.802069
 20
-25.633954
 30
0.0
 10
29.896168
 20
-25.140432
 30
0.0
 10
30.051367
 20
-24.662743
 30
0.0
 10
30.265269
 20
-24.208252
 30
0.0
 10
30.534470
 20
-23.784129
 30
0.0
 10
30.854569
 20
-23.397033
 30
0.0
 10
31.220769
 20
-23.053229
 30
0.0
 10
31.627169
 20
-22.757940
 30
0.0
 10
32.067368
 20
-22.515935
 30
0.0
 10
32.534469
 20
-22.331051
 30
0.0
 10
33.020969
 20
-22.206139
 30
0.0
 10
33.519368
 20
-22.143147
 30
0.0
 10
34.021670
 20
-22.143147
 30
0.0
 10
34.519970
 20
-22.206139
 30
0.0
 10
35.006569
 20
-22.331051
 30
0.0
 10
35.473567
 20
-22.515935
 30
0.0
 10
35.913769
 20
-22.757940
 30
0.0
 10
36.320169
 20
-23.053229
 30
0.0
 10
36.686369
 20
-23.397033
 30
0.0
 10
37.006568
 20
-23.784129
 30
0.0
 10
37.275669
 20
-24.208252
 30
0.0
 10
37.489568
 20
-24.662743
 30
0.0
 10
37.644870
 20
-25.140432
 30
0.0
 10
37.738968
 20
-25.633954
 30
0.0
 10
37.770470
 20
-26.135237
 30
0.0
 10
37.738968
 20
-26.636549
 30
0.0
 10
37.644870
 20
-27.130042
 30
0.0
 10
37.489568
 20
-27.607732
 30
0.0
 10
37.275669
 20
-28.062251
 30
0.0
 10
37.006568
 20
-28.486431
 30
0.0
 10
36.686369
 20
-28.873442
 30
0.0
 10
36.320169
 20
-29.217330
 30
0.0
 10
35.913769
 20
-29.512534
 30
0.0
 10
35.473567
 20
-29.754540
 30
0.0
 10
35.006569
 20
-29.939452
 30
0.0
 10
34.519970
 20
-30.064448
 30
0.0
 10
34.021670
 20
-30.127327
 30
0.0
 10
33.519368
 20
-30.127327
 30
0.0
  0
LWPOLYLINE
  5
1b3
100
AcDbEntity
  8
Layer_1
 62
7
100
AcDbPolyline
 90
51
 70
0
 10
45.519369
 20
-30.127327
 30
0.0
 10
45.020967
 20
-30.064448
 30
0.0
 10
44.534467
 20
-29.939452
 30
0.0
 10
44.067370
 20
-29.754540
 30
0.0
 10
43.627168
 20
-29.512534
 30
0.0
 10
43.220768
 20
-29.217330
 30
0.0
 10
42.854568
 20
-28.873442
 30
0.0
 10
42.534468
 20
-28.486431
 30
0.0
 10
42.265268
 20
-28.062251
 30
0.0
 10
42.051369
 20
-27.607732
 30
0.0
 10
41.896169
 20
-27.130042
 30
0.0
 10
41.802068
 20
-26.636549
 30
0.0
 10
41.770467
 20
-26.135237
 30
0.0
 10
41.802068
 20
-25.633954
 30
0.0
 10
41.896169
 20
-25.140432
 30
0.0
 10
42.051369
 20
-24.662743
 30
0.0
 10
42.265268
 20
-24.208252
 30
0.0
 10
42.534468
 20
-23.784129
 30
0.0
 10
42.854568
 20
-23.397033
 30
0.0
 10
43.220768
 20
-23.053229
 30
0.0
 10
43.627168
 20
-22.757940
 30
0.0
 10
44.067370
 20
-22.515935
 30
0.0
 10
44.534467
 20
-22.331051
 30
0.0
 10
45.020967
 20
-22.206139
 30
0.0
 10
45.519369
 20
-22.143147
 30
0.0
 10
46.021668
 20
-22.143147
 30
0.0
 10
46.519968
 20
-22.206139
 30
0.0
 10
47.006567
 20
-22.331051
 30
0.0
 10
47.473569
 20
-22.515935
 30
0.0
 10
47.913768
 20
-22.757940
 30
0.0
 10
48.320168
 20
-23.053229
 30
0.0
 10
48.686368
 20
-23.397033
 30
0.0
 10
49.006569
 20
-23.784129
 30
0.0
 10
49.275668
 20
-24.208252
 30
0.0
 10
49.489570
 20
-24.662743
 30
0.0
 10
49.644868
 20
-25.140432
 30
0.0
 10
49.738969
 20
-25.633954
 30
0.0
 10
49.770468
 20
-26.135237
 30
0.0
 10
49.738969
 20
-26.636549
 30
0.0
 10
49.644868
 20
-27.130042
 30
0.0
 10
49.489570
 20
-27.607732
 30
0.0
 10
49.275668
 20
-28.062251
 30
0.0
 10
49.006569
 20
-28.486431
 30
0.0
 10
48.686368
 20
-28.873442
 30
0.0
 10
48.320168
 20
-29.217330
 30
0.0
 10
47.913768
 20
-29.512534
 30
0.0
 10
47.473569
 20
-29.754540
 30
0.0
 10
47.006567
 20
-29.939452
 30
0.0
 10
46.519968
 20
-30.064448
 30
0.0
 10
46.021668
 20
-30.127327
 30
0.0
 10
45.519369
 20
-30.127327
 30
0.0
  0
LWPOLYLINE
  5
1b4
100
AcDbEntity
  8
Layer_1
 62
7
100
AcDbPolyline
 90
51
 70
0
 10
57.519368
 20
-30.127327
 30
0.0
 10
57.020969
 20
-30.064448
 30
0.0
 10
56.534469
 20
-29.939452
 30
0.0
 10
56.067368
 20
-29.754540
 30
0.0
 10
55.627169
 20
-29.512534
 30
0.0
 10
55.220769
 20
-29.217330
 30
0.0
 10
54.854569
 20
-28.873442
 30
0.0
 10
54.534470
 20
-28.486431
 30
0.0
 10
54.265269
 20
-28.062251
 30
0.0
 10
54.051367
 20
-27.607732
 30
0.0
 10
53.896168
 20
-27.130042
 30
0.0
 10
53.802069
 20
-26.636549
 30
0.0
 10
53.770469
 20
-26.135237
 30
0.0
 10
53.802069
 20
-25.633954
 30
0.0
 10
53.896168
 20
-25.140432
 30
0.0
 10
54.051367
 20
-24.662743
 30
0.0
 10
54.265269
 20
-24.208252
 30
0.0
 10
54.534470
 20
-23.784129
 30
0.0
 10
54.854569
 20
-23.397033
 30
0.0
 10
55.220769
 20
-23.053229
 30
0.0
 10
55.627169
 20
-22.757940
 30
0.0
 10
56.067368
 20
-22.515935
 30
0.0
 10
56.534469
 20
-22.331051
 30
0.0
 10
57.020969
 20
-22.206139
 30
0.0
 10
57.519368
 20
-22.143147
 30
0.0
 10
58.021670
 20
-22.143147
 30
0.0
 10
58.519970
 20
-22.206139
 30
0.0
 10
59.006569
 20
-22.331051
 30
0.0
 10
59.473567
 20
-22.515935
 30
0.0
 10
59.913769
 20
-22.757940
 30
0.0
 10
60.320169
 20
-23.053229
 30
0.0
 10
60.686369
 20
-23.397033
 30
0.0
 10
61.006568
 20
-23.784129
 30
0.0
 10
61.275669
 20
-24.208252
 30
0.0
 10
61.489568
 20
-24.662743
 30
0.0
 10
61.644870
 20
-25.140432
 30
0.0
 10
61.738968
 20
-25.633954
 30
0.0
 10
61.770470
 20
-26.135237
 30
0.0
 10
61.738968
 20
-26.636549
 30
0.0
 10
61.644870
 20
-27.130042
 30
0.0
 10
61.489568
 20
-27.607732
 30
0.0
 10
61.275669
 20
-28.062251
 30
0.0
 10
61.006568
 20
-28.486431
 30
0.0
 10
60.686369
 20
-28.873442
 30
0.0
 10
60.320169
 20
-29.217330
 30
0.0
 10
59.913769
 20
-29.512534
 30
0.0
 10
59.473567
 20
-29.754540
 30
0.0
 10
59.006569
 20
-29.939452
 30
0.0
 10
58.519970
 20
-30.064448
 30
0.0
 10
58.021670
 20
-30.127327
 30
0.0
 10
57.519368
 20
-30.127327
 30
0.0
  0
LWPOLYLINE
  5
1b5
100
AcDbEntity
  8
Layer_1
 62
7
100
AcDbPolyline
 90
51
 70
0
 10
69.519369
 20
-30.127327
 30
0.0
 10
69.020967
 20
-30.064448
 30
0.0
 10
68.534467
 20
-29.939452
 30
0.0
 10
68.067370
 20
-29.754540
 30
0.0
 10
67.627168
 20
-29.512534
 30
0.0
 10
67.220768
 20
-29.217330
 30
0.0
 10
66.854568
 20
-28.873442
 30
0.0
 10
66.534468
 20
-28.486431
 30
0.0
 10
66.265268
 20
-28.062251
 30
0.0
 10
66.051369
 20
-27.607732
 30
0.0
 10
65.896169
 20
-27.130042
 30
0.0
 10
65.802068
 20
-26.636549
 30
0.0
 10
65.770467
 20
-26.135237
 30
0.0
 10
65.802068
 20
-25.633954
 30
0.0
 10
65.896169
 20
-25.140432
 30
0.0
 10
66.051369
 20
-24.662743
 30
0.0
 10
66.265268
 20
-24.208252
 30
0.0
 10
66.534468
 20
-23.784129
 30
0.0
 10
66.854568
 20
-23.397033
 30
0.0
 10
67.220768
 20
-23.053229
 30
0.0
 10
67.627168
 20
-22.757940
 30
0.0
 10
68.067370
 20
-22.515935
 30
0.0
 10
68.534467
 20
-22.331051
 30
0.0
 10
69.020967
 20
-22.206139
 30
0.0
 10
69.519369
 20
-22.143147
 30
0.0
 10
70.021668
 20
-22.143147
 30
0.0
 10
70.519968
 20
-22.206139
 30
0.0
 10
71.006567
 20
-22.331051
 30
0.0
 10
71.473569
 20
-22.515935
 30
0.0
 10
71.913768
 20
-22.757940
 30
0.0
 10
72.320168
 20
-23.053229
 30
0.0
 10
72.686368
 20
-23.397033
 30
0.0
 10
73.006569
 20
-23.784129
 30
0.0
 10
73.275668
 20
-24.208252
 30
0.0
 10
73.489570
 20
-24.662743
 30
0.0
 10
73.644868
 20
-25.140432
 30
0.0
 10
73.738969
 20
-25.633954
 30
0.0
 10
73.770468
 20
-26.135237
 30
0.0
 10
73.738969
 20
-26.636549
 30
0.0
 10
73.644868
 20
-27.130042
 30
0.0
 10
73.489570
 20
-27.607732
 30
0.0
 10
73.275668
 20
-28.062251
 30
0.0
 10
73.006569
 20
-28.486431
 30
0.0
 10
72.686368
 20
-28.873442
 30
0.0
 10
72.320168
 20
-29.217330
 30
0.0
 10
71.913768
 20
-29.512534
 30
0.0
 10
71.473569
 20
-29.754540
 30
0.0
 10
71.006567
 20
-29.939452
 30
0.0
 10
70.519968
 20
-30.064448
 30
0.0
 10
70.021668
 20
-30.127327
 30
0.0
 10
69.519369
 20
-30.127327
 30
0.0
  0
LWPOLYLINE
  5
1b6
100
AcDbEntity
  8
Layer_1
 62
7
100
AcDbPolyline
 90
51
 70
0
 10
45.519369
 20
-42.127331
 30
0.0
 10
45.020967
 20
-42.064339
 30
0.0
 10
44.534467
 20
-41.939428
 30
0.0
 10
44.067370
 20
-41.754544
 30
0.0
 10
43.627168
 20
-41.512538
 30
0.0
 10
43.220768
 20
-41.217249
 30
0.0
 10
42.854568
 20
-40.873446
 30
0.0
 10
42.534468
 20
-40.486350
 30
0.0
 10
42.265268
 20
-40.062227
 30
0.0
 10
42.051369
 20
-39.607736
 30
0.0
 10
41.896169
 20
-39.130047
 30
0.0
 10
41.802068
 20
-38.636553
 30
0.0
 10
41.770467
 20
-38.135241
 30
0.0
 10
41.802068
 20
-37.633930
 30
0.0
 10
41.896169
 20
-37.140436
 30
0.0
 10
42.051369
 20
-36.662747
 30
0.0
 10
42.265268
 20
-36.208228
 30
0.0
 10
42.534468
 20
-35.784133
 30
0.0
 10
42.854568
 20
-35.397037
 30
0.0
 10
43.220768
 20
-35.053234
 30
0.0
 10
43.627168
 20
-34.757945
 30
0.0
 10
44.067370
 20
-34.515939
 30
0.0
 10
44.534467
 20
-34.331027
 30
0.0
 10
45.020967
 20
-34.206144
 30
0.0
 10
45.519369
 20
-34.143152
 30
0.0
 10
46.021668
 20
-34.143152
 30
0.0
 10
46.519968
 20
-34.206144
 30
0.0
 10
47.006567
 20
-34.331027
 30
0.0
 10
47.473569
 20
-34.515939
 30
0.0
 10
47.913768
 20
-34.757945
 30
0.0
 10
48.320168
 20
-35.053234
 30
0.0
 10
48.686368
 20
-35.397037
 30
0.0
 10
49.006569
 20
-35.784133
 30
0.0
 10
49.275668
 20
-36.208228
 30
0.0
 10
49.489570
 20
-36.662747
 30
0.0
 10
49.644868
 20
-37.140436
 30
0.0
 10
49.738969
 20
-37.633930
 30
0.0
 10
49.770468
 20
-38.135241
 30
0.0
 10
49.738969
 20
-38.636553
 30
0.0
 10
49.644868
 20
-39.130047
 30
0.0
 10
49.489570
 20
-39.607736
 30
0.0
 10
49.275668
 20
-40.062227
 30
0.0
 10
49.006569
 20
-40.486350
 30
0.0
 10
48.686368
 20
-40.873446
 30
0.0
 10
48.320168
 20
-41.217249
 30
0.0
 10
47.913768
 20
-41.512538
 30
0.0
 10
47.473569
 20
-41.754544
 30
0.0
 10
47.006567
 20
-41.939428
 30
0.0
 10
46.519968
 20
-42.064339
 30
0.0
 10
46.021668
 20
-42.127331
 30
0.0
 10
45.519369
 20
-42.127331
 30
0.0
  0
LWPOLYLINE
  5
1b7
100
AcDbEntity
  8
Layer_1
 62
7
100
AcDbPolyline
 90
51
 70
0
 10
57.519368
 20
-42.127331
 30
0.0
 10
57.020969
 20
-42.064339
 30
0.0
 10
56.534469
 20
-41.939428
 30
0.0
 10
56.067368
 20
-41.754544
 30
0.0
 10
55.627169
 20
-41.512538
 30
0.0
 10
55.220769
 20
-41.217249
 30
0.0
 10
54.854569
 20
-40.873446
 30
0.0
 10
54.534470
 20
-40.486350
 30
0.0
 10
54.265269
 20
-40.062227
 30
0.0
 10
54.051367
 20
-39.607736
 30
0.0
 10
53.896168
 20
-39.130047
 30
0.0
 10
53.802069
 20
-38.636553
 30
0.0
 10
53.770469
 20
-38.135241
 30
0.0
 10
53.802069
 20
-37.633930
 30
0.0
 10
53.896168
 20
-37.140436
 30
0.0
 10
54.051367
 20
-36.662747
 30
0.0
 10
54.265269
 20
-36.208228
 30
0.0
 10
54.534470
 20
-35.784133
 30
0.0
 10
54.854569
 20
-35.397037
 30
0.0
 10
55.220769
 20
-35.053234
 30
0.0
 10
55.627169
 20
-34.757945
 30
0.0
 10
56.067368
 20
-34.515939
 30
0.0
 10
56.534469
 20
-34.331027
 30
0.0
 10
57.020969
 20
-34.206144
 30
0.0
 10
57.519368
 20
-34.143152
 30
0.0
 10
58.021670
 20
-34.143152
 30
0.0
 10
58.519970
 20
-34.206144
 30
0.0
 10
59.006569
 20
-34.331027
 30
0.0
 10
59.473567
 20
-34.515939
 30
0.0
 10
59.913769
 20
-34.757945
 30
0.0
 10
60.320169
 20
-35.053234
 30
0.0
 10
60.686369
 20
-35.397037
 30
0.0
 10
61.006568
 20
-35.784133
 30
0.0
 10
61.275669
 20
-36.208228
 30
0.0
 10
61.489568
 20
-36.662747
 30
0.0
 10
61.644870
 20
-37.140436
 30
0.0
 10
61.738968
 20
-37.633930
 30
0.0
 10
61.770470
 20
-38.135241
 30
0.0
 10
61.738968
 20
-38.636553
 30
0.0
 10
61.644870
 20
-39.130047
 30
0.0
 10
61.489568
 20
-39.607736
 30
0.0
 10
61.275669
 20
-40.062227
 30
0.0
 10
61.006568
 20
-40.486350
 30
0.0
 10
60.686369
 20
-40.873446
 30
0.0
 10
60.320169
 20
-41.217249
 30
0.0
 10
59.913769
 20
-41.512538
 30
0.0
 10
59.473567
 20
-41.754544
 30
0.0
 10
59.006569
 20
-41.939428
 30
0.0
 10
58.519970
 20
-42.064339
 30
0.0
 10
58.021670
 20
-42.127331
 30
0.0
 10
57.519368
 20
-42.127331
 30
0.0
  0
LWPOLYLINE
  5
1b8
100
AcDbEntity
  8
Layer_1
 62
7
100
AcDbPolyline
 90
51
 70
0
 10
69.519369
 20
-42.127331
 30
0.0
 10
69.020967
 20
-42.064339
 30
0.0
 10
68.534467
 20
-41.939428
 30
0.0
 10
68.067370
 20
-41.754544
 30
0.0
 10
67.627168
 20
-41.512538
 30
0.0
 10
67.220768
 20
-41.217249
 30
0.0
 10
66.854568
 20
-40.873446
 30
0.0
 10
66.534468
 20
-40.486350
 30
0.0
 10
66.265268
 20
-40.062227
 30
0.0
 10
66.051369
 20
-39.607736
 30
0.0
 10
65.896169
 20
-39.130047
 30
0.0
 10
65.802068
 20
-38.636553
 30
0.0
 10
65.770467
 20
-38.135241
 30
0.0
 10
65.802068
 20
-37.633930
 30
0.0
 10
65.896169
 20
-37.140436
 30
0.0
 10
66.051369
 20
-36.662747
 30
0.0
 10
66.265268
 20
-36.208228
 30
0.0
 10
66.534468
 20
-35.784133
 30
0.0
 10
66.854568
 20
-35.397037
 30
0.0
 10
67.220768
 20
-35.053234
 30
0.0
 10
67.627168
 20
-34.757945
 30
0.0
 10
68.067370
 20
-34.515939
 30
0.0
 10
68.534467
 20
-34.331027
 30
0.0
 10
69.020967
 20
-34.206144
 30
0.0
 10
69.519369
 20
-34.143152
 30
0.0
 10
70.021668
 20
-34.143152
 30
0.0
 10
70.519968
 20
-34.206144
 30
0.0
 10
71.006567
 20
-34.331027
 30
0.0
 10
71.473569
 20
-34.515939
 30
0.0
 10
71.913768
 20
-34.757945
 30
0.0
 10
72.320168
 20
-35.053234
 30
0.0
 10
72.686368
 20
-35.397037
 30
0.0
 10
73.006569
 20
-35.784133
 30
0.0
 10
73.275668
 20
-36.208228
 30
0.0
 10
73.489570
 20
-36.662747
 30
0.0
 10
73.644868
 20
-37.140436
 30
0.0
 10
73.738969
 20
-37.633930
 30
0.0
 10
73.770468
 20
-38.135241
 30
0.0
 10
73.738969
 20
-38.636553
 30
0.0
 10
73.644868
 20
-39.130047
 30
0.0
 10
73.489570
 20
-39.607736
 30
0.0
 10
73.275668
 20
-40.062227
 30
0.0
 10
73.006569
 20
-40.486350
 30
0.0
 10
72.686368
 20
-40.873446
 30
0.0
 10
72.320168
 20
-41.217249
 30
0.0
 10
71.913768
 20
-41.512538
 30
0.0
 10
71.473569
 20
-41.754544
 30
0.0
 10
71.006567
 20
-41.939428
 30
0.0
 10
70.519968
 20
-42.064339
 30
0.0
 10
70.021668
 20
-42.127331
 30
0.0
 10
69.519369
 20
-42.127331
 30
0.0
  0
LWPOLYLINE
  5
1b9
100
AcDbEntity
  8
Layer_1
 62
7
100
AcDbPolyline
 90
51
 70
0
 10
33.519368
 20
-42.127331
 30
0.0
 10
33.020969
 20
-42.064339
 30
0.0
 10
32.534469
 20
-41.939428
 30
0.0
 10
32.067368
 20
-41.754544
 30
0.0
 10
31.627169
 20
-41.512538
 30
0.0
 10
31.220769
 20
-41.217249
 30
0.0
 10
30.854569
 20
-40.873446
 30
0.0
 10
30.534470
 20
-40.486350
 30
0.0
 10
30.265269
 20
-40.062227
 30
0.0
 10
30.051367
 20
-39.607736
 30
0.0
 10
29.896168
 20
-39.130047
 30
0.0
 10
29.802069
 20
-38.636553
 30
0.0
 10
29.770469
 20
-38.135241
 30
0.0
 10
29.802069
 20
-37.633930
 30
0.0
 10
29.896168
 20
-37.140436
 30
0.0
 10
30.051367
 20
-36.662747
 30
0.0
 10
30.265269
 20
-36.208228
 30
0.0
 10
30.534470
 20
-35.784133
 30
0.0
 10
30.854569
 20
-35.397037
 30
0.0
 10
31.220769
 20
-35.053234
 30
0.0
 10
31.627169
 20
-34.757945
 30
0.0
 10
32.067368
 20
-34.515939
 30
0.0
 10
32.534469
 20
-34.331027
 30
0.0
 10
33.020969
 20
-34.206144
 30
0.0
 10
33.519368
 20
-34.143152
 30
0.0
 10
34.021670
 20
-34.143152
 30
0.0
 10
34.519970
 20
-34.206144
 30
0.0
 10
35.006569
 20
-34.331027
 30
0.0
 10
35.473567
 20
-34.515939
 30
0.0
 10
35.913769
 20
-34.757945
 30
0.0
 10
36.320169
 20
-35.053234
 30
0.0
 10
36.686369
 20
-35.397037
 30
0.0
 10
37.006568
 20
-35.784133
 30
0.0
 10
37.275669
 20
-36.208228
 30
0.0
 10
37.489568
 20
-36.662747
 30
0.0
 10
37.644870
 20
-37.140436
 30
0.0
 10
37.738968
 20
-37.633930
 30
0.0
 10
37.770470
 20
-38.135241
 30
0.0
 10
37.738968
 20
-38.636553
 30
0.0
 10
37.644870
 20
-39.130047
 30
0.0
 10
37.489568
 20
-39.607736
 30
0.0
 10
37.275669
 20
-40.062227
 30
0.0
 10
37.006568
 20
-40.486350
 30
0.0
 10
36.686369
 20
-40.873446
 30
0.0
 10
36.320169
 20
-41.217249
 30
0.0
 10
35.913769
 20
-41.512538
 30
0.0
 10
35.473567
 20
-41.754544
 30
0.0
 10
35.006569
 20
-41.939428
 30
0.0
 10
34.519970
 20
-42.064339
 30
0.0
 10
34.021670
 20
-42.127331
 30
0.0
 10
33.519368
 20
-42.127331
 30
0.0
  0
LWPOLYLINE
  5
1ba
100
AcDbEntity
  8
Layer_1
 62
7
100
AcDbPolyline
 90
51
 70
0
 10
9.519369
 20
-42.127331
 30
0.0
 10
9.020969
 20
-42.064339
 30
0.0
 10
8.534469
 20
-41.939428
 30
0.0
 10
8.067369
 20
-41.754544
 30
0.0
 10
7.627168
 20
-41.512538
 30
0.0
 10
7.220768
 20
-41.217249
 30
0.0
 10
6.854668
 20
-40.873446
 30
0.0
 10
6.534469
 20
-40.486350
 30
0.0
 10
6.265268
 20
-40.062227
 30
0.0
 10
6.051369
 20
-39.607736
 30
0.0
 10
5.896169
 20
-39.130047
 30
0.0
 10
5.802068
 20
-38.636553
 30
0.0
 10
5.770469
 20
-38.135241
 30
0.0
 10
5.802068
 20
-37.633930
 30
0.0
 10
5.896169
 20
-37.140436
 30
0.0
 10
6.051369
 20
-36.662747
 30
0.0
 10
6.265268
 20
-36.208228
 30
0.0
 10
6.534469
 20
-35.784133
 30
0.0
 10
6.854668
 20
-35.397037
 30
0.0
 10
7.220768
 20
-35.053234
 30
0.0
 10
7.627168
 20
-34.757945
 30
0.0
 10
8.067369
 20
-34.515939
 30
0.0
 10
8.534469
 20
-34.331027
 30
0.0
 10
9.020969
 20
-34.206144
 30
0.0
 10
9.519369
 20
-34.143152
 30
0.0
 10
10.021668
 20
-34.143152
 30
0.0
 10
10.519969
 20
-34.206144
 30
0.0
 10
11.006568
 20
-34.331027
 30
0.0
 10
11.473569
 20
-34.515939
 30
0.0
 10
11.913768
 20
-34.757945
 30
0.0
 10
12.320168
 20
-35.053234
 30
0.0
 10
12.686368
 20
-35.397037
 30
0.0
 10
13.006568
 20
-35.784133
 30
0.0
 10
13.275668
 20
-36.208228
 30
0.0
 10
13.489569
 20
-36.662747
 30
0.0
 10
13.644868
 20
-37.140436
 30
0.0
 10
13.738968
 20
-37.633930
 30
0.0
 10
13.770469
 20
-38.135241
 30
0.0
 10
13.738968
 20
-38.636553
 30
0.0
 10
13.644868
 20
-39.130047
 30
0.0
 10
13.489569
 20
-39.607736
 30
0.0
 10
13.275668
 20
-40.062227
 30
0.0
 10
13.006568
 20
-40.486350
 30
0.0
 10
12.686368
 20
-40.873446
 30
0.0
 10
12.320168
 20
-41.217249
 30
0.0
 10
11.913768
 20
-41.512538
 30
0.0
 10
11.473569
 20
-41.754544
 30
0.0
 10
11.006568
 20
-41.939428
 30
0.0
 10
10.519969
 20
-42.064339
 30
0.0
 10
10.021668
 20
-42.127331
 30
0.0
 10
9.519369
 20
-42.127331
 30
0.0
  0
LWPOLYLINE
  5
1bb
100
AcDbEntity
  8
Layer_1
 62
7
100
AcDbPolyline
 90
51
 70
0
 10
21.519369
 20
-42.127331
 30
0.0
 10
21.020967
 20
-42.064339
 30
0.0
 10
20.534470
 20
-41.939428
 30
0.0
 10
20.067370
 20
-41.754544
 30
0.0
 10
19.627168
 20
-41.512538
 30
0.0
 10
19.220768
 20
-41.217249
 30
0.0
 10
18.854568
 20
-40.873446
 30
0.0
 10
18.534468
 20
-40.486350
 30
0.0
 10
18.265268
 20
-40.062227
 30
0.0
 10
18.051369
 20
-39.607736
 30
0.0
 10
17.896169
 20
-39.130047
 30
0.0
 10
17.802068
 20
-38.636553
 30
0.0
 10
17.770467
 20
-38.135241
 30
0.0
 10
17.802068
 20
-37.633930
 30
0.0
 10
17.896169
 20
-37.140436
 30
0.0
 10
18.051369
 20
-36.662747
 30
0.0
 10
18.265268
 20
-36.208228
 30
0.0
 10
18.534468
 20
-35.784133
 30
0.0
 10
18.854568
 20
-35.397037
 30
0.0
 10
19.220768
 20
-35.053234
 30
0.0
 10
19.627168
 20
-34.757945
 30
0.0
 10
20.067370
 20
-34.515939
 30
0.0
 10
20.534470
 20
-34.331027
 30
0.0
 10
21.020967
 20
-34.206144
 30
0.0
 10
21.519369
 20
-34.143152
 30
0.0
 10
22.021668
 20
-34.143152
 30
0.0
 10
22.519968
 20
-34.206144
 30
0.0
 10
23.006567
 20
-34.331027
 30
0.0
 10
23.473569
 20
-34.515939
 30
0.0
 10
23.913768
 20
-34.757945
 30
0.0
 10
24.320168
 20
-35.053234
 30
0.0
 10
24.686368
 20
-35.397037
 30
0.0
 10
25.006569
 20
-35.784133
 30
0.0
 10
25.275668
 20
-36.208228
 30
0.0
 10
25.489570
 20
-36.662747
 30
0.0
 10
25.644868
 20
-37.140436
 30
0.0
 10
25.738969
 20
-37.633930
 30
0.0
 10
25.770468
 20
-38.135241
 30
0.0
 10
25.738969
 20
-38.636553
 30
0.0
 10
25.644868
 20
-39.130047
 30
0.0
 10
25.489570
 20
-39.607736
 30
0.0
 10
25.275668
 20
-40.062227
 30
0.0
 10
25.006569
 20
-40.486350
 30
0.0
 10
24.686368
 20
-40.873446
 30
0.0
 10
24.320168
 20
-41.217249
 30
0.0
 10
23.913768
 20
-41.512538
 30
0.0
 10
23.473569
 20
-41.754544
 30
0.0
 10
23.006567
 20
-41.939428
 30
0.0
 10
22.519968
 20
-42.064339
 30
0.0
 10
22.021668
 20
-42.127331
 30
0.0
 10
21.519369
 20
-42.127331
 30
0.0
  0
LWPOLYLINE
  5
1bc
100
AcDbEntity
  8
Layer_1
 62
7
100
AcDbPolyline
 90
9
 70
0
 10
-16.262842
 20
-3.035235
 30
0.0
 10
-19.362831
 20
-3.035235
 30
0.0
 10
-19.362831
 20
-10.035250
 30
0.0
 10
-40.462832
 20
-10.035250
 30
0.0
 10
-40.462832
 20
-3.035235
 30
0.0
 10
-43.562831
 20
-3.035235
 30
0.0
 10
-43.562831
 20
-13.135235
 30
0.0
 10
-16.262842
 20
-13.135235
 30
0.0
 10
-16.262842
 20
-3.035235
 30
0.0
  0
LWPOLYLINE
  5
1bd
100
AcDbEntity
  8
Layer_1
 62
7
100
AcDbPolyline
 90
54
 70
0
 10
-71.689033
 20
-22.958149
 30
0.0
 10
-70.472632
 20
-22.645842
 30
0.0
 10
-69.305031
 20
-22.183533
 30
0.0
 10
-68.204531
 20
-21.578534
 30
0.0
 10
-67.188632
 20
-20.840353
 30
0.0
 10
-66.273132
 20
-19.980733
 30
0.0
 10
-65.472631
 20
-19.013049
 30
0.0
 10
-64.799731
 20
-17.952740
 30
0.0
 10
-64.265030
 20
-16.816429
 30
0.0
 10
-63.877031
 20
-15.622149
 30
0.0
 10
-63.698331
 20
-14.685228
 30
0.0
 10
-68.562832
 20
-14.685228
 30
0.0
 10
-68.562832
 20
-11.585242
 30
0.0
 10
-63.698331
 20
-11.585242
 30
0.0
 10
-63.877031
 20
-10.648349
 30
0.0
 10
-64.265030
 20
-9.454041
 30
0.0
 10
-64.799731
 20
-8.317730
 30
0.0
 10
-65.472631
 20
-7.257449
 30
0.0
 10
-66.273132
 20
-6.289737
 30
0.0
 10
-67.188632
 20
-5.430145
 30
0.0
 10
-68.204531
 20
-4.691936
 30
0.0
 10
-69.305031
 20
-4.086937
 30
0.0
 10
-70.472632
 20
-3.624628
 30
0.0
 10
-71.689033
 20
-3.312349
 30
0.0
 10
-72.012832
 20
-3.271427
 30
0.0
 10
-72.012832
 20
-8.135245
 30
0.0
 10
-75.112831
 20
-8.135245
 30
0.0
 10
-75.112831
 20
-3.271427
 30
0.0
 10
-75.436630
 20
-3.312349
 30
0.0
 10
-76.653031
 20
-3.624628
 30
0.0
 10
-77.820632
 20
-4.086937
 30
0.0
 10
-78.921132
 20
-4.691936
 30
0.0
 10
-79.937031
 20
-5.430145
 30
0.0
 10
-80.852531
 20
-6.289737
 30
0.0
 10
-81.653032
 20
-7.257449
 30
0.0
 10
-82.325932
 20
-8.317730
 30
0.0
 10
-82.860633
 20
-9.454041
 30
0.0
 10
-83.248632
 20
-10.648349
 30
0.0
 10
-83.483932
 20
-11.881943
 30
0.0
 10
-83.562833
 20
-13.135235
 30
0.0
 10
-83.483932
 20
-14.388527
 30
0.0
 10
-83.248632
 20
-15.622149
 30
0.0
 10
-82.860633
 20
-16.816429
 30
0.0
 10
-82.325932
 20
-17.952740
 30
0.0
 10
-81.653032
 20
-19.013049
 30
0.0
 10
-80.852531
 20
-19.980733
 30
0.0
 10
-79.937031
 20
-20.840353
 30
0.0
 10
-78.921132
 20
-21.578534
 30
0.0
 10
-77.820632
 20
-22.183533
 30
0.0
 10
-76.653031
 20
-22.645842
 30
0.0
 10
-75.436630
 20
-22.958149
 30
0.0
 10
-74.190732
 20
-23.115544
 30
0.0
 10
-72.934931
 20
-23.115544
 30
0.0
 10
-71.689033
 20
-22.958149
 30
0.0
  0
LWPOLYLINE
  5
1be
100
AcDbEntity
  8
Layer_1
 62
7
100
AcDbPolyline
 90
51
 70
0
 10
-73.663332
 20
-14.732048
 30
0.0
 10
-73.862632
 20
-14.706931
 30
0.0
 10
-74.057233
 20
-14.656949
 30
0.0
 10
-74.244033
 20
-14.582950
 30
0.0
 10
-74.420131
 20
-14.486148
 30
0.0
 10
-74.582730
 20
-14.368038
 30
0.0
 10
-74.729130
 20
-14.230539
 30
0.0
 10
-74.857231
 20
-14.075628
 30
0.0
 10
-74.964933
 20
-13.906040
 30
0.0
 10
-75.050432
 20
-13.724233
 30
0.0
 10
-75.112532
 20
-13.533140
 30
0.0
 10
-75.150231
 20
-13.335754
 30
0.0
 10
-75.162818
 20
-13.135235
 30
0.0
 10
-75.150245
 20
-12.934744
 30
0.0
 10
-75.112532
 20
-12.737330
 30
0.0
 10
-75.050432
 20
-12.546237
 30
0.0
 10
-74.964933
 20
-12.364430
 30
0.0
 10
-74.857231
 20
-12.194842
 30
0.0
 10
-74.729130
 20
-12.039931
 30
0.0
 10
-74.582730
 20
-11.902432
 30
0.0
 10
-74.420131
 20
-11.784350
 30
0.0
 10
-74.244033
 20
-11.687548
 30
0.0
 10
-74.057233
 20
-11.613549
 30
0.0
 10
-73.862632
 20
-11.563539
 30
0.0
 10
-73.663332
 20
-11.538422
 30
0.0
 10
-73.462331
 20
-11.538450
 30
0.0
 10
-73.263031
 20
-11.563568
 30
0.0
 10
-73.068430
 20
-11.613549
 30
0.0
 10
-72.881630
 20
-11.687548
 30
0.0
 10
-72.705532
 20
-11.784350
 30
0.0
 10
-72.542933
 20
-11.902432
 30
0.0
 10
-72.396533
 20
-12.039931
 30
0.0
 10
-72.268432
 20
-12.194842
 30
0.0
 10
-72.160730
 20
-12.364430
 30
0.0
 10
-72.075231
 20
-12.546237
 30
0.0
 10
-72.013131
 20
-12.737330
 30
0.0
 10
-71.975432
 20
-12.934744
 30
0.0
 10
-71.962816
 20
-13.135235
 30
0.0
 10
-71.975446
 20
-13.335754
 30
0.0
 10
-72.013131
 20
-13.533140
 30
0.0
 10
-72.075231
 20
-13.724233
 30
0.0
 10
-72.160730
 20
-13.906040
 30
0.0
 10
-72.268432
 20
-14.075628
 30
0.0
 10
-72.396533
 20
-14.230539
 30
0.0
 10
-72.542933
 20
-14.368038
 30
0.0
 10
-72.705532
 20
-14.486148
 30
0.0
 10
-72.881630
 20
-14.582950
 30
0.0
 10
-73.068430
 20
-14.656949
 30
0.0
 10
-73.263031
 20
-14.706931
 30
0.0
 10
-73.462331
 20
-14.732048
 30
0.0
 10
-73.663332
 20
-14.732048
 30
0.0
  0
LWPOLYLINE
  5
1bf
100
AcDbEntity
  8
Layer_1
 62
7
100
AcDbPolyline
 90
54
 70
0
 10
-101.689032
 20
-22.958149
 30
0.0
 10
-100.472631
 20
-22.645842
 30
0.0
 10
-99.305030
 20
-22.183533
 30
0.0
 10
-98.204533
 20
-21.578534
 30
0.0
 10
-97.188632
 20
-20.840353
 30
0.0
 10
-96.273131
 20
-19.980733
 30
0.0
 10
-95.472633
 20
-19.013049
 30
0.0
 10
-94.799731
 20
-17.952740
 30
0.0
 10
-94.265032
 20
-16.816429
 30
0.0
 10
-93.877030
 20
-15.622149
 30
0.0
 10
-93.698330
 20
-14.685228
 30
0.0
 10
-98.562831
 20
-14.685228
 30
0.0
 10
-98.562831
 20
-11.585242
 30
0.0
 10
-93.698330
 20
-11.585242
 30
0.0
 10
-93.877030
 20
-10.648349
 30
0.0
 10
-94.265032
 20
-9.454041
 30
0.0
 10
-94.799731
 20
-8.317730
 30
0.0
 10
-95.472633
 20
-7.257449
 30
0.0
 10
-96.273131
 20
-6.289737
 30
0.0
 10
-97.188632
 20
-5.430145
 30
0.0
 10
-98.204533
 20
-4.691936
 30
0.0
 10
-99.305030
 20
-4.086937
 30
0.0
 10
-100.472631
 20
-3.624628
 30
0.0
 10
-101.689032
 20
-3.312349
 30
0.0
 10
-102.012831
 20
-3.271427
 30
0.0
 10
-102.012831
 20
-8.135245
 30
0.0
 10
-105.112830
 20
-8.135245
 30
0.0
 10
-105.112830
 20
-3.271427
 30
0.0
 10
-105.436632
 20
-3.312349
 30
0.0
 10
-106.653033
 20
-3.624628
 30
0.0
 10
-107.820631
 20
-4.086937
 30
0.0
 10
-108.921131
 20
-4.691936
 30
0.0
 10
-109.937033
 20
-5.430145
 30
0.0
 10
-110.852531
 20
-6.289737
 30
0.0
 10
-111.653031
 20
-7.257449
 30
0.0
 10
-112.325931
 20
-8.317730
 30
0.0
 10
-112.860632
 20
-9.454041
 30
0.0
 10
-113.248631
 20
-10.648349
 30
0.0
 10
-113.483931
 20
-11.881943
 30
0.0
 10
-113.562832
 20
-13.135235
 30
0.0
 10
-113.483931
 20
-14.388527
 30
0.0
 10
-113.248631
 20
-15.622149
 30
0.0
 10
-112.860632
 20
-16.816429
 30
0.0
 10
-112.325931
 20
-17.952740
 30
0.0
 10
-111.653031
 20
-19.013049
 30
0.0
 10
-110.852531
 20
-19.980733
 30
0.0
 10
-109.937033
 20
-20.840353
 30
0.0
 10
-108.921131
 20
-21.578534
 30
0.0
 10
-107.820631
 20
-22.183533
 30
0.0
 10
-106.653033
 20
-22.645842
 30
0.0
 10
-105.436632
 20
-22.958149
 30
0.0
 10
-104.190731
 20
-23.115544
 30
0.0
 10
-102.934930
 20
-23.115544
 30
0.0
 10
-101.689032
 20
-22.958149
 30
0.0
  0
LWPOLYLINE
  5
1c0
100
AcDbEntity
  8
Layer_1
 62
7
100
AcDbPolyline
 90
7
 70
0
 10
-104.912831
 20
-15.473531
 30
0.0
 10
-106.262832
 20
-13.135235
 30
0.0
 10
-104.912831
 20
-10.796939
 30
0.0
 10
-102.212831
 20
-10.796939
 30
0.0
 10
-100.862832
 20
-13.135235
 30
0.0
 10
-102.212831
 20
-15.473531
 30
0.0
 10
-104.912831
 20
-15.473531
 30
0.0
  0
LWPOLYLINE
  5
1c1
100
AcDbEntity
  8
Layer_1
 62
7
100
AcDbPolyline
 90
51
 70
0
 10
-43.000732
 20
-31.082141
 30
0.0
 10
-42.635832
 20
-30.988443
 30
0.0
 10
-42.285533
 20
-30.849731
 30
0.0
 10
-41.955333
 20
-30.668234
 30
0.0
 10
-41.650531
 20
-30.446746
 30
0.0
 10
-41.375931
 20
-30.188851
 30
0.0
 10
-41.135831
 20
-29.898642
 30
0.0
 10
-40.933932
 20
-29.580550
 30
0.0
 10
-40.773531
 20
-29.239653
 30
0.0
 10
-40.657131
 20
-28.881344
 30
0.0
 10
-40.586532
 20
-28.511238
 30
0.0
 10
-40.562831
 20
-28.135233
 30
0.0
 10
-40.586532
 20
-27.759229
 30
0.0
 10
-40.657131
 20
-27.389151
 30
0.0
 10
-40.773531
 20
-27.030841
 30
0.0
 10
-40.933932
 20
-26.689945
 30
0.0
 10
-41.135831
 20
-26.371852
 30
0.0
 10
-41.375931
 20
-26.081643
 30
0.0
 10
-41.650531
 20
-25.823749
 30
0.0
 10
-41.955333
 20
-25.602232
 30
0.0
 10
-42.285533
 20
-25.420735
 30
0.0
 10
-42.635832
 20
-25.282051
 30
0.0
 10
-43.000732
 20
-25.188353
 30
0.0
 10
-43.374431
 20
-25.141138
 30
0.0
 10
-43.751231
 20
-25.141138
 30
0.0
 10
-44.124933
 20
-25.188353
 30
0.0
 10
-44.489832
 20
-25.282051
 30
0.0
 10
-44.840132
 20
-25.420735
 30
0.0
 10
-45.170332
 20
-25.602232
 30
0.0
 10
-45.475132
 20
-25.823749
 30
0.0
 10
-45.749731
 20
-26.081643
 30
0.0
 10
-45.989832
 20
-26.371852
 30
0.0
 10
-46.191731
 20
-26.689945
 30
0.0
 10
-46.352132
 20
-27.030841
 30
0.0
 10
-46.468532
 20
-27.389151
 30
0.0
 10
-46.539132
 20
-27.759229
 30
0.0
 10
-46.562839
 20
-28.135233
 30
0.0
 10
-46.539124
 20
-28.511238
 30
0.0
 10
-46.468532
 20
-28.881344
 30
0.0
 10
-46.352132
 20
-29.239653
 30
0.0
 10
-46.191731
 20
-29.580550
 30
0.0
 10
-45.989832
 20
-29.898642
 30
0.0
 10
-45.749731
 20
-30.188851
 30
0.0
 10
-45.475132
 20
-30.446746
 30
0.0
 10
-45.170332
 20
-30.668234
 30
0.0
 10
-44.840132
 20
-30.849731
 30
0.0
 10
-44.489832
 20
-30.988443
 30
0.0
 10
-44.124933
 20
-31.082141
 30
0.0
 10
-43.751231
 20
-31.129329
 30
0.0
 10
-43.374431
 20
-31.129329
 30
0.0
 10
-43.000732
 20
-31.082141
 30
0.0
  0
LWPOLYLINE
  5
1c2
100
AcDbEntity
  8
Layer_1
 62
7
100
AcDbPolyline
 90
51
 70
0
 10
-43.649132
 20
-29.507539
 30
0.0
 10
-43.820432
 20
-29.485808
 30
0.0
 10
-43.987730
 20
-29.442938
 30
0.0
 10
-44.148230
 20
-29.379353
 30
0.0
 10
-44.299631
 20
-29.296126
 30
0.0
 10
-44.439232
 20
-29.194639
 30
0.0
 10
-44.565132
 20
-29.076444
 30
0.0
 10
-44.675232
 20
-28.943433
 30
0.0
 10
-44.767731
 20
-28.797637
 30
0.0
 10
-44.841233
 20
-28.641427
 30
0.0
 10
-44.894632
 20
-28.477145
 30
0.0
 10
-44.927031
 20
-28.307530
 30
0.0
 10
-44.937840
 20
-28.135233
 30
0.0
 10
-44.927022
 20
-27.962937
 30
0.0
 10
-44.894632
 20
-27.793349
 30
0.0
 10
-44.841233
 20
-27.629039
 30
0.0
 10
-44.767731
 20
-27.472829
 30
0.0
 10
-44.675232
 20
-27.327033
 30
0.0
 10
-44.565132
 20
-27.194050
 30
0.0
 10
-44.439232
 20
-27.075827
 30
0.0
 10
-44.299631
 20
-26.974340
 30
0.0
 10
-44.148230
 20
-26.891141
 30
0.0
 10
-43.987730
 20
-26.827528
 30
0.0
 10
-43.820432
 20
-26.784631
 30
0.0
 10
-43.649132
 20
-26.762899
 30
0.0
 10
-43.476533
 20
-26.762928
 30
0.0
 10
-43.305232
 20
-26.784659
 30
0.0
 10
-43.137931
 20
-26.827528
 30
0.0
 10
-42.977431
 20
-26.891141
 30
0.0
 10
-42.826030
 20
-26.974340
 30
0.0
 10
-42.686432
 20
-27.075827
 30
0.0
 10
-42.560533
 20
-27.194050
 30
0.0
 10
-42.450432
 20
-27.327033
 30
0.0
 10
-42.357931
 20
-27.472829
 30
0.0
 10
-42.284432
 20
-27.629039
 30
0.0
 10
-42.231033
 20
-27.793349
 30
0.0
 10
-42.198631
 20
-27.962937
 30
0.0
 10
-42.187822
 20
-28.135233
 30
0.0
 10
-42.198642
 20
-28.307530
 30
0.0
 10
-42.231033
 20
-28.477145
 30
0.0
 10
-42.284432
 20
-28.641427
 30
0.0
 10
-42.357931
 20
-28.797637
 30
0.0
 10
-42.450432
 20
-28.943433
 30
0.0
 10
-42.560533
 20
-29.076444
 30
0.0
 10
-42.686432
 20
-29.194639
 30
0.0
 10
-42.826030
 20
-29.296126
 30
0.0
 10
-42.977431
 20
-29.379353
 30
0.0
 10
-43.137931
 20
-29.442938
 30
0.0
 10
-43.305232
 20
-29.485836
 30
0.0
 10
-43.476533
 20
-29.507567
 30
0.0
 10
-43.649132
 20
-29.507539
 30
0.0
  0
LWPOLYLINE
  5
1c3
100
AcDbEntity
  8
Layer_1
 62
7
100
AcDbPolyline
 90
13
 70
0
 10
-21.562832
 20
-36.035254
 30
0.0
 10
-31.962831
 20
-36.035254
 30
0.0
 10
-31.962831
 20
-39.135239
 30
0.0
 10
-42.362830
 20
-39.135239
 30
0.0
 10
-42.362830
 20
-36.035254
 30
0.0
 10
-52.762832
 20
-36.035254
 30
0.0
 10
-52.762832
 20
-39.135239
 30
0.0
 10
-63.162831
 20
-39.135239
 30
0.0
 10
-63.162831
 20
-36.035254
 30
0.0
 10
-73.562830
 20
-36.035254
 30
0.0
 10
-73.562830
 20
-43.135231
 30
0.0
 10
-21.562832
 20
-43.135231
 30
0.0
 10
-21.562832
 20
-36.035254
 30
0.0
  0
ENDSEC
  0
SECTION
  2
OBJECTS
  0
DICTIONARY
  5
C
330
0
100
AcDbDictionary
  3
ACAD_GROUP
350
D
  3
ACAD_MLINESTYLE
350
17
  0
DICTIONARY
  5
D
330
C
100
AcDbDictionary
  0
DICTIONARY
  5
1A
330
C
100
AcDbDictionary
  0
DICTIONARY
  5
17
330
C
100
AcDbDictionary
  3
STANDARD
350
18
  0
DICTIONARY
  5
19
330
C
100
AcDbDictionary
  0
ENDSEC
  0
EOF
