  0
SECTION
  2
HEADER
  9
$ACADVER
  1
AC1014
  9
$HANDSEED
  5
FFFF
  9
$MEASUREMENT
 70
     1
  0
ENDSEC
  0
SECTION
  2
TABLES
  0
TABLE
  2
VPORT
  5
8
330
0
100
AcDbSymbolTable
 70
     4
  0
VPORT
  5
2E
330
8
100
AcDbSymbolTableRecord
100
AcDbViewportTableRecord
  2
*ACTIVE
 70
     0
 10
0.0
 20
0.0
 11
1.0
 21
1.0
 12
210.0
 22
148.5
 13
0.0
 23
0.0
 14
10.0
 24
10.0
 15
10.0
 25
10.0
 16
0.0
 26
0.0
 36
1.0
 17
0.0
 27
0.0
 37
0.0
 40
341.0
 41
1.24
 42
50.0
 43
0.0
 44
0.0
 50
0.0
 51
0.0
 71
     0
 72
   100
 73
     1
 74
     3
 75
     0
 76
     0
 77
     0
 78
     0
  0
ENDTAB
  0
TABLE
  2
LTYPE
  5
5
330
0
100
AcDbSymbolTable
 70
     1
  0
LTYPE
  5
14
330
5
100
AcDbSymbolTableRecord
100
AcDbLinetypeTableRecord
  2
BYBLOCK
 70
     0
  3

 72
    65
 73
     0
 40
0.0
  0
LTYPE
  5
15
330
5
100
AcDbSymbolTableRecord
100
AcDbLinetypeTableRecord
  2
BYLAYER
 70
     0
  3

 72
    65
 73
     0
 40
0.0
  0
LTYPE
  5
16
330
5
100
AcDbSymbolTableRecord
100
AcDbLinetypeTableRecord
  2
CONTINUOUS
 70
     0
  3
Solid line
 72
    65
 73
     0
 40
0.0
  0
ENDTAB
  0
TABLE
  2
LAYER
  5
2
100
AcDbSymbolTable
 70
2
  0
LAYER
  5
50
100
AcDbSymbolTableRecord
100
AcDbLayerTableRecord
  2
0
 70
0
  6
CONTINUOUS
  0
LAYER
  5
51
100
AcDbSymbolTableRecord
100
AcDbLayerTableRecord
  2
Layer_1
 70
0
  6
CONTINUOUS
  0
ENDTAB
  0
TABLE
  2
STYLE
  5
3
330
0
100
AcDbSymbolTable
 70
     1
  0
STYLE
  5
11
330
3
100
AcDbSymbolTableRecord
100
AcDbTextStyleTableRecord
  2
STANDARD
 70
     0
 40
0.0
 41
1.0
 50
0.0
 71
     0
 42
2.5
  3
txt
  4

  0
ENDTAB
  0
TABLE
  2
VIEW
  5
6
330
0
100
AcDbSymbolTable
 70
     0
  0
ENDTAB
  0
TABLE
  2
UCS
  5
7
330
0
100
AcDbSymbolTable
 70
     0
  0
ENDTAB
  0
TABLE
  2
APPID
  5
9
330
0
100
AcDbSymbolTable
 70
     2
  0
APPID
  5
12
330
9
100
AcDbSymbolTableRecord
100
AcDbRegAppTableRecord
  2
ACAD
 70
     0
  0
ENDTAB
  0
TABLE
  2
DIMSTYLE
  5
A
330
0
100
AcDbSymbolTable
 70
     1
  0
DIMSTYLE
105
27
330
A
100
AcDbSymbolTableRecord
100
AcDbDimStyleTableRecord
  2
ISO-25
 70
     0
  3

  4

  5

  6

  7

 40
1.0
 41
2.5
 42
0.625
 43
3.75
 44
1.25
 45
0.0
 46
0.0
 47
0.0
 48
0.0
140
2.5
141
2.5
142
0.0
143
0.03937007874016
144
1.0
145
0.0
146
1.0
147
0.625
 71
     0
 72
     0
 73
     0
 74
     0
 75
     0
 76
     0
 77
     1
 78
     8
170
     0
171
     3
172
     1
173
     0
174
     0
175
     0
176
     0
177
     0
178
     0
270
     2
271
     2
272
     2
273
     2
274
     3
340
11
275
     0
280
     0
281
     0
282
     0
283
     0
284
     8
285
     0
286
     0
287
     3
288
     0
  0
ENDTAB
  0
TABLE
  2
BLOCK_RECORD
  5
1
330
0
100
AcDbSymbolTable
 70
     1
  0
BLOCK_RECORD
  5
1F
330
1
100
AcDbSymbolTableRecord
100
AcDbBlockTableRecord
  2
*MODEL_SPACE
  0
BLOCK_RECORD
  5
1B
330
1
100
AcDbSymbolTableRecord
100
AcDbBlockTableRecord
  2
*PAPER_SPACE
  0
ENDTAB
  0
ENDSEC
  0
SECTION
  2
BLOCKS
  0
BLOCK
  5
20
330
1F
100
AcDbEntity
  8
0
100
AcDbBlockBegin
  2
*MODEL_SPACE
 70
     0
 10
0.0
 20
0.0
 30
0.0
  3
*MODEL_SPACE
  1

  0
ENDBLK
  5
21
330
1F
100
AcDbEntity
  8
0
100
AcDbBlockEnd
  0
BLOCK
  5
1C
330
1B
100
AcDbEntity
 67
     1
  8
0
100
AcDbBlockBegin
  2
*PAPER_SPACE
  1

  0
ENDBLK
  5
1D
330
1B
100
AcDbEntity
 67
     1
  8
0
100
AcDbBlockEnd
  0
ENDSEC
  0
SECTION
  2
ENTITIES
  0
LWPOLYLINE
  5
100
100
AcDbEntity
  8
Layer_1
 62
7
100
AcDbPolyline
 90
19
 70
0
 10
194.855081
 20
215.353011
 30
0.0
 10
198.456082
 20
217.433012
 30
0.0
 10
200.900081
 20
220.797010
 30
0.0
 10
201.765081
 20
224.864010
 30
0.0
 10
201.765081
 20
324.864011
 30
0.0
 10
200.900081
 20
328.931011
 30
0.0
 10
198.456082
 20
332.295011
 30
0.0
 10
194.855081
 20
334.375010
 30
0.0
 10
190.720083
 20
334.809011
 30
0.0
 10
-49.280209
 20
334.809011
 30
0.0
 10
-53.234919
 20
333.524010
 30
0.0
 10
-56.325099
 20
330.742011
 30
0.0
 10
-58.016398
 20
326.943010
 30
0.0
 10
-58.016398
 20
222.785012
 30
0.0
 10
-56.325099
 20
218.986010
 30
0.0
 10
-53.234939
 20
216.204010
 30
0.0
 10
-49.280209
 20
214.919010
 30
0.0
 10
190.720083
 20
214.919010
 30
0.0
 10
194.855081
 20
215.353011
 30
0.0
  0
LWPOLYLINE
  5
101
100
AcDbEntity
  8
Layer_1
 62
7
100
AcDbPolyline
 90
16
 70
0
 10
190.965082
 20
323.478010
 30
0.0
 10
190.471081
 20
323.924010
 30
0.0
 10
190.200082
 20
324.531010
 30
0.0
 10
190.200082
 20
325.197010
 30
0.0
 10
190.471081
 20
325.804010
 30
0.0
 10
190.965082
 20
326.250010
 30
0.0
 10
191.598082
 20
326.455010
 30
0.0
 10
192.259083
 20
326.386010
 30
0.0
 10
192.836080
 20
326.053011
 30
0.0
 10
193.227082
 20
325.515011
 30
0.0
 10
193.365080
 20
324.864011
 30
0.0
 10
193.227082
 20
324.213011
 30
0.0
 10
192.836080
 20
323.675010
 30
0.0
 10
192.259083
 20
323.342010
 30
0.0
 10
191.598082
 20
323.273010
 30
0.0
 10
190.965082
 20
323.478010
 30
0.0
  0
LWPOLYLINE
  5
102
100
AcDbEntity
  8
Layer_1
 62
7
100
AcDbPolyline
 90
16
 70
0
 10
-49.034919
 20
323.478010
 30
0.0
 10
-49.529349
 20
323.924010
 30
0.0
 10
-49.799969
 20
324.531010
 30
0.0
 10
-49.799969
 20
325.197010
 30
0.0
 10
-49.529349
 20
325.804010
 30
0.0
 10
-49.034919
 20
326.250010
 30
0.0
 10
-48.402169
 20
326.455010
 30
0.0
 10
-47.740519
 20
326.386010
 30
0.0
 10
-47.164319
 20
326.053011
 30
0.0
 10
-46.773219
 20
325.515011
 30
0.0
 10
-46.634919
 20
324.864011
 30
0.0
 10
-46.773219
 20
324.213011
 30
0.0
 10
-47.164319
 20
323.675010
 30
0.0
 10
-47.740519
 20
323.342010
 30
0.0
 10
-48.402169
 20
323.273010
 30
0.0
 10
-49.034919
 20
323.478010
 30
0.0
  0
LWPOLYLINE
  5
103
100
AcDbEntity
  8
Layer_1
 62
7
100
AcDbPolyline
 90
5
 70
0
 10
82.220082
 20
323.364010
 30
0.0
 10
82.220082
 20
326.364010
 30
0.0
 10
103.129080
 20
326.364010
 30
0.0
 10
103.129080
 20
323.364010
 30
0.0
 10
82.220082
 20
323.364010
 30
0.0
  0
LWPOLYLINE
  5
104
100
AcDbEntity
  8
Layer_1
 62
7
100
AcDbPolyline
 90
5
 70
0
 10
124.038081
 20
323.364010
 30
0.0
 10
124.038081
 20
326.364010
 30
0.0
 10
144.947081
 20
326.364010
 30
0.0
 10
144.947081
 20
323.364010
 30
0.0
 10
124.038081
 20
323.364010
 30
0.0
  0
LWPOLYLINE
  5
105
100
AcDbEntity
  8
Layer_1
 62
7
100
AcDbPolyline
 90
5
 70
0
 10
165.856082
 20
323.364010
 30
0.0
 10
165.856082
 20
326.364010
 30
0.0
 10
186.765082
 20
326.364010
 30
0.0
 10
186.765082
 20
323.364010
 30
0.0
 10
165.856082
 20
323.364010
 30
0.0
  0
LWPOLYLINE
  5
106
100
AcDbEntity
  8
Layer_1
 62
7
100
AcDbPolyline
 90
5
 70
0
 10
40.401480
 20
323.364010
 30
0.0
 10
40.401480
 20
326.364010
 30
0.0
 10
61.310083
 20
326.364010
 30
0.0
 10
61.310083
 20
323.364010
 30
0.0
 10
40.401480
 20
323.364010
 30
0.0
  0
LWPOLYLINE
  5
107
100
AcDbEntity
  8
Layer_1
 62
7
100
AcDbPolyline
 90
5
 70
0
 10
-1.416719
 20
323.364010
 30
0.0
 10
-1.416719
 20
326.364010
 30
0.0
 10
19.492381
 20
326.364010
 30
0.0
 10
19.492381
 20
323.364010
 30
0.0
 10
-1.416719
 20
323.364010
 30
0.0
  0
LWPOLYLINE
  5
108
100
AcDbEntity
  8
Layer_1
 62
7
100
AcDbPolyline
 90
5
 70
0
 10
-43.234919
 20
323.364010
 30
0.0
 10
-43.234919
 20
326.364010
 30
0.0
 10
-22.325818
 20
326.364010
 30
0.0
 10
-22.325818
 20
323.364010
 30
0.0
 10
-43.234919
 20
323.364010
 30
0.0
  0
LWPOLYLINE
  5
109
100
AcDbEntity
  8
Layer_1
 62
7
100
AcDbPolyline
 90
5
 70
0
 10
-49.734919
 20
307.007010
 30
0.0
 10
-49.734919
 20
319.864010
 30
0.0
 10
-46.734919
 20
319.864010
 30
0.0
 10
-46.734919
 20
307.007010
 30
0.0
 10
-49.734919
 20
307.007010
 30
0.0
  0
LWPOLYLINE
  5
10a
100
AcDbEntity
  8
Layer_1
 62
7
100
AcDbPolyline
 90
5
 70
0
 10
190.265081
 20
307.007010
 30
0.0
 10
190.265081
 20
319.864010
 30
0.0
 10
193.265081
 20
319.864010
 30
0.0
 10
193.265081
 20
307.007010
 30
0.0
 10
190.265081
 20
307.007010
 30
0.0
  0
LWPOLYLINE
  5
10b
100
AcDbEntity
  8
Layer_1
 62
7
100
AcDbPolyline
 90
5
 70
0
 10
-49.734919
 20
281.293011
 30
0.0
 10
-49.734919
 20
294.150010
 30
0.0
 10
-46.734919
 20
294.150010
 30
0.0
 10
-46.734919
 20
281.293011
 30
0.0
 10
-49.734919
 20
281.293011
 30
0.0
  0
LWPOLYLINE
  5
10c
100
AcDbEntity
  8
Layer_1
 62
7
100
AcDbPolyline
 90
5
 70
0
 10
190.265081
 20
281.293011
 30
0.0
 10
190.265081
 20
294.150010
 30
0.0
 10
193.265081
 20
294.150010
 30
0.0
 10
193.265081
 20
281.293011
 30
0.0
 10
190.265081
 20
281.293011
 30
0.0
  0
LWPOLYLINE
  5
10d
100
AcDbEntity
  8
Layer_1
 62
7
100
AcDbPolyline
 90
16
 70
0
 10
65.935081
 20
263.606009
 30
0.0
 10
61.918082
 20
267.223012
 30
0.0
 10
59.719080
 20
272.161011
 30
0.0
 10
59.719080
 20
277.567009
 30
0.0
 10
61.918082
 20
282.505009
 30
0.0
 10
65.935081
 20
286.122011
 30
0.0
 10
71.076081
 20
287.793010
 30
0.0
 10
76.452081
 20
287.228009
 30
0.0
 10
81.134080
 20
284.525012
 30
0.0
 10
84.311081
 20
280.152010
 30
0.0
 10
85.435082
 20
274.864012
 30
0.0
 10
84.311081
 20
269.576011
 30
0.0
 10
81.134080
 20
265.203012
 30
0.0
 10
76.452081
 20
262.500011
 30
0.0
 10
71.076081
 20
261.935011
 30
0.0
 10
65.935081
 20
263.606009
 30
0.0
  0
LWPOLYLINE
  5
10e
100
AcDbEntity
  8
Layer_1
 62
7
100
AcDbPolyline
 90
5
 70
0
 10
190.265081
 20
255.578012
 30
0.0
 10
190.265081
 20
268.435009
 30
0.0
 10
193.265081
 20
268.435009
 30
0.0
 10
193.265081
 20
255.578012
 30
0.0
 10
190.265081
 20
255.578012
 30
0.0
  0
LWPOLYLINE
  5
10f
100
AcDbEntity
  8
Layer_1
 62
7
100
AcDbPolyline
 90
5
 70
0
 10
-49.734919
 20
255.578012
 30
0.0
 10
-49.734919
 20
268.435009
 30
0.0
 10
-46.734919
 20
268.435009
 30
0.0
 10
-46.734919
 20
255.578012
 30
0.0
 10
-49.734919
 20
255.578012
 30
0.0
  0
LWPOLYLINE
  5
110
100
AcDbEntity
  8
Layer_1
 62
7
100
AcDbPolyline
 90
5
 70
0
 10
190.265081
 20
229.864011
 30
0.0
 10
190.265081
 20
242.721012
 30
0.0
 10
193.265081
 20
242.721012
 30
0.0
 10
193.265081
 20
229.864011
 30
0.0
 10
190.265081
 20
229.864011
 30
0.0
  0
LWPOLYLINE
  5
111
100
AcDbEntity
  8
Layer_1
 62
7
100
AcDbPolyline
 90
5
 70
0
 10
-49.734919
 20
229.864011
 30
0.0
 10
-49.734919
 20
242.721012
 30
0.0
 10
-46.734919
 20
242.721012
 30
0.0
 10
-46.734919
 20
229.864011
 30
0.0
 10
-49.734919
 20
229.864011
 30
0.0
  0
LWPOLYLINE
  5
112
100
AcDbEntity
  8
Layer_1
 62
7
100
AcDbPolyline
 90
16
 70
0
 10
190.965082
 20
223.478011
 30
0.0
 10
190.471081
 20
223.924010
 30
0.0
 10
190.200082
 20
224.531011
 30
0.0
 10
190.200082
 20
225.197010
 30
0.0
 10
190.471081
 20
225.804011
 30
0.0
 10
190.965082
 20
226.250012
 30
0.0
 10
191.598082
 20
226.455010
 30
0.0
 10
192.259083
 20
226.386009
 30
0.0
 10
192.836080
 20
226.053010
 30
0.0
 10
193.227082
 20
225.515009
 30
0.0
 10
193.365080
 20
224.864010
 30
0.0
 10
193.227082
 20
224.213011
 30
0.0
 10
192.836080
 20
223.675011
 30
0.0
 10
192.259083
 20
223.342011
 30
0.0
 10
191.598082
 20
223.273011
 30
0.0
 10
190.965082
 20
223.478011
 30
0.0
  0
LWPOLYLINE
  5
113
100
AcDbEntity
  8
Layer_1
 62
7
100
AcDbPolyline
 90
16
 70
0
 10
-49.034919
 20
223.478011
 30
0.0
 10
-49.529349
 20
223.924010
 30
0.0
 10
-49.799969
 20
224.531011
 30
0.0
 10
-49.799969
 20
225.197010
 30
0.0
 10
-49.529349
 20
225.804011
 30
0.0
 10
-49.034919
 20
226.250012
 30
0.0
 10
-48.402169
 20
226.455010
 30
0.0
 10
-47.740519
 20
226.386009
 30
0.0
 10
-47.164319
 20
226.053010
 30
0.0
 10
-46.773219
 20
225.515009
 30
0.0
 10
-46.634919
 20
224.864010
 30
0.0
 10
-46.773219
 20
224.213011
 30
0.0
 10
-47.164319
 20
223.675011
 30
0.0
 10
-47.740519
 20
223.342011
 30
0.0
 10
-48.402169
 20
223.273011
 30
0.0
 10
-49.034919
 20
223.478011
 30
0.0
  0
LWPOLYLINE
  5
114
100
AcDbEntity
  8
Layer_1
 62
7
100
AcDbPolyline
 90
5
 70
0
 10
165.856082
 20
223.364010
 30
0.0
 10
165.856082
 20
226.364010
 30
0.0
 10
186.765082
 20
226.364010
 30
0.0
 10
186.765082
 20
223.364010
 30
0.0
 10
165.856082
 20
223.364010
 30
0.0
  0
LWPOLYLINE
  5
115
100
AcDbEntity
  8
Layer_1
 62
7
100
AcDbPolyline
 90
5
 70
0
 10
124.038081
 20
223.364010
 30
0.0
 10
124.038081
 20
226.364010
 30
0.0
 10
144.947081
 20
226.364010
 30
0.0
 10
144.947081
 20
223.364010
 30
0.0
 10
124.038081
 20
223.364010
 30
0.0
  0
LWPOLYLINE
  5
116
100
AcDbEntity
  8
Layer_1
 62
7
100
AcDbPolyline
 90
5
 70
0
 10
82.220082
 20
223.364010
 30
0.0
 10
82.220082
 20
226.364010
 30
0.0
 10
103.129080
 20
226.364010
 30
0.0
 10
103.129080
 20
223.364010
 30
0.0
 10
82.220082
 20
223.364010
 30
0.0
  0
LWPOLYLINE
  5
117
100
AcDbEntity
  8
Layer_1
 62
7
100
AcDbPolyline
 90
5
 70
0
 10
40.401480
 20
223.364010
 30
0.0
 10
40.401480
 20
226.364010
 30
0.0
 10
61.310083
 20
226.364010
 30
0.0
 10
61.310083
 20
223.364010
 30
0.0
 10
40.401480
 20
223.364010
 30
0.0
  0
LWPOLYLINE
  5
118
100
AcDbEntity
  8
Layer_1
 62
7
100
AcDbPolyline
 90
5
 70
0
 10
-1.416719
 20
223.364010
 30
0.0
 10
-1.416719
 20
226.364010
 30
0.0
 10
19.492381
 20
226.364010
 30
0.0
 10
19.492381
 20
223.364010
 30
0.0
 10
-1.416719
 20
223.364010
 30
0.0
  0
LWPOLYLINE
  5
119
100
AcDbEntity
  8
Layer_1
 62
7
100
AcDbPolyline
 90
5
 70
0
 10
-43.234919
 20
223.364010
 30
0.0
 10
-43.234919
 20
226.364010
 30
0.0
 10
-22.325818
 20
226.364010
 30
0.0
 10
-22.325818
 20
223.364010
 30
0.0
 10
-43.234919
 20
223.364010
 30
0.0
  0
LWPOLYLINE
  5
11a
100
AcDbEntity
  8
Layer_1
 62
7
100
AcDbPolyline
 90
45
 70
0
 10
-22.325818
 20
150.864011
 30
0.0
 10
-1.416719
 20
150.864011
 30
0.0
 10
-1.416719
 20
147.864009
 30
0.0
 10
19.492381
 20
147.864009
 30
0.0
 10
19.492381
 20
150.864011
 30
0.0
 10
40.401480
 20
150.864011
 30
0.0
 10
40.401480
 20
147.864009
 30
0.0
 10
61.310083
 20
147.864009
 30
0.0
 10
61.310083
 20
150.864011
 30
0.0
 10
82.220082
 20
150.864011
 30
0.0
 10
82.220082
 20
147.864009
 30
0.0
 10
103.129080
 20
147.864009
 30
0.0
 10
103.129080
 20
150.864011
 30
0.0
 10
124.038081
 20
150.864011
 30
0.0
 10
124.038081
 20
147.864009
 30
0.0
 10
144.947081
 20
147.864009
 30
0.0
 10
144.947081
 20
150.864011
 30
0.0
 10
165.856082
 20
150.864011
 30
0.0
 10
165.856082
 20
147.864009
 30
0.0
 10
186.765082
 20
147.864009
 30
0.0
 10
186.765082
 20
207.864010
 30
0.0
 10
165.856082
 20
207.864010
 30
0.0
 10
165.856082
 20
204.864011
 30
0.0
 10
144.947081
 20
204.864011
 30
0.0
 10
144.947081
 20
207.864010
 30
0.0
 10
124.038081
 20
207.864010
 30
0.0
 10
124.038081
 20
204.864011
 30
0.0
 10
103.129080
 20
204.864011
 30
0.0
 10
103.129080
 20
207.864010
 30
0.0
 10
82.220082
 20
207.864010
 30
0.0
 10
82.220082
 20
204.864011
 30
0.0
 10
61.310083
 20
204.864011
 30
0.0
 10
61.310083
 20
207.864010
 30
0.0
 10
40.401480
 20
207.864010
 30
0.0
 10
40.401480
 20
204.864011
 30
0.0
 10
19.492381
 20
204.864011
 30
0.0
 10
19.492381
 20
207.864010
 30
0.0
 10
-1.416719
 20
207.864010
 30
0.0
 10
-1.416719
 20
204.864011
 30
0.0
 10
-22.325818
 20
204.864011
 30
0.0
 10
-22.325818
 20
207.864010
 30
0.0
 10
-43.234919
 20
207.864010
 30
0.0
 10
-43.234919
 20
147.864009
 30
0.0
 10
-22.325818
 20
147.864009
 30
0.0
 10
-22.325818
 20
150.864011
 30
0.0
  0
LWPOLYLINE
  5
11b
100
AcDbEntity
  8
Layer_1
 62
7
100
AcDbPolyline
 90
17
 70
0
 10
-27.159918
 20
171.066011
 30
0.0
 10
-29.585720
 20
173.250011
 30
0.0
 10
-30.484919
 20
175.270011
 30
0.0
 10
-30.484919
 20
180.458011
 30
0.0
 10
-29.585720
 20
182.478011
 30
0.0
 10
-27.159918
 20
184.662011
 30
0.0
 10
-24.055420
 20
185.671011
 30
0.0
 10
-20.809119
 20
185.330011
 30
0.0
 10
-17.982218
 20
183.698010
 30
0.0
 10
-16.063618
 20
181.057011
 30
0.0
 10
-15.984920
 20
180.687009
 30
0.0
 10
-15.984920
 20
175.041010
 30
0.0
 10
-16.063618
 20
174.671011
 30
0.0
 10
-17.982218
 20
172.030009
 30
0.0
 10
-20.809119
 20
170.398011
 30
0.0
 10
-24.055420
 20
170.057011
 30
0.0
 10
-27.159918
 20
171.066011
 30
0.0
  0
LWPOLYLINE
  5
11c
100
AcDbEntity
  8
Layer_1
 62
7
100
AcDbPolyline
 90
19
 70
0
 10
194.855081
 20
21.353442
 30
0.0
 10
198.456082
 20
23.432544
 30
0.0
 10
200.900081
 20
26.796633
 30
0.0
 10
201.765081
 20
30.864020
 30
0.0
 10
201.765081
 20
130.864009
 30
0.0
 10
200.900081
 20
134.931009
 30
0.0
 10
198.456082
 20
138.295010
 30
0.0
 10
194.855081
 20
140.375011
 30
0.0
 10
190.720083
 20
140.809009
 30
0.0
 10
-49.280209
 20
140.809009
 30
0.0
 10
-53.234919
 20
139.524009
 30
0.0
 10
-56.325099
 20
136.742009
 30
0.0
 10
-58.016398
 20
132.943010
 30
0.0
 10
-58.016398
 20
28.784889
 30
0.0
 10
-56.325099
 20
24.986150
 30
0.0
 10
-53.234939
 20
22.203749
 30
0.0
 10
-49.280209
 20
20.918791
 30
0.0
 10
190.720083
 20
20.918791
 30
0.0
 10
194.855081
 20
21.353442
 30
0.0
  0
LWPOLYLINE
  5
11d
100
AcDbEntity
  8
Layer_1
 62
7
100
AcDbPolyline
 90
16
 70
0
 10
-49.034919
 20
129.478010
 30
0.0
 10
-49.529349
 20
129.924012
 30
0.0
 10
-49.799969
 20
130.531009
 30
0.0
 10
-49.799969
 20
131.197012
 30
0.0
 10
-49.529349
 20
131.804009
 30
0.0
 10
-49.034919
 20
132.250011
 30
0.0
 10
-48.402169
 20
132.455011
 30
0.0
 10
-47.740519
 20
132.386011
 30
0.0
 10
-47.164319
 20
132.053011
 30
0.0
 10
-46.773219
 20
131.515011
 30
0.0
 10
-46.634919
 20
130.864009
 30
0.0
 10
-46.773219
 20
130.213010
 30
0.0
 10
-47.164319
 20
129.675010
 30
0.0
 10
-47.740519
 20
129.342010
 30
0.0
 10
-48.402169
 20
129.273010
 30
0.0
 10
-49.034919
 20
129.478010
 30
0.0
  0
LWPOLYLINE
  5
11e
100
AcDbEntity
  8
Layer_1
 62
7
100
AcDbPolyline
 90
16
 70
0
 10
190.965082
 20
129.478010
 30
0.0
 10
190.471081
 20
129.924012
 30
0.0
 10
190.200082
 20
130.531009
 30
0.0
 10
190.200082
 20
131.197012
 30
0.0
 10
190.471081
 20
131.804009
 30
0.0
 10
190.965082
 20
132.250011
 30
0.0
 10
191.598082
 20
132.455011
 30
0.0
 10
192.259083
 20
132.386011
 30
0.0
 10
192.836080
 20
132.053011
 30
0.0
 10
193.227082
 20
131.515011
 30
0.0
 10
193.365080
 20
130.864009
 30
0.0
 10
193.227082
 20
130.213010
 30
0.0
 10
192.836080
 20
129.675010
 30
0.0
 10
192.259083
 20
129.342010
 30
0.0
 10
191.598082
 20
129.273010
 30
0.0
 10
190.965082
 20
129.478010
 30
0.0
  0
LWPOLYLINE
  5
11f
100
AcDbEntity
  8
Layer_1
 62
7
100
AcDbPolyline
 90
5
 70
0
 10
-43.234919
 20
129.364009
 30
0.0
 10
-43.234919
 20
132.364012
 30
0.0
 10
-22.325818
 20
132.364012
 30
0.0
 10
-22.325818
 20
129.364009
 30
0.0
 10
-43.234919
 20
129.364009
 30
0.0
  0
LWPOLYLINE
  5
120
100
AcDbEntity
  8
Layer_1
 62
7
100
AcDbPolyline
 90
5
 70
0
 10
-1.416719
 20
129.364009
 30
0.0
 10
-1.416719
 20
132.364012
 30
0.0
 10
19.492381
 20
132.364012
 30
0.0
 10
19.492381
 20
129.364009
 30
0.0
 10
-1.416719
 20
129.364009
 30
0.0
  0
LWPOLYLINE
  5
121
100
AcDbEntity
  8
Layer_1
 62
7
100
AcDbPolyline
 90
5
 70
0
 10
40.401480
 20
129.364009
 30
0.0
 10
40.401480
 20
132.364012
 30
0.0
 10
61.310083
 20
132.364012
 30
0.0
 10
61.310083
 20
129.364009
 30
0.0
 10
40.401480
 20
129.364009
 30
0.0
  0
LWPOLYLINE
  5
122
100
AcDbEntity
  8
Layer_1
 62
7
100
AcDbPolyline
 90
5
 70
0
 10
82.220082
 20
129.364009
 30
0.0
 10
82.220082
 20
132.364012
 30
0.0
 10
103.129080
 20
132.364012
 30
0.0
 10
103.129080
 20
129.364009
 30
0.0
 10
82.220082
 20
129.364009
 30
0.0
  0
LWPOLYLINE
  5
123
100
AcDbEntity
  8
Layer_1
 62
7
100
AcDbPolyline
 90
5
 70
0
 10
124.038081
 20
129.364009
 30
0.0
 10
124.038081
 20
132.364012
 30
0.0
 10
144.947081
 20
132.364012
 30
0.0
 10
144.947081
 20
129.364009
 30
0.0
 10
124.038081
 20
129.364009
 30
0.0
  0
LWPOLYLINE
  5
124
100
AcDbEntity
  8
Layer_1
 62
7
100
AcDbPolyline
 90
5
 70
0
 10
165.856082
 20
129.364009
 30
0.0
 10
165.856082
 20
132.364012
 30
0.0
 10
186.765082
 20
132.364012
 30
0.0
 10
186.765082
 20
129.364009
 30
0.0
 10
165.856082
 20
129.364009
 30
0.0
  0
LWPOLYLINE
  5
125
100
AcDbEntity
  8
Layer_1
 62
7
100
AcDbPolyline
 90
5
 70
0
 10
190.265081
 20
113.006912
 30
0.0
 10
190.265081
 20
125.864011
 30
0.0
 10
193.265081
 20
125.864011
 30
0.0
 10
193.265081
 20
113.006912
 30
0.0
 10
190.265081
 20
113.006912
 30
0.0
  0
LWPOLYLINE
  5
126
100
AcDbEntity
  8
Layer_1
 62
7
100
AcDbPolyline
 90
5
 70
0
 10
-49.734919
 20
113.006912
 30
0.0
 10
-49.734919
 20
125.864011
 30
0.0
 10
-46.734919
 20
125.864011
 30
0.0
 10
-46.734919
 20
113.006912
 30
0.0
 10
-49.734919
 20
113.006912
 30
0.0
  0
LWPOLYLINE
  5
127
100
AcDbEntity
  8
Layer_1
 62
7
100
AcDbPolyline
 90
19
 70
0
 10
95.811080
 20
35.929610
 30
0.0
 10
94.672082
 20
36.436910
 30
0.0
 10
93.837083
 20
37.364010
 30
0.0
 10
93.451082
 20
38.550410
 30
0.0
 10
93.451082
 20
117.550410
 30
0.0
 10
93.582081
 20
118.791011
 30
0.0
 10
94.206083
 20
119.871411
 30
0.0
 10
95.215081
 20
120.604610
 30
0.0
 10
96.435082
 20
120.864009
 30
0.0
 10
146.435081
 20
120.864009
 30
0.0
 10
147.655082
 20
120.604610
 30
0.0
 10
148.664081
 20
119.871411
 30
0.0
 10
149.288082
 20
118.791011
 30
0.0
 10
149.419081
 20
117.550410
 30
0.0
 10
149.419081
 20
38.550410
 30
0.0
 10
149.033080
 20
37.364010
 30
0.0
 10
148.198081
 20
36.436910
 30
0.0
 10
147.059080
 20
35.929610
 30
0.0
 10
95.811080
 20
35.929610
 30
0.0
  0
LWPOLYLINE
  5
128
100
AcDbEntity
  8
Layer_1
 62
7
100
AcDbPolyline
 90
16
 70
0
 10
146.743081
 20
96.251610
 30
0.0
 10
147.126082
 20
96.676509
 30
0.0
 10
147.302082
 20
97.220309
 30
0.0
 10
147.243080
 20
97.788911
 30
0.0
 10
146.957082
 20
98.284010
 30
0.0
 10
146.494082
 20
98.620109
 30
0.0
 10
145.935082
 20
98.739012
 30
0.0
 10
145.376082
 20
98.620109
 30
0.0
 10
144.913082
 20
98.284010
 30
0.0
 10
144.627081
 20
97.788911
 30
0.0
 10
144.568082
 20
97.220309
 30
0.0
 10
144.744082
 20
96.676509
 30
0.0
 10
145.127083
 20
96.251610
 30
0.0
 10
145.649081
 20
96.019011
 30
0.0
 10
146.221080
 20
96.019011
 30
0.0
 10
146.743081
 20
96.251610
 30
0.0
  0
LWPOLYLINE
  5
129
100
AcDbEntity
  8
Layer_1
 62
7
100
AcDbPolyline
 90
16
 70
0
 10
97.743081
 20
96.251610
 30
0.0
 10
98.126082
 20
96.676509
 30
0.0
 10
98.302081
 20
97.220309
 30
0.0
 10
98.243082
 20
97.788911
 30
0.0
 10
97.957081
 20
98.284010
 30
0.0
 10
97.494082
 20
98.620109
 30
0.0
 10
96.935081
 20
98.739012
 30
0.0
 10
96.376081
 20
98.620109
 30
0.0
 10
95.913081
 20
98.284010
 30
0.0
 10
95.627080
 20
97.788911
 30
0.0
 10
95.568081
 20
97.220309
 30
0.0
 10
95.744081
 20
96.676509
 30
0.0
 10
96.127082
 20
96.251610
 30
0.0
 10
96.649080
 20
96.019011
 30
0.0
 10
97.221082
 20
96.019011
 30
0.0
 10
97.743081
 20
96.251610
 30
0.0
  0
LWPOLYLINE
  5
12a
100
AcDbEntity
  8
Layer_1
 62
7
100
AcDbPolyline
 90
16
 70
0
 10
97.743081
 20
38.251610
 30
0.0
 10
98.126082
 20
38.676510
 30
0.0
 10
98.302081
 20
39.220310
 30
0.0
 10
98.243082
 20
39.788911
 30
0.0
 10
97.957081
 20
40.284011
 30
0.0
 10
97.494082
 20
40.620109
 30
0.0
 10
96.935081
 20
40.739009
 30
0.0
 10
96.376081
 20
40.620109
 30
0.0
 10
95.913081
 20
40.284011
 30
0.0
 10
95.627080
 20
39.788911
 30
0.0
 10
95.568081
 20
39.220310
 30
0.0
 10
95.744081
 20
38.676510
 30
0.0
 10
96.127082
 20
38.251610
 30
0.0
 10
96.649080
 20
38.019011
 30
0.0
 10
97.221082
 20
38.019011
 30
0.0
 10
97.743081
 20
38.251610
 30
0.0
  0
LWPOLYLINE
  5
12b
100
AcDbEntity
  8
Layer_1
 62
7
100
AcDbPolyline
 90
16
 70
0
 10
146.743081
 20
38.251610
 30
0.0
 10
147.126082
 20
38.676510
 30
0.0
 10
147.302082
 20
39.220310
 30
0.0
 10
147.243080
 20
39.788911
 30
0.0
 10
146.957082
 20
40.284011
 30
0.0
 10
146.494082
 20
40.620109
 30
0.0
 10
145.935082
 20
40.739009
 30
0.0
 10
145.376082
 20
40.620109
 30
0.0
 10
144.913082
 20
40.284011
 30
0.0
 10
144.627081
 20
39.788911
 30
0.0
 10
144.568082
 20
39.220310
 30
0.0
 10
144.744082
 20
38.676510
 30
0.0
 10
145.127083
 20
38.251610
 30
0.0
 10
145.649081
 20
38.019011
 30
0.0
 10
146.221080
 20
38.019011
 30
0.0
 10
146.743081
 20
38.251610
 30
0.0
  0
LWPOLYLINE
  5
12c
100
AcDbEntity
  8
Layer_1
 62
7
100
AcDbPolyline
 90
5
 70
0
 10
32.435080
 20
35.864010
 30
0.0
 10
32.435080
 20
111.864010
 30
0.0
 10
83.435083
 20
111.864010
 30
0.0
 10
83.435083
 20
35.864010
 30
0.0
 10
32.435080
 20
35.864010
 30
0.0
  0
LWPOLYLINE
  5
12d
100
AcDbEntity
  8
Layer_1
 62
7
100
AcDbPolyline
 90
16
 70
0
 10
82.375081
 20
64.569611
 30
0.0
 10
82.821080
 20
65.064011
 30
0.0
 10
83.026081
 20
65.696711
 30
0.0
 10
82.957080
 20
66.358412
 30
0.0
 10
82.624081
 20
66.934611
 30
0.0
 10
82.086080
 20
67.325712
 30
0.0
 10
81.435081
 20
67.464012
 30
0.0
 10
80.784082
 20
67.325712
 30
0.0
 10
80.246082
 20
66.934611
 30
0.0
 10
79.913082
 20
66.358412
 30
0.0
 10
79.844082
 20
65.696711
 30
0.0
 10
80.049082
 20
65.064011
 30
0.0
 10
80.495081
 20
64.569611
 30
0.0
 10
81.102081
 20
64.299011
 30
0.0
 10
81.768081
 20
64.299011
 30
0.0
 10
82.375081
 20
64.569611
 30
0.0
  0
LWPOLYLINE
  5
12e
100
AcDbEntity
  8
Layer_1
 62
7
100
AcDbPolyline
 90
16
 70
0
 10
37.675481
 20
64.069609
 30
0.0
 10
38.120681
 20
64.564012
 30
0.0
 10
38.326280
 20
65.196712
 30
0.0
 10
38.256780
 20
65.858410
 30
0.0
 10
37.924082
 20
66.434612
 30
0.0
 10
37.385882
 20
66.825710
 30
0.0
 10
36.735080
 20
66.964010
 30
0.0
 10
36.084281
 20
66.825710
 30
0.0
 10
35.546081
 20
66.434612
 30
0.0
 10
35.213380
 20
65.858410
 30
0.0
 10
35.143880
 20
65.196712
 30
0.0
 10
35.349482
 20
64.564012
 30
0.0
 10
35.794580
 20
64.069609
 30
0.0
 10
36.402383
 20
63.799009
 30
0.0
 10
37.067682
 20
63.799009
 30
0.0
 10
37.675481
 20
64.069609
 30
0.0
  0
LWPOLYLINE
  5
12f
100
AcDbEntity
  8
Layer_1
 62
7
100
AcDbPolyline
 90
16
 70
0
 10
37.875481
 20
38.569610
 30
0.0
 10
38.320681
 20
39.064009
 30
0.0
 10
38.526283
 20
39.696712
 30
0.0
 10
38.456783
 20
40.358410
 30
0.0
 10
38.124082
 20
40.934609
 30
0.0
 10
37.585881
 20
41.325710
 30
0.0
 10
36.935083
 20
41.464010
 30
0.0
 10
36.284281
 20
41.325710
 30
0.0
 10
35.746080
 20
40.934609
 30
0.0
 10
35.413380
 20
40.358410
 30
0.0
 10
35.343880
 20
39.696712
 30
0.0
 10
35.549380
 20
39.064009
 30
0.0
 10
35.994580
 20
38.569610
 30
0.0
 10
36.602382
 20
38.299009
 30
0.0
 10
37.267780
 20
38.299009
 30
0.0
 10
37.875481
 20
38.569610
 30
0.0
  0
LWPOLYLINE
  5
130
100
AcDbEntity
  8
Layer_1
 62
7
100
AcDbPolyline
 90
16
 70
0
 10
80.875082
 20
38.569610
 30
0.0
 10
81.321080
 20
39.064009
 30
0.0
 10
81.526081
 20
39.696712
 30
0.0
 10
81.457080
 20
40.358410
 30
0.0
 10
81.124081
 20
40.934609
 30
0.0
 10
80.586080
 20
41.325710
 30
0.0
 10
79.935081
 20
41.464010
 30
0.0
 10
79.284082
 20
41.325710
 30
0.0
 10
78.746082
 20
40.934609
 30
0.0
 10
78.413082
 20
40.358410
 30
0.0
 10
78.344082
 20
39.696712
 30
0.0
 10
78.549082
 20
39.064009
 30
0.0
 10
78.995081
 20
38.569610
 30
0.0
 10
79.602082
 20
38.299009
 30
0.0
 10
80.268081
 20
38.299009
 30
0.0
 10
80.875082
 20
38.569610
 30
0.0
  0
LWPOLYLINE
  5
131
100
AcDbEntity
  8
Layer_1
 62
7
100
AcDbPolyline
 90
14
 70
0
 10
-30.904919
 20
33.284019
 30
0.0
 10
-30.904919
 20
43.284010
 30
0.0
 10
-25.824919
 20
43.284010
 30
0.0
 10
-28.364919
 20
45.824010
 30
0.0
 10
-30.904919
 20
45.824010
 30
0.0
 10
-30.904919
 20
111.864010
 30
0.0
 10
22.435081
 20
111.864010
 30
0.0
 10
22.435081
 20
47.094010
 30
0.0
 10
21.165081
 20
45.824010
 30
0.0
 10
9.735081
 20
45.824010
 30
0.0
 10
7.195081
 20
43.284010
 30
0.0
 10
22.435081
 20
43.284010
 30
0.0
 10
22.435081
 20
33.284019
 30
0.0
 10
-30.904919
 20
33.284019
 30
0.0
  0
LWPOLYLINE
  5
132
100
AcDbEntity
  8
Layer_1
 62
7
100
AcDbPolyline
 90
33
 70
0
 10
-28.052818
 20
96.324711
 30
0.0
 10
-27.752619
 20
96.415809
 30
0.0
 10
-27.476018
 20
96.563609
 30
0.0
 10
-27.233618
 20
96.762610
 30
0.0
 10
-27.034620
 20
97.005109
 30
0.0
 10
-26.886718
 20
97.281710
 30
0.0
 10
-26.795719
 20
97.581811
 30
0.0
 10
-26.764920
 20
97.894010
 30
0.0
 10
-26.795719
 20
98.206111
 30
0.0
 10
-26.886718
 20
98.506311
 30
0.0
 10
-27.034620
 20
98.782912
 30
0.0
 10
-27.233618
 20
99.025411
 30
0.0
 10
-27.476018
 20
99.224310
 30
0.0
 10
-27.752619
 20
99.372211
 30
0.0
 10
-28.052818
 20
99.463211
 30
0.0
 10
-28.364919
 20
99.494010
 30
0.0
 10
-28.677119
 20
99.463211
 30
0.0
 10
-28.977217
 20
99.372211
 30
0.0
 10
-29.253818
 20
99.224310
 30
0.0
 10
-29.496320
 20
99.025411
 30
0.0
 10
-29.695318
 20
98.782912
 30
0.0
 10
-29.843118
 20
98.506311
 30
0.0
 10
-29.934219
 20
98.206111
 30
0.0
 10
-29.964919
 20
97.894010
 30
0.0
 10
-29.934219
 20
97.581811
 30
0.0
 10
-29.843118
 20
97.281710
 30
0.0
 10
-29.695318
 20
97.005109
 30
0.0
 10
-29.496320
 20
96.762610
 30
0.0
 10
-29.253818
 20
96.563609
 30
0.0
 10
-28.977217
 20
96.415809
 30
0.0
 10
-28.677119
 20
96.324711
 30
0.0
 10
-28.364919
 20
96.294011
 30
0.0
 10
-28.052818
 20
96.324711
 30
0.0
  0
LWPOLYLINE
  5
133
100
AcDbEntity
  8
Layer_1
 62
7
100
AcDbPolyline
 90
33
 70
0
 10
20.207182
 20
95.054711
 30
0.0
 10
20.507381
 20
95.145809
 30
0.0
 10
20.783982
 20
95.293609
 30
0.0
 10
21.026481
 20
95.492610
 30
0.0
 10
21.225380
 20
95.735109
 30
0.0
 10
21.373282
 20
96.011710
 30
0.0
 10
21.464281
 20
96.311811
 30
0.0
 10
21.495080
 20
96.624010
 30
0.0
 10
21.464281
 20
96.936111
 30
0.0
 10
21.373282
 20
97.236311
 30
0.0
 10
21.225380
 20
97.512912
 30
0.0
 10
21.026481
 20
97.755411
 30
0.0
 10
20.783982
 20
97.954310
 30
0.0
 10
20.507381
 20
98.102211
 30
0.0
 10
20.207182
 20
98.193310
 30
0.0
 10
19.895081
 20
98.224010
 30
0.0
 10
19.582881
 20
98.193310
 30
0.0
 10
19.282783
 20
98.102211
 30
0.0
 10
19.006182
 20
97.954310
 30
0.0
 10
18.763680
 20
97.755411
 30
0.0
 10
18.564682
 20
97.512912
 30
0.0
 10
18.416882
 20
97.236311
 30
0.0
 10
18.325781
 20
96.936111
 30
0.0
 10
18.295081
 20
96.624010
 30
0.0
 10
18.325781
 20
96.311811
 30
0.0
 10
18.416882
 20
96.011710
 30
0.0
 10
18.564682
 20
95.735109
 30
0.0
 10
18.763680
 20
95.492610
 30
0.0
 10
19.006182
 20
95.293609
 30
0.0
 10
19.282783
 20
95.145809
 30
0.0
 10
19.582881
 20
95.054711
 30
0.0
 10
19.895081
 20
95.024011
 30
0.0
 10
20.207182
 20
95.054711
 30
0.0
  0
LWPOLYLINE
  5
134
100
AcDbEntity
  8
Layer_1
 62
7
100
AcDbPolyline
 90
33
 70
0
 10
-22.972818
 20
44.254711
 30
0.0
 10
-22.672619
 20
44.345809
 30
0.0
 10
-22.396018
 20
44.493609
 30
0.0
 10
-22.153618
 20
44.692610
 30
0.0
 10
-21.954620
 20
44.935109
 30
0.0
 10
-21.806718
 20
45.211710
 30
0.0
 10
-21.715719
 20
45.511811
 30
0.0
 10
-21.684920
 20
45.824010
 30
0.0
 10
-21.715719
 20
46.136111
 30
0.0
 10
-21.806718
 20
46.436311
 30
0.0
 10
-21.954620
 20
46.712912
 30
0.0
 10
-22.153618
 20
46.955411
 30
0.0
 10
-22.396018
 20
47.154310
 30
0.0
 10
-22.672619
 20
47.302211
 30
0.0
 10
-22.972818
 20
47.393310
 30
0.0
 10
-23.284919
 20
47.424010
 30
0.0
 10
-23.597119
 20
47.393310
 30
0.0
 10
-23.897217
 20
47.302211
 30
0.0
 10
-24.173818
 20
47.154310
 30
0.0
 10
-24.416320
 20
46.955411
 30
0.0
 10
-24.615318
 20
46.712912
 30
0.0
 10
-24.763118
 20
46.436311
 30
0.0
 10
-24.854219
 20
46.136111
 30
0.0
 10
-24.884919
 20
45.824010
 30
0.0
 10
-24.854219
 20
45.511811
 30
0.0
 10
-24.763118
 20
45.211710
 30
0.0
 10
-24.615318
 20
44.935109
 30
0.0
 10
-24.416320
 20
44.692610
 30
0.0
 10
-24.173818
 20
44.493609
 30
0.0
 10
-23.897217
 20
44.345809
 30
0.0
 10
-23.597119
 20
44.254711
 30
0.0
 10
-23.284919
 20
44.224011
 30
0.0
 10
-22.972818
 20
44.254711
 30
0.0
  0
LWPOLYLINE
  5
135
100
AcDbEntity
  8
Layer_1
 62
7
100
AcDbPolyline
 90
33
 70
0
 10
4.967182
 20
44.254711
 30
0.0
 10
5.267381
 20
44.345809
 30
0.0
 10
5.543982
 20
44.493609
 30
0.0
 10
5.786382
 20
44.692610
 30
0.0
 10
5.985380
 20
44.935109
 30
0.0
 10
6.133282
 20
45.211710
 30
0.0
 10
6.224281
 20
45.511811
 30
0.0
 10
6.255080
 20
45.824010
 30
0.0
 10
6.224281
 20
46.136111
 30
0.0
 10
6.133282
 20
46.436311
 30
0.0
 10
5.985380
 20
46.712912
 30
0.0
 10
5.786382
 20
46.955411
 30
0.0
 10
5.543982
 20
47.154310
 30
0.0
 10
5.267381
 20
47.302211
 30
0.0
 10
4.967182
 20
47.393310
 30
0.0
 10
4.655081
 20
47.424010
 30
0.0
 10
4.342881
 20
47.393310
 30
0.0
 10
4.042783
 20
47.302211
 30
0.0
 10
3.766182
 20
47.154310
 30
0.0
 10
3.523680
 20
46.955411
 30
0.0
 10
3.324682
 20
46.712912
 30
0.0
 10
3.176882
 20
46.436311
 30
0.0
 10
3.085781
 20
46.136111
 30
0.0
 10
3.055081
 20
45.824010
 30
0.0
 10
3.085781
 20
45.511811
 30
0.0
 10
3.176882
 20
45.211710
 30
0.0
 10
3.324682
 20
44.935109
 30
0.0
 10
3.523680
 20
44.692610
 30
0.0
 10
3.766182
 20
44.493609
 30
0.0
 10
4.042783
 20
44.345809
 30
0.0
 10
4.342881
 20
44.254711
 30
0.0
 10
4.655081
 20
44.224011
 30
0.0
 10
4.967182
 20
44.254711
 30
0.0
  0
LWPOLYLINE
  5
136
100
AcDbEntity
  8
Layer_1
 62
7
100
AcDbPolyline
 90
5
 70
0
 10
190.265081
 20
87.292609
 30
0.0
 10
190.265081
 20
100.149711
 30
0.0
 10
193.265081
 20
100.149711
 30
0.0
 10
193.265081
 20
87.292609
 30
0.0
 10
190.265081
 20
87.292609
 30
0.0
  0
LWPOLYLINE
  5
137
100
AcDbEntity
  8
Layer_1
 62
7
100
AcDbPolyline
 90
5
 70
0
 10
-49.734919
 20
87.292609
 30
0.0
 10
-49.734919
 20
100.149711
 30
0.0
 10
-46.734919
 20
100.149711
 30
0.0
 10
-46.734919
 20
87.292609
 30
0.0
 10
-49.734919
 20
87.292609
 30
0.0
  0
LWPOLYLINE
  5
138
100
AcDbEntity
  8
Layer_1
 62
7
100
AcDbPolyline
 90
5
 70
0
 10
159.435080
 20
52.530711
 30
0.0
 10
159.435080
 20
87.530712
 30
0.0
 10
177.435081
 20
87.530712
 30
0.0
 10
177.435081
 20
52.530711
 30
0.0
 10
159.435080
 20
52.530711
 30
0.0
  0
LWPOLYLINE
  5
139
100
AcDbEntity
  8
Layer_1
 62
7
100
AcDbPolyline
 90
5
 70
0
 10
154.935081
 20
74.364009
 30
0.0
 10
154.935081
 20
77.364012
 30
0.0
 10
157.935081
 20
77.364012
 30
0.0
 10
157.935081
 20
74.364009
 30
0.0
 10
154.935081
 20
74.364009
 30
0.0
  0
LWPOLYLINE
  5
13a
100
AcDbEntity
  8
Layer_1
 62
7
100
AcDbPolyline
 90
5
 70
0
 10
178.935081
 20
74.364009
 30
0.0
 10
178.935081
 20
77.364012
 30
0.0
 10
181.935080
 20
77.364012
 30
0.0
 10
181.935080
 20
74.364009
 30
0.0
 10
178.935081
 20
74.364009
 30
0.0
  0
LWPOLYLINE
  5
13b
100
AcDbEntity
  8
Layer_1
 62
7
100
AcDbPolyline
 90
5
 70
0
 10
190.265081
 20
61.578310
 30
0.0
 10
190.265081
 20
74.435411
 30
0.0
 10
193.265081
 20
74.435411
 30
0.0
 10
193.265081
 20
61.578310
 30
0.0
 10
190.265081
 20
61.578310
 30
0.0
  0
LWPOLYLINE
  5
13c
100
AcDbEntity
  8
Layer_1
 62
7
100
AcDbPolyline
 90
5
 70
0
 10
-49.734919
 20
61.578310
 30
0.0
 10
-49.734919
 20
74.435411
 30
0.0
 10
-46.734919
 20
74.435411
 30
0.0
 10
-46.734919
 20
61.578310
 30
0.0
 10
-49.734919
 20
61.578310
 30
0.0
  0
LWPOLYLINE
  5
13d
100
AcDbEntity
  8
Layer_1
 62
7
100
AcDbPolyline
 90
5
 70
0
 10
154.935081
 20
62.697309
 30
0.0
 10
154.935081
 20
65.697312
 30
0.0
 10
157.935081
 20
65.697312
 30
0.0
 10
157.935081
 20
62.697309
 30
0.0
 10
154.935081
 20
62.697309
 30
0.0
  0
LWPOLYLINE
  5
13e
100
AcDbEntity
  8
Layer_1
 62
7
100
AcDbPolyline
 90
5
 70
0
 10
178.935081
 20
62.697309
 30
0.0
 10
178.935081
 20
65.697312
 30
0.0
 10
181.935080
 20
65.697312
 30
0.0
 10
181.935080
 20
62.697309
 30
0.0
 10
178.935081
 20
62.697309
 30
0.0
  0
LWPOLYLINE
  5
13f
100
AcDbEntity
  8
Layer_1
 62
7
100
AcDbPolyline
 90
5
 70
0
 10
-49.734919
 20
35.864010
 30
0.0
 10
-49.734919
 20
48.721112
 30
0.0
 10
-46.734919
 20
48.721112
 30
0.0
 10
-46.734919
 20
35.864010
 30
0.0
 10
-49.734919
 20
35.864010
 30
0.0
  0
LWPOLYLINE
  5
140
100
AcDbEntity
  8
Layer_1
 62
7
100
AcDbPolyline
 90
5
 70
0
 10
190.265081
 20
35.864010
 30
0.0
 10
190.265081
 20
48.721112
 30
0.0
 10
193.265081
 20
48.721112
 30
0.0
 10
193.265081
 20
35.864010
 30
0.0
 10
190.265081
 20
35.864010
 30
0.0
  0
LWPOLYLINE
  5
141
100
AcDbEntity
  8
Layer_1
 62
7
100
AcDbPolyline
 90
16
 70
0
 10
-49.034919
 20
29.478365
 30
0.0
 10
-49.529349
 20
29.923543
 30
0.0
 10
-49.799969
 20
30.531336
 30
0.0
 10
-49.799969
 20
31.196704
 30
0.0
 10
-49.529349
 20
31.804413
 30
0.0
 10
-49.034919
 20
32.249618
 30
0.0
 10
-48.402169
 20
32.455217
 30
0.0
 10
-47.740519
 20
32.385706
 30
0.0
 10
-47.164319
 20
32.053022
 30
0.0
 10
-46.773219
 20
31.514824
 30
0.0
 10
-46.634919
 20
30.864020
 30
0.0
 10
-46.773219
 20
30.213216
 30
0.0
 10
-47.164319
 20
29.674961
 30
0.0
 10
-47.740519
 20
29.342306
 30
0.0
 10
-48.402169
 20
29.272766
 30
0.0
 10
-49.034919
 20
29.478365
 30
0.0
  0
LWPOLYLINE
  5
142
100
AcDbEntity
  8
Layer_1
 62
7
100
AcDbPolyline
 90
16
 70
0
 10
190.965082
 20
29.478365
 30
0.0
 10
190.471081
 20
29.923543
 30
0.0
 10
190.200082
 20
30.531336
 30
0.0
 10
190.200082
 20
31.196704
 30
0.0
 10
190.471081
 20
31.804413
 30
0.0
 10
190.965082
 20
32.249618
 30
0.0
 10
191.598082
 20
32.455217
 30
0.0
 10
192.259083
 20
32.385706
 30
0.0
 10
192.836080
 20
32.053022
 30
0.0
 10
193.227082
 20
31.514824
 30
0.0
 10
193.365080
 20
30.864020
 30
0.0
 10
193.227082
 20
30.213216
 30
0.0
 10
192.836080
 20
29.674961
 30
0.0
 10
192.259083
 20
29.342306
 30
0.0
 10
191.598082
 20
29.272766
 30
0.0
 10
190.965082
 20
29.478365
 30
0.0
  0
LWPOLYLINE
  5
143
100
AcDbEntity
  8
Layer_1
 62
7
100
AcDbPolyline
 90
5
 70
0
 10
-43.234919
 20
29.364009
 30
0.0
 10
-43.234919
 20
32.364003
 30
0.0
 10
-22.325818
 20
32.364003
 30
0.0
 10
-22.325818
 20
29.364009
 30
0.0
 10
-43.234919
 20
29.364009
 30
0.0
  0
LWPOLYLINE
  5
144
100
AcDbEntity
  8
Layer_1
 62
7
100
AcDbPolyline
 90
5
 70
0
 10
-1.416719
 20
29.364009
 30
0.0
 10
-1.416719
 20
32.364003
 30
0.0
 10
19.492381
 20
32.364003
 30
0.0
 10
19.492381
 20
29.364009
 30
0.0
 10
-1.416719
 20
29.364009
 30
0.0
  0
LWPOLYLINE
  5
145
100
AcDbEntity
  8
Layer_1
 62
7
100
AcDbPolyline
 90
5
 70
0
 10
40.401480
 20
29.364009
 30
0.0
 10
40.401480
 20
32.364003
 30
0.0
 10
61.310083
 20
32.364003
 30
0.0
 10
61.310083
 20
29.364009
 30
0.0
 10
40.401480
 20
29.364009
 30
0.0
  0
LWPOLYLINE
  5
146
100
AcDbEntity
  8
Layer_1
 62
7
100
AcDbPolyline
 90
5
 70
0
 10
82.220082
 20
29.364009
 30
0.0
 10
82.220082
 20
32.364003
 30
0.0
 10
103.129080
 20
32.364003
 30
0.0
 10
103.129080
 20
29.364009
 30
0.0
 10
82.220082
 20
29.364009
 30
0.0
  0
LWPOLYLINE
  5
147
100
AcDbEntity
  8
Layer_1
 62
7
100
AcDbPolyline
 90
5
 70
0
 10
124.038081
 20
29.364009
 30
0.0
 10
124.038081
 20
32.364003
 30
0.0
 10
144.947081
 20
32.364003
 30
0.0
 10
144.947081
 20
29.364009
 30
0.0
 10
124.038081
 20
29.364009
 30
0.0
  0
LWPOLYLINE
  5
148
100
AcDbEntity
  8
Layer_1
 62
7
100
AcDbPolyline
 90
5
 70
0
 10
165.856082
 20
29.364009
 30
0.0
 10
165.856082
 20
32.364003
 30
0.0
 10
186.765082
 20
32.364003
 30
0.0
 10
186.765082
 20
29.364009
 30
0.0
 10
165.856082
 20
29.364009
 30
0.0
  0
LWPOLYLINE
  5
149
100
AcDbEntity
  8
Layer_1
 62
7
100
AcDbPolyline
 90
29
 70
0
 10
268.765076
 20
48.721112
 30
0.0
 10
265.765082
 20
48.721112
 30
0.0
 10
265.765082
 20
61.578310
 30
0.0
 10
268.765076
 20
61.578310
 30
0.0
 10
268.765076
 20
74.435411
 30
0.0
 10
265.765082
 20
74.435411
 30
0.0
 10
265.765082
 20
87.292609
 30
0.0
 10
268.765076
 20
87.292609
 30
0.0
 10
268.765076
 20
100.149711
 30
0.0
 10
265.765082
 20
100.149711
 30
0.0
 10
265.765082
 20
113.006912
 30
0.0
 10
268.765076
 20
113.006912
 30
0.0
 10
268.765076
 20
125.864011
 30
0.0
 10
208.765081
 20
125.864011
 30
0.0
 10
208.765081
 20
113.006912
 30
0.0
 10
211.765080
 20
113.006912
 30
0.0
 10
211.765080
 20
100.149711
 30
0.0
 10
208.765081
 20
100.149711
 30
0.0
 10
208.765081
 20
87.292609
 30
0.0
 10
211.765080
 20
87.292609
 30
0.0
 10
211.765080
 20
74.435411
 30
0.0
 10
208.765081
 20
74.435411
 30
0.0
 10
208.765081
 20
61.578310
 30
0.0
 10
211.765080
 20
61.578310
 30
0.0
 10
211.765080
 20
48.721112
 30
0.0
 10
208.765081
 20
48.721112
 30
0.0
 10
208.765081
 20
35.864010
 30
0.0
 10
268.765076
 20
35.864010
 30
0.0
 10
268.765076
 20
48.721112
 30
0.0
  0
LWPOLYLINE
  5
14a
100
AcDbEntity
  8
Layer_1
 62
7
100
AcDbPolyline
 90
17
 70
0
 10
248.340090
 20
96.565712
 30
0.0
 10
245.914079
 20
98.749911
 30
0.0
 10
245.015089
 20
100.769609
 30
0.0
 10
245.015089
 20
105.958412
 30
0.0
 10
245.914079
 20
107.978110
 30
0.0
 10
248.340090
 20
110.162309
 30
0.0
 10
251.444083
 20
111.171011
 30
0.0
 10
254.691078
 20
110.829810
 30
0.0
 10
257.518069
 20
109.197710
 30
0.0
 10
259.436080
 20
106.556909
 30
0.0
 10
259.515074
 20
106.186710
 30
0.0
 10
259.515074
 20
100.541311
 30
0.0
 10
259.436080
 20
100.171109
 30
0.0
 10
257.518069
 20
97.530311
 30
0.0
 10
254.691078
 20
95.898211
 30
0.0
 10
251.444083
 20
95.557010
 30
0.0
 10
248.340090
 20
96.565712
 30
0.0
  0
LWPOLYLINE
  5
14b
100
AcDbEntity
  8
Layer_1
 62
7
100
AcDbPolyline
 90
12
 70
0
 10
232.015086
 20
107.046110
 30
0.0
 10
232.015086
 20
108.232011
 30
0.0
 10
232.221080
 20
108.232011
 30
0.0
 10
232.221080
 20
107.750012
 30
0.0
 10
233.704074
 20
107.750012
 30
0.0
 10
233.423093
 20
108.177011
 30
0.0
 10
233.652088
 20
108.177011
 30
0.0
 10
233.935072
 20
107.730011
 30
0.0
 10
233.935072
 20
107.507112
 30
0.0
 10
232.221080
 20
107.507112
 30
0.0
 10
232.221080
 20
107.046110
 30
0.0
 10
232.015086
 20
107.046110
 30
0.0
  0
LWPOLYLINE
  5
14c
100
AcDbEntity
  8
Layer_1
 62
7
100
AcDbPolyline
 90
16
 70
0
 10
223.290082
 20
99.943212
 30
0.0
 10
222.069081
 20
101.042211
 30
0.0
 10
221.401081
 20
102.542710
 30
0.0
 10
221.401081
 20
104.185209
 30
0.0
 10
222.069081
 20
105.685712
 30
0.0
 10
223.290082
 20
106.784812
 30
0.0
 10
224.852089
 20
107.292411
 30
0.0
 10
226.486071
 20
107.120710
 30
0.0
 10
227.908076
 20
106.299409
 30
0.0
 10
228.873078
 20
104.970611
 30
0.0
 10
229.215075
 20
103.364010
 30
0.0
 10
228.873078
 20
101.757410
 30
0.0
 10
227.908076
 20
100.428611
 30
0.0
 10
226.486071
 20
99.607311
 30
0.0
 10
224.852089
 20
99.435610
 30
0.0
 10
223.290082
 20
99.943212
 30
0.0
  0
LWPOLYLINE
  5
14d
100
AcDbEntity
  8
Layer_1
 62
7
100
AcDbPolyline
 90
19
 70
0
 10
232.015086
 20
105.552912
 30
0.0
 10
232.015086
 20
106.810909
 30
0.0
 10
232.186085
 20
106.810909
 30
0.0
 10
232.334082
 20
106.734410
 30
0.0
 10
232.463086
 20
106.642911
 30
0.0
 10
232.577076
 20
106.541409
 30
0.0
 10
232.680087
 20
106.434910
 30
0.0
 10
232.774095
 20
106.326410
 30
0.0
 10
232.945093
 20
106.116411
 30
0.0
 10
233.028095
 20
106.024912
 30
0.0
 10
233.113072
 20
105.947210
 30
0.0
 10
233.202085
 20
105.885912
 30
0.0
 10
233.300072
 20
105.845410
 30
0.0
 10
233.409095
 20
105.831920
 30
0.0
 10
233.547073
 20
105.854912
 30
0.0
 10
233.650084
 20
105.923910
 30
0.0
 10
233.714092
 20
106.033711
 30
0.0
 10
233.736106
 20
106.178909
 30
0.0
 10
233.715193
 20
106.320410
 30
0.0
  0
LWPOLYLINE
  5
14e
100
AcDbEntity
  8
Layer_1
 62
7
100
AcDbPolyline
 90
5
 70
0
 10
233.715080
 20
106.320410
 30
0.0
 10
233.652088
 20
106.434910
 30
0.0
 10
233.551081
 20
106.514412
 30
0.0
 10
233.416094
 20
106.552910
 30
0.0
 10
233.439236
 20
106.799911
 30
0.0
  0
LWPOLYLINE
  5
14f
100
AcDbEntity
  8
Layer_1
 62
7
100
AcDbPolyline
 90
21
 70
0
 10
233.439095
 20
106.799911
 30
0.0
 10
233.643085
 20
106.738211
 30
0.0
 10
233.800086
 20
106.606910
 30
0.0
 10
233.901093
 20
106.416410
 30
0.0
 10
233.935072
 20
106.178909
 30
0.0
 10
233.901093
 20
105.925211
 30
0.0
 10
233.800086
 20
105.737911
 30
0.0
 10
233.637074
 20
105.621709
 30
0.0
 10
233.417082
 20
105.582909
 30
0.0
 10
233.307072
 20
105.595722
 30
0.0
 10
233.198077
 20
105.633910
 30
0.0
 10
233.089083
 20
105.696411
 30
0.0
 10
232.980089
 20
105.783911
 30
0.0
 10
232.842082
 20
105.929410
 30
0.0
 10
232.644075
 20
106.165910
 30
0.0
 10
232.524074
 20
106.305212
 30
0.0
 10
232.416068
 20
106.412911
 30
0.0
 10
232.317092
 20
106.491910
 30
0.0
 10
232.221080
 20
106.544912
 30
0.0
 10
232.221080
 20
105.552912
 30
0.0
 10
232.015086
 20
105.552912
 30
0.0
  0
LWPOLYLINE
  5
150
100
AcDbEntity
  8
Layer_1
 62
7
100
AcDbPolyline
 90
12
 70
0
 10
239.214096
 20
104.301609
 30
0.0
 10
239.214096
 20
104.567609
 30
0.0
 10
238.765080
 20
104.567609
 30
0.0
 10
238.765080
 20
104.796610
 30
0.0
 10
239.214096
 20
104.796610
 30
0.0
 10
239.214096
 20
105.692612
 30
0.0
 10
239.403072
 20
105.692612
 30
0.0
 10
240.685094
 20
104.822611
 30
0.0
 10
240.685094
 20
104.567609
 30
0.0
 10
239.405075
 20
104.567609
 30
0.0
 10
239.405075
 20
104.301609
 30
0.0
 10
239.214096
 20
104.301609
 30
0.0
  0
LWPOLYLINE
  5
151
100
AcDbEntity
  8
Layer_1
 62
7
100
AcDbPolyline
 90
8
 70
0
 10
240.287076
 20
104.865311
 30
0.0
 10
240.252081
 20
104.887607
 30
0.0
 10
239.532075
 20
105.374610
 30
0.0
 10
239.432084
 20
105.447612
 30
0.0
 10
239.404991
 20
105.469597
 30
0.0
 10
239.405075
 20
104.796610
 30
0.0
 10
240.413088
 20
104.796610
 30
0.0
 10
240.287076
 20
104.865311
 30
0.0
  0
LWPOLYLINE
  5
152
100
AcDbEntity
  8
Layer_1
 62
7
100
AcDbPolyline
 90
5
 70
0
 10
232.632081
 20
103.931712
 30
0.0
 10
232.632081
 20
104.587709
 30
0.0
 10
232.847078
 20
104.587709
 30
0.0
 10
232.847078
 20
103.931712
 30
0.0
 10
232.632081
 20
103.931712
 30
0.0
  0
LWPOLYLINE
  5
153
100
AcDbEntity
  8
Layer_1
 62
7
100
AcDbPolyline
 90
35
 70
0
 10
239.079080
 20
102.886211
 30
0.0
 10
238.908082
 20
103.011509
 30
0.0
 10
238.801092
 20
103.215011
 30
0.0
 10
238.765080
 20
103.491510
 30
0.0
 10
238.800076
 20
103.763211
 30
0.0
 10
238.905090
 20
103.968511
 30
0.0
 10
239.074085
 20
104.097512
 30
0.0
 10
239.303080
 20
104.140511
 30
0.0
 10
239.469083
 20
104.114010
 30
0.0
 10
239.607090
 20
104.034511
 30
0.0
 10
239.706094
 20
103.912710
 30
0.0
 10
239.756075
 20
103.761509
 30
0.0
 10
239.761155
 20
103.761509
 30
0.0
 10
239.819095
 20
103.900210
 30
0.0
 10
239.918071
 20
104.006512
 30
0.0
 10
240.049078
 20
104.073209
 30
0.0
 10
240.201083
 20
104.095505
 30
0.0
 10
240.396070
 20
104.055009
 30
0.0
 10
240.551095
 20
103.933509
 30
0.0
 10
240.651086
 20
103.742710
 30
0.0
 10
240.685094
 20
103.496511
 30
0.0
 10
240.652074
 20
103.246011
 30
0.0
 10
240.554087
 20
103.054511
 30
0.0
 10
240.400078
 20
102.932210
 30
0.0
 10
240.199079
 20
102.891511
 30
0.0
 10
240.047074
 20
102.914202
 30
0.0
 10
239.916095
 20
102.982511
 30
0.0
 10
239.818079
 20
103.089010
 30
0.0
 10
239.765078
 20
103.228510
 30
0.0
 10
239.759998
 20
103.228510
 30
0.0
 10
239.708069
 20
103.066709
 30
0.0
 10
239.609094
 20
102.945512
 30
0.0
 10
239.473091
 20
102.869710
 30
0.0
 10
239.306072
 20
102.844507
 30
0.0
 10
239.079080
 20
102.886211
 30
0.0
  0
LWPOLYLINE
  5
154
100
AcDbEntity
  8
Layer_1
 62
7
100
AcDbPolyline
 90
5
 70
0
 10
239.478086
 20
103.122011
 30
0.0
 10
239.585077
 20
103.201510
 30
0.0
 10
239.650072
 20
103.328010
 30
0.0
 10
239.672086
 20
103.497510
 30
0.0
 10
239.648944
 20
103.662209
 30
0.0
  0
LWPOLYLINE
  5
155
100
AcDbEntity
  8
Layer_1
 62
7
100
AcDbPolyline
 90
7
 70
0
 10
239.649085
 20
103.662209
 30
0.0
 10
239.579094
 20
103.786511
 30
0.0
 10
239.469083
 20
103.864512
 30
0.0
 10
239.324078
 20
103.890504
 30
0.0
 10
239.040077
 20
103.790011
 30
0.0
 10
238.946069
 20
103.488510
 30
0.0
 10
238.969211
 20
103.315711
 30
0.0
  0
LWPOLYLINE
  5
156
100
AcDbEntity
  8
Layer_1
 62
7
100
AcDbPolyline
 90
5
 70
0
 10
238.969070
 20
103.315711
 30
0.0
 10
239.037086
 20
103.193512
 30
0.0
 10
239.156071
 20
103.120010
 30
0.0
 10
239.329073
 20
103.095513
 30
0.0
 10
239.478086
 20
103.122011
 30
0.0
  0
LWPOLYLINE
  5
157
100
AcDbEntity
  8
Layer_1
 62
7
100
AcDbPolyline
 90
10
 70
0
 10
240.425083
 20
103.231010
 30
0.0
 10
240.505093
 20
103.496511
 30
0.0
 10
240.485055
 20
103.648011
 30
0.0
 10
240.424095
 20
103.758512
 30
0.0
 10
240.324076
 20
103.826011
 30
0.0
 10
240.185081
 20
103.848504
 30
0.0
 10
240.042079
 20
103.825509
 30
0.0
 10
239.938080
 20
103.756511
 30
0.0
 10
239.874072
 20
103.644511
 30
0.0
 10
239.853188
 20
103.494510
 30
0.0
  0
LWPOLYLINE
  5
158
100
AcDbEntity
  8
Layer_1
 62
7
100
AcDbPolyline
 90
6
 70
0
 10
239.853075
 20
103.494510
 30
0.0
 10
239.871984
 20
103.343010
 30
0.0
 10
239.931081
 20
103.232512
 30
0.0
 10
240.034092
 20
103.165010
 30
0.0
 10
240.185081
 20
103.142517
 30
0.0
 10
240.425083
 20
103.231010
 30
0.0
  0
LWPOLYLINE
  5
159
100
AcDbEntity
  8
Layer_1
 62
7
100
AcDbPolyline
 90
19
 70
0
 10
232.015086
 20
101.669210
 30
0.0
 10
232.015086
 20
102.927209
 30
0.0
 10
232.186085
 20
102.927209
 30
0.0
 10
232.334082
 20
102.850612
 30
0.0
 10
232.463086
 20
102.759211
 30
0.0
 10
232.577076
 20
102.657710
 30
0.0
 10
232.680087
 20
102.551112
 30
0.0
 10
232.774095
 20
102.442710
 30
0.0
 10
232.945093
 20
102.232711
 30
0.0
 10
233.028095
 20
102.141209
 30
0.0
 10
233.113072
 20
102.063412
 30
0.0
 10
233.202085
 20
102.002209
 30
0.0
 10
233.300072
 20
101.961710
 30
0.0
 10
233.409095
 20
101.948220
 30
0.0
 10
233.547073
 20
101.971213
 30
0.0
 10
233.650084
 20
102.040210
 30
0.0
 10
233.714092
 20
102.149910
 30
0.0
 10
233.736106
 20
102.295209
 30
0.0
 10
233.715193
 20
102.436710
 30
0.0
  0
LWPOLYLINE
  5
15a
100
AcDbEntity
  8
Layer_1
 62
7
100
AcDbPolyline
 90
5
 70
0
 10
233.715080
 20
102.436710
 30
0.0
 10
233.652088
 20
102.551112
 30
0.0
 10
233.551081
 20
102.630710
 30
0.0
 10
233.416094
 20
102.669210
 30
0.0
 10
233.439236
 20
102.916211
 30
0.0
  0
LWPOLYLINE
  5
15b
100
AcDbEntity
  8
Layer_1
 62
7
100
AcDbPolyline
 90
21
 70
0
 10
233.439095
 20
102.916211
 30
0.0
 10
233.643085
 20
102.854410
 30
0.0
 10
233.800086
 20
102.723211
 30
0.0
 10
233.901093
 20
102.532711
 30
0.0
 10
233.935072
 20
102.295209
 30
0.0
 10
233.901093
 20
102.041410
 30
0.0
 10
233.800086
 20
101.854212
 30
0.0
 10
233.637074
 20
101.737911
 30
0.0
 10
233.417082
 20
101.699210
 30
0.0
 10
233.307072
 20
101.711910
 30
0.0
 10
233.198077
 20
101.750210
 30
0.0
 10
233.089083
 20
101.812711
 30
0.0
 10
232.980089
 20
101.900211
 30
0.0
 10
232.842082
 20
102.045711
 30
0.0
 10
232.644075
 20
102.282210
 30
0.0
 10
232.524074
 20
102.421411
 30
0.0
 10
232.416068
 20
102.529211
 30
0.0
 10
232.317092
 20
102.608211
 30
0.0
 10
232.221080
 20
102.661111
 30
0.0
 10
232.221080
 20
101.669210
 30
0.0
 10
232.015086
 20
101.669210
 30
0.0
  0
LWPOLYLINE
  5
15c
100
AcDbEntity
  8
Layer_1
 62
7
100
AcDbPolyline
 90
10
 70
0
 10
238.765080
 20
101.704411
 30
0.0
 10
238.765080
 20
101.970411
 30
0.0
 10
240.685094
 20
102.753411
 30
0.0
 10
240.685094
 20
102.483409
 30
0.0
 10
239.331077
 20
101.951409
 30
0.0
 10
238.991084
 20
101.836409
 30
0.0
 10
239.331077
 20
101.721409
 30
0.0
 10
240.685094
 20
101.191410
 30
0.0
 10
240.685094
 20
100.921411
 30
0.0
 10
238.765080
 20
101.704411
 30
0.0
  0
LWPOLYLINE
  5
15d
100
AcDbEntity
  8
Layer_1
 62
7
100
AcDbPolyline
 90
12
 70
0
 10
232.464074
 20
100.117010
 30
0.0
 10
232.464074
 20
100.383010
 30
0.0
 10
232.015086
 20
100.383010
 30
0.0
 10
232.015086
 20
100.612011
 30
0.0
 10
232.464074
 20
100.612011
 30
0.0
 10
232.464074
 20
101.508010
 30
0.0
 10
232.653078
 20
101.508010
 30
0.0
 10
233.935072
 20
100.638009
 30
0.0
 10
233.935072
 20
100.383010
 30
0.0
 10
232.655082
 20
100.383010
 30
0.0
 10
232.655082
 20
100.117010
 30
0.0
 10
232.464074
 20
100.117010
 30
0.0
  0
LWPOLYLINE
  5
15e
100
AcDbEntity
  8
Layer_1
 62
7
100
AcDbPolyline
 90
8
 70
0
 10
233.537083
 20
100.680811
 30
0.0
 10
233.502087
 20
100.703022
 30
0.0
 10
232.782082
 20
101.190010
 30
0.0
 10
232.682090
 20
101.263010
 30
0.0
 10
232.654997
 20
101.285023
 30
0.0
 10
232.655082
 20
100.612011
 30
0.0
 10
233.663095
 20
100.612011
 30
0.0
 10
233.537083
 20
100.680811
 30
0.0
  0
LWPOLYLINE
  5
15f
100
AcDbEntity
  8
Layer_1
 62
7
100
AcDbPolyline
 90
10
 70
0
 10
232.015086
 20
99.014910
 30
0.0
 10
232.015086
 20
99.280910
 30
0.0
 10
233.935072
 20
100.063910
 30
0.0
 10
233.935072
 20
99.793911
 30
0.0
 10
232.581083
 20
99.261910
 30
0.0
 10
232.241090
 20
99.146911
 30
0.0
 10
232.581083
 20
99.031911
 30
0.0
 10
233.935072
 20
98.501911
 30
0.0
 10
233.935072
 20
98.231909
 30
0.0
 10
232.015086
 20
99.014910
 30
0.0
  0
LWPOLYLINE
  5
160
100
AcDbEntity
  8
Layer_1
 62
7
100
AcDbPolyline
 90
5
 70
0
 10
218.765080
 20
45.864010
 30
0.0
 10
218.765080
 20
85.864012
 30
0.0
 10
258.765068
 20
85.864012
 30
0.0
 10
258.765068
 20
45.864010
 30
0.0
 10
218.765080
 20
45.864010
 30
0.0
  0
LWPOLYLINE
  5
161
100
AcDbEntity
  8
Layer_1
 62
7
100
AcDbPolyline
 90
61
 70
0
 10
255.042077
 20
79.228510
 30
0.0
 10
255.316087
 20
79.271910
 30
0.0
 10
255.584085
 20
79.343710
 30
0.0
 10
255.843080
 20
79.443112
 30
0.0
 10
256.090081
 20
79.569011
 30
0.0
 10
256.323084
 20
79.720110
 30
0.0
 10
256.538081
 20
79.894710
 30
0.0
 10
256.734084
 20
80.090812
 30
0.0
 10
256.909090
 20
80.306410
 30
0.0
 10
257.060079
 20
80.539012
 30
0.0
 10
257.186091
 20
80.786111
 30
0.0
 10
257.285095
 20
81.045109
 30
0.0
 10
257.357090
 20
81.313012
 30
0.0
 10
257.400072
 20
81.587010
 30
0.0
 10
257.415030
 20
81.864011
 30
0.0
 10
257.400129
 20
82.141009
 30
0.0
 10
257.357090
 20
82.415010
 30
0.0
 10
257.285095
 20
82.682910
 30
0.0
 10
257.186091
 20
82.941911
 30
0.0
 10
257.060079
 20
83.189011
 30
0.0
 10
256.909090
 20
83.421610
 30
0.0
 10
256.734084
 20
83.637211
 30
0.0
 10
256.538081
 20
83.833310
 30
0.0
 10
256.323084
 20
84.007909
 30
0.0
 10
256.090081
 20
84.159011
 30
0.0
 10
255.843080
 20
84.284911
 30
0.0
 10
255.584085
 20
84.384309
 30
0.0
 10
255.316087
 20
84.456109
 30
0.0
 10
255.042077
 20
84.499509
 30
0.0
 10
254.765076
 20
84.514016
 30
0.0
 10
254.488075
 20
84.499504
 30
0.0
 10
254.214094
 20
84.456109
 30
0.0
 10
253.946096
 20
84.384309
 30
0.0
 10
253.687072
 20
84.284911
 30
0.0
 10
253.440071
 20
84.159011
 30
0.0
 10
253.207068
 20
84.007909
 30
0.0
 10
252.992072
 20
83.833310
 30
0.0
 10
252.796068
 20
83.637211
 30
0.0
 10
252.621090
 20
83.421610
 30
0.0
 10
252.470073
 20
83.189011
 30
0.0
 10
252.344089
 20
82.941911
 30
0.0
 10
252.245086
 20
82.682910
 30
0.0
 10
252.173091
 20
82.415010
 30
0.0
 10
252.130080
 20
82.141009
 30
0.0
 10
252.115122
 20
81.864011
 30
0.0
 10
252.130052
 20
81.587010
 30
0.0
 10
252.173091
 20
81.313012
 30
0.0
 10
252.245086
 20
81.045109
 30
0.0
 10
252.344089
 20
80.786111
 30
0.0
 10
252.470073
 20
80.539012
 30
0.0
 10
252.621090
 20
80.306410
 30
0.0
 10
252.796068
 20
80.090812
 30
0.0
 10
252.992072
 20
79.894710
 30
0.0
 10
253.207068
 20
79.720110
 30
0.0
 10
253.440071
 20
79.569011
 30
0.0
 10
253.687072
 20
79.443112
 30
0.0
 10
253.946096
 20
79.343710
 30
0.0
 10
254.214094
 20
79.271910
 30
0.0
 10
254.488075
 20
79.228510
 30
0.0
 10
254.765076
 20
79.214004
 30
0.0
 10
255.042077
 20
79.228516
 30
0.0
  0
LWPOLYLINE
  5
162
100
AcDbEntity
  8
Layer_1
 62
7
100
AcDbPolyline
 90
61
 70
0
 10
223.042082
 20
79.228510
 30
0.0
 10
223.316080
 20
79.271910
 30
0.0
 10
223.584081
 20
79.343710
 30
0.0
 10
223.843082
 20
79.443112
 30
0.0
 10
224.090089
 20
79.569011
 30
0.0
 10
224.323092
 20
79.720110
 30
0.0
 10
224.538088
 20
79.894710
 30
0.0
 10
224.734092
 20
80.090812
 30
0.0
 10
224.909070
 20
80.306410
 30
0.0
 10
225.060087
 20
80.539012
 30
0.0
 10
225.186071
 20
80.786111
 30
0.0
 10
225.285074
 20
81.045109
 30
0.0
 10
225.357069
 20
81.313012
 30
0.0
 10
225.400080
 20
81.587010
 30
0.0
 10
225.415038
 20
81.864011
 30
0.0
 10
225.400136
 20
82.141009
 30
0.0
 10
225.357069
 20
82.415010
 30
0.0
 10
225.285074
 20
82.682910
 30
0.0
 10
225.186071
 20
82.941911
 30
0.0
 10
225.060087
 20
83.189011
 30
0.0
 10
224.909070
 20
83.421610
 30
0.0
 10
224.734092
 20
83.637211
 30
0.0
 10
224.538088
 20
83.833310
 30
0.0
 10
224.323092
 20
84.007909
 30
0.0
 10
224.090089
 20
84.159011
 30
0.0
 10
223.843082
 20
84.284911
 30
0.0
 10
223.584081
 20
84.384309
 30
0.0
 10
223.316080
 20
84.456109
 30
0.0
 10
223.042082
 20
84.499509
 30
0.0
 10
222.765081
 20
84.514016
 30
0.0
 10
222.488083
 20
84.499504
 30
0.0
 10
222.214082
 20
84.456109
 30
0.0
 10
221.946081
 20
84.384309
 30
0.0
 10
221.687082
 20
84.284911
 30
0.0
 10
221.440081
 20
84.159011
 30
0.0
 10
221.207082
 20
84.007909
 30
0.0
 10
220.992082
 20
83.833310
 30
0.0
 10
220.796081
 20
83.637211
 30
0.0
 10
220.621081
 20
83.421610
 30
0.0
 10
220.470081
 20
83.189011
 30
0.0
 10
220.344083
 20
82.941911
 30
0.0
 10
220.245082
 20
82.682910
 30
0.0
 10
220.173082
 20
82.415010
 30
0.0
 10
220.130082
 20
82.141009
 30
0.0
 10
220.115096
 20
81.864011
 30
0.0
 10
220.130068
 20
81.587010
 30
0.0
 10
220.173082
 20
81.313012
 30
0.0
 10
220.245082
 20
81.045109
 30
0.0
 10
220.344083
 20
80.786111
 30
0.0
 10
220.470081
 20
80.539012
 30
0.0
 10
220.621081
 20
80.306410
 30
0.0
 10
220.796081
 20
80.090812
 30
0.0
 10
220.992082
 20
79.894710
 30
0.0
 10
221.207082
 20
79.720110
 30
0.0
 10
221.440081
 20
79.569011
 30
0.0
 10
221.687082
 20
79.443112
 30
0.0
 10
221.946081
 20
79.343710
 30
0.0
 10
222.214082
 20
79.271910
 30
0.0
 10
222.488083
 20
79.228510
 30
0.0
 10
222.765081
 20
79.214004
 30
0.0
 10
223.042082
 20
79.228516
 30
0.0
  0
LWPOLYLINE
  5
163
100
AcDbEntity
  8
Layer_1
 62
7
100
AcDbPolyline
 90
61
 70
0
 10
240.647079
 20
47.962611
 30
0.0
 10
242.507093
 20
48.257409
 30
0.0
 10
244.327087
 20
48.745010
 30
0.0
 10
246.086094
 20
49.420210
 30
0.0
 10
247.765090
 20
50.275510
 30
0.0
 10
249.345083
 20
51.301709
 30
0.0
 10
250.809083
 20
52.487410
 30
0.0
 10
252.142075
 20
53.819710
 30
0.0
 10
253.327069
 20
55.283910
 30
0.0
 10
254.353088
 20
56.864010
 30
0.0
 10
255.209068
 20
58.542710
 30
0.0
 10
255.884087
 20
60.301711
 30
0.0
 10
256.372078
 20
62.121610
 30
0.0
 10
256.666069
 20
63.982510
 30
0.0
 10
256.765072
 20
65.864009
 30
0.0
 10
256.666069
 20
67.745511
 30
0.0
 10
256.372078
 20
69.606411
 30
0.0
 10
255.884087
 20
71.426310
 30
0.0
 10
255.209068
 20
73.185311
 30
0.0
 10
254.353088
 20
74.864011
 30
0.0
 10
253.327069
 20
76.444111
 30
0.0
 10
252.142075
 20
77.908311
 30
0.0
 10
250.809083
 20
79.240612
 30
0.0
 10
249.345083
 20
80.426309
 30
0.0
 10
247.765090
 20
81.452511
 30
0.0
 10
246.086094
 20
82.307811
 30
0.0
 10
244.327087
 20
82.983011
 30
0.0
 10
242.507093
 20
83.470612
 30
0.0
 10
240.647079
 20
83.765410
 30
0.0
 10
238.765080
 20
83.864010
 30
0.0
 10
236.883081
 20
83.765410
 30
0.0
 10
235.023096
 20
83.470612
 30
0.0
 10
233.203073
 20
82.983011
 30
0.0
 10
231.444094
 20
82.307811
 30
0.0
 10
229.765070
 20
81.452511
 30
0.0
 10
228.185077
 20
80.426309
 30
0.0
 10
226.721077
 20
79.240612
 30
0.0
 10
225.388085
 20
77.908311
 30
0.0
 10
224.203091
 20
76.444111
 30
0.0
 10
223.177080
 20
74.864011
 30
0.0
 10
222.321080
 20
73.185311
 30
0.0
 10
221.646081
 20
71.426310
 30
0.0
 10
221.158082
 20
69.606411
 30
0.0
 10
220.864080
 20
67.745511
 30
0.0
 10
220.765082
 20
65.864009
 30
0.0
 10
220.864080
 20
63.982510
 30
0.0
 10
221.158082
 20
62.121610
 30
0.0
 10
221.646081
 20
60.301711
 30
0.0
 10
222.321080
 20
58.542710
 30
0.0
 10
223.177080
 20
56.864010
 30
0.0
 10
224.203091
 20
55.283910
 30
0.0
 10
225.388085
 20
53.819710
 30
0.0
 10
226.721077
 20
52.487410
 30
0.0
 10
228.185077
 20
51.301709
 30
0.0
 10
229.765070
 20
50.275510
 30
0.0
 10
231.444094
 20
49.420210
 30
0.0
 10
233.203073
 20
48.745010
 30
0.0
 10
235.023096
 20
48.257409
 30
0.0
 10
236.883081
 20
47.962611
 30
0.0
 10
238.765080
 20
47.864011
 30
0.0
 10
240.647079
 20
47.962611
 30
0.0
  0
LWPOLYLINE
  5
164
100
AcDbEntity
  8
Layer_1
 62
7
100
AcDbPolyline
 90
61
 70
0
 10
255.042077
 20
47.228509
 30
0.0
 10
255.316087
 20
47.271909
 30
0.0
 10
255.584085
 20
47.343709
 30
0.0
 10
255.843080
 20
47.443111
 30
0.0
 10
256.090081
 20
47.569010
 30
0.0
 10
256.323084
 20
47.720109
 30
0.0
 10
256.538081
 20
47.894712
 30
0.0
 10
256.734084
 20
48.090811
 30
0.0
 10
256.909090
 20
48.306412
 30
0.0
 10
257.060079
 20
48.539011
 30
0.0
 10
257.186091
 20
48.786110
 30
0.0
 10
257.285095
 20
49.045111
 30
0.0
 10
257.357090
 20
49.313011
 30
0.0
 10
257.400072
 20
49.587009
 30
0.0
 10
257.415030
 20
49.864010
 30
0.0
 10
257.400129
 20
50.141011
 30
0.0
 10
257.357090
 20
50.415010
 30
0.0
 10
257.285095
 20
50.682909
 30
0.0
 10
257.186091
 20
50.941910
 30
0.0
 10
257.060079
 20
51.189010
 30
0.0
 10
256.909090
 20
51.421612
 30
0.0
 10
256.734084
 20
51.637210
 30
0.0
 10
256.538081
 20
51.833312
 30
0.0
 10
256.323084
 20
52.007911
 30
0.0
 10
256.090081
 20
52.159010
 30
0.0
 10
255.843080
 20
52.284910
 30
0.0
 10
255.584085
 20
52.384311
 30
0.0
 10
255.316087
 20
52.456111
 30
0.0
 10
255.042077
 20
52.499511
 30
0.0
 10
254.765076
 20
52.514018
 30
0.0
 10
254.488075
 20
52.499503
 30
0.0
 10
254.214094
 20
52.456111
 30
0.0
 10
253.946096
 20
52.384311
 30
0.0
 10
253.687072
 20
52.284910
 30
0.0
 10
253.440071
 20
52.159010
 30
0.0
 10
253.207068
 20
52.007911
 30
0.0
 10
252.992072
 20
51.833312
 30
0.0
 10
252.796068
 20
51.637210
 30
0.0
 10
252.621090
 20
51.421612
 30
0.0
 10
252.470073
 20
51.189010
 30
0.0
 10
252.344089
 20
50.941910
 30
0.0
 10
252.245086
 20
50.682909
 30
0.0
 10
252.173091
 20
50.415010
 30
0.0
 10
252.130080
 20
50.141011
 30
0.0
 10
252.115122
 20
49.864010
 30
0.0
 10
252.130052
 20
49.587009
 30
0.0
 10
252.173091
 20
49.313011
 30
0.0
 10
252.245086
 20
49.045111
 30
0.0
 10
252.344089
 20
48.786110
 30
0.0
 10
252.470073
 20
48.539011
 30
0.0
 10
252.621090
 20
48.306412
 30
0.0
 10
252.796068
 20
48.090811
 30
0.0
 10
252.992072
 20
47.894712
 30
0.0
 10
253.207068
 20
47.720109
 30
0.0
 10
253.440071
 20
47.569010
 30
0.0
 10
253.687072
 20
47.443111
 30
0.0
 10
253.946096
 20
47.343709
 30
0.0
 10
254.214094
 20
47.271909
 30
0.0
 10
254.488075
 20
47.228509
 30
0.0
 10
254.765076
 20
47.214003
 30
0.0
 10
255.042077
 20
47.228517
 30
0.0
  0
LWPOLYLINE
  5
165
100
AcDbEntity
  8
Layer_1
 62
7
100
AcDbPolyline
 90
61
 70
0
 10
223.042082
 20
47.228509
 30
0.0
 10
223.316080
 20
47.271909
 30
0.0
 10
223.584081
 20
47.343709
 30
0.0
 10
223.843082
 20
47.443111
 30
0.0
 10
224.090089
 20
47.569010
 30
0.0
 10
224.323092
 20
47.720109
 30
0.0
 10
224.538088
 20
47.894712
 30
0.0
 10
224.734092
 20
48.090811
 30
0.0
 10
224.909070
 20
48.306412
 30
0.0
 10
225.060087
 20
48.539011
 30
0.0
 10
225.186071
 20
48.786110
 30
0.0
 10
225.285074
 20
49.045111
 30
0.0
 10
225.357069
 20
49.313011
 30
0.0
 10
225.400080
 20
49.587009
 30
0.0
 10
225.415038
 20
49.864010
 30
0.0
 10
225.400136
 20
50.141011
 30
0.0
 10
225.357069
 20
50.415010
 30
0.0
 10
225.285074
 20
50.682909
 30
0.0
 10
225.186071
 20
50.941910
 30
0.0
 10
225.060087
 20
51.189010
 30
0.0
 10
224.909070
 20
51.421612
 30
0.0
 10
224.734092
 20
51.637210
 30
0.0
 10
224.538088
 20
51.833312
 30
0.0
 10
224.323092
 20
52.007911
 30
0.0
 10
224.090089
 20
52.159010
 30
0.0
 10
223.843082
 20
52.284910
 30
0.0
 10
223.584081
 20
52.384311
 30
0.0
 10
223.316080
 20
52.456111
 30
0.0
 10
223.042082
 20
52.499511
 30
0.0
 10
222.765081
 20
52.514018
 30
0.0
 10
222.488083
 20
52.499503
 30
0.0
 10
222.214082
 20
52.456111
 30
0.0
 10
221.946081
 20
52.384311
 30
0.0
 10
221.687082
 20
52.284910
 30
0.0
 10
221.440081
 20
52.159010
 30
0.0
 10
221.207082
 20
52.007911
 30
0.0
 10
220.992082
 20
51.833312
 30
0.0
 10
220.796081
 20
51.637210
 30
0.0
 10
220.621081
 20
51.421612
 30
0.0
 10
220.470081
 20
51.189010
 30
0.0
 10
220.344083
 20
50.941910
 30
0.0
 10
220.245082
 20
50.682909
 30
0.0
 10
220.173082
 20
50.415010
 30
0.0
 10
220.130082
 20
50.141011
 30
0.0
 10
220.115096
 20
49.864010
 30
0.0
 10
220.130068
 20
49.587009
 30
0.0
 10
220.173082
 20
49.313011
 30
0.0
 10
220.245082
 20
49.045111
 30
0.0
 10
220.344083
 20
48.786110
 30
0.0
 10
220.470081
 20
48.539011
 30
0.0
 10
220.621081
 20
48.306412
 30
0.0
 10
220.796081
 20
48.090811
 30
0.0
 10
220.992082
 20
47.894712
 30
0.0
 10
221.207082
 20
47.720109
 30
0.0
 10
221.440081
 20
47.569010
 30
0.0
 10
221.687082
 20
47.443111
 30
0.0
 10
221.946081
 20
47.343709
 30
0.0
 10
222.214082
 20
47.271909
 30
0.0
 10
222.488083
 20
47.228509
 30
0.0
 10
222.765081
 20
47.214003
 30
0.0
 10
223.042082
 20
47.228517
 30
0.0
  0
LWPOLYLINE
  5
166
100
AcDbEntity
  8
Layer_1
 62
7
100
AcDbPolyline
 90
29
 70
0
 10
-65.234919
 20
48.721112
 30
0.0
 10
-68.234919
 20
48.721112
 30
0.0
 10
-68.234919
 20
61.578310
 30
0.0
 10
-65.234919
 20
61.578310
 30
0.0
 10
-65.234919
 20
74.435411
 30
0.0
 10
-68.234919
 20
74.435411
 30
0.0
 10
-68.234919
 20
87.292609
 30
0.0
 10
-65.234919
 20
87.292609
 30
0.0
 10
-65.234919
 20
100.149711
 30
0.0
 10
-68.234919
 20
100.149711
 30
0.0
 10
-68.234919
 20
113.006912
 30
0.0
 10
-65.234919
 20
113.006912
 30
0.0
 10
-65.234919
 20
125.864011
 30
0.0
 10
-125.234917
 20
125.864011
 30
0.0
 10
-125.234917
 20
113.006912
 30
0.0
 10
-122.234918
 20
113.006912
 30
0.0
 10
-122.234918
 20
100.149711
 30
0.0
 10
-125.234917
 20
100.149711
 30
0.0
 10
-125.234917
 20
87.292609
 30
0.0
 10
-122.234918
 20
87.292609
 30
0.0
 10
-122.234918
 20
74.435411
 30
0.0
 10
-125.234917
 20
74.435411
 30
0.0
 10
-125.234917
 20
61.578310
 30
0.0
 10
-122.234918
 20
61.578310
 30
0.0
 10
-122.234918
 20
48.721112
 30
0.0
 10
-125.234917
 20
48.721112
 30
0.0
 10
-125.234917
 20
35.864010
 30
0.0
 10
-65.234919
 20
35.864010
 30
0.0
 10
-65.234919
 20
48.721112
 30
0.0
  0
LWPOLYLINE
  5
167
100
AcDbEntity
  8
Layer_1
 62
7
100
AcDbPolyline
 90
17
 70
0
 10
-108.159920
 20
96.565712
 30
0.0
 10
-110.585718
 20
98.749911
 30
0.0
 10
-111.484918
 20
100.769609
 30
0.0
 10
-111.484918
 20
105.958412
 30
0.0
 10
-110.585718
 20
107.978110
 30
0.0
 10
-108.159920
 20
110.162309
 30
0.0
 10
-105.055419
 20
111.171011
 30
0.0
 10
-101.809118
 20
110.829810
 30
0.0
 10
-98.982220
 20
109.197710
 30
0.0
 10
-97.063619
 20
106.556909
 30
0.0
 10
-96.984919
 20
106.186710
 30
0.0
 10
-96.984919
 20
100.541311
 30
0.0
 10
-97.063619
 20
100.171109
 30
0.0
 10
-98.982220
 20
97.530311
 30
0.0
 10
-101.809118
 20
95.898211
 30
0.0
 10
-105.055419
 20
95.557010
 30
0.0
 10
-108.159920
 20
96.565712
 30
0.0
  0
LWPOLYLINE
  5
168
100
AcDbEntity
  8
Layer_1
 62
7
100
AcDbPolyline
 90
16
 70
0
 10
-88.209919
 20
99.943212
 30
0.0
 10
-89.430519
 20
101.042211
 30
0.0
 10
-90.098618
 20
102.542710
 30
0.0
 10
-90.098618
 20
104.185209
 30
0.0
 10
-89.430519
 20
105.685712
 30
0.0
 10
-88.209919
 20
106.784812
 30
0.0
 10
-86.647819
 20
107.292411
 30
0.0
 10
-85.014319
 20
107.120710
 30
0.0
 10
-83.591819
 20
106.299409
 30
0.0
 10
-82.626419
 20
104.970611
 30
0.0
 10
-82.284919
 20
103.364010
 30
0.0
 10
-82.626419
 20
101.757410
 30
0.0
 10
-83.591819
 20
100.428611
 30
0.0
 10
-85.014319
 20
99.607311
 30
0.0
 10
-86.647819
 20
99.435610
 30
0.0
 10
-88.209919
 20
99.943212
 30
0.0
  0
LWPOLYLINE
  5
169
100
AcDbEntity
  8
Layer_1
 62
7
100
AcDbPolyline
 90
17
 70
0
 10
-108.159920
 20
74.065712
 30
0.0
 10
-110.585718
 20
76.249911
 30
0.0
 10
-111.484918
 20
78.269609
 30
0.0
 10
-111.484918
 20
83.458411
 30
0.0
 10
-110.585718
 20
85.478109
 30
0.0
 10
-108.159920
 20
87.662312
 30
0.0
 10
-105.055419
 20
88.671011
 30
0.0
 10
-101.809118
 20
88.329810
 30
0.0
 10
-98.982220
 20
86.697710
 30
0.0
 10
-97.063619
 20
84.056912
 30
0.0
 10
-96.984919
 20
83.686709
 30
0.0
 10
-96.984919
 20
78.041311
 30
0.0
 10
-97.063619
 20
77.671109
 30
0.0
 10
-98.982220
 20
75.030310
 30
0.0
 10
-101.809118
 20
73.398211
 30
0.0
 10
-105.055419
 20
73.057010
 30
0.0
 10
-108.159920
 20
74.065712
 30
0.0
  0
LWPOLYLINE
  5
16a
100
AcDbEntity
  8
Layer_1
 62
7
100
AcDbPolyline
 90
16
 70
0
 10
-88.209919
 20
77.443212
 30
0.0
 10
-89.430519
 20
78.542210
 30
0.0
 10
-90.098618
 20
80.042710
 30
0.0
 10
-90.098618
 20
81.685209
 30
0.0
 10
-89.430519
 20
83.185711
 30
0.0
 10
-88.209919
 20
84.284812
 30
0.0
 10
-86.647819
 20
84.792411
 30
0.0
 10
-85.014319
 20
84.620710
 30
0.0
 10
-83.591819
 20
83.799409
 30
0.0
 10
-82.626419
 20
82.470611
 30
0.0
 10
-82.284919
 20
80.864010
 30
0.0
 10
-82.626419
 20
79.257409
 30
0.0
 10
-83.591819
 20
77.928611
 30
0.0
 10
-85.014319
 20
77.107311
 30
0.0
 10
-86.647819
 20
76.935610
 30
0.0
 10
-88.209919
 20
77.443212
 30
0.0
  0
LWPOLYLINE
  5
16b
100
AcDbEntity
  8
Layer_1
 62
7
100
AcDbPolyline
 90
17
 70
0
 10
-108.159920
 20
51.565711
 30
0.0
 10
-110.585718
 20
53.749911
 30
0.0
 10
-111.484918
 20
55.769612
 30
0.0
 10
-111.484918
 20
60.958411
 30
0.0
 10
-110.585718
 20
62.978109
 30
0.0
 10
-108.159920
 20
65.162312
 30
0.0
 10
-105.055419
 20
66.171011
 30
0.0
 10
-101.809118
 20
65.829810
 30
0.0
 10
-98.982220
 20
64.197710
 30
0.0
 10
-97.063619
 20
61.556911
 30
0.0
 10
-96.984919
 20
61.186709
 30
0.0
 10
-96.984919
 20
55.541311
 30
0.0
 10
-97.063619
 20
55.171112
 30
0.0
 10
-98.982220
 20
52.530310
 30
0.0
 10
-101.809118
 20
50.898211
 30
0.0
 10
-105.055419
 20
50.557010
 30
0.0
 10
-108.159920
 20
51.565711
 30
0.0
  0
LWPOLYLINE
  5
16c
100
AcDbEntity
  8
Layer_1
 62
7
100
AcDbPolyline
 90
16
 70
0
 10
-88.209919
 20
54.943212
 30
0.0
 10
-89.430519
 20
56.042210
 30
0.0
 10
-90.098618
 20
57.542710
 30
0.0
 10
-90.098618
 20
59.185209
 30
0.0
 10
-89.430519
 20
60.685711
 30
0.0
 10
-88.209919
 20
61.784812
 30
0.0
 10
-86.647819
 20
62.292411
 30
0.0
 10
-85.014319
 20
62.120710
 30
0.0
 10
-83.591819
 20
61.299409
 30
0.0
 10
-82.626419
 20
59.970611
 30
0.0
 10
-82.284919
 20
58.364010
 30
0.0
 10
-82.626419
 20
56.757409
 30
0.0
 10
-83.591819
 20
55.428611
 30
0.0
 10
-85.014319
 20
54.607311
 30
0.0
 10
-86.647819
 20
54.435609
 30
0.0
 10
-88.209919
 20
54.943212
 30
0.0
  0
LWPOLYLINE
  5
16d
100
AcDbEntity
  8
Layer_1
 62
7
100
AcDbPolyline
 90
45
 70
0
 10
-22.325818
 20
-43.136001
 30
0.0
 10
-1.416719
 20
-43.136001
 30
0.0
 10
-1.416719
 20
-46.135995
 30
0.0
 10
19.492381
 20
-46.135995
 30
0.0
 10
19.492381
 20
-43.136001
 30
0.0
 10
40.401480
 20
-43.136001
 30
0.0
 10
40.401480
 20
-46.135995
 30
0.0
 10
61.310083
 20
-46.135995
 30
0.0
 10
61.310083
 20
-43.136001
 30
0.0
 10
82.220082
 20
-43.136001
 30
0.0
 10
82.220082
 20
-46.135995
 30
0.0
 10
103.129080
 20
-46.135995
 30
0.0
 10
103.129080
 20
-43.136001
 30
0.0
 10
124.038081
 20
-43.136001
 30
0.0
 10
124.038081
 20
-46.135995
 30
0.0
 10
144.947081
 20
-46.135995
 30
0.0
 10
144.947081
 20
-43.136001
 30
0.0
 10
165.856082
 20
-43.136001
 30
0.0
 10
165.856082
 20
-46.135995
 30
0.0
 10
186.765082
 20
-46.135995
 30
0.0
 10
186.765082
 20
13.863998
 30
0.0
 10
165.856082
 20
13.863998
 30
0.0
 10
165.856082
 20
10.864004
 30
0.0
 10
144.947081
 20
10.864004
 30
0.0
 10
144.947081
 20
13.863998
 30
0.0
 10
124.038081
 20
13.863998
 30
0.0
 10
124.038081
 20
10.864004
 30
0.0
 10
103.129080
 20
10.864004
 30
0.0
 10
103.129080
 20
13.863998
 30
0.0
 10
82.220082
 20
13.863998
 30
0.0
 10
82.220082
 20
10.864004
 30
0.0
 10
61.310083
 20
10.864004
 30
0.0
 10
61.310083
 20
13.863998
 30
0.0
 10
40.401480
 20
13.863998
 30
0.0
 10
40.401480
 20
10.864004
 30
0.0
 10
19.492381
 20
10.864004
 30
0.0
 10
19.492381
 20
13.863998
 30
0.0
 10
-1.416719
 20
13.863998
 30
0.0
 10
-1.416719
 20
10.864004
 30
0.0
 10
-22.325818
 20
10.864004
 30
0.0
 10
-22.325818
 20
13.863998
 30
0.0
 10
-43.234919
 20
13.863998
 30
0.0
 10
-43.234919
 20
-46.135995
 30
0.0
 10
-22.325818
 20
-46.135995
 30
0.0
 10
-22.325818
 20
-43.136001
 30
0.0
  0
LWPOLYLINE
  5
16e
100
AcDbEntity
  8
Layer_1
 62
7
100
AcDbPolyline
 90
16
 70
0
 10
-1.901619
 20
3.765917
 30
0.0
 10
-2.828620
 20
4.600618
 30
0.0
 10
-3.336019
 20
5.740316
 30
0.0
 10
-3.336019
 20
6.987710
 30
0.0
 10
-2.828620
 20
8.127408
 30
0.0
 10
-1.901619
 20
8.962108
 30
0.0
 10
-0.715219
 20
9.347624
 30
0.0
 10
0.525481
 20
9.217209
 30
0.0
 10
1.605782
 20
8.593413
 30
0.0
 10
2.339080
 20
7.584214
 30
0.0
 10
2.598380
 20
6.363998
 30
0.0
 10
2.339080
 20
5.143811
 30
0.0
 10
1.605782
 20
4.134612
 30
0.0
 10
0.525481
 20
3.510816
 30
0.0
 10
-0.715219
 20
3.380402
 30
0.0
 10
-1.901619
 20
3.765917
 30
0.0
  0
LWPOLYLINE
  5
16f
100
AcDbEntity
  8
Layer_1
 62
7
100
AcDbPolyline
 90
16
 70
0
 10
-10.901618
 20
3.765917
 30
0.0
 10
-11.828619
 20
4.600618
 30
0.0
 10
-12.336018
 20
5.740316
 30
0.0
 10
-12.336018
 20
6.987710
 30
0.0
 10
-11.828619
 20
8.127408
 30
0.0
 10
-10.901618
 20
8.962108
 30
0.0
 10
-9.715218
 20
9.347624
 30
0.0
 10
-8.474518
 20
9.217209
 30
0.0
 10
-7.394219
 20
8.593413
 30
0.0
 10
-6.660919
 20
7.584214
 30
0.0
 10
-6.401618
 20
6.363998
 30
0.0
 10
-6.660919
 20
5.143811
 30
0.0
 10
-7.394219
 20
4.134612
 30
0.0
 10
-8.474518
 20
3.510816
 30
0.0
 10
-9.715218
 20
3.380402
 30
0.0
 10
-10.901618
 20
3.765917
 30
0.0
  0
LWPOLYLINE
  5
170
100
AcDbEntity
  8
Layer_1
 62
7
100
AcDbPolyline
 90
16
 70
0
 10
-19.901620
 20
3.765917
 30
0.0
 10
-20.828618
 20
4.600618
 30
0.0
 10
-21.336020
 20
5.740316
 30
0.0
 10
-21.336020
 20
6.987710
 30
0.0
 10
-20.828618
 20
8.127408
 30
0.0
 10
-19.901620
 20
8.962108
 30
0.0
 10
-18.715220
 20
9.347624
 30
0.0
 10
-17.474520
 20
9.217209
 30
0.0
 10
-16.394218
 20
8.593413
 30
0.0
 10
-15.660918
 20
7.584214
 30
0.0
 10
-15.401620
 20
6.363998
 30
0.0
 10
-15.660918
 20
5.143811
 30
0.0
 10
-16.394218
 20
4.134612
 30
0.0
 10
-17.474520
 20
3.510816
 30
0.0
 10
-18.715220
 20
3.380402
 30
0.0
 10
-19.901620
 20
3.765917
 30
0.0
  0
LWPOLYLINE
  5
171
100
AcDbEntity
  8
Layer_1
 62
7
100
AcDbPolyline
 90
16
 70
0
 10
-28.901619
 20
3.765917
 30
0.0
 10
-29.828620
 20
4.600618
 30
0.0
 10
-30.336019
 20
5.740316
 30
0.0
 10
-30.336019
 20
6.987710
 30
0.0
 10
-29.828620
 20
8.127408
 30
0.0
 10
-28.901619
 20
8.962108
 30
0.0
 10
-27.715218
 20
9.347624
 30
0.0
 10
-26.474519
 20
9.217209
 30
0.0
 10
-25.394220
 20
8.593413
 30
0.0
 10
-24.660919
 20
7.584214
 30
0.0
 10
-24.401619
 20
6.363998
 30
0.0
 10
-24.660919
 20
5.143811
 30
0.0
 10
-25.394220
 20
4.134612
 30
0.0
 10
-26.474519
 20
3.510816
 30
0.0
 10
-27.715218
 20
3.380402
 30
0.0
 10
-28.901619
 20
3.765917
 30
0.0
  0
LWPOLYLINE
  5
172
100
AcDbEntity
  8
Layer_1
 62
7
100
AcDbPolyline
 90
16
 70
0
 10
-37.901619
 20
3.765917
 30
0.0
 10
-38.828619
 20
4.600618
 30
0.0
 10
-39.336019
 20
5.740316
 30
0.0
 10
-39.336019
 20
6.987710
 30
0.0
 10
-38.828619
 20
8.127408
 30
0.0
 10
-37.901619
 20
8.962108
 30
0.0
 10
-36.715219
 20
9.347624
 30
0.0
 10
-35.474519
 20
9.217209
 30
0.0
 10
-34.394219
 20
8.593413
 30
0.0
 10
-33.660919
 20
7.584214
 30
0.0
 10
-33.401619
 20
6.363998
 30
0.0
 10
-33.660919
 20
5.143811
 30
0.0
 10
-34.394219
 20
4.134612
 30
0.0
 10
-35.474519
 20
3.510816
 30
0.0
 10
-36.715219
 20
3.380402
 30
0.0
 10
-37.901619
 20
3.765917
 30
0.0
  0
LWPOLYLINE
  5
173
100
AcDbEntity
  8
Layer_1
 62
7
100
AcDbPolyline
 90
16
 70
0
 10
25.098381
 20
3.765917
 30
0.0
 10
24.171382
 20
4.600618
 30
0.0
 10
23.663981
 20
5.740316
 30
0.0
 10
23.663981
 20
6.987710
 30
0.0
 10
24.171382
 20
8.127408
 30
0.0
 10
25.098381
 20
8.962108
 30
0.0
 10
26.284781
 20
9.347624
 30
0.0
 10
27.525480
 20
9.217209
 30
0.0
 10
28.605782
 20
8.593413
 30
0.0
 10
29.339083
 20
7.584214
 30
0.0
 10
29.598380
 20
6.363998
 30
0.0
 10
29.339083
 20
5.143811
 30
0.0
 10
28.605782
 20
4.134612
 30
0.0
 10
27.525480
 20
3.510816
 30
0.0
 10
26.284781
 20
3.380402
 30
0.0
 10
25.098381
 20
3.765917
 30
0.0
  0
LWPOLYLINE
  5
174
100
AcDbEntity
  8
Layer_1
 62
7
100
AcDbPolyline
 90
16
 70
0
 10
16.098382
 20
3.765917
 30
0.0
 10
15.171380
 20
4.600618
 30
0.0
 10
14.663982
 20
5.740316
 30
0.0
 10
14.663982
 20
6.987710
 30
0.0
 10
15.171380
 20
8.127408
 30
0.0
 10
16.098382
 20
8.962108
 30
0.0
 10
17.284782
 20
9.347624
 30
0.0
 10
18.525482
 20
9.217209
 30
0.0
 10
19.605780
 20
8.593413
 30
0.0
 10
20.339081
 20
7.584214
 30
0.0
 10
20.598381
 20
6.363998
 30
0.0
 10
20.339081
 20
5.143811
 30
0.0
 10
19.605780
 20
4.134612
 30
0.0
 10
18.525482
 20
3.510816
 30
0.0
 10
17.284782
 20
3.380402
 30
0.0
 10
16.098382
 20
3.765917
 30
0.0
  0
LWPOLYLINE
  5
175
100
AcDbEntity
  8
Layer_1
 62
7
100
AcDbPolyline
 90
16
 70
0
 10
7.098380
 20
3.765917
 30
0.0
 10
6.171382
 20
4.600618
 30
0.0
 10
5.663980
 20
5.740316
 30
0.0
 10
5.663980
 20
6.987710
 30
0.0
 10
6.171382
 20
8.127408
 30
0.0
 10
7.098380
 20
8.962108
 30
0.0
 10
8.284780
 20
9.347624
 30
0.0
 10
9.525483
 20
9.217209
 30
0.0
 10
10.605781
 20
8.593413
 30
0.0
 10
11.339082
 20
7.584214
 30
0.0
 10
11.598382
 20
6.363998
 30
0.0
 10
11.339082
 20
5.143811
 30
0.0
 10
10.605781
 20
4.134612
 30
0.0
 10
9.525483
 20
3.510816
 30
0.0
 10
8.284780
 20
3.380402
 30
0.0
 10
7.098380
 20
3.765917
 30
0.0
  0
LWPOLYLINE
  5
176
100
AcDbEntity
  8
Layer_1
 62
7
100
AcDbPolyline
 90
16
 70
0
 10
-37.901619
 20
-5.234093
 30
0.0
 10
-38.828619
 20
-4.399393
 30
0.0
 10
-39.336019
 20
-3.259695
 30
0.0
 10
-39.336019
 20
-2.012301
 30
0.0
 10
-38.828619
 20
-0.872603
 30
0.0
 10
-37.901619
 20
-0.037902
 30
0.0
 10
-36.715219
 20
0.347613
 30
0.0
 10
-35.474519
 20
0.217198
 30
0.0
 10
-34.394219
 20
-0.406597
 30
0.0
 10
-33.660919
 20
-1.415796
 30
0.0
 10
-33.401619
 20
-2.635984
 30
0.0
 10
-33.660919
 20
-3.856200
 30
0.0
 10
-34.394219
 20
-4.865398
 30
0.0
 10
-35.474519
 20
-5.489194
 30
0.0
 10
-36.715219
 20
-5.619580
 30
0.0
 10
-37.901619
 20
-5.234093
 30
0.0
  0
LWPOLYLINE
  5
177
100
AcDbEntity
  8
Layer_1
 62
7
100
AcDbPolyline
 90
16
 70
0
 10
-28.901619
 20
-5.234093
 30
0.0
 10
-29.828620
 20
-4.399393
 30
0.0
 10
-30.336019
 20
-3.259695
 30
0.0
 10
-30.336019
 20
-2.012301
 30
0.0
 10
-29.828620
 20
-0.872603
 30
0.0
 10
-28.901619
 20
-0.037902
 30
0.0
 10
-27.715218
 20
0.347613
 30
0.0
 10
-26.474519
 20
0.217198
 30
0.0
 10
-25.394220
 20
-0.406597
 30
0.0
 10
-24.660919
 20
-1.415796
 30
0.0
 10
-24.401619
 20
-2.635984
 30
0.0
 10
-24.660919
 20
-3.856200
 30
0.0
 10
-25.394220
 20
-4.865398
 30
0.0
 10
-26.474519
 20
-5.489194
 30
0.0
 10
-27.715218
 20
-5.619580
 30
0.0
 10
-28.901619
 20
-5.234093
 30
0.0
  0
LWPOLYLINE
  5
178
100
AcDbEntity
  8
Layer_1
 62
7
100
AcDbPolyline
 90
16
 70
0
 10
-19.901620
 20
-5.234093
 30
0.0
 10
-20.828618
 20
-4.399393
 30
0.0
 10
-21.336020
 20
-3.259695
 30
0.0
 10
-21.336020
 20
-2.012301
 30
0.0
 10
-20.828618
 20
-0.872603
 30
0.0
 10
-19.901620
 20
-0.037902
 30
0.0
 10
-18.715220
 20
0.347613
 30
0.0
 10
-17.474520
 20
0.217198
 30
0.0
 10
-16.394218
 20
-0.406597
 30
0.0
 10
-15.660918
 20
-1.415796
 30
0.0
 10
-15.401620
 20
-2.635984
 30
0.0
 10
-15.660918
 20
-3.856200
 30
0.0
 10
-16.394218
 20
-4.865398
 30
0.0
 10
-17.474520
 20
-5.489194
 30
0.0
 10
-18.715220
 20
-5.619580
 30
0.0
 10
-19.901620
 20
-5.234093
 30
0.0
  0
LWPOLYLINE
  5
179
100
AcDbEntity
  8
Layer_1
 62
7
100
AcDbPolyline
 90
16
 70
0
 10
-10.901618
 20
-5.234093
 30
0.0
 10
-11.828619
 20
-4.399393
 30
0.0
 10
-12.336018
 20
-3.259695
 30
0.0
 10
-12.336018
 20
-2.012301
 30
0.0
 10
-11.828619
 20
-0.872603
 30
0.0
 10
-10.901618
 20
-0.037902
 30
0.0
 10
-9.715218
 20
0.347613
 30
0.0
 10
-8.474518
 20
0.217198
 30
0.0
 10
-7.394219
 20
-0.406597
 30
0.0
 10
-6.660919
 20
-1.415796
 30
0.0
 10
-6.401618
 20
-2.635984
 30
0.0
 10
-6.660919
 20
-3.856200
 30
0.0
 10
-7.394219
 20
-4.865398
 30
0.0
 10
-8.474518
 20
-5.489194
 30
0.0
 10
-9.715218
 20
-5.619580
 30
0.0
 10
-10.901618
 20
-5.234093
 30
0.0
  0
LWPOLYLINE
  5
17a
100
AcDbEntity
  8
Layer_1
 62
7
100
AcDbPolyline
 90
16
 70
0
 10
-1.901619
 20
-5.234093
 30
0.0
 10
-2.828620
 20
-4.399393
 30
0.0
 10
-3.336019
 20
-3.259695
 30
0.0
 10
-3.336019
 20
-2.012301
 30
0.0
 10
-2.828620
 20
-0.872603
 30
0.0
 10
-1.901619
 20
-0.037902
 30
0.0
 10
-0.715219
 20
0.347613
 30
0.0
 10
0.525481
 20
0.217198
 30
0.0
 10
1.605782
 20
-0.406597
 30
0.0
 10
2.339080
 20
-1.415796
 30
0.0
 10
2.598380
 20
-2.635984
 30
0.0
 10
2.339080
 20
-3.856200
 30
0.0
 10
1.605782
 20
-4.865398
 30
0.0
 10
0.525481
 20
-5.489194
 30
0.0
 10
-0.715219
 20
-5.619580
 30
0.0
 10
-1.901619
 20
-5.234093
 30
0.0
  0
LWPOLYLINE
  5
17b
100
AcDbEntity
  8
Layer_1
 62
7
100
AcDbPolyline
 90
16
 70
0
 10
7.098380
 20
-5.234093
 30
0.0
 10
6.171382
 20
-4.399393
 30
0.0
 10
5.663980
 20
-3.259695
 30
0.0
 10
5.663980
 20
-2.012301
 30
0.0
 10
6.171382
 20
-0.872603
 30
0.0
 10
7.098380
 20
-0.037902
 30
0.0
 10
8.284780
 20
0.347613
 30
0.0
 10
9.525483
 20
0.217198
 30
0.0
 10
10.605781
 20
-0.406597
 30
0.0
 10
11.339082
 20
-1.415796
 30
0.0
 10
11.598382
 20
-2.635984
 30
0.0
 10
11.339082
 20
-3.856200
 30
0.0
 10
10.605781
 20
-4.865398
 30
0.0
 10
9.525483
 20
-5.489194
 30
0.0
 10
8.284780
 20
-5.619580
 30
0.0
 10
7.098380
 20
-5.234093
 30
0.0
  0
LWPOLYLINE
  5
17c
100
AcDbEntity
  8
Layer_1
 62
7
100
AcDbPolyline
 90
16
 70
0
 10
16.098382
 20
-5.234093
 30
0.0
 10
15.171380
 20
-4.399393
 30
0.0
 10
14.663982
 20
-3.259695
 30
0.0
 10
14.663982
 20
-2.012301
 30
0.0
 10
15.171380
 20
-0.872603
 30
0.0
 10
16.098382
 20
-0.037902
 30
0.0
 10
17.284782
 20
0.347613
 30
0.0
 10
18.525482
 20
0.217198
 30
0.0
 10
19.605780
 20
-0.406597
 30
0.0
 10
20.339081
 20
-1.415796
 30
0.0
 10
20.598381
 20
-2.635984
 30
0.0
 10
20.339081
 20
-3.856200
 30
0.0
 10
19.605780
 20
-4.865398
 30
0.0
 10
18.525482
 20
-5.489194
 30
0.0
 10
17.284782
 20
-5.619580
 30
0.0
 10
16.098382
 20
-5.234093
 30
0.0
  0
LWPOLYLINE
  5
17d
100
AcDbEntity
  8
Layer_1
 62
7
100
AcDbPolyline
 90
16
 70
0
 10
25.098381
 20
-5.234093
 30
0.0
 10
24.171382
 20
-4.399393
 30
0.0
 10
23.663981
 20
-3.259695
 30
0.0
 10
23.663981
 20
-2.012301
 30
0.0
 10
24.171382
 20
-0.872603
 30
0.0
 10
25.098381
 20
-0.037902
 30
0.0
 10
26.284781
 20
0.347613
 30
0.0
 10
27.525480
 20
0.217198
 30
0.0
 10
28.605782
 20
-0.406597
 30
0.0
 10
29.339083
 20
-1.415796
 30
0.0
 10
29.598380
 20
-2.635984
 30
0.0
 10
29.339083
 20
-3.856200
 30
0.0
 10
28.605782
 20
-4.865398
 30
0.0
 10
27.525480
 20
-5.489194
 30
0.0
 10
26.284781
 20
-5.619580
 30
0.0
 10
25.098381
 20
-5.234093
 30
0.0
  0
LWPOLYLINE
  5
17e
100
AcDbEntity
  8
Layer_1
 62
7
100
AcDbPolyline
 90
16
 70
0
 10
-37.901619
 20
-14.234103
 30
0.0
 10
-38.828619
 20
-13.399403
 30
0.0
 10
-39.336019
 20
-12.259677
 30
0.0
 10
-39.336019
 20
-11.012283
 30
0.0
 10
-38.828619
 20
-9.872585
 30
0.0
 10
-37.901619
 20
-9.037884
 30
0.0
 10
-36.715219
 20
-8.652397
 30
0.0
 10
-35.474519
 20
-8.782784
 30
0.0
 10
-34.394219
 20
-9.406579
 30
0.0
 10
-33.660919
 20
-10.415778
 30
0.0
 10
-33.401619
 20
-11.635994
 30
0.0
 10
-33.660919
 20
-12.856182
 30
0.0
 10
-34.394219
 20
-13.865380
 30
0.0
 10
-35.474519
 20
-14.489176
 30
0.0
 10
-36.715219
 20
-14.619591
 30
0.0
 10
-37.901619
 20
-14.234103
 30
0.0
  0
LWPOLYLINE
  5
17f
100
AcDbEntity
  8
Layer_1
 62
7
100
AcDbPolyline
 90
16
 70
0
 10
-28.901619
 20
-14.234103
 30
0.0
 10
-29.828620
 20
-13.399403
 30
0.0
 10
-30.336019
 20
-12.259677
 30
0.0
 10
-30.336019
 20
-11.012283
 30
0.0
 10
-29.828620
 20
-9.872585
 30
0.0
 10
-28.901619
 20
-9.037884
 30
0.0
 10
-27.715218
 20
-8.652397
 30
0.0
 10
-26.474519
 20
-8.782784
 30
0.0
 10
-25.394220
 20
-9.406579
 30
0.0
 10
-24.660919
 20
-10.415778
 30
0.0
 10
-24.401619
 20
-11.635994
 30
0.0
 10
-24.660919
 20
-12.856182
 30
0.0
 10
-25.394220
 20
-13.865380
 30
0.0
 10
-26.474519
 20
-14.489176
 30
0.0
 10
-27.715218
 20
-14.619591
 30
0.0
 10
-28.901619
 20
-14.234103
 30
0.0
  0
LWPOLYLINE
  5
180
100
AcDbEntity
  8
Layer_1
 62
7
100
AcDbPolyline
 90
16
 70
0
 10
-19.901620
 20
-14.234103
 30
0.0
 10
-20.828618
 20
-13.399403
 30
0.0
 10
-21.336020
 20
-12.259677
 30
0.0
 10
-21.336020
 20
-11.012283
 30
0.0
 10
-20.828618
 20
-9.872585
 30
0.0
 10
-19.901620
 20
-9.037884
 30
0.0
 10
-18.715220
 20
-8.652397
 30
0.0
 10
-17.474520
 20
-8.782784
 30
0.0
 10
-16.394218
 20
-9.406579
 30
0.0
 10
-15.660918
 20
-10.415778
 30
0.0
 10
-15.401620
 20
-11.635994
 30
0.0
 10
-15.660918
 20
-12.856182
 30
0.0
 10
-16.394218
 20
-13.865380
 30
0.0
 10
-17.474520
 20
-14.489176
 30
0.0
 10
-18.715220
 20
-14.619591
 30
0.0
 10
-19.901620
 20
-14.234103
 30
0.0
  0
LWPOLYLINE
  5
181
100
AcDbEntity
  8
Layer_1
 62
7
100
AcDbPolyline
 90
16
 70
0
 10
-10.901618
 20
-14.234103
 30
0.0
 10
-11.828619
 20
-13.399403
 30
0.0
 10
-12.336018
 20
-12.259677
 30
0.0
 10
-12.336018
 20
-11.012283
 30
0.0
 10
-11.828619
 20
-9.872585
 30
0.0
 10
-10.901618
 20
-9.037884
 30
0.0
 10
-9.715218
 20
-8.652397
 30
0.0
 10
-8.474518
 20
-8.782784
 30
0.0
 10
-7.394219
 20
-9.406579
 30
0.0
 10
-6.660919
 20
-10.415778
 30
0.0
 10
-6.401618
 20
-11.635994
 30
0.0
 10
-6.660919
 20
-12.856182
 30
0.0
 10
-7.394219
 20
-13.865380
 30
0.0
 10
-8.474518
 20
-14.489176
 30
0.0
 10
-9.715218
 20
-14.619591
 30
0.0
 10
-10.901618
 20
-14.234103
 30
0.0
  0
LWPOLYLINE
  5
182
100
AcDbEntity
  8
Layer_1
 62
7
100
AcDbPolyline
 90
16
 70
0
 10
-1.901619
 20
-14.234103
 30
0.0
 10
-2.828620
 20
-13.399403
 30
0.0
 10
-3.336019
 20
-12.259677
 30
0.0
 10
-3.336019
 20
-11.012283
 30
0.0
 10
-2.828620
 20
-9.872585
 30
0.0
 10
-1.901619
 20
-9.037884
 30
0.0
 10
-0.715219
 20
-8.652397
 30
0.0
 10
0.525481
 20
-8.782784
 30
0.0
 10
1.605782
 20
-9.406579
 30
0.0
 10
2.339080
 20
-10.415778
 30
0.0
 10
2.598380
 20
-11.635994
 30
0.0
 10
2.339080
 20
-12.856182
 30
0.0
 10
1.605782
 20
-13.865380
 30
0.0
 10
0.525481
 20
-14.489176
 30
0.0
 10
-0.715219
 20
-14.619591
 30
0.0
 10
-1.901619
 20
-14.234103
 30
0.0
  0
LWPOLYLINE
  5
183
100
AcDbEntity
  8
Layer_1
 62
7
100
AcDbPolyline
 90
16
 70
0
 10
25.098381
 20
-14.234103
 30
0.0
 10
24.171382
 20
-13.399403
 30
0.0
 10
23.663981
 20
-12.259677
 30
0.0
 10
23.663981
 20
-11.012283
 30
0.0
 10
24.171382
 20
-9.872585
 30
0.0
 10
25.098381
 20
-9.037884
 30
0.0
 10
26.284781
 20
-8.652397
 30
0.0
 10
27.525480
 20
-8.782784
 30
0.0
 10
28.605782
 20
-9.406579
 30
0.0
 10
29.339083
 20
-10.415778
 30
0.0
 10
29.598380
 20
-11.635994
 30
0.0
 10
29.339083
 20
-12.856182
 30
0.0
 10
28.605782
 20
-13.865380
 30
0.0
 10
27.525480
 20
-14.489176
 30
0.0
 10
26.284781
 20
-14.619591
 30
0.0
 10
25.098381
 20
-14.234103
 30
0.0
  0
LWPOLYLINE
  5
184
100
AcDbEntity
  8
Layer_1
 62
7
100
AcDbPolyline
 90
16
 70
0
 10
16.098382
 20
-14.234103
 30
0.0
 10
15.171380
 20
-13.399403
 30
0.0
 10
14.663982
 20
-12.259677
 30
0.0
 10
14.663982
 20
-11.012283
 30
0.0
 10
15.171380
 20
-9.872585
 30
0.0
 10
16.098382
 20
-9.037884
 30
0.0
 10
17.284782
 20
-8.652397
 30
0.0
 10
18.525482
 20
-8.782784
 30
0.0
 10
19.605780
 20
-9.406579
 30
0.0
 10
20.339081
 20
-10.415778
 30
0.0
 10
20.598381
 20
-11.635994
 30
0.0
 10
20.339081
 20
-12.856182
 30
0.0
 10
19.605780
 20
-13.865380
 30
0.0
 10
18.525482
 20
-14.489176
 30
0.0
 10
17.284782
 20
-14.619591
 30
0.0
 10
16.098382
 20
-14.234103
 30
0.0
  0
LWPOLYLINE
  5
185
100
AcDbEntity
  8
Layer_1
 62
7
100
AcDbPolyline
 90
16
 70
0
 10
7.098380
 20
-14.234103
 30
0.0
 10
6.171382
 20
-13.399403
 30
0.0
 10
5.663980
 20
-12.259677
 30
0.0
 10
5.663980
 20
-11.012283
 30
0.0
 10
6.171382
 20
-9.872585
 30
0.0
 10
7.098380
 20
-9.037884
 30
0.0
 10
8.284780
 20
-8.652397
 30
0.0
 10
9.525483
 20
-8.782784
 30
0.0
 10
10.605781
 20
-9.406579
 30
0.0
 10
11.339082
 20
-10.415778
 30
0.0
 10
11.598382
 20
-11.635994
 30
0.0
 10
11.339082
 20
-12.856182
 30
0.0
 10
10.605781
 20
-13.865380
 30
0.0
 10
9.525483
 20
-14.489176
 30
0.0
 10
8.284780
 20
-14.619591
 30
0.0
 10
7.098380
 20
-14.234103
 30
0.0
  0
LWPOLYLINE
  5
186
100
AcDbEntity
  8
Layer_1
 62
7
100
AcDbPolyline
 90
16
 70
0
 10
-37.901619
 20
-23.234085
 30
0.0
 10
-38.828619
 20
-22.399385
 30
0.0
 10
-39.336019
 20
-21.259687
 30
0.0
 10
-39.336019
 20
-20.012293
 30
0.0
 10
-38.828619
 20
-18.872595
 30
0.0
 10
-37.901619
 20
-18.037894
 30
0.0
 10
-36.715219
 20
-17.652379
 30
0.0
 10
-35.474519
 20
-17.782794
 30
0.0
 10
-34.394219
 20
-18.406590
 30
0.0
 10
-33.660919
 20
-19.415788
 30
0.0
 10
-33.401619
 20
-20.635976
 30
0.0
 10
-33.660919
 20
-21.856192
 30
0.0
 10
-34.394219
 20
-22.865390
 30
0.0
 10
-35.474519
 20
-23.489186
 30
0.0
 10
-36.715219
 20
-23.619601
 30
0.0
 10
-37.901619
 20
-23.234085
 30
0.0
  0
LWPOLYLINE
  5
187
100
AcDbEntity
  8
Layer_1
 62
7
100
AcDbPolyline
 90
16
 70
0
 10
-28.901619
 20
-23.234085
 30
0.0
 10
-29.828620
 20
-22.399385
 30
0.0
 10
-30.336019
 20
-21.259687
 30
0.0
 10
-30.336019
 20
-20.012293
 30
0.0
 10
-29.828620
 20
-18.872595
 30
0.0
 10
-28.901619
 20
-18.037894
 30
0.0
 10
-27.715218
 20
-17.652379
 30
0.0
 10
-26.474519
 20
-17.782794
 30
0.0
 10
-25.394220
 20
-18.406590
 30
0.0
 10
-24.660919
 20
-19.415788
 30
0.0
 10
-24.401619
 20
-20.635976
 30
0.0
 10
-24.660919
 20
-21.856192
 30
0.0
 10
-25.394220
 20
-22.865390
 30
0.0
 10
-26.474519
 20
-23.489186
 30
0.0
 10
-27.715218
 20
-23.619601
 30
0.0
 10
-28.901619
 20
-23.234085
 30
0.0
  0
LWPOLYLINE
  5
188
100
AcDbEntity
  8
Layer_1
 62
7
100
AcDbPolyline
 90
16
 70
0
 10
25.098381
 20
-23.234085
 30
0.0
 10
24.171382
 20
-22.399385
 30
0.0
 10
23.663981
 20
-21.259687
 30
0.0
 10
23.663981
 20
-20.012293
 30
0.0
 10
24.171382
 20
-18.872595
 30
0.0
 10
25.098381
 20
-18.037894
 30
0.0
 10
26.284781
 20
-17.652379
 30
0.0
 10
27.525480
 20
-17.782794
 30
0.0
 10
28.605782
 20
-18.406590
 30
0.0
 10
29.339083
 20
-19.415788
 30
0.0
 10
29.598380
 20
-20.635976
 30
0.0
 10
29.339083
 20
-21.856192
 30
0.0
 10
28.605782
 20
-22.865390
 30
0.0
 10
27.525480
 20
-23.489186
 30
0.0
 10
26.284781
 20
-23.619601
 30
0.0
 10
25.098381
 20
-23.234085
 30
0.0
  0
LWPOLYLINE
  5
189
100
AcDbEntity
  8
Layer_1
 62
7
100
AcDbPolyline
 90
16
 70
0
 10
16.098382
 20
-23.234085
 30
0.0
 10
15.171380
 20
-22.399385
 30
0.0
 10
14.663982
 20
-21.259687
 30
0.0
 10
14.663982
 20
-20.012293
 30
0.0
 10
15.171380
 20
-18.872595
 30
0.0
 10
16.098382
 20
-18.037894
 30
0.0
 10
17.284782
 20
-17.652379
 30
0.0
 10
18.525482
 20
-17.782794
 30
0.0
 10
19.605780
 20
-18.406590
 30
0.0
 10
20.339081
 20
-19.415788
 30
0.0
 10
20.598381
 20
-20.635976
 30
0.0
 10
20.339081
 20
-21.856192
 30
0.0
 10
19.605780
 20
-22.865390
 30
0.0
 10
18.525482
 20
-23.489186
 30
0.0
 10
17.284782
 20
-23.619601
 30
0.0
 10
16.098382
 20
-23.234085
 30
0.0
  0
LWPOLYLINE
  5
18a
100
AcDbEntity
  8
Layer_1
 62
7
100
AcDbPolyline
 90
16
 70
0
 10
7.098380
 20
-23.234085
 30
0.0
 10
6.171382
 20
-22.399385
 30
0.0
 10
5.663980
 20
-21.259687
 30
0.0
 10
5.663980
 20
-20.012293
 30
0.0
 10
6.171382
 20
-18.872595
 30
0.0
 10
7.098380
 20
-18.037894
 30
0.0
 10
8.284780
 20
-17.652379
 30
0.0
 10
9.525483
 20
-17.782794
 30
0.0
 10
10.605781
 20
-18.406590
 30
0.0
 10
11.339082
 20
-19.415788
 30
0.0
 10
11.598382
 20
-20.635976
 30
0.0
 10
11.339082
 20
-21.856192
 30
0.0
 10
10.605781
 20
-22.865390
 30
0.0
 10
9.525483
 20
-23.489186
 30
0.0
 10
8.284780
 20
-23.619601
 30
0.0
 10
7.098380
 20
-23.234085
 30
0.0
  0
LWPOLYLINE
  5
18b
100
AcDbEntity
  8
Layer_1
 62
7
100
AcDbPolyline
 90
16
 70
0
 10
-1.901619
 20
-23.234085
 30
0.0
 10
-2.828620
 20
-22.399385
 30
0.0
 10
-3.336019
 20
-21.259687
 30
0.0
 10
-3.336019
 20
-20.012293
 30
0.0
 10
-2.828620
 20
-18.872595
 30
0.0
 10
-1.901619
 20
-18.037894
 30
0.0
 10
-0.715219
 20
-17.652379
 30
0.0
 10
0.525481
 20
-17.782794
 30
0.0
 10
1.605782
 20
-18.406590
 30
0.0
 10
2.339080
 20
-19.415788
 30
0.0
 10
2.598380
 20
-20.635976
 30
0.0
 10
2.339080
 20
-21.856192
 30
0.0
 10
1.605782
 20
-22.865390
 30
0.0
 10
0.525481
 20
-23.489186
 30
0.0
 10
-0.715219
 20
-23.619601
 30
0.0
 10
-1.901619
 20
-23.234085
 30
0.0
  0
LWPOLYLINE
  5
18c
100
AcDbEntity
  8
Layer_1
 62
7
100
AcDbPolyline
 90
16
 70
0
 10
-10.901618
 20
-23.234085
 30
0.0
 10
-11.828619
 20
-22.399385
 30
0.0
 10
-12.336018
 20
-21.259687
 30
0.0
 10
-12.336018
 20
-20.012293
 30
0.0
 10
-11.828619
 20
-18.872595
 30
0.0
 10
-10.901618
 20
-18.037894
 30
0.0
 10
-9.715218
 20
-17.652379
 30
0.0
 10
-8.474518
 20
-17.782794
 30
0.0
 10
-7.394219
 20
-18.406590
 30
0.0
 10
-6.660919
 20
-19.415788
 30
0.0
 10
-6.401618
 20
-20.635976
 30
0.0
 10
-6.660919
 20
-21.856192
 30
0.0
 10
-7.394219
 20
-22.865390
 30
0.0
 10
-8.474518
 20
-23.489186
 30
0.0
 10
-9.715218
 20
-23.619601
 30
0.0
 10
-10.901618
 20
-23.234085
 30
0.0
  0
LWPOLYLINE
  5
18d
100
AcDbEntity
  8
Layer_1
 62
7
100
AcDbPolyline
 90
16
 70
0
 10
-19.901620
 20
-23.234085
 30
0.0
 10
-20.828618
 20
-22.399385
 30
0.0
 10
-21.336020
 20
-21.259687
 30
0.0
 10
-21.336020
 20
-20.012293
 30
0.0
 10
-20.828618
 20
-18.872595
 30
0.0
 10
-19.901620
 20
-18.037894
 30
0.0
 10
-18.715220
 20
-17.652379
 30
0.0
 10
-17.474520
 20
-17.782794
 30
0.0
 10
-16.394218
 20
-18.406590
 30
0.0
 10
-15.660918
 20
-19.415788
 30
0.0
 10
-15.401620
 20
-20.635976
 30
0.0
 10
-15.660918
 20
-21.856192
 30
0.0
 10
-16.394218
 20
-22.865390
 30
0.0
 10
-17.474520
 20
-23.489186
 30
0.0
 10
-18.715220
 20
-23.619601
 30
0.0
 10
-19.901620
 20
-23.234085
 30
0.0
  0
LWPOLYLINE
  5
18e
100
AcDbEntity
  8
Layer_1
 62
7
100
AcDbPolyline
 90
16
 70
0
 10
-37.901619
 20
-32.234096
 30
0.0
 10
-38.828619
 20
-31.399395
 30
0.0
 10
-39.336019
 20
-30.259697
 30
0.0
 10
-39.336019
 20
-29.012303
 30
0.0
 10
-38.828619
 20
-27.872577
 30
0.0
 10
-37.901619
 20
-27.037876
 30
0.0
 10
-36.715219
 20
-26.652389
 30
0.0
 10
-35.474519
 20
-26.782776
 30
0.0
 10
-34.394219
 20
-27.406600
 30
0.0
 10
-33.660919
 20
-28.415798
 30
0.0
 10
-33.401619
 20
-29.635986
 30
0.0
 10
-33.660919
 20
-30.856202
 30
0.0
 10
-34.394219
 20
-31.865400
 30
0.0
 10
-35.474519
 20
-32.489196
 30
0.0
 10
-36.715219
 20
-32.619583
 30
0.0
 10
-37.901619
 20
-32.234096
 30
0.0
  0
LWPOLYLINE
  5
18f
100
AcDbEntity
  8
Layer_1
 62
7
100
AcDbPolyline
 90
16
 70
0
 10
-28.901619
 20
-32.234096
 30
0.0
 10
-29.828620
 20
-31.399395
 30
0.0
 10
-30.336019
 20
-30.259697
 30
0.0
 10
-30.336019
 20
-29.012303
 30
0.0
 10
-29.828620
 20
-27.872577
 30
0.0
 10
-28.901619
 20
-27.037876
 30
0.0
 10
-27.715218
 20
-26.652389
 30
0.0
 10
-26.474519
 20
-26.782776
 30
0.0
 10
-25.394220
 20
-27.406600
 30
0.0
 10
-24.660919
 20
-28.415798
 30
0.0
 10
-24.401619
 20
-29.635986
 30
0.0
 10
-24.660919
 20
-30.856202
 30
0.0
 10
-25.394220
 20
-31.865400
 30
0.0
 10
-26.474519
 20
-32.489196
 30
0.0
 10
-27.715218
 20
-32.619583
 30
0.0
 10
-28.901619
 20
-32.234096
 30
0.0
  0
LWPOLYLINE
  5
190
100
AcDbEntity
  8
Layer_1
 62
7
100
AcDbPolyline
 90
16
 70
0
 10
-19.901620
 20
-32.234096
 30
0.0
 10
-20.828618
 20
-31.399395
 30
0.0
 10
-21.336020
 20
-30.259697
 30
0.0
 10
-21.336020
 20
-29.012303
 30
0.0
 10
-20.828618
 20
-27.872577
 30
0.0
 10
-19.901620
 20
-27.037876
 30
0.0
 10
-18.715220
 20
-26.652389
 30
0.0
 10
-17.474520
 20
-26.782776
 30
0.0
 10
-16.394218
 20
-27.406600
 30
0.0
 10
-15.660918
 20
-28.415798
 30
0.0
 10
-15.401620
 20
-29.635986
 30
0.0
 10
-15.660918
 20
-30.856202
 30
0.0
 10
-16.394218
 20
-31.865400
 30
0.0
 10
-17.474520
 20
-32.489196
 30
0.0
 10
-18.715220
 20
-32.619583
 30
0.0
 10
-19.901620
 20
-32.234096
 30
0.0
  0
LWPOLYLINE
  5
191
100
AcDbEntity
  8
Layer_1
 62
7
100
AcDbPolyline
 90
16
 70
0
 10
-10.901618
 20
-32.234096
 30
0.0
 10
-11.828619
 20
-31.399395
 30
0.0
 10
-12.336018
 20
-30.259697
 30
0.0
 10
-12.336018
 20
-29.012303
 30
0.0
 10
-11.828619
 20
-27.872577
 30
0.0
 10
-10.901618
 20
-27.037876
 30
0.0
 10
-9.715218
 20
-26.652389
 30
0.0
 10
-8.474518
 20
-26.782776
 30
0.0
 10
-7.394219
 20
-27.406600
 30
0.0
 10
-6.660919
 20
-28.415798
 30
0.0
 10
-6.401618
 20
-29.635986
 30
0.0
 10
-6.660919
 20
-30.856202
 30
0.0
 10
-7.394219
 20
-31.865400
 30
0.0
 10
-8.474518
 20
-32.489196
 30
0.0
 10
-9.715218
 20
-32.619583
 30
0.0
 10
-10.901618
 20
-32.234096
 30
0.0
  0
LWPOLYLINE
  5
192
100
AcDbEntity
  8
Layer_1
 62
7
100
AcDbPolyline
 90
16
 70
0
 10
-1.901619
 20
-32.234096
 30
0.0
 10
-2.828620
 20
-31.399395
 30
0.0
 10
-3.336019
 20
-30.259697
 30
0.0
 10
-3.336019
 20
-29.012303
 30
0.0
 10
-2.828620
 20
-27.872577
 30
0.0
 10
-1.901619
 20
-27.037876
 30
0.0
 10
-0.715219
 20
-26.652389
 30
0.0
 10
0.525481
 20
-26.782776
 30
0.0
 10
1.605782
 20
-27.406600
 30
0.0
 10
2.339080
 20
-28.415798
 30
0.0
 10
2.598380
 20
-29.635986
 30
0.0
 10
2.339080
 20
-30.856202
 30
0.0
 10
1.605782
 20
-31.865400
 30
0.0
 10
0.525481
 20
-32.489196
 30
0.0
 10
-0.715219
 20
-32.619583
 30
0.0
 10
-1.901619
 20
-32.234096
 30
0.0
  0
LWPOLYLINE
  5
193
100
AcDbEntity
  8
Layer_1
 62
7
100
AcDbPolyline
 90
16
 70
0
 10
7.098380
 20
-32.234096
 30
0.0
 10
6.171382
 20
-31.399395
 30
0.0
 10
5.663980
 20
-30.259697
 30
0.0
 10
5.663980
 20
-29.012303
 30
0.0
 10
6.171382
 20
-27.872577
 30
0.0
 10
7.098380
 20
-27.037876
 30
0.0
 10
8.284780
 20
-26.652389
 30
0.0
 10
9.525483
 20
-26.782776
 30
0.0
 10
10.605781
 20
-27.406600
 30
0.0
 10
11.339082
 20
-28.415798
 30
0.0
 10
11.598382
 20
-29.635986
 30
0.0
 10
11.339082
 20
-30.856202
 30
0.0
 10
10.605781
 20
-31.865400
 30
0.0
 10
9.525483
 20
-32.489196
 30
0.0
 10
8.284780
 20
-32.619583
 30
0.0
 10
7.098380
 20
-32.234096
 30
0.0
  0
LWPOLYLINE
  5
194
100
AcDbEntity
  8
Layer_1
 62
7
100
AcDbPolyline
 90
16
 70
0
 10
16.098382
 20
-32.234096
 30
0.0
 10
15.171380
 20
-31.399395
 30
0.0
 10
14.663982
 20
-30.259697
 30
0.0
 10
14.663982
 20
-29.012303
 30
0.0
 10
15.171380
 20
-27.872577
 30
0.0
 10
16.098382
 20
-27.037876
 30
0.0
 10
17.284782
 20
-26.652389
 30
0.0
 10
18.525482
 20
-26.782776
 30
0.0
 10
19.605780
 20
-27.406600
 30
0.0
 10
20.339081
 20
-28.415798
 30
0.0
 10
20.598381
 20
-29.635986
 30
0.0
 10
20.339081
 20
-30.856202
 30
0.0
 10
19.605780
 20
-31.865400
 30
0.0
 10
18.525482
 20
-32.489196
 30
0.0
 10
17.284782
 20
-32.619583
 30
0.0
 10
16.098382
 20
-32.234096
 30
0.0
  0
LWPOLYLINE
  5
195
100
AcDbEntity
  8
Layer_1
 62
7
100
AcDbPolyline
 90
16
 70
0
 10
25.098381
 20
-32.234096
 30
0.0
 10
24.171382
 20
-31.399395
 30
0.0
 10
23.663981
 20
-30.259697
 30
0.0
 10
23.663981
 20
-29.012303
 30
0.0
 10
24.171382
 20
-27.872577
 30
0.0
 10
25.098381
 20
-27.037876
 30
0.0
 10
26.284781
 20
-26.652389
 30
0.0
 10
27.525480
 20
-26.782776
 30
0.0
 10
28.605782
 20
-27.406600
 30
0.0
 10
29.339083
 20
-28.415798
 30
0.0
 10
29.598380
 20
-29.635986
 30
0.0
 10
29.339083
 20
-30.856202
 30
0.0
 10
28.605782
 20
-31.865400
 30
0.0
 10
27.525480
 20
-32.489196
 30
0.0
 10
26.284781
 20
-32.619583
 30
0.0
 10
25.098381
 20
-32.234096
 30
0.0
  0
LWPOLYLINE
  5
196
100
AcDbEntity
  8
Layer_1
 62
7
100
AcDbPolyline
 90
16
 70
0
 10
-37.901619
 20
-41.234078
 30
0.0
 10
-38.828619
 20
-40.399377
 30
0.0
 10
-39.336019
 20
-39.259679
 30
0.0
 10
-39.336019
 20
-38.012285
 30
0.0
 10
-38.828619
 20
-36.872587
 30
0.0
 10
-37.901619
 20
-36.037887
 30
0.0
 10
-36.715219
 20
-35.652399
 30
0.0
 10
-35.474519
 20
-35.782786
 30
0.0
 10
-34.394219
 20
-36.406582
 30
0.0
 10
-33.660919
 20
-37.415780
 30
0.0
 10
-33.401619
 20
-38.635996
 30
0.0
 10
-33.660919
 20
-39.856184
 30
0.0
 10
-34.394219
 20
-40.865382
 30
0.0
 10
-35.474519
 20
-41.489178
 30
0.0
 10
-36.715219
 20
-41.619593
 30
0.0
 10
-37.901619
 20
-41.234078
 30
0.0
  0
LWPOLYLINE
  5
197
100
AcDbEntity
  8
Layer_1
 62
7
100
AcDbPolyline
 90
16
 70
0
 10
-28.901619
 20
-41.234078
 30
0.0
 10
-29.828620
 20
-40.399377
 30
0.0
 10
-30.336019
 20
-39.259679
 30
0.0
 10
-30.336019
 20
-38.012285
 30
0.0
 10
-29.828620
 20
-36.872587
 30
0.0
 10
-28.901619
 20
-36.037887
 30
0.0
 10
-27.715218
 20
-35.652399
 30
0.0
 10
-26.474519
 20
-35.782786
 30
0.0
 10
-25.394220
 20
-36.406582
 30
0.0
 10
-24.660919
 20
-37.415780
 30
0.0
 10
-24.401619
 20
-38.635996
 30
0.0
 10
-24.660919
 20
-39.856184
 30
0.0
 10
-25.394220
 20
-40.865382
 30
0.0
 10
-26.474519
 20
-41.489178
 30
0.0
 10
-27.715218
 20
-41.619593
 30
0.0
 10
-28.901619
 20
-41.234078
 30
0.0
  0
LWPOLYLINE
  5
198
100
AcDbEntity
  8
Layer_1
 62
7
100
AcDbPolyline
 90
16
 70
0
 10
-19.901620
 20
-41.234078
 30
0.0
 10
-20.828618
 20
-40.399377
 30
0.0
 10
-21.336020
 20
-39.259679
 30
0.0
 10
-21.336020
 20
-38.012285
 30
0.0
 10
-20.828618
 20
-36.872587
 30
0.0
 10
-19.901620
 20
-36.037887
 30
0.0
 10
-18.715220
 20
-35.652399
 30
0.0
 10
-17.474520
 20
-35.782786
 30
0.0
 10
-16.394218
 20
-36.406582
 30
0.0
 10
-15.660918
 20
-37.415780
 30
0.0
 10
-15.401620
 20
-38.635996
 30
0.0
 10
-15.660918
 20
-39.856184
 30
0.0
 10
-16.394218
 20
-40.865382
 30
0.0
 10
-17.474520
 20
-41.489178
 30
0.0
 10
-18.715220
 20
-41.619593
 30
0.0
 10
-19.901620
 20
-41.234078
 30
0.0
  0
LWPOLYLINE
  5
199
100
AcDbEntity
  8
Layer_1
 62
7
100
AcDbPolyline
 90
16
 70
0
 10
-10.901618
 20
-41.234078
 30
0.0
 10
-11.828619
 20
-40.399377
 30
0.0
 10
-12.336018
 20
-39.259679
 30
0.0
 10
-12.336018
 20
-38.012285
 30
0.0
 10
-11.828619
 20
-36.872587
 30
0.0
 10
-10.901618
 20
-36.037887
 30
0.0
 10
-9.715218
 20
-35.652399
 30
0.0
 10
-8.474518
 20
-35.782786
 30
0.0
 10
-7.394219
 20
-36.406582
 30
0.0
 10
-6.660919
 20
-37.415780
 30
0.0
 10
-6.401618
 20
-38.635996
 30
0.0
 10
-6.660919
 20
-39.856184
 30
0.0
 10
-7.394219
 20
-40.865382
 30
0.0
 10
-8.474518
 20
-41.489178
 30
0.0
 10
-9.715218
 20
-41.619593
 30
0.0
 10
-10.901618
 20
-41.234078
 30
0.0
  0
LWPOLYLINE
  5
19a
100
AcDbEntity
  8
Layer_1
 62
7
100
AcDbPolyline
 90
16
 70
0
 10
-1.901619
 20
-41.234078
 30
0.0
 10
-2.828620
 20
-40.399377
 30
0.0
 10
-3.336019
 20
-39.259679
 30
0.0
 10
-3.336019
 20
-38.012285
 30
0.0
 10
-2.828620
 20
-36.872587
 30
0.0
 10
-1.901619
 20
-36.037887
 30
0.0
 10
-0.715219
 20
-35.652399
 30
0.0
 10
0.525481
 20
-35.782786
 30
0.0
 10
1.605782
 20
-36.406582
 30
0.0
 10
2.339080
 20
-37.415780
 30
0.0
 10
2.598380
 20
-38.635996
 30
0.0
 10
2.339080
 20
-39.856184
 30
0.0
 10
1.605782
 20
-40.865382
 30
0.0
 10
0.525481
 20
-41.489178
 30
0.0
 10
-0.715219
 20
-41.619593
 30
0.0
 10
-1.901619
 20
-41.234078
 30
0.0
  0
LWPOLYLINE
  5
19b
100
AcDbEntity
  8
Layer_1
 62
7
100
AcDbPolyline
 90
16
 70
0
 10
25.098381
 20
-41.234078
 30
0.0
 10
24.171382
 20
-40.399377
 30
0.0
 10
23.663981
 20
-39.259679
 30
0.0
 10
23.663981
 20
-38.012285
 30
0.0
 10
24.171382
 20
-36.872587
 30
0.0
 10
25.098381
 20
-36.037887
 30
0.0
 10
26.284781
 20
-35.652399
 30
0.0
 10
27.525480
 20
-35.782786
 30
0.0
 10
28.605782
 20
-36.406582
 30
0.0
 10
29.339083
 20
-37.415780
 30
0.0
 10
29.598380
 20
-38.635996
 30
0.0
 10
29.339083
 20
-39.856184
 30
0.0
 10
28.605782
 20
-40.865382
 30
0.0
 10
27.525480
 20
-41.489178
 30
0.0
 10
26.284781
 20
-41.619593
 30
0.0
 10
25.098381
 20
-41.234078
 30
0.0
  0
LWPOLYLINE
  5
19c
100
AcDbEntity
  8
Layer_1
 62
7
100
AcDbPolyline
 90
16
 70
0
 10
16.098382
 20
-41.234078
 30
0.0
 10
15.171380
 20
-40.399377
 30
0.0
 10
14.663982
 20
-39.259679
 30
0.0
 10
14.663982
 20
-38.012285
 30
0.0
 10
15.171380
 20
-36.872587
 30
0.0
 10
16.098382
 20
-36.037887
 30
0.0
 10
17.284782
 20
-35.652399
 30
0.0
 10
18.525482
 20
-35.782786
 30
0.0
 10
19.605780
 20
-36.406582
 30
0.0
 10
20.339081
 20
-37.415780
 30
0.0
 10
20.598381
 20
-38.635996
 30
0.0
 10
20.339081
 20
-39.856184
 30
0.0
 10
19.605780
 20
-40.865382
 30
0.0
 10
18.525482
 20
-41.489178
 30
0.0
 10
17.284782
 20
-41.619593
 30
0.0
 10
16.098382
 20
-41.234078
 30
0.0
  0
LWPOLYLINE
  5
19d
100
AcDbEntity
  8
Layer_1
 62
7
100
AcDbPolyline
 90
16
 70
0
 10
7.098380
 20
-41.234078
 30
0.0
 10
6.171382
 20
-40.399377
 30
0.0
 10
5.663980
 20
-39.259679
 30
0.0
 10
5.663980
 20
-38.012285
 30
0.0
 10
6.171382
 20
-36.872587
 30
0.0
 10
7.098380
 20
-36.037887
 30
0.0
 10
8.284780
 20
-35.652399
 30
0.0
 10
9.525483
 20
-35.782786
 30
0.0
 10
10.605781
 20
-36.406582
 30
0.0
 10
11.339082
 20
-37.415780
 30
0.0
 10
11.598382
 20
-38.635996
 30
0.0
 10
11.339082
 20
-39.856184
 30
0.0
 10
10.605781
 20
-40.865382
 30
0.0
 10
9.525483
 20
-41.489178
 30
0.0
 10
8.284780
 20
-41.619593
 30
0.0
 10
7.098380
 20
-41.234078
 30
0.0
  0
ENDSEC
  0
SECTION
  2
OBJECTS
  0
DICTIONARY
  5
C
330
0
100
AcDbDictionary
  3
ACAD_GROUP
350
D
  3
ACAD_MLINESTYLE
350
17
  0
DICTIONARY
  5
D
330
C
100
AcDbDictionary
  0
DICTIONARY
  5
1A
330
C
100
AcDbDictionary
  0
DICTIONARY
  5
17
330
C
100
AcDbDictionary
  3
STANDARD
350
18
  0
DICTIONARY
  5
19
330
C
100
AcDbDictionary
  0
ENDSEC
  0
EOF
