  0
SECTION
  2
BLOCKS
  0
ENDSEC
  0
SECTION
  2
ENTITIES
  0
LINE
  8
0
 10
69.2857
 20
100
 11
96.4286
 21
100
  0
LINE
  8
0
 10
96.4286
 20
100
 11
96.4286
 21
96.9
  0
LINE
  8
0
 10
96.4286
 20
96.9
 11
123.571
 21
96.9
  0
LINE
  8
0
 10
123.571
 20
96.9
 11
123.571
 21
100
  0
LINE
  8
0
 10
123.571
 20
100
 11
150.714
 21
100
  0
LINE
  8
0
 10
150.714
 20
100
 11
150.714
 21
96.9
  0
LINE
  8
0
 10
150.714
 20
96.9
 11
177.857
 21
96.9
  0
LINE
  8
0
 10
177.857
 20
96.9
 11
177.857
 21
100
  0
LINE
  8
0
 10
177.857
 20
100
 11
205
 21
100
  0
LINE
  8
0
 10
205
 20
100
 11
205
 21
199.2
  0
LINE
  8
0
 10
205
 20
199.2
 11
177.857
 21
199.2
  0
LINE
  8
0
 10
177.857
 20
199.2
 11
177.857
 21
202.3
  0
LINE
  8
0
 10
177.857
 20
202.3
 11
150.714
 21
202.3
  0
LINE
  8
0
 10
150.714
 20
202.3
 11
150.714
 21
199.2
  0
LINE
  8
0
 10
150.714
 20
199.2
 11
123.571
 21
199.2
  0
LINE
  8
0
 10
123.571
 20
199.2
 11
123.571
 21
202.3
  0
LINE
  8
0
 10
123.571
 20
202.3
 11
96.4286
 21
202.3
  0
LINE
  8
0
 10
96.4286
 20
202.3
 11
96.4286
 21
199.2
  0
LINE
  8
0
 10
96.4286
 20
199.2
 11
69.2857
 21
199.2
  0
LINE
  8
0
 10
69.2857
 20
199.2
 11
69.2857
 21
202.3
  0
LINE
  8
0
 10
69.2857
 20
202.3
 11
42.1429
 21
202.3
  0
LINE
  8
0
 10
42.1429
 20
202.3
 11
42.1429
 21
199.2
  0
LINE
  8
0
 10
42.1429
 20
199.2
 11
15
 21
199.2
  0
LINE
  8
0
 10
15
 20
199.2
 11
15
 21
100
  0
LINE
  8
0
 10
15
 20
100
 11
42.1429
 21
100
  0
LINE
  8
0
 10
42.1429
 20
100
 11
42.1429
 21
96.9
  0
LINE
  8
0
 10
42.1429
 20
96.9
 11
69.2857
 21
96.9
  0
LINE
  8
0
 10
69.2857
 20
96.9
 11
69.2857
 21
100
  0
LINE
  8
0
 10
213.09
 20
-68.5606
 11
215
 21
-67.7103
  0
LINE
  8
0
 10
215
 20
-67.7103
 11
216.691
 21
-66.4814
  0
LINE
  8
0
 10
216.691
 20
-66.4814
 11
218.09
 21
-64.9278
  0
LINE
  8
0
 10
218.09
 20
-64.9278
 11
219.135
 21
-63.1174
  0
LINE
  8
0
 10
219.135
 20
-63.1174
 11
219.781
 21
-61.1291
  0
LINE
  8
0
 10
219.781
 20
-61.1291
 11
220
 21
-59.05
  0
LINE
  8
0
 10
220
 20
-59.05
 11
220
 21
59.05
  0
LINE
  8
0
 10
220
 20
59.05
 11
219.781
 21
61.1291
  0
LINE
  8
0
 10
219.781
 20
61.1291
 11
219.135
 21
63.1174
  0
LINE
  8
0
 10
219.135
 20
63.1174
 11
218.09
 21
64.9278
  0
LINE
  8
0
 10
218.09
 20
64.9278
 11
216.691
 21
66.4814
  0
LINE
  8
0
 10
216.691
 20
66.4814
 11
215
 21
67.7103
  0
LINE
  8
0
 10
215
 20
67.7103
 11
213.09
 21
68.5606
  0
LINE
  8
0
 10
213.09
 20
68.5606
 11
211.045
 21
68.9952
  0
LINE
  8
0
 10
211.045
 20
68.9952
 11
8.95471
 21
68.9952
  0
LINE
  8
0
 10
8.95471
 20
68.9952
 11
6.90982
 21
68.5606
  0
LINE
  8
0
 10
6.90982
 20
68.5606
 11
5
 21
67.7103
  0
LINE
  8
0
 10
5
 20
67.7103
 11
3.30869
 21
66.4814
  0
LINE
  8
0
 10
3.30869
 20
66.4814
 11
1.90982
 21
64.9278
  0
LINE
  8
0
 10
1.90982
 20
64.9278
 11
0.864532
 21
63.1174
  0
LINE
  8
0
 10
0.864532
 20
63.1174
 11
0.218521
 21
61.1291
  0
LINE
  8
0
 10
0.218521
 20
61.1291
 11
0
 21
59.05
  0
LINE
  8
0
 10
0
 20
59.05
 11
0
 21
-59.05
  0
LINE
  8
0
 10
0
 20
-59.05
 11
0.218521
 21
-61.1291
  0
LINE
  8
0
 10
0.218521
 20
-61.1291
 11
0.864532
 21
-63.1174
  0
LINE
  8
0
 10
0.864532
 20
-63.1174
 11
1.90982
 21
-64.9278
  0
LINE
  8
0
 10
1.90982
 20
-64.9278
 11
3.30869
 21
-66.4814
  0
LINE
  8
0
 10
3.30869
 20
-66.4814
 11
4.99998
 21
-67.7103
  0
LINE
  8
0
 10
4.99998
 20
-67.7103
 11
6.90982
 21
-68.5606
  0
LINE
  8
0
 10
6.90982
 20
-68.5606
 11
8.95471
 21
-68.9952
  0
LINE
  8
0
 10
8.95471
 20
-68.9952
 11
211.045
 21
-68.9952
  0
LINE
  8
0
 10
211.045
 20
-68.9952
 11
213.09
 21
-68.5606
  0
LINE
  8
0
 10
150.714
 20
57.5
 11
150.714
 21
60.6
  0
LINE
  8
0
 10
150.714
 20
60.6
 11
177.857
 21
60.6
  0
LINE
  8
0
 10
177.857
 20
60.6
 11
177.857
 21
57.5
  0
LINE
  8
0
 10
177.857
 20
57.5
 11
150.714
 21
57.5
  0
LINE
  8
0
 10
96.4286
 20
57.5
 11
96.4286
 21
60.6
  0
LINE
  8
0
 10
96.4286
 20
60.6
 11
123.571
 21
60.6
  0
LINE
  8
0
 10
123.571
 20
60.6
 11
123.571
 21
57.5
  0
LINE
  8
0
 10
123.571
 20
57.5
 11
96.4286
 21
57.5
  0
LINE
  8
0
 10
42.1429
 20
57.5
 11
42.1429
 21
60.6
  0
LINE
  8
0
 10
42.1429
 20
60.6
 11
69.2857
 21
60.6
  0
LINE
  8
0
 10
69.2857
 20
60.6
 11
69.2857
 21
57.5
  0
LINE
  8
0
 10
69.2857
 20
57.5
 11
42.1429
 21
57.5
  0
LINE
  8
0
 10
9.2
 20
57.6644
 11
8.39999
 21
59.05
  0
LINE
  8
0
 10
8.39999
 20
59.05
 11
9.2
 21
60.4356
  0
LINE
  8
0
 10
9.2
 20
60.4356
 11
10.8
 21
60.4356
  0
LINE
  8
0
 10
10.8
 20
60.4356
 11
11.6
 21
59.05
  0
LINE
  8
0
 10
11.6
 20
59.05
 11
10.8
 21
57.6644
  0
LINE
  8
0
 10
10.8
 20
57.6644
 11
9.2
 21
57.6644
  0
LINE
  8
0
 10
209.2
 20
57.6644
 11
208.4
 21
59.05
  0
LINE
  8
0
 10
208.4
 20
59.05
 11
209.2
 21
60.4356
  0
LINE
  8
0
 10
209.2
 20
60.4356
 11
210.8
 21
60.4356
  0
LINE
  8
0
 10
210.8
 20
60.4356
 11
211.6
 21
59.05
  0
LINE
  8
0
 10
211.6
 20
59.05
 11
210.8
 21
57.6644
  0
LINE
  8
0
 10
210.8
 20
57.6644
 11
209.2
 21
57.6644
  0
LINE
  8
0
 10
208.45
 20
10.81
 11
208.45
 21
32.43
  0
LINE
  8
0
 10
208.45
 20
32.43
 11
211.55
 21
32.43
  0
LINE
  8
0
 10
211.55
 20
32.43
 11
211.55
 21
10.81
  0
LINE
  8
0
 10
211.55
 20
10.81
 11
208.45
 21
10.81
  0
LINE
  8
0
 10
73.108
 20
24.0888
 11
73.108
 21
25.9111
  0
LINE
  8
0
 10
73.108
 20
25.9111
 11
74.5327
 21
27.0473
  0
LINE
  8
0
 10
74.5327
 20
27.0473
 11
76.3093
 21
26.6418
  0
LINE
  8
0
 10
76.3093
 20
26.6418
 11
77.1
 21
25
  0
LINE
  8
0
 10
77.1
 20
25
 11
76.3093
 21
23.3581
  0
LINE
  8
0
 10
76.3093
 20
23.3581
 11
74.5327
 21
22.9526
  0
LINE
  8
0
 10
74.5327
 20
22.9526
 11
73.108
 21
24.0888
  0
LINE
  8
0
 10
208.45
 20
-32.43
 11
208.45
 21
-10.81
  0
LINE
  8
0
 10
208.45
 20
-10.81
 11
211.55
 21
-10.81
  0
LINE
  8
0
 10
211.55
 20
-10.81
 11
211.55
 21
-32.43
  0
LINE
  8
0
 10
211.55
 20
-32.43
 11
208.45
 21
-32.43
  0
LINE
  8
0
 10
73.108
 20
-25.9111
 11
73.108
 21
-24.0888
  0
LINE
  8
0
 10
73.108
 20
-24.0888
 11
74.5327
 21
-22.9526
  0
LINE
  8
0
 10
74.5327
 20
-22.9526
 11
76.3093
 21
-23.3581
  0
LINE
  8
0
 10
76.3093
 20
-23.3581
 11
77.1
 21
-25
  0
LINE
  8
0
 10
77.1
 20
-25
 11
76.3093
 21
-26.6418
  0
LINE
  8
0
 10
76.3093
 20
-26.6418
 11
74.5327
 21
-27.0473
  0
LINE
  8
0
 10
74.5327
 20
-27.0473
 11
73.108
 21
-25.9111
  0
LINE
  8
0
 10
150.714
 20
-60.6
 11
150.714
 21
-57.5
  0
LINE
  8
0
 10
150.714
 20
-57.5
 11
177.857
 21
-57.5
  0
LINE
  8
0
 10
177.857
 20
-57.5
 11
177.857
 21
-60.6
  0
LINE
  8
0
 10
177.857
 20
-60.6
 11
150.714
 21
-60.6
  0
LINE
  8
0
 10
96.4286
 20
-60.6
 11
96.4286
 21
-57.5
  0
LINE
  8
0
 10
96.4286
 20
-57.5
 11
123.571
 21
-57.5
  0
LINE
  8
0
 10
123.571
 20
-57.5
 11
123.571
 21
-60.6
  0
LINE
  8
0
 10
123.571
 20
-60.6
 11
96.4286
 21
-60.6
  0
LINE
  8
0
 10
42.1429
 20
-60.6
 11
42.1429
 21
-57.5
  0
LINE
  8
0
 10
42.1429
 20
-57.5
 11
69.2857
 21
-57.5
  0
LINE
  8
0
 10
69.2857
 20
-57.5
 11
69.2857
 21
-60.6
  0
LINE
  8
0
 10
69.2857
 20
-60.6
 11
42.1429
 21
-60.6
  0
LINE
  8
0
 10
209.2
 20
-60.4356
 11
208.4
 21
-59.05
  0
LINE
  8
0
 10
208.4
 20
-59.05
 11
209.2
 21
-57.6644
  0
LINE
  8
0
 10
209.2
 20
-57.6644
 11
210.8
 21
-57.6644
  0
LINE
  8
0
 10
210.8
 20
-57.6644
 11
211.6
 21
-59.05
  0
LINE
  8
0
 10
211.6
 20
-59.05
 11
210.8
 21
-60.4356
  0
LINE
  8
0
 10
210.8
 20
-60.4356
 11
209.2
 21
-60.4356
  0
LINE
  8
0
 10
9.2
 20
-60.4356
 11
8.39999
 21
-59.05
  0
LINE
  8
0
 10
8.39999
 20
-59.05
 11
9.2
 21
-57.6644
  0
LINE
  8
0
 10
9.2
 20
-57.6644
 11
10.8
 21
-57.6644
  0
LINE
  8
0
 10
10.8
 20
-57.6644
 11
11.6
 21
-59.05
  0
LINE
  8
0
 10
11.6
 20
-59.05
 11
10.8
 21
-60.4356
  0
LINE
  8
0
 10
10.8
 20
-60.4356
 11
9.2
 21
-60.4356
  0
LINE
  8
0
 10
303.24
 20
-69.05
 11
324.86
 21
-69.05
  0
LINE
  8
0
 10
324.86
 20
-69.05
 11
324.86
 21
-72.15
  0
LINE
  8
0
 10
324.86
 20
-72.15
 11
346.48
 21
-72.15
  0
LINE
  8
0
 10
346.48
 20
-72.15
 11
346.48
 21
-69.05
  0
LINE
  8
0
 10
346.48
 20
-69.05
 11
368.1
 21
-69.05
  0
LINE
  8
0
 10
368.1
 20
-69.05
 11
368.1
 21
30.15
  0
LINE
  8
0
 10
368.1
 20
30.15
 11
346.48
 21
30.15
  0
LINE
  8
0
 10
346.48
 20
30.15
 11
346.48
 21
33.25
  0
LINE
  8
0
 10
346.48
 20
33.25
 11
324.86
 21
33.25
  0
LINE
  8
0
 10
324.86
 20
33.25
 11
324.86
 21
30.15
  0
LINE
  8
0
 10
324.86
 20
30.15
 11
303.24
 21
30.15
  0
LINE
  8
0
 10
303.24
 20
30.15
 11
303.24
 21
33.25
  0
LINE
  8
0
 10
303.24
 20
33.25
 11
281.62
 21
33.25
  0
LINE
  8
0
 10
281.62
 20
33.25
 11
281.62
 21
30.15
  0
LINE
  8
0
 10
281.62
 20
30.15
 11
260
 21
30.15
  0
LINE
  8
0
 10
260
 20
30.15
 11
260
 21
-69.05
  0
LINE
  8
0
 10
260
 20
-69.05
 11
281.62
 21
-69.05
  0
LINE
  8
0
 10
281.62
 20
-69.05
 11
281.62
 21
-72.15
  0
LINE
  8
0
 10
281.62
 20
-72.15
 11
303.24
 21
-72.15
  0
LINE
  8
0
 10
303.24
 20
-72.15
 11
303.24
 21
-69.05
  0
ENDSEC
  0
SECTION
  2
OBJECTS
  0
DICTIONARY
  0
ENDSEC
  0
EOF
