  0
SECTION
  2
BLOCKS
  0
ENDSEC
  0
SECTION
  2
ENTITIES
  0
LINE
  8
0
 10
31
 20
31
 11
5
 21
31
  0
LINE
  8
0
 10
5
 20
31
 11
5
 21
21
  0
LINE
  8
0
 10
5
 20
21
 11
17.1838
 21
21
  0
LINE
  8
0
 10
17.1838
 20
21
 11
21
 21
17.1838
  0
LINE
  8
0
 10
21
 20
17.1838
 11
21
 21
-17.1838
  0
LINE
  8
0
 10
21
 20
-17.1838
 11
17.1838
 21
-21
  0
LINE
  8
0
 10
17.1838
 20
-21
 11
-17.1838
 21
-21
  0
LINE
  8
0
 10
-17.1838
 20
-21
 11
-21
 21
-17.1838
  0
LINE
  8
0
 10
-21
 20
-17.1838
 11
-21
 21
17.1838
  0
LINE
  8
0
 10
-21
 20
17.1838
 11
-17.1838
 21
21
  0
LINE
  8
0
 10
-17.1838
 20
21
 11
-5
 21
21
  0
LINE
  8
0
 10
-5
 20
21
 11
-5
 21
31
  0
LINE
  8
0
 10
-5
 20
31
 11
-31
 21
31
  0
LINE
  8
0
 10
-31
 20
31
 11
-31
 21
-74
  0
LINE
  8
0
 10
-31
 20
-74
 11
31
 21
-74
  0
LINE
  8
0
 10
31
 20
-74
 11
31
 21
31
  0
LINE
  8
0
 10
-9.61803
 20
-65.9021
 11
-10.1756
 21
-65.618
  0
LINE
  8
0
 10
-10.1756
 20
-65.618
 11
-10.618
 21
-65.1756
  0
LINE
  8
0
 10
-10.618
 20
-65.1756
 11
-10.9021
 21
-64.618
  0
LINE
  8
0
 10
-10.9021
 20
-64.618
 11
-11
 21
-64
  0
LINE
  8
0
 10
-11
 20
-64
 11
-10.9021
 21
-63.382
  0
LINE
  8
0
 10
-10.9021
 20
-63.382
 11
-10.618
 21
-62.8244
  0
LINE
  8
0
 10
-10.618
 20
-62.8244
 11
-10.1756
 21
-62.382
  0
LINE
  8
0
 10
-10.1756
 20
-62.382
 11
-9.61803
 21
-62.0979
  0
LINE
  8
0
 10
-9.61803
 20
-62.0979
 11
-9
 21
-62
  0
LINE
  8
0
 10
-9
 20
-62
 11
-8.38196
 21
-62.0979
  0
LINE
  8
0
 10
-8.38196
 20
-62.0979
 11
-7.82442
 21
-62.382
  0
LINE
  8
0
 10
-7.82442
 20
-62.382
 11
-7.38196
 21
-62.8244
  0
LINE
  8
0
 10
-7.38196
 20
-62.8244
 11
-7.09789
 21
-63.382
  0
LINE
  8
0
 10
-7.09789
 20
-63.382
 11
-7
 21
-64
  0
LINE
  8
0
 10
-7
 20
-64
 11
-7.09789
 21
-64.618
  0
LINE
  8
0
 10
-7.09789
 20
-64.618
 11
-7.38196
 21
-65.1756
  0
LINE
  8
0
 10
-7.38196
 20
-65.1756
 11
-7.82442
 21
-65.618
  0
LINE
  8
0
 10
-7.82442
 20
-65.618
 11
-8.38196
 21
-65.9021
  0
LINE
  8
0
 10
-8.38196
 20
-65.9021
 11
-9
 21
-66
  0
LINE
  8
0
 10
-9
 20
-66
 11
-9.61803
 21
-65.9021
  0
LINE
  8
0
 10
-0.618027
 20
-65.9021
 11
-1.17557
 21
-65.618
  0
LINE
  8
0
 10
-1.17557
 20
-65.618
 11
-1.61803
 21
-65.1756
  0
LINE
  8
0
 10
-1.61803
 20
-65.1756
 11
-1.9021
 21
-64.618
  0
LINE
  8
0
 10
-1.9021
 20
-64.618
 11
-2
 21
-64
  0
LINE
  8
0
 10
-2
 20
-64
 11
-1.9021
 21
-63.382
  0
LINE
  8
0
 10
-1.9021
 20
-63.382
 11
-1.61803
 21
-62.8244
  0
LINE
  8
0
 10
-1.61803
 20
-62.8244
 11
-1.17557
 21
-62.382
  0
LINE
  8
0
 10
-1.17557
 20
-62.382
 11
-0.618011
 21
-62.0979
  0
LINE
  8
0
 10
-0.618011
 20
-62.0979
 11
0
 21
-62
  0
LINE
  8
0
 10
0
 20
-62
 11
0.618027
 21
-62.0979
  0
LINE
  8
0
 10
0.618027
 20
-62.0979
 11
1.17557
 21
-62.382
  0
LINE
  8
0
 10
1.17557
 20
-62.382
 11
1.61803
 21
-62.8244
  0
LINE
  8
0
 10
1.61803
 20
-62.8244
 11
1.9021
 21
-63.382
  0
LINE
  8
0
 10
1.9021
 20
-63.382
 11
2
 21
-64
  0
LINE
  8
0
 10
2
 20
-64
 11
1.9021
 21
-64.618
  0
LINE
  8
0
 10
1.9021
 20
-64.618
 11
1.61803
 21
-65.1756
  0
LINE
  8
0
 10
1.61803
 20
-65.1756
 11
1.17557
 21
-65.618
  0
LINE
  8
0
 10
1.17557
 20
-65.618
 11
0.618011
 21
-65.9021
  0
LINE
  8
0
 10
0.618011
 20
-65.9021
 11
0
 21
-66
  0
LINE
  8
0
 10
0
 20
-66
 11
-0.618027
 21
-65.9021
  0
ENDSEC
  0
SECTION
  2
OBJECTS
  0
DICTIONARY
  0
ENDSEC
  0
EOF
